<?xml version="1.0" encoding="utf-8"?>
<!-- Generator: Adobe Illustrator 19.0.0, SVG Export Plug-In . SVG Version: 6.00 Build 0)  -->
<svg version="1.1" id="Capa_1" xmlns="http://www.w3.org/2000/svg" xmlns:xlink="http://www.w3.org/1999/xlink" x="0px" y="0px"
	 viewBox="-281 373 48 48" style="enable-background:new -281 373 48 48;" xml:space="preserve">
<style type="text/css">
	.st0{fill:#FFFFFF;}
</style>
<path class="st0" d="M-267.9,414.1c7.2,2.9,16.4,1.7,20.9-1.5c-1.8,3.8-8.2,6.9-11.4,8.4C-260.9,419.6-265.3,417.6-267.9,414.1z
	 M-253.3,413.7c-6.5,1.2-12.2,0.9-15.9-3.1c-2.8-3.1-5.3-10.9,0.9-18.8c-0.1,7.4,2.4,11.7,3.6,13.5
	C-263.2,407.7-258.2,412.4-253.3,413.7z M-243.8,392.1c-0.7,9.7-9.4,15.8-16.8,15.4c6.5,5.3,11.4,6.6,15.3,1.5
	C-242.9,405.8-239.8,398.7-243.8,392.1z M-254.7,373c-1.7,8.1,9.7,12,9,19.8c-0.3,5.6-7.2,13.2-15.8,13.3c5.5-3.8,6-11,4.3-14.8
	C-258.9,387.3-263.1,377.6-254.7,373z M-262.1,393.7c2,0,3.5,1.6,3.5,3.5c0,2-1.6,3.5-3.5,3.5c-2,0-3.5-1.6-3.5-3.5
	C-265.7,395.2-264.1,393.7-262.1,393.7z"/>
</svg>
