<?xml version="1.0" encoding="utf-8"?>
<!-- Generator: Adobe Illustrator 19.0.0, SVG Export Plug-In . SVG Version: 6.00 Build 0)  -->
<svg version="1.1" id="Capa_1" xmlns="http://www.w3.org/2000/svg" xmlns:xlink="http://www.w3.org/1999/xlink" x="0px" y="0px"
	 viewBox="-85 2 48 48" style="enable-background:new -85 2 48 48;" xml:space="preserve">
<style type="text/css">
	.st0{fill:#FFFFFF;}
</style>
<g>
	<g>
		<path class="st0" d="M-52.9,23.3l-1.4,0.1h-1c-0.1-0.4-0.3-0.9-0.8-1.4l-4.2,4.1c0.5,0.5,1.1,0.8,2.1,0.8v0.3v1.5
			c0,0.5,0.2,0.7,0.7,0.7h0.5c0.5,0,0.8-0.2,0.8-0.7v-1.5l2.2,2.2c0.4,0.5,0.9,0.5,1.5,0l0.4-0.4c0.5-0.5,0.5-1,0-1.6l-2.3-2.2h1.6
			c0.4,0,0.7-0.2,0.7-0.7v-0.4C-52.1,23.6-52.4,23.3-52.9,23.3z"/>
		<path class="st0" d="M-63.8,14.7c1,1,1.6,2.3,1.6,3.7c0,1.6-0.5,2.7-1.6,3.8c-0.3,0.3-0.6,0.6-1,0.8l3.1,3.1l5.7-5.7L-69.6,7
			l-5.6,5.7l3,3c0.2-0.4,0.4-0.8,0.8-1c1-1.1,2.3-1.7,3.8-1.7S-64.9,13.5-63.8,14.7z"/>
		<path class="st0" d="M-64.4,15.3c-0.9-0.8-2-1.3-3.1-1.3c-1.3,0-2.3,0.5-3.2,1.3c-0.8,0.9-1.4,2-1.4,3.1c0,1.3,0.5,2.3,1.4,3.2
			c0.9,0.9,2,1.4,3.2,1.4c1.1,0,2.2-0.4,3.1-1.4c0.9-0.9,1.3-2,1.3-3.2C-63,17.3-63.5,16.2-64.4,15.3z"/>
		<path class="st0" d="M-60.3,38.3c-3,0-5.5-1-7.6-3.1c-2.1-2.1-3.1-4.6-3.1-7.5v-2.3c0-0.8,0.1-1.8,0.3-2.6
			c-0.3-0.1-0.5-0.3-0.6-0.5c-0.7-0.7-1.2-1.4-1.5-2.3c-0.6,1.6-1,3.1-1,4.9c0,0.2,0,0.3,0,0.5v2.3c0,2.8,0.7,5.3,2.3,7.6V45
			c-1,0.1-1.6,0.8-1.6,2v1c0,1.2,0.7,2,2.1,2h20.5c1.2,0,2-0.7,2-2v-1c0-1.4-0.7-2.1-2-2.1H-52l-6.5-3.9c1.9-0.2,3.5-0.8,5.1-1.8
			l0.4,0.3c0.6,0.7,1.3,0.7,1.9,0.1l8.7-8.7c0.7-0.7,0.7-1.3,0-2.1l-2.1-2c-0.7-0.6-1.2-0.6-2,0l-8.5,8.7c-0.5,0.5-0.6,1-0.4,1.6
			C-56.9,37.8-58.6,38.3-60.3,38.3z"/>
		<path class="st0" d="M-71.1,2.7c-0.8-0.9-1.8-0.9-2.8,0l-5.6,5.7c-0.9,1-0.9,1.9-0.1,2.8l0.8,0.8c1,0.9,2,0.9,2.9,0l5.7-5.6
			c0.9-1,0.9-2,0-2.9L-71.1,2.7z"/>
	</g>
</g>
</svg>
