<?xml version="1.0" encoding="utf-8"?>
<!-- Generator: Adobe Illustrator 16.0.0, SVG Export Plug-In . SVG Version: 6.00 Build 0)  -->
<!DOCTYPE svg PUBLIC "-//W3C//DTD SVG 1.1//EN" "http://www.w3.org/Graphics/SVG/1.1/DTD/svg11.dtd">
<svg version="1.1" id="Capa_1" xmlns="http://www.w3.org/2000/svg" xmlns:xlink="http://www.w3.org/1999/xlink" x="0px" y="0px"
	 width="16px" height="16px" viewBox="0 0 16 16" enable-background="new 0 0 16 16" xml:space="preserve">
<g id="mi_menu_-_expandir">
	<g>
		<path fill="#999999" d="M10.3,4.6c0.3,0.3,0.3,0.8,0,1.1L7.2,8.8C6.8,9.2,6.3,9.2,6,8.8L5.7,8.6c-0.3-0.3-0.3-0.8,0-1.1l3.1-3.1
			C9.2,4,9.7,4,10,4.3L10.3,4.6z"/>
		<path fill="#999999" d="M10.3,10.3c0.3,0.3,0.3,0.8,0,1.101L10,11.7c-0.3,0.3-0.8,0.3-1.1,0L5.7,8.6c-0.3-0.3-0.3-0.8,0-1.1L6,7.2
			c0.3-0.3,0.8-0.3,1.1,0L10.3,10.3z"/>
	</g>
</g>
</svg>
