<?xml version="1.0" encoding="utf-8"?>
<!-- Generator: Adobe Illustrator 16.0.0, SVG Export Plug-In . SVG Version: 6.00 Build 0)  -->
<!DOCTYPE svg PUBLIC "-//W3C//DTD SVG 1.1//EN" "http://www.w3.org/Graphics/SVG/1.1/DTD/svg11.dtd">
<svg version="1.1" id="Capa_1" xmlns="http://www.w3.org/2000/svg" xmlns:xlink="http://www.w3.org/1999/xlink" x="0px" y="0px"
	 width="16px" height="16px" viewBox="0 0 16 16" style="enable-background:new 0 0 16 16;" xml:space="preserve">
<style type="text/css">
<![CDATA[
	.st0{fill:#FFFFFF;}
	.st1{fill:#0091EF;}
]]>
</style>
<g id="mi_menu_-_expandir">
	<path class="st1" d="M12,10c0,1.1-0.9,2-2,2H6c-1.1,0-2-0.9-2-2V6c0-1.1,0.9-2,2-2h4c1.1,0,2,0.9,2,2V10z"/>
	<path class="st0" d="M11,8.2C11,8.6,10.6,9,10.2,9H5.8C5.4,9,5,8.6,5,8.2V7.8C5,7.4,5.4,7,5.8,7h4.4C10.6,7,11,7.4,11,7.8V8.2z"/>
	<path class="st0" d="M9,10.2C9,10.6,8.6,11,8.2,11H7.8C7.4,11,7,10.6,7,10.2V5.8C7,5.4,7.4,5,7.8,5h0.4C8.6,5,9,5.4,9,5.8V10.2z"/>
</g>
<g>
</g>
<g>
</g>
<g>
</g>
<g>
</g>
<g>
</g>
<g>
</g>
<g>
</g>
<g>
</g>
<g>
</g>
<g>
</g>
<g>
</g>
<g>
</g>
<g>
</g>
<g>
</g>
<g>
</g>
</svg>
