<?xml version="1.0" encoding="utf-8"?>
<!-- Generator: Adobe Illustrator 16.0.0, SVG Export Plug-In . SVG Version: 6.00 Build 0)  -->
<!DOCTYPE svg PUBLIC "-//W3C//DTD SVG 1.1//EN" "http://www.w3.org/Graphics/SVG/1.1/DTD/svg11.dtd">
<svg version="1.1" id="Capa_1" xmlns="http://www.w3.org/2000/svg" xmlns:xlink="http://www.w3.org/1999/xlink" x="0px" y="0px"
	 width="16px" height="16px" viewBox="0 0 16 16" style="enable-background:new 0 0 16 16;" xml:space="preserve">
<style type="text/css">
<![CDATA[
	.st0{fill:#FFFFFF;}
	.st1{fill:#0091EF;}
]]>
</style>
<g id="mi_menu_-_desplegar">
	<path class="st1" d="M16,12c0,2.2-1.8,4-4,4H4c-2.2,0-4-1.8-4-4V4c0-2.2,1.8-4,4-4h8c2.2,0,4,1.8,4,4V12z"/>
	<path class="st0" d="M14,8.2C14,8.6,13.6,9,13.2,9H2.8C2.4,9,2,8.6,2,8.2V7.8C2,7.4,2.4,7,2.8,7h10.4C13.6,7,14,7.4,14,7.8V8.2z"/>
	<path class="st0" d="M14,12.2c0,0.4-0.4,0.8-0.8,0.8H2.8C2.4,13,2,12.6,2,12.2v-0.4C2,11.4,2.4,11,2.8,11h10.4
		c0.4,0,0.8,0.4,0.8,0.8V12.2z"/>
	<path class="st0" d="M14,4.2C14,4.6,13.6,5,13.2,5H2.8C2.4,5,2,4.6,2,4.2V3.8C2,3.4,2.4,3,2.8,3h10.4C13.6,3,14,3.4,14,3.8V4.2z"/>
</g>
</svg>
