<?xml version="1.0" encoding="utf-8"?>
<!-- Generator: Adobe Illustrator 16.0.0, SVG Export Plug-In . SVG Version: 6.00 Build 0)  -->
<!DOCTYPE svg PUBLIC "-//W3C//DTD SVG 1.1//EN" "http://www.w3.org/Graphics/SVG/1.1/DTD/svg11.dtd">
<svg version="1.1" xmlns="http://www.w3.org/2000/svg" xmlns:xlink="http://www.w3.org/1999/xlink" x="0px" y="0px" width="48px"
	 height="48px" viewBox="0 0 48 48" style="enable-background:new 0 0 48 48;" xml:space="preserve">
<style type="text/css">
<![CDATA[
	.st0{display:none;fill:#075AB8;}
	.st1{clip-path:url(#SVGID_2_);}
	.st2{fill:#FFFFFF;}
]]>
</style>
<g id="_x34_8">
	<circle id="base_circular" class="st0" cx="24" cy="24" r="24.1"/>
	<g id="default">
		<g id="_x5F__general_4_">
			<defs>
				<circle id="SVGID_1_" cx="24" cy="24" r="24"/>
			</defs>
			<clipPath id="SVGID_2_">
				<use xlink:href="#SVGID_1_"  style="overflow:visible;"/>
			</clipPath>
			<g id="logo_base_1_" class="st1">
				<path class="st2" d="M19.9,8.2c-0.6,0.6-1,1.2-1.3,1.9c-0.3,0.7-0.4,1.4-0.4,2.2c0,1.2,0.3,2.2,0.9,3.1c0.1,0.2,0.2,0.4,0.4,0.5
					c0.1,0.2,0.3,0.3,0.5,0.5h0l0,0l0,0c0.5,0.5,1,0.9,1.5,1.1c0.1,0.1,0.2,0.1,0.3,0.1c0.7,0.3,1.4,0.4,2.2,0.4v0h0
					c1.1,0,2.2-0.3,3.1-0.9c0.2-0.1,0.4-0.2,0.5-0.4c0.2-0.1,0.3-0.3,0.5-0.5v0l0,0h0c0.5-0.5,0.8-1,1.1-1.6l0,0
					c0-0.1,0.1-0.2,0.1-0.3c0.3-0.7,0.4-1.4,0.4-2.2h0v0c0-0.8-0.1-1.6-0.4-2.2c-0.3-0.7-0.7-1.3-1.3-1.9c-0.5-0.5-1-0.9-1.5-1.1
					c-0.1,0-0.2-0.1-0.3-0.1v0c-0.7-0.3-1.4-0.4-2.2-0.4v0h0c-1.1,0-2.2,0.3-3.1,0.9l0,0c-0.2,0.1-0.3,0.2-0.5,0.4
					C20.2,7.9,20.1,8,19.9,8.2L19.9,8.2L19.9,8.2L19.9,8.2z"/>
				<path class="st2" d="M19.9,20.8c-0.9-0.5-1.7-1.1-2.4-1.8l0,0l0,0l0,0c-0.2-0.2-0.5-0.5-0.7-0.8c-0.2-0.3-0.4-0.6-0.6-0.8
					c-0.9-1.5-1.4-3.2-1.4-5c0-0.5,0-1,0.1-1.5H6v58.6h14.4V21C20.2,20.9,20.1,20.8,19.9,20.8z"/>
				<path class="st2" d="M33.1,10.9c0.1,0.5,0.1,1,0.1,1.5v0h0c0,1.3-0.2,2.5-0.7,3.6c-0.1,0.2-0.2,0.4-0.2,0.5v0
					c-0.4,0.9-1,1.7-1.8,2.5l0,0l0,0l0,0c-0.2,0.2-0.5,0.5-0.8,0.7c-0.3,0.2-0.5,0.4-0.8,0.6c-0.4,0.3-0.8,0.5-1.3,0.7v48.6H42V10.9
					H33.1z"/>
			</g>
		</g>
	</g>
</g>
<g id="_x39_6">
</g>
</svg>
