<?xml version="1.0" encoding="utf-8"?>
<!-- Generator: Adobe Illustrator 19.0.0, SVG Export Plug-In . SVG Version: 6.00 Build 0)  -->
<svg version="1.1" id="Capa_1" xmlns="http://www.w3.org/2000/svg" xmlns:xlink="http://www.w3.org/1999/xlink" x="0px" y="0px"
	 viewBox="0 0 220 50" style="enable-background:new 0 0 220 50;" xml:space="preserve">
<style type="text/css">
	.st0{fill:#FFFFFF;}
</style>
<g>
	<g>
		<g>
			<path id="XMLID_207_" class="st0" d="M115.1,8.5L115.1,8.5L115.1,8.5c0.4-0.1,0.8-0.1,1.1-0.1c1,0,1.2,0.3,1.2,0.4
				c0,0,0,0.1,0.1,0.1c0,0,0,0,0.1,0c0,0,0.1,0,0.1,0c0,0,0-0.1,0-0.1c0,0-0.2-0.7-1.3-0.8c0,0-0.6-0.1-1.2,0
				c-0.2,0-0.2,0.4-0.2,0.4c0,0,0,0.1,0,0.1C115,8.5,115,8.5,115.1,8.5"/>
			<path id="XMLID_206_" class="st0" d="M113.3,8.9L113.3,8.9c-0.2-0.1-0.8-0.1-0.8-0.1c-0.9,0-1.1,0.6-1.1,0.6c0,0.1,0,0.1,0,0.1
				c0,0,0.1,0,0.1,0c0.2,0,0.2-0.1,0.2-0.1c0,0,0.1-0.2,0.4-0.3c0,0,0,0,0,0c0,0,0,0,0,0c0,0.1,0,0.1,0,0.2c0,0.3,0.2,0.5,0.5,0.5
				c0.2,0,0.5-0.2,0.5-0.5c0-0.1,0-0.1,0-0.2c0,0,0,0,0,0c0,0,0,0,0,0c0.2,0.1,0.3,0.2,0.4,0.3c0,0.1,0.1,0.1,0.3,0.1
				c0,0,0.1,0,0.1,0c0,0,0-0.1,0-0.1C113.6,9,113.3,8.9,113.3,8.9"/>
			<path id="XMLID_205_" class="st0" d="M115,9.6c0.2,0,0.2,0,0.3-0.1c0.1-0.1,0.2-0.3,0.4-0.3c0,0,0,0,0,0c0,0,0,0,0,0
				c0,0.1,0,0.1,0,0.2c0,0.2,0.2,0.5,0.5,0.5c0.2,0,0.5-0.2,0.5-0.5c0-0.1,0-0.1,0-0.2c0,0,0,0,0,0c0,0,0,0,0,0
				c0.4,0.1,0.4,0.3,0.4,0.3c0,0,0.1,0.1,0.2,0.1c0,0,0.1,0,0.1,0c0,0,0-0.1,0-0.1c0,0-0.3-0.6-1.1-0.6c-0.1,0-0.6,0-0.8,0.1
				c0,0-0.3,0.1-0.4,0.6c0,0,0,0,0,0.1C114.9,9.6,115,9.6,115,9.6"/>
			<path id="XMLID_204_" class="st0" d="M111.1,8.8L111.1,8.8L111.1,8.8C111.1,8.8,111.1,8.8,111.1,8.8c0.2,0,0.2-0.1,0.2-0.1
				c0,0,0.3-0.6,2.3-0.3c0,0,0.1,0,0.1,0c0,0,0-0.1,0-0.1c0,0-0.1-0.4-0.2-0.4c-0.2,0-0.5-0.1-0.7-0.1c-0.3,0-0.5,0-0.5,0
				C111.3,8,111,8.7,111,8.7C111,8.7,111,8.7,111.1,8.8C111,8.8,111.1,8.8,111.1,8.8"/>
			<path class="st0" d="M128.2,30.9c0-0.1,0-0.2-0.1-0.2c0,0-0.1-0.1-0.2-0.1c0.1-0.1,0.1-0.2,0.1-0.3c0.2-0.5,0.3-1,0.3-1.6
				c0-0.1,0-0.1-0.1-0.2c-0.1,0-0.1,0-0.2,0c0-0.1,0.1-0.2,0.1-0.3c0.1-0.5,0.2-1,0.1-1.6c0-0.1-0.1-0.1-0.1-0.2c-0.1,0-0.1,0-0.2,0
				c0-0.1,0.1-0.2,0.1-0.4c0.1-0.5,0.1-1-0.1-1.6c0-0.1-0.1-0.1-0.1-0.2c0,0-0.1,0-0.1,0c0-0.1,0-0.2,0-0.3c0.1-0.5,0-1.1-0.1-1.6
				c0-0.1-0.1-0.1-0.1-0.2c-0.1,0-0.2,0-0.2,0c0,0,0,0,0,0c0-0.1,0-0.3,0-0.4c0-0.5-0.1-1-0.4-1.6c0-0.1-0.1-0.1-0.2-0.1
				c-0.1,0-0.1,0-0.2,0c0-0.1,0-0.3,0-0.4c-0.1-0.5-0.2-1-0.5-1.6c0-0.1-0.1-0.1-0.2-0.1c-0.1,0-0.1,0-0.2,0.1c0-0.1,0-0.2-0.1-0.4
				c-0.1-0.5-0.4-1-0.7-1.5c0-0.1-0.1-0.1-0.2-0.1c-0.1,0-0.1,0-0.2,0.1c0,0,0,0,0,0c0-0.1-0.1-0.3-0.2-0.4
				c-0.2-0.5-0.5-0.9-0.9-1.4c-0.1-0.1-0.1-0.1-0.2-0.1c-0.1,0-0.1,0.1-0.1,0.1c-0.1-0.1-0.1-0.3-0.2-0.4c-0.3-0.4-0.6-0.8-1.1-1.2
				c-0.1,0-0.1-0.1-0.2,0c-0.1,0-0.1,0.1-0.1,0.1c-0.3-0.4-0.7-0.7-1.2-0.9c0.1,0,0.1,0,0.2,0c0.7,0,1.1-0.1,1.2-0.1
				c0.2,0,0.3-0.2,0.2-0.4c0-0.2-0.2-0.3-0.3-0.3c-0.7,0-1-0.2-1.3-0.4c0,0-0.1,0-0.1-0.1l1.6-0.2c0.2,0,0.3-0.2,0.3-0.3
				c0-0.2-0.1-0.3-0.3-0.3l-1.5-0.2c0.2,0,0.3-0.1,0.5-0.1c0.6-0.2,1-0.5,1-0.5c0.1-0.1,0.2-0.3,0.1-0.4c-0.1-0.1-0.3-0.2-0.4-0.2
				c-0.7,0.2-1,0.2-1.4,0.2c0,0-0.1,0-0.1,0l1.4-0.8c0.1-0.1,0.2-0.3,0.1-0.4c-0.1-0.2-0.2-0.2-0.4-0.2l-1.5,0.4
				c0.1-0.1,0.3-0.2,0.4-0.3c0.5-0.4,0.7-0.9,0.7-0.9c0.1-0.1,0-0.3-0.1-0.4c-0.1-0.1-0.3-0.1-0.4,0c-0.5,0.5-0.8,0.6-1.2,0.7
				c0,0-0.1,0-0.1,0l0.9-1.3c0.1-0.1,0.1-0.3,0-0.4c-0.1-0.1-0.3-0.1-0.4,0L118,5.7c0.1-0.2,0.2-0.3,0.2-0.5
				c0.3-0.6,0.3-1.1,0.3-1.1c0-0.2-0.1-0.3-0.2-0.4c-0.2,0-0.3,0-0.4,0.2c-0.3,0.6-0.5,0.8-0.8,1.1c0,0-0.1,0-0.1,0.1l0.4-1.5
				c0-0.2,0-0.3-0.2-0.4c-0.2-0.1-0.3,0-0.4,0.1L116,4.6c0-0.2,0-0.4,0-0.5c0-0.7-0.1-1.1-0.1-1.2c0-0.2-0.2-0.3-0.4-0.2
				c-0.2,0-0.3,0.2-0.3,0.3c0,0.7-0.2,1-0.4,1.3c0,0,0,0.1,0,0.1l-0.2-1.6c0-0.2-0.2-0.3-0.3-0.3c-0.2,0-0.3,0.1-0.3,0.3l-0.2,1.5
				c0-0.2-0.1-0.3-0.1-0.5c-0.2-0.6-0.5-1-0.5-1c-0.1-0.1-0.3-0.2-0.4-0.1c-0.1,0.1-0.2,0.3-0.2,0.4c0.2,0.7,0.2,1,0.2,1.4
				c0,0,0,0.1,0,0.1l-0.8-1.4c-0.1-0.1-0.3-0.2-0.4-0.1c-0.2,0.1-0.2,0.2-0.2,0.4l0.4,1.5c-0.1-0.1-0.2-0.3-0.3-0.4
				c-0.4-0.5-0.8-0.7-0.9-0.7c-0.1-0.1-0.3,0-0.4,0.1c-0.1,0.1-0.1,0.3,0,0.4c0.5,0.5,0.6,0.8,0.7,1.2c0,0,0,0.1,0,0.1l-1.3-0.9
				c-0.1-0.1-0.3-0.1-0.4,0c-0.1,0.1-0.1,0.3,0,0.4l0.9,1.2c-0.2-0.1-0.3-0.2-0.4-0.2c-0.6-0.3-1.1-0.3-1.1-0.3
				c-0.2,0-0.3,0.1-0.4,0.3c0,0.2,0,0.3,0.2,0.4c0.6,0.3,0.8,0.5,1.1,0.8l0.1,0.1l-1.5-0.4c-0.2,0-0.3,0-0.4,0.2
				c-0.1,0.2,0,0.3,0.1,0.4l1.3,0.8c-0.2,0-0.3,0-0.5,0c-0.7,0-1.1,0.1-1.2,0.1c-0.2,0-0.3,0.2-0.2,0.4c0,0.2,0.2,0.3,0.3,0.3
				c0.7,0,1,0.2,1.3,0.4c0,0,0.1,0,0.1,0L107,9.9c-0.2,0-0.3,0.2-0.3,0.3c0,0.2,0.1,0.3,0.3,0.3l1.5,0.2c-0.2,0-0.3,0.1-0.5,0.2
				c-0.6,0.2-1,0.5-1,0.5c-0.1,0.1-0.2,0.3-0.1,0.4c0.1,0.1,0.3,0.2,0.4,0.2c0.3-0.1,0.6-0.2,0.8-0.2c-0.4,0.4-0.6,0.6-0.7,0.7
				c-0.1,0.1-0.1,0.2-0.2,0.3c0-0.1-0.1-0.1-0.1-0.1c-0.1,0-0.2,0-0.2,0c-0.5,0.4-0.9,0.8-1.1,1.2c-0.1,0.1-0.2,0.3-0.2,0.4
				c0-0.1-0.1-0.1-0.2-0.1c-0.1,0-0.2,0-0.2,0.1c-0.4,0.4-0.7,0.9-0.9,1.4c-0.1,0.1-0.1,0.3-0.1,0.4c0,0-0.1-0.1-0.2-0.1
				c-0.1,0-0.1,0-0.2,0.1c-0.4,0.5-0.6,1-0.8,1.5c0,0.1-0.1,0.3-0.1,0.4c0,0,0,0,0,0c0-0.1-0.1-0.1-0.2-0.1c-0.1,0-0.1,0.1-0.2,0.1
				c-0.3,0.5-0.5,1.1-0.5,1.6c0,0.1,0,0.3,0,0.4c-0.1-0.1-0.1-0.1-0.2-0.1c-0.1,0-0.1,0.1-0.2,0.1c-0.2,0.6-0.3,1.1-0.3,1.6
				c0,0.1,0,0.3,0,0.4c-0.1,0-0.1-0.1-0.2,0c-0.1,0-0.1,0.1-0.1,0.2c-0.1,0.6-0.2,1.1-0.1,1.6c0,0.1,0,0.2,0,0.3c0,0-0.1,0-0.1,0
				c-0.1,0-0.1,0.1-0.1,0.2c-0.1,0.6-0.1,1.1-0.1,1.6c0,0.1,0,0.3,0.1,0.4c0,0-0.1,0-0.1,0c-0.1,0-0.1,0.1-0.1,0.2
				c-0.1,0.6-0.1,1.1,0.1,1.6c0,0.1,0.1,0.2,0.1,0.3c-0.1,0-0.1,0-0.2,0c-0.1,0-0.1,0.1-0.1,0.2c0,0.6,0.1,1.1,0.2,1.6
				c0,0.1,0.1,0.3,0.2,0.4c0,0,0,0,0,0c-0.1,0-0.2,0-0.2,0.1c-0.1,0.1-0.1,0.1-0.1,0.2c0.1,0.6,0.3,1.1,0.5,1.6
				c0,0.1,0.1,0.2,0.2,0.3c0,0-0.1,0-0.1,0.1c-0.1,0.1-0.1,0.1-0.1,0.2c0.1,0.6,0.3,1.1,0.6,1.5c0.1,0.1,0.1,0.2,0.2,0.3
				c-0.1,0-0.1,0-0.2,0.1c0,0.1-0.1,0.1,0,0.2c0.2,0.6,0.5,1,0.8,1.4c0.1,0.1,0.2,0.2,0.2,0.3c-0.1,0-0.1,0.1-0.1,0.1
				c0,0.1,0,0.1,0,0.2c0.3,0.5,0.6,1,1,1.3c0.1,0.1,0.2,0.2,0.3,0.2c-0.1,0-0.1,0.1-0.1,0.1c0,0.1,0,0.2,0,0.2
				c0.3,0.5,0.7,0.9,1.1,1.2c0.1,0.1,0.3,0.2,0.4,0.3c0,0-0.1,0-0.1,0c-0.1,0-0.1,0.1-0.1,0.2c0,0.1,0,0.2,0.1,0.2
				c0.4,0.4,0.8,0.8,1.3,1c0.3,0.2,0.7,0.3,1,0.4c0.3,0.1,0.6,0.1,0.8,0c0.8,0.5,1.6,1,2.4,1.3c0.7,0.3,1.4,0.5,2.1,0.7
				c0.1,0,0.2,0,0.3,0.1l0.2,0c0.2,0.1,0.3,0.1,0.4,0.1c0,0.1,0,0.1,0,0.2c0,0.1,0,0.2,0,0.2c-0.2,0.2-1.1,1-2.4,1.2l-0.1,0l0,0.1
				c0,0.1,0.2,0.2,0.3,0.4l0,0l0,0c1.1-0.2,1.9-0.8,2.3-1.2c0,0,0.1,0.1,0.1,0.1c-0.1,0.3-0.4,1.1-1.7,1.4l-0.1,0l0.1,0.1
				c0.2,0.1,0.5,0.2,0.7,0.2l0,0l0,0c1-0.4,1.3-1.1,1.4-1.5c0.1,0,0.3,0,0.4,0c0.1,0.4,0.5,1,1.4,1.5l0,0l0,0c0.3,0,0.5-0.1,0.8-0.2
				l0.1-0.1l-0.1,0c-1.3-0.3-1.6-1.1-1.7-1.4c0,0,0.1-0.1,0.1-0.1c0.4,0.3,1.2,0.9,2.3,1.2l0,0l0,0c0.2-0.2,0.3-0.3,0.3-0.4l0-0.1
				l-0.1,0c-1.2-0.1-2-0.9-2.3-1.2c0-0.1,0-0.2,0-0.2c0-0.1,0-0.1,0-0.2c0.1,0,0.2-0.1,0.4-0.1l0.3,0c0.3-0.1,0.7-0.1,1-0.2
				c0.7-0.2,1.4-0.4,2-0.8c0.9-0.5,1.6-0.9,1.7-1.1c0.2,0,0.5,0,0.8,0c0.3-0.1,0.7-0.2,1-0.4c0.4-0.2,0.9-0.6,1.3-1
				c0.1-0.1,0.1-0.1,0.1-0.2c0-0.1-0.1-0.1-0.1-0.2c0,0,0,0-0.1,0c0.1-0.1,0.3-0.2,0.4-0.3c0.4-0.3,0.8-0.7,1.1-1.2
				c0-0.1,0-0.1,0-0.2c0-0.1-0.1-0.1-0.1-0.1c0.1-0.1,0.2-0.1,0.3-0.2c0.4-0.3,0.7-0.8,1-1.3c0-0.1,0-0.2,0-0.2
				c0-0.1-0.1-0.1-0.2-0.1c0.1-0.1,0.2-0.2,0.3-0.3c0.3-0.4,0.6-0.9,0.8-1.4c0-0.1,0-0.1,0-0.2c0-0.1-0.1-0.1-0.2-0.1c0,0,0,0,0,0
				c0.1-0.1,0.1-0.2,0.2-0.3c0.3-0.4,0.5-0.9,0.6-1.5c0-0.1,0-0.2-0.1-0.2c-0.1-0.1-0.1-0.1-0.2-0.1c0.1-0.1,0.1-0.2,0.2-0.3
				C128,32,128.1,31.4,128.2,30.9 M127.9,29L127.9,29C127.9,29,127.9,29,127.9,29c0,0.4-0.1,0.8-0.2,1.1c-0.1,0.3-0.3,0.6-0.5,0.9
				c-0.2,0.3-0.5,0.4-0.6,0.5c0,0,0,0,0,0c0,0,0,0,0,0c-0.3-0.5-0.5-1-0.5-1.6c0-0.2,0-0.4,0.1-0.6c0,0,0,0,0,0c0,0,0,0,0,0
				c0.3,0.4,0.5,0.8,0.5,0.8c0,0.1,0.1,0.1,0.1,0.1h0c0.1,0,0.1,0,0.2-0.1C127.3,29.5,127.6,29.2,127.9,29
				C127.9,29,127.9,29,127.9,29 M127.9,26.8C127.9,26.8,127.9,26.8,127.9,26.8C127.9,26.8,127.9,26.8,127.9,26.8
				c0,0.4,0,0.8-0.1,1.2c-0.1,0.3-0.2,0.7-0.4,0.9c-0.2,0.3-0.5,0.5-0.5,0.6c0,0,0,0,0,0c0,0,0,0,0,0c-0.6-0.7-0.6-1.6-0.6-2.2
				c0,0,0,0,0,0c0,0,0,0,0,0c0.3,0.3,0.5,0.7,0.5,0.8c0,0.1,0.1,0.1,0.2,0.1c0.1,0,0.1,0,0.1-0.1C127.3,27.4,127.6,27,127.9,26.8
				 M127.6,24.7L127.6,24.7C127.6,24.6,127.7,24.6,127.6,24.7C127.7,24.7,127.7,24.7,127.6,24.7c0.1,0.4,0.1,0.8,0,1.2
				c-0.1,0.4-0.2,0.7-0.3,1c-0.2,0.3-0.4,0.5-0.5,0.6c0,0,0,0,0,0c0,0,0,0,0,0c-0.6-0.5-0.8-1.5-0.8-2.1c0,0,0,0,0,0c0,0,0,0,0,0
				c0.3,0.3,0.6,0.7,0.6,0.7c0,0.1,0.1,0.1,0.2,0.1c0.1,0,0.1-0.1,0.1-0.1C127.1,25.3,127.4,24.9,127.6,24.7 M127.3,22.6L127.3,22.6
				C127.3,22.6,127.3,22.6,127.3,22.6C127.3,22.6,127.3,22.6,127.3,22.6c0.1,0.4,0.1,0.8,0.1,1.2c0,0.4-0.1,0.7-0.3,1
				c-0.2,0.3-0.4,0.5-0.5,0.6c0,0,0,0,0,0c0,0,0,0,0,0c-0.5-0.4-0.7-1-0.8-1.5c0-0.2-0.1-0.4-0.1-0.6c0,0,0,0,0,0c0,0,0,0,0,0
				c0.4,0.3,0.6,0.7,0.6,0.7c0,0.1,0.1,0.1,0.2,0.1c0.1,0,0.1-0.1,0.1-0.1C126.8,23.3,127.1,22.8,127.3,22.6 M116.1,33.8
				c0,0.1,0.1,0.1,0.1,0.1c0.7,0.3,1.3,1.1,1.5,1.4c0,0,0,0,0,0c0,0.1-0.1,0.1-0.1,0.2c-0.1,0.1-0.3,0.2-0.5,0.2c0,0,0,0,0,0
				c0,0,0,0,0,0c-0.1-0.2-0.2-0.4-0.4-0.6c-0.2-0.3-0.8-0.7-0.8-0.7c-0.1-0.1-0.3-0.1-0.4,0.1c-0.1,0.1-0.1,0.3,0.1,0.4
				c0.1,0.1,0.5,0.4,0.7,0.6c0.2,0.2,0.3,0.4,0.3,0.5c0,0,0,0,0,0c0,0.1-0.1,0.1-0.1,0.2c-0.1,0.1-0.3,0.2-0.4,0.1c0,0,0,0,0,0
				c-0.1-0.2-0.2-0.5-0.5-0.8c-0.1-0.1-0.3-0.1-0.4,0c-0.1,0-0.1,0.1-0.1,0.2c0,0.1,0,0.1,0.1,0.2c0.2,0.2,0.4,0.5,0.4,0.6
				c0,0,0,0,0,0c-0.1,0-0.1,0.1-0.2,0.1c-0.2,0.1-0.4,0.1-0.5,0.1c0,0,0,0,0,0c0,0,0,0,0,0c0.1-0.1,0.1-0.3,0.2-0.4
				c0-0.2,0-0.4-0.3-0.6c-0.1-0.1-0.4-0.2-0.7-0.2c0,0,0,0,0,0c0,0,0,0,0,0c0-0.2-0.1-0.4-0.3-0.5c-0.3-0.2-0.6-0.3-0.9-0.2
				c0,0,0,0,0,0l0,0c0,0,0,0,0,0c0-0.1-0.2-0.3-0.4-0.5c-0.2-0.1-0.5-0.1-0.8,0c0,0,0,0,0,0c-0.2-0.2-0.6-0.2-0.6-0.3
				c-0.4-0.1-0.9,0.1-1.2,0.4c0,0,0,0,0,0c-1.7,0.9-3.9,1.9-4.8,2.3c0,0,0,0,0,0c0,0,0,0,0,0c-0.5-0.9-0.9-1.8-1.2-2.8
				c-0.1-0.3-0.2-0.6-0.3-0.9c0,0,0,0,0,0c0,0,0,0,0,0c2.5-0.3,4.5-0.6,6-0.9c1.5-0.3,2.5-0.6,3-0.9l0,0c0.6-0.4,1-0.6,1.6-0.6
				c0.2,0,0.3,0,0.5,0.1c0,0,0,0,0,0c0,0,0,0,0,0c-0.1,0-0.3,0.1-0.4,0.2c-0.2,0.2-0.4,0.3-0.5,0.4c-0.1,0.1-0.2,0.2-0.4,0.3
				c-0.1,0.1-0.3,0.1-0.4,0.2c-0.3,0.2-0.6,0.3-0.7,0.5l0,0l0,0c-0.1,0.2-0.1,0.5,0.1,0.7c0.3,0.4,0.7,0.3,1,0.3
				c0.4,0,0.8-0.2,1.2-0.4c0.1-0.1,0.2-0.1,0.3-0.2c0.2-0.1,0.3-0.2,0.4-0.2c0,0,0,0,0,0c0.3-0.1,0.7-0.1,1.1,0.1
				c0.4,0.1,0.7,0.4,1,0.6c0.8,0.5,1.4,1.2,1.5,1.4c0,0,0,0,0,0c0,0.1-0.1,0.2-0.1,0.3c-0.1,0.1-0.2,0.1-0.4,0.1c0,0,0,0,0,0
				c-0.2-0.3-0.9-1.1-1.7-1.5c-0.1-0.1-0.3,0-0.3,0.1C116.1,33.7,116.1,33.8,116.1,33.8 M114.2,36.5
				C114.2,36.5,114.2,36.5,114.2,36.5L114.2,36.5c-0.1,0.1-0.5,0.3-0.7,0.3c0,0-0.1,0-0.1,0c-0.1,0-0.1,0-0.2-0.1c0,0,0,0,0,0
				c0.1-0.3,0.4-0.5,0.7-0.6c0.3-0.2,0.5-0.1,0.5-0.1c0.1,0.1,0.1,0.2,0.1,0.2C114.5,36.3,114.3,36.4,114.2,36.5L114.2,36.5
				L114.2,36.5z M111.2,35c0.4-0.4,0.7-0.5,0.9-0.3c0.1,0,0.2,0.1,0.2,0.2c0,0,0,0.1,0,0.1c0,0,0,0,0,0c-0.1,0-0.1,0.1-0.2,0.1
				c-0.4,0.3-0.6,0.6-0.7,0.8c0,0,0,0,0,0h0c-0.1,0-0.1,0-0.2,0c-0.3-0.1-0.3-0.3-0.3-0.3C110.9,35.4,111,35.3,111.2,35 M110.9,34.7
				c-0.2,0.2-0.4,0.4-0.4,0.7c0,0,0,0,0,0h0c-0.1,0-0.1,0-0.2,0c-0.2,0-0.3-0.1-0.3-0.2c0,0-0.1-0.1,0.1-0.3
				c0.2-0.2,0.6-0.4,0.9-0.4c0,0,0,0,0,0c0,0,0.1,0,0.2,0c0,0,0,0,0,0c0,0,0,0,0,0C111,34.6,111,34.6,110.9,34.7 M112.4,35.5
				c0.5-0.3,0.7-0.4,1-0.2c0.1,0.1,0.1,0.1,0.1,0.2c0,0.1-0.1,0.2-0.2,0.3c-0.3,0.2-0.5,0.4-0.6,0.7c0,0,0,0,0,0c-0.1,0-0.2,0-0.3,0
				c-0.1,0-0.3,0-0.4-0.1c0,0-0.1-0.1-0.1-0.2C111.9,35.9,112.2,35.7,112.4,35.5 M117.7,12.7C117.7,12.7,117.6,12.7,117.7,12.7
				C117.7,12.7,117.7,12.7,117.7,12.7c0.2-0.1,0.4-0.1,0.7-0.2c0.6,0,1.1,0.2,1.5,0.6c0,0,0,0,0,0c0,0,0,0,0,0
				c-0.1,0-0.3,0.1-0.6,0.1c0,0-0.1,0-0.1,0C118.6,13.3,118.1,13.1,117.7,12.7 M118.4,13.6h-8.1c1.3-0.6,2.6-1,4-1
				C115.7,12.6,117.1,13,118.4,13.6 M119.4,11.9c-0.2,0.1-0.5,0.2-0.8,0.2c-0.2,0-0.4,0.1-0.6,0.1c-0.4,0-0.8-0.1-1.1-0.3
				c0,0,0,0,0,0c0,0,0,0,0,0c0.1-0.1,0.4-0.2,0.7-0.3c0.3-0.1,0.6-0.1,0.9,0C118.8,11.6,119.1,11.7,119.4,11.9
				C119.4,11.9,119.4,11.9,119.4,11.9C119.4,11.9,119.4,11.9,119.4,11.9 M117.4,11.3c-0.2,0.1-0.6,0.2-1.1,0.3
				c-0.1,0-0.1,0.1-0.1,0.1c0,0.1,0,0.1,0.1,0.2c0,0,0.4,0.3,0.7,0.7c0,0,0,0,0,0c0,0,0,0,0,0c-0.5,0-1.4-0.2-2.1-1c0,0,0,0,0,0
				c0.1-0.1,0.3-0.2,0.6-0.4C116,11,116.7,11,117.4,11.3C117.5,11.2,117.5,11.2,117.4,11.3C117.5,11.3,117.5,11.3,117.4,11.3
				 M115.2,10.9c-0.2,0.1-0.5,0.3-1,0.5c-0.1,0-0.1,0.1-0.1,0.2c0,0.1,0,0.1,0.1,0.2c0,0,0.4,0.2,0.8,0.5c0,0,0,0,0,0c0,0,0,0,0,0
				c-0.1,0-0.3,0-0.4,0c-0.5,0-1.2-0.1-1.8-0.5c0,0,0,0,0,0c0.1-0.1,0.2-0.3,0.5-0.5C113.7,10.9,114.4,10.8,115.2,10.9
				C115.2,10.9,115.2,10.9,115.2,10.9C115.2,10.9,115.2,10.9,115.2,10.9 M113,10.9c-0.1,0.2-0.4,0.4-0.9,0.7c-0.1,0-0.1,0.1-0.1,0.2
				c0,0.1,0.1,0.1,0.1,0.1c0,0,0.5,0.1,0.9,0.3c0,0,0,0,0,0c0,0,0,0,0,0c-0.2,0.1-0.4,0.1-0.6,0.1c-0.2,0-0.4,0.1-0.6,0.1
				c-0.4,0-0.8-0.1-1.1-0.2c0,0,0,0,0,0c0.1-0.1,0.2-0.3,0.4-0.6C111.5,11.3,112.1,11,113,10.9C112.9,10.9,113,10.9,113,10.9
				C113,10.9,113,10.9,113,10.9 M110.8,11.3L110.8,11.3c-0.1,0.2-0.3,0.6-0.8,1c-0.1,0-0.1,0.1,0,0.2c0,0.1,0.1,0.1,0.2,0.1h0
				c0,0,0.2,0,0.5,0c0.2,0,0.3,0.1,0.5,0.1c0,0,0,0,0,0c0,0,0,0,0,0c-0.2,0.1-0.4,0.2-0.6,0.2c-0.4,0.1-0.7,0.2-1.1,0.2
				c-0.2,0-0.4,0-0.6-0.1c0,0,0,0,0,0C108.9,12.8,109.2,11.8,110.8,11.3C110.8,11.3,110.8,11.3,110.8,11.3
				C110.8,11.3,110.8,11.3,110.8,11.3 M119.3,14.2c0.4,0.3,0.9,0.6,1.3,1H108c0.4-0.4,0.8-0.7,1.3-1H119.3z M121.2,15.7
				c0.3,0.3,0.6,0.6,0.9,1h-6.1c-0.8-0.6-1.7-0.6-1.8-0.5c-0.1,0-0.9,0-1.7,0.5h-5.8c0.3-0.3,0.6-0.7,0.9-1H121.2z M112.3,22.8
				c-0.5,0-1,0.1-1.5,0.3c0,0,0,0,0,0c0,0,0,0,0,0c0,0,0-0.1,0-0.1c0.3-1.4,0.8-2.4,1.3-3c0.3-0.4,0.6-0.7,0.7-0.8
				c0,0,0.1-0.1,0.1-0.1c0.1-0.1,0.1-0.3,0-0.4c-0.1-0.1-0.3-0.2-0.4-0.1c0,0-0.1,0-0.1,0.1c-0.2,0.2-0.4,0.2-0.6,0.1
				c-0.1-0.1-0.2-0.2-0.1-0.4c0.1-0.3,0.4-0.7,0.5-0.9c0,0,0,0,0,0c0.7-0.8,1.8-0.9,1.8-0.9c0,0,0.4,0,0.8,0.1
				c0.6,0.2,1.1,0.6,1.4,1.2c0.4,0.9,0.8,1.8,1,2.7c0,0,0,0,0,0c0,0,0,0,0,0c-0.6-0.2-1.2-0.6-1.2-0.7c-0.1-0.1-0.3-0.1-0.4,0
				c-0.1,0.1-0.1,0.3,0,0.4c0,0,0.8,0.7,1.7,0.9c0,0,0,0,0,0c0.1,0.3,0.1,0.7,0.2,1.1c0,0,0,0,0,0c0,0,0,0,0,0
				c-0.3-0.2-0.7-0.3-1-0.3c-0.2-0.1-0.4-0.1-0.5-0.2c-0.6-0.3-1.2-0.7-1.2-0.7c-0.1-0.1-0.3-0.1-0.4,0c-0.1,0.1-0.1,0.3,0,0.4
				c0,0,0.6,0.5,1.3,0.8c0.2,0.1,0.4,0.1,0.6,0.2c0.8,0.2,1.2,0.4,1.2,0.8c0,0,0,0,0,0c0,0.1-0.1,0.1-0.1,0.2
				c-0.2,0.3-0.7,0.3-1,0.3c0,0-0.9,0-0.9,0c-0.2,0-0.9,0-1.6-0.5C113.5,23.1,112.9,22.8,112.3,22.8 M113.9,24.1
				C113.9,24.1,113.9,24.1,113.9,24.1l-2.4,0c-0.2,0-0.4-0.1-0.5-0.2c0,0-0.1-0.1-0.1-0.1c0,0,0,0,0,0
				C112,23.2,112.5,23.1,113.9,24.1C113.9,24,113.9,24.1,113.9,24.1 M114.7,26.2h11c0,0.3,0.1,0.7,0.1,1h-11.1V26.2z M114.7,25.7v-1
				h10.9c0.1,0.3,0.1,0.6,0.1,1H114.7z M118.1,24.2c0.1-0.1,0.2-0.3,0.2-0.4c0,0,0,0,0-0.1c0-0.1,0.1-0.3,0-0.5h6.8
				c0.1,0.3,0.1,0.6,0.2,1H118.1z M118.4,22.6c0-0.3-0.1-0.6-0.2-1h6.6c0,0.1,0.1,0.2,0.1,0.2c0.1,0.2,0.1,0.5,0.2,0.7H118.4z
				 M118.1,21.1c-0.1-0.3-0.1-0.6-0.2-1h6.4c0.1,0.3,0.3,0.6,0.4,1H118.1z M117.7,19.6c-0.1-0.3-0.2-0.6-0.4-1h6.2
				c0.2,0.3,0.3,0.6,0.5,1H117.7z M117.1,18.1c-0.1-0.1-0.1-0.3-0.2-0.4c-0.1-0.2-0.2-0.4-0.4-0.6h6c0.2,0.3,0.4,0.6,0.7,1H117.1z
				 M111.8,17.2c-0.1,0.1-0.5,0.5-0.6,1h-5.7c0.2-0.3,0.4-0.7,0.7-1H111.8z M111.1,18.7c0,0.3,0.2,0.5,0.4,0.7
				c0.1,0,0.1,0.1,0.2,0.1c0,0,0,0,0,0c0,0,0,0,0,0c-0.1,0.1-0.1,0.1-0.2,0.2h-6.9c0.2-0.3,0.3-0.6,0.5-1H111.1z M111.2,20.2
				c-0.2,0.3-0.3,0.6-0.5,1H104c0.1-0.3,0.3-0.6,0.4-1H111.2z M110.6,21.7c-0.1,0.3-0.2,0.6-0.3,1h-6.7c0.1-0.2,0.1-0.5,0.2-0.7
				c0-0.1,0.1-0.2,0.1-0.2H110.6z M110.2,23.2c0,0.1,0,0.3,0,0.4c0,0,0,0,0,0.1c0,0.2,0.1,0.4,0.2,0.5h-7.2c0.1-0.3,0.1-0.6,0.2-1
				H110.2z M114,24.7v1h-11c0-0.3,0.1-0.6,0.1-1H114z M114,26.2v1h-11.1c0-0.3,0-0.7,0.1-1H114z M114,27.8V30c0,0,0,0,0,0
				c0,0,0,0,0,0c0,0,0,0-0.1,0c-0.6,0-1.1,0.3-1.7,0.7c-0.9,0.6-3.8,1.2-8.8,1.7c0,0,0,0,0,0c-0.3-1.5-0.5-3-0.5-4.6c0,0,0,0,0-0.1
				H114z M117.5,32.7c-0.5-0.4-1.5-1-2.5-0.7c-0.2,0-0.4,0.2-0.6,0.3c-0.1,0.1-0.2,0.1-0.3,0.2c-0.3,0.2-0.7,0.3-1,0.3
				c-0.3,0-0.5,0-0.6-0.1c-0.1-0.1-0.1-0.1-0.1-0.2c0,0,0,0,0,0c0.1-0.1,0.3-0.2,0.4-0.2c0.2-0.1,0.3-0.2,0.5-0.3
				c0.2-0.1,0.3-0.2,0.4-0.3c0.1-0.1,0.3-0.2,0.5-0.4c0.3-0.2,0.6-0.2,1.1-0.2c0.1,0,0.2,0,0.2,0c0.1,0,0.1,0,0.2,0
				c0.5,0,1,0.1,1.7,0.4c0.2,0.1,0.4,0.2,0.7,0.2c0,0,0,0,0,0c0,0,1,0.3,2.3,0.6c1.1,0.3,2.8,0.6,4.4,0.7c0,0,0,0,0,0c0,0,0,0,0,0
				c-0.1,0.3-0.2,0.5-0.2,0.8c-0.3,1-0.7,2-1.2,2.9c0,0,0,0,0,0c0,0,0,0,0,0c-0.8-0.3-2.7-1.2-4-2.1c-0.3-0.2-0.4-0.4-0.5-0.5l0,0
				c0,0,0,0,0,0l0,0c0,0,0-0.1,0-0.1C118.8,33.8,118.3,33.2,117.5,32.7 M118.6,31.2c-0.3-0.1-0.5-0.2-0.7-0.2
				c-0.7-0.3-1.3-0.5-1.9-0.4c0,0-0.1,0-0.1,0c0,0,0,0,0,0c-0.3-0.2-0.7-0.3-1.1-0.4c0,0,0,0,0,0v-2.3h11.1v0.1
				c0,1.6-0.2,3.1-0.5,4.6c0,0,0,0,0,0h0C122.2,32.4,118.7,31.2,118.6,31.2 M126.6,20.5C126.6,20.5,126.7,20.5,126.6,20.5
				C126.7,20.5,126.7,20.5,126.6,20.5c0.2,0.4,0.2,0.8,0.2,1.1c0,0.4,0,0.7-0.1,1c-0.1,0.4-0.3,0.6-0.4,0.7c0,0,0,0,0,0c0,0,0,0,0,0
				c-0.4-0.3-0.8-0.7-1-1.3c-0.1-0.2-0.1-0.4-0.2-0.6c0,0,0,0,0,0c0,0,0,0,0,0c0.4,0.2,0.7,0.6,0.7,0.6c0,0.1,0.1,0.1,0.2,0
				c0.1,0,0.1-0.1,0.1-0.1C126.2,21.2,126.5,20.8,126.6,20.5 M125.4,20c0.1,0,0.1-0.1,0.1-0.2c0-0.6,0.1-1.1,0.3-1.4c0,0,0,0,0,0
				c0,0,0,0,0,0c0.2,0.4,0.3,0.7,0.3,1.1c0,0.4,0,0.7,0,1c-0.1,0.4-0.2,0.6-0.3,0.7c0,0,0,0,0,0c0,0,0,0,0,0
				c-0.5-0.2-0.9-0.6-1.2-1.2c-0.1-0.2-0.2-0.4-0.2-0.6c0,0,0,0,0,0c0,0,0,0,0,0c0.4,0.2,0.8,0.5,0.8,0.5
				C125.3,20.1,125.3,20.1,125.4,20L125.4,20z M124.5,18.2c0.1,0,0.1-0.1,0.1-0.2c-0.1-0.6,0-1.1,0.1-1.4c0,0,0,0,0,0h0c0,0,0,0,0,0
				c0.2,0.4,0.4,0.7,0.5,1.1c0.1,0.3,0.1,0.7,0.1,1c0,0.4-0.2,0.6-0.2,0.7c0,0,0,0,0,0c0,0,0,0,0,0c-0.5-0.2-1-0.6-1.3-1.1
				c-0.1-0.2-0.2-0.4-0.3-0.6c0,0,0,0,0,0c0,0,0,0,0,0c0.5,0.1,0.9,0.4,0.9,0.4C124.4,18.2,124.5,18.2,124.5,18.2 M123.2,16.5
				c0.1,0,0.1,0,0.2,0c0.1,0,0.1-0.1,0.1-0.2c-0.2-0.6-0.1-1.1-0.1-1.4c0,0,0,0,0,0c0,0,0,0,0,0c0.3,0.3,0.5,0.6,0.6,1
				c0.1,0.3,0.2,0.7,0.2,1c0,0.4,0,0.6-0.1,0.8c0,0,0,0,0,0h0c-0.5-0.1-1-0.4-1.5-0.9c-0.1-0.2-0.3-0.3-0.4-0.5c0,0,0,0,0,0
				c0,0,0,0,0,0C122.8,16.2,123.2,16.5,123.2,16.5 M121.9,15c0.1,0,0.1,0,0.2,0c0-0.1,0.1-0.1,0-0.2c-0.3-0.6-0.3-1.1-0.3-1.4
				c0,0,0,0,0,0c0,0,0,0,0,0c0.3,0.3,0.6,0.6,0.7,0.8c0.2,0.3,0.3,0.6,0.4,0.9c0.1,0.4,0.1,0.7,0.1,0.8c0,0,0,0,0,0c0,0,0,0,0,0
				c-0.6,0-1.1-0.3-1.5-0.6c-0.2-0.1-0.3-0.3-0.5-0.5c0,0,0,0,0,0c0,0,0,0,0,0C121.4,14.8,121.9,15,121.9,15 M121.3,13.6
				c0.1,0.4,0.2,0.7,0.2,0.9c0,0,0,0,0,0c0,0-0.1,0-0.1,0c-0.7,0-1.6-0.5-2-0.8c0,0,0,0,0,0c0,0,0,0,0,0c0.5-0.1,0.9,0,0.9,0
				c0.1,0,0.1,0,0.2-0.1c0-0.1,0-0.1,0-0.2c-0.3-0.4-0.5-0.8-0.6-1.1c0,0,0,0,0,0c0,0,0,0,0,0C120.6,12.5,121.1,13,121.3,13.6
				 M107.7,11.5C107.7,11.5,107.7,11.5,107.7,11.5C107.7,11.5,107.7,11.5,107.7,11.5c0.1-0.1,0.3-0.2,0.5-0.2c0.4-0.2,0.8-0.3,1-0.3
				c0.5-0.1,0.8-0.3,0.8-0.3c0,0,0,0,0-0.1c0,0,0,0-0.1,0l-2.4-0.4c0,0,0,0,0,0c0,0,0,0,0,0l2.4-0.4c0,0,0.1,0,0.1-0.1
				c0,0,0-0.1-0.1-0.1c0,0-0.5-0.1-0.9-0.3c-0.1-0.1-0.3-0.1-0.4-0.2c-0.3-0.2-0.5-0.3-1-0.4c0,0,0,0,0,0c0,0,0,0,0,0
				c0.2,0,0.3,0,0.5,0c0.5,0,0.9,0.1,1.1,0.1c0.5,0.1,0.8,0,0.9,0c0,0,0,0,0.1,0c0,0,0-0.1,0-0.1l-2.1-1.3c0,0,0,0,0,0c0,0,0,0,0,0
				l2.4,0.6c0,0,0.1,0,0.1,0c0,0,0-0.1,0-0.1c0,0-0.4-0.2-0.8-0.6c-0.1-0.1-0.2-0.2-0.3-0.3c-0.2-0.2-0.4-0.5-0.8-0.7c0,0,0,0,0,0
				c0,0,0,0,0,0c0.2,0.1,0.3,0.1,0.5,0.2c0.4,0.2,0.8,0.4,1,0.5c0.4,0.3,0.8,0.3,0.8,0.3c0,0,0.1,0,0.1,0c0,0,0,0,0-0.1l-1.5-2
				c0,0,0,0,0,0c0,0,0,0,0,0l2,1.5c0,0,0.1,0,0.1,0c0,0,0-0.1,0-0.1c0,0-0.3-0.4-0.5-0.9c-0.1-0.1-0.1-0.3-0.1-0.4
				c-0.1-0.3-0.2-0.6-0.4-0.9c0,0,0,0,0,0c0,0,0,0,0,0c0.1,0.1,0.2,0.2,0.4,0.4c0.3,0.3,0.6,0.7,0.7,0.9c0.3,0.4,0.6,0.6,0.6,0.6
				c0,0,0,0,0.1,0c0,0,0,0,0-0.1L111.7,4c0,0,0,0,0,0c0,0,0,0,0,0l1.3,2.1c0,0,0,0,0.1,0c0,0,0,0,0-0.1c0,0-0.1-0.5-0.1-1
				c0-0.2,0-0.3,0-0.4c0-0.3,0.1-0.6,0-1c0,0,0,0,0,0c0,0,0,0,0,0c0.1,0.1,0.1,0.3,0.2,0.5c0.1,0.4,0.2,0.8,0.3,1.1
				c0.1,0.5,0.3,0.8,0.3,0.8c0,0,0,0,0.1,0c0,0,0,0,0-0.1l0.3-2.4c0,0,0,0,0,0c0,0,0,0,0,0l0.4,2.4c0,0,0,0.1,0.1,0.1
				c0,0,0.1,0,0.1-0.1c0,0,0.1-0.5,0.3-0.9c0.1-0.1,0.1-0.3,0.2-0.4c0.2-0.3,0.3-0.5,0.4-1c0,0,0,0,0,0c0,0,0,0,0,0
				c0,0.2,0,0.3,0,0.5c0,0.5-0.1,0.9-0.1,1.1c-0.1,0.5,0,0.8,0,0.9c0,0,0,0,0,0c0,0,0.1,0,0.1,0l1.3-2.1c0,0,0,0,0,0c0,0,0,0,0,0
				l-0.6,2.4c0,0,0,0.1,0,0.1c0,0,0.1,0,0.1,0c0,0,0.2-0.4,0.6-0.8c0.1-0.1,0.2-0.2,0.3-0.3c0.2-0.2,0.5-0.4,0.7-0.8c0,0,0,0,0,0
				c0,0,0,0,0,0c-0.1,0.2-0.1,0.3-0.2,0.5c-0.2,0.4-0.4,0.8-0.5,1c-0.3,0.4-0.3,0.8-0.3,0.8c0,0,0,0.1,0,0.1c0,0,0.1,0,0.1,0l2-1.5
				c0,0,0,0,0,0c0,0,0,0,0,0l-1.5,2c0,0,0,0.1,0,0.1c0,0,0.1,0,0.1,0c0,0,0.4-0.3,0.9-0.5c0.1-0.1,0.3-0.1,0.4-0.1
				c0.3-0.1,0.6-0.2,0.9-0.4c0,0,0,0,0,0c0,0,0,0,0,0c-0.1,0.1-0.2,0.2-0.4,0.4c-0.3,0.3-0.7,0.6-0.9,0.7c-0.4,0.3-0.6,0.6-0.6,0.6
				c0,0,0,0,0,0.1c0,0,0,0,0.1,0l2.4-0.6c0,0,0,0,0,0c0,0,0,0,0,0l-2.1,1.3c0,0,0,0,0,0.1c0,0,0,0,0.1,0c0,0,0.5-0.1,1-0.1
				c0.2,0,0.3,0,0.4,0c0.3,0,0.6,0.1,1,0c0,0,0,0,0,0c0,0,0,0,0,0c-0.1,0.1-0.3,0.1-0.5,0.2c-0.4,0.1-0.8,0.3-1,0.3
				c-0.5,0.1-0.8,0.3-0.8,0.3c0,0,0,0,0,0.1c0,0,0,0,0.1,0l2.4,0.4c0,0,0,0,0,0c0,0,0,0,0,0l-2.4,0.4c0,0-0.1,0-0.1,0.1
				c0,0,0,0.1,0.1,0.1c0,0,0.5,0.1,0.9,0.3c0.1,0.1,0.3,0.1,0.4,0.2c0.3,0.2,0.5,0.3,1,0.4c0,0,0,0,0,0c0,0,0,0,0,0
				c-0.1,0-0.2,0-0.3,0c-0.1,0-0.1,0-0.2,0c-0.5,0-0.9-0.1-1.1-0.1c0,0,0,0-0.1,0c0,0,0,0,0,0c-0.4-0.2-0.8-0.3-1.2-0.3h0
				c0,0,0,0,0,0c0,0,0,0,0,0c0,0,0,0,0,0c0-0.1-0.1-0.1-0.1-0.1c-0.5-0.2-0.9-0.3-1.3-0.3c0,0,0,0-0.1,0l0,0c0,0,0,0,0,0
				c0,0,0,0-0.1,0h0c0,0,0,0,0,0c0,0-0.1,0-0.1,0h0c-0.2,0-0.4,0-0.5,0c0,0,0,0,0,0c0,0,0,0,0,0v0c0,0,0-0.1,0-0.1c0,0,0,0,0,0
				c0-0.1-0.1-0.1-0.1-0.1c0,0-0.1,0-0.1,0c0,0,0,0,0,0l0,0c0,0-0.1,0-0.1,0c0,0,0,0,0,0c0,0,0,0-0.1,0c-0.5,0-0.9,0-1.3,0.1
				c-0.1,0-0.2,0-0.3,0.1c0,0,0,0,0,0c0,0,0,0,0,0l0,0c0,0,0,0-0.1,0v0c0,0-0.1,0-0.1,0.1c0,0,0,0,0,0c0,0,0,0,0,0v0l0,0
				c0,0,0,0,0,0v0c0-0.1,0-0.1,0-0.1v0c0,0,0,0,0,0l0,0c0,0-0.1,0-0.1,0c-0.6,0-1.1,0.2-1.6,0.4c-0.1,0.1-0.3,0.1-0.4,0.2
				c0,0,0,0,0,0c0,0,0,0,0,0c0,0,0,0,0-0.1v0v0c0-0.1,0-0.1-0.1-0.2h0c0,0,0,0,0,0l0,0c0,0,0,0,0,0l0,0c0,0-0.1,0-0.1,0
				c-0.6,0.2-1.1,0.4-1.5,0.7c0,0,0,0,0,0l0,0c0,0,0,0,0,0c-0.1,0-0.2,0-0.3,0c-0.1,0-0.4,0-0.4,0C108.4,11.5,108.2,11.4,107.7,11.5
				 M108.7,12L108.7,12C108.7,12,108.7,12,108.7,12C108.7,12,108.7,12,108.7,12c0,0.3-0.1,0.8-0.4,1.4c0,0.1,0,0.1,0,0.2
				c0,0.1,0.1,0.1,0.2,0.1c0,0,0.5-0.1,0.9-0.1c0,0,0,0,0,0c0,0,0,0,0,0c-0.4,0.3-1.2,0.8-2,0.8c0,0-0.1,0-0.1,0c0,0,0,0,0,0
				C107.2,14.1,107.3,13,108.7,12 M105.8,15.1c0.1-0.3,0.2-0.6,0.4-0.9c0.2-0.3,0.5-0.6,0.8-0.9c0,0,0,0,0,0c0,0,0,0,0,0
				c0,0.3,0,0.8-0.3,1.4c0,0.1,0,0.1,0,0.2c0,0.1,0.1,0.1,0.2,0.1c0,0,0.4-0.1,0.9-0.2c0,0,0,0,0,0c0,0,0,0,0,0
				c-0.2,0.2-0.3,0.3-0.5,0.5c-0.4,0.3-0.9,0.6-1.4,0.6c0,0,0,0-0.1,0c0,0,0,0,0,0C105.7,15.8,105.7,15.5,105.8,15.1 M105.3,14.9
				L105.3,14.9C105.3,14.9,105.3,14.9,105.3,14.9C105.3,14.9,105.3,14.9,105.3,14.9c0.1,0.3,0.1,0.8-0.1,1.4c0,0.1,0,0.1,0.1,0.2
				c0.1,0,0.1,0,0.2,0c0,0,0.4-0.3,0.9-0.3c0,0,0,0,0,0c0,0,0,0,0,0c-0.3,0.5-1,1.2-1.9,1.4l0,0c0,0,0,0,0,0
				C104.4,17.2,104.2,16.2,105.3,14.9 M103.4,17.7c0.1-0.3,0.3-0.7,0.5-1c0,0,0,0,0,0c0,0,0,0,0,0c0.1,0.3,0.2,0.8,0.1,1.4
				c0,0.1,0,0.1,0.1,0.2c0.1,0,0.1,0,0.2,0c0,0,0.4-0.4,0.9-0.4c0,0,0,0,0,0c0,0,0,0,0,0c-0.1,0.1-0.2,0.4-0.3,0.6
				c-0.4,0.5-0.8,0.9-1.4,1c0,0,0,0,0,0c0,0,0,0,0,0c0-0.1-0.2-0.4-0.2-0.8C103.3,18.3,103.3,18,103.4,17.7 M102.4,19.6
				c0.1-0.4,0.2-0.7,0.3-1.1c0,0,0,0,0,0c0,0,0,0,0,0c0.1,0.3,0.3,0.8,0.3,1.4c0,0.1,0,0.1,0.1,0.2c0.1,0,0.1,0,0.2,0
				c0,0,0.4-0.3,0.8-0.5c0,0,0,0,0,0c0,0,0,0,0,0c0,0.2-0.1,0.4-0.2,0.5c-0.3,0.6-0.7,1-1.3,1.3c0,0,0,0,0,0c0,0,0,0,0,0
				c-0.1-0.1-0.2-0.4-0.3-0.7C102.4,20.3,102.4,19.9,102.4,19.6 M101.9,20.5C101.9,20.5,101.9,20.5,101.9,20.5
				C101.9,20.5,101.9,20.5,101.9,20.5c0.2,0.3,0.4,0.7,0.5,1.4c0,0.1,0.1,0.1,0.1,0.1c0.1,0,0.1,0,0.2-0.1c0,0,0.3-0.4,0.8-0.6
				c0,0,0,0,0,0c0,0,0,0,0,0c0,0.2-0.1,0.4-0.1,0.6c-0.2,0.6-0.6,1.1-1.1,1.4c0,0,0,0,0,0c0,0,0,0,0,0c-0.1-0.1-0.3-0.3-0.4-0.7
				c-0.1-0.3-0.2-0.6-0.1-1C101.7,21.3,101.8,20.9,101.9,20.5 M101.3,22.6L101.3,22.6C101.3,22.6,101.3,22.6,101.3,22.6
				C101.3,22.6,101.3,22.6,101.3,22.6c0.3,0.2,0.5,0.7,0.7,1.3c0,0.1,0.1,0.1,0.1,0.1c0.1,0,0.1,0,0.2-0.1c0,0,0.3-0.4,0.7-0.7
				c0,0,0,0,0,0c0,0,0,0,0,0c0,0.2,0,0.4-0.1,0.6c-0.1,0.6-0.4,1.1-0.9,1.5c0,0,0,0,0,0c0,0,0,0,0,0c-0.1-0.1-0.3-0.3-0.5-0.6
				c-0.1-0.3-0.2-0.6-0.3-1C101.2,23.4,101.2,23,101.3,22.6 M101,24.7C101,24.7,101,24.7,101,24.7C101,24.6,101,24.6,101,24.7
				c0.3,0.2,0.6,0.6,0.7,1.3c0,0.1,0.1,0.1,0.1,0.1c0.1,0,0.1,0,0.2-0.1c0,0,0.2-0.4,0.6-0.7c0,0,0,0,0,0c0,0,0,0,0,0
				c0,0.2,0,0.4-0.1,0.6c-0.1,0.6-0.4,1.1-0.7,1.5c0,0,0,0,0,0c0,0,0,0,0,0c-0.1-0.1-0.3-0.3-0.5-0.6c-0.2-0.3-0.3-0.6-0.3-1
				C100.9,25.5,100.9,25.1,101,24.7 M100.8,26.9L100.8,26.9C100.8,26.9,100.8,26.9,100.8,26.9C100.8,26.8,100.8,26.8,100.8,26.9
				c0.1,0,0.1,0.1,0.2,0.1c0.2,0.2,0.5,0.6,0.6,1.1c0,0.1,0.1,0.1,0.2,0.1h0c0.1,0,0.1-0.1,0.2-0.1c0,0,0.1-0.5,0.5-0.8c0,0,0,0,0,0
				c0,0,0,0,0,0c0,0.2,0.1,0.6,0,1c-0.1,0.5-0.3,0.9-0.6,1.2c0,0,0,0,0,0c0,0,0,0,0,0C101.5,29.3,100.7,28.6,100.8,26.9 M100.7,29
				C100.7,29,100.7,29,100.7,29c0.1,0,0.1,0.1,0.2,0.1c0.2,0.2,0.5,0.5,0.7,1c0,0.1,0.1,0.1,0.2,0.1l0,0l0,0c0.1,0,0.1,0,0.2-0.1
				c0,0,0.2-0.5,0.5-0.8c0,0,0,0,0,0c0,0,0,0,0,0c0.1,0.5,0.2,1.3-0.5,2.2c0,0,0,0,0,0c0,0,0,0,0,0C101.6,31.4,100.8,30.7,100.7,29
				C100.7,29,100.7,29,100.7,29 M100.8,31.2L100.8,31.2C100.8,31.2,100.8,31.2,100.8,31.2C100.8,31.2,100.9,31.2,100.8,31.2
				c0.3,0.1,0.7,0.4,1.1,0.9c0,0.1,0.1,0.1,0.2,0.1c0.1,0,0.1-0.1,0.1-0.1c0,0,0,0,0,0c0,0,0.1-0.5,0.4-0.9c0,0,0,0,0,0h0
				c0,0,0,0,0,0c0.1,0.2,0.2,0.4,0.2,0.6c0.1,0.6,0,1.2-0.3,1.8c0,0,0,0,0,0c0,0,0,0,0,0c-0.1,0-0.4-0.2-0.7-0.4
				c-0.2-0.2-0.5-0.5-0.6-0.8C101,32,100.9,31.6,100.8,31.2 M101.3,33.3L101.3,33.3C101.3,33.3,101.3,33.3,101.3,33.3
				C101.3,33.3,101.4,33.3,101.3,33.3c0.1,0,0.1,0,0.2,0.1c0.3,0.1,0.6,0.4,1,0.8c0,0.1,0.1,0.1,0.2,0.1c0.1,0,0.1-0.1,0.1-0.1
				c0,0,0.1-0.5,0.3-0.9c0,0,0,0,0,0c0,0,0,0,0,0c0.2,0.5,0.5,1.4,0.1,2.3c0,0,0,0,0,0c0,0,0,0,0,0
				C102.8,35.3,101.8,34.9,101.3,33.3 M102.6,36.4c-0.2-0.3-0.4-0.6-0.6-1c0,0,0,0,0,0c0,0,0,0,0,0c0.1,0,0.1,0,0.2,0.1
				c0.3,0.1,0.7,0.3,1.1,0.7c0,0,0.1,0.1,0.2,0c0.1,0,0.1-0.1,0.1-0.2c0,0,0-0.5,0.2-0.9c0,0,0,0,0,0c0,0,0,0,0,0
				c0.1,0.2,0.2,0.4,0.3,0.5c0.2,0.6,0.3,1.2,0.1,1.7c0,0,0,0,0,0l0,0c-0.1,0-0.4-0.1-0.7-0.3C103.1,36.9,102.8,36.6,102.6,36.4
				 M102.9,37.3C102.9,37.3,102.9,37.3,102.9,37.3C102.9,37.3,102.9,37.3,102.9,37.3c0.3,0,0.8,0.2,1.3,0.6c0.1,0,0.1,0,0.2,0
				c0.1,0,0.1-0.1,0.1-0.2c0,0-0.1-0.5,0-0.9c0,0,0,0,0,0c0,0,0,0,0,0c0.1,0.2,0.2,0.4,0.3,0.5c0.2,0.4,0.4,1,0.3,1.6c0,0,0,0,0,0
				c-0.1,0-0.4,0-0.8-0.2c-0.3-0.1-0.6-0.3-0.8-0.6C103.3,38,103.1,37.7,102.9,37.3 M104.8,40c-0.3-0.2-0.5-0.5-0.8-0.8c0,0,0,0,0,0
				c0,0,0,0,0,0c0.3,0,0.8,0.1,1.4,0.5c0.1,0,0.1,0,0.2,0c0.1,0,0.1-0.1,0.1-0.2c0,0-0.1-0.4-0.1-0.9c0,0,0,0,0,0c0,0,0,0,0,0
				c0.3,0.4,0.9,1.2,0.8,2.1c0,0,0,0,0,0c0,0-0.1,0-0.1,0c-0.2,0-0.4,0-0.7-0.1C105.3,40.4,105,40.2,104.8,40 M107.8,42
				c0,0-0.1,0-0.3,0c-0.1,0-0.3,0-0.4,0c-0.6-0.1-1.2-0.5-1.8-1c0,0,0,0,0,0c0,0,0,0,0,0c0.3,0,0.8,0,1.4,0.2c0.1,0,0.1,0,0.2,0
				c0,0,0.1-0.1,0-0.2c0,0-0.2-0.4-0.2-0.9c0,0,0,0,0,0c0,0,0,0,0,0C107.2,40.3,107.9,41.1,107.8,42C107.8,42,107.8,42,107.8,42
				 M111.9,43.8c-0.5-0.1-0.9-0.3-1.4-0.5c-0.8-0.3-1.6-0.8-2.3-1.3c0,0,0,0,0,0c0-0.3,0-0.6-0.1-0.9c0,0,0,0,0,0c0,0,0,0,0,0
				c0.6,0.5,1,0.8,1.6,1.1c0.6,0.3,1.3,0.6,1.9,0.8v0l0.2,0C111.8,43.4,111.8,43.6,111.9,43.8L111.9,43.8z M113,43.3
				c-0.1,0.2-0.1,0.5,0,0.7c0,0,0,0,0,0c0,0,0,0,0,0c0,0,0,0,0,0c-0.3-0.1-0.5-0.2-0.6-0.4c-0.1-0.1-0.2-0.3-0.1-0.5
				c0-0.1,0.1-0.2,0.2-0.3c0.2-0.1,0.5-0.2,1-0.1c0,0,0,0,0,0c0,0,0,0,0,0C113.2,42.9,113.1,43.1,113,43.3 M114.3,45.4
				c-0.3,0-0.6-0.3-0.6-0.6c0-0.3,0.3-0.6,0.6-0.6c0.3,0,0.6,0.3,0.6,0.6C114.9,45.2,114.6,45.4,114.3,45.4 M115,44.1
				C115,44.1,115,44.1,115,44.1c-0.2-0.2-0.5-0.3-0.7-0.3c-0.3,0-0.5,0.1-0.7,0.3c0,0,0,0,0,0c0,0,0,0,0,0c-0.1-0.2-0.3-0.4-0.2-0.6
				c0.2-0.5,0.9-0.5,0.9-0.5c0.1,0,0.2,0,0.4,0.1c0.3,0.1,0.4,0.2,0.5,0.5C115.3,43.7,115.2,43.9,115,44.1 M116.3,43.7
				c-0.1,0.2-0.3,0.3-0.6,0.4c0,0,0,0,0,0c0,0,0,0,0,0c0,0,0,0,0,0c0.1-0.2,0.1-0.5,0-0.7c-0.1-0.2-0.2-0.4-0.4-0.5c0,0,0,0,0,0
				c0,0,0,0,0,0c0.3,0,0.7,0,1,0.1c0.1,0.1,0.2,0.2,0.2,0.3C116.5,43.4,116.4,43.5,116.3,43.7 M120.5,42C120.5,42,120.5,42,120.5,42
				c-0.2,0.1-0.8,0.6-1.7,1c-0.6,0.3-1.3,0.6-2,0.7l-0.1,0c0.1-0.2,0.2-0.4,0.2-0.7l0.2-0.1v0c0.7-0.2,1.3-0.5,1.9-0.8
				c0.6-0.3,1.1-0.7,1.6-1.1c0,0,0,0,0,0c0,0,0,0,0,0C120.5,41.5,120.5,41.8,120.5,42 M118.8,42c-0.6,0.3-1.3,0.6-1.9,0.8l-0.1,0
				c-0.1-0.1-0.2-0.2-0.3-0.3c-0.6-0.4-1.8-0.1-2.2,0c0,0,0,0,0,0c-0.3-0.1-1.5-0.4-2.2,0c-0.1,0.1-0.2,0.2-0.3,0.3l-0.1,0
				c-0.6-0.2-1.3-0.5-1.9-0.8c-1.4-0.8-2.6-1.9-3.6-3.3c-0.4-0.5-0.7-1-1-1.5c0,0,0,0,0,0c0,0,0,0,0,0c0.7-0.3,2.6-1.2,4.2-2
				c0,0,0,0,0,0c0,0,0,0,0,0c0,0.1,0,0.1,0.1,0.2c0.1,0.3,0.5,0.4,0.7,0.5c0.1,0,0.2,0,0.3,0c0,0,0,0,0,0c0.1,0.3,0.3,0.4,0.6,0.5
				c0.1,0,0.2,0.1,0.3,0.1c0,0,0,0,0,0c0.1,0.1,0.1,0.3,0.3,0.3c0.3,0.2,0.8,0.2,1,0.1c0,0,0,0,0,0c0.1,0.2,0.3,0.3,0.5,0.3
				c0.2,0,0.4,0,0.7-0.1c0,0,0,0,0,0c0,0,0,0,0,0V40c0,0.2,0.2,0.4,0.4,0.4c0.2,0,0.4-0.2,0.4-0.4v-3c0,0,0,0,0,0c0,0,0,0,0,0
				c0.4,0.1,0.7,0,0.9-0.1c0.2-0.1,0.3-0.2,0.4-0.2c0,0,0,0,0,0c0.4,0.1,0.7,0,0.9-0.3c0.1-0.1,0.1-0.2,0.2-0.3c0,0,0,0,0,0h0
				c0,0,0.1,0,0.1,0c0.5,0,0.7-0.2,0.9-0.4c0.1-0.1,0.1-0.2,0.2-0.3c0,0,0,0,0,0c0.3,0,0.6-0.1,0.7-0.3c0.1-0.1,0.2-0.2,0.2-0.3
				c0,0,0,0,0,0c0,0,0,0,0,0c1.3,1,3.3,1.9,4.2,2.2c0,0,0,0,0,0c0,0,0,0,0,0c-0.3,0.5-0.6,1-1,1.5C121.4,40.1,120.1,41.2,118.8,42
				 M123.4,41L123.4,41c-0.8,0.7-1.4,1-1.8,1c-0.1,0-0.3,0-0.4,0c-0.1,0-0.2,0-0.3,0c0,0,0,0,0,0c0-0.5,0.2-1.1,0.6-1.6
				c0.1-0.2,0.3-0.3,0.5-0.4c0,0,0,0,0,0c0,0,0,0,0,0c0,0.5-0.2,0.9-0.2,0.9c0,0.1,0,0.1,0,0.2c0,0,0.1,0.1,0.2,0
				C122.5,40.9,123,40.9,123.4,41C123.4,40.9,123.4,40.9,123.4,41C123.4,41,123.4,41,123.4,41 M124.7,39.2c-0.2,0.3-0.5,0.6-0.8,0.8
				c-0.3,0.2-0.6,0.4-0.9,0.5c-0.3,0.1-0.5,0.1-0.7,0.1c0,0-0.1,0-0.1,0c0,0,0,0,0,0c0-0.5,0.1-1.1,0.5-1.6c0.1-0.2,0.2-0.3,0.4-0.5
				c0,0,0,0,0,0c0,0,0,0,0,0c0,0.4,0,0.9-0.1,0.9c0,0.1,0,0.1,0.1,0.2c0.1,0,0.1,0,0.2,0C123.9,39.3,124.4,39.2,124.7,39.2
				C124.7,39.1,124.7,39.2,124.7,39.2C124.7,39.2,124.7,39.2,124.7,39.2 M125.8,37.3c-0.2,0.4-0.4,0.7-0.7,0.9
				c-0.3,0.3-0.5,0.4-0.8,0.6c-0.3,0.2-0.6,0.2-0.8,0.2c0,0,0,0,0,0c-0.1-0.5,0-1.1,0.3-1.7c0.1-0.2,0.2-0.4,0.3-0.5c0,0,0,0,0,0
				c0,0,0,0,0,0c0.1,0.5,0,0.9,0,0.9c0,0.1,0,0.1,0.1,0.2c0.1,0,0.1,0,0.2,0C125,37.5,125.5,37.4,125.8,37.3
				C125.8,37.3,125.8,37.3,125.8,37.3C125.8,37.3,125.8,37.3,125.8,37.3 M126.7,35.3L126.7,35.3c-0.2,0.4-0.4,0.7-0.6,1
				c-0.2,0.3-0.5,0.5-0.8,0.7c-0.3,0.2-0.6,0.3-0.7,0.3h0c0,0,0,0,0,0c-0.2-0.5-0.1-1.1,0.1-1.7c0.1-0.2,0.1-0.4,0.2-0.5
				c0,0,0,0,0,0c0,0,0,0,0,0c0.1,0.4,0.2,0.9,0.2,0.9c0,0.1,0,0.1,0.1,0.2c0.1,0,0.1,0,0.2,0v0c0.4-0.4,0.8-0.6,1.1-0.7
				C126.5,35.3,126.6,35.3,126.7,35.3C126.7,35.3,126.7,35.3,126.7,35.3C126.7,35.3,126.7,35.3,126.7,35.3 M127.3,33.3L127.3,33.3
				c-0.1,0.4-0.3,0.7-0.5,1c-0.2,0.3-0.4,0.6-0.7,0.7c-0.3,0.2-0.6,0.3-0.7,0.3h0c0,0,0,0,0,0c-0.3-0.6-0.2-1.3-0.1-1.7
				c0-0.2,0.1-0.4,0.2-0.6c0,0,0,0,0,0c0,0,0,0,0,0c0.2,0.4,0.3,0.9,0.3,1c0,0.1,0.1,0.1,0.1,0.1c0.1,0,0.1,0,0.2-0.1
				C126.5,33.6,127,33.4,127.3,33.3C127.3,33.3,127.3,33.3,127.3,33.3C127.3,33.3,127.3,33.3,127.3,33.3 M127.4,32.2
				c-0.2,0.3-0.4,0.6-0.6,0.8c-0.3,0.3-0.5,0.4-0.6,0.4c0,0,0,0,0,0c0,0,0,0,0,0c-0.3-0.5-0.4-1.1-0.3-1.7c0-0.2,0.1-0.4,0.1-0.6
				c0,0,0,0,0,0c0,0,0,0,0,0c0.2,0.4,0.4,0.9,0.4,0.9c0,0.1,0.1,0.1,0.1,0.1c0.1,0,0.1,0,0.2-0.1c0.3-0.5,0.7-0.8,1-1c0,0,0,0,0,0
				c0,0,0,0,0,0C127.7,31.6,127.6,31.9,127.4,32.2"/>
		</g>
		<g>
			<g>
				<path class="st0" d="M138,3.7h1.1l1.8,2.8l1.8-2.8h1.1v5.9h-1V5.3l-1.9,2.8h0L139,5.3v4.2h-1V3.7z"/>
				<path class="st0" d="M144.9,3.5h1.1v1h-1.1V3.5z M144.9,5.1h1v4.4h-1V5.1z"/>
				<path class="st0" d="M147,5.1h1v0.7c0.3-0.4,0.7-0.8,1.4-0.8c1,0,1.6,0.7,1.6,1.7v2.8h-1V7c0-0.7-0.3-1.1-1-1.1
					c-0.6,0-1,0.4-1,1.1v2.5h-1V5.1z"/>
				<path class="st0" d="M151.9,3.5h1.1v1h-1.1V3.5z M152,5.1h1v4.4h-1V5.1z"/>
				<path class="st0" d="M153.7,9l0.5-0.7c0.5,0.4,1,0.5,1.5,0.5c0.4,0,0.7-0.2,0.7-0.5v0c0-0.3-0.5-0.5-1-0.6
					c-0.7-0.2-1.4-0.5-1.4-1.3v0c0-0.8,0.7-1.4,1.6-1.4c0.6,0,1.2,0.2,1.6,0.5l-0.4,0.7c-0.4-0.3-0.9-0.4-1.3-0.4
					c-0.4,0-0.6,0.2-0.6,0.4v0c0,0.3,0.5,0.5,1,0.6c0.6,0.2,1.4,0.5,1.4,1.3v0c0,0.9-0.7,1.4-1.7,1.4C154.9,9.6,154.2,9.4,153.7,9z"
					/>
				<path class="st0" d="M158.1,8.3V6h-0.6V5.1h0.6V3.9h1v1.2h1.2V6h-1.2v2.2c0,0.4,0.2,0.6,0.5,0.6c0.2,0,0.4-0.1,0.6-0.2v0.8
					c-0.3,0.1-0.5,0.2-0.9,0.2C158.6,9.6,158.1,9.3,158.1,8.3z"/>
				<path class="st0" d="M160.7,7.3L160.7,7.3c0-1.3,0.9-2.3,2.2-2.3c1.4,0,2.1,1.1,2.1,2.4c0,0.1,0,0.2,0,0.3h-3.3
					c0.1,0.7,0.6,1.1,1.3,1.1c0.5,0,0.9-0.2,1.2-0.5l0.6,0.5c-0.4,0.5-1,0.8-1.8,0.8C161.7,9.7,160.7,8.7,160.7,7.3z M164,7
					c-0.1-0.7-0.5-1.2-1.1-1.2c-0.6,0-1.1,0.5-1.2,1.2H164z"/>
				<path class="st0" d="M165.7,5.1h1v1c0.3-0.7,0.8-1.1,1.6-1.1v1.1h-0.1c-0.9,0-1.5,0.6-1.5,1.8v1.7h-1V5.1z"/>
				<path class="st0" d="M168.9,3.5h1.1v1h-1.1V3.5z M168.9,5.1h1v4.4h-1V5.1z"/>
				<path class="st0" d="M170.8,7.4L170.8,7.4c0-1.3,1-2.3,2.4-2.3c1.4,0,2.4,1,2.4,2.3v0c0,1.3-1,2.3-2.4,2.3
					C171.8,9.7,170.8,8.6,170.8,7.4z M174.5,7.4L174.5,7.4c0-0.8-0.6-1.4-1.4-1.4c-0.8,0-1.3,0.6-1.3,1.4v0c0,0.8,0.6,1.4,1.4,1.4
					C174,8.8,174.5,8.1,174.5,7.4z"/>
				<path class="st0" d="M178.2,7.3L178.2,7.3c0-1.5,1-2.3,2.1-2.3c0.7,0,1.2,0.4,1.5,0.8V3.4h1v6.1h-1V8.8
					c-0.3,0.5-0.8,0.8-1.5,0.8C179.3,9.6,178.2,8.8,178.2,7.3z M181.8,7.3L181.8,7.3c0-0.9-0.6-1.4-1.3-1.4c-0.7,0-1.3,0.5-1.3,1.4
					v0c0,0.9,0.6,1.4,1.3,1.4C181.2,8.8,181.8,8.2,181.8,7.3z"/>
				<path class="st0" d="M183.6,7.3L183.6,7.3c0-1.3,0.9-2.3,2.2-2.3c1.4,0,2.1,1.1,2.1,2.4c0,0.1,0,0.2,0,0.3h-3.3
					c0.1,0.7,0.6,1.1,1.3,1.1c0.5,0,0.9-0.2,1.2-0.5l0.6,0.5c-0.4,0.5-1,0.8-1.8,0.8C184.6,9.7,183.6,8.7,183.6,7.3z M186.9,7
					c-0.1-0.7-0.5-1.2-1.1-1.2c-0.6,0-1.1,0.5-1.2,1.2H186.9z"/>
				<path class="st0" d="M190.6,8.7l0.6-0.7c0.6,0.5,1.1,0.8,1.9,0.8c0.6,0,1-0.3,1-0.7v0c0-0.4-0.2-0.6-1.3-0.9
					c-1.3-0.3-2-0.7-2-1.8v0c0-1,0.8-1.7,2-1.7c0.9,0,1.5,0.3,2.1,0.7l-0.6,0.8c-0.5-0.4-1.1-0.6-1.6-0.6c-0.6,0-1,0.3-1,0.7v0
					c0,0.5,0.3,0.7,1.4,0.9c1.2,0.3,1.9,0.7,1.9,1.7v0c0,1.1-0.9,1.8-2.1,1.8C192.1,9.6,191.3,9.3,190.6,8.7z"/>
				<path class="st0" d="M198.7,9.6V9c-0.3,0.4-0.8,0.6-1.4,0.6c-0.8,0-1.6-0.5-1.6-1.4v0c0-1,0.8-1.5,1.8-1.5
					c0.5,0,0.9,0.1,1.2,0.2V6.9c0-0.6-0.4-1-1.1-1c-0.5,0-0.9,0.1-1.3,0.3L196,5.4c0.5-0.2,1-0.4,1.7-0.4c1.3,0,2,0.7,2,1.9v2.6
					H198.7z M198.7,7.7c-0.3-0.1-0.6-0.2-1-0.2c-0.6,0-1,0.3-1,0.7v0c0,0.4,0.4,0.7,0.9,0.7c0.7,0,1.2-0.4,1.2-0.9V7.7z"/>
				<path class="st0" d="M200.7,3.4h1v6.1h-1V3.4z"/>
				<path class="st0" d="M202.7,7.9V5.1h1v2.5c0,0.7,0.3,1.1,1,1.1c0.6,0,1-0.4,1-1.1V5.1h1v4.4h-1V8.9c-0.3,0.4-0.7,0.8-1.4,0.8
					C203.2,9.6,202.7,9,202.7,7.9z"/>
				<path class="st0" d="M207.4,7.3L207.4,7.3c0-1.5,1-2.3,2.1-2.3c0.7,0,1.2,0.4,1.5,0.8V3.4h1v6.1h-1V8.8
					c-0.3,0.5-0.8,0.8-1.5,0.8C208.4,9.6,207.4,8.8,207.4,7.3z M211,7.3L211,7.3c0-0.9-0.6-1.4-1.3-1.4c-0.7,0-1.3,0.5-1.3,1.4v0
					c0,0.9,0.6,1.4,1.3,1.4C210.4,8.8,211,8.2,211,7.3z"/>
				<path class="st0" d="M137.9,19.5l0.3-0.8c0.2,0.1,0.4,0.2,0.6,0.2c0.3,0,0.5-0.1,0.6-0.5l-1.9-4.4h1.1l1.3,3.3l1.2-3.3h1.1
					l-1.8,4.6c-0.4,0.9-0.7,1.2-1.5,1.2C138.5,19.8,138.2,19.7,137.9,19.5z"/>
				<path class="st0" d="M145.1,12.5h2.2c1.9,0,3.1,1.3,3.1,2.9v0c0,1.7-1.3,2.9-3.1,2.9h-2.2V12.5z M147.3,17.5c1.2,0,2-0.8,2-2v0
					c0-1.2-0.8-2-2-2h-1.2v4H147.3z"/>
				<path class="st0" d="M151.2,16.2L151.2,16.2c0-1.3,0.9-2.3,2.2-2.3c1.4,0,2.1,1.1,2.1,2.4c0,0.1,0,0.2,0,0.3h-3.3
					c0.1,0.7,0.6,1.1,1.3,1.1c0.5,0,0.9-0.2,1.2-0.5l0.6,0.5c-0.4,0.5-1,0.8-1.8,0.8C152.2,18.5,151.2,17.6,151.2,16.2z M154.5,15.9
					c-0.1-0.7-0.5-1.2-1.1-1.2c-0.6,0-1.1,0.5-1.2,1.2H154.5z"/>
				<path class="st0" d="M155.9,17.8l0.5-0.7c0.5,0.4,1,0.5,1.5,0.5c0.4,0,0.7-0.2,0.7-0.5v0c0-0.3-0.5-0.5-1-0.6
					c-0.7-0.2-1.4-0.5-1.4-1.3v0c0-0.8,0.7-1.4,1.6-1.4c0.6,0,1.2,0.2,1.6,0.5l-0.4,0.7c-0.4-0.3-0.9-0.4-1.3-0.4
					c-0.4,0-0.6,0.2-0.6,0.4v0c0,0.3,0.5,0.5,1,0.6c0.6,0.2,1.4,0.5,1.4,1.3v0c0,0.9-0.7,1.4-1.7,1.4
					C157.2,18.5,156.5,18.3,155.9,17.8z"/>
				<path class="st0" d="M163.1,18.4v-0.5c-0.3,0.4-0.8,0.6-1.4,0.6c-0.8,0-1.6-0.5-1.6-1.4v0c0-1,0.8-1.5,1.8-1.5
					c0.5,0,0.9,0.1,1.2,0.2v-0.1c0-0.6-0.4-1-1.1-1c-0.5,0-0.9,0.1-1.3,0.3l-0.3-0.8c0.5-0.2,1-0.4,1.7-0.4c1.3,0,2,0.7,2,1.9v2.6
					H163.1z M163.1,16.6c-0.3-0.1-0.6-0.2-1-0.2c-0.6,0-1,0.3-1,0.7v0c0,0.4,0.4,0.7,0.9,0.7c0.7,0,1.2-0.4,1.2-0.9V16.6z"/>
				<path class="st0" d="M165.1,14h1v1c0.3-0.7,0.8-1.1,1.6-1.1V15h-0.1c-0.9,0-1.5,0.6-1.5,1.8v1.7h-1V14z"/>
				<path class="st0" d="M168.4,14h1v1c0.3-0.7,0.8-1.1,1.6-1.1V15h-0.1c-0.9,0-1.5,0.6-1.5,1.8v1.7h-1V14z"/>
				<path class="st0" d="M171.3,16.2L171.3,16.2c0-1.3,1-2.3,2.4-2.3c1.4,0,2.4,1,2.4,2.3v0c0,1.3-1,2.3-2.4,2.3
					C172.3,18.5,171.3,17.5,171.3,16.2z M175,16.2L175,16.2c0-0.8-0.6-1.4-1.4-1.4c-0.8,0-1.3,0.6-1.3,1.4v0c0,0.8,0.6,1.4,1.4,1.4
					C174.5,17.6,175,17,175,16.2z"/>
				<path class="st0" d="M176.9,12.3h1v6.1h-1V12.3z"/>
				<path class="st0" d="M179.1,12.3h1v6.1h-1V12.3z"/>
				<path class="st0" d="M181,16.2L181,16.2c0-1.3,1-2.3,2.4-2.3c1.4,0,2.4,1,2.4,2.3v0c0,1.3-1,2.3-2.4,2.3
					C182,18.5,181,17.5,181,16.2z M184.8,16.2L184.8,16.2c0-0.8-0.6-1.4-1.4-1.4c-0.8,0-1.3,0.6-1.3,1.4v0c0,0.8,0.6,1.4,1.4,1.4
					C184.2,17.6,184.8,17,184.8,16.2z"/>
				<path class="st0" d="M188.7,17.6l0.6-0.7c0.6,0.5,1.1,0.8,1.9,0.8c0.6,0,1-0.3,1-0.7v0c0-0.4-0.2-0.6-1.3-0.9
					c-1.3-0.3-2-0.7-2-1.8v0c0-1,0.8-1.7,2-1.7c0.9,0,1.5,0.3,2.1,0.7l-0.6,0.8c-0.5-0.4-1.1-0.6-1.6-0.6c-0.6,0-1,0.3-1,0.7v0
					c0,0.5,0.3,0.7,1.4,0.9c1.2,0.3,1.9,0.7,1.9,1.7v0c0,1.1-0.9,1.8-2.1,1.8C190.2,18.5,189.4,18.2,188.7,17.6z"/>
				<path class="st0" d="M193.9,16.2L193.9,16.2c0-1.3,1-2.3,2.4-2.3c1.4,0,2.4,1,2.4,2.3v0c0,1.3-1,2.3-2.4,2.3
					C194.9,18.5,193.9,17.5,193.9,16.2z M197.6,16.2L197.6,16.2c0-0.8-0.6-1.4-1.4-1.4c-0.8,0-1.3,0.6-1.3,1.4v0
					c0,0.8,0.6,1.4,1.4,1.4C197.1,17.6,197.6,17,197.6,16.2z"/>
				<path class="st0" d="M199.3,16.2L199.3,16.2c0-1.3,1-2.3,2.3-2.3c0.8,0,1.4,0.3,1.8,0.8l-0.6,0.7c-0.3-0.3-0.6-0.6-1.2-0.6
					c-0.7,0-1.3,0.6-1.3,1.4v0c0,0.8,0.5,1.4,1.3,1.4c0.5,0,0.8-0.2,1.2-0.6l0.6,0.6c-0.4,0.5-1,0.8-1.8,0.8
					C200.2,18.5,199.3,17.5,199.3,16.2z"/>
				<path class="st0" d="M204.1,12.3h1.1v1h-1.1V12.3z M204.2,14h1v4.4h-1V14z"/>
				<path class="st0" d="M209.1,18.4v-0.5c-0.3,0.4-0.8,0.6-1.4,0.6c-0.8,0-1.6-0.5-1.6-1.4v0c0-1,0.8-1.5,1.8-1.5
					c0.5,0,0.9,0.1,1.2,0.2v-0.1c0-0.6-0.4-1-1.1-1c-0.5,0-0.9,0.1-1.3,0.3l-0.3-0.8c0.5-0.2,1-0.4,1.7-0.4c1.3,0,2,0.7,2,1.9v2.6
					H209.1z M209.1,16.6c-0.3-0.1-0.6-0.2-1-0.2c-0.6,0-1,0.3-1,0.7v0c0,0.4,0.4,0.7,0.9,0.7c0.7,0,1.2-0.4,1.2-0.9V16.6z"/>
				<path class="st0" d="M211,12.3h1v6.1h-1V12.3z"/>
			</g>
			<g>
				<path class="st0" d="M137.9,22.8h3.7c2.2,0,3.6,1.2,3.6,3.1v0c0,2.1-1.7,3.2-3.7,3.2h-1.9v3h-1.6V22.8z M141.4,27.7
					c1.2,0,2-0.7,2-1.7v0c0-1.1-0.8-1.7-2-1.7h-1.9v3.4H141.4z"/>
				<path class="st0" d="M146.5,25.1h1.6v1.6c0.4-1.1,1.3-1.8,2.5-1.7v1.7h-0.1c-1.4,0-2.4,0.9-2.4,2.8v2.7h-1.6V25.1z"/>
				<path class="st0" d="M151.5,28.7L151.5,28.7c0-2,1.4-3.7,3.4-3.7c2.2,0,3.4,1.8,3.4,3.8c0,0.1,0,0.3,0,0.5h-5.2
					c0.2,1.1,1,1.8,2,1.8c0.8,0,1.3-0.3,1.9-0.8L158,31c-0.7,0.8-1.6,1.3-2.9,1.3C153,32.4,151.5,30.9,151.5,28.7z M156.7,28.2
					c-0.1-1-0.7-1.9-1.8-1.9c-1,0-1.7,0.8-1.8,1.9H156.7z"/>
				<path class="st0" d="M159.2,31.3l0.7-1.1c0.8,0.6,1.6,0.9,2.3,0.9c0.7,0,1.1-0.3,1.1-0.8v0c0-0.5-0.7-0.7-1.6-1
					c-1-0.3-2.2-0.7-2.2-2.1v0c0-1.3,1.1-2.2,2.5-2.2c0.9,0,1.8,0.3,2.6,0.8L164,27c-0.7-0.4-1.4-0.7-2-0.7c-0.6,0-1,0.3-1,0.7v0
					c0,0.5,0.8,0.7,1.6,1c1,0.3,2.2,0.8,2.2,2.1v0c0,1.5-1.1,2.2-2.6,2.2C161.2,32.3,160.1,32,159.2,31.3z"/>
				<path class="st0" d="M166.4,22.5h1.7v1.5h-1.7V22.5z M166.4,25.1h1.6v7.1h-1.6V25.1z"/>
				<path class="st0" d="M169.7,28.7L169.7,28.7c0-2.4,1.6-3.7,3.3-3.7c1.2,0,1.9,0.6,2.4,1.2v-3.8h1.6v9.8h-1.6V31
					c-0.5,0.7-1.3,1.3-2.4,1.3C171.3,32.3,169.7,31,169.7,28.7z M175.4,28.7L175.4,28.7c0-1.4-1-2.3-2-2.3c-1.1,0-2,0.9-2,2.3v0
					c0,1.4,0.9,2.3,2,2.3C174.4,30.9,175.4,30,175.4,28.7z"/>
				<path class="st0" d="M178.5,28.7L178.5,28.7c0-2,1.4-3.7,3.4-3.7c2.2,0,3.4,1.8,3.4,3.8c0,0.1,0,0.3,0,0.5h-5.2
					c0.2,1.1,1,1.8,2,1.8c0.8,0,1.3-0.3,1.9-0.8L185,31c-0.7,0.8-1.6,1.3-2.9,1.3C180,32.4,178.5,30.9,178.5,28.7z M183.7,28.2
					c-0.1-1-0.7-1.9-1.8-1.9c-1,0-1.7,0.8-1.8,1.9H183.7z"/>
				<path class="st0" d="M186.8,25.1h1.6v1.1c0.5-0.7,1.1-1.2,2.2-1.2c1.6,0,2.5,1.1,2.5,2.7v4.5h-1.6v-4c0-1.1-0.5-1.7-1.5-1.7
					c-0.9,0-1.6,0.7-1.6,1.7v4h-1.6V25.1z"/>
				<path class="st0" d="M194.5,28.7L194.5,28.7c0-2,1.5-3.7,3.7-3.7c1.3,0,2.2,0.5,2.8,1.2l-1,1.1c-0.5-0.5-1-0.9-1.8-0.9
					c-1.2,0-2,1-2,2.2v0c0,1.3,0.9,2.3,2.1,2.3c0.8,0,1.3-0.4,1.8-0.9l1,1c-0.7,0.8-1.5,1.3-2.9,1.3
					C196.1,32.4,194.5,30.7,194.5,28.7z"/>
				<path class="st0" d="M202.4,22.5h1.7v1.5h-1.7V22.5z M202.5,25.1h1.6v7.1h-1.6V25.1z"/>
				<path class="st0" d="M210.4,32.2v-0.9c-0.5,0.6-1.2,1-2.3,1c-1.3,0-2.5-0.8-2.5-2.2v0c0-1.6,1.2-2.3,2.9-2.3
					c0.9,0,1.4,0.1,2,0.3V28c0-1-0.6-1.5-1.7-1.5c-0.8,0-1.4,0.2-2,0.4l-0.4-1.3c0.8-0.3,1.5-0.6,2.7-0.6c2.1,0,3.1,1.1,3.1,3v4.2
					H210.4z M210.5,29.2c-0.4-0.2-1-0.3-1.6-0.3c-1,0-1.6,0.4-1.6,1.1v0c0,0.7,0.6,1,1.4,1c1.1,0,1.9-0.6,1.9-1.5V29.2z"/>
				<path class="st0" d="M137.3,40.5L137.3,40.5c0-2.4,1.6-3.7,3.3-3.7c1.2,0,1.9,0.6,2.4,1.2v-3.8h1.6V44H143v-1.2
					c-0.5,0.7-1.3,1.3-2.4,1.3C138.9,44.2,137.3,42.8,137.3,40.5z M143,40.5L143,40.5c0-1.4-1-2.3-2-2.3c-1.1,0-2,0.9-2,2.3v0
					c0,1.4,0.9,2.3,2,2.3C142.1,42.8,143,41.9,143,40.5z"/>
				<path class="st0" d="M145.6,40.5L145.6,40.5c0-2,1.4-3.7,3.4-3.7c2.2,0,3.4,1.8,3.4,3.8c0,0.1,0,0.3,0,0.5h-5.2
					c0.2,1.1,1,1.8,2,1.8c0.8,0,1.3-0.3,1.9-0.8l0.9,0.8c-0.7,0.8-1.6,1.3-2.9,1.3C147.1,44.2,145.6,42.7,145.6,40.5z M150.8,40
					c-0.1-1-0.7-1.9-1.8-1.9c-1,0-1.7,0.8-1.8,1.9H150.8z"/>
				<path class="st0" d="M156.8,34.3h1.6V44h-1.6V34.3z"/>
				<path class="st0" d="M164.2,44v-0.9c-0.5,0.6-1.2,1-2.3,1c-1.3,0-2.5-0.8-2.5-2.2v0c0-1.6,1.2-2.3,2.9-2.3c0.9,0,1.4,0.1,2,0.3
					v-0.1c0-1-0.6-1.5-1.7-1.5c-0.8,0-1.4,0.2-2,0.4l-0.4-1.3c0.8-0.3,1.5-0.6,2.7-0.6c2.1,0,3.1,1.1,3.1,3V44H164.2z M164.2,41.1
					c-0.4-0.2-1-0.3-1.6-0.3c-1,0-1.6,0.4-1.6,1.1v0c0,0.7,0.6,1,1.4,1c1.1,0,1.9-0.6,1.9-1.5V41.1z"/>
				<path class="st0" d="M170.6,34.7h1.5l5,6.5v-6.5h1.6V44h-1.4l-5.2-6.7V44h-1.6V34.7z"/>
				<path class="st0" d="M184.6,44v-0.9c-0.5,0.6-1.2,1-2.3,1c-1.3,0-2.5-0.8-2.5-2.2v0c0-1.6,1.2-2.3,2.9-2.3c0.9,0,1.4,0.1,2,0.3
					v-0.1c0-1-0.6-1.5-1.7-1.5c-0.8,0-1.4,0.2-2,0.4l-0.4-1.3c0.8-0.3,1.5-0.6,2.7-0.6c2.1,0,3.1,1.1,3.1,3V44H184.6z M184.6,41.1
					c-0.4-0.2-1-0.3-1.6-0.3c-1,0-1.6,0.4-1.6,1.1v0c0,0.7,0.6,1,1.4,1c1.1,0,1.9-0.6,1.9-1.5V41.1z"/>
				<path class="st0" d="M187,40.5L187,40.5c0-2,1.5-3.7,3.7-3.7c1.3,0,2.2,0.5,2.8,1.2l-1,1.1c-0.5-0.5-1-0.9-1.8-0.9
					c-1.2,0-2,1-2,2.2v0c0,1.3,0.9,2.3,2.1,2.3c0.8,0,1.3-0.4,1.8-0.9l1,1c-0.7,0.8-1.5,1.3-2.9,1.3C188.6,44.2,187,42.5,187,40.5z"
					/>
				<path class="st0" d="M194.4,34.3h1.7v1.5h-1.7V34.3z M194.5,37h1.6V44h-1.6V37z"/>
				<path class="st0" d="M197.2,40.5L197.2,40.5c0-2,1.6-3.7,3.8-3.7c2.2,0,3.8,1.6,3.8,3.7v0c0,2-1.6,3.7-3.8,3.7
					C198.7,44.2,197.2,42.5,197.2,40.5z M203.1,40.5L203.1,40.5c0-1.3-0.9-2.3-2.2-2.3c-1.3,0-2.1,1-2.1,2.2v0
					c0,1.2,0.9,2.3,2.2,2.3C202.2,42.8,203.1,41.7,203.1,40.5z M201.7,33.9l1.5,0.7l-1.6,1.5h-1.2L201.7,33.9z"/>
				<path class="st0" d="M205.7,37h1.6v1.1c0.5-0.7,1.1-1.2,2.2-1.2c1.6,0,2.5,1.1,2.5,2.7V44h-1.6v-4c0-1.1-0.5-1.7-1.5-1.7
					c-0.9,0-1.6,0.7-1.6,1.7v4h-1.6V37z"/>
			</g>
		</g>
	</g>
	<g>
		<path class="st0" d="M11.5,12.4c1.6,0.4,2.5,1,2.5,2.3c0,1.5-1.1,2.3-2.8,2.3C10,17,8.9,16.6,8,15.7l0.8-1c0.7,0.6,1.5,1,2.4,1
			c0.8,0,1.4-0.4,1.4-1c0-0.6-0.3-0.9-1.7-1.2c-1.6-0.4-2.6-0.9-2.6-2.3c0-1.3,1.1-2.2,2.6-2.2c1.1,0,2,0.3,2.8,1L13,11
			c-0.7-0.5-1.4-0.8-2.1-0.8c-0.8,0-1.3,0.4-1.3,0.9C9.6,11.8,10,12,11.5,12.4z"/>
		<path class="st0" d="M18,15.9c0.6,0,1.1-0.2,1.6-0.7l0.8,0.7C19.8,16.6,19,17,17.9,17c-1.7,0-3-1.2-3-3c0-1.7,1.2-3,2.8-3
			c1.8,0,2.8,1.5,2.8,3.1c0,0.1,0,0.2,0,0.4h-4.3C16.4,15.4,17.1,15.9,18,15.9z M19.3,13.6c-0.1-0.9-0.6-1.5-1.5-1.5
			c-0.8,0-1.4,0.6-1.5,1.5H19.3z"/>
		<path class="st0" d="M24.5,17c-1.7,0-3-1.4-3-3s1.3-3,3-3c1.1,0,1.8,0.4,2.3,1L26,12.8c-0.4-0.4-0.8-0.7-1.5-0.7
			c-1,0-1.7,0.8-1.7,1.9c0,1,0.7,1.9,1.7,1.9c0.6,0,1.1-0.3,1.5-0.7l0.8,0.8C26.3,16.5,25.6,17,24.5,17z"/>
		<path class="st0" d="M29.3,16.9H28v-5.8h1.3v1.3c0.4-0.9,1-1.5,2.1-1.4v1.4h-0.1c-1.2,0-2,0.8-2,2.3V16.9z"/>
		<path class="st0" d="M34.9,15.9c0.6,0,1.1-0.2,1.6-0.7l0.8,0.7C36.7,16.6,36,17,34.9,17c-1.7,0-3-1.2-3-3c0-1.7,1.2-3,2.8-3
			c1.8,0,2.8,1.5,2.8,3.1c0,0.1,0,0.2,0,0.4h-4.3C33.4,15.4,34.1,15.9,34.9,15.9z M36.2,13.6c-0.1-0.9-0.6-1.5-1.5-1.5
			c-0.8,0-1.4,0.6-1.5,1.5H36.2z"/>
		<path class="st0" d="M40.4,15c0,0.5,0.3,0.7,0.7,0.7c0.3,0,0.6-0.1,0.8-0.2v1.1c-0.3,0.2-0.7,0.3-1.2,0.3c-1,0-1.7-0.4-1.7-1.7
			v-3.1h-0.7v-1.1H39V9.5h1.3v1.6h1.6v1.1h-1.6V15z"/>
		<path class="st0" d="M46.7,16.9v-0.7c-0.4,0.5-1,0.8-1.9,0.8c-1.1,0-2.1-0.6-2.1-1.8v0c0-1.3,1-1.9,2.4-1.9c0.7,0,1.2,0.1,1.6,0.2
			v-0.1c0-0.8-0.5-1.2-1.4-1.2c-0.6,0-1.1,0.1-1.7,0.4l-0.4-1.1c0.6-0.3,1.3-0.5,2.2-0.5c1.7,0,2.6,0.9,2.6,2.5v3.4H46.7z
			 M46.8,14.4c-0.3-0.1-0.8-0.2-1.3-0.2c-0.8,0-1.3,0.3-1.3,0.9v0c0,0.6,0.5,0.9,1.1,0.9c0.9,0,1.5-0.5,1.5-1.2V14.4z"/>
		<path class="st0" d="M50.9,16.9h-1.3v-5.8h1.3v1.3c0.4-0.9,1-1.5,2.1-1.4v1.4h-0.1c-1.2,0-2,0.8-2,2.3V16.9z"/>
		<path class="st0" d="M54.1,16.9v-5.8h1.3v5.8H54.1z M54.1,10.3l1.2-1.8l1.2,0.5l-1.3,1.3H54.1z"/>
		<path class="st0" d="M60.6,16.9v-0.7c-0.4,0.5-1,0.8-1.9,0.8c-1.1,0-2.1-0.6-2.1-1.8v0c0-1.3,1-1.9,2.4-1.9c0.7,0,1.2,0.1,1.6,0.2
			v-0.1c0-0.8-0.5-1.2-1.4-1.2c-0.6,0-1.1,0.1-1.7,0.4l-0.4-1.1c0.6-0.3,1.3-0.5,2.2-0.5c1.7,0,2.6,0.9,2.6,2.5v3.4H60.6z
			 M60.6,14.4c-0.3-0.1-0.8-0.2-1.3-0.2c-0.8,0-1.3,0.3-1.3,0.9v0c0,0.6,0.5,0.9,1.1,0.9c0.9,0,1.5-0.5,1.5-1.2V14.4z"/>
		<path class="st0" d="M12.7,28.7v-1c-0.4,0.6-1,1.1-2,1.1c-1.4,0-2.7-1.1-2.7-3s1.3-3,2.7-3c1,0,1.6,0.5,2,1v-3.1H14v8H12.7z
			 M11.1,23.9c-0.9,0-1.7,0.7-1.7,1.9c0,1.1,0.8,1.9,1.7,1.9c0.9,0,1.7-0.7,1.7-1.9S11.9,23.9,11.1,23.9z"/>
		<path class="st0" d="M18.3,27.7c0.6,0,1.1-0.2,1.6-0.7l0.8,0.7c-0.6,0.7-1.3,1.1-2.4,1.1c-1.7,0-3-1.2-3-3c0-1.7,1.2-3,2.8-3
			c1.8,0,2.8,1.5,2.8,3.1c0,0.1,0,0.2,0,0.4h-4.3C16.8,27.2,17.4,27.7,18.3,27.7z M19.6,25.4c-0.1-0.9-0.6-1.5-1.5-1.5
			c-0.8,0-1.4,0.6-1.5,1.5H19.6z"/>
		<path class="st0" d="M29.1,28.8c-2.4,0-4-1.7-4-4c0-2.2,1.7-4,4-4c1.3,0,2.2,0.4,3,1l-0.9,1c-0.6-0.5-1.2-0.8-2.2-0.8
			c-1.4,0-2.5,1.2-2.5,2.7c0,1.6,1,2.8,2.6,2.8c0.7,0,1.4-0.2,1.9-0.6v-1.4h-2v-1.2h3.3v3.2C31.6,28.2,30.5,28.8,29.1,28.8z"/>
		<path class="st0" d="M36.6,28.8c-1.8,0-3.1-1.4-3.1-3c0-1.7,1.3-3,3.1-3c1.8,0,3.1,1.4,3.1,3C39.7,27.4,38.4,28.8,36.6,28.8z
			 M36.6,23.9c-1.1,0-1.7,0.8-1.7,1.9c0,1,0.7,1.9,1.8,1.9c1.1,0,1.8-0.8,1.8-1.9C38.4,24.7,37.7,23.9,36.6,23.9z"/>
		<path class="st0" d="M44.3,28.8c-1,0-1.6-0.5-2-1v0.9H41v-8h1.3v3.2c0.4-0.6,1-1.1,2-1.1c1.4,0,2.7,1.1,2.7,3S45.7,28.8,44.3,28.8
			z M44,23.9c-0.9,0-1.7,0.7-1.7,1.9s0.8,1.9,1.7,1.9c0.9,0,1.7-0.7,1.7-1.9C45.6,24.6,44.9,23.9,44,23.9z"/>
		<path class="st0" d="M48.3,22v-1.3h1.4V22H48.3z M48.3,28.7v-5.8h1.3v5.8H48.3z"/>
		<path class="st0" d="M54,27.7c0.6,0,1.1-0.2,1.6-0.7l0.8,0.7c-0.6,0.7-1.3,1.1-2.4,1.1c-1.7,0-3-1.2-3-3c0-1.7,1.2-3,2.8-3
			c1.8,0,2.8,1.5,2.8,3.1c0,0.1,0,0.2,0,0.4h-4.3C52.5,27.2,53.1,27.7,54,27.7z M55.3,25.4c-0.1-0.9-0.6-1.5-1.5-1.5
			c-0.8,0-1.4,0.6-1.5,1.5H55.3z"/>
		<path class="st0" d="M59.2,28.7h-1.3v-5.8h1.3v1.3c0.4-0.9,1-1.5,2.1-1.4v1.4h-0.1c-1.2,0-2,0.8-2,2.3V28.7z"/>
		<path class="st0" d="M63.6,28.7h-1.3v-5.8h1.3v0.9c0.4-0.6,0.9-1,1.8-1c1.3,0,2.1,0.9,2.1,2.2v3.7h-1.3v-3.3
			c0-0.9-0.5-1.4-1.2-1.4c-0.8,0-1.3,0.5-1.3,1.4V28.7z"/>
		<path class="st0" d="M71.8,28.8c-1.8,0-3.1-1.4-3.1-3c0-1.7,1.3-3,3.1-3s3.1,1.4,3.1,3C74.9,27.4,73.6,28.8,71.8,28.8z M71.8,23.9
			c-1.1,0-1.7,0.8-1.7,1.9c0,1,0.7,1.9,1.8,1.9c1.1,0,1.8-0.8,1.8-1.9C73.6,24.7,72.8,23.9,71.8,23.9z"/>
		<path class="st0" d="M12.7,40.5v-1c-0.4,0.6-1,1.1-2,1.1c-1.4,0-2.7-1.1-2.7-3c0-1.9,1.3-3,2.7-3c1,0,1.6,0.5,2,1v-3.1H14v8H12.7z
			 M11.1,35.7c-0.9,0-1.7,0.7-1.7,1.9c0,1.1,0.8,1.9,1.7,1.9c0.9,0,1.7-0.7,1.7-1.9C12.7,36.4,11.9,35.7,11.1,35.7z"/>
		<path class="st0" d="M18.3,39.5c0.6,0,1.1-0.2,1.6-0.7l0.8,0.7c-0.5,0.7-1.3,1.1-2.4,1.1c-1.7,0-3-1.2-3-3c0-1.7,1.2-3,2.8-3
			c1.8,0,2.8,1.5,2.8,3.1c0,0.1,0,0.2,0,0.4h-4.3C16.8,39,17.4,39.5,18.3,39.5z M19.6,37.2c-0.1-0.9-0.6-1.5-1.5-1.5
			c-0.8,0-1.4,0.6-1.5,1.5H19.6z"/>
		<path class="st0" d="M28.5,36c1.6,0.4,2.5,1,2.5,2.3c0,1.5-1.1,2.3-2.8,2.3c-1.2,0-2.3-0.4-3.2-1.2l0.8-1c0.7,0.6,1.5,1,2.4,1
			c0.8,0,1.4-0.4,1.4-1c0-0.6-0.3-0.9-1.7-1.2c-1.6-0.4-2.6-0.9-2.6-2.3c0-1.3,1.1-2.2,2.6-2.2c1.1,0,2,0.3,2.8,1l-0.7,1
			c-0.7-0.5-1.4-0.8-2.1-0.8c-0.8,0-1.3,0.4-1.3,0.9C26.6,35.4,27,35.6,28.5,36z"/>
		<path class="st0" d="M35.8,40.5v-0.7c-0.4,0.5-1,0.8-1.9,0.8c-1.1,0-2.1-0.6-2.1-1.8v0c0-1.3,1-1.9,2.4-1.9c0.7,0,1.2,0.1,1.6,0.2
			V37c0-0.8-0.5-1.2-1.4-1.2c-0.6,0-1.1,0.1-1.7,0.4l-0.4-1.1c0.6-0.3,1.3-0.5,2.2-0.5c1.7,0,2.6,0.9,2.6,2.5v3.4H35.8z M35.9,38
			c-0.3-0.1-0.8-0.2-1.3-0.2c-0.8,0-1.3,0.3-1.3,0.9v0c0,0.5,0.5,0.9,1.1,0.9c0.9,0,1.5-0.5,1.5-1.2V38z"/>
		<path class="st0" d="M38.7,40.5v-8h1.3v8H38.7z"/>
		<path class="st0" d="M45.5,34.7h1.3v5.8h-1.3v-0.9c-0.4,0.5-0.9,1-1.8,1c-1.3,0-2.1-0.9-2.1-2.2v-3.7H43V38c0,0.9,0.5,1.4,1.2,1.4
			c0.8,0,1.3-0.5,1.3-1.4V34.7z"/>
		<path class="st0" d="M52.8,40.5v-1c-0.4,0.6-1,1.1-2,1.1c-1.4,0-2.7-1.1-2.7-3c0-1.9,1.3-3,2.7-3c1,0,1.6,0.5,2,1v-3.1h1.3v8H52.8
			z M51.1,35.7c-0.9,0-1.7,0.7-1.7,1.9c0,1.1,0.8,1.9,1.7,1.9c0.9,0,1.7-0.7,1.7-1.9C52.8,36.4,52,35.7,51.1,35.7z"/>
	</g>
</g>
</svg>
