<?xml version="1.0" encoding="utf-8"?>
<!-- Generator: Adobe Illustrator 19.0.0, SVG Export Plug-In . SVG Version: 6.00 Build 0)  -->
<svg version="1.1" id="Capa_1" xmlns="http://www.w3.org/2000/svg" xmlns:xlink="http://www.w3.org/1999/xlink" x="0px" y="0px"
	 viewBox="-159 77 208.2 420.2" style="enable-background:new -159 77 208.2 420.2;" xml:space="preserve">
<style type="text/css">
	.st0{fill:#24388D;}
</style>
<path class="st0" d="M-132.8,146l36,63c0,0-66,36.8-62,39.4c4,2.6,42.4,76.6,42.4,76.6s16.6,81,20.6,101s-14-6,7,32s34,42,39,38
	s24-33,24-33s-3-40,6-40s48-14,48-14S1.4,331.4,7.3,322.2S49.2,288,49.2,288l-47-87c0,0,38.3-32,39.6-35c1.4-3,11.6-55,0-59
	s-72.6-30-72.6-30L-132.8,146z"/>
</svg>
