<?xml version="1.0" encoding="utf-8"?>
<!-- Generator: Adobe Illustrator 19.0.0, SVG Export Plug-In . SVG Version: 6.00 Build 0)  -->
<svg version="1.1" id="Capa_1" xmlns="http://www.w3.org/2000/svg" xmlns:xlink="http://www.w3.org/1999/xlink" x="0px" y="0px"
	 viewBox="-159 77 292.5 640" style="enable-background:new -159 77 292.5 640;" xml:space="preserve">
<style type="text/css">
	.st0{fill:#FFFFFF;}
</style>
<path class="st0" d="M-91,713.7l-0.3-0.3v0.6h0.2L-91,713.7 M-90.5,676.9l0.9-0.1l0.5,1.1l0.4-0.2l-0.9-1.6l-3.6-5l1.5,35.9l5.1,0.2
	l2.1-0.3l5.7-0.2l1,0.3l0.2,0.2l-8.3,1.1l-5.7-0.5l0.3,5.1l1.6,1.3l0.3,0.1l13.3-0.4l2.8,0.4l6.1,2.7h0.3l1.8-1.5l1.1-0.5l1.7-0.1
	l1-0.4l0.2-0.7l0.7-0.5l1.2-0.1l1,0.3l0.4,0.9l0.7,0.2l1.1-0.5l0.9-0.9l1,0.6l0.6-0.5l1.3-2.4l0.1-1.6l-0.1-1.2l-0.4-0.1h-1.2
	l-2.9,0.6l-1.5,0.1l-2.1-0.7l-6.8-3.6l-2.7-2.9l-5.1-3.2l-1.5-0.7l-1.3-1l-8-9.2l-1-1.7l-1.2-3l-0.7-0.3l-1,0.2l-1.7-0.4l-1.1-1.5
	l0.2-1.4L-90.5,676.9 M13.5,663.4l-0.2,0.3l0.1,0.1h0.1l0.2-0.1v-0.5L13.5,663.4 M13.1,663.9H13v0.2l-0.3,0.1v0.3h0.2l0.2-0.1v-0.2
	h0.1v-0.1h-0.1L13.1,663.9 M13.3,662.8l0.1-0.1v-0.3h-0.1l-0.1,0.1l-0.1,0.2h-0.4l-0.1,0.5h-0.2l-0.2,0.2H12v0.1l-0.1,0.2h0.2
	l0.2,0.1v0.3l0.3-0.4v-0.3l0.2-0.2H13v-0.4L13.3,662.8 M22.5,661h-0.2l-0.2,0.1h-0.2v0.1h0.7l0.4-0.3h0.4l0.2-0.4v-0.3l-0.1-0.2
	v-0.2l0.1-0.2h0.1v-0.2l-0.1-0.1V659l-0.1,0.1v0.3l-0.1,0.1l-0.2,0.1v0.9H23v0.1l-0.1,0.2h-0.4V661 M21.9,659h-0.1v0.2h0.1V659
	 M30.1,653.8v-0.2h-0.2l-0.1,0.2H30.1 M28,654.3v0.2l0.3,0.1h0.1v-0.4l-0.1,0.1l-0.2-0.1L28,654.3 M25.5,655L25.5,655l0.1,0.2
	l0.1-0.1V655l-0.1-0.2L25.5,655 M13.5,659.7l-0.2-0.1h-0.1l-0.1-0.2l-0.2,0.1v0.2h-0.2v-0.4l-0.1-0.4h-0.2v0.3l-0.2,0.5h0.2v0.2h0.3
	v2.1l0.2-0.1v-0.2l0.1-0.1h0.2l0.1-0.3l0.1-0.2v-0.6l0.1-0.1L13.5,659.7 M11.6,656.7L11.6,656.7l-0.2-0.1L11.6,656.7L11.6,656.7
	 M13.1,657.2v0.3l-0.2,0.2v0.4H13V658l0.1-0.2v-0.2l0.1-0.3v-0.1L13.1,657.2 M12.1,656.2h-0.2v0.2h0.2V656.2 M13.7,654.8h-0.3v0.4
	h-0.1v0.4h-0.1v0.1h0.5l0.1-0.1h-0.1L13.7,654.8 M14.1,654.3h-0.2l0.2,0.3h0.2v-0.3H14.1L14.1,654.3L14.1,654.3 M14.1,651.7l0.1-0.2
	l0.1-0.1v-0.1l-0.4,0.5L14.1,651.7 M14.7,653.6v-0.5h-0.2v0.2L14.7,653.6 M15.2,651.1v0.2l0.2-0.1v-0.1L15.2,651.1 M14.9,651.4
	l-0.2,0.2l-0.2,0.1v0.3h0.3v0.1h0.1v0.1h0.2v-0.4l0.1-0.1v-0.4l-0.1,0.1L14.9,651.4 M15.8,650.7L15.8,650.7l0.1-0.1v-0.1l-0.1-0.1
	v0.1h-0.1v0.2L15.8,650.7 M18.1,646v-0.3L18,646H18.1 M14.3,643.7l-0.1,0.1v0.2h0.3v-0.2l0.2,0.2l0.1-0.2v-0.1H14.3 M13.8,643.4
	h-0.4l-0.1,0.2v0.1l0.2,0.1h0.2l0.1-0.2V643.4 M14.5,643.3v-0.2h-0.7l0.1,0.2H14.5 M14.5,642.9v0.2h0.2L14.5,642.9 M13.2,642.3V642
	H13v0.3h-0.1v0.1h-0.2v0.2h0.4v0.5h0.1v0.2h0.5v-0.2h-0.4v-0.2l0.1-0.1v-0.2h0.1v0.2h0.3v-0.2h-0.1l-0.2-0.2l-0.2-0.1H13.2
	 M11.5,640.2v0.2h0.1l0.2,0.1v0.2H12l0.1-0.1v-0.1H12l-0.1-0.1L11.5,640.2L11.5,640.2L11.5,640.2 M10.1,641.3L10.1,641.3l-0.1,0.1
	l-0.2,0.1v0.4h0.3v0.2l0.1,0.1v0.1l0.1,0.2h0.9v-0.3H11l-0.1-0.1v-0.2h0.6v-0.1h-0.2l-0.4-0.4v-0.1H10.1 M11.4,639.7L11.4,639.7
	l-0.2-0.1v0.1H11.4 M16.8,642L16.8,642l-0.2-0.2v0.2L16.8,642 M15.7,641v0.4l-0.1,0.1l-0.1,0.2l-0.2,0.1l-0.1-0.1v-1l-0.2,0.1h-0.4
	l-0.2-0.1l-0.1,0.1v0.1H14l-0.1-0.1v-0.1h-0.2l-0.1-0.1v0.2h-0.1v-0.3h-0.6v0.1h-0.3v0.1l0.3,0.5l0.7,0.2h0.1l0.2-0.1h0.5l0.2,0.4
	h0.2l0.1,0.2l0.3,0.2l0.1,0.1h1.1l0.1-0.1V642l-0.1-0.1v-0.2h0.3v-0.4l-0.3-0.1V641h-0.2l-0.1,0.2H16L15.7,641 M4.6,660.1H4.5v0.2
	h0.1V660.1 M-1.5,656.4V656l-0.1,0.1L-1.5,656.4 M-1.4,656.5h0.1l0.2-0.1v-0.2h-0.3V656.5 M-3.6,653.5L-3.6,653.5l0.1,0.1v-0.1H-3.6
	 M-3.6,653.9v-0.3h-0.2v0.3H-3.6L-3.6,653.9 M-3.4,653.8l-0.1,0.1v0.1l-0.1,0.1l0.1,0.1h0.1V654h0.1v-0.2H-3.4 M-3.6,653.1v-0.2
	l-0.1,0.1v0.1L-3.6,653.1 M-2.2,651.4H-2v-0.1L-2.2,651.4l0-0.2L-2.2,651.4 M-3.1,651.8l0.1-0.1v-0.2h-0.1V651.8 M-2.6,651.8h-0.1
	v0.3h-0.1l-0.1,0.1H-3v0.1h0.1v0.1H-3v0.3h-0.2l-0.1,0.1v0.1H-3v-0.1h0.1v0.4h0.2V653h0.1l0.1-0.1v-0.2h0.2l0.1,0.1v0.2h-0.1v0.2
	l-0.6,0.5v0.2l0.1,0.1h0.2v0.1h-0.1v0.3h0.1v-0.2h0.1v-0.1h0.2v0.1h0.1v0.7l0.1,0.1h-0.1v0.2h0.5v0.2h0.4l0.2-0.2H-1V655h0.2v0h0.4
	v-0.6h0.2V654l-0.2-0.1l0.1-0.2h0.1v-0.1l-0.1-0.2v-0.3h0.1v-0.9l0.3-0.3H0v-0.3h0.1v-0.3H0v-0.2h-0.4v0.5l-0.1,0.3h0.1l0.1,0.1v0.4
	h-0.1v0.2h-0.1v-0.1h-0.1l-0.3,0.3v0.1L-1,653v0.1h-0.4v0.2h-0.3v0.2h-0.2v-0.2l0.2-0.2v-0.2l0.1-0.1h0.2v-0.2l0.3-0.1v-0.1h0.2
	v-0.1l0.1-0.1V652l-0.1-0.1h-0.4v-0.5h-0.1l-0.1,0.1v0.1h-0.2l-0.2,0.2v0.4H-2v0.2h-0.1l0.1,0.1v0.3h-0.2v-0.4h-0.1l-0.2,0.1
	l-0.1-0.1l0.1-0.1V652L-2.6,651.8 M-4,651.8h-0.3v0.1l-0.2,0.3v-0.1l-0.3-0.3h-0.3v0.1l0.2,0.2v0.1h-0.2v0.2l0.6,0.6h0.2v0.2h0.2
	L-4,653l0.1-0.1h0.1v-0.1h-0.1v-0.1H-4l-0.1,0.1l-0.2,0.1h-0.1l0.1-0.2v-0.4h0.6v-0.1L-4,651.8L-4,651.8 M-4,648.6h-0.1v0.1l0.1,0.1
	h0.1v-0.2l-0.1-0.1V648.6 M-4.3,649.2V649h-0.2v0.2h-0.6v0.4l0.2,0.2v0.7l0.2,0.1h0.2v-0.3h-0.2v-0.2h0.2v-0.3h0.1l0.1,0.1v-0.1h0.4
	v-0.2l0.2-0.2v-0.1H-4l-0.1-0.1L-4.3,649.2 M6.9,648.5H6.7v0.1L6.9,648.5 M6.1,648.2L6,648.3v0.1l0.1,0.1l0.2-0.1v-0.2L6.1,648.2
	 M4.9,647.8l0.1,0.1h0.1v0.1h0.2v-0.1l-0.1-0.1H4.9 M4.5,646.7H4.3v0.1L4.5,646.7l0,0.2L4.5,646.7l0.1,0.1L4.5,646.7 M4.7,641.9
	L4.7,641.9l0.1,0.2h0.1L5,642l-0.2-0.2L4.7,641.9 M6,642.6H5.8v0.5l0.2-0.2V642.6 M5.5,642.4v0.2h0.1v-0.2H5.5 M2.4,647.8H2.2v1.2
	l0.2-0.1V647.8 M2.2,647.8v-0.2H2.1L2.2,647.8 M0.8,647L0.8,647l-0.1,0.1l0.1,0.1h0.1v0.1h0.6v-0.2L1.4,647H0.8 M0.4,646.6H0v0.2
	h0.4V646.6 M1.6,645h0.5v-0.1L1.6,645L1.6,645 M2.4,642.6v-0.3l-0.2-0.2H2V642H1.7v0.1l-0.1,0.1v0.1h0.3l0.1,0.1v0.2h0.1l0.1,0.3
	L2.4,642.6 M5.6,659.4L5.6,659.4l0.2,0.1L5.6,659.4 M3.6,642.6v-0.2l0.1-0.1H3.4l-0.1-0.1H2.9l-0.2-0.1v0.2l0.1,0.1v0.2l0.1,0.2v0.6
	H2.8l-0.1,0.2l0.1,0.1h0.1v0.1l0.3,0.2v0.1h0.5l0.1,0.2h1.1l0.2,0.1l0.2,0.2v0.4h0.2v0.4H5.3v-0.1L5,645l-0.2,0.1H4.7L4.5,645H4.4
	v0.1l-0.1,0.2v0.1l-0.2,0.1l0.1,0.2v0.1h0.1v0.1L4.2,646l0.1,0.2l0.1,0.1h0.3v-0.1h0.2l0.2,0.2h0.4l0.1,0.1H5.5v0.3l0.3,0.2v-0.1
	L6,647h0.1l0.2-0.1v-0.1l0.1-0.3H6.3v-0.2l-0.2-0.1h0.2l0.1,0.1v0.2v0.3h0.4v0.1L6.6,647H6.4v0.2l0.4,0.3h0.4l0.1,0.1l-0.1,0.1H7
	v0.2h0.5v0.1l0.1,0.1v0.1l0.1,0.1v0.2l0.1,0.1h0.1l0.2,0.2h0.4v0.2l0.1,0.2v0.6l0.1,0.1H8.5v-0.1l-0.1-0.2l-0.2-0.1H8.1v-0.1
	l-0.3-0.1H7.7v-0.1L7.5,649l-0.2-0.3l-0.1,0.1L7,649.2H6.8v0.1H6.6l-0.2-0.1H6.3L6.1,649H5.8l-0.3,0.3H5.2l-0.1,0.2H5l-0.3,0.3H4.3
	l-0.1-0.2H4l-0.2,0.2H3.7l-0.2-0.2L3,649.3l-0.1-0.1H2.8L2.7,649H2.6v0.5l-0.1,0.1v0.3h0.1v0.2h0.1v0.4l0.1,0.1h0.1v0.2H3v0.3h0.4
	V651h0.2v0.6h0.5v-0.1L4,651.3V651h1.2v-0.2l0.1-0.2h0.2l0.1,0.2h0.2v-0.5H5.6l0.2-0.3l0.5-0.2h0.1v0.1l0.2,0.1h0.2l0.4-0.2h0.2
	l0.1,0.1h0.2v1l-0.1,0.2l-0.1,0.1v0.1l-0.1,0.1H7.2v-0.1L7,651.4v-0.5H6.4v0.2H6.3v0.1l-0.2,0.1v0.1h0.2l0.1,0.2v0.1l-0.1,0.1v0.2
	l0.1,0.2v0.1H6.3v-0.2H6.1v0.1H6v0.6H5.8l-0.3-0.1v0.1H5.3v-0.1l0.2-0.1v-0.2l0.3-0.1v-0.6H5.5v0.3H5.2v-0.2l0.1-0.1h0.2v-0.3h0.3
	v-0.2l-0.2-0.1H5.5l-0.2,0.2v0.1H5.2l-0.1-0.1v-0.1L5,651.3v0.1H4.7v1.1l0.1,0.2h0.1L4.6,653v0.2l0.1,0.2v0.1H4.5l-0.1,0.2v0.3
	l0.1,0.1l-0.1,0.1H4.3l-0.2,0.2v0.1H3.8v-0.1H3.7l-0.1-0.2H3.3L3,654.1H2.9v0.1H2.8v0.2l0.1,0.1H3v-0.1h0.1l0.2,0.1l0.3,0.3h0.1
	l0.1-0.2h0.9l0.1-0.1l0.2-0.1h0.2v-0.2h0.2v0.3H5.3L5,655l-0.3,0.2H4.6v0.2H4.3l-0.1,0.2l-0.1-0.2H3.7v0.3h0.1l0.1,0.2v0.1h0.2v0.1
	H3.8V656l-0.1-0.1H3.5v0.4H3.1v-0.2h0.2v-0.2l0.1-0.2v-0.3H3v0.2H2.9l-0.2-0.2v-0.2H2.6v1.4l-0.2,0.1l-0.1-0.1v-0.2l0.1-0.2v-0.7
	l-0.1-0.2v0.5L2.2,656l-0.1,0.1H1.8v-0.3h0.1v-0.5H1.7v-0.1H1.6l-0.1,0.1H1.1L1,655.2H0.7l-0.1,0.1l0.1,0.2v0.5H1v-0.2h0.2v0.3h0.4
	v0.1H1.5v0.2l-0.3,0.2H1.1v0.1H0.2v-0.2l0.2-0.1h0.1v-0.2h0.1V656H0.5v-0.1H0.2v-0.2l0.2-0.1v-0.4H0v0.2h-0.1l-0.1,0.2v0.1h-0.2v0.2
	l0.2,0.1h0.3v1h0.1l-0.1,0.2h0.5l-0.1,0.1l-0.3,0.2H0v0.1h-0.1v0.1l-0.1,0.1v-0.3l0.1-0.2H0V657h-0.1l-0.1-0.2h-0.3l-0.1,0.2h-0.3
	l-0.2-0.3h-0.1v-0.1l-0.1-0.1v-0.3H-2V656h-0.3l-0.2,0.1v0.3l0.2-0.1h0.1l0.1,0.1v0.2h-0.1v0.9h0.5v-0.3H-2V657h0.3v0.2h0.1v0.1
	l0.1,0.2v0.3h0.4v0.1L-1,658h0v0.1h0.1l0.1,0.2h0.1l0.2,0.1h0.3l0.1,0.2v0.4h0.3l0.1-0.1v0.9h0.3v-0.2h0.9v-0.2H1.2L1,659.3
	l-0.1-0.2V659l-0.1-0.2H0.4v-0.7l0.2,0.1l0.1,0.1h0.1v-0.1h0.1v0.1l0.3,0.1v0.1h0.4v0.2h0.2v0.1H1.5l-0.1,0.1H1.3v0.2h0.2v0.2
	l0.3,0.1l0.1-0.1h0.2v0.1H2l-0.1,0.1v0.1l0.1,0.2h0.1v-0.2l0.2-0.1v0.7H1.8v0.2h0.1v0.4l0.4,0.2h0.2l0.1-0.1h0.1v0.1l-0.1-0.1h0.1
	v0.1h0.1l0.3-0.1v-0.2h0.3l0.1-0.1h0.1v-0.2h0.2v-0.2L3.6,660H3.5v-0.2h0.4v-0.1H4v-0.1l-0.1-0.1H4l-0.2-0.1v-0.1l-0.2-0.1v-0.1H3.5
	l-0.1,0.1v-0.5l0.1-0.1h0.1v0.3l0.2,0.1v0.1l0.3,0.2l0.2,0.1v0.4h0.1v-0.1h0.1v-0.1h0.3l-0.2-0.3l0.1-0.1h0.2l0.1,0.1v0.3h0.5
	l-0.3-0.3V659L5,658.9H4.7l-0.1-0.2l-0.2-0.2H4.2v-0.2h0.2l0.1,0.1h0.2l0.4,0.3h0.1v-0.3h0.5v0.1H5.5l-0.1,0.1v0.6l0.1,0.1h0.2
	l0.2-0.1h0.3v-0.1l0.1-0.1v-0.4l0.4-0.5v-0.5l0.2-0.1v-0.7L6.7,657l-0.2,0.3v-0.4l-0.2-0.2v-0.2l-0.1-0.1L6,656.3l-0.1-0.2H5.7v-1
	H5.5l0.2-0.2v0.2l0.3,0.2v0.2l0.2,0.4l0.1,0.1v0.3h0.2v-0.1l0.2-0.2h0.2v-0.1l0.2,0.1h0.2l-0.2,0.2v0.2l0.3-0.2h0.3l0.1,0.2H8V656
	h0.6v-0.4l-0.1-0.2v-0.2h1v0.7l0.2,0.1h0.1l0.6-0.6h0.1v0.2l0.1-0.2l0.3-0.2h0.3l0.2-0.2v-0.2h-0.2v-0.4l0.2-0.1v-0.1l0.2-0.5h0.1
	l0.5-1.1l0.2-0.1v-0.3l0.1-0.2l0.1,0.2l0.1,0.1l0.1-0.1l0.2-0.3l0.3-0.6h0.2l0.4-0.4h-0.3l0.1-0.2v-0.1h0.2l0.2-0.2V650l0.4-0.3
	l0.1-0.4V649l-0.1,0.2l-0.2,0.1h-0.1v-0.1l0.1-0.2l0.2-0.1l0.1-0.2v-0.1h0.2L15,648l0.3-0.3v0.3l-0.2,0.4l-0.1,0.3v0.2l0.1-0.1
	l0.2-0.5h0.3l0.1-0.3v-0.1l0.2-0.1v-0.5l0.3-0.3v0.1l-0.1,0.5v0.3l-0.2,0.1v0.1h0.2l0.2-0.1v-0.1l0.2-0.2h0.2V647h0.1l0.2-0.3
	l0.2-0.1l-0.2-0.2l-0.2,0.3v-0.3l-0.1,0.2v-0.3l0.1-0.1l-0.1-0.3h-0.2v0.3h-0.4l-0.2,0.1h-0.2l0.2-0.1v-0.1l0.2-0.2h0.2l0.2-0.1H17
	v-0.3h0.2l0.1,0.2v0.1l0.2-0.1l0.1-0.2l0.1-0.1l0.3-0.1v-0.1h0.3l0.4-0.5l-0.2-0.2l-0.4,0.5h-0.2l-0.1,0.2h-0.1V645h0.1v-0.3h-0.1
	v-0.2h0.4v-0.1l0.2-0.2h0.1l0.1-0.1h0.3v-0.3h-0.5v-0.3h-0.9l-0.2-0.2v-0.1H18l-0.2-0.2h-0.2l-0.1-0.2v-0.2h-0.2v0.7H17l-0.2-0.3
	v0.5l-0.2,0.2v0.1h-0.2v0.2h0.2l0.2,0.1h0.1v0.1h0.3v0.2h0.2v0.1h-0.2v0.2h-0.4v0.3h-0.2v-0.2h-0.5L16,645h-0.3v0.3l-0.4-0.3H15
	l0.3-0.3h0.4l0.1-0.2H16v-0.3h0.3v-0.1h-0.2v-0.3h0.2v-0.1H16v0.1h-0.1l-0.2,0.3l-0.1,0.1l-0.3,0.2l-0.1,0.1H15l-0.1,0.2h-0.5
	l-0.2,0.1h-0.7v0.2h-0.6l-0.1,0.2l-0.4-0.5h0.5v-0.2h0.6v-0.3h-0.2v-0.1h-0.2v0.1h-0.3l-0.2-0.1v0.1h-0.4l-0.1-0.1h-0.2v0.1h-0.1
	v0.2h-0.1v-0.3l0.1-0.1h0.1v-0.2h0.2l-0.2-0.1h-0.4v0.1h-0.2l-0.1-0.1h-0.1v0.1h-0.2v0.2l-0.2,0.1v0.1h-0.1l-0.1-0.1v-0.6h-0.3
	l-0.2,0.2l0.2,0.1v0.2H10l-0.1-0.2v0.6H9l-0.1,0.1v0.2H9l0.2,0.1h0.2l0.1,0.2h0.4l0.1,0.2h0.1v0.1H9.7v0.1H9.2v0.1H8.9v0.3H8.8
	l-0.1-0.1v0.1H8.6l-0.2-0.1v-0.2l-0.1-0.1H8.1l-0.2,0.3H7.7v-0.2H7.2v-0.1H7V645l-0.4-0.1H6.5v-0.2l-0.3-0.3H6v-0.5l-0.3-0.1H5.5
	l-0.1-0.1l-0.1-0.2L5,643.2H4.6L4.5,643H4.4l-0.3-0.3H3.6 M6.5,641h0.2v0.2l0.2,0.1v0.1l0.2,0.1h0.2l0.3,0.3l0.2,0.1l0.1,0.4
	l0.1,0.2h0.6v0.5H8v-0.3l-0.1-0.2L7.4,642l-0.1,0.1l0.1,0.1v0.3H6.9l0.2,0.2l-0.2,0.1v0.2h0.2l-0.2,0.2L6.7,643v0.3h0.2l0.2,0.2h0.2
	l0.1,0.1l0.1-0.1h0.2l0.1-0.2h0.4l0.1,0.2h0.3l0.1,0.1l0.1-0.1l0.1-0.2v-0.1l0.2-0.2v-0.3l0.2-0.2h0.1v-0.3h0.2V642l-0.2,0.1V642
	H9.3l-0.2,0.1V642l0.2-0.1v-0.1l-0.2-0.1l-0.2-0.4H8.7l-0.1,0.1l-0.3,0.1H8l-0.1-0.1H7.8l-0.1-0.1H7.5l-0.2-0.1V641l-0.4-0.2v-0.1
	H6.5L6.5,641 M3.8,640.8v-0.3l-0.3-0.3H3.4v0.7l0.1,0.1h0.2l0.1,0.2l0.2,0.1h0.1v0.1l0.1,0.1v-0.1l0.1-0.1H4.2v-0.4H4L3.8,640.8
	 M14.2,655.4v-0.2h-0.1v0.2H14.2 M31.3,651.8h-0.2l-0.1,0.1h-0.1l0.2,0.3l0.1-0.1h0.3v0.1h0.2v-0.1h0.2v-0.2h-0.4L31.3,651.8
	 M35.8,646l-0.1-0.1l-0.5-0.3v0.4l0.2,0.1l0.1,0.1H36v-0.1L35.8,646 M34.4,643.4l-0.4-0.1l-0.2-0.2h-0.2v0.2l-0.2,0.1v0.3H33
	l-0.2-0.3h-2.1l-0.2,0.3h-0.3v0.3l-0.2,0.1l-0.3,0.9l-0.5,0.5l0.1,0.1v0.3l0.1,0.1h0.1l0.2,0.1h0.2v-0.3l0.1,0.1v0.1l-0.1,0.1v0.2
	l0.1,0.2h0.2v-0.4l0.2,0.3v0.1h0.1v0.1l0.2-0.1h0.2v0.2h-0.2v0.1h-0.2v0.9h0.4l0.1,0.1v0.1h-0.3l-0.2-0.2h-0.1l-0.1,0.1l0.1,0.1
	l0.1,0.3l0.2,0.2v0.3l-0.2-0.1v-0.1l-0.1,0.3h-0.2v-1H30l0.2-0.1v-0.2l0.1-0.2v-0.2l-0.1-0.1v0h-0.3v-0.1l-0.1-0.1l-0.2,0.2v0.1
	l-0.2,0.1H29v-0.6l-0.2-0.1l-0.2,0.1v0.4l-0.3,0.1v-0.5l0.1-0.1V646h0.2v-0.3h-0.3v-0.1l-0.2,0.1H28l-0.2-0.3l-0.2,0.3l-0.2,0.1
	v-0.1h-0.1v-0.3h-0.1v-0.1h0.2v-0.2l0.1-0.2l-0.1-0.2v-0.1h-0.1l-0.2,0.1l-0.2,0.4l-0.2,0.1v-0.3h0.2l0.1-0.2l0.2-0.1v-0.5l0.3-0.4
	h0.3v0.2l-0.3,0.1l0.1,0.1v0.3l0.2,0.2l0.2,0.1v0.4h0.4l0.2-0.2H29l0.1-0.2v0.4l0.3-0.5h0.1v-0.3l-0.1-0.2V644h-0.1v-0.6l-0.2-0.5
	H29v-0.3h-0.4l-0.2-0.2l-0.1-0.2l-0.3-0.1l-0.2,0.1v0.1l-0.4-0.1h-0.5l-0.2,0.1H26v0.1l0.1,0.2v0.3H26v-0.3h-0.9v-0.1l-0.1-0.1
	l-0.2-0.1l-0.1,0.1v0.2h0.2v0.1h-0.2l-0.4-0.5h-0.2l-0.5-0.5h-0.3L23,641l-0.2-0.1v-0.1l-0.2-0.1v-0.1h-0.1l-0.1-0.1h-0.1v0.5
	l0.3,0.7v0.2l0.4,0.3v0.3h0.2v0.7h-0.6V643h-0.1v0.2h-0.6v0.7l0.4,0.1v0.2h-0.4l-0.1-0.2h-0.9v-0.3h-0.2l-0.1,0.5h-0.2L20,645v0.1
	l0.1,0.1h0.2v-0.1h0.3l0.4,0.3l0.1,0.1h0.2l0.4,0.1v0.2l0.2,0.1h0.4l0.1,0.2h0.2l-0.2,0.2h-0.1l-0.2-0.2V646l-0.2-0.1h-1v0.4H21v0.3
	l0.1,0.1v0.1l-0.1,0.1v0.2l0.1,0.1v0.1l0.4,0.2v0.1H21v-0.3l-0.1-0.1v0.1H21V647l-0.1-0.3l-0.3-0.6v-0.3l-0.2-0.1v0.6l-0.2,0.2v0.5
	l-0.1,0.1l-0.1,0.2l-0.2,0.2v0.3H20l0.1,0.2h0.5l0.1,0.3l0.2,0.1v0.1l0.2,0.2l0.1,0.2h0.2l0.3,0.2h-0.5l0.1,0.1h0.2v0.1h-0.3v0.1
	l0.1,0.3v0.1h0.1v0.4h0.3v0.5l0.1,0.7H22v0.1h-0.2l-0.1,0.1v0.4h-0.2l-0.1,0.1h-0.1v0.3h-0.1v-0.6l-0.1-0.2v-0.2l0.1-0.2v-0.3h-0.1
	v-1.3h-0.4l-0.1,0.2l-0.4,0.1l-0.1,0.2H20v0.2l-0.2,0.1v-0.1l-0.1-0.2l-0.2,0.1v0.4l-0.1,0.2h-0.1v-0.6l-0.2,0.1l-0.1,0.1l-0.1,0.2
	v0.3h-0.1v-0.1h-0.1l-0.2,0.3h-0.2v0.2h0.2l0.2,0.1v0.1l-0.1,0.2h-0.3v0.1H18v-0.1l0.2-0.2l-0.2-0.1l-0.2,0.1v0.4l-0.1,0.1v0.1
	l-0.2,0.2v0.2H17v-0.2h0.2V652h-0.4v0.5h-0.2v-0.2h-0.2v0.1h-0.3l-0.1,0.1v0.1h0.3v0.9h0.1v0.2h-0.1l-0.2-0.3h-0.2v-0.2h-0.3v0.6
	h0.1v0.1H16l0.1,0.3v0.4H16v0.1h-0.2l-0.1-0.1v-0.4h-0.5l-0.2-0.3v-0.2h-0.2v0.5l-0.2,0.1v0.4h0.2l0.1,0.2H15l0.2-0.2l0.3,0.4H15
	v0.1h-0.2v-0.1l-0.2-0.2h-0.3l0.3,0.6h0.3v0.1h-0.3v0.4h-0.2v0.1h-0.2v0.2l0.1,0.1h0.1l0.2,0.1v0.6h0.3v0.1l0.1,0.2v0.1h0.2v0.2
	h-0.3l-0.1-0.1l-0.2,0.1v0.2h-0.2v-0.3l-0.1,0.1v0.1l-0.1,0.1v0.1l0.2,0.1v0.4H14v-0.2l-0.1,0.2V658h-0.5v0.3h0.1v0.2h-0.1l-0.1,0.1
	v0.2l0.1,0.1h0.1l0.1,0.2v0.1l0.3,0.1v0.1h0.3v0.2H14l0.2,0.2h0.1v0.5h0.3v-0.1h0.2v0.3l-0.2,0.1v0.6h0.2l0.1-0.1v0.1h0.4v-0.1
	l0.2,0.1h0.2l0.1,0.1l0.3,0.6h0.2v0.1l-0.3,0.2v0.3h0.3v-0.2l0.3-0.1l0.3,0.3v0.2h-0.1l0.2,0.2h0.2l0.2,0.1v0.2h0.1V663l0.2-0.1H18
	v-0.2h-0.5v0.3h-0.3v-0.3h0.2v-0.2l0.1-0.1V662h-0.1l-0.2,0.1v0.1h-0.4L17,662h0.2v-0.1l0.2-0.1l0.1-0.2v-0.4h-0.1v-0.1h-0.2V661
	l0.2-0.1h0.3v-0.3h-0.3l-0.2,0.3L17,661v0.1h-0.2v-0.2h-0.2v-0.2l0.2-0.1v-0.2h-0.2v-0.2h0.6V660h-0.4v-0.2h-0.5v-0.1l0.1-0.1
	l0.2,0.1l0.2-0.1v-0.1l-0.2-0.1h0.2l0.1,0.2l0.3,0.1v-0.1l-0.2-0.2v-0.3h-0.1V659H17l0.2,0.1v0.2h0.2v-0.2l0.1-0.1v0.6H18v-0.1h0.2
	v0.1H18v0.4h0.2v-0.2h0.2v0.2h0.2v0.4l0.1,0.5L19,661h0.2v-0.4h0.3v0.3h0.4l0.2,0.2h0.3l0.4,0.2v0.2l0.1,0.1H21v-0.4l-0.1-0.1v-0.6
	h-0.1v-0.1h-0.5v-0.2h0.1V660h0.3v-0.2l0.1-0.1h0.1v-0.4h-0.5v0.2l-0.1,0.1v-0.3h-0.2v0.1l-0.2,0.1v0.1l-0.1,0.1l-0.1-0.1h-0.2v-0.3
	h0.4v-0.2l0.2-0.2h0.2l0.1-0.2v-0.2h-0.1v0.1h-0.2v-0.2h-0.2v0.1H20l-0.1-0.1h-0.2l0.2-0.1l0.1-0.1h0.1v-0.1h0.4V658l-0.4-0.2v-0.3
	h-0.2l-0.2,0.1l-0.3,0.2v-0.2h-0.1v-0.1h0.1V657h0.2v-0.3h-0.2v-0.1h-0.6l-0.2,0.1h-0.1v-0.1l-0.3-0.1h0.3l0.1-0.1l0.1-0.2h0.5v0.2
	h0.2v0.1h0.3l0.2-0.3l-0.2-0.1v-0.3l-0.1-0.1h0.1v0.1h0.4v0.4l0.2,0.2v0.3h0.2v0.1l0.1-0.1l-0.1-0.1h0.1v0.1l0.2,0.1v0.2h0.3
	l0.1-0.3h0.1v0.1l0.1,0.2h0.2v0.2h-0.2v0.1h0.2v0.5l0.1,0.2v-0.2h0.2v-0.3h0.2v0.6h0.1v0.1l0.1,0.2h0.1v-0.2l-0.1-0.1h0.1V658
	l0.2-0.1h0.2v-0.5h0.4l0.1-0.1h0.1l0.1,0.1l0.1-0.1V657l0.1,0.2h0.7v0.3l-0.1,0.1l0.1,0.1v0.1h0.1l0.1-0.2v-0.1h0.1v0.4l0.1,0.1h0.1
	v0.2l-0.1,0.1v0.3h0.3v0.2h0.1v-0.1l0.1-0.1v-0.2h0.3l-0.2-0.1v-0.1h-0.1v-0.5h-0.1v-0.4h0.1V657h-0.1l-0.1-0.2v-0.1h0.6v-0.3H26
	V656l0.1-0.1v-0.2l-0.1-0.1v-0.2h-0.9v-0.2h-0.4l-0.1,0.2h-0.2v0.2l-0.1-0.2v-0.2H24l-0.2-0.2h-0.3v-0.2h-0.2v-0.1H23v-0.3h-0.1
	v-0.1H23v0.1l0.2,0.2v-0.2l0.2,0.2h0.2l0.2,0.2h0.1v0.2h0.2v-0.2h0.1v-0.1l-0.2-0.1l-0.1-0.2h-0.1l-0.1-0.1h-0.2l-0.1-0.1L23,654
	v-0.1l-0.5-0.3l-0.1-0.2h-0.6v0.3l-0.2-0.1v-0.2l-0.1-0.2h-0.1l-0.1,0.2h-0.5l-0.1,0.3h-0.2v-0.3h0.2v-0.3h0.5v0.1h0.2l0.2-0.1h0.3
	l0.2,0.1v-0.3l0.2-0.3v-0.5h0.2v0.3h-0.1v0.1l0.1,0.1v0.5l0.1,0.1h0.6l0.2,0.2l0.1,0.2l0.1,0.1h0.2v0.2h0.3l0.2,0.2h0.2v-0.2h0.1
	l0.2,0.1H25v-0.3h0.1l0.2,0.2h0.5l-0.4,0.2v0.2h0.1l0.1-0.1l0.2,0.1h0.3l0.1-0.1h0.1l0.2-0.1h0.2l0.1-0.1l-0.1-0.1v-0.2h-0.1v-0.1
	h-0.1l-0.2-0.2v-0.2h0.2v-0.1l-0.2-0.1v-0.3l0.2,0.3v0.1l0.1,0.1v0.2l0.1,0.2l0.1,0.1l0.3,0.4h0.1l0.2-0.1v0.3h0.2l0.1-0.1L28,654
	v0.1h0.2l0.1,0.1l0.1-0.1h0.2l0.1-0.2h0.4v-0.2h0.2v-0.5h0.6v0.5l0.2-0.1v-0.5l0.2-0.1l0.1-0.1h0.2v-0.3h-0.7v-0.1l0.4-0.4l-0.2-0.1
	h-0.2v-0.4h-0.2v-0.1h0.2v0.1h0.6l0.1-0.1v-0.1h0.3v0.1l0.2,0.1v0.1h0.3v0.6l0.2-0.3v-0.3h0.2l0.1-0.1v-0.1l-0.2-0.1h0.4v0.2h0.7
	v-0.1h0.7l0.1-0.1h-0.9v-0.2L33,651h0.5l0.2-0.1H34l0.3,0.1l0.2-0.5l0.2-0.2V650l-0.3,0.2H34v0.1h0.2l0.2,0.1v0.1H34l-0.1-0.1
	l-0.2-0.1h0.1v-0.1l-0.1-0.2h-0.2l-0.2-0.2v-0.1h0.1l0.1,0.1l0.2,0.1h0.7v-0.2h0.4l0.2-0.1v-0.5h-0.2l-0.1-0.1h-0.2l-0.1-0.2h-1
	l-0.1-0.3h-0.4l-0.1-0.1h-0.2v0.1h-0.7v-0.2l-0.4-0.3h-0.1v-0.1l-0.2-0.1h-0.1l-0.4-0.3v-0.2h0.5v-0.5l0.5,0.4h0.2v-0.4l-0.2-0.1
	V646h0.2v0.1h0.3l0.1,0.1h0.3v0.5l0.3,0.1l0.3-0.1h0.4l0.1,0.1h0.2l0.3,0.1h0.4l0.1-0.1v-0.2l-0.1-0.2h-0.3v-0.2h-0.4l-0.2-0.1
	l-0.1-0.1l0.2-0.4h0.3l-0.2-0.3v-1.1h-0.2l-0.1-0.1v-0.2h-0.2v-0.5 M23,646.2v0.2l-0.1-0.2H23 M26.8,642.3v0.3h-0.2v-0.3H26.8
	 M30.3,652.3l-0.2,0.1h-0.2l-0.1,0.3v0.1h-0.4l-0.1-0.1l0.2-0.2l0.2-0.1h0.1l0.1-0.1H30.3 M-10.7,97.3l-0.9-1.3l-3.2-6.3l-2.8-1.4
	l-3.6-3.6l-2.2-1.6l-0.7-1.4l-0.4-1.4l-1-0.1l-12.8,0.1l-1.7,0.2l-0.7,0.5h-0.9l-2-1l-1,0.6l-2,3.3l-1.8,4.6l-2,3.5l-1,4.9l-0.4-1.3
	l-1.3-2.5v-1.8l-0.6-1.3l-1-0.9l-0.6-1.5l-0.1-1.8l-1-1.3l-1.3-0.6l-1,0.2l-5.3-2L-76.6,83l-1.7-0.5l-2.4-2.7l-1.3-0.2l-0.9-0.4
	l-0.6-1.4l-1.3-0.5l-1.5-0.3l-0.6,1.1l-0.5,3.7l-0.9,1.4l-7,2.4l-0.5,1.7l0.1,2.2l-1.4,1.2l-2,0.9l-1,1.1V94l-0.7,1l-1.4,1.1
	l-0.6,1.2l0.2,1.2l3.1,3.1l-4.6,19.5l-8.6,4.8l-3.5,1.4l-3.9,2.2l-2.5,2.1l-1.2,2.7l-1,1.2l-0.5,2l0.6,1.6l1.2,0.7l0.9,1.3l1.1,2.4
	l-2,1.1l-0.9,2.1l-0.6,2.7l0.3,2l0.4,1.2l0.5,2.4l0.9,1.6l2,4.9l-0.2,2l-1.5,1.7l-1.1,1.8l0.2,2.5l0.4,2l4.2,5.7l0.4,1.7l-0.1,1.6
	l-3.1,0.5l-0.6,0.7l-0.3,1l-0.9,0.3l-1.2-0.6l-0.6-0.6l-1.2,0.6l-1.5,1.3l0.2,1.9l-0.4,1.6l-1.2,1.4l-2,6l-0.2,2.6l-0.3,1.6
	l-1.3,1.1l-1.1,1.6l-0.3,1.2v0.1l-3.9,4.4l-1,1.5l-0.1,1.6l-0.9,2.5l-0.1,3.5l-0.5,1.2l-0.2,1.3l0.4,1.3v1.3l-2.6,2.4l-1.2,1.4
	l1.1,3.6l0.6,1.1l0.3,2.6l0.6,1.2l0.2,1.5l-0.1,3.6l0.5,1.6l1,0.7l0.4,1.1l-1.4,3.4l-0.5,0.7l-0.7,0.1l-2-0.6l-0.7,0.3l0.4,1v1.1
	l-2.1,7.6l0.3,1.8l0.6,0.7l0.5,0.3l-0.2,0.4h-0.7h-0.4v1.1l-0.5,0.6l-1.4-0.2l-0.9,0.9l-0.3,5.9l0.2,2.8l1.2,0.9l0.7,1.5v1.8
	l1.4,0.9l2.1,0.1l0.4,0.7v1.4l-1.6,1.1l0.3,1.7l0.6,1.7l1.8,2.6l1.3,2.5l0.4,4.1l0.9,1.4l1.2,0.4l0.5,0.7l-0.4,1.2l-0.7,1.2
	l-0.1,1.8l0.5,2.1l1.2,1.2l2.1-1l1.2,0.6l0.4,1.6l-0.9,4.1l-0.2,4.6l0.7,3.3l-0.1,1.4l0.2,1.2l0.7,2.1l-1,1.1l-1.9-0.3l-0.7,0.4
	l0.1,1.6l-0.4,1.4l-1.9,3.1v1.5l-1,2l0.2,0.9l-0.6,2.8l0.4,2.2l-0.4,1.8l-2.9,1.4l0.1,1.1l1.2,0.4h1.1l0.1,0.7l-0.3,1.1l0.3,1.2
	l0.6,1l0.2,2.7l0.7,1.9l-0.5,2.5l0.7,3.1l-1.2,1.5h-1.7l-0.6,0.6l-0.7,1.3l-0.4,1.4l-0.2,1.5l-0.7,0.5h-1.3l-0.6,0.5l-0.3,0.7
	l-0.7,0.5l-0.6,0.2l-0.2,3.1l-0.5,0.9l-0.7,0.5l-0.3,4.2l0.5,1.5l0.7,1.3l-0.2,1.4l-0.9,1.6v1.3l1.1,1l0.7,1.3l-0.6,3.3l0.3,2.2
	l2.8,6l0.6,5.2l0.9,1.6l1.1,1.4l0.5,1.2l-0.2,1.3l-1.7,1.7l-4,2.5l-1.5,1.5l0.3,6.7l-1.2,6.7l-0.9-0.1l-1-0.6l-0.4,0.5l0.4,1.9
	l0.7,1.8l0.6,1v3.3l-0.5,1.1l-1.2,0.1l-0.4,0.7v1.8l0.4,1h1.3l0.9,0.3l-0.3,1.5l-0.6,1l-0.9,0.6l-0.3,1v1.5l-0.3,1.5l-1,1.1l0.1,1.4
	l1.2,1.8l0.7,1.8l-0.2,5.5l0.7,5l-0.1,1.2l-0.2,1l0.3,1.1l1.1,1.7l1.3,3.3l0.3,1.5l-0.1,1.6l-0.9,0.4h-1.9l-1.3,0.8l-0.5,1.7
	l0.4,1.2l0.9,0.9v1.2l-0.8,1.2l-0.4,1.4l0.9,2.7v1.4l-0.2,1.4v2.1l0.7,1.7l1.4,0.6l1.7,0.4l1.5,0.1l0.6,1l-0.5,1.3l-1,1.1l-0.9,1.5
	l1.1,1.5l1.9,1.2l0.9,1.6l-1.4,2.4l0.7,1.5l1.2,1l0.4,0.7l-0.4,1.2l-1.1,1.4l-0.5,1.3l0.4,1.4l-0.1,3l1.5,0.7l6.4-0.4l1,0.3l0.9,0.6
	l0.5,1.1l-0.6,1.1l-0.7,0.9v2.8l-0.9,0.7l-2.2-1l-2.4,1l-2.1-0.4l-1.1,0.5l-2.2,0.5l-0.3,1l0.9,1.2l1.6,0.7l1.4-0.5l2.8,0.4l1,0.9
	l0.9,1.7l2.5,2.4v1.1l-0.6,1.4l-1.2,0.7l-0.2,0.7l0.2,1.4l-1,0.5l-1.4,0.1l-1,0.2l-0.4,1.6v2.2l0.7,1.7l1.6,0.9l0.5,1l-0.4,1.3
	l-0.7,1.5l-1.2,0.9l-0.5,1.1l1.7,1.7l0.2,1.9l1.2,3.3l0.2,1.8l-0.9,2l-2,2.5v1.5l-0.4,2l0.5,1.4l1.1,0.4l0.5,0.5l-0.7,1.2l-1,0.2
	l-0.5,0.5l-0.5,2.5l-1.1,0.6h-1.4l-0.6,1.2l0.1,2.4l-1.4,4.4l-0.3,2l0.1,1.1l0.7,1.1l1.4,1l0.7,1.2l0.4,3l-0.9,1.7l-1,1.2l-2,1.1
	l0.7,0.9l0.4,1.6l0.1,2.1l-0.2,1.8l-1.1,1.8l-1.4,1l-0.8,0.1l-0.7,0.4l-1.5,3.3v0.4l0.4,1.5l-0.2,1.3l-3.4,0.4l-0.7,1.3l-0.6,2.4
	l-0.3,2.2l0.7,1.6l0.7,1.2l-0.6,3.3l0.7,2.4v1.4l0.3,1.1l2.1,1.7l0.9,1.2l1.3,5.3l0.6,0.7l0.3,0.9l0.2,1.1l0.7,0.5h0.7l2-2.7
	l1.1-0.9l0.7,0.4l0.6,0.5l1-0.5l0.6-0.9l1-0.3l1.4,0.5l0.5,0.7l-0.5,1.1l0.3,1.1l1.1,0.9l0.6,1.4l-0.3,1.5l-1.1,2l0.2,1.6l1.7,1.4
	l-1.3,6.3l1.9,2.5l3.3,1.8l0.6,1.6l0.4,1.7l1.6,0.6l21.7-1.9l1.9,0.5l2.5,1.2l2.6,0.5l2.6-0.1l2.1,0.5l2.7,1.5l3.7,0.9l1.2,0.9
	l0.3-0.9l-5-7.2l-2-4.2l-0.9-1l-1-0.2l-0.9,0.2l-2-0.5l0.2-0.5l2.5-0.2l0.9-1.2l-0.5-2.8l-0.9-2l-1.5-5.3l-1-0.3l-1.9,1.7v-0.7
	l2.1-1.8l0.7-1.5v-4.7l0.4-2.1l1.2-1.9l1.9-2.4l2.1-1.6l1.7-0.7l1-1.1l-0.5-1.1l0.4-0.4l1.4,0.9l1.5-0.4l2.1-1.5l1.8-2l0.7-1.7
	l0.4-1.7V611l0.6-5.9l-0.2-0.5l-0.9,0.2l-0.1-0.2l0.5-1.3l0.6-3.5l1.1-1.5l3.5-3.6l1.5-2.7l1.3-1.5l1.8-0.7l2.9-2.9l1.4-0.6l1.1-1
	l4.6-5l1.2,0.1l0.7-0.3v-1.2l-1-1.1l0.5-0.3l0.9,0.2l0.6-0.4l-0.1-1l-0.7-0.7l-0.6-1.8l0.1-1.1l0.5-1.1l0.9-0.6l0.4-1.3l0.2-5
	L-64,563l-0.7-1.2l-1.2-1.2l-1.5-0.2l-8-0.3l-1.6-0.6l-9.2-9l-1.5-2.7l-0.9-2.6v-5.5l0.5-1.5l0.7-1.1l0.7-0.5l0.5-0.1l0.4-1V534
	l0.3-1l4.4-6.7l1.4-1.3l1.6-0.3l2.5-0.1l0.3-0.9l0.2-1.4l1.1-0.7l1.7-0.3l1.7-1.3h1.4l1.6,0.5l1.5-0.2l1.2,0.2l0.6,0.6l0.6-0.2
	l0.4-1l0.6-0.7l0.2-0.7l-0.5-0.9l-1.1-0.1l-0.4-0.7v-1.5l0.4-1l1.1-1.2l1.6-1.3l0.7-0.4l0.9-0.6l0.2-1.3l0.3-1l0.7-0.3l0.3-0.7
	l-0.6-0.9l-0.2-0.2l-0.2-0.4l-0.1-1.9l0.3-0.7l0.9-0.6l0.1-0.9l-0.1-1.3l-1.3-1.6l-0.3-1.2L-60,496l0.2-1.6l0.6-1.3l2.4-2.7l0.6-1.2
	l-0.3-0.7l0.1-1.1l3.3-2.4l4.9-2l1.2-0.7l0.4-1l-0.4-0.2l-0.9,0.2l-7.5-3l-0.5-0.7L-56,477l0.6-1.2l4.1-3l2.9-0.2l1.3,0.3l1.2,0.9
	l0.6,0.7l0.1,1.2l-0.4,0.7l0.2,0.7l1,1.6l1.4,0.9l1.4-0.5l3.2-0.5l1.1-1.1l1.1-2.1l-0.3-4l0.2-3.1l-1.6-2.4l-0.4-1.3l-0.7-0.3
	l-1.1,0.3l-2.7,1.5l-2.8,0.6l-0.3,0.4l0.1,0.4h1.2l1.3,0.3l0.5,1.1l-0.1,1.5l-0.9,0.6l-0.9,0.1l-0.4-0.3l-0.1-0.6l-0.7,0.2l-1.4,0.7
	H-49l-1.1-0.4v-0.9l1.1-1.4l0.1-0.6h-0.7l-1.5-0.2l-2-0.7l-2.1-1.3l-1.8-3.2v-1l0.9-2.4l-0.1-1.3l-0.4-0.9l0.5-2.6L-58,447l-0.3-4.3
	l0.3-1.4l0.7-1.2l3.5-2.6l0.6,0.4l0.1,0.6l-0.3,0.6l-0.9,0.6l0.5,0.5l1.8,0.2l4.9,1.3l1.8,1.2l4.3,1.6l2.2,1.6h10.2l9.6-4.6l1.9-2.5
	l0.7-2.5l-0.7-1.7l-2.5-2.7L-20,431l0.1-1.4l0.5-0.6l1.1-0.5l0.7-1l-0.2-1.1l-0.3-0.5l-0.1-0.7l0.4-1l0.3-1.4l0.7-1l1,0.2l1.1-1.4
	l1.1-4.2v-1.2l-0.3-1.1l-1.5-1l-1-1.4l-1.4-3.5l0.2-1.5l0.6-1.1l-0.1-1.1l-0.7-1.5l0.2-1.2l1.7-0.2l1.7,1.1l1.4,1.9l2,1.1l22.2-1.5
	l22.8-4.7l12-4.1l6.5-4.1l1-1.8l0.4-1.7l0.9-2.2l1.7-2.1l4.9-5l3-5.2l2-2.1l1.4-2.1l0.3-1.7v-8.1l-0.5-1.7h-1l-0.9,0.3l-0.6,0.5
	l-0.6,0.3l-4.6-4.4l-1.2-2.7l-0.4-3.1l0.4-1.9L63,341l-0.7-2.6l-1.4-2.4l-2.9-3.1l-3.5-2.6l-7.6-4.4l-2.6-3l-0.6-3l-0.9-1.7
	l-0.5-0.7l2-1.2l0.6-1.8l0.7-0.6l-0.7-2.6l-0.5-7.1l0.9-4.5l0.4-1.1l0.3-1.4v-1.8l0.9-0.4l1.4,0.3l1.2-0.6l1-1.7l-1.1-9.2l0.4-1.4
	l1-1.3l0.7-2.1l-0.5-1l-0.9-0.9L51,274l-1-2.7l0.7-0.6h1.4l0.7-1l0.7-1.7l0.2-1.6l-1.5-2.1l0.4-1l3.1-4.3l0.5-4.8l1.1-1.9l-0.2-2.7
	l-0.5-1.1l-0.3-1.2l1-1.9l1.8-1.6l1.3-1.7l0.5-1.2l4.3-3.6l1.6-1.8V234l1.4-1.4l2-0.3l1.1-1.1l1-1.5l2.2-2l3.5-4.8l5.9-5.3l0.9-1.7
	l1.6-2.1l5.8-5l0.6-1.2l0.7-0.5l1.3,1.1l1.1-0.3l-0.1-1.1l-0.7-0.9l0.1-1l1-0.9l4.2-1.7l1.2-0.9l1-1.5l2.1-1l1.6-0.4l1.8-1.1
	l1.5-1.5l0.6-1.3l1.2-1.1l3-1.3h2l1.2-0.6l1-0.1h1.6l1.2-0.6l0.7-1l2.9-1.3l1.6-1.2l2.6-0.7l1-1.3l1-2l0.4-1.4l-0.2-1.6l2.1-10.7
	l-0.2-1.5l-1.7-3.9L131,160l-0.7-1.8l-1.4-1.6l-2.1-0.6l-2.5-0.3l-1.4,0.7l-0.9,0.9h-0.7l-0.7-0.7l-1.8-2.6l-0.3,1.7l-0.5,1.6
	l-0.1,4.1l-1.5,4.3v3l-0.4,2.1l-0.6,1.2l-1,1l-0.9,2.9l-0.5,0.5l-1.3-0.4l-2.4,2.4l-1.4,0.4l-0.5,1.3l-1.2,1h-1.3l-1.2,0.2l-1.2,0.6
	l-1.2,1l-1,0.5l-1.1,1.4l-0.6,2l-1.2,1.9l-1.8,1.1l-1.3-1l-0.5-1.5l-0.6,0.2l-0.6,0.4l-1.7-1.3l-1.5,0.5L88,188l-1.2,1.9l-1.6,1.6
	l-1.3-0.7l-1.1-1.4l-1.3-0.6l-1.8,0.6h-1.3l-1.1-0.7l-1.3-0.5l-2.6,0.6l-1.4-0.1l-3.4-1.2l-2.4-0.4l-5.8-2.4l-3.1-0.5l-6-0.3
	l-3.4,0.6l-0.3-0.7l-1-1.6l0.4-1.4l1.1-0.3l1.1-1.5l3.9-4.1l1.4-2.5l0.6-1.8l-0.1-2.1l0.5-2.6l0.7-2.1l1.1-1.3l3.1-1.8l2.7-6
	l1.1-1.4l2.5-1.3l0.3-1.3v-1.9l-0.3-1l-3.5-4.5l-1.4-1.1l-1.6-0.2l-3.6-2.8h-1.2l-1,0.7l-1.2-1.1l-1.3-1.8l-1.8-0.7l-2.4-0.1l-1.9-1
	l-1.4-1.4l-19.1-13.4l-1.8-0.5l-1.9,0.5l-5.2-1.4l-4-2l-4.7-1.2l-1.2-2.2l-0.3-1.8l-0.5-0.6l-7.8-5.3l-2.4-0.9l-1.4-2.1l-2.9-2.1
	l-1.1-1.7L-10.7,97.3z"/>
</svg>
