<?xml version="1.0" encoding="utf-8"?>
<!-- Generator: Adobe Illustrator 19.0.0, SVG Export Plug-In . SVG Version: 6.00 Build 0)  -->
<svg version="1.1" id="Capa_1" xmlns="http://www.w3.org/2000/svg" xmlns:xlink="http://www.w3.org/1999/xlink" x="0px" y="0px"
	 viewBox="0 0 292.5 640" style="enable-background:new 0 0 292.5 640;" xml:space="preserve">
<style type="text/css">
	.st0{fill:#727272;}
	.st1{fill:#FFFFFF;stroke:#FFFFFF;stroke-linecap:round;stroke-linejoin:round;}
	.st2{fill:#FFFFFF;fill-opacity:0.498;}
	.st3{fill:#FFFFFF;fill-opacity:0.502;}
</style>
<g transform="matrix( 1, 0, 0, 1, 0,0) ">
	<g>
		<g id="Layer0_1_FILL">
			<path class="st0" d="M68,636.7l-0.3-0.3v0.6h0.2L68,636.7 M68.5,599.9l0.9-0.1l0.5,1.1l0.4-0.2l-0.9-1.6l-3.6-5l1.5,35.9l5.1,0.2
				l2.1-0.3l5.7-0.2l1,0.3l0.2,0.2l-8.3,1.1l-5.7-0.5l0.3,5.1l1.6,1.3l0.3,0.1l13.3-0.4l2.8,0.4l6.1,2.7h0.3l1.8-1.5L95,638l1.7-0.1
				l1-0.4l0.2-0.7l0.7-0.5l1.2-0.1l1,0.3l0.4,0.9l0.7,0.2l1.1-0.5l0.9-0.9l1,0.6l0.6-0.5l1.3-2.4l0.1-1.6l-0.1-1.2l-0.4-0.1h-1.2
				l-2.9,0.6l-1.5,0.1l-2.1-0.7l-6.8-3.6l-2.7-2.9l-5.1-3.2l-1.5-0.7l-1.3-1l-8-9.2l-1-1.7l-1.2-3l-0.7-0.3l-1,0.2l-1.7-0.4
				l-1.1-1.5l0.2-1.4L68.5,599.9 M172.5,586.4l-0.2,0.3l0.1,0.1h0.1l0.2-0.1v-0.5L172.5,586.4 M172.1,586.9H172v0.2l-0.3,0.1v0.3
				h0.2l0.2-0.1v-0.2h0.1v-0.1h-0.1V586.9 M172.3,585.8l0.1-0.1v-0.3h-0.1l-0.1,0.1l-0.1,0.2h-0.4l-0.1,0.5h-0.2l-0.2,0.2H171v0.1
				l-0.1,0.2h0.2l0.2,0.1v0.3l0.3-0.4v-0.3l0.2-0.2h0.2v-0.4H172.3 M181.5,584h-0.2l-0.2,0.1h-0.2v0.1h0.7l0.4-0.3h0.4l0.2-0.4v-0.3
				l-0.1-0.2v-0.2l0.1-0.2h0.1v-0.2l-0.1-0.1V582l-0.1,0.1v0.3l-0.1,0.1l-0.2,0.1v0.9H182v0.1l-0.1,0.2h-0.4V584 M180.9,582h-0.1
				v0.2h0.1V582 M189.1,576.8v-0.2h-0.2l-0.1,0.2H189.1 M187,577.3v0.2l0.3,0.1h0.1v-0.4l-0.1,0.1l-0.2-0.1L187,577.3 M184.5,578
				v0.1l0.1,0.1l0.1-0.1V578l-0.1-0.2L184.5,578 M172.5,582.7l-0.2-0.1h-0.1l-0.1-0.2l-0.2,0.1v0.2h-0.2v-0.4l-0.1-0.4h-0.2v0.3
				l-0.2,0.5h0.2v0.2h0.3v2.1l0.2-0.1v-0.2l0.1-0.1h0.2l0.1-0.3l0.1-0.2v-0.6l0.1-0.1V582.7 M170.6,579.7v-0.1h-0.2l0.1,0.1H170.6
				 M172.1,580.2v0.3l-0.2,0.2v0.4h0.1v-0.1l0.1-0.2v-0.2l0.1-0.3v-0.1H172.1 M171.1,579.2h-0.2v0.2h0.2V579.2 M172.7,577.8h-0.3
				v0.4h-0.1v0.4h-0.1v0.1h0.5l0.1-0.1h-0.1V577.8 M173.1,577.3h-0.2l0.2,0.3h0.2v-0.3h-0.1l-0.1-0.1V577.3 M173.1,574.7l0.1-0.2
				l0.1-0.1v-0.1l-0.4,0.5L173.1,574.7 M173.7,576.6v-0.5h-0.2v0.2L173.7,576.6 M174.2,574.1v0.2l0.2-0.1v-0.1H174.2 M173.9,574.4
				l-0.2,0.2l-0.2,0.1v0.3h0.3v0.1h0.1v0.1h0.2v-0.4l0.1-0.1v-0.4l-0.1,0.1H173.9 M174.8,573.7v-0.1h0.1v-0.1l-0.1-0.1v0.1h-0.1v0.2
				H174.8 M177.1,569v-0.3L177,569H177.1 M173.3,566.7l-0.1,0.1v0.2h0.3v-0.2l0.2,0.2l0.1-0.2v-0.1H173.3 M172.8,566.4h-0.4
				l-0.1,0.2v0.1l0.2,0.1h0.2l0.1-0.2V566.4 M173.5,566.3v-0.2h-0.7l0.1,0.2H173.5 M173.5,565.9v0.2h0.2L173.5,565.9 M172.2,565.3
				v-0.3H172v0.3h-0.1v0.1h-0.2v0.2h0.4v0.5h0.1v0.2h0.5v-0.2h-0.4v-0.2l0.1-0.1v-0.2h0.1v0.2h0.3v-0.2h-0.1l-0.2-0.2l-0.2-0.1
				H172.2 M170.5,563.2v0.2h0.1l0.2,0.1v0.2h0.2l0.1-0.1v-0.1H171l-0.1-0.1l-0.3-0.2v-0.1L170.5,563.2 M169.1,564.3v0.1H169
				l-0.2,0.1v0.4h0.3v0.2l0.1,0.1v0.1l0.1,0.2h0.9v-0.3h-0.2l-0.1-0.1v-0.2h0.6v-0.1h-0.2l-0.4-0.4v-0.1H169.1 M170.4,562.7v-0.1
				h-0.2v0.1H170.4 M175.8,565v-0.1l-0.2-0.1v0.2H175.8 M174.7,564v0.4l-0.1,0.1l-0.1,0.2l-0.2,0.1l-0.1-0.1v-1l-0.2,0.1h-0.4
				l-0.2-0.1l-0.1,0.1v0.1h-0.3l-0.1-0.1v-0.1h-0.2l-0.1-0.1v0.2h-0.1v-0.3h-0.6v0.1h-0.3v0.1l0.3,0.5l0.7,0.2h0.1l0.2-0.1h0.5
				l0.2,0.4h0.2l0.1,0.2l0.3,0.2l0.1,0.1h1.1l0.1-0.1v-0.1l-0.1-0.1v-0.2h0.3v-0.4l-0.3-0.1V564h-0.2l-0.1,0.2h-0.1L174.7,564
				 M163.6,583.1h-0.1v0.2h0.1V583.1 M157.5,579.4V579l-0.1,0.1L157.5,579.4 M157.6,579.5h0.1l0.2-0.1v-0.2h-0.3V579.5 M155.4,576.5
				v0.1h0.1v-0.1H155.4 M155.4,576.9v-0.3h-0.2v0.3l0.1,0.1L155.4,576.9 M155.6,576.8l-0.1,0.1v0.1l-0.1,0.1l0.1,0.1h0.1V577h0.1
				v-0.2H155.6 M155.4,576.1v-0.2l-0.1,0.1v0.1H155.4 M156.8,574.4h0.2v-0.1h-0.1l-0.1-0.1V574.4 M155.9,574.8l0.1-0.1v-0.2h-0.1
				V574.8 M156.4,574.8h-0.1v0.3h-0.1l-0.1,0.1h-0.1v0.1h0.1v0.1h-0.1v0.3h-0.2l-0.1,0.1v0.1h0.3v-0.1h0.1v0.4h0.2v-0.2h0.1l0.1-0.1
				v-0.2h0.2l0.1,0.1v0.2h-0.1v0.2l-0.6,0.5v0.2l0.1,0.1h0.2v0.1h-0.1v0.3h0.1v-0.2h0.1v-0.1h0.2v0.1h0.1v0.7l0.1,0.1h-0.1v0.2h0.5
				v0.2h0.4l0.2-0.2h0.1v-0.2h0.2V578h0.4v-0.6h0.2v-0.4l-0.2-0.1l0.1-0.2h0.1v-0.1l-0.1-0.2v-0.3h0.1v-0.9l0.3-0.3h-0.1v-0.3h0.1
				v-0.3h-0.1v-0.2h-0.4v0.5l-0.1,0.3h0.1l0.1,0.1v0.4h-0.1v0.2h-0.1v-0.1h-0.1l-0.3,0.3v0.1l-0.1,0.1v0.1h-0.4v0.2h-0.3v0.2h-0.2
				v-0.2l0.2-0.2v-0.2l0.1-0.1h0.2v-0.2l0.3-0.1v-0.1h0.2v-0.1l0.1-0.1v-0.2l-0.1-0.1h-0.4v-0.5h-0.1l-0.1,0.1v0.1h-0.2l-0.2,0.2
				v0.4H157v0.2h-0.1l0.1,0.1v0.3h-0.2v-0.4h-0.1l-0.2,0.1l-0.1-0.1l0.1-0.1v-0.3L156.4,574.8 M155,574.8h-0.3v0.1l-0.2,0.3v-0.1
				l-0.3-0.3h-0.3v0.1l0.2,0.2v0.1h-0.2v0.2l0.6,0.6h0.2v0.2h0.2l0.1-0.2l0.1-0.1h0.1v-0.1h-0.1v-0.1H155l-0.1,0.1l-0.2,0.1h-0.1
				l0.1-0.2v-0.4h0.6v-0.1l-0.3-0.3V574.8 M155,571.6h-0.1v0.1l0.1,0.1h0.1v-0.2l-0.1-0.1V571.6 M154.7,572.2V572h-0.2v0.2h-0.6v0.4
				l0.2,0.2v0.7l0.2,0.1h0.2v-0.3h-0.2v-0.2h0.2v-0.3h0.1l0.1,0.1v-0.1h0.4v-0.2l0.2-0.2v-0.1H155l-0.1-0.1H154.7 M165.9,571.5h-0.2
				v0.1L165.9,571.5 M165.1,571.2l-0.1,0.1v0.1l0.1,0.1l0.2-0.1v-0.2H165.1 M163.9,570.8l0.1,0.1h0.1v0.1h0.2v-0.1l-0.1-0.1H163.9
				 M163.5,569.7h-0.2v0.1h0.1l0.1,0.1v-0.1h0.1L163.5,569.7 M163.7,564.9v0.1l0.1,0.1h0.1l0.1-0.1l-0.2-0.2L163.7,564.9 M165,565.6
				h-0.2v0.5l0.2-0.2V565.6 M164.5,565.4v0.2h0.1v-0.2H164.5 M161.4,570.8h-0.2v1.2l0.2-0.1V570.8 M161.2,570.8v-0.2h-0.1
				L161.2,570.8 M159.8,570v-0.1l-0.1,0.2l0.1,0.1h0.1v0.1h0.6v-0.2l-0.1-0.1H159.8 M159.4,569.6h-0.4v0.2h0.4V569.6 M160.6,568h0.5
				v-0.1h-0.5V568 M161.4,565.6v-0.3l-0.2-0.2H161v-0.1h-0.3v0.1l-0.1,0.1v0.1h0.3l0.1,0.1v0.2h0.1l0.1,0.3L161.4,565.6
				 M164.6,582.4v0.1h0.2L164.6,582.4 M162.6,565.6v-0.2l0.1-0.1h-0.3l-0.1-0.1h-0.4l-0.2-0.1v0.2l0.1,0.1v0.2l0.1,0.2v0.6h-0.1
				l-0.1,0.2l0.1,0.1h0.1v0.1l0.3,0.2v0.1h0.5l0.1,0.2h1.1l0.2,0.1l0.2,0.2v0.4h0.2v0.4h-0.2v-0.1l-0.3-0.3l-0.2,0.1h-0.1l-0.2-0.1
				h-0.1v0.1l-0.1,0.2v0.1l-0.2,0.1l0.1,0.2v0.1h0.1v0.1l-0.1,0.1l0.1,0.2l0.1,0.1h0.3v-0.1h0.2l0.2,0.2h0.4l0.1,0.1h-0.1v0.3
				l0.3,0.2v-0.1l0.2,0.1h0.1l0.2-0.1v-0.1l0.1-0.3h-0.1v-0.2l-0.2-0.1h0.2l0.1,0.1v0.2v0.3h0.4v0.1l-0.2,0.1h-0.2v0.2l0.4,0.3h0.4
				l0.1,0.1l-0.1,0.1h-0.2v0.2h0.5v0.1l0.1,0.1v0.1l0.1,0.1v0.2l0.1,0.1h0.1l0.2,0.2h0.4V572l0.1,0.2v0.6l0.1,0.1h-0.2v-0.1
				l-0.1-0.2l-0.2-0.1h-0.1v-0.1l-0.3-0.1h-0.1v-0.1l-0.2-0.2l-0.2-0.3l-0.1,0.1l-0.2,0.4h-0.2v0.1h-0.2l-0.2-0.1h-0.1l-0.2-0.2
				h-0.3l-0.3,0.3h-0.3l-0.1,0.2H164l-0.3,0.3h-0.4l-0.1-0.2H163l-0.2,0.2h-0.1l-0.2-0.2l-0.5-0.3l-0.1-0.1h-0.1l-0.1-0.2h-0.1v0.5
				l-0.1,0.1v0.3h0.1v0.2h0.1v0.4l0.1,0.1h0.1v0.2h0.1v0.3h0.4v-0.1h0.2v0.6h0.5v-0.1l-0.1-0.2v-0.3h1.2v-0.2l0.1-0.2h0.2l0.1,0.2
				h0.2v-0.5h-0.2l0.2-0.3l0.5-0.2h0.1v0.1l0.2,0.1h0.2l0.4-0.2h0.2l0.1,0.1h0.2v1l-0.1,0.2l-0.1,0.1v0.1l-0.1,0.1h-0.2v-0.1
				l-0.2,0.1v-0.5h-0.6v0.2h-0.1v0.1l-0.2,0.1v0.1h0.2l0.1,0.2v0.1l-0.1,0.1v0.2l0.1,0.2v0.1h-0.1v-0.2h-0.2v0.1H165v0.6h-0.2
				l-0.3-0.1v0.1h-0.2v-0.1l0.2-0.1v-0.2l0.3-0.1v-0.6h-0.3v0.3h-0.3v-0.2l0.1-0.1h0.2v-0.3h0.3v-0.2l-0.2-0.1h-0.1l-0.2,0.2v0.1
				h-0.1l-0.1-0.1v-0.1l-0.1,0.1v0.1h-0.3v1.1l0.1,0.2h0.1l-0.3,0.3v0.2l0.1,0.2v0.1h-0.2l-0.1,0.2v0.3l0.1,0.1l-0.1,0.1h-0.1
				l-0.2,0.2v0.1h-0.3v-0.1h-0.1l-0.1-0.2h-0.3l-0.3-0.1h-0.1v0.1h-0.1v0.2l0.1,0.1h0.1v-0.1h0.1l0.2,0.1l0.3,0.3h0.1l0.1-0.2h0.9
				l0.1-0.1l0.2-0.1h0.2v-0.2h0.2v0.3h-0.1L164,578l-0.3,0.2h-0.1v0.2h-0.3l-0.1,0.2l-0.1-0.2h-0.4v0.3h0.1l0.1,0.2v0.1h0.2v0.1
				h-0.3V579l-0.1-0.1h-0.2v0.4h-0.4v-0.2h0.2v-0.2l0.1-0.2v-0.3h-0.4v0.2h-0.1l-0.2-0.2v-0.2h-0.1v1.4l-0.2,0.1l-0.1-0.1v-0.2
				l0.1-0.2v-0.7l-0.1-0.2v0.5l-0.1,0.2l-0.1,0.1h-0.3v-0.3h0.1v-0.5h-0.2v-0.1h-0.1l-0.1,0.1h-0.4l-0.1-0.1h-0.3l-0.1,0.1l0.1,0.2
				v0.5h0.3v-0.2h0.2v0.3h0.4v0.1h-0.1v0.2l-0.3,0.2h-0.1v0.1h-0.9v-0.2l0.2-0.1h0.1v-0.2h0.1V579h-0.1v-0.1h-0.3v-0.2l0.2-0.1v-0.4
				h-0.4v0.2h-0.1l-0.1,0.2v0.1h-0.2v0.2l0.2,0.1h0.3v1h0.1l-0.1,0.2h0.5l-0.1,0.1l-0.3,0.2h-0.2v0.1h-0.1v0.1l-0.1,0.1v-0.3
				l0.1-0.2h0.1V580h-0.1l-0.1-0.2h-0.3l-0.1,0.2h-0.3l-0.2-0.3h-0.1v-0.1l-0.1-0.1v-0.3H157V579h-0.3l-0.2,0.1v0.3l0.2-0.1h0.1
				l0.1,0.1v0.2h-0.1v0.9h0.5v-0.3H157V580h0.3v0.2h0.1v0.1l0.1,0.2v0.3h0.4v0.1l0.1,0.1H158v0.1h0.1l0.1,0.2h0.1l0.2,0.1h0.3
				l0.1,0.2v0.4h0.3l0.1-0.1v0.9h0.3v-0.2h0.9v-0.2h-0.3l-0.2-0.1l-0.1-0.2V582l-0.1-0.2h-0.4v-0.7l0.2,0.1l0.1,0.1h0.1v-0.1h0.1
				v0.1l0.3,0.1v0.1h0.4v0.2h0.2v0.1h-0.3l-0.1,0.1h-0.1v0.2h0.2v0.2l0.3,0.1l0.1-0.1h0.2v0.1h-0.1l-0.1,0.1v0.1l0.1,0.2h0.1v-0.2
				l0.2-0.1v0.7h-0.5v0.2h0.1v0.4l0.4,0.2h0.2l0.1-0.1h0.1V584l-0.1-0.1h0.1v0.1h0.1l0.3-0.1v-0.2h0.3l0.1-0.1h0.1v-0.2h0.2v-0.2
				l-0.2-0.2h-0.1v-0.2h0.4v-0.1h0.1v-0.1l-0.1-0.1H163l-0.2-0.1v-0.1l-0.2-0.1v-0.1h-0.1l-0.1,0.1v-0.5l0.1-0.1h0.1v0.3l0.2,0.1
				v0.1l0.3,0.2l0.2,0.1v0.4h0.1v-0.1h0.1v-0.1h0.3l-0.2-0.3l0.1-0.1h0.2l0.1,0.1v0.3h0.5l-0.3-0.3v-0.3l-0.2-0.1h-0.3l-0.1-0.2
				l-0.2-0.2h-0.2v-0.2h0.2l0.1,0.1h0.2l0.4,0.3h0.1v-0.3h0.5v0.1h-0.2l-0.1,0.1v0.6l0.1,0.1h0.2l0.2-0.1h0.3v-0.1l0.1-0.1v-0.4
				l0.4-0.5v-0.5l0.2-0.1v-0.7l-0.2,0.2l-0.2,0.3v-0.4l-0.2-0.2v-0.2l-0.1-0.1l-0.2-0.1l-0.1-0.2h-0.2v-1h-0.2l0.2-0.2v0.2l0.3,0.2
				v0.2l0.2,0.4l0.1,0.1v0.3h0.2v-0.1l0.2-0.2h0.2v-0.1l0.2,0.1h0.2l-0.2,0.2v0.2l0.3-0.2h0.3l0.1,0.2h0.2V579h0.6v-0.4l-0.1-0.2
				v-0.2h1v0.7l0.2,0.1h0.1l0.6-0.6h0.1v0.2l0.1-0.2l0.3-0.2h0.3l0.2-0.2v-0.2h-0.2v-0.4l0.2-0.1v-0.1l0.2-0.5h0.1l0.5-1.1l0.2-0.1
				v-0.3l0.1-0.2l0.1,0.2l0.1,0.1l0.1-0.1l0.2-0.3l0.3-0.6h0.2l0.4-0.4h-0.3l0.1-0.2v-0.1h0.2l0.2-0.2V573l0.4-0.3l0.1-0.4V572
				l-0.1,0.2l-0.2,0.1h-0.1v-0.1l0.1-0.2l0.2-0.1l0.1-0.2v-0.1h0.2l0.2-0.6l0.3-0.3v0.3l-0.2,0.4l-0.1,0.3v0.2l0.1-0.1l0.2-0.5h0.3
				l0.1-0.3v-0.1l0.2-0.1v-0.5l0.3-0.3v0.1l-0.1,0.5v0.3l-0.2,0.1v0.1h0.2l0.2-0.1v-0.1l0.2-0.2h0.2v-0.7h0.1l0.2-0.3l0.2-0.1
				l-0.2-0.2l-0.2,0.3v-0.3l-0.1,0.2v-0.3l0.1-0.1l-0.1-0.3h-0.2v0.3h-0.4l-0.2,0.1h-0.2l0.2-0.1v-0.1l0.2-0.2h0.2l0.2-0.1h0.5v-0.3
				h0.2l0.1,0.2v0.1l0.2-0.1l0.1-0.2l0.1-0.1l0.3-0.1v-0.1h0.3l0.4-0.5l-0.2-0.2l-0.4,0.5h-0.2l-0.1,0.2h-0.1v-0.2h0.1v-0.3h-0.1
				v-0.2h0.4v-0.1l0.2-0.2h0.1l0.1-0.1h0.3v-0.3h-0.5v-0.3h-0.9l-0.2-0.2v-0.1H177l-0.2-0.2h-0.2l-0.1-0.2v-0.2h-0.2v0.7H176
				l-0.2-0.3v0.5l-0.2,0.2v0.1h-0.2v0.2h0.2l0.2,0.1h0.1v0.1h0.3v0.2h0.2v0.1h-0.2v0.2h-0.4v0.3h-0.2v-0.2h-0.5l-0.1,0.2h-0.3v0.3
				l-0.4-0.3h-0.3l0.3-0.3h0.4l0.1-0.2h0.2v-0.3h0.3v-0.1h-0.2v-0.3h0.2v-0.1H175v0.1h-0.1l-0.2,0.3l-0.1,0.1l-0.3,0.2l-0.1,0.1
				h-0.2l-0.1,0.2h-0.5l-0.2,0.1h-0.7v0.2h-0.6l-0.1,0.2l-0.4-0.5h0.5v-0.2h0.6v-0.3h-0.2v-0.1h-0.2v0.1h-0.3l-0.2-0.1v0.1h-0.4
				l-0.1-0.1h-0.2v0.1h-0.1v0.2h-0.1v-0.3l0.1-0.1h0.1v-0.2h0.2l-0.2-0.1h-0.4v0.1h-0.2l-0.1-0.1h-0.1v0.1h-0.2v0.2l-0.2,0.1v0.1
				h-0.1l-0.1-0.1v-0.6h-0.3l-0.2,0.2l0.2,0.1v0.2h-0.2l-0.1-0.2v0.6H168l-0.1,0.1v0.2h0.1l0.2,0.1h0.2l0.1,0.2h0.4l0.1,0.2h0.1v0.1
				h-0.4v0.1h-0.5v0.1h-0.3v0.3h-0.1l-0.1-0.1v0.1h-0.1l-0.2-0.1v-0.2l-0.1-0.1h-0.2l-0.2,0.3h-0.2v-0.2h-0.5v-0.1h-0.2V568
				l-0.4-0.1h-0.1v-0.2l-0.3-0.3h-0.2v-0.5l-0.3-0.1h-0.2l-0.1-0.1l-0.1-0.2l-0.3-0.3h-0.4l-0.1-0.2h-0.1l-0.3-0.3H162.6 M165.5,564
				h0.2v0.2l0.2,0.1v0.1l0.2,0.1h0.2l0.3,0.3l0.2,0.1l0.1,0.4l0.1,0.2h0.6v0.5h-0.6v-0.3l-0.1-0.2l-0.5-0.5l-0.1,0.1l0.1,0.1v0.3
				h-0.5l0.2,0.2l-0.2,0.1v0.2h0.2l-0.2,0.2l-0.2-0.2v0.3h0.2l0.2,0.2h0.2l0.1,0.1l0.1-0.1h0.2l0.1-0.2h0.4l0.1,0.2h0.3l0.1,0.1
				l0.1-0.1l0.1-0.2v-0.1l0.2-0.2v-0.3l0.2-0.2h0.1v-0.3h0.2V565l-0.2,0.1V565h-0.1l-0.2,0.1V565l0.2-0.1v-0.1l-0.2-0.1l-0.2-0.4
				h-0.2l-0.1,0.1l-0.3,0.1h-0.3l-0.1-0.1h-0.1l-0.1-0.1h-0.2l-0.2-0.1V564l-0.4-0.2v-0.1h-0.4V564 M162.8,563.8v-0.3l-0.3-0.3h-0.1
				v0.7l0.1,0.1h0.2l0.1,0.2l0.2,0.1h0.1v0.1l0.1,0.1v-0.1l0.1-0.1h-0.1v-0.4H163L162.8,563.8 M173.2,578.4v-0.2h-0.1v0.2H173.2
				 M190.3,574.8h-0.2l-0.1,0.1h-0.1l0.2,0.3l0.1-0.1h0.3v0.1h0.2v-0.1h0.2v-0.2h-0.4L190.3,574.8 M194.8,569l-0.1-0.1l-0.5-0.3v0.4
				l0.2,0.1l0.1,0.1h0.5v-0.1L194.8,569 M193.4,566.4l-0.4-0.1l-0.2-0.2h-0.2v0.2l-0.2,0.1v0.3H192l-0.2-0.3h-2.1l-0.2,0.3h-0.3v0.3
				l-0.2,0.1l-0.3,0.9l-0.5,0.5l0.1,0.1v0.3l0.1,0.1h0.1l0.2,0.1h0.2v-0.3l0.1,0.1v0.1l-0.1,0.1v0.2l0.1,0.2h0.2v-0.4l0.2,0.3v0.1
				h0.1v0.1l0.2-0.1h0.2v0.2h-0.2v0.1h-0.2v0.9h0.4l0.1,0.1v0.1h-0.3l-0.2-0.2h-0.1l-0.1,0.1l0.1,0.1l0.1,0.3l0.2,0.2v0.3l-0.2-0.1
				v-0.1l-0.1,0.3h-0.2v-1h-0.2l0.2-0.1v-0.2l0.1-0.2v-0.2l-0.1-0.1V570h-0.3v-0.1l-0.1-0.1l-0.2,0.2v0.1l-0.2,0.1H188v-0.6
				l-0.2-0.1l-0.2,0.1v0.4l-0.3,0.1v-0.5l0.1-0.1v-0.5h0.2v-0.3h-0.3v-0.1l-0.2,0.1H187l-0.2-0.3l-0.2,0.3l-0.2,0.1v-0.1h-0.1v-0.3
				h-0.1v-0.1h0.2v-0.2l0.1-0.2l-0.1-0.2v-0.1h-0.1l-0.2,0.1l-0.2,0.4l-0.2,0.1v-0.3h0.2l0.1-0.2l0.2-0.1v-0.5l0.3-0.4h0.3v0.2
				l-0.3,0.1l0.1,0.1v0.3l0.2,0.2l0.2,0.1v0.4h0.4l0.2-0.2h0.4l0.1-0.2v0.4l0.3-0.5h0.1v-0.3l-0.1-0.2v-0.1h-0.1v-0.6l-0.2-0.5H188
				v-0.3h-0.4l-0.2-0.2l-0.1-0.2l-0.3-0.1l-0.2,0.1v0.1l-0.4-0.1h-0.5l-0.2,0.1H185v0.1l0.1,0.2v0.3H185v-0.3h-0.9v-0.1l-0.1-0.1
				l-0.2-0.1l-0.1,0.1v0.2h0.2v0.1h-0.2l-0.4-0.5h-0.2l-0.5-0.5h-0.3L182,564l-0.2-0.1v-0.1l-0.2-0.1v-0.1h-0.1l-0.1-0.1h-0.1v0.5
				l0.3,0.7v0.2l0.4,0.3v0.3h0.2v0.7h-0.6v-0.2h-0.1v0.2h-0.6v0.7l0.4,0.1v0.2h-0.4l-0.1-0.2h-0.9v-0.3h-0.2l-0.1,0.5h-0.2L179,568
				v0.1l0.1,0.1h0.2v-0.1h0.3l0.4,0.3l0.1,0.1h0.2l0.4,0.1v0.2l0.2,0.1h0.4l0.1,0.2h0.2l-0.2,0.2h-0.1l-0.2-0.2v-0.1l-0.2-0.1h-1
				v0.4h0.1v0.3l0.1,0.1v0.1l-0.1,0.1v0.2l0.1,0.1v0.1l0.4,0.2v0.1h-0.5v-0.3l-0.1-0.1v0.1H180V570l-0.1-0.3l-0.3-0.6v-0.3l-0.2-0.1
				v0.6l-0.2,0.2v0.5l-0.1,0.1l-0.1,0.2l-0.2,0.2v0.3h0.2l0.1,0.2h0.5l0.1,0.3l0.2,0.1v0.1l0.2,0.2l0.1,0.2h0.2l0.3,0.2h-0.5
				l0.1,0.1h0.2v0.1h-0.3v0.1l0.1,0.3v0.1h0.1v0.4h0.3v0.5l0.1,0.7h0.2v0.1h-0.2l-0.1,0.1v0.4h-0.2l-0.1,0.1h-0.1v0.3h-0.1v-0.6
				l-0.1-0.2v-0.2l0.1-0.2v-0.3h-0.1v-1.3h-0.4l-0.1,0.2l-0.4,0.1l-0.1,0.2h-0.1v0.2l-0.2,0.1v-0.1l-0.1-0.2l-0.2,0.1v0.4l-0.1,0.2
				h-0.1v-0.6l-0.2,0.1l-0.1,0.1l-0.1,0.2v0.3h-0.1v-0.1h-0.1l-0.2,0.3h-0.2v0.2h0.2l0.2,0.1v0.1l-0.1,0.2h-0.3v0.1h-0.3v-0.1
				l0.2-0.2l-0.2-0.1l-0.2,0.1v0.4l-0.1,0.1v0.1l-0.2,0.2v0.2H176v-0.2h0.2v-0.3h-0.4v0.5h-0.2v-0.2h-0.2v0.1h-0.3l-0.1,0.1v0.1h0.3
				v0.9h0.1v0.2h-0.1l-0.2-0.3h-0.2v-0.2h-0.3v0.6h0.1v0.1h0.3l0.1,0.3v0.4H175v0.1h-0.2l-0.1-0.1v-0.4h-0.5l-0.2-0.3v-0.2h-0.2v0.5
				l-0.2,0.1v0.4h0.2l0.1,0.2h0.1l0.2-0.2l0.3,0.4h-0.5v0.1h-0.2v-0.1l-0.2-0.2h-0.3l0.3,0.6h0.3v0.1h-0.3V579h-0.2v0.1h-0.2v0.2
				l0.1,0.1h0.1l0.2,0.1v0.6h0.3v0.1l0.1,0.2v0.1h0.2v0.2h-0.3l-0.1-0.1l-0.2,0.1v0.2h-0.2v-0.3l-0.1,0.1v0.1l-0.1,0.1v0.1l0.2,0.1
				v0.4h-0.4v-0.2l-0.1,0.2v-0.5h-0.5v0.3h0.1v0.2h-0.1l-0.1,0.1v0.2l0.1,0.1h0.1l0.1,0.2v0.1l0.3,0.1v0.1h0.3v0.2h-0.2l0.2,0.2h0.1
				v0.5h0.3v-0.1h0.2v0.3l-0.2,0.1v0.6h0.2l0.1-0.1v0.1h0.4v-0.1l0.2,0.1h0.2l0.1,0.1l0.3,0.6h0.2v0.1l-0.3,0.2v0.3h0.3v-0.2
				l0.3-0.1l0.3,0.3v0.2h-0.1l0.2,0.2h0.2l0.2,0.1v0.2h0.1v-0.2l0.2-0.1h0.3v-0.2h-0.5V586h-0.3v-0.3h0.2v-0.2l0.1-0.1V585h-0.1
				l-0.2,0.1v0.1h-0.4l0.2-0.2h0.2v-0.1l0.2-0.1l0.1-0.2v-0.4h-0.1v-0.1h-0.2V584l0.2-0.1h0.3v-0.3h-0.3l-0.2,0.3L176,584v0.1h-0.2
				v-0.2h-0.2v-0.2l0.2-0.1v-0.2h-0.2v-0.2h0.6v-0.2h-0.4v-0.2h-0.5v-0.1l0.1-0.1l0.2,0.1l0.2-0.1v-0.1l-0.2-0.1h0.2l0.1,0.2
				l0.3,0.1v-0.1l-0.2-0.2v-0.3h-0.1v-0.1h0.1l0.2,0.1v0.2h0.2v-0.2l0.1-0.1v0.6h0.5v-0.1h0.2v0.1h-0.2v0.4h0.2v-0.2h0.2v0.2h0.2
				v0.4l0.1,0.5l0.3,0.1h0.2v-0.4h0.3v0.3h0.4l0.2,0.2h0.3l0.4,0.2v0.2l0.1,0.1h0.1v-0.4l-0.1-0.1v-0.6h-0.1v-0.1h-0.5v-0.2h0.1
				v-0.2h0.3v-0.2l0.1-0.1h0.1v-0.4h-0.5v0.2l-0.1,0.1v-0.3h-0.2v0.1l-0.2,0.1v0.1l-0.1,0.1l-0.1-0.1h-0.2v-0.3h0.4v-0.2l0.2-0.2
				h0.2l0.1-0.2v-0.2h-0.1v0.1h-0.2v-0.2h-0.2v0.1H179l-0.1-0.1h-0.2l0.2-0.1l0.1-0.1h0.1v-0.1h0.4v-0.1l-0.4-0.2v-0.3h-0.2
				l-0.2,0.1l-0.3,0.2v-0.2h-0.1v-0.1h0.1V580h0.2v-0.3h-0.2v-0.1h-0.6l-0.2,0.1h-0.1v-0.1l-0.3-0.1h0.3l0.1-0.1l0.1-0.2h0.5v0.2
				h0.2v0.1h0.3l0.2-0.3l-0.2-0.1v-0.3l-0.1-0.1h0.1v0.1h0.4v0.4l0.2,0.2v0.3h0.2v0.1l0.1-0.1l-0.1-0.1h0.1v0.1l0.2,0.1v0.2h0.3
				l0.1-0.3h0.1v0.1l0.1,0.2h0.2v0.2h-0.2v0.1h0.2v0.5l0.1,0.2v-0.2h0.2v-0.3h0.2v0.6h0.1v0.1l0.1,0.2h0.1v-0.2l-0.1-0.1h0.1V581
				l0.2-0.1h0.2v-0.5h0.4l0.1-0.1h0.1l0.1,0.1l0.1-0.1V580l0.1,0.2h0.7v0.3l-0.1,0.1l0.1,0.1v0.1h0.1l0.1-0.2v-0.1h0.1v0.4l0.1,0.1
				h0.1v0.2l-0.1,0.1v0.3h0.3v0.2h0.1v-0.1l0.1-0.1v-0.2h0.3l-0.2-0.1v-0.1h-0.1v-0.5h-0.1v-0.4h0.1V580h-0.1l-0.1-0.2v-0.1h0.6
				v-0.3H185V579l0.1-0.1v-0.2l-0.1-0.1v-0.2h-0.9v-0.2h-0.4l-0.1,0.2h-0.2v0.2l-0.1-0.2v-0.2H183l-0.2-0.2h-0.3v-0.2h-0.2v-0.1H182
				v-0.3h-0.1v-0.1h0.1v0.1l0.2,0.2v-0.2l0.2,0.2h0.2l0.2,0.2h0.1v0.2h0.2v-0.2h0.1v-0.1l-0.2-0.1l-0.1-0.2h-0.1l-0.1-0.1h-0.2
				l-0.1-0.1l-0.4-0.2v-0.1l-0.5-0.3l-0.1-0.2h-0.6v0.3l-0.2-0.1v-0.2l-0.1-0.2h-0.1l-0.1,0.2h-0.5l-0.1,0.3h-0.2v-0.3h0.2v-0.3h0.5
				v0.1h0.2l0.2-0.1h0.3l0.2,0.1v-0.3l0.2-0.3v-0.5h0.2v0.3h-0.1v0.1l0.1,0.1v0.5l0.1,0.1h0.6l0.2,0.2l0.1,0.2l0.1,0.1h0.2v0.2h0.3
				l0.2,0.2h0.2v-0.2h0.1l0.2,0.1h0.2v-0.3h0.1l0.2,0.2h0.5l-0.4,0.2v0.2h0.1l0.1-0.1l0.2,0.1h0.3l0.1-0.1h0.1l0.2-0.1h0.2l0.1-0.1
				l-0.1-0.1v-0.2h-0.1v-0.1h-0.1l-0.2-0.2v-0.2h0.2v-0.1l-0.2-0.1v-0.3l0.2,0.3v0.1l0.1,0.1v0.2l0.1,0.2l0.1,0.1l0.3,0.4h0.1
				l0.2-0.1v0.3h0.2l0.1-0.1l0.3-0.2v0.1h0.2l0.1,0.1l0.1-0.1h0.2l0.1-0.2h0.4v-0.2h0.2v-0.5h0.6v0.5l0.2-0.1v-0.5l0.2-0.1l0.1-0.1
				h0.2v-0.3h-0.7v-0.1l0.4-0.4l-0.2-0.1h-0.2v-0.4h-0.2v-0.1h0.2v0.1h0.6l0.1-0.1v-0.1h0.3v0.1l0.2,0.1v0.1h0.3v0.6l0.2-0.3v-0.3
				h0.2l0.1-0.1v-0.1l-0.2-0.1h0.4v0.2h0.7v-0.1h0.7l0.1-0.1h-0.9v-0.2l0.3-0.2h0.5l0.2-0.1h0.3l0.3,0.1l0.2-0.5l0.2-0.2v-0.3
				l-0.3,0.2h-0.4v0.1h0.2l0.2,0.1v0.1h-0.4l-0.1-0.1l-0.2-0.1h0.1v-0.1l-0.1-0.2h-0.2l-0.2-0.2v-0.1h0.1l0.1,0.1l0.2,0.1h0.7v-0.2
				h0.4l0.2-0.1v-0.5h-0.2l-0.1-0.1h-0.2l-0.1-0.2h-1l-0.1-0.3h-0.4l-0.1-0.1h-0.2v0.1h-0.7v-0.2l-0.4-0.3h-0.1v-0.1l-0.2-0.1h-0.1
				l-0.4-0.3v-0.2h0.5v-0.5l0.5,0.4h0.2v-0.4l-0.2-0.1V569h0.2v0.1h0.3l0.1,0.1h0.3v0.5l0.3,0.1l0.3-0.1h0.4l0.1,0.1h0.2l0.3,0.1
				h0.4l0.1-0.1v-0.2l-0.1-0.2h-0.3v-0.2h-0.4l-0.2-0.1l-0.1-0.1l0.2-0.4h0.3l-0.2-0.3v-1.1h-0.2l-0.1-0.1v-0.2h-0.2V566.4
				 M182,569.2v0.2l-0.1-0.2H182 M185.8,565.3v0.3h-0.2v-0.3H185.8 M189.3,575.3l-0.2,0.1h-0.2l-0.1,0.3v0.1h-0.4l-0.1-0.1l0.2-0.2
				l0.2-0.1h0.1l0.1-0.1H189.3 M148.3,20.3l-0.9-1.3l-3.2-6.3l-2.8-1.4l-3.6-3.6l-2.2-1.6l-0.7-1.4l-0.4-1.4l-1-0.1l-12.8,0.1
				L119,3.5l-0.7,0.5h-0.9l-2-1l-1,0.6l-2,3.3l-1.8,4.6l-2,3.5l-1,4.9l-0.4-1.3l-1.3-2.5v-1.8l-0.6-1.3l-1-0.9l-0.6-1.5l-0.1-1.8
				l-1-1.3l-1.3-0.6l-1,0.2l-5.3-2L82.4,6l-1.7-0.5l-2.4-2.7L77,2.6l-0.9-0.4l-0.6-1.4l-1.3-0.5L72.7,0l-0.6,1.1l-0.5,3.7l-0.9,1.4
				l-7,2.4l-0.5,1.7l0.1,2.2l-1.4,1.2l-2,0.9l-1,1.1v1.3l-0.7,1l-1.4,1.1l-0.6,1.2l0.2,1.2l3.1,3.1l-4.6,19.5l-8.6,4.8l-3.5,1.4
				l-3.9,2.2l-2.5,2.1l-1.2,2.7l-1,1.2l-0.5,2l0.6,1.6l1.2,0.7l0.9,1.3l1.1,2.4l-2,1.1l-0.9,2.1L34,72.4l0.3,2l0.4,1.2l0.5,2.4
				l0.9,1.6l2,4.9l-0.2,2l-1.5,1.7l-1.1,1.8l0.2,2.5l0.4,2l4.2,5.7l0.4,1.7l-0.1,1.6l-3.1,0.5l-0.6,0.7l-0.3,1l-0.9,0.3l-1.2-0.6
				l-0.6-0.6l-1.2,0.6l-1.5,1.3l0.2,1.9l-0.4,1.6l-1.2,1.4l-2,6l-0.2,2.6l-0.3,1.6l-1.3,1.1l-1.1,1.6l-0.3,1.2v0.1l-3.9,4.4l-1,1.5
				l-0.1,1.6l-0.9,2.5l-0.1,3.5l-0.5,1.2l-0.2,1.3l0.4,1.3v1.3l-2.6,2.4l-1.2,1.4l1.1,3.6l0.6,1.1l0.3,2.6l0.6,1.2l0.2,1.5l-0.1,3.6
				l0.5,1.6l1,0.7l0.4,1.1l-1.4,3.4l-0.5,0.7l-0.7,0.1l-2-0.6l-0.7,0.3l0.4,1v1.1l-2.1,7.6l0.3,1.8l0.6,0.7l0.5,0.3l-0.2,0.4h-0.7
				L12,182v1.1l-0.5,0.6l-1.4-0.2l-0.9,0.9l-0.3,5.9l0.2,2.8l1.2,0.9l0.7,1.5v1.8l1.4,0.9l2.1,0.1l0.4,0.7v1.4l-1.6,1.1l0.3,1.7
				l0.6,1.7l1.8,2.6l1.3,2.5l0.4,4.1l0.9,1.4l1.2,0.4l0.5,0.7l-0.4,1.2l-0.7,1.2l-0.1,1.8l0.5,2.1l1.2,1.2l2.1-1l1.2,0.6l0.4,1.6
				l-0.9,4.1l-0.2,4.6l0.7,3.3l-0.1,1.4l0.2,1.2l0.7,2.1l-1,1.1l-1.9-0.3l-0.7,0.4l0.1,1.6l-0.4,1.4l-1.9,3.1v1.5l-1,2l0.2,0.9
				l-0.6,2.8l0.4,2.2l-0.4,1.8l-2.9,1.4l0.1,1.1l1.2,0.4h1.1l0.1,0.7l-0.3,1.1l0.3,1.2l0.6,1l0.2,2.7l0.7,1.9l-0.5,2.5l0.7,3.1
				l-1.2,1.5h-1.7l-0.6,0.6l-0.7,1.3l-0.4,1.4l-0.2,1.5l-0.7,0.5h-1.3l-0.6,0.5l-0.3,0.7l-0.7,0.5l-0.6,0.2l-0.2,3.1l-0.5,0.9
				l-0.7,0.5L8.3,295l0.5,1.5l0.7,1.3l-0.2,1.4l-0.9,1.6v1.3l1.1,1l0.7,1.3l-0.6,3.3l0.3,2.2l2.8,6l0.6,5.2l0.9,1.6l1.1,1.4l0.5,1.2
				l-0.2,1.3l-1.7,1.7l-4,2.5l-1.5,1.5l0.3,6.7l-1.2,6.7l-0.9-0.1L5.6,345l-0.4,0.5l0.4,1.9l0.7,1.8l0.6,1v3.3l-0.5,1.1l-1.2,0.1
				l-0.4,0.7v1.8l0.4,1h1.3l0.9,0.3L7.1,360l-0.6,1l-0.9,0.6l-0.3,1v1.5l-0.3,1.5l-1,1.1l0.1,1.4l1.2,1.8l0.7,1.8l-0.2,5.5l0.7,5
				l-0.1,1.2l-0.2,1l0.3,1.1l1.1,1.7l1.3,3.3l0.3,1.5l-0.1,1.6l-0.9,0.4H6.3L5,394.8l-0.5,1.7l0.4,1.2l0.9,0.9v1.2L5,401l-0.4,1.4
				l0.9,2.7v1.4l-0.2,1.4v2.1l0.7,1.7l1.4,0.6l1.7,0.4l1.5,0.1l0.6,1l-0.5,1.3l-1,1.1l-0.9,1.5l1.1,1.5l1.9,1.2l0.9,1.6l-1.4,2.4
				l0.7,1.5l1.2,1l0.4,0.7l-0.4,1.2l-1.1,1.4l-0.5,1.3l0.4,1.4l-0.1,3l1.5,0.7l6.4-0.4l1,0.3l0.9,0.6l0.5,1.1l-0.6,1.1l-0.7,0.9v2.8
				l-0.9,0.7l-2.2-1l-2.4,1l-2.1-0.4l-1.1,0.5l-2.2,0.5l-0.3,1l0.9,1.2l1.6,0.7l1.4-0.5l2.8,0.4l1,0.9l0.9,1.7l2.5,2.4v1.1l-0.6,1.4
				l-1.2,0.7l-0.2,0.7l0.2,1.4l-1,0.5l-1.4,0.1l-1,0.2l-0.4,1.6v2.2l0.7,1.7l1.6,0.9l0.5,1l-0.4,1.3l-0.7,1.5l-1.2,0.9l-0.5,1.1
				l1.7,1.7l0.2,1.9l1.2,3.3l0.2,1.8l-0.9,2l-2,2.5v1.5l-0.4,2l0.5,1.4l1.1,0.4l0.5,0.5l-0.7,1.2l-1,0.2l-0.5,0.5l-0.5,2.5l-1.1,0.6
				h-1.4l-0.6,1.2l0.1,2.4l-1.4,4.4l-0.3,2l0.1,1.1l0.7,1.1l1.4,1l0.7,1.2l0.4,3l-0.9,1.7l-1,1.2l-2,1.1l0.7,0.9l0.4,1.6l0.1,2.1
				l-0.2,1.8l-1.1,1.8L7.8,525L7,525.1l-0.7,0.4l-1.5,3.3v0.4l0.4,1.5l-0.2,1.3l-3.4,0.4l-0.7,1.3l-0.6,2.4L0,538.3l0.7,1.6l0.7,1.2
				l-0.6,3.3l0.7,2.4v1.4l0.3,1.1l2.1,1.7l0.9,1.2l1.3,5.3l0.6,0.7l0.3,0.9l0.2,1.1l0.7,0.5h0.7l2-2.7l1.1-0.9l0.7,0.4l0.6,0.5
				l1-0.5l0.6-0.9l1-0.3l1.4,0.5l0.5,0.7l-0.5,1.1l0.3,1.1l1.1,0.9L19,562l-0.3,1.5l-1.1,2l0.2,1.6l1.7,1.4l-1.3,6.3l1.9,2.5
				l3.3,1.8l0.6,1.6l0.4,1.7l1.6,0.6l21.7-1.9l1.9,0.5l2.5,1.2l2.6,0.5l2.6-0.1l2.1,0.5l2.7,1.5l3.7,0.9l1.2,0.9l0.3-0.9l-5-7.2
				l-2-4.2l-0.9-1l-1-0.2l-0.9,0.2l-2-0.5l0.2-0.5l2.5-0.2l0.9-1.2l-0.5-2.8l-0.9-2l-1.5-5.3l-1-0.3l-1.9,1.7v-0.7l2.1-1.8l0.7-1.5
				v-4.7l0.4-2.1l1.2-1.9l1.9-2.4l2.1-1.6l1.7-0.7l1-1.1l-0.5-1.1l0.4-0.4l1.4,0.9l1.5-0.4l2.1-1.5l1.8-2l0.7-1.7l0.4-1.7v-2.2
				l0.6-5.9l-0.2-0.5l-0.9,0.2l-0.1-0.2l0.5-1.3l0.6-3.5l1.1-1.5l3.5-3.6l1.5-2.7l1.3-1.5l1.8-0.7l2.9-2.9l1.4-0.6l1.1-1l4.6-5
				l1.2,0.1l0.7-0.3v-1.2l-1-1.1l0.5-0.3l0.9,0.2l0.6-0.4l-0.1-1l-0.7-0.7l-0.6-1.8l0.1-1.1l0.5-1.1l0.9-0.6l0.4-1.3l0.2-5l-0.5-1.7
				l-0.7-1.2l-1.2-1.2l-1.5-0.2l-8-0.3l-1.6-0.6l-9.2-9l-1.5-2.7l-0.9-2.6v-5.5l0.5-1.5l0.7-1.1l0.7-0.5l0.5-0.1l0.4-1v-1.5l0.3-1
				l4.4-6.7l1.4-1.3l1.6-0.3l2.5-0.1l0.3-0.9l0.2-1.4l1.1-0.7l1.7-0.3l1.7-1.3h1.4l1.6,0.5l1.5-0.2l1.2,0.2l0.6,0.6l0.6-0.2l0.4-1
				l0.6-0.7l0.2-0.7l-0.5-0.9l-1.1-0.1l-0.4-0.7v-1.5l0.4-1l1.1-1.2l1.6-1.3l0.7-0.4l0.9-0.6l0.2-1.3l0.3-1l0.7-0.3l0.3-0.7
				l-0.6-0.9l-0.2-0.2l-0.2-0.4l-0.1-1.9l0.3-0.7l0.9-0.6l0.1-0.9l-0.1-1.3l-1.3-1.6l-0.3-1.2l-0.2-1.8l0.2-1.6l0.6-1.3l2.4-2.7
				l0.6-1.2l-0.3-0.7l0.1-1.1l3.3-2.4l4.9-2l1.2-0.7l0.4-1l-0.4-0.2l-0.9,0.2l-7.5-3l-0.5-0.7l-0.1-0.6l0.6-1.2l4.1-3l2.9-0.2
				l1.3,0.3l1.2,0.9l0.6,0.7l0.1,1.2l-0.4,0.7l0.2,0.7l1,1.6l1.4,0.9l1.4-0.5l3.2-0.5l1.1-1.1l1.1-2.1l-0.3-4l0.2-3.1l-1.6-2.4
				l-0.4-1.3l-0.7-0.3l-1.1,0.3l-2.7,1.5l-2.8,0.6l-0.3,0.4l0.1,0.4h1.2l1.3,0.3l0.5,1.1l-0.1,1.5l-0.9,0.6l-0.9,0.1l-0.4-0.3
				l-0.1-0.6l-0.7,0.2l-1.4,0.7h-1.7l-1.1-0.4v-0.9l1.1-1.4l0.1-0.6h-0.7l-1.5-0.2l-2-0.7l-2.1-1.3l-1.8-3.2v-1l0.9-2.4l-0.1-1.3
				l-0.4-0.9l0.5-2.6L101,370l-0.3-4.3l0.3-1.4l0.7-1.2l3.5-2.6l0.6,0.4l0.1,0.6l-0.3,0.6l-0.9,0.6l0.5,0.5l1.8,0.2l4.9,1.3l1.8,1.2
				l4.3,1.6l2.2,1.6h10.2l9.6-4.6l1.9-2.5l0.7-2.5l-0.7-1.7l-2.5-2.7L139,354l0.1-1.4l0.5-0.6l1.1-0.5l0.7-1l-0.2-1.1l-0.3-0.5
				l-0.1-0.7l0.4-1l0.3-1.4l0.7-1l1,0.2l1.1-1.4l1.1-4.2v-1.2l-0.3-1.1l-1.5-1l-1-1.4l-1.4-3.5l0.2-1.5l0.6-1.1l-0.1-1.1l-0.7-1.5
				l0.2-1.2l1.7-0.2l1.7,1.1l1.4,1.9l2,1.1l22.2-1.5l22.8-4.7l12-4.1l6.5-4.1l1-1.8l0.4-1.7l0.9-2.2l1.7-2.1l4.9-5l3-5.2l2-2.1
				l1.4-2.1l0.3-1.7v-8.1l-0.5-1.7h-1l-0.9,0.3l-0.6,0.5l-0.6,0.3l-4.6-4.4l-1.2-2.7l-0.4-3.1l0.4-1.9l4.1-5.6l-0.7-2.6l-1.4-2.4
				l-2.9-3.1l-3.5-2.6l-7.6-4.4l-2.6-3l-0.6-3l-0.9-1.7l-0.5-0.7l2-1.2l0.6-1.8l0.7-0.6l-0.7-2.6l-0.5-7.1l0.9-4.5l0.4-1.1l0.3-1.4
				v-1.8l0.9-0.4l1.4,0.3l1.2-0.6l1-1.7l-1.1-9.2l0.4-1.4l1-1.3l0.7-2.1l-0.5-1l-0.9-0.9l0.9-3.1l-1-2.7l0.7-0.6h1.4l0.7-1l0.7-1.7
				l0.2-1.6l-1.5-2.1l0.4-1l3.1-4.3l0.5-4.8l1.1-1.9l-0.2-2.7l-0.5-1.1l-0.3-1.2l1-1.9l1.8-1.6l1.3-1.7l0.5-1.2l4.3-3.6l1.6-1.8V157
				l1.4-1.4l2-0.3l1.1-1.1l1-1.5l2.2-2l3.5-4.8l5.9-5.3l0.9-1.7l1.6-2.1l5.8-5l0.6-1.2l0.7-0.5l1.3,1.1l1.1-0.3l-0.1-1.1l-0.7-0.9
				l0.1-1l1-0.9l4.2-1.7l1.2-0.9l1-1.5l2.1-1l1.6-0.4l1.8-1.1l1.5-1.5l0.6-1.3l1.2-1.1l3-1.3h2l1.2-0.6l1-0.1h1.6l1.2-0.6l0.7-1
				l2.9-1.3l1.6-1.2l2.6-0.7l1-1.3l1-2l0.4-1.4l-0.2-1.6l2.1-10.7l-0.2-1.5l-1.7-3.9l-0.6-4.3l-0.7-1.8l-1.4-1.6l-2.1-0.6l-2.5-0.3
				l-1.4,0.7l-0.9,0.9h-0.7l-0.7-0.7l-1.8-2.6l-0.3,1.7l-0.5,1.6l-0.1,4.1l-1.5,4.3v3l-0.4,2.1l-0.6,1.2l-1,1l-0.9,2.9l-0.5,0.5
				l-1.3-0.4l-2.4,2.4l-1.4,0.4l-0.5,1.3l-1.2,1h-1.3l-1.2,0.2l-1.2,0.6l-1.2,1l-1,0.5l-1.1,1.4l-0.6,2l-1.2,1.9l-1.8,1.1l-1.3-1
				l-0.5-1.5l-0.6,0.2l-0.6,0.4l-1.7-1.3l-1.5,0.5l-1.4,0.9l-1.2,1.9l-1.6,1.6l-1.3-0.7l-1.1-1.4l-1.3-0.6l-1.8,0.6h-1.3l-1.1-0.7
				l-1.3-0.5l-2.6,0.6l-1.4-0.1l-3.4-1.2l-2.4-0.4l-5.8-2.4l-3.1-0.5l-6-0.3l-3.4,0.6l-0.3-0.7l-1-1.6l0.4-1.4l1.1-0.3l1.1-1.5
				l3.9-4.1l1.4-2.5l0.6-1.8l-0.1-2.1l0.5-2.6l0.7-2.1l1.1-1.3l3.1-1.8l2.7-6l1.1-1.4l2.5-1.3l0.3-1.3v-1.9l-0.3-1l-3.5-4.5
				l-1.4-1.1l-1.6-0.2l-3.6-2.8h-1.2l-1,0.7l-1.2-1.1l-1.3-1.8l-1.8-0.7l-2.4-0.1l-1.9-1l-1.4-1.4l-19.1-13.4l-1.8-0.5l-1.9,0.5
				l-5.2-1.4l-4-2l-4.7-1.2l-1.2-2.2l-0.3-1.8l-0.5-0.6l-7.8-5.3l-2.4-0.9l-1.4-2.1l-2.9-2.1l-1.1-1.7L148.3,20.3z"/>
		</g>
	</g>
</g>
<g id="lineas" transform="matrix( 1, 0, 0, 1, -65.65,-147.05) ">
	<g transform="matrix( 1, 0, 0, 1, 0,0) ">
		<g>
			<path id="lineas_0_Layer1_0_1_STROKES" class="st1" d="M209.9,159.8l-0.2,0.7l-0.1,31l4.4,1l1.3,0.9l1.3,1.4l1.3,0.6l1.1,0.2
				l1.3,0.5l1.8,2.1l3,2.5l2.6,0.7l2.4,1.4l1.2,2.7l0.9,1.1l7.2,5l1.8,0.7l3.7,4.3l1.2,2.6l1.1,1.5l1.4,1.3l3.7,2.9l2.9,3.1l0.7,1.3
				l0.1,1.1l0.3,0.3l2,0.5l1.4,0.7l1.6,3.1l1,0.2l2-1.2l2,1.6l1.2,0.6l8.6,8.1l1,0.3l0.9,0.1 M209.6,191.5v4.8l-18.4,24.4h29.1
				l-0.5,45.2l48.3,0.6l0.5-2.8l-0.2-4.6l0.6-2.1l0.9-1.2l2.7-1.4 M318.4,257.3l-0.5,1.4l-0.2,2.4l1.6,6.8l0.7,2l0.9,1.5l2.1,1.8
				 M219.8,266l-5.8,33.5l-1.9,13.2l3.2,3.3l1,1.8L216,320l-3.6,14.7l-1.4,1.3l-0.6,1.3l0.6,7.3l0.7,1.7l1.1,1.4l0.5,1.3l2.2,2.5
				l0.2,2.6l0.5,1.6l1.1,0.7l0.4,1.3v1.8l-0.9,2.4l-6,7.6l-9.2,18h14.8l1.9-0.2l10.3-11.1l2.6-3.9l1.4-0.5l1.7,0.7l2.8,1.6l1.2-1
				l0.4-2.2l1.1-2.4l0.9-1.2c-1.5-1.8-2.5-3-2.9-3.6l-1.3-1.5l-1-1.6l-1.5-4.7v-3.1l0.7-3.6l0.5-10.5l0.6-1.2l4.5-2.1l3.4-3.2
				l9.3-14.4l0.6-1.8l-0.6-3.5l0.1-0.6l-0.1-1.7l0.5-2.4l0.5-1.5l-0.1-1.8l-0.9-1.3v-1.6l1.1-3.3l0.3-3.9l0.7-2l1.4-1.7l2.4-1.4
				l1.8-2.2l2.4-6l0.5-3l0.3-5.7l0.4-1.3l0.7-0.5l2.7-3.6 M281.2,317.6l-4.4-6.2l-1.9-1.4l-2.8-1.1l-2.4-0.5l-1.9,0.6l-3.9,0.3
				l-1.7,0.9l-2.2,1.5l-1-0.5l-1.8-0.2l-3.9,0.5 M157.7,152.5l-0.5,4.1l-1,1.8l-0.1,0.7l0.6,3.5v4l1.4,2.5l0.9,0.4l1.9,0.1l0.7,0.3
				l0.2,0.9v1.1l-0.5,1.1v1.6l0.5,0.5l0.9,0.4l0.5,0.7l0.3,1.5l0.9,0.9l1,0.6l2.5-0.5h1.1l0.7,0.3l1.4,1.2l0.9,0.4l1.8-1l2.5-0.3
				l0.4,0.9l0.6,12.1l-0.6,2l-1.2,1.8l-0.7,0.5l-1.5,0.4l-1.7,0.7l-2.4,2.1h-1.3l-0.6-1.4l-1.2-0.3l-1.1,0.3l-0.7,1.7h-1l-1.4-0.5
				l-1.3-1l-1.1-0.3h-3.1l-4.3-1.4l-2.2-2.6l-0.5-2.6l-0.5-1.1l-2.9-2l-1.3-1.9l-0.7-6l-1.1-0.9l-3.3-2l-1.5,0.2l-0.7,1.9l0.3,2
				l0.6,1.6l0.3,4.4l-0.3,2.4l-1,2.4l-1.4,1.4l-2.2-0.1l-4.5-3.1l-4-4.3l-2.1-0.6l-1.5,0.3 M191.2,220.7h-9l-1.3-0.1l-2.4-1.3h-1.5
				l-1.4,2.1l-3.4,11.3l0.4,2.2l-0.6,3.6l-2.1,2.8l-1.7,6l-3,5.9l-1.9,1.7l-0.3,2.2l0.1,2l1,2.4l-1.5,2.6l-1.2,1l0.5,1l0.5,2.2
				l0.3,6l-1.3,3.3l1.6,3.1l0.4,6.2l1.9,9.3l8.6-2.6l2.9-0.5l2,0.2l3.3,2.7l2.4,1.1l2.9,0.3l3-0.2l1.6,1.2l1.2,1.3l2.1,0.3l1.5-0.3
				l17.1-0.3 M172.3,232.8l-0.7-0.7l-2-0.4l-2.6,0.7l-2.7,0.4l-4.2-1.2l-1.3-1.5l-4.9-0.6l-2,1l-1.9,2.5l-1.7,0.6L145,233l-1.2,4.2
				l-0.1,1.3l0.6,0.7l3.7,2.2l0.7,1.2v1.4l-2.1,4.8l-2.7,3.3l0.3,1.5l2.4,1.3l0.9,1.8l0.7,3.2l1.4,2.6l3.3,2.8l0.6,1.7l0.6,0.5
				l2.6-3.3l1.2-0.3l3.3,1.3 M145,233l-1.7-1.4h-0.5l-2.6,2.8l-2.1,0.9l-4.4-6.7l-1.3-1.4l-0.7-1.6v-1.6l0.4-1.1l3.9-0.4l0.4-0.7
				l1-2.9l-0.2-1l-0.7-1.3l-0.1-1.3l-0.5-0.5l-2-0.1l-17.3,1l-10.1-0.5l-2.4-0.7l-0.7-1 M93.1,267.3l1.3-1.3l4.5-1.3l3.5-0.2
				l2.1-0.9l0.9,0.2l0.3,1.4l-0.3,1.6l0.4,1.3l0.9,0.4l0.9,0.2l1,1.2l4.1,0.3l2,0.4l0.7,1.6l0.4,1.7l0.5,0.7h1.1l1.3-0.3l17.9-0.5
				l2,1.4l0.6,1.8l0.3,1.7l1.9,2v1.2l-0.5,0.4l0.5,0.9l5.5,3l4.9,4.8l0.5,1.1l-0.1,1.6l0.3,1.6l1.1,1.4l4.8,10.5l3-1l1.5-1l1.6-1.9
				l1.1-2l-0.2-5 M86.3,277.2l7.4,3.1l0.7,0.5l1.4,2.8l3.5,4.9l-0.5,0.9l-1,1v1.1l0.6,4.9l-0.4,3.4l0.4,0.5h0.9l3.6-0.7l1.1,0.2
				l1.1,0.4l3.7,0.4l1.5,0.6l12.3,10.2l0.1,0.7l-0.1,0.4v0.1l1.6,1.4l6,6.2l0.6,1.4l0.1,1.4l-0.1,1.4l0.7,2.7v3.7l0.2,1.9l1.1,1.8
				l3.6,4l-1.6,2.6l3.7-0.2l0.9,0.6l5.3,0.5l1.4-0.4l2.6-1.2l3.6,0.3l1.3-0.3l-1-15.7l5.7-17.5 M84.9,424.5l1,3.1l0.6,1.2l1.4,1.7
				l0.7,2.5l1.2,0.7l1.5,0.3l1,1l3.1,4.2l-0.1,2.7l0.7,1.6l1.1,0.1L98,444l1.6,0.2l1.6-0.2l1.8-0.7l1.6,0.2l1.3,0.5l0.9,1.1l0.4,1.6
				l0.9,0.6h4.9l1.4,0.7l0.7,1.1l1.5,0.7l3,0.4l-2.1-29.9l25.3-1.1l-0.2-3.6l1.2-6.3l-0.1-7.5l-0.7-2.4l-4.3-9.4l-0.5-2.6l0.9-2.5
				l0.2-2l-1.1-2.1l-3.7-4.7l-1.7-3.1l-1.7-13.9l-0.6-2.8l-2.4-6.2l-0.6-2.8l-4.3,1h-2.4l-1.5-0.6l-0.7-1.5l-1.2-0.7l-1.6,0.4
				l-1.5,1l-2.8,1l-1.4,1.6l-2.2,1.4l-2.2,0.5l-1.6-0.5l-0.9-1.2l-0.9-2.8l-3.5-2.1l-2.6,2.1h-1.9l-1.3,0.9l-0.5,1.7l-1.5,1.3
				l-4.6,1.3l-1.3-0.2h-1.5l-2.8,1.1 M135,341.2l-1.3,0.2l-3.4-0.9l-1.7,0.4l-1.4,1.4v1.1l0.4,1.4v1.5l-0.3,1.1 M142.8,419.2
				l23.1-0.4l-0.2-19.7l-1.4-33.7l1.6-2.5v-1.7l2-6.7l0.3-4.3l-0.3-1.9l-1-0.1l-2.7,0.5h-1.5l-0.7-1.9l-0.3-2.4l-1.6-1.6l-2.2-1.3
				l-2.4-0.7l-1.7-0.3 M240.7,367.2l3.2,2.6l2.6,2.8l3.7,2.7l1-0.4l1.4-0.1l1.2,0.7l1.2,0.5l1.4,0.1l1.3,1.5l1.6,0.5l4.2,2.2
				l3.2,2.5l3.1-1.3 M165.7,399.1h26.4l-0.1-11.9h9.8 M119.6,450.3l4,0.1l2,0.4l1.6,1l0.5,1.4l-0.2,1.4l-1.4,0.9l-0.9,1.8l0.5,1.6
				l1.7,0.7l0.4,0.7v1.4l0.7,1.2l1.9,0.3l1.5-0.1l3.2-1.7l1,0.3v1.5l0.4,1.6l6.6,2.8l1.3,1.2v1.4l0.9,1l7.3-0.5l5.1,1.2h1.5l1.2-0.3
				l2.6,1h1.4l1.9-0.3l10.1,0.5l5.9,2.4l3.7,2.5l3.9,1.6l2.6,0.7l-0.4-80.6 M71.6,518.7l4.5,0.5l2.6,1.1H80l1.8-1.5l1.3-1.6l0.2-1.1
				l-0.2-1l-0.6-0.9l-0.3-1l1-1.4l1.4-1.3l1.2-0.7l2.8-0.6l1.7-1.7l2,0.1l2.2-0.9l0.4-0.6l0.4-0.9l0.5-0.5l0.6-1.2l0.1-5.3l1-1.6
				l1.3-1.3l4.6-2l1.5-1.1l2.6-3.2l4.3-2.6l1.5-1.9l2.8-5.5l4.6-2.2l-1.1-26.6 M201.4,513.9l-3.4-4.1l-1.2-1.2l-3.3-1.1h-0.9
				l-0.1-27.8 M74.5,537.4l93.7-5.1 M259.3,385.7h0.1v0.3l1.2,0.4l0.3,0.7l0.2,0.2h0.3v0.3l2,0.9h0.3v0.2l0.7,1.2l0.1,0.1l0.3-0.1
				h0.3v0.2l-0.2,0.2v0.2l0.4,0.6h0.5l1.1,0.7h0.2v-0.3l-0.7-0.6h0.1l1-0.1l0.2,0.3l-0.5,0.1l0.1,0.2h1.1l0.4,0.4h-0.6l0.3,0.2h0.9
				l0.2,0.3h-0.6l0.2,0.3l0.9-0.2l0.1,0.3h-0.5l0.1,0.3h0.7v0.3h-0.6v0.2h0.4l0.2,0.2l-1.3,0.1v0.1l0.2,0.2v0.3l-0.2,0.1l0.2,0.5
				h0.7l0.7-0.2h0.5l0.2,0.2l0.1,0.5l0.3,0.2l0.1,0.9l-0.5,1.4v0.4l-0.3,0.1v0.3h0.7l0.1,0.5h0.2l0.2-0.6h0.3l0.4,0.4l-0.1,0.1H273
				v0.1l0.7,0.6l-0.4,0.1l-0.4-0.4h-0.3v0.1l0.3,0.3l-0.2,0.2l-0.2-0.5h-0.3l-0.3,0.5l0.3,0.4h-0.3l-0.5,0.1l0.1,0.3l-0.1,0.2
				l-0.4,0.2v0.3h-0.6l-0.3,0.2l0.6,0.3v0.3l0.1,0.1l-0.4,0.4l-1.2,0.4v0.4l-0.7,0.6H267l-0.5,0.5l-0.6,0.3l-0.5-0.3h-0.4l-0.2-0.2
				l-0.5,0.1l-0.9-0.3l-1.1,0.2l-0.9,0.4l-2,3H259v0.3l-2.7,3.9l-9-8.7l-0.2-6.4l4.3-10.7l4.8-2.6l0.4-0.3v-0.1h0.1v0.1h0.2v-0.1
				h0.1l0.2,0.6h-0.2l0.2,0.2l0.2-0.2h0.2v0.2l0.2,0.4l0.3-0.3h0.4l0.6,0.6V385.7z M83.5,612.5l53-3"/>
		</g>
	</g>
</g>
<g id="distrito_9" transform="matrix( 0.5560760498046875, 0, 0, 0.5560760498046875, -42.3,-149.6) ">
	<g transform="matrix( 1, 0, 0, 1, 0,0) ">
		<g>
			<g id="clip_00_0_Layer0_0_FILL">
				<path class="st2" d="M265.8,328.7l-2.4-2.1l-1.6-0.6h-1.7l-4.6,1l-1.7-1.2l-1.4-1.4l-0.6-2.9l-1.1-1.2l-1.5-0.7l-0.9-1.1l-0.1-1
					l0.1-1.9l0.9-1.9v-1.8l-0.4-1.6l-1.3-0.7l-3.4-0.1l-1.5-0.6l-2.7-4.4l0.1-7.2l-0.2-2.2l-0.7-2.4l-0.2-1.9l0.2-1.2l1.7-3.3l1-7.2
					l-17.5,0.9l-3.1-1l-4.3-4.9l-2-0.2l-1.7-1l-1.1-2.4l-2.4-1L207,269l-1.4,2l-0.7,6.7l-1.7,2.4l-12.4,4.3l-1,3.2l0.1,3.9l-2.5,2.1
					l-3.6,1.5l-1.7,1.9v2.2l-1.3,1.9l-2.6,1.9l-1.1,2l0.2,2.1l5.6,5.7l-6.3,27.1l2.8-0.5l3.7,1.2l7.3,7.6l8,5.7l3.9,0.1l2.7-2.5
					l1.7-4.2l0.6-4.4l-0.6-7.8l-1.2-2.9l-0.5-3.6l1.4-3.5l2.7-0.4l6,3.7l1.8,1.5l1.4,10.9l2.2,3.4l5.1,3.5l1,1.9l1.1,4.6l1.8,2.5
					l2.2,2.2l7.6,2.5l2.9,0.3l2.7-0.3l2,0.6l2.4,1.7l2.5,1.1l1.7-0.2l1.3-2.9l2-0.7l1.9,0.7l1.4,2.4h2.2l4.3-4l2.9-1.2l2.9-0.7
					l1.2-1l2.1-3.2l1.3-3.7l-1.3-21.7l-0.7-1.6l-4.4,0.6l-1.6,1l-1.7,0.7L265.8,328.7z"/>
			</g>
		</g>
	</g>
</g>
<g id="distrito_16" transform="matrix( 0.5560760498046875, 0, 0, 0.5560760498046875, -52.65,-148.15) ">
	<g transform="matrix( 1, 0, 0, 1, 0,0) ">
		<g>
			<g id="clip_01_0_Layer0_0_FILL">
				<path class="st2" d="M354.1,289.4l-2-1.4l-3-1.2l-6.4-6.6l-4.1-2.8l-1.3-2.6l-0.9-2.5l-1.8-0.2l-23,0.1l-2.8,0.4l-1.4,1h-1.6
					l-3.6-1.7l-1.6,1.2l-3.7,5.9l-3.3,8.4l-3.6,6.2l-1.8,8.8l-0.6-2l-2.2-4.5l-0.1-3.4l-1.2-2.2l-1.6-1.6l-1.2-2.6l-0.2-3.3
					l-1.8-2.4l-2.2-1.1l-1.6,0.4l-9.7-3.7l-5.2,0.3l-1,7.2l-1.7,3.3l-0.2,1.2l0.2,1.9l0.7,2.4l0.2,2.2l-0.1,7.2l2.7,4.4l1.5,0.6
					l3.4,0.1l1.3,0.7l0.4,1.6v1.8l-0.9,1.9l-0.1,1.9l0.1,1l0.9,1.1l1.5,0.7l1.1,1.2l0.6,2.9l1.4,1.4l1.7,1.2l4.6-1h1.7l1.6,0.6
					l2.4,2.1l1.5,0.7l1.7-0.7l1.6-1l4.4-0.6l0.7,1.6l1.3,21.7l-1.3,3.7l-2.1,3.2l-1.2,1l-2.9,0.7l-2.9,1.2l-4.3,4h-2.2l-1.4-2.4
					l-1.9-0.7l-2,0.7l-1.3,2.9l-1.7,0.2l-2.5-1.1l-2.4-1.7l-2-0.6l-2.7,0.3l-2.9-0.3l-7.6-2.5l-2.2-2.2l-1.8-2.5l-1.1-4.6l-1-1.9
					l-5.1-3.5l-2.2-3.4l-1.4-10.9l-1.8-1.5l-6-3.7l-2.7,0.4l-1.4,3.5l0.5,3.6l1.2,2.9l0.6,7.8l-0.6,4.4l-1.7,4.2l-2.7,2.5l-3.9-0.1
					l-8-5.7l-7.3-7.6l-3.7-1.2l-2.8,0.5l-1.8,7.8l-15.6,8.7l-6.1,2.6l-7,4.1l-4.4,4l-2.2,4.7l-1.7,2l-1,3.7l1.2,2.9l2,1.3l1.5,2.2
					l1.9,4.4l1,0.7l0.6,0.7l4,1.4l18.2,1.2l31.2-1.8l3.6,0.2l0.9,0.9l0.2,2.4l1.3,2.4l0.5,1.8l-1.8,5l-0.9,1.3l-4.8,0.4l-2,0.4
					l-0.7,1.9l-0.1,3l1.5,2.7l2.2,2.6l8,12.3l3.9-1.7l3.7-4.3l0.9-0.6h1l2.9,2.6l6,0.9l3-1.1l3.3-4.5l3.7-1.7l9,1.2l2.2,2.8l3.9,1.3
					l3.7,0.5l4.7-0.5l4.6-1.3l3.6,0.5l1.4,1.3l6.1-20.2l2.7-3.7h2.6l4.3,2.2l2.2,0.2h16.1l32.9-44l0.3-64.4L354.1,289.4z"/>
			</g>
		</g>
	</g>
</g>
<g id="distrito_8" transform="matrix( 0.5560760498046875, 0, 0, 0.5560760498046875, -1.15,-143.6) ">
	<g transform="matrix( 1, 0, 0, 1, 0,0) ">
		<g>
			<g id="clip_02_0_Layer0_0_FILL">
				<path class="st2" d="M367.8,360.6l-11.3-7l-23-16.9l-3.3-1l-3.4,1l-9.3-2.7l-7.2-3.5l-8.6-2.2l-1.9-3.9l-0.7-3.3l-0.9-1.2
					l-1.9-1.5l-12.3-8.1l-4.3-1.5l-2.4-4l-5.2-4l-1.8-2.9l-1.3-3.1l-1.7-2.2l-5.8-11.3l-0.3,1.3l-0.2,55.7l8,1.8l2.2,1.4l2.2,2.6
					l2.4,1.3l1.9,0.3l2.4,1l3.3,3.7l5.3,4.4l4.6,1.6l4.3,2.5l2.1,4.6l1.4,2l12.8,9l3.4,1.3l6.5,7.7l2.4,4.7l1.8,2.7l2.4,2.4l7,5.2
					l5.1,5.6l1.2,2.4l0.3,1.8l0.5,0.5l3.9,1.1l2.4,1.3l2.9,5.6l1.7,0.4l3.6-2l3.5,2.8l2.2,1.2l15.4,14.5l1.7,0.6l1.6,0.1l2.6-4.4
					l1.2-3.2l-0.3-3.9l1-4.6l1.5-3.9l1.7-2.4l5.7-3.3l4.9-10.8l1.7-2.5l4.4-2.2l0.7-2.4l-0.1-3.3l-0.4-1.8l-6.4-8.1l-2.5-1.9
					l-2.9-0.3l-6.6-5h-2.1l-1.6,1.3l-2.2-1.8l-2.4-3.2l-3.2-1.6l-4.2-0.1l-3.4-1.6L367.8,360.6z"/>
			</g>
		</g>
	</g>
</g>
<g id="distrito_2" transform="matrix( 0.5560760498046875, 0, 0, 0.5560760498046875, -55.6,-118.55) ">
	<g transform="matrix( 1, 0, 0, 1, 0,0) ">
		<g>
			<g id="clip_03_0_Layer0_0_FILL">
				<path class="st2" d="M239.7,365.5h-1l-0.9,0.6l-3.7,4.3l-3.9,1.7l-8-12.3l-2.2-2.6l-1.5-2.7l0.1-3l0.7-1.9l2-0.4l4.8-0.4
					l0.9-1.3l1.8-5l-0.5-1.8l-1.3-2.4l-0.2-2.4l-0.9-0.9l-3.6-0.2l-31.2,1.8l-18.2-1.2l-4-1.4l-0.6-0.7l-1-0.7l-1.7,0.7l-1.8,1.1
					l-1.5,3.9l-1.1,5.2l0.4,3.6l0.9,2l0.9,4.3l1.6,2.8l3.5,8.9l-0.3,3.7l-2.6,3.1l-2,3.3l0.3,4.3l0.9,3.7l7.6,10.2l0.5,3.2l-0.1,2.8
					l-1,0.3l-4.6,0.5l-1.1,1.4l-0.7,1.8l-1.5,0.5l-2-1.2l-1.2-1l-2.1,0.9l-2.6,2.4l0.3,3.5l-0.9,2.9l-2,2.5l-3.7,10.8l-0.3,4.6
					l2.4-2.2l8-2.4l3.6-0.4h2.8l3.9-1.4l1.5,0.3l0.5,2.5l-0.5,2.9l0.9,2.4l1.4,0.9l1.5,0.3l1.8,2l7.2,0.5l3.7,0.9l1.4,2.9l0.7,3.1
					l1.1,1.4h1.7l2.4-0.6l32.2-1l3.7,2.6l1.1,3.3l0.4,2.9l3.7,3.9l-0.2,1.8l-0.7,1l1,1.5l9.8,5.6l8.8,8.4l0.7,2l-0.1,2.9l0.7,2.8
					l1.7,2.6l8.7,18.8l5.5-1.7l2.8-1.8l2.8-3.4l1.9-3.6l-0.2-9l-2.1-11.7l-1.5-5l-0.6-11.2l-3-5.6l2.2-6l-0.5-10.8l-0.9-4l-1-1.8
					l-6-2.4l-2,0.6l-4.8,6l-1.2-1.1l-1.1-3.1l-2.8-2.6l-3.2-2.2l-2.4-4.7l-1.6-5.8l-1.4-3.1l-4.3-2.6l-0.4-2.6l1.8-2.8l2.8-3.1
					l4.1-8.8l-0.1-2.5l-1.5-2.1l-6.6-4l-1.2-1.4l0.2-2.2l2-7.5L239.7,365.5z"/>
			</g>
		</g>
	</g>
</g>
<g id="distrito_23" transform="matrix( 0.5560760498046875, 0, 0, 0.5560760498046875, -31.95,-111) ">
	<g transform="matrix( 1, 0, 0, 1, 0,0) ">
		<g>
			<g id="clip_04_0_Layer0_0_FILL">
				<path class="st3" d="M249.9,358l-0.6-4.2l-1.4-1.3l-3.6-0.5l-4.6,1.3l-4.7,0.5l-3.7-0.5l-3.9-1.3l-2.2-2.8l-9-1.2l-3.7,1.7
					l-3.3,4.5l-3,1.1l-6-0.9l-2,7.5l-0.2,2.2l1.2,1.4l6.6,4l1.5,2.1l0.1,2.5l-4.1,8.8l-2.8,3.1l-1.8,2.8l0.4,2.6l4.3,2.6l1.4,3.1
					l1.6,5.8l2.4,4.7l3.2,2.2l2.8,2.6l1.1,3.1l1.2,1.1l4.8-6l2-0.6l6,2.4l2.1-1.7l2.5-4.5l-1.5-4.3l-0.2-3.7l0.5-4l1.3-1.5l2.1-1.6
					l5.3-10.6l3.2-10.9l3.7-4.9L249.9,358z"/>
			</g>
		</g>
	</g>
</g>
<g id="distrito_3" transform="matrix( 0.5560760498046875, 0, 0, 0.5560760498046875, -9.75,-128.75) ">
	<g transform="matrix( 1, 0, 0, 1, 0,0) ">
		<g>
			<g id="clip_05_0_Layer0_0_FILL">
				<path class="st2" d="M339.4,356.9l-6.5-7.7l-3.4-1.3l-12.8-9l-1.4-2l-2.1-4.6l-4.3-2.5l-4.6-1.6l-5.3-4.4l-3.3-3.7l-2.4-1
					l-1.9-0.3l-2.4-1.3l-2.2-2.6l-2.2-1.4l-8-1.8l-0.1,8.7l-32.9,44l52.3-0.1l-1,81.3l87,1.4l1.1-5.1l-0.5-8.3l1.1-3.7l1.7-2.2
					l4.8-2.5l-0.5-1.4l-1.8-2.8l0.9-2.5l1.8-0.6l1.9-2.6l7-7.5l-1.6-0.1l-1.7-0.6l-15.4-14.5l-2.2-1.2l-3.5-2.8l-3.6,2l-1.7-0.4
					l-2.9-5.6l-2.4-1.3l-3.9-1.1l-0.5-0.5l-0.3-1.8l-1.2-2.4l-5.1-5.6l-7-5.2l-2.4-2.4l-1.8-2.7L339.4,356.9z"/>
			</g>
		</g>
	</g>
</g>
<g id="distrito_21" transform="matrix( 0.5560760498046875, 0, 0, 0.5560760498046875, -23.7,-115.8) ">
	<g transform="matrix( 1, 0, 0, 1, 0,0) ">
		<g>
			<g id="clip_06_0_Layer0_0_FILL">
				<path class="st2" d="M319.7,421.9l1-81.3l-68.5,0.1l-2.2-0.2l-4.3-2.2h-2.6l-2.7,3.7l-6.1,20.2l0.6,4.2l-1.1,6.5l-3.7,4.9
					l-3.2,10.9l-5.3,10.6l-2.1,1.6l-1.3,1.5l-0.5,4l0.2,3.7l1.5,4.3l-2.5,4.5l-2.1,1.7l1,1.8l0.9,4l0.5,10.8l-2.2,6l3,5.6l0.6,11.2
					l1.5,5l2.1,11.7l15.1-4.6l5.2-1l3.6,0.2l6.1,4.9l4.3,1.8l5.2,0.7l5.2-0.4l2.9,2l2.2,2.5l3.7,0.4l2.8-0.4l30.8-0.6L319.7,421.9z"
					/>
			</g>
		</g>
	</g>
</g>
<g id="distrito_11" transform="matrix( 0.5560760498046875, 0, 0, 0.5560760498046875, -58.8,-95.1) ">
	<g transform="matrix( 1, 0, 0, 1, 0,0) ">
		<g>
			<g id="clip_07_0_Layer0_0_FILL">
				<path class="st2" d="M237,401.6l-3.7-2.6l-32.2,1l-2.4,0.6H197l-1.1-1.4l-0.7-3.1l-1.4-2.9l-3.7-0.9l-7.2-0.5l-1.8-2l-1.5-0.3
					l-1.4-0.9l-0.9-2.4l0.5-2.9l-0.5-2.5l-1.5-0.3l-3.9,1.4h-2.8l-3.6,0.4l-8,2.4l-2.4,2.2l-0.6,2.9l-2.4,1.9l-1.9,3l-0.4,2v0.2
					l-7,7.9l13.3,5.6l1.4,1.1l2.4,4.8l6.4,8.9l-1,1.7l-1.7,1.5l-0.1,2l1.1,5.3l0.3,3.4l-0.9,6.1l0.9,1h1.5l6.4-1.3l2,0.3l1.8,0.9
					l6.8,0.7l2.7,1.3l22,18.2l0.2,1.5l-0.2,1l3,2.5l10.6,11.1l1.2,2.5l0.4,2.5l-0.4,2.6l1.3,4.8v6.6l0.5,3.4l1.9,3.3l6.4,7.3
					l-2.8,4.5l4.8-0.3l1.9,0.1l1.6,1l9.5,1l2.5-0.7l4.7-2.1l6.6,0.5l2.1-0.4l-1.6-28.3l10.1-31.6l-8.7-18.8l-1.7-2.6l-0.7-2.8
					l0.1-2.9l-0.7-2l-8.8-8.4l-9.8-5.6l-1-1.5l0.7-1l0.2-1.8l-3.7-3.9l-0.4-2.9L237,401.6z"/>
			</g>
		</g>
	</g>
</g>
<g id="distrito_5" transform="matrix( 0.5560760498046875, 0, 0, 0.5560760498046875, -27.65,-81.2) ">
	<g transform="matrix( 1, 0, 0, 1, 0,0) ">
		<g>
			<g id="clip_08_0_Layer0_0_FILL">
				<path class="st2" d="M320.4,457.2l0.3-4l-1.7-3.3l-5.7-6.1l3.4-23.5l-30.8,0.6l-2.8,0.4l-3.7-0.4l-2.2-2.5l-2.9-2l-5.2,0.4
					l-5.2-0.7l-4.3-1.8l-6.1-4.9l-3.6-0.2l-5.2,1l-15.1,4.6l0.2,9l-1.9,3.6l-2.8,3.4l-2.8,1.8l-5.5,1.7l-10.1,31.6l1.6,28.3l3.1,0.4
					l4.2,1.3l4.2,2.6l2.9,2.8l0.5,4.2l1.4,3.4h2.8l4.7-0.9l1.6,0.3l0.6,3.3l-0.6,7.8l-3.6,12v3.1l-2.7,4.3l2.4,60.7h47.5l-0.1-21.3
					h17.8l6.7-15.3l9.7-17.1l10.8-13.7l1.5-4.1v-3.3l-0.9-2.5L321,521l-1-2.9l-0.6-4.6l-4.1-4.5l-0.7-2.4l-1.9-2.4l-1.4-3.2l-1.2-13
					l1.2-2.4l2.5-2.2L320.4,457.2z"/>
			</g>
		</g>
	</g>
</g>
<g id="distrito_20" transform="matrix( 0.5560760498046875, 0, 0, 0.5560760498046875, -4.75,-94) ">
	<g transform="matrix( 1, 0, 0, 1, 0,0) ">
		<g>
			<g id="clip_09_0_Layer0_0_FILL">
				<path class="st2" d="M365.2,404.1l0.4-10.2l0.9-2.4l1.4-1l4.8-6.3l-87-1.4l-13.7,83.9l5.7,6.1l1.7,3.3l-0.3,4l-6.6,26.3
					l-2.5,2.2l-1.2,2.4l1.2,13l1.4,3.2l1.9,2.4l0.7,2.4l4.1,4.5l0.6,4.6l1,2.9l1.7,1.3l0.9,2.5v3.3l-1.5,4.1L270,568.8l-9.7,17.1
					l-6.7,15.3h26.5l3.3-0.4l18.6-20.1l4.5-7l2.6-1l3.1,1.3l4.9,3l2-1.6l0.9-4.2l2-4.3l1.4-2c-2.6-3.1-4.3-5.3-5.2-6.5l-2.2-2.7
					l-1.6-2.9l-2.8-8.6v-5.6l1.4-6.5l1.1-18.9l1-2.1l3.7-1.4l4.5-2.4l6-5.8l16.7-26l1.4-3.2l-1.2-6.2l0.2-1.3l-0.3-3l0.9-4.3l1-2.8
					l-0.1-3.2l-1.4-2.5v-2.7l1.7-6l0.7-7.1l1.3-3.5l2.6-3.1l4.2-2.6l3.2-4l4.3-10.9L365.2,404.1z"/>
			</g>
		</g>
	</g>
</g>
<g id="distrito_6" transform="matrix( 0.5560760498046875, 0, 0, 0.5560760498046875, 19.25,-99.6) ">
	<g transform="matrix( 1, 0, 0, 1, 0,0) ">
		<g>
			<g id="clip_10_0_Layer0_0_FILL">
				<path class="st3" d="M421.4,396.5l-2.9-12.1l0.4-4.3l0.9-2.6l-1.2,0.4l-1,0.6l-3-2.2l-2.9,1l-2.4,1.6l-2.1,3.5l-2.9,2.7
					l-2.5-1.3l-1.7-2.5l-2.6-1.1l-3.2,1.1h-2.1l-2-1.4l-2.2-0.9l-4.7,1.2l-2.5-0.2l-6.1-2.1l-4.2-0.9l-10.6-4.2l-5.6-1l-10.7-0.5
					l-6.1,1.1l-4.8,2.5l-1.7,2.2L330,381l0.5,8.3l-1.1,5.1l-4.8,6.3l-1.4,1l-0.9,2.4l-0.4,10.2l-1,5.3l-4.3,10.9l-3.2,4l-4.2,2.6
					l-2.6,3.1l-1.3,3.5l-0.7,7.1l-1.7,6v2.7l1.4,2.5l0.1,3.2l-1,2.8l-0.9,4.3l0.3,3l6.7-1l3.3,0.4l1.7,1l4.1-2.8l3.1-1.5l7-0.5
					l3.3-1.2l4.4,0.9l5,1.9l3.4,2.7l7.9,10.9l1.6-3.3l3.3-2.8l2.4-3.2l0.9-2l7.8-6.6l2.8-3.2l0.1-3.2l2.5-2.5l3.7-0.4l1.8-1.9
					l1.8-2.9l4-3.6l6.3-8.6l10.6-9.5l1.5-3.1l3-4l10.4-9l1.1-2.2l1.4-0.9l2.4,1.9l1.8-0.5l-0.2-1.9l-1.3-1.7l0.2-1.6l1.8-1.5
					l3.5-1.4l-3.6-3.3l-1.7-2.7L421.4,396.5z"/>
			</g>
		</g>
	</g>
</g>
<g id="distrito_13" transform="matrix( 0.5560760498046875, 0, 0, 0.5560760498046875, 49.35,-113.55) ">
	<g transform="matrix( 1, 0, 0, 1, 0,0) ">
		<g>
			<g id="clip_11_0_Layer0_0_FILL">
				<path class="st2" d="M432.7,353.9l-1.4-3.3l-2.5-2.9l-3.9-1.3l-4.5-0.4l-2.5,1.3l-1.4,1.7l-1.5-0.2l-1.4-1.4l-3.2-4.5l-0.4,3
					l-1.1,2.8l-0.3,7.5l-2.6,7.7v5.3l-0.9,4l-1.1,2l-1.7,1.7l-1.5,5.2l-1,0.9l-2.2-0.7l-4.4,4.4l-2.6,0.6l-1,2.4l-1.9,1.7h-2.5
					l-2,0.3l-2,1.2l-2.1,1.8l-1.9,1l-1.8,2.5l-1.3,3.7l-1.9,3.2l-3.4,2l-2.2-1.6l-1.1-2.8l-0.9,2.6l-0.4,4.3l2.9,12.1l1.4,3.7
					l1.7,2.7l3.6,3.3l3.9-1.7l2.1-1.6l1.8-2.6l3.7-1.8l3-0.7l3.2-1.9l2.8-2.8l1-2.2l2.2-1.8l5.2-2.4l3.9-0.1l1.9-1l1.8-0.4l2.9,0.1
					l2.1-1.2l1.4-1.6l5.2-2.4l2.8-2l4.6-1.5l1.7-2.4l1.7-3.5l0.9-2.6l-0.3-2.9l3.6-19.1l-0.2-2.8l-3.1-7L432.7,353.9z"/>
			</g>
		</g>
	</g>
</g>
<g id="distrito_17" transform="matrix( 0.5560760498046875, 0, 0, 0.5560760498046875, -64.3,-88.75) ">
	<g transform="matrix( 1, 0, 0, 1, 0,0) ">
		<g>
			<g id="clip_12_0_Layer0_0_FILL">
				<path class="st2" d="M232.9,473.7l-1.2-2.5l-10.6-11.1l-3-2.5l0.2-1l-0.2-1.5l-22-18.2l-2.7-1.3l-6.8-0.7l-1.8-0.9l-2-0.3
					l-6.4,1.3h-1.5l-0.9-1l0.9-6.1l-0.3-3.4l-1.1-5.3l0.1-2l1.7-1.5l1-1.7l-6.4-8.9l-2.4-4.8l-1.4-1.1l-13.3-5.6l-1.8,2.7l-0.1,2.9
					l-1.5,4.5l-0.2,1.4l0.2,2.6l-0.3,2.1l-1,2.1l-0.3,2.5l0.9,2.4v2.2l-1.5,1.6l-3.1,2.6l-2.1,2.7l1.8,6.4l1.1,2l0.6,4.6l1.2,2.1
					l0.5,2.6l-0.4,6.6l1.1,2.8l1.8,1.5l0.5,1.9l-2.4,6.1l-1,1.3l-1.4,0.1l-1.7-0.4l-1.8-0.7l-1.4,0.7l0.6,1.7v1.9l-3.7,13.7l0.5,3.2
					l1.1,1.4l1.1,0.5l-0.3,0.7h-1.4l-1.1,0.2v1.9l-1,1.2l-2.5-0.3l-1.6,1.4l-0.6,10.5l0.4,5.1l2,1.7l1.4,2.6v3.2l2.5,1.5l4,0.3
					l0.6,1.4v2.4l-2.8,2l0.4,3.1l1.2,3l1.3,1.7l4.9-1.9h2.6l2.6,0.5l8.1-2.5l2.9-2.4l0.7-3.1l2.4-1.5h3.5l4.6-3.7l6.2,3.7l1.6,5.1
					l1.5,2.1l3,0.9l4.1-1.1l4-2.5l2.6-2.8l5-1.8l2.6-1.7l2.9-0.6l2.2,1.3l1.2,2.6l2.8,1.4l4.2-0.1l7.7-1.8l0.6-1.9v-2.7l-0.7-2.4v-2
					l1.2-1.5l1.3-1l3.1-0.7l6.2,1.4l2.2-0.3l2.8-4.5l-6.4-7.3l-1.9-3.3l-0.5-3.4v-6.6l-1.3-4.8l0.4-2.6L232.9,473.7z"/>
			</g>
		</g>
	</g>
</g>
<g id="distrito_7" transform="matrix( 0.5560760498046875, 0, 0, 0.5560760498046875, 10.3,-74.15) ">
	<g transform="matrix( 1, 0, 0, 1, 0,0) ">
		<g>
			<g id="clip_13_0_Layer0_0_FILL">
				<path class="st2" d="M369.5,442.3l-0.4-2.4l-7.9-10.9l-3.4-2.7l-5-1.9l-4.4-0.9l-3.3,1.2l-7,0.5l-3.1,1.5l-4.1,2.8l-1.7-1
					l-3.3-0.4l-6.7,1l-0.2,1.3l1.2,6.2l-1.4,3.2l-16.7,26l-6,5.8l-4.5,2.4l-3.7,1.4l-1,2.1l-1.1,18.9l-1.4,6.5v5.6l2.8,8.6l1.6,2.9
					l2.2,2.7c0.9,1.2,2.7,3.4,5.2,6.5l5.8,4.5l4.6,5.1l6.8,4.7l1.6-0.5l2.5-0.3l2.1,1.4l2.2,0.9l2.4,0.3l2.6,2.6l2.8,1l7.5,4
					l5.7,4.5l3.2-1l2.4-1.4l-0.9-12.6l1.5-8l1-1.9l0.4-2.5v-3.2l1.5-1l2.6,0.5l2.1-1.1l1.6-3l-1.8-16.5l0.6-2.6l1.9-2.5l1.3-3.7
					l-1.1-1.8l-1.4-1.4l0.4-2.9l1.1-2.7l-1.8-4.8l1.5-1.1h2.4l1.4-1.9l1.4-3.1l0.3-2.9l-2.8-3.9l0.9-1.7l5.6-7.6l1.1-8.7l1.9-3.5
					l-0.1-2.8l-0.4-2L369.5,442.3z"/>
			</g>
		</g>
	</g>
</g>
<g id="distrito_12" transform="matrix( 0.5560760498046875, 0, 0, 0.5560760498046875, -61.45,-57.2) ">
	<g transform="matrix( 1, 0, 0, 1, 0,0) ">
		<g>
			<g id="clip_14_0_Layer0_0_FILL">
				<path class="st2" d="M227.8,484.2l-1.1-5l-4.3-11.1l-1.2-5l-7.7,1.8l-4.2,0.1l-2.8-1.4l-1.2-2.6l-2.2-1.3l-2.9,0.6l-2.6,1.7
					l-5,1.8l-2.6,2.8l-4,2.5l-4.1,1.1l-3-0.9l-1.5-2.1L176,462l-6.2-3.7l-4.6,3.7h-3.5l-2.4,1.5l-0.7,3.1l-2.9,2.4l-8.1,2.5
					l-2.6-0.5h-2.6l-4.9,1.9l2,2.9l2.5,4.6l0.6,7.1l1.4,2.5l2.2,0.9l1,1.4l-0.6,2.1l-1.4,2.1l-0.3,3.2l1,3.9l2.1,2.2l3.9-1.8
					l2.2,1.2l0.6,2.7l-1.5,7.4l-0.3,4l0.1,2l-0.3,2.4l1.6,6l-0.2,2.5l0.3,2.1l1.3,3.9l-1.8,1.8l-3.4-0.5l-1.3,1l0.2,2.8l-0.6,2.5
					L145,551l0.2,2.7l-1.7,3.5l0.3,1.7l-1.2,4.9l0.7,4.1l-0.7,3.3l-3.1,1.3l-2.1,1.2l0.3,1.8l1.9,0.7l1.9,0.1l0.4,1.4l-0.7,1.8
					l0.7,2l1.1,1.8l0.3,4.7l1.4,3.6l-0.7,2l-0.2,2.2l3,11.1l1.2,2.1l2.5,3.2l1.4,4.3l2.2,1.4l2.6,0.6l1.9,1.7l1.7,2.8l3.9,4.7
					l-0.4,4.9l1.4,2.8l1.9,0.3l1.7,0.6l2.8,0.5l2.9-0.5l3.2-1.3l2.9,0.3l2.4,1l1.6,1.9l0.7,2.8l1.5,1.3l8.9,0.1l2.4,1.3l1.6,1.9
					l2.6,1.4l5.3,0.5l-3.9-53.7l45.7-1.9l-0.4-6.6l2-11.2l-0.2-13.6l-1.2-4.2l-7.7-17l-1-4.6l1.4-4.4l0.4-3.6l-1.8-3.9l-6.7-8.4
					l-3.2-5.5L227.8,484.2z"/>
			</g>
		</g>
	</g>
</g>
<g id="distrito_18" transform="matrix( 0.5560760498046875, 0, 0, 0.5560760498046875, -39.7,-59.15) ">
	<g transform="matrix( 1, 0, 0, 1, 0,0) ">
		<g>
			<g id="clip_15_0_Layer0_0_FILL">
				<path class="st2" d="M253.5,468.2l-4.7,0.9h-2.8l-1.4-3.4l-0.5-4.2l-2.9-2.8l-4.2-2.6l-4.2-1.3l-3.1-0.4l-2.1,0.4l-6.6-0.5
					l-4.7,2.1l-2.5,0.7l-9.5-1l-1.6-1l-1.9-0.1l-7.1,0.6l-6.2-1.4l-3.1,0.7l-1.3,1l-1.2,1.5v2l0.7,2.4v2.7l-0.6,1.9l1.2,5l4.3,11.1
					l1.1,5l3.1,25.1l3.2,5.5l6.7,8.4l1.8,3.9l-0.4,3.6l-1.4,4.4l1,4.6l7.7,17l1.2,4.2l0.2,13.6l-2,11.2l0.4,6.6l41.4-0.9l-0.3-35.3
					l-2.4-60.7l2.7-4.3v-3.1l3.6-12l0.6-7.8l-0.6-3.3L253.5,468.2z"/>
			</g>
		</g>
	</g>
</g>
<g id="distrito_10" transform="matrix( 0.5560760498046875, 0, 0, 0.5560760498046875, -44.2,-31.7) ">
	<g transform="matrix( 1, 0, 0, 1, 0,0) ">
		<g>
			<g id="clip_16_0_Layer0_0_FILL">
				<path class="st2" d="M307,510.5h-47.5l0.3,35.3l-87.1,2.8l3.9,53.7l7.1,0.4l3.9,0.6l2.8,1.7l1,2.5l-0.4,2.5l-2.5,1.7l-1.5,3.2
					l0.9,2.9l3.1,1.4l0.7,1.3l0.1,2.5l1.4,2.2l3.4,0.5l2.6-0.3l5.9-3l1.6,0.6v2.7l1,2.8l11.9,5.2l2.4,2l-0.1,2.5l1.6,1.6l13-0.9
					l9.1,2.2h2.8l2.2-0.6l4.6,1.6h2.4l3.5-0.4l18,0.9l10.6,4.4l6.7,4.3l7,2.9l4.7,1.3L307,510.5z"/>
			</g>
		</g>
	</g>
</g>
<g id="distrito_1" transform="matrix( 0.5560760498046875, 0, 0, 0.5560760498046875, -9.35,-46.65) ">
	<g transform="matrix( 1, 0, 0, 1, 0,0) ">
		<g>
			<g id="clip_17_0_Layer0_0_FILL">
				<path class="st2" d="M385.7,530.1l-0.2,0.1l0.1,0.1l0.2-0.1L385.7,530.1L385.7,530.1z"/>
				<path class="st3" d="M383.1,530.6h1.4l1.1-0.3l-0.1-0.1l0.2-0.1l-2.4-1.9l-0.5,0.1v0.2l0.3,0.4v0.5l-0.3,0.2L383.1,530.6
					 M382.3,525.5v-0.1l0,0V525.5 M426.2,591.7l-1-3l-1.8-0.2l-1.5,0.7l-1.2,1l-1.2,0.4l-8.2-7.9l-2.1-4.7l-0.9-5.6l0.9-3.4l1.7-2.7
					l3.2-3.5l2.4-3.9l-1.4-4.5l-2.5-4.3l-5.2-5.6l-6.2-4.7l-11.7-6.6l-1.6-1.3l0.2,1.5l-1,2.5v0.7l-0.5,0.2v0.5h1.3l0.2,1h0.3
					l0.4-1.2h0.5l0.9,0.7l-0.2,0.2h-0.6v0.2l1.4,1.2l-0.7,0.2l-0.7-0.9h-0.6v0.2l0.6,0.6l-0.4,0.3l-0.4-1h-0.5l-0.5,1l0.5,0.7h-0.5
					l-1,0.2l0.2,0.5l-0.2,0.4l-0.7,0.4v0.5h-1.2l-0.5,0.4l1.1,0.5v0.5l0.2,0.2l-0.7,0.7l-2.1,0.7v0.9l-1.3,1.1h-2.4l-1,1l-1.1,0.6
					l-1-0.6h-0.9l-0.3-0.3l-1,0.1l-1.5-0.5l-1.9,0.4l-1.6,0.7l-3.6,5.3h-0.5v0.5l-4.8,7l-16-15.5l-0.3-11.6l7.6-19l8.7-4.6l0.7-0.6
					v-0.1h0.2v0.1h0.3v-0.1h0.2l0.4,1.1h-0.4l0.4,0.4l0.3-0.4h0.4v0.4l0.3,0.7l0.6-0.5h0.7l1.1,1.1v-0.5h0.2v0.5l2.1,0.9l0.5,1.3
					l0.4,0.4h0.5v0.5l3.6,1.5h0.6v0.4l1.3,2.1l0.2,0.1l0.5-0.1h0.6v0.3l-0.4,0.4v0.3l0.7,1.2h1l1.9,1.4h0.4v-0.6l-1.4-1.2h0.2
					l1.7-0.1l0.4,0.5l-1,0.2l0.1,0.3h1.9l0.7,0.9h-1.1l0.5,0.3h0.6l-0.6-3.4l-1.4-3.2l-1.1-1.5l3.5-1.9l1.2-3.3l1.5-1.2l-1.5-4.7
					l-2.4,1.4l-3.2,1l-5.7-4.5l-7.5-4l-2.8-1l-2.6-2.6l-2.4-0.3l-2.2-0.9l-2.1-1.4l-2.5,0.3l-1.6,0.5l-6.8-4.7l-4.6-5.1l-5.8-4.5
					l-1.4,2l-2,4.3l-0.9,4.2l-2,1.6l-4.9-3l-3.1-1.3l-2.6,1l-4.5,7l-18.6,20.1l-3.3,0.4h-44.3l1.1,216.3h1.5l2.8,0.6l3.2,1.4
					l2.1,1.9l5.2,6.1l0.9,1.4l8.1-4l3.6-4.3l1.2-4.6l-1.2-3l-4.6-4.8l-1-2.6l0.1-2.5l0.9-1.1l1.9-1l1.3-1.8l-0.3-1.8l-0.5-1.1
					l-0.3-1.4l0.9-1.7l0.6-2.4l1.3-1.9l1.9,0.4l1.8-2.5l1.9-7.4v-2.4l-0.6-1.8l-2.7-1.8l-1.8-2.5l-2.5-6.3l0.4-2.6l1.1-2l-0.1-1.9
					l-1.4-2.7l0.3-2l3.1-0.4l3.2,1.8l2.5,3.4l3.7,1.9l40-2.6l41-8.4l21.5-7.5l11.7-7.2l1.8-3.2l0.6-3.2l1.7-3.9l2.9-4l9.1-9.1
					l5.2-9.4l3.7-3.7l2.4-4l0.5-3.2L426.2,591.7z"/>
			</g>
		</g>
	</g>
</g>
<g id="distrito_14" transform="matrix( 0.5560760498046875, 0, 0, 0.5560760498046875, -66.55,-19.9) ">
	<g transform="matrix( 1, 0, 0, 1, 0,0) ">
		<g>
			<g id="clip_18_0_Layer0_0_FILL">
				<path class="st2" d="M218.6,628.9l-1.9-48l-5.3-0.5l-2.6-1.4l-1.6-1.9l-2.4-1.3l-8.9-0.1l-1.5-1.3l-0.7-2.8l-1.6-1.9l-2.4-1
					l-2.9-0.3l-3.2,1.3l-2.9,0.5l-2.8-0.5l-1.7-0.6l-1.9-0.3l-1.4-2.8l0.4-4.9l-3.9-4.7l-1.7-2.8l-1.9-1.7l-2.6-0.6l-2.2-1.4
					l-1.4-4.3l-2.5-3.2l-1.2-2.1l-1.6-5.5l-2.2,2.8h-2.9l-1.2,1.1l-1.5,2.4l-0.6,2.4l-0.3,2.9l-1.5,1h-2.4l-1.1,0.9l-0.7,1.4
					l-1.3,0.9l-1.2,0.5l-0.3,5.6l-1,1.4l-1.3,1l-0.1,7.6l1,2.8l1.3,2.1l-0.5,2.7l-1.4,2.9v2.2l1.9,1.6l1.3,2.4l-1.2,6.1l0.7,4
					l4.9,10.8l0.2,4.5l1,4.9l1.4,2.9l1.9,2.5l1.1,2l-0.4,2.4l-3,3.1l-7.3,4.4l-2.6,2.9l0.5,12l-2,12l-1.7-0.1l-2.2-1l-0.6,1l0.6,3.6
					l1.4,3.1l1.2,1.8v5.9l-0.9,1.9l-2.2,0.1l-0.9,1.5v3.1l1,1.9h2.2l1.4,0.6l-0.4,2.4l-1.1,1.8l-1.7,1l-0.5,1.9l0.1,2.8l-0.7,2.6
					l-1.6,1.9l0.2,2.5l2,3.3l1.3,3.3l8.1,0.9l4.6,1.9h2.2l3.3-2.7l2.5-2.9l0.3-1.9l-0.3-1.8l-1.4-1.4l-0.4-1.8l1.8-2.5l2.4-2.2
					l2.2-1.3l4.8-1.4l3.2-3l3.5,0.2l2.4-0.7l1.7-0.9l1-1.2l0.5-1.4l1.1-1.1l1.2-2.1l0.1-9.4l1.7-3l2.4-2.4l8.2-3.6l2.7-1.9l4.7-5.7
					l7.7-4.6l2.8-3.6l4.9-9.7L218.6,628.9z"/>
			</g>
		</g>
	</g>
</g>
<g id="distrito_15" transform="matrix( 0.5560760498046875, 0, 0, 0.5560760498046875, -65.75,-7.85) ">
	<g transform="matrix( 1, 0, 0, 1, 0,0) ">
		<g>
			<g id="clip_19_0_Layer0_0_FILL">
				<path class="st2" d="M328.1,604.1l-10.6-4.4l-18-0.9l-3.5,0.4h-2.4l-4.6-1.6l-2.2,0.6H284l-9.1-2.2l-13,0.9l-1.6-1.6l0.1-2.5
					l-2.4-2l-11.9-5.2l-1-2.8v-2.7l-1.6-0.6l-5.9,3l-2.6,0.3l-3.4-0.5l-1.4-2.2l-0.1-2.5l-0.7-1.3l-3.1-1.4l-0.9-2.9l1.5-3.2
					l2.5-1.7l0.4-2.5l-1-2.5l-2.8-1.7l-3.9-0.6l-7.1-0.4l1.9,48l-8.2,4.1l-4.9,9.7l-2.8,3.6l-7.7,4.6l-4.7,5.7l-2.7,1.9l-8.2,3.6
					l-2.4,2.4l-1.7,3l-0.1,9.4l-1.2,2.1l-1.1,1.1L171,660l-1,1.2l-1.7,0.9l-2.4,0.7l-3.5-0.2l-3.2,3l-4.8,1.4l-2.2,1.3l-2.4,2.2
					L148,673l0.4,1.8l1.4,1.4l0.3,1.8l-0.3,1.9l-2.5,2.9l-3.3,2.7h-2.2l-4.6-1.9l-8.1-0.9l-0.4,9.7l1.5,9l-0.1,2.2l-0.5,1.7l0.6,1.9
					l1.8,3.1l2.4,5.8l168.5-9.1v-1.8l1.7-4.2l-0.3-2.5l-0.7-1.4l0.9-4.6l-4.3-13.2l-0.6-7.6l0.5-2.5l1.4-2.1l6.2-4.7l1.3,0.6
					l0.2,1.2l-0.6,1.2l-1.4,1.4l0.9,0.7l3.4,0.5l8.7,2.2l3.2,2.1l7.9,3l3.9,2.7h18.4l9.1-4.3l-0.9-1.4l-5.2-6.1l-2.1-1.9l-3.2-1.4
					l-2.8-0.6h-1.5l-0.1-50.1l-4.7-1.3l-7-2.9L328.1,604.1z"/>
			</g>
		</g>
	</g>
</g>
<g id="distrito_4" transform="matrix( 0.5560760498046875, 0, 0, 0.5560760498046875, -66.35,30.5) ">
	<g transform="matrix( 1, 0, 0, 1, 0,0) ">
		<g>
			<g id="clip_20_0_Layer0_0_FILL">
				<path class="st2" d="M337.8,641.8l-1.6-0.6l-1.8,0.6l-4.7,2.7l-5.1,1.2l-0.6,0.7l0.2,0.6h2.1l2.5,0.7l1,1.9l-0.3,2.6l-1.4,1.2
					l-1.6,0.1l-0.7-0.4l-0.1-1.1l-1.6,0.2l-2.4,1.3l-3.1,0.1l-1.8-0.6l-0.2-1.7l2-2.5l0.1-1.1h-1.3l-2.6-0.4l-3.9-1.5l-3.7-2.2
					l-2-2.9l-1.3-2.8L135.3,647l0.5,2.9l-0.1,2.7l-1.7,0.9h-3.3l-2.4,1.5l-1,3.1l0.7,2.1l1.5,1.5v2.4l-1.3,2.2l-0.6,2.5l1.4,4.7
					l0.1,2.7l-0.4,2.4l0.1,3.9l1.3,3.1l2.4,1.2l3.2,0.9l2.6,0.1l1.2,1.6l-0.9,2.4l-1.8,1.9l-1.4,2.8l1.7,2.6l3.4,2.1l1.7,3l-2.6,4.1
					l1.4,2.8l2.1,1.7l0.6,1.4l-0.6,2.2l-1.9,2.4l-1,2.4l0.7,2.5l-0.1,5.5l2.7,1.2l11.3-0.6l1.8,0.5l1.5,1.2l1,1.9l-1.1,1.9l-1.4,1.5
					v5l-1.4,1.4l-4.2-1.8l-4.3,1.8l-3.7-0.7l-1.9,1l-4.2,0.9l-0.4,1.8l1.4,2.1l3,1.3l2.6-0.9l4.8,0.7l1.8,1.5l1.6,3.1l4.5,4.3v1.7
					l-1.3,2.6l-2.2,1.4l-0.2,1.4l0.2,2.4l-1.6,1.1l-2.5,0.1l-1.7,0.5l-0.9,2.8v4.1l1.5,3.2l2.7,1.5l1.1,1.6l95.5-5.3l0.9-2.8
					l1.4-1.8l1.4-1l1-0.1l0.5-1.8v-2.7l0.7-1.7l7.8-12.2l2.6-2.2l2.9-0.6l4.4-0.2l0.7-1.4l0.2-2.6l2-1.4l2.9-0.5l3.2-2.4h2.5l2.9,1
					l2.7-0.3l2,0.3l1.3,1.2l1.2-0.4l0.7-1.6l1.1-1.3l0.5-1.5l-1-1.5l-1.9-0.1l-1-1.4v-2.8l0.9-1.7l2-2.2l2.7-2l1.6-0.9l1.4-1.2
					l0.3-2.2l0.6-1.8l1.4-0.5l0.4-1.4l-1-1.5l-0.4-0.4l-0.4-0.7l-0.1-3.5l0.5-1.4l1.4-1l0.3-1.7l-0.3-2.2l-2-3l-0.7-1.9l-0.2-3.2
					l0.2-3l1.2-2.4l4.3-4.7l1.2-2.1l-0.6-1.5l0.1-1.7l6-4.4l9-3.6l2-1.4l0.9-1.6l-0.9-0.5l-1.6,0.4l-13.5-5.3l-1-1.5l-0.2-1.2l1.2-2
					l7.5-5.2l5.1-0.5l2.2,0.7l2,1.4l1.4,1.5l0.1,1.9l-0.7,1.5l0.2,1.4l1.8,2.7l2.5,1.7l2.7-1l5.8-1.1l1.9-1.9l1.8-3.9l-0.5-7.1
					l0.3-5.7l-2.8-4.3L337.8,641.8z"/>
			</g>
		</g>
	</g>
</g>
<g id="distrito_19" transform="matrix( 0.5560760498046875, 0, 0, 0.5560760498046875, -68.4,66.6) ">
	<g transform="matrix( 1, 0, 0, 1, 0,0) ">
		<g>
			<g id="clip_21_0_Layer0_0_FILL">
				<path class="st2" d="M274.3,748.5l-3-1.2L254.9,731l-2.7-4.7l-1.5-4.5l0.1-9.9l-95.5,5.3l-0.6,2.4l-1.5,2.7L151,724l-1,1.7
					l3.1,3.1l0.4,3.5l2,5.9l0.4,3.3l-1.4,3.6l-3.7,4.5l-0.1,2.7l-0.7,3.5l1,2.6l1.9,0.6l1,1.3l-1.2,1.9l-1.9,0.4l-1,0.9l-1,4.5
					l-1.8,1.3h-2.7l-1.1,1.9l0.1,4.3l-2.5,7.8l-0.4,3.7l0.1,2l1.3,1.8l2.5,1.8l1.5,2.1l0.6,5.3l-1.4,2.9l-1.8,2.2l-3.5,1.9l1.2,1.4
					l0.9,3.1l0.2,3.7l-0.4,3.2l-1.9,3.4l-2.4,2.1l-1.6,0.4l-1.4,0.7l-2.7,5.9v0.9l0.9,2.7l-0.5,2.2l-6.1,0.7l-1.4,2.4l-1.2,4.3
					l-0.1,3.7l1.3,3l1.4,2.1l-0.2,1.9l-0.5,1.6l-0.4,2.4l1.4,4.2v2.5l0.5,1.9l4,3.2l1.5,2.1l2.2,9.5l1.1,1.5l0.6,1.4l0.4,1.9
					l1.3,0.9h1.5l3.5-4.8l2-1.4l1.3,0.6l1.2,1l1.7-0.7l1.1-1.6l1.7-0.5l2.5,1l1.1,1.3l-1,1.8l0.6,2l1.7,1.4l0.7,2.7l-0.7,2.6
					l-1.7,3.9l0.3,2.7l1.8,1.3l1.3,1.4l-0.3,2.6l-1.9,8.8l3.3,4.4l6,3.3l1.3,2.8l0.6,3.1l3,1.1l38.9-3.3l3.4,0.9l4.5,2.1l4.6,1
					l4.7-0.2l3.7,0.9l4.9,2.9l6.5,1.5l2.4,1.5l0.5-1.5l-9-13l-3.7-7.3l-1.6-1.8l-1.6-0.4l-1.6,0.3l-3.6-1l0.3-1l4.4-0.3l1.7-2
					l-1-4.9l-1.7-3.9l-2.7-9.5l-1.7-0.6l-1.8,1.8l-1.7,1.3v-1.3l4.1-3.3l1.2-2.8v-8.4l0.9-3.7l1.9-3.5l3.7-4.2l3.7-2.8l3.1-1.6
					l1.8-1.8l-1.1-1.8l0.6-0.9l2.5,1.4l2.9-0.5l3.9-2.9l3.2-3.5l1.4-3.1l0.7-3.1v-4l1.1-10.7l-0.3-1L253,829l-0.3-0.4l1.1-2.4
					l1.1-6.2l2-2.8l6.3-6.5l2.6-4.8l2.4-2.8l3.3-1.2l5.1-5.2l2.5-1.1l2-1.7l8.2-9.1l2.1,0.1l1.4-0.6v-2.1l-1.7-1.7l1-0.7l1.4,0.4
					l1.3-0.7l-0.3-1.7l-1.3-1.4l-1.2-3.2l0.2-2l1-1.7l1.7-1.4l0.6-2.2l0.3-9.1l-0.9-2.9l-1.4-2.4l-2.1-1.8l-2.7-0.5L274.3,748.5z"/>
			</g>
		</g>
	</g>
</g>
<g id="distrito_22" transform="matrix( 0.5560760498046875, 0, 0, 0.5560760498046875, -37.7,113.45) ">
	<g transform="matrix( 1, 0, 0, 1, 0,0) ">
		<g>
			<g id="clip_23_0_Layer0_0_FILL">
				<path class="st2" d="M192.7,873.4l-6.6-9l2.8,64.4h3.2l3.4,0.5h2.7l3.9-0.6l10.2-0.3l1.6,0.4l0.5,0.5l-15.1,1.8l-10.2-0.7
					l0.5,9.2l1.1,1l1.8,1.2l0.4,0.2l24.1-0.7l5,0.7l8.8,3.7l2.2,1.2l0.4-0.1l1.8-1.3l1.4-1.4l2-0.6l2.9-0.3l1.9-0.7l0.4-1.4l1.3-1
					l2-0.2l1.8,0.6l0.7,1.5l1.4,0.5l1.9-1l1.4-1.7l1.9,1.2l1.1-0.7l2.2-4.4l0.2-2.9l-0.1-2.1l-0.9-0.2l-2.1,0.1l-5.2,1.1l-2.6,0.2
					l-3.7-1.3l-12.4-6.6l-4.8-5.2l-9.2-5.7l-2.8-1.4l-2.4-1.7l-14.3-16.6l-1.7-2.9l-2-5.6l-1.6-0.5l-1.6,0.2l-3.1-0.6l-1.9-2.7
					l0.4-2.6l3.1-4l1.5-0.2l1.1,1.9l0.5-0.3L192.7,873.4 M351.9,838v-0.3h-0.4v0.4h0.2L351.9,838 M351.2,837.5h-0.1l-0.1,0.1v0.1
					l0.1,0.3v0.1h0.1V837.5 M350.3,829H350l-0.2-0.2h-0.1v0.2l0.1,0.1h0.4V829 M355.3,821.6h1.3v-0.3l-0.2-0.1h-1.2V821l-0.2,0.2
					l0.2,0.2h0.1V821.6 M357.6,822.5v0.2h0.1v2l0.3-0.2v-0.2l0.1-0.2v-0.3l-0.1-0.2v-1.1h-0.3v-0.1l-0.1-0.2h-0.1L357.6,822.5
					 M347.5,833.7l-0.1,0.1l0.1,0.3h0.2v-0.3l0.1-0.1h0.1v-0.3h-0.2l-0.2,0.1V833.7 M346.9,833v0.5l0.2,0.2l0.1-0.2v-0.2h0.1V833
					l0.1-0.1v-0.1h-0.1l-0.1,0.1L346.9,833 M347.3,832.1l0.1-0.1v-0.4l-0.2,0.3v0.2H347.3 M348.3,830.4v0.1h0.1v0.3h-0.1v0.1h-0.1
					v0.4l-0.3,0.1l-0.1,0.1v0.2h0.1v0.1h0.3v-0.1l0.1-0.2h0.1v0.7l0.2,0.1l0.1-0.1h0.1v-0.2h0.2l0.2-0.2v-0.4h0.3l0.1,0.1v0.5h-0.1
					v0.2l-1.2,1.1v0.3l0.2,0.1h0.4v0.3h-0.2v0.1l-0.1,0.1v0.3h0.4v-0.3h0.1v-0.1h0.3v0.1h0.1v0.3l0.1,0.1v0.9l0.2,0.1h-0.2v0.4h0.9
					v0.4l0.3,0.1h0.4v-0.1h0.2l0.2-0.3h0.2l0.1-0.1v-0.3h0.2l0.1-0.1v-0.1l0.1-0.1h0.5l0.3-0.3v-0.3h-0.3v-0.2h0.3v-0.3h0.3v-0.9
					l-0.6-0.1l0.3-0.1l0.1-0.3h0.2v-0.2l-0.2-0.3v-0.6h0.2v-1.6l0.2-0.2l0.2-0.4H354v-0.4h0.2v-0.6H354v-0.4h-0.2v0.1h-0.3v0.3h-0.3
					v0.6h0.3l-0.4,0.4h0.1v0.1l0.4,0.3v0.5l-0.1,0.1v0.4H353v-0.2h-0.2v0.1l-0.4,0.5v0.1l-0.2,0.2v0.1l-0.1,0.1h-0.2l-0.2,0.1h-0.2
					v0.3h-0.7v0.3h-0.2v-0.4l0.2-0.2v-0.5l0.3-0.1h0.1l0.1-0.1h0.2v-0.3l0.4-0.2v-0.2l0.2-0.1h0.3v-0.1l0.1-0.2V830l-0.1-0.3v-0.1
					h-0.2v0.1h-0.5v-0.9h-0.2l-0.2,0.2v0.1h-0.5l-0.2,0.3v0.7h-0.2v0.3H350l0.2,0.3v0.5h-0.4v-0.5h-0.1v-0.2h-0.1l-0.3,0.2l-0.1-0.2
					l0.1-0.2V830l-0.1-0.3h-0.3l-0.1,0.3v0.2h-0.1l-0.2,0.2H348.3 M346.5,830v-0.3l-0.1-0.1h-0.3v0.4H346l-0.2,0.4v0.1l-0.3-0.1
					v-0.2l-0.3-0.2l-0.1-0.3l-0.1-0.1l-0.3,0.1v0.3l0.3,0.2v0.2h-0.3l-0.2,0.2v0.3l1.1,1.2h0.3V832h0.2v0.1l0.1,0.2h0.3l0.1-0.3
					l0.3-0.1l0.1-0.1v-0.2h-0.1v-0.1h-0.3l-0.1,0.1l-0.3,0.2v0.1h-0.2v-0.1l0.2-0.4v-0.9h0.3l0.4,0.1h0.3v-0.2L346.5,830
					 M348.4,829.1h-0.2v0.4h0.1l0.1-0.1V829.1 M345.4,824.8v0.3h-0.3L345,825h-0.1l-0.3,0.1v0.7l0.3,0.3v1.5l0.2,0.1h0.3v-0.5
					l-0.3-0.1v-0.2l0.3-0.1v-0.6l0.3,0.1h0.1l0.1,0.1h0.1v-0.2h0.7v-0.3l0.3-0.3v-0.1l-0.2-0.1h-0.4l-0.1-0.2h-0.3L346,825v-0.2
					H345.4 M346.5,824.3h0.3v-0.4l-0.3-0.1v0.1h-0.1v0.2L346.5,824.3 M357.1,817.3l-0.2,0.1v0.1h0.6l0.1,0.2l0.1-0.2v-0.1h-0.1
					l-0.1-0.1H357.1 M353.8,820.4v0.6h0.4l0.1-0.2v-0.4H353.8 M358.1,812.8v-0.2l-0.3-0.3h-0.4v-0.1h-0.4v0.1l-0.2,0.1v0.2l0.2,0.1
					h0.2l0.2,0.1v0.4l0.2,0.1l0.2,0.4h0.1l0.2-0.4h0.1v-0.2L358.1,812.8 M392.9,842.7v0.5h0.1v-0.3h0.1v-0.1H393v-0.1H392.9
					 M396.4,842.9v-0.1l-0.1-0.1l-0.1,0.1v0.7l-0.2,0.2l-0.2,0.1v1.6h-0.3v0.2l-0.4,0.2l-0.1,0.1h-0.5v0.2h-0.4l-0.3,0.2h-0.4v-0.2
					L393,846v0.9l0.1-0.2h1.4l0.7-0.6h0.6v-0.1l0.2-0.2l0.1-0.4l0.1-0.2V845l-0.1-0.2l-0.1-0.4v-0.4l0.2-0.3h0.3v-0.3L396.4,842.9
					 M400.1,835.7v-0.1l-0.2-0.3l-0.3,0.3v0.1l0.3,0.1L400.1,835.7 M377.3,851.4h-0.2v0.3l-0.4,0.3v0.5h0.3l0.3-0.2v-0.2h0.1v-0.3
					h-0.1V851.4 M377.7,848.8l-0.3,0.1l-0.1,0.3v0.1H377l-0.3-0.1h-0.1l-0.1,0.1l-0.1,1H376l-0.3,0.3l-0.3,0.1v0.2l-0.2,0.2v0.1h0.5
					l0.2,0.1v0.4h0.1v0.2l0.6-0.7v-0.1h-0.1v-0.4l0.4-0.4h0.3v-0.6h0.5l0.1-0.3v-0.5H377.7 M378.5,850.6l-0.1-0.3l-0.3,0.3l-0.2,0.6
					l0.1,0.1h0.1l0.3-0.1l0.1-0.3V850.6 M361.9,844.7v0.3l0.1,0.1l0.2-0.1v-0.2h0.1v-0.1H361.9 M376.4,842.4H376v0.5l-0.4,1l0.1,0.2
					h0.2v0.2h0.6v0.6l0.1,0.1v1.2h-0.1v0.3h0.1l-0.2,0.7v0.1l0.1,0.2v1h0.1v-0.5l0.3-0.1v-0.3l0.1-0.2h0.2l0.1-0.1l0.3-0.4l0.2-0.4
					v-1.2l0.1-0.2v-1l-0.2-0.3h-0.4l-0.1-0.4l-0.3,0.2v0.3h-0.3l-0.1-0.3v-0.3L376.4,842.4 M374.7,838.6v-0.3h-0.5l0.3,0.3H374.7
					 M375.6,838v-0.3h-0.2v-0.1h-0.2v0.4H375.6 M377.3,839.5v0.5l-0.2,0.2l-0.1,0.2v0.7h0.1V841l0.2-0.2v-0.5l0.1-0.4v-0.3H377.3
					 M378.5,835.9l-0.1-0.1v-0.1l0.1-0.4H378v0.5l-0.1,0.1v0.3l-0.1,0.1v0.3l-0.3,0.1v0.1h1.1l0.2-0.1l-0.2-0.1V835.9 M379.5,834.8
					v-0.4h-0.2l-0.2-0.1v0.1h-0.2l0.2,0.4H379.5 M378.7,833.3v0.2h0.1v-0.2H378.7 M380.2,832.1h-0.3v0.3l0.3,0.4V832.1 M379.2,829.1
					l0.2-0.1v-0.2l-0.7,0.7l0.1,0.1l0.2-0.2L379.2,829.1 M363.3,822.7l-0.3-0.2h-0.4l0.2,0.2h0.1v0.2h0.1v0.2h0.3
					c0.1,0,0.1-0.1,0-0.2V822.7 M364.8,823.9l0.3-0.1v-0.4h-0.3l-0.1,0.2v0.2L364.8,823.9 M366.1,823.8h-0.3v0.1L366.1,823.8
					 M361.9,820.6h-0.3v0.2h0.2v0.2l0.1,0.1V821l0.1-0.2L361.9,820.6 M362.6,812.4h0.2l0.1-0.1l-0.1-0.1v-0.2l-0.2-0.1l-0.2,0.1v0.3
					L362.6,812.4 M363.9,812.8h-0.2v0.4l0.4,0.1h0.1v0.3l0.1,0.1v0.3l0.3-0.3v-0.4l-0.4-0.2h-0.3V812.8 M360.5,809.4l-0.4-0.5h-0.2
					v1.4l0.2,0.1h0.3l0.1,0.3l0.3,0.2h0.4v0.3l0.1,0.1v0.3h0.1v-0.4l0.1-0.2l-0.1-0.1v-0.2h-0.1v-0.4h-0.5l-0.3-0.3V809.4
					 M378.4,815.6l0.3-0.5v-0.3H378l-0.1,0.3v0.4l0.2,0.1H378.4 M380.2,815.1v0.3h-0.7l-0.2,0.1v0.3h0.5l0.1-0.3l0.3,0.3l0.2-0.3
					v-0.4H380.2 M370.7,811.8l-0.3-0.2l-0.3-0.7h-0.4l-0.2,0.3l-0.4,0.1h-0.6l-0.2-0.1H368l-0.4-0.2h-0.3l-0.3-0.3v-0.3l-0.3-0.1
					l-0.4-0.3l-0.1-0.1h-0.5v0.5h0.2v0.3l0.3,0.1l0.1,0.1v0.3l0.3,0.1h0.4l0.3,0.3l0.2,0.1l0.5,0.4l0.1,0.6l0.2,0.3l0.2,0.1h0.3
					l0.1,0.1h0.5v0.4l-0.1,0.3h-0.5l-0.3,0.1h-0.2v-0.5l-0.2-0.3l-1-1.1l-0.2,0.1l0.2,0.2v0.5l-0.4,0.2h-0.5l0.3,0.3l-0.3,0.1v0.3
					h0.4v0.1l-0.4,0.3h-0.1l-0.3-0.3v0.5h0.3l0.4,0.3h0.4l0.2,0.1l0.1-0.1h0.3l0.4-0.3h0.6l0.3,0.3h0.4l0.2,0.1l0.3-0.1l0.1-0.3
					v-0.2l0.3-0.4v-0.4l0.4-0.3l0.2-0.2v-0.4l0.3-0.1v-0.3l-0.3,0.1v-0.1h-0.2l-0.4,0.1v-0.1l0.3-0.3V811.8 M373.4,810.9h-0.1
					l-0.1-0.1h-0.5v0.1l-0.2,0.1H372l-0.1,0.2h-0.1l-0.3,0.1v0.6l0.4,0.2l0.1,0.1v0.1l0.2,0.3v0.1l0.2,0.3h0.4l0.4,0.1l0.1,0.1h0.2
					l0.2-0.1v-0.5l-0.2-0.1l-0.2-0.2v-0.4h0.4l0.2,0.2h0.5v-0.4h-0.3v0.1l-0.2-0.1l-0.6-0.5V810.9 M374.2,807.9h-0.4v0.1l-0.2,0.1
					h0.6V807.9 M378,814.1l-0.1,0.1h-0.4v0.4h0.5l0.1-0.1h0.3l0.1-0.3l0.2,0.3h1.2v-0.3h0.3v-0.1l-0.3-0.3l-0.1,0.3H378
					 M377.4,811.9h-0.1v0.2h-0.2v0.4l-0.1,0.1v0.1h-0.3v0.4l0.3,0.1h0.3v0.7h0.4l0.1-0.3l0.1-0.1v-0.3h0.1v0.3h0.6l0.1-0.3l-0.1-0.1
					h-0.2l-0.4-0.4l-0.2-0.1h-0.1l-0.3-0.1V811.9 M375.6,809.8v-0.3h-0.2l-0.2-0.1l-0.4-0.3v-0.2h-0.1l-0.1,0.2v0.2l0.1,0.1l0.3,0.1
					v0.4h0.4L375.6,809.8 M381.6,828.5h-0.3v0.3h-0.1v0.2l-0.3,0.1h-0.2l-0.4,0.3l-0.3,0.1v0.1h-0.1v0.5h0.6v0.2h0.2v0.1h0.4V830
					l0.1-0.3v-0.5h0.1V829l0.3-0.2V828.5 M382.2,827.4H382v0.2l-0.2,0.1v0.3l0.2-0.3h0.2v-0.1h0.2v-0.2l-0.2-0.2V827.4 M382,810.3
					h-0.2v0.9l-0.1,0.1l-0.1,0.3l-0.3,0.2h-0.1l-0.3-0.2v-0.3l0.2-0.1V811l0.1-0.1l-0.3-0.1v-0.4h0.2l-0.2-0.4l-0.2,0.3h-0.7
					l-0.4-0.3l-0.2,0.3v0.1h-0.5l-0.2-0.1l-0.1-0.3h-0.3l-0.1-0.1v0.4h-0.2v-0.7h-1.2l-0.1,0.3H376v0.1l0.4,0.9h0.2l1.3,0.5h0.1
					l0.4-0.1h1l0.4,0.5l0.3,0.1l0.2,0.4l0.6,0.4l0.1,0.1h2l0.2-0.2v-0.2l-0.2-0.1l-0.1-0.3l0.1-0.1h0.4v0.3l0.1,0.1h0.2l0.1-0.1
					v-0.2l-0.3-0.2v-0.5h-0.1l-0.4-0.3v-0.1l-0.1-0.1l-0.1-0.3h-0.3l-0.1,0.3h-0.1L382,810.3 M363.9,843.6h0.2l-0.2-0.2V843.6
					 M386.5,813.7v-0.1h-0.4l-0.3-0.3h-0.3v-0.1l-0.3-0.4v-0.4h-0.2v0.2h-0.1v1.2h-0.3l-0.4-0.4h-0.1v0.9l-0.2,0.3v0.1l-0.1,0.1
					h-0.2v0.3h0.3l0.2,0.4h0.4v0.1h0.4v0.3h0.3v0.2h-0.2l-0.1,0.2l-0.3,0.1h-0.1l-0.4,0.1v0.4h-0.2l-0.1-0.2h-1l-0.1,0.2v0.1h-0.3
					V817H382l-0.2,0.1v0.2h0.2v0.2h-0.2l-0.5-0.4h-0.1l-0.1-0.1h-0.4l0.2-0.2h0.2l0.1-0.2h0.1v-0.1h0.5l0.2-0.1l0.2-0.2h0.2l0.1-0.1
					v-0.4h0.4v-0.1l-0.3-0.3v-0.4h0.3v-0.1h-0.4v0.1h-0.1l-0.2,0.3l-0.2,0.4h-0.2l-0.1,0.1l-0.4,0.3h-0.1l-0.1,0.1l-0.4,0.1
					l-0.2,0.2h-0.5v0.1h-0.4v0.1l-0.4,0.2h-1.2l-0.1,0.2h-1.2l-0.1-0.2v0.3l-0.1,0.2l-0.6-0.7v-0.1l0.3-0.1h0.4l0.1-0.2h0.7l0.4-0.1
					h0.1v-0.1l-0.1-0.3h-0.4v-0.4h-0.2l-0.1,0.3v0.1h-0.6l-0.3-0.1h-0.1v0.1h-0.7l-0.2-0.1v-0.3h-0.2l-0.1,0.3v0.1h-0.1v0.3h-0.3
					v-0.7l0.3-0.1h0.1l0.1-0.3h0.2l-0.2-0.1h-0.2l-0.3-0.1l-0.2,0.1h-0.2v0.1h-0.2l-0.2-0.1h-0.1v0.1h-0.5v0.3l-0.1,0.1l-0.2,0.3
					v0.1h-0.2l-0.2-0.1v-1.3l-0.2-0.1h-0.3l-0.4,0.4v0.1l0.3,0.1v0.3H371l-0.2-0.3h-0.1l0.1,0.7v0.1h-0.1v0.3H370l-0.1,0.1v0.4
					l0.1,0.1l0.3,0.2h0.4l0.2,0.2h0.3l0.4,0.1l0.2,0.2h0.2v0.2l-0.3,0.2h-0.4l-0.1,0.1H371v0.1h-0.6v0.1h-0.4v0.6h-0.3l-0.1-0.3
					l-0.1,0.1h-0.1l-0.3-0.1l-0.1-0.3l-0.2-0.1h-0.3l-0.4,0.4h-0.4V818h-0.9v-0.1l-0.1-0.1h-0.3l-0.1-0.1l-0.3-0.2l-0.2-0.2h-0.4
					V817l-0.4-0.4v-0.2h-0.3v-0.4l-0.1-0.3h-0.1l-0.4-0.1h-0.3l-0.1-0.3L363,815l-0.1-0.3l-0.5-0.5h-0.1l-0.2-0.1h-0.4l-0.2-0.3
					h-0.1l-0.3-0.1h-0.1l-0.3-0.3v-0.1h-0.1v-0.1h-0.2v-0.3l0.2-0.1l-0.2-0.1h-0.3l-0.3-0.2h-0.6l-0.4-0.1v0.3l0.2,0.2v0.3h0.3v0.2
					h-0.3l0.2,0.3v0.1l0.1,0.3h-0.1v0.1l0.1,0.3v0.2h-0.3l-0.2,0.3l0.2,0.1l0.2,0.3l0.1,0.1l0.4,0.3v0.1l0.1,0.1h0.3V816h0.5v0.1
					l0.1,0.2h0.4l0.5,0.2h0.1l0.3-0.1h0.1l0.2-0.1h0.1l0.2,0.2l0.3,0.2l0.4,0.2v0.1l0.1,0.2v0.5h0.2v0.1l0.1,0.4v0.1h-0.3l-0.1-0.1
					l-0.4-0.3l-0.1-0.1l-0.4,0.1H362l-0.2-0.2l-0.2,0.1v0.1l-0.1,0.3v0.1l-0.5,0.4l0.3,0.2v0.2h0.1v0.1l-0.1,0.3l0.1,0.3h0.1
					l0.1,0.2h0.6v-0.2h0.3l0.3,0.3h0.9l0.2,0.2h-0.2v0.2h-0.1v0.2l0.1,0.2l0.4,0.3h0.1v-0.1h0.1l0.3,0.1h0.1l0.3-0.1v-0.2l0.2-0.6
					h-0.2v-0.3l-0.3-0.2h0.3l0.2,0.2h0.2v1h0.5v0.2l-0.3,0.1h-0.2v0.4l0.5,0.5v0.2h0.1v-0.2h0.7l0.2,0.2l-0.2,0.2h-0.2l-0.1,0.2
					l0.1,0.2h0.7v0.2l0.1,0.2v0.1l0.3,0.2l0.1,0.4l0.1,0.2h0.2l0.2,0.2l1,0.1v-0.3l0.1,0.2v1.2l0.3,0.2h-0.4v-0.2h-0.1l-0.1-0.3
					l-0.4-0.1h-0.2l-0.1-0.2l-0.4-0.1l-0.1-0.1l-0.1-0.3l-0.4-0.2l-0.3-0.6l-0.2,0.2l-0.4,0.6l-0.4,0.1v0.2h-0.3l-0.2-0.2l-0.2-0.1
					h-0.2l-0.3-0.2h-0.5l-0.6,0.6H363l-0.1,0.3h-0.1l-0.2,0.1l-0.3,0.3v0.1h-0.7v-0.1l-0.2-0.3h-0.4l-0.3,0.3h-0.1l-0.3-0.3l-1-0.4
					l-0.1-0.3l-0.3-0.1l-0.2-0.2h-0.2v1l-0.1,0.1v0.5l0.1,0.1v0.3l0.2,0.1v0.7l0.2,0.1h0.3v0.3l0.1,0.1v0.6h0.7v-0.2h0.3v1l0.2,0.1
					h0.5l0.3-0.1v-0.1l-0.3-0.3h-0.1v-0.3l0.1-0.2l0.4-0.1h0.4l0.2,0.1h0.2l0.1-0.1h0.6v-0.4l0.3-0.3h0.4l0.2,0.4h0.3v-0.4l-0.1-0.1
					v-0.4l-0.2-0.1l0.3-0.4l0.9-0.4h0.4v0.1l0.2,0.3h0.3l0.4-0.2l0.4-0.3l0.3,0.1l0.2,0.1h0.5v0.3h-0.1l0.1,0.4v0.3l-0.1,0.3v0.4
					l-0.3,0.3l-0.1,0.3v0.2l-0.2,0.1h-0.3V829l-0.2,0.1h-0.2v-1.1h-0.7l-0.2,0.1l-0.2,0.3h-0.2v0.3l-0.3,0.2v0.1h0.3l0.2,0.3v0.1
					l-0.2,0.4v0.2l0.2,0.3h0.2v0.3h-0.4v-0.4h-0.3v0.1h-0.1v1.4h-0.3v0.1h-0.1l-0.1-0.2l-0.4-0.2v0.2h-0.1l-0.2,0.1h-0.1v-0.3
					l0.3-0.1l0.1-0.4l0.4-0.2v-0.2l0.1-0.2V830h-0.1v-0.3h-0.4v0.3h-0.1v0.2H363V830l0.4-0.3l0.2-0.1l0.1-0.4h0.4v-0.3l-0.2-0.2
					h-0.3l-0.2,0.4v0.1H363l-0.1-0.1v-0.2l-0.1,0.2v0.1h-0.5v1.4H362v0.5l0.3,0.4h0.2l-0.3,0.4H362l-0.1,0.1v0.3l0.3,0.4v0.1H362
					v0.1h-0.2l-0.2,0.4v0.4l0.2,0.3v0.1l-0.2,0.1h-0.2l-0.4,0.3h-0.1v0.1h-0.4v-0.1h-0.2l-0.1-0.3h-0.6l-0.4-0.2v0.1h-0.3v0.1h-0.2
					v0.3l0.2,0.1h0.3v-0.1h0.1l0.3,0.1l0.6,0.7h0.1l0.2-0.3h1.5l0.1-0.3l0.5-0.2h0.3v-0.3h0.4v0.4l-0.3,0.1l-0.2,0.6l-0.4,0.1
					l-0.3,0.2h-0.1v0.3h-0.1l-0.2,0.1h-0.2l-0.1,0.3l-0.4-0.3h-0.4v-0.1l-0.2,0.1v0.5h0.2l0.1,0.3v0.1h0.3v0.2l0.1,0.1h-0.1v0.1
					h-0.3v-0.1h-0.1v-0.3l-0.2-0.1h-0.3v0.9h-0.7v-0.4h0.3v-0.4l0.1-0.3v-0.5l-0.1-0.1h-0.3l-0.1,0.1v0.3h-0.3l-0.4-0.4v-0.3h-0.2
					v1.7h0.1v0.4h-0.1v0.2l-0.2,0.4v0.2h-0.1l-0.1-0.2l-0.1-0.4V838l0.1-0.3v-0.2h0.1v-1.2l-0.2-0.4v1l-0.2,0.3l-0.2,0.1l-0.2,0.2
					l-0.2-0.2v-0.4h0.2v-1h-0.2v-0.1h-0.3v-0.1h-0.1l-0.3,0.1h-0.7l-0.2-0.1h-0.6l-0.1,0.1v0.1l0.1,0.3h0.1v0.6h0.1v0.3h0.4v-0.3
					h0.3v0.3l0.2,0.1h0.7v0.4h-0.3v0.3l-0.4,0.2h-0.3v0.3H355v0.1l-0.6-0.1h-0.5v-0.4l0.2-0.1h0.2v-0.3l0.1-0.1v-0.1l-0.1-0.2v-0.1
					h-0.4v-0.3l0.2-0.2v-0.7h-0.2l-0.2-0.1l-0.1,0.1v0.4H353l-0.1,0.3v0.2h-0.4v0.3l0.3,0.3h0.7v1.6h0.2l-0.2,0.3v0.1h0.2l0.2,0.1
					l0.4-0.2h0.4l-0.3,0.1l-0.3,0.3l-0.4,0.2h-0.3l-0.3,0.2H353v0.2l-0.1,0.1l-0.1-0.1l0.1-0.2v-0.2l0.1-0.2h0.1v-0.7H353l-0.1-0.2
					h-0.5l-0.2,0.2h-0.5l-0.4-0.4h-0.1l-0.1-0.1v-0.3l-0.3-0.1v-0.4l-0.2-0.1h-0.2v-0.1h-0.6l-0.3,0.1v0.5l0.3-0.1h0.2l0.2,0.1v0.4
					l-0.2,0.1v1.4h0.9v-0.4h-0.2l-0.2-0.1v-0.4h0.4v0.3l0.3,0.1v0.3l0.1,0.2v0.2l0.1,0.3h0.4l0.2,0.2v0.1l0.2,0.1h-0.2v0.2l0.2,0.1
					l0.3,0.2h0.2l0.2,0.3h0.7v0.1l0.2,0.2v0.6h0.4l0.1-0.1v0.1h0.1v1.1l0.1,0.2v0.2h0.4v-0.2l0.2-0.2l0.1,0.2h1.4v-0.3l-0.1-0.2
					h-0.6l-0.2-0.2l-0.2-0.4l-0.2-0.2l-0.1-0.3h-0.6l-0.2-0.4v-0.7l0.1-0.2h0.1l0.3,0.2v0.1l0.1,0.1h0.2v-0.1h0.1l0.2,0.1l0.4,0.1
					v0.3l0.3,0.1h0.1v-0.1h0.2v-0.6l0.1,0.1v0.5h0.2v0.3h0.2v0.2h-0.4v-0.2h-0.1v0.2l-0.2,0.2h-0.1v0.2h0.1v0.1h0.3v0.4l0.4,0.2
					l0.2-0.2h0.3v0.2h-0.1l-0.2,0.2v0.3l0.2,0.2h0.1v-0.2h0.1l0.3-0.3h0.1v0.1l-0.1,0.2v0.9l-0.2,0.1h-0.7v0.4h0.2v0.7l0.3,0.2
					l0.1,0.1l0.3,0.1h0.4l0.2-0.1v-0.1h0.2v-0.2l-0.2-0.2h0.3v0.2h0.1l0.4-0.3v-0.2h0.6l0.2-0.2h0.1v-0.4h0.3l0.1-0.1v-0.3h-0.1
					l-0.3-0.3h-0.1v-0.2h0.1l0.4-0.2h0.3v-0.1h0.1v-0.2l-0.1-0.2H361l-0.4-0.1v-0.3l-0.3-0.2v-0.1h-0.1l-0.2,0.1v-0.9l0.2-0.3h0.1
					v0.6l0.3,0.2v0.2l0.7,0.2v0.1l0.3,0.3v0.6h0.2v-0.1h0.1v-0.2h0.6l-0.5-0.6v-0.1h0.2l0.1-0.1h0.4l0.1,0.1v0.7h1.1l-0.5-0.6v-0.2
					l-0.1-0.3l-0.4-0.2h-0.5l-0.3-0.3l-0.2-0.4h-0.3l-0.1-0.1v-0.1l0.1-0.2h0.3l0.1,0.2l0.4,0.1l0.6,0.6h0.3l0.1-0.1v-0.4l-0.1-0.1
					v-0.1h0.3v0.1h0.1l0.2-0.1h0.4v0.1h-0.1l-0.1,0.1h-0.2l-0.2,0.1v0.4l-0.1,0.2v0.2l0.1,0.3l0.2,0.2h0.2l0.1-0.1h0.1l0.3-0.1h0.4
					v-0.1l0.2-0.2v-0.9l0.7-1l0.1-0.3v-0.4l0.3-0.2v-0.2l0.1-0.3v-1l-0.1,0.1l-0.3,0.4l-0.4,0.4v-0.9l-0.2-0.2v-0.3l-0.4-0.4
					l-0.3-0.1l-0.1-0.3h-0.3v-1h-0.1v-0.2l-0.1-0.4h-0.2l0.2-0.5v0.1l0.1,0.1v0.3l0.5,0.3v0.3l0.3,0.7l0.2,0.2l0.2,0.3v0.1h0.2v-0.1
					l0.4-0.3h0.3l0.1-0.1h0.1l0.2,0.1h0.3l-0.3,0.3v0.4l0.3-0.3l0.2-0.1h0.6l0.2,0.4h0.2l0.1-0.3h0.2l0.1,0.2h0.4l0.1,0.1v-0.1h0.1
					l0.3-0.2v-0.6l-0.3-0.4v-0.3h-0.1v-0.1h0.4l0.4,0.1h1.1l-0.1,0.3l0.1,0.1v0.9l0.3,0.1h0.1l0.3-0.1l1-0.9h0.2v0.3l0.2-0.3
					l0.4-0.4h0.7l0.2-0.3v-0.3h-0.2v-0.9l0.2-0.1v-0.4l0.4-0.9h0.2l1.1-1.9l0.3-0.1v-0.7l0.1-0.2l0.2,0.2l0.1,0.2l0.3-0.2l0.3-0.6
					l0.4-0.4l0.3-0.5l0.2-0.1l0.7-0.7h-0.5l0.2-0.3v-0.2h0.4v-0.1l0.3-0.2v-0.5l0.6-0.5l0.3-0.7l0.1-0.1v-0.2h-0.1l-0.1,0.2
					l-0.4,0.3v0.1h-0.2V825l0.2-0.2l0.4-0.2l0.1-0.4l0.1-0.2h0.3l0.1-0.5l0.3-0.6l0.5-0.5v0.5l-0.3,0.9l-0.4,0.5v0.4h0.2l0.2-0.2
					l0.3-1h0.4l0.2-0.2l0.2-0.4v-0.2l0.2-0.1V822l0.1-0.4v-0.1l0.6-0.6v0.3l-0.4,0.9v0.5l-0.2,0.2v0.4h0.3l0.4-0.4v-0.2l0.4-0.3h0.2
					V821l0.3-0.2l0.4-0.5l0.2-0.2l-0.2-0.3v0.1l-0.4,0.4v-0.4l-0.3,0.2v-0.6l0.3-0.1l-0.3-0.4h-0.2l-0.1,0.2v0.2h-0.9l-0.2,0.1h-0.3
					l0.2-0.1l0.1-0.2l0.2-0.2h0.5l0.3-0.2h1v-0.3l0.1-0.3h0.2l0.2,0.3v0.5l-0.2,0.4h0.2v-0.2l0.2-0.2v-0.2l0.3-0.3l0.1-0.3l0.2-0.1
					l0.6-0.4v-0.1l0.4-0.1h0.1l0.7-0.7v-0.2l-0.3-0.2l-0.9,1l-0.1-0.1l-0.1,0.1l-0.4,0.2v0.1l-0.1-0.1v-0.2l0.1-0.1v-0.5h-0.1v-0.3
					h0.5l0.1-0.1h0.1v-0.1l0.4-0.3h0.1l0.2-0.1h0.4l0.1-0.3v-0.4h-1v-0.1l0.1-0.4l-0.1-0.1h-0.4l-0.1,0.1l-0.2-0.1h-0.6L386.5,813.7
					 M404.2,834.4v0.3l0.4,0.1h0.2v-0.5l-0.2,0.1l-0.3-0.1L404.2,834.4 M407.9,833.3V833l-0.3-0.1v0.1l-0.1,0.3v0.1h0.1L407.9,833.3
					 M383.9,846h0.1v-0.1L383.9,846 M410.8,830.4l0.1-0.2h0.3V830h-0.7l-0.4-0.3l-0.2-0.1l-0.3,0.1l-0.1,0.3h-0.1l0.2,0.4l0.3-0.2
					h0.5l0.1,0.2H410.8 M414.5,814.2H414v0.4l-0.3,0.1v0.4h-0.4l-0.5-0.4H409l-0.3,0.3l-0.2,0.1H408l-0.1,0.3v0.4l-0.3,0.2l-0.1,0.6
					l-0.5,1l-0.9,0.6l-0.1,0.3l0.1,0.2v0.5l0.1-0.1l0.3,0.1h0.1l0.3,0.4h0.1l0.2-0.1v-0.4l0.2-0.2l0.1,0.2v0.1l-0.1,0.3v0.3l0.1,0.3
					h0.3v-0.1l0.1-0.2v-0.2l0.3,0.4v0.1h0.1l0.2,0.2l0.3-0.2h0.3v0.4L409,821v0.1h-0.3l-0.2,0.1l0.2,0.3v1h0.6l0.1,0.2v0.2l-0.4,0.2
					v-0.2l-0.3-0.4h-0.3l-0.2,0.2l0.2,0.2v0.2l0.1,0.4l0.5,0.3v0.6l-0.3-0.2v-0.4h-0.2v0.2l-0.1,0.6H408v-1.6h-0.5l0.1-0.2l0.3-0.2
					l0.1-0.2v-0.1l0.1-0.4v-0.4l-0.1-0.1v-0.2l-0.1-0.1h-0.4l-0.2-0.3l-0.2-0.2l-0.3,0.5v0.1l-0.2,0.2H406v-1.2l-0.3-0.2l-0.3,0.2
					v0.9h-0.2l-0.5,0.1v-1l0.2-0.2v-1h0.3v-0.4h-0.3l-0.2-0.2v-0.1l-0.3,0.1h-0.1l-0.4-0.4h-0.1l-0.2,0.4l-0.4,0.4h-0.1v-0.2
					l-0.1-0.2V818h-0.2v-0.1h0.3v-0.5l0.3-0.3V817l-0.2-0.2l-0.1-0.2h-0.1l-0.4,0.2l-0.1,0.2v0.1l-0.2,0.3l-0.4,0.1h-0.1v-0.2
					l0.1-0.2l0.4-0.1l0.2-0.2l0.3-0.4v-0.7l0.6-0.9h0.4v0.3l-0.4,0.4l0.2,0.1v0.4l0.3,0.3v0.2l0.2,0.2v0.5h0.9l0.5-0.3l0.2,0.1
					l0.4-0.1l0.1-0.2v0.6h0.1l0.5-0.9l0.2-0.2v-0.4l-0.2-0.3v-0.4h-0.1v-1.1l-0.4-0.7h-0.1l-0.1-0.2v-0.4h-0.7l-0.4-0.4l-0.2-0.4
					l-0.4-0.2l-0.4,0.2l-0.1,0.1l-0.6-0.2h-1l-0.5,0.4h-0.9v0.1l0.3,0.4v0.4h0.5l0.1-0.4l0.4-0.1v0.1l-0.2,0.1v0.3l-0.2,0.2h-1v-0.7
					h-1.5v-0.2l-0.2-0.1l-0.4-0.1l-0.2,0.1v0.3l0.4,0.1v0.1h-0.4l-0.6-1l-0.3-0.1h-0.2l-0.2-0.1l-0.7-0.6h-0.4l-0.4-0.6l-0.4-0.1
					v-0.3l-0.3-0.1v-0.3h-0.2l-0.3-0.1h-0.1v1l0.6,1.3v0.3l0.7,0.7v0.1l0.1,0.3l0.3,0.2v1.2h-1.2v-0.3h-0.2v0.3H394l-0.1,0.1h-0.3
					l-0.1-0.1H393v1.4h0.1l0.7,0.2v0.4h-0.3v-0.1h-0.4l-0.2-0.3h-1.5v-0.5h-0.3l-0.3,0.7l-0.1,0.1h-0.2v0.1l-0.3,0.5l-0.4,0.4v0.4
					l0.4,0.1h0.3v-0.1l0.3-0.1h0.3l0.5,0.5l0.4,0.1h0.3l0.6,0.4l0.1,0.2l0.4,0.2h0.7l0.2,0.4h0.9v0.1l-0.1,0.2l-0.3-0.2h-0.1
					l-0.3,0.2h-0.2l-0.4-0.3v-0.3l-0.3-0.1h-1.9v0.7h0.4v0.5l0.1,0.2v0.3l-0.1,0.1v0.3l0.1,0.2v0.2l0.6,0.4v0.1h-1V822l-0.2-0.2v0.2
					h-0.1v-0.9l-0.1-0.7l-0.7-1.1v-0.4l-0.2-0.2v1.2l-0.3,0.2v1l-0.1,0.1l-0.3,0.1l-0.1,0.4l-0.3,0.3v0.5h0.3l0.1,0.4h0.7l0.2,0.2
					l0.3,0.4h0.1l0.3,0.2v0.1l0.2,0.4l0.4,0.4h0.3l0.4,0.2v0.1h-0.4V825h-0.3l0.1,0.3h0.2l0.1,0.1v0.1h-0.4v0.2l0.1,0.4v0.2l0.2,0.1
					v0.7h0.1l0.3-0.1l0.1,0.1l-0.1,0.4v0.4l0.3,1.4h0.4v0.1h-0.1l-0.4,0.1l-0.1,0.3v0.2l-0.1,0.3l-0.3,0.1l-0.1,0.2h-0.2v0.5h-0.3
					v-1.2l-0.2-0.2v-0.5l0.2-0.3l0.2-0.1v-0.4l-0.2-0.1h-0.2v-2.2h-0.5l-0.4,0.4l-0.5,0.1l-0.1,0.1l-0.3,0.2l-0.1,0.1v0.4l-0.3,0.1
					v-0.1l-0.2-0.4l-0.3,0.2v0.3h-0.1v0.3l-0.2,0.4v0.1l-0.1-0.1v-0.3h-0.1v-0.4l0.1-0.1l-0.1-0.2l-0.3,0.2l-0.1,0.1l-0.1,0.4v0.4
					l-0.2,0.2h-0.2v-0.2h-0.1l-0.3,0.5h-0.3v0.3h0.3l0.3,0.2v0.3l-0.2,0.2h-0.6v0.2h-0.4v-0.2l0.2-0.2l-0.2-0.4l-0.4,0.4v0.5
					l-0.3,0.3v0.2l-0.2,0.3v0.4l-0.1,0.1l-0.3-0.1v-0.3l0.3-0.1v-0.5l-0.4,0.1h-0.3l-0.1,0.1v0.7h-0.3v-0.4l-0.2,0.1v0.1h-0.7
					l-0.1,0.3v0.1h0.5v0.1l0.1,0.2l-0.1,0.1l-0.1,0.3v0.1l0.1,0.1h0.1v0.5h0.2v0.3h-0.3l-0.4-0.4h-0.1l-0.1-0.1V833h-0.7v1.2h0.1
					v0.2h0.7l0.1,0.4v0.9h-0.1v0.1h-0.3l-0.2-0.1l-0.2-0.4v-0.4h-0.5v0.1h-0.2v-0.1h-0.2l-0.2-0.4v-0.5h-0.4v1l-0.3,0.4v0.6h0.3
					l0.2,0.3h0.2l0.2-0.3l0.7,0.7l-0.3,0.1h-0.6v0.1h-0.4v-0.1l-0.3-0.4v-0.1h-0.6v-0.3H379v0.4h0.2l0.5,1h0.4l0.2,0.2v0.1h-0.5
					v-0.1h-0.4v0.1h-0.2v0.1H379v0.3l0.2,0.1h0.2l0.4,0.1v1.4h0.3v-0.1h0.2v0.3l0.2,0.2v0.2h0.2v0.3h-0.4l-0.2-0.1l-0.3,0.1v0.3
					l-0.1,0.1h-0.3v-0.5l-0.2,0.1v0.3L379,841v0.2l0.4,0.2v0.7h-0.6v-0.3h-0.1v0.1l-0.2,0.2h-0.1v-0.6l0.1-0.1v-0.1h-1.1v0.6h0.3
					v0.2h-0.3l-0.1,0.2v0.3l0.1,0.1h0.3l0.1,0.1l0.1,0.4v0.2l0.4,0.2v0.1h0.6v0.4h-0.2l0.2,0.3v0.1h0.2v1h0.5v-0.2h0.4v0.5l-0.3,0.2
					v1.2h0.3v-0.1l0.2-0.2v0.2l0.2,0.1h0.2l0.2-0.1h0.1l0.1-0.2l0.3,0.2v0.1h0.4l0.2,0.2l0.4,1.2h0.3v0.1l-0.4,0.4v0.5h0.4l0.2-0.2
					l0.4-0.3h0.1l0.2,0.3l0.4,0.2h0.1l-0.1,0.1v0.2h-0.3v0.1l0.4,0.4h0.3v-0.1l0.3,0.3v0.3h0.3V851l0.3-0.2h0.5l0.2-0.1v-0.3
					l-0.2-0.1h-0.2l-0.2,0.1h-0.1l-0.3-0.1V850h-0.3v-0.1h-0.2v-0.5l0.2-0.1v-0.3l0.3-0.1v-0.7h-0.3l-0.2,0.4v0.1h-0.9l0.3-0.1v-0.2
					l0.1-0.2h0.3V848h0.1l0.2-0.1l0.3-0.4v-0.7h-0.3v-0.1h-0.3v-0.3h0.1l0.2-0.2h0.7v-0.3h-0.1v-0.2h-0.6l-0.3,0.4v0.1l-0.3,0.2v0.3
					h-0.5V846h-0.3v-0.1l0.1-0.2l0.2-0.2v-0.4h-0.2v-0.3h0.2v0.2l0.1-0.2l0.4-0.1h0.3v-0.3h-0.9v-0.2l-0.2-0.2h-0.6v-0.1h0.1
					l0.2-0.2l0.2,0.2h0.1l0.2-0.2v-0.2l-0.2-0.1h0.3l0.3,0.3l0.4,0.2v-0.2l-0.3-0.3v-0.6h-0.1v-0.2h0.1l0.3,0.2v0.1l0.1,0.1h0.2
					v-0.2l0.3-0.2v1.2h1.1v-0.2h0.3v0.2h-0.3v0.2l-0.2,0.1v0.9h0.2v-0.4h0.3v-0.2h0.3v0.2h0.5v0.7l0.1,0.9l0.4,0.3h0.4V846l0.1-0.1
					v-0.4h0.4l0.1-0.2v0.7h0.9l0.3,0.4h0.2l0.1,0.1h0.2v-0.1l0.4,0.2l0.2,0.2v0.2l0.2,0.3h0.3v-0.7l-0.1-0.1v-0.3l-0.2-0.2v-0.7
					h-0.2v-0.2h-0.9v-0.3l0.2-0.1l0.1-0.3h0.4v-0.2l0.1-0.3h0.2l0.2-0.2v-0.2h-0.2v-0.4h-0.3v-0.1h-0.4v0.5H391l-0.3,0.2v-0.6h-0.2
					v0.3l-0.3,0.1v0.2l-0.4,0.2l-0.1-0.2h-0.3v-0.6l0.3-0.1h0.4l0.1-0.1v-0.1l0.3-0.4h0.3l0.3-0.2v-0.5h-0.4v0.1h-0.2v-0.2l-0.3-0.1
					v0.1l-0.1,0.1h-0.3l-0.1-0.1l-0.3-0.1l0.3-0.2l0.1-0.1h0.4v-0.1l0.3-0.2h0.2v-0.1l-0.2-0.2l-0.3-0.2v-0.6h-0.4l-0.1,0.1v0.1
					l-0.3,0.2h-0.1l-0.4,0.2l-0.1-0.2h-0.2v-0.3h0.2l0.1-0.4h0.3v-0.4h-0.3v-0.1l-0.1-0.3h-1.2l-0.3,0.4h-0.2v-0.4l-0.4-0.1h0.4
					l0.2-0.1l0.1-0.3l0.2-0.1h0.3v0.1h0.4l0.1,0.3h0.3l0.1,0.1h0.4l0.4-0.4v-0.1l-0.3-0.1v-0.3l-0.1-0.3l-0.1-0.1h0.1l0.1,0.1h0.7
					l0.1,0.3v0.5l0.3,0.3v0.5l0.2,0.1l0.1,0.2l0.2-0.3l-0.2-0.3h0.3v0.3l0.3,0.3v0.2h0.4l0.2-0.2l0.1-0.3l0.2,0.1v0.2l0.1,0.2h0.3
					l0.1,0.3v0.1h-0.4v0.3h0.3v0.4l0.1,0.3v0.2l0.1,0.2v0.2h0.1V841l-0.1-0.1v-0.1l0.1-0.2h0.3v-0.3l0.1-0.2h0.3v1.2l0.1,0.1v0.1
					l0.3,0.5h0.2v-0.5l-0.2-0.1l0.2-0.1v-0.3l0.3-0.1h0.5v-0.5h-0.1v-1.2l0.1,0.3v0.4h0.5l0.2-0.2h0.2l0.3,0.2l0.1-0.2v-0.5l0.1,0.3
					l0.2,0.1h0.2l1,0.1v0.4l-0.1,0.2l0.1,0.2v0.1h0.2l0.2-0.3v-0.2h0.2v0.9l0.2,0.1h0.1v0.4l-0.1,0.1v0.6h0.4v0.4h0.3v-0.2l0.2-0.2
					V842h0.1l0.3-0.1l-0.3-0.3v-0.1h-0.1v-1h-0.2v-0.6h0.2v-0.7h-0.2l-0.3-0.2v-0.2l0.3-0.1h1.1V838h-0.3v-0.7l0.3-0.1v-0.3
					l-0.3-0.2h-0.1v-0.4h-0.3l-0.1,0.1h-0.2v-0.1h-0.3l-0.3,0.1l-0.1-0.1v-0.3l-0.4-0.1v0.1h-0.4l-0.1,0.3h-0.3v0.5h-0.1v-0.1
					l-0.1-0.3v-0.1l-0.1-0.3h-0.6l-0.1-0.2l-0.1-0.1h-0.7v-0.3h-0.2v-0.4h-0.3v-0.1l-0.1-0.3H395v-0.1l-0.1-0.1h0.1l0.3,0.1h0.1v0.1
					l0.3,0.3v-0.3l0.2,0.3h0.4l0.3,0.2l0.1,0.3h0.1v0.3h0.4v-0.3h0.3v-0.3l-0.5-0.2l-0.2-0.3h-0.1l-0.1-0.1l-0.3-0.1h-0.2l-0.2-0.3
					l-0.5-0.3l-0.1-0.1v-0.1l-1-0.5l-0.3-0.3h-1.1v0.4l-0.4-0.1v-0.3l-0.1-0.3h-0.2l-0.1,0.2h-1l-0.1,0.1l-0.2,0.4v0.1h-0.6v-0.1
					h0.3v-0.4l0.2-0.1v-0.5h0.1l0.9,0.1v0.1h0.5l0.3-0.1h0.3l0.2-0.1v0.1l0.4,0.2v-0.6l0.1-0.1l0.3-0.4v-1h0.4v0.4H394v0.2l0.3,0.3
					v0.9l0.2,0.2l0.3,0.1h0.9l0.2,0.2v0.1l0.2,0.3l0.1,0.1h0.1l0.4,0.1v0.3h0.5l0.4,0.4h0.4v-0.3l0.1-0.1l0.4,0.2h0.4V833h0.1
					l0.3,0.3h1v0.1l-0.3,0.1l-0.3,0.2v0.4h0.2l0.1-0.3l0.4,0.3h0.6l0.1-0.3h0.1v0.3h0.1v-0.3l0.2-0.1h0.5l0.2-0.2l-0.2-0.2V833
					l-0.1-0.1v-0.1H402l-0.4-0.4v-0.2l0.2-0.1v-0.1l-0.2-0.3v-0.1l-0.1-0.1l0.1-0.3l0.2,0.3l0.2,0.2v0.3l0.2,0.1v0.3l0.1,0.4
					l0.2,0.1l0.6,0.9h0.2l0.2-0.2v0.6l0.1,0.1l0.2-0.1l0.3-0.3l0.5-0.3v0.2h0.5l0.2,0.1l0.1-0.1h0.3l0.2-0.3h0.7v-0.5h0.5v-0.7h1.2
					v0.3l-0.2,0.3h0.2v0.1l0.3-0.1v-1l0.3-0.2l0.1-0.1l0.4-0.1V831H409l-0.3-0.1v-0.2h-0.3L408,831h-0.4l-0.1,0.4v0.2h-0.9l-0.1-0.1
					h-0.4v-0.1h0.4l0.2-0.3l0.3-0.1h0.2l0.3-0.4h0.9l0.9-0.5l-0.3-0.3l-0.3-0.1v-0.4l-0.2-0.1h-0.3v-0.2h0.3l0.2,0.2h0.9l0.3-0.2
					v-0.3h0.5v0.3l0.3,0.2l0.1,0.1h0.6v1.1l0.4-0.5v-0.5h0.3l0.1-0.1v-0.2l-0.3-0.3h0.6v0.1l0.1,0.4h1.3l0.2-0.2h1.2l0.2-0.2h0.5
					v-0.1H414v-0.3l0.2-0.1l0.4-0.3h1l0.4-0.1h0.5l0.5,0.1l0.2-0.3l0.2-0.6l0.3-0.3v-0.2l0.1-0.4h-0.1l-0.4,0.3h-0.9v0.2h0.4
					l0.3,0.3v0.1h-0.7l-0.1-0.1l-0.4-0.2h-0.1l-0.2-0.1h0.4v-0.2l-0.1-0.3h-0.3l-0.3-0.1l-0.3-0.2v-0.2h0.3l0.2,0.2l0.3,0.2h1.4
					v-0.2l0.1-0.2h0.4v0.1h0.2v-0.1l0.3-0.2V825l0.1-0.2l-0.1-0.4v-0.2h-0.3l-0.2-0.2h-0.3l-0.2-0.3h-1.6l-0.3-0.4h-0.3l-0.4-0.2
					l-0.1-0.2h-0.3l-0.2,0.2h-0.6l-0.1,0.2l-0.4-0.2h-0.1v-0.2l-0.1-0.2L412,822h-0.1l-0.1-0.2l-0.4-0.1h-0.1l-0.7-0.5l-0.1-0.3
					l0.1-0.2h0.9v-0.7h0.1l0.4,0.2l0.4,0.3h0.4v-0.3l-0.1-0.2v-0.1l-0.3-0.3v-0.1h0.3l0.1,0.1h0.6l0.2,0.3l0.4,0.1v0.2l0.2,0.3v0.2
					l0.4,0.2l0.4-0.2h0.9l0.2,0.2h0.4l0.1,0.2l0.4,0.1h0.9l0.1-0.3v-0.4l-0.2-0.3h-0.4l-0.1-0.2h-0.7l-0.4-0.4l-0.2-0.1l0.5-0.6h0.1
					l0.1-0.2l0.3,0.2v0.6l0.3,0.1l0.2,0.3h1v-0.3l-0.4-0.1l-0.1-0.2l-1-0.6l-0.3-0.4v-0.2l-0.1-0.3v-1l0.1-0.1v-0.1l-0.1-0.2
					l-0.4-0.1l-0.1-0.1l-0.1-0.3h-0.2V815l-0.1-0.3l-0.9-0.2L414.5,814.2z"/>
			</g>
		</g>
	</g>
</g>
<g id="distrito_0" transform="matrix( 0.5560760498046875, 0, 0, 0.5560760498046875, 21.85,-35.9) ">
	<g transform="matrix( 1, 0, 0, 1, 0,0) ">
		<g>
			<g id="clip_24_0_Layer0_0_FILL">
				<path class="st2" d="M311.2,495.3l-2.1-0.7V494h-0.1v0.5l-1.2-1.1H307l-0.6,0.5l-0.3-0.7v-0.4h-0.4l-0.3,0.4l-0.4-0.4h0.4
					l-0.4-1.1h-0.2v0.1h-0.3v-0.1h-0.2v0.1l-0.7,0.6l-8.7,4.5l-7.6,19.1l0.4,11.4l16,15.5l4.7-7v-0.5h0.6l3.5-5.3l1.6-0.7l1.9-0.4
					l1.5,0.6l1-0.2l0.3,0.3h0.9l0.9,0.6l1.2-0.6l1-0.9h2.2l1.4-1.2v-0.7l2.1-0.7l0.7-0.9l-0.2-0.1v-0.6l-1.2-0.5l0.6-0.4h1.1v-0.5
					l0.7-0.4l0.2-0.3l-0.2-0.5l1-0.2h0.6l-0.6-0.7l0.6-1h0.5l0.4,1l0.3-0.4l-0.5-0.5v-0.2h0.5l0.7,0.7l0.9-0.2l-1.4-1.1V519h0.5
					l0.2-0.2l-0.7-0.7h-0.5l-0.4,1.2H332l-0.2-1h-1.4v-0.6l0.6-0.2v-0.7l1-2.5l-0.2-1.5l-0.6-0.4l-0.1-1l-0.4-0.3h-1l-1.3,0.3H327
					l-0.3-1l0.3-0.1v-0.6l-0.3-0.3v-0.2l2.2-0.2l-0.4-0.3h-0.7v-0.4h1.2v-0.5h-1.4l-0.1-0.6h1l-0.2-0.5l-1.5,0.4l-0.4-0.6h1.2
					l-0.4-0.5h-1.5l-0.6-0.4h1.2l-0.7-0.7h-1.9l-0.2-0.3l1-0.2l-0.3-0.6l-1.7,0.2h-0.2l1.3,1.2v0.5h-0.3l-1.9-1.3h-1l-0.7-1.2v-0.4
					l0.4-0.3v-0.4H319l-0.5,0.2l-0.2-0.2l-1.3-2v-0.4h-0.6l-3.6-1.5V497h-0.5l-0.4-0.3L311.2,495.3z"/>
			</g>
		</g>
	</g>
</g>
</svg>
