<?xml version="1.0" encoding="utf-8"?>
<!-- Generator: Adobe Illustrator 19.0.0, SVG Export Plug-In . SVG Version: 6.00 Build 0)  -->
<svg version="1.1" id="Capa_1" xmlns="http://www.w3.org/2000/svg" xmlns:xlink="http://www.w3.org/1999/xlink" x="0px" y="0px"
	 viewBox="0 0 292.5 640" style="enable-background:new 0 0 292.5 640;" xml:space="preserve">
<style type="text/css">
	.st0{fill:#FFFFFF;fill-opacity:0.498;}
	.st1{fill:#FFFFFF;fill-opacity:0.502;}
</style>
<g id="distrito_1" transform="matrix( 0.5560760498046875, 0, 0, 0.5560760498046875, -9.35,-46.65) ">
	<g transform="matrix( 1, 0, 0, 1, 0,0) ">
		<g>
			<g id="clip_17_0_Layer0_0_FILL">
				<path class="st0" d="M385.7,530.1l-0.2,0.1l0.1,0.1l0.2-0.1L385.7,530.1L385.7,530.1z"/>
				<path class="st1" d="M383.1,530.6h1.4l1.1-0.3l-0.1-0.1l0.2-0.1l-2.4-1.9l-0.5,0.1v0.2l0.3,0.4v0.5l-0.3,0.2L383.1,530.6
					 M382.3,525.5v-0.1l0,0V525.5 M426.2,591.7l-1-3l-1.8-0.2l-1.5,0.7l-1.2,1l-1.2,0.4l-8.2-7.9l-2.1-4.7l-0.9-5.6l0.9-3.4l1.7-2.7
					l3.2-3.5l2.4-3.9l-1.4-4.5l-2.5-4.3l-5.2-5.6l-6.2-4.7l-11.7-6.6l-1.6-1.3l0.2,1.5l-1,2.5v0.7l-0.5,0.2v0.5h1.3l0.2,1h0.3
					l0.4-1.2h0.5l0.9,0.7l-0.2,0.2h-0.6v0.2l1.4,1.2l-0.7,0.2l-0.7-0.9h-0.6v0.2l0.6,0.6l-0.4,0.3l-0.4-1h-0.5l-0.5,1l0.5,0.7h-0.5
					l-1,0.2l0.2,0.5l-0.2,0.4l-0.7,0.4v0.5h-1.2l-0.5,0.4l1.1,0.5v0.5l0.2,0.2l-0.7,0.7l-2.1,0.7v0.9l-1.3,1.1h-2.4l-1,1l-1.1,0.6
					l-1-0.6h-0.9l-0.3-0.3l-1,0.1l-1.5-0.5l-1.9,0.4l-1.6,0.7l-3.6,5.3h-0.5v0.5l-4.8,7l-16-15.5l-0.3-11.6l7.6-19l8.7-4.6l0.7-0.6
					v-0.1h0.2v0.1h0.3v-0.1h0.2l0.4,1.1h-0.4l0.4,0.4l0.3-0.4h0.4v0.4l0.3,0.7l0.6-0.5h0.7l1.1,1.1v-0.5h0.2v0.5l2.1,0.9l0.5,1.3
					l0.4,0.4h0.5v0.5l3.6,1.5h0.6v0.4l1.3,2.1l0.2,0.1l0.5-0.1h0.6v0.3l-0.4,0.4v0.3l0.7,1.2h1l1.9,1.4h0.4v-0.6l-1.4-1.2h0.2
					l1.7-0.1l0.4,0.5l-1,0.2l0.1,0.3h1.9l0.7,0.9h-1.1l0.5,0.3h0.6l-0.6-3.4l-1.4-3.2l-1.1-1.5l3.5-1.9l1.2-3.3l1.5-1.2l-1.5-4.7
					l-2.4,1.4l-3.2,1l-5.7-4.5l-7.5-4l-2.8-1l-2.6-2.6l-2.4-0.3l-2.2-0.9l-2.1-1.4l-2.5,0.3l-1.6,0.5l-6.8-4.7l-4.6-5.1l-5.8-4.5
					l-1.4,2l-2,4.3l-0.9,4.2l-2,1.6l-4.9-3l-3.1-1.3l-2.6,1l-4.5,7l-18.6,20.1l-3.3,0.4h-44.3l1.1,216.3h1.5l2.8,0.6l3.2,1.4
					l2.1,1.9l5.2,6.1l0.9,1.4l8.1-4l3.6-4.3l1.2-4.6l-1.2-3l-4.6-4.8l-1-2.6l0.1-2.5l0.9-1.1l1.9-1l1.3-1.8l-0.3-1.8l-0.5-1.1
					l-0.3-1.4l0.9-1.7l0.6-2.4l1.3-1.9l1.9,0.4l1.8-2.5l1.9-7.4v-2.4l-0.6-1.8l-2.7-1.8l-1.8-2.5l-2.5-6.3l0.4-2.6l1.1-2l-0.1-1.9
					l-1.4-2.7l0.3-2l3.1-0.4l3.2,1.8l2.5,3.4l3.7,1.9l40-2.6l41-8.4l21.5-7.5l11.7-7.2l1.8-3.2l0.6-3.2l1.7-3.9l2.9-4l9.1-9.1
					l5.2-9.4l3.7-3.7l2.4-4l0.5-3.2L426.2,591.7z"/>
			</g>
		</g>
	</g>
</g>
</svg>
