<?xml version="1.0" encoding="utf-8"?>
<!-- Generator: Adobe Illustrator 19.0.0, SVG Export Plug-In . SVG Version: 6.00 Build 0)  -->
<svg version="1.1" id="Capa_1" xmlns="http://www.w3.org/2000/svg" xmlns:xlink="http://www.w3.org/1999/xlink" x="0px" y="0px"
	 viewBox="-159 77 208.2 232" style="enable-background:new -159 77 208.2 232;" xml:space="preserve">
<style type="text/css">
	.st0{fill:#24388D;}
</style>
<path class="st0" d="M-132.8,115.1l36,34.8c0,0-66,20.3-62,21.8s42.4,42.3,42.4,42.3s16.6,44.7,20.6,55.8c4,11-14-3.3,7,17.7
	c21,21,34,23.2,39,21s24-18.2,24-18.2s-3-22.1,6-22.1s48-7.7,48-7.7S1.4,217.4,7.3,212.4s41.9-18.9,41.9-18.9l-47-48
	c0,0,38.3-17.7,39.6-19.3c1.4-1.7,11.6-30.4,0-32.6C30.2,91.4-30.8,77-30.8,77L-132.8,115.1z"/>
</svg>
