<?xml version="1.0" encoding="utf-8"?>
<!-- Generator: Adobe Illustrator 19.0.0, SVG Export Plug-In . SVG Version: 6.00 Build 0)  -->
<svg version="1.1" id="Capa_1" xmlns="http://www.w3.org/2000/svg" xmlns:xlink="http://www.w3.org/1999/xlink" x="0px" y="0px"
	 viewBox="0 0 292.5 640" style="enable-background:new 0 0 292.5 640;" xml:space="preserve">
<style type="text/css">
	.st0{fill:#FFFFFF;fill-opacity:0.498;}
</style>
<g id="distrito_0" transform="matrix( 0.5560760498046875, 0, 0, 0.5560760498046875, 21.85,-35.9) ">
	<g transform="matrix( 1, 0, 0, 1, 0,0) ">
		<g>
			<g id="clip_24_0_Layer0_0_FILL">
				<path class="st0" d="M311.2,495.3l-2.1-0.7V494h-0.1v0.5l-1.2-1.1H307l-0.6,0.5l-0.3-0.7v-0.4h-0.4l-0.3,0.4l-0.4-0.4h0.4
					l-0.4-1.1h-0.2v0.1h-0.3v-0.1h-0.2v0.1l-0.7,0.6l-8.7,4.5l-7.6,19.1l0.4,11.4l16,15.5l4.7-7v-0.5h0.6l3.5-5.3l1.6-0.7l1.9-0.4
					l1.5,0.6l1-0.2l0.3,0.3h0.9l0.9,0.6l1.2-0.6l1-0.9h2.2l1.4-1.2v-0.7l2.1-0.7l0.7-0.9l-0.2-0.1v-0.6l-1.2-0.5l0.6-0.4h1.1v-0.5
					l0.7-0.4l0.2-0.3l-0.2-0.5l1-0.2h0.6l-0.6-0.7l0.6-1h0.5l0.4,1l0.3-0.4l-0.5-0.5v-0.2h0.5l0.7,0.7l0.9-0.2l-1.4-1.1V519h0.5
					l0.2-0.2l-0.7-0.7h-0.5l-0.4,1.2H332l-0.2-1h-1.4v-0.6l0.6-0.2v-0.7l1-2.5l-0.2-1.5l-0.6-0.4l-0.1-1l-0.4-0.3h-1l-1.3,0.3H327
					l-0.3-1l0.3-0.1v-0.6l-0.3-0.3v-0.2l2.2-0.2l-0.4-0.3h-0.7v-0.4h1.2v-0.5h-1.4l-0.1-0.6h1l-0.2-0.5l-1.5,0.4l-0.4-0.6h1.2
					l-0.4-0.5h-1.5l-0.6-0.4h1.2l-0.7-0.7h-1.9l-0.2-0.3l1-0.2l-0.3-0.6l-1.7,0.2h-0.2l1.3,1.2v0.5h-0.3l-1.9-1.3h-1l-0.7-1.2v-0.4
					l0.4-0.3v-0.4H319l-0.5,0.2l-0.2-0.2l-1.3-2v-0.4h-0.6l-3.6-1.5V497h-0.5l-0.4-0.3L311.2,495.3z"/>
			</g>
		</g>
	</g>
</g>
</svg>
