<?xml version="1.0" encoding="utf-8"?>
<!-- Generator: Adobe Illustrator 16.0.0, SVG Export Plug-In . SVG Version: 6.00 Build 0)  -->
<!DOCTYPE svg PUBLIC "-//W3C//DTD SVG 1.1//EN" "http://www.w3.org/Graphics/SVG/1.1/DTD/svg11.dtd">
<svg version="1.1" id="Capa_2" xmlns="http://www.w3.org/2000/svg" xmlns:xlink="http://www.w3.org/1999/xlink" x="0px" y="0px"
	 width="127px" height="42px" viewBox="0 0 127 42" enable-background="new 0 0 127 42" xml:space="preserve">
<g id="logo">
	<g id="logo_base_1_">
		<path fill="#FFFFFF" d="M96.022,41.961V17.588c0-5.362,1.405-9.64,4.222-12.818C103.063,1.593,106.81,0,111.488,0
			c4.668,0,8.425,1.593,11.262,4.78c2.836,3.197,4.25,7.456,4.25,12.808v24.374h-10.07V26.686h-9.044v-9.679h9.044v-0.491
			c0-1.978-0.494-3.551-1.471-4.723c-0.988-1.169-2.315-1.76-3.971-1.76c-1.762,0-3.099,0.601-4.019,1.8
			c-0.919,1.201-1.375,2.942-1.375,5.233v24.896H96.022z"/>
		<path fill="#FFFFFF" d="M63.301,41.961v-9.856h13.983c0.814,0,1.444-0.177,1.889-0.522c0.446-0.343,0.668-0.845,0.668-1.495
			c0-0.58-0.222-1.15-0.677-1.712c-0.456-0.57-1.153-1.15-2.102-1.75l-7.805-4.781c-1.772-1.11-3.195-2.547-4.251-4.307
			c-1.056-1.751-1.588-3.562-1.588-5.429c0-1.811,0.3-3.443,0.91-4.91c0.601-1.475,1.501-2.724,2.692-3.766
			c1.112-0.995,2.488-1.703,4.114-2.116c1.627-0.413,4.261-0.619,7.912-0.619h9.277v9.453H77.682c-1.471,0-2.489,0.117-3.05,0.364
			c-0.552,0.236-0.833,0.648-0.833,1.219c0,0.561,0.213,1.112,0.649,1.663c0.435,0.541,1.113,1.092,2.014,1.652l7.631,4.612
			c2.178,1.339,3.834,2.932,4.967,4.781c1.133,1.84,1.706,3.845,1.706,6.019c0,1.87-0.388,3.59-1.163,5.184
			c-0.775,1.603-1.859,2.892-3.234,3.896c-1.211,0.866-2.576,1.484-4.087,1.859c-1.511,0.374-3.913,0.561-7.204,0.561h-0.629H63.301
			z"/>
		<path fill="#FFFFFF" d="M0,41.961v-9.856h13.983c0.813,0,1.443-0.177,1.889-0.522c0.445-0.343,0.668-0.845,0.668-1.495
			c0-0.58-0.223-1.15-0.678-1.712c-0.456-0.57-1.152-1.15-2.102-1.75l-7.805-4.781c-1.772-1.11-3.196-2.547-4.251-4.307
			c-1.055-1.751-1.587-3.562-1.587-5.429c0-1.811,0.3-3.443,0.91-4.91c0.6-1.475,1.5-2.724,2.691-3.766
			c1.114-0.995,2.489-1.703,4.115-2.116c1.627-0.413,4.261-0.619,7.912-0.619h9.278v9.453H14.381c-1.472,0-2.488,0.117-3.05,0.364
			c-0.553,0.236-0.834,0.648-0.834,1.219c0,0.561,0.214,1.112,0.649,1.663c0.436,0.541,1.114,1.092,2.015,1.652l7.63,4.612
			c2.179,1.339,3.835,2.932,4.968,4.781c1.133,1.84,1.705,3.845,1.705,6.019c0,1.87-0.388,3.59-1.163,5.184
			c-0.774,1.603-1.859,2.892-3.234,3.896c-1.21,0.866-2.576,1.484-4.087,1.859c-1.51,0.374-3.912,0.561-7.204,0.561h-0.63H0z"/>
		<path fill="#FFFFFF" d="M55.247,15c-0.548,5-4.77,8.863-9.9,8.863S35.995,20,35.447,15H32v27h26V15H55.247z"/>
		<path fill="#FFFFFF" d="M32,1v12h3.492c0.682-5,4.828-8.565,9.854-8.565S54.52,8,55.201,13H58V1H32z"/>
		<circle fill="#FFCC00" cx="45.347" cy="13.862" r="7.298"/>
	</g>
</g>
</svg>
