<?xml version="1.0" encoding="utf-8"?>
<!-- Generator: Adobe Illustrator 25.0.0, SVG Export Plug-In . SVG Version: 6.00 Build 0)  -->
<svg version="1.1" id="Capa_1" xmlns="http://www.w3.org/2000/svg" xmlns:xlink="http://www.w3.org/1999/xlink" x="0px" y="0px"
	 viewBox="0 0 217.66 80" style="enable-background:new 0 0 217.66 80;" xml:space="preserve">
<style type="text/css">
	.st0{fill:#FFFFFF;}
</style>
<g>
	<path class="st0" d="M59.64,12.01c3.74-4.07,5.71-8.04,12.11-5.83c-3.75,0.6-6.91,3.84-9.32,7.55
		C61.53,13.11,60.59,12.54,59.64,12.01"/>
	<path class="st0" d="M74.35,7.2c-4.29-0.02-7.87,3.46-10.55,7.53c1.08,0.84,2.11,1.75,3.08,2.74c2.78-4.38,6.67-8.31,11.37-8.76
		L74.35,7.2z"/>
	<path class="st0" d="M36.72,75.23c-6.02-0.48-16.2-3.95-17.91-9.74c1.51,0.55,4.68,1.81,6.95,2.65
		C28.89,71.28,32.62,73.73,36.72,75.23"/>
	<path class="st0" d="M19.75,59.89c-3.62-1.54-7.1-3.7-7.89-3.98c1.2,5.52,6.55,8.28,12.07,10.22
		C22.32,64.23,20.92,62.14,19.75,59.89"/>
	<path class="st0" d="M16.9,52.87l-6.18-2.89l0.89,4.32l7.15,3.53C18.02,56.15,17.4,54.7,16.9,52.87"/>
	<path class="st0" d="M9.54,43.89l6.27,3.12c0.17,1.61,0.42,2.81,0.78,4.33l-6.12-2.97L9.54,43.89z"/>
	<path class="st0" d="M4.7,18.27l14.35,8.78c-0.46,1-0.88,2.01-1.26,3.06L5.72,23.59L4.7,18.27z"/>
	<path class="st0" d="M6.18,26l10.83,6.58c-0.23,0.8-0.42,1.62-0.6,2.44l-9.52-5.31L6.18,26z"/>
	<path class="st0" d="M7.4,32.34l8.67,4.58c-0.19,1.25-0.32,2.51-0.39,3.81l-7.49-4.25L7.4,32.34z"/>
	<path class="st0" d="M8.56,38.43l7.06,3.46c0,0.29-0.01,0.58-0.01,0.87c0,0.85,0.03,1.7,0.08,2.55l-6.42-3.12L8.56,38.43z"/>
	<path class="st0" d="M32.91,12.01c-3.73-4.07-5.7-8.04-12.11-5.83c3.76,0.6,6.92,3.84,9.33,7.55
		C31.02,13.11,31.95,12.54,32.91,12.01"/>
	<path class="st0" d="M18.21,7.2c4.29-0.02,7.87,3.46,10.55,7.53c-1.07,0.84-2.11,1.75-3.08,2.74c-2.78-4.38-6.66-8.31-11.37-8.76
		L18.21,7.2z"/>
	<path class="st0" d="M13.03,9.22c1.08-0.05,2.26,0.3,5.01,2.54c2.35,1.89,4.9,4.75,6.62,6.78c-0.93,1.04-1.8,2.14-2.61,3.29
		L8.82,10.85L13.03,9.22z"/>
	<path class="st0" d="M7.12,11.51L21.34,22.9c-0.54,0.85-1.05,1.72-1.53,2.62L2.19,13.43L7.12,11.51z"/>
	<path class="st0" d="M34.33,11.29C31.25,7.47,27.74,3.46,23,4.1c-5.48,0.73-12.42,5.65-22.22,6.42L0.25,8.58
		c4.18-0.67,8.99-2.27,12.21-3.53c8.59-3.38,12.08-5.34,18.09-1.22c2.42,1.66,4.47,4.14,6.06,6.51
		C35.83,10.62,35.08,10.94,34.33,11.29"/>
	<path class="st0" d="M55.99,75.23c6.02-0.48,16.2-3.95,17.92-9.74c-1.51,0.55-4.69,1.81-6.97,2.65
		C63.82,71.28,60.09,73.73,55.99,75.23"/>
	<path class="st0" d="M72.96,59.89c3.63-1.54,7.09-3.7,7.9-3.98c-1.2,5.52-6.56,8.28-12.07,10.22
		C70.38,64.23,71.78,62.14,72.96,59.89"/>
	<path class="st0" d="M75.81,52.87l6.17-2.89l-0.89,4.32l-7.15,3.53C74.69,56.15,75.31,54.7,75.81,52.87"/>
	<path class="st0" d="M83.16,43.89l-6.28,3.12c-0.17,1.61-0.42,2.81-0.78,4.33l6.13-2.97L83.16,43.89z"/>
	<path class="st0" d="M88,18.27l-14.35,8.78c0.46,1,0.88,2.01,1.26,3.06l12.07-6.52L88,18.27z"/>
	<path class="st0" d="M86.52,26L75.7,32.58c0.22,0.8,0.41,1.62,0.59,2.44l9.52-5.31L86.52,26z"/>
	<path class="st0" d="M85.31,32.34l-8.67,4.58c0.19,1.25,0.33,2.51,0.39,3.81l7.48-4.25L85.31,32.34z"/>
	<path class="st0" d="M84.14,38.43l-7.07,3.46c0.01,0.29,0.01,0.58,0.01,0.87c0,0.85-0.03,1.7-0.08,2.55l6.42-3.12L84.14,38.43z"/>
	<path class="st0" d="M79.67,9.22c-1.08-0.05-2.26,0.3-5.02,2.54c-2.34,1.89-4.9,4.75-6.62,6.78c0.93,1.04,1.8,2.14,2.61,3.29
		l13.24-10.98L79.67,9.22z"/>
	<path class="st0" d="M85.59,11.51L71.36,22.9c0.55,0.85,1.05,1.72,1.53,2.62l17.62-12.1L85.59,11.51z"/>
	<path class="st0" d="M58.37,11.29c3.09-3.82,6.6-7.83,11.34-7.19c5.48,0.73,12.41,5.65,22.22,6.42l0.53-1.94
		c-4.18-0.67-8.99-2.27-12.21-3.53c-8.6-3.38-12.08-5.34-18.09-1.22c-2.42,1.66-4.47,4.14-6.06,6.51
		C56.88,10.62,57.63,10.94,58.37,11.29"/>
	<path class="st0" d="M49.59,10.4l2.35,0.06c0.36-0.68,1.15-3.09,2.05-4.33c1.3-1.82,2.92-2.42,4.07-2.76l-0.93-0.9
		C56.67,2.5,55.84,2.7,55.41,2.8c-1.85,0.43-2.92,1.41-3.94,3.33L49.59,10.4z"/>
	<path class="st0" d="M39.45,8.94l1.49,1.78c1.78-2.57,2.5-4.01,4.08-5.59c0.98-0.98,2.93-2.68,4.31-2.42
		c1.95,0.38,6.26-0.44,6.46-0.75c1.86-0.85,2.1-0.14,2.69,0.43l1.25-0.66l-1.01-1.07c-1.42-1.44-3.03-0.12-4.46,0.25
		c-1.83,0.47-3.47,0.16-5.3,0.17c-1.38,0.02-1.28-0.1-3.96,1.51C42.45,4.7,41.07,6.82,39.45,8.94"/>
	<path class="st0" d="M50.1,75.73c0-0.06-0.01-0.11-0.01-0.17c0-0.39,0.04-0.77,0.12-1.14c-1.06,0.27-2.13,0.43-3.24,0.47v1.24v3.73
		h5.01C50.86,78.83,50.15,77.36,50.1,75.73"/>
	<path class="st0" d="M42.51,75.56c0,0.05,0,0.1,0,0.15c-0.04,1.64-0.76,3.12-1.88,4.16h5v-3.73v-1.24
		c-1.1-0.05-2.18-0.21-3.24-0.49C42.46,74.78,42.51,75.16,42.51,75.56"/>
	<path class="st0" d="M73.28,49.59c-1.04,2.79-2.71,3.98-6.65,5.26c3.39-4.73,9.12-4.88,6.73-14.73c-0.62,1.88-2.81,4.34-4.29,4.4
		c0.78-0.67,2.27-2.42,2.82-3.52c1.66-3.32,0.84-6.62,0.36-8.43c-0.36-1.39-0.06,2.91-2.88,3.63c1.68-2.08,2.95-7.55,0.51-12.42
		c-0.63,2.04-1.41,3.53-2.37,4.24c0.62-1.16,1.87-4.54-2.66-10.53c0.24,1.21,0.89,3.16,0.13,3.84c-0.74,0.66-0.92,1.04-1.07,1.88
		c-0.37-0.57-0.78-1.2-1.02-1.53c-0.53-0.72-1.07-1.39-1.64-2.03c-3.65-4.32-8.09-6.91-12.84-7.49c-0.04,0-0.08-0.01-0.12-0.01
		c-0.12-0.02-0.25-0.03-0.37-0.04c-0.06-0.01-0.12-0.01-0.18-0.02c-0.11-0.01-0.22-0.02-0.33-0.02c-0.08-0.01-0.17-0.01-0.25-0.01
		c-0.09-0.01-0.18-0.01-0.28-0.01c-0.15,0-0.3-0.01-0.45-0.01h-0.08h-0.01h-0.01c-5.49,0-10.68,2.66-14.83,7.55
		c-0.58,0.66-1.15,1.36-1.69,2.1c-0.24,0.33-0.66,0.96-1.02,1.53c-0.14-0.83-0.32-1.21-1.07-1.88c-0.75-0.68-0.11-2.63,0.13-3.84
		c-4.54,5.99-3.28,9.37-2.66,10.53c-0.96-0.71-1.74-2.21-2.37-4.24c-2.44,4.88-1.17,10.34,0.51,12.42
		c-2.82-0.72-2.52-5.02-2.88-3.63c-0.48,1.81-1.29,5.11,0.36,8.43c0.55,1.1,2.04,2.85,2.82,3.52c-1.49-0.07-3.67-2.52-4.29-4.4
		c-2.4,9.85,3.34,9.99,6.73,14.73c-3.94-1.28-5.61-2.47-6.65-5.26c-0.06,5.95,1.45,9.93,3.9,12.79c0.73,0.87,2.39,2.75,4.39,3.89
		c2.68,1.52,7.1,3.18,9.24,5.08c3.92,3.46,2.74,8.03-3.31,7.01c3.24,2.13,7.58,0.55,7.83-3.2c0.25-3.64-5.84-7.54-9.61-9.09
		c-1.62-0.66-3.48-1.76-5.18-3.1h0c-2.43-1.99-4.47-5.35-5.25-8.38c3.84,3.73,5.41,0.69,7.92,6.51c-1.07-8.36-5.14-10.06-7.27-12.09
		c-2.14-2.03-1.99-3.17-1.47-4.68c0.09,0.43,0.62,1.7,2.25,1.76c1.63,0.07,2.92,2.18,3.2,4.06c1.98-8.8-4.62-6.52-4.84-13.84
		c1.04,1.47,1.04,1.81,2.56,2.29c1.52,0.48,2.16,1.39,2.02,3.64c0.9-1.61,0.73-3.46-0.61-5.92c-1.04-1.93-3.65-4.8-1.92-8.82
		c0.44,1.28,1.42,1.11,2.33,2.54c0.9,1.43-0.05,2.97-0.1,4.51c1.85-2.41,2.11-4.41,1.19-6.36c-1.83-3.86-0.68-3.94-0.08-6.41
		c1.13,1.03,1.43,2.23,1.45,3.32c0,0.12,0,0.25-0.01,0.39c-0.02,0.64-0.13,1.22-0.19,1.69l-0.18,1.05c1.38-3.21,3.16-6.03,5.23-8.34
		c0.13-0.14,0.26-0.28,0.39-0.41l-0.01-0.01c2.82-3.01,6.16-5.07,9.79-5.85c0.01,0,0.01-0.01,0.02-0.01
		c0.33-0.07,0.66-0.13,0.99-0.18c0.07-0.01,0.15-0.02,0.21-0.03c0.12-0.02,0.25-0.03,0.37-0.04c0.1-0.01,0.21-0.02,0.31-0.03
		c0.07-0.01,0.14-0.01,0.21-0.02c0.15-0.01,0.31-0.02,0.47-0.03c0.05,0,0.1-0.01,0.15-0.01c0.17-0.01,0.33-0.01,0.51-0.01h0.03h0.04
		c0.18,0,0.35,0,0.53,0.01c0.07,0,0.14,0.01,0.21,0.01c0.12,0.01,0.25,0.02,0.37,0.02c0.09,0.01,0.18,0.01,0.27,0.02
		c0.14,0.01,0.28,0.03,0.43,0.04c0.11,0.01,0.21,0.03,0.32,0.04c0.07,0.01,0.13,0.02,0.2,0.03c0.41,0.06,0.81,0.14,1.21,0.24
		c0.01,0,0.02,0,0.02,0c3.5,0.83,6.73,2.86,9.47,5.78l-0.01,0.01c0.14,0.15,0.28,0.3,0.43,0.45c2.05,2.3,3.81,5.11,5.19,8.3
		l-0.18-1.05c-0.07-0.46-0.17-1.05-0.2-1.69c0-0.14,0-0.27,0-0.39c0.02-1.09,0.32-2.29,1.45-3.32c0.6,2.47,1.75,2.55-0.08,6.41
		c-0.92,1.95-0.66,3.96,1.19,6.36c-0.06-1.54-1.01-3.08-0.1-4.51c0.9-1.43,1.88-1.26,2.32-2.54c1.74,4.02-0.87,6.89-1.92,8.82
		c-1.35,2.46-1.51,4.31-0.61,5.92c-0.14-2.25,0.5-3.16,2.02-3.64c1.53-0.48,1.53-0.82,2.57-2.29c-0.23,7.32-6.82,5.04-4.85,13.84
		c0.28-1.88,1.57-3.99,3.2-4.06c1.63-0.06,2.16-1.33,2.25-1.76c0.52,1.51,0.67,2.64-1.47,4.68c-2.14,2.03-6.2,3.73-7.27,12.09
		c2.51-5.82,4.07-2.78,7.92-6.51c-0.78,3.04-2.82,6.4-5.25,8.38c-1.7,1.34-3.56,2.44-5.18,3.1c-3.77,1.54-9.86,5.44-9.61,9.09
		c0.25,3.74,4.6,5.33,7.83,3.2c-6.05,1.02-7.23-3.55-3.31-7.01c2.14-1.9,6.56-3.56,9.24-5.08c2-1.13,3.66-3.02,4.39-3.89
		C71.83,59.52,73.33,55.54,73.28,49.59"/>
	<path class="st0" d="M40.4,66.22c0.13-0.32,0.03-0.76,0.06-1.05c0.01-0.12,0.09-0.22,0.05-0.29c-0.03-0.07-0.18-0.1-0.22-0.18
		c-0.03-0.06-0.13-0.07-0.16-0.13c-0.36-0.89-0.13-1.82-0.14-2.84c0-1.13,0.67-2.95,0.32-3.86c-0.41-1.05-1.54-1.91-2.47-0.99
		c-1.17,1.14-1.25-0.91-1.74-0.18c-0.08-0.02-0.84,1.75-1.4,3.73c-0.73,2.6,0.83,5.31,2.6,7.22c0.16,0.17,1.38-0.18,1.46-0.61
		c0.14-0.77,0.7-0.45,0.7-0.28c0,0.46,0.22,0.88,0.4-0.15C39.91,66.38,40.28,66.51,40.4,66.22"/>
	<path class="st0" d="M40.91,67.4c-0.12,0-0.23,0.16-0.26,0.17c-0.09,0.04-0.59,0.49-0.63,0.79c0.01,0.36,0.11,0.39,0.24,0.47
		c0.04,0.02,0.08,0.05,0.12,0.1c0.2,0.2,0.82,0.1,1.16,0.1c0.16,0,0.26-0.58,0.19-0.74C41.71,68.24,40.96,67.4,40.91,67.4"/>
	<path class="st0" d="M50.57,32.44c0.41,0.32,0.79,0.68,1.13,1.07l1-1.16l7.36-8.55c-0.9-1.29-1.89-2.45-2.96-3.47l-6.47,12.01
		L50.57,32.44z"/>
	<path class="st0" d="M52.59,34.8c0.19,0.35,0.35,0.72,0.48,1.11l6.49-3.56l3.87-2.12c-0.46-1.21-0.98-2.36-1.56-3.45l-6.46,5.57
		L52.59,34.8z"/>
	<path class="st0" d="M49.36,31.69l5.16-13.42c-1.05-0.7-2.16-1.27-3.3-1.7l-2.86,14.71C48.71,31.4,49.03,31.53,49.36,31.69"/>
	<path class="st0" d="M38.66,69.02c0.24-0.24,0.17-0.52,0.14-0.83c-0.02-0.21-0.44-0.33-0.7-0.29c-0.2,0.03-0.28,0.22-0.05,0.71
		c0.04,0.07,0.08,0.22,0.16,0.32c0.07,0.05,0.14,0.09,0.21,0.14C38.49,69.08,38.6,69.07,38.66,69.02"/>
	<path class="st0" d="M46.2,30.95c0.2,0,0.41,0.01,0.6,0.03l1.06-15.18c-0.46-0.05-0.93-0.07-1.4-0.07l-2.38,0.2l1.58,15.05
		C45.84,30.96,46.02,30.95,46.2,30.95 M47.57,15.8L47.57,15.8L47.57,15.8z"/>
	<path class="st0" d="M56.64,53.59l0.13-0.02c0.16-0.02,0.32-0.04,0.44-0.16c0.03-0.03,0.03-0.07,0.02-0.1
		c-0.05-0.14-0.49-0.23-0.51-0.23c-0.04-0.01-0.07-0.01-0.11-0.01c-0.11,0-0.26,0.02-0.4,0.21c-0.1,0.14-0.11,0.17-0.12,0.23
		c0,0.01-0.01,0.02-0.01,0.03l-0.04,0.1h0.1C56.28,53.64,56.49,53.62,56.64,53.59"/>
	<path class="st0" d="M42.32,53.68c0.14,0.08,0.3,0.19,0.44,0.3c0.11,0.09,0.22,0.18,0.29,0.26c0.03,0.02,0.05,0.03,0.07,0.03h0.01
		c0.03,0,0.13-0.01,0.16-0.41c0-0.15-0.05-0.2-0.11-0.29l-0.01-0.02c-0.06-0.08-0.22-0.09-0.43-0.1c-0.04,0-0.07,0-0.1-0.01
		c-0.01,0-0.03,0-0.05,0c-0.07-0.01-0.14-0.02-0.17-0.02c-0.02,0-0.05,0-0.07,0.03c-0.06,0.06-0.06,0.07-0.06,0.16v0.04v0l0.02,0.01
		L42.32,53.68z"/>
	<path class="st0" d="M36.36,54.05c0.05,0.02,0.1,0.03,0.12,0.05c0.06,0.04,0.15,0.05,0.28,0.05c0.06,0,0.12,0,0.17,0
		c0.05,0,0.1,0,0.13,0h0.05c0.08,0,0.12-0.05,0.12-0.12c0-0.15-0.07-0.4-0.51-0.4c-0.05,0-0.54,0.13-0.6,0.18l-0.01,0.03
		c-0.03,0.08-0.01,0.12,0,0.13l0.02,0.03h0.02C36.23,54.02,36.3,54.03,36.36,54.05"/>
	<path class="st0" d="M50.17,53.9c0.03,0,0.06-0.02,0.08-0.03c0.01-0.01,0.02-0.02,0.03-0.02l0.04,0.01l0.03-0.02
		c0.03-0.03,0.05-0.05,0.09-0.07c0.05-0.04,0.11-0.07,0.14-0.12c0.04-0.04,0.29-0.22,0.35-0.23c0.1,0,0.18-0.12,0.18-0.22
		c0-0.05-0.02-0.09-0.05-0.12c-0.03-0.03-0.08-0.05-0.15-0.05h-0.05c-0.26,0-0.6,0-0.77,0.35c-0.07,0.17-0.09,0.29-0.04,0.38
		C50.07,53.84,50.1,53.9,50.17,53.9"/>
	<path class="st0" d="M39.32,35.97c0.14-0.42,0.31-0.81,0.51-1.18l-2.79-2.43l-6.24-5.42c-0.63,1.22-1.2,2.51-1.69,3.87l3.07,1.55
		L39.32,35.97z"/>
	<path class="st0" d="M41,33.18c0.27-0.28,0.57-0.55,0.89-0.79l-0.02-0.04l-6.8-11.45c-0.96,0.99-1.86,2.11-2.68,3.33l7.82,8.12
		L41,33.18z"/>
	<path class="st0" d="M44.51,31.16L40.73,16.9l-2.61,1.44c-0.17,0.11-0.34,0.23-0.5,0.35l5.46,12.97
		C43.53,31.45,44.01,31.27,44.51,31.16"/>
	<path class="st0" d="M38.95,38.79c-0.03-0.24-0.02-0.51-0.02-0.51c0-0.31,0.03-0.61,0.06-0.91l-10.99-2.87
		c-0.21,0.87-0.39,1.76-0.54,2.67l10.86,1.54L38.95,38.79z"/>
	<path class="st0" d="M52.6,64.12c-0.56-0.83-0.75-1.43-0.67-2.21c0-0.05,0.01-0.1,0.02-0.16c0.08-0.59,0.22-1.14,0.4-1.75
		c0.09-0.31,0.18-0.62,0.29-0.97c0.08-0.26,0.1-0.58,0.1-0.89c0-0.27-0.01-0.54-0.01-0.77c0-0.12,0-0.22,0.01-0.31v0
		c-0.06-0.05-0.14-0.12-0.24-0.21c-0.33-0.31-0.82-0.82-0.93-1.03c-0.17-0.27-0.55-0.25-0.69-0.18c-0.07,0.03-0.06,0.15-0.04,0.26
		c0.02,0.1,0.05,0.21,0.04,0.27c0,0.05-0.09,0.12-0.2,0.11c-0.04,0-0.07-0.02-0.12-0.04c-0.17-0.09,0.04-0.36-0.99-0.11
		c-0.13,0.03-0.21-0.02-0.3-0.07c-0.06-0.03-0.11-0.07-0.18-0.09c-0.15-0.05-0.34-0.07-0.46-0.08c-0.07,0-0.13,0.01-0.15,0.02
		c-0.18,0.19-0.3,0.4-0.37,0.63c-0.05,0.17-0.08,0.36-0.08,0.56c-0.04,1.64,1.47,3.91,1.56,5.3c0,0.06,0,0.13,0,0.2
		c0.01,0.69-0.17,1.43-0.49,1.82c-0.13,0.16-0.29,0.27-0.46,0.28c-0.14,0.01-0.22-0.39-0.28-0.8c-0.05-0.34-0.09-0.69-0.12-0.81v0v0
		c0,0-0.01,0.02-0.04,0.04c-0.02,0.02-0.04,0.04-0.08,0.05c-0.02,0.01-0.05,0.02-0.08,0.03c-0.09,0.01-0.34-0.35-0.59-0.69
		c-0.22-0.3-0.43-0.59-0.5-0.58c-0.02,0-0.02,0.02-0.02,0.05c0,0.31-0.11,0.74,0.02,1.63c0.08,0.54,0.26,1.24,0.6,2.18
		c0.12,0.32,0.56,0.75,0.73,0.69c0.02-0.01,0.04-0.02,0.06-0.02c0.15-0.07,0.34-0.18,0.51-0.18c0.14-0.01,0.27,0.06,0.34,0.3
		c0.03,0.08,0.2,0.3,0.33,0.38c0.02,0.01,0.03,0.02,0.05,0.03c0.01,0,0.02,0.01,0.03,0.01c0.05,0.01,0.08-0.02,0.1-0.06
		c0.04-0.08,0.08-0.2,0.22-0.21c0.04,0,0.08,0,0.14,0.02c0.47,0.14,1.34,0.75,1.59,0.43c0.3-0.39,1.01-0.98,1.01-1.42
		C52.66,65.04,52.91,64.6,52.6,64.12"/>
	<path class="st0" d="M65.76,44.4l-9.91-0.3l9.81-0.95l0.1-0.01l-20.03,0.34L26.94,43.8v0.03l9.19,0.71l-9.18,0.41v0.02l11.88,0.5
		l-11.82,0.71v0.03l14.48,0.77l-14.36,0.64v0.01l15.21,0.58l-15.03,0.94c0,0.01,0,0.01,0,0.02l15.26,0.51l-15.03,0.95
		c0,0.01,0.01,0.03,0.01,0.04l14.09,0.78l-1.16,0.05l-12.64,0.59c1.06,4.78,3,9,5.54,12.28c-0.19-0.55-0.24-1.07-0.19-1.51
		c0.19-1.59,1.62-3,2.74-6.26c0.11-0.4,0.32-0.78,0.19-0.84c-0.41-0.18-0.6-0.69-0.92-1.06c-0.19-0.22-0.42-0.38-0.76-0.4
		l-2.15-0.15c-0.12-0.01-0.09-0.12,0.19-0.13l1.68-0.05c1.38-0.04,2.57-2,4.65,0.12c0.2,0.19,0.32,0.39,0.42,0.61
		c0.18,0.43,0.23,0.87,0.38,1.29c0.2,0.53,0.58,0.94,0.99,0.92c0.53-0.08,0.55-0.9,1.14-1.07c0.19-0.06,0.17-0.54,0.21-0.85
		c0-0.07-0.03-0.18-0.08-0.3c-0.19-0.46-0.73-1.21-1.09-1.44c-0.54-0.35-1.17-0.56-1.83-0.74c0.04-0.05,0.14-0.07,0.29-0.06l2.1,0.5
		c1.41,0.34,2.19-0.6,3.65,1.6c0.03,0.05,0.06,0.09,0.09,0.13c0.43,0.66,0.91,1.42,1.24,1.82c0.29,0.34,0.4,0.39,0.68,0.02
		c0.31-0.4,0.77-1.12,1.25-1.84c0.21-0.31,0.41-0.61,0.62-0.9c1.11-1.55,1.82-0.96,3.14-1.27c0.46-0.1,0.97-0.21,1.64-0.39
		c0.18-0.05,0.36-0.1,0.57-0.17c0.2-0.07,0.25,0.01,0.33,0.08c-0.06,0.01-0.18,0.04-0.33,0.08c-0.63,0.19-1.92,0.73-2.31,1.72
		c-0.08,0.23-0.24,0.53-0.29,0.84c-0.05,0.34,0.04,0.68,0.51,0.95c0.52,0.29,0.47,1.24,1.12,0.78c0.29-0.19,0.6-0.47,0.68-0.75
		c0.1-0.33,0.19-0.66,0.29-0.99c0.33-0.92,0.85-1.79,2.11-2.06c0.7-0.15,1.31,0.21,2.47,0.66c0.51,0.19,1.63-0.02,2.34,0.09
		c0.16,0.02,0.23,0.09,0.21,0.15l-2.47,0.17c-0.27,0.02-0.55,0.5-0.91,0.99c-0.16,0.21-0.34,0.42-0.54,0.6
		c0.04,0.92,1.33,2.93,2.21,4.28c0.54,0.82,0.78,2.56,0.69,3.39c2.08-3.11,3.67-6.9,4.58-11.13c-3.36-0.01-7.78-0.15-11.59-0.35
		c-1.29-0.06-2.51-0.14-3.6-0.21l15.38-1l-16.85-0.72l17.16-1.08l-15.95-0.39l16.18-1.13v0l-14.72-0.22l14.81-1.13v0l-12.65-0.29
		L65.76,44.4z"/>
	<path class="st0" d="M60.04,63.37l-0.4-0.36c-0.31-0.16-0.52-0.08-0.62,0.54c-0.22,0.57-0.5,1.41-0.8,2.18
		c0.65-0.72,1.28-1.5,1.86-2.34C60.06,63.39,60.05,63.38,60.04,63.37"/>
	<path class="st0" d="M35,65.04c-0.22-0.24-0.56-0.01-0.43,0.73c0.28,0.31,0.57,0.6,0.85,0.89c-0.09-0.21-0.17-0.45-0.25-0.74
		C35.23,65.7,35.16,65.2,35,65.04"/>
	<path class="st0" d="M57.25,56.13c-0.49-0.73-0.4,1.4-1.57,0.25c-0.94-0.91-2.06-0.06-2.47,1c-0.35,0.91,0.32,2.73,0.32,3.85
		c-0.01,1.08,0.37,2.05-0.09,3.01c-0.06,0.14-0.41,0.18-0.38,0.42c0.04,0.28,0.14,0.78,0.27,1.08c0.13,0.3,0.29,0.13,0.34,0.37
		c0.18,1.02,0.61,0.68,0.57,0.15c-0.01-0.18,0.39-0.49,0.53,0.27c0.08,0.43,1.3,0.78,1.46,0.61c1.77-1.91,3.34-4.61,2.6-7.21
		C58.27,57.96,57.34,56.1,57.25,56.13"/>
	<path class="st0" d="M55.67,67.5c-0.07,0-0.15,0.07-0.25,0.07c-0.08,0-0.29,0.02-0.38,0.02c0.03,0.04-0.2,0.71,0.05,0.96
		c0.23-0.17,0.45-0.34,0.67-0.52c0.04-0.15,0.07-0.31,0.07-0.51C55.83,67.47,55.72,67.5,55.67,67.5"/>
	<path class="st0" d="M53.16,67.17c-0.07-0.09-0.14-0.16-0.23-0.25c-0.04-0.04-0.54,0.47-0.59,0.54c-0.09,0.14-0.3,0.27-0.3,0.43
		c0,0.21-0.12,0.73,0.18,0.73c0.47,0,1.04,0.06,1.45-0.35c0.18-0.18,0.07-0.41-0.04-0.6C53.55,67.54,53.27,67.34,53.16,67.17"/>
	<path class="st0" d="M50.62,67.76c-0.04-0.01-0.08-0.01-0.14-0.01c-0.1,0-0.21,0.01-0.25,0.01h-0.01c-0.4,0-0.68,0.05-1.05,0.1
		c-0.2,0.04-0.39,0.04-0.55,0.01c-0.01,0-0.01,0-0.01,0h0c-0.02,0.08-0.04,0.17-0.05,0.24c-0.08,0.53,0.05,0.89,0.49,0.88h0.02
		c0.36-0.03,0.48-0.01,0.72-0.11c0.03-0.01,0.07-0.03,0.11-0.05c0.15-0.07,0.42-0.41,0.47-0.53c0.04-0.09,0.23-0.34,0.3-0.46
		C50.71,67.8,50.68,67.77,50.62,67.76"/>
	<polygon class="st0" points="47.57,15.8 47.57,15.8 47.58,15.8 	"/>
	<path class="st0" d="M55.93,38.06l9.3-1.25c-0.19-1.08-0.42-2.13-0.7-3.16L54.15,37c-0.38-0.25-6.86-3.48-6.86-3.48L37.11,40
		c0,0,0,0,0.01,0l-0.93,0.03l-9.15,0.73c-0.05,0.69-0.08,1.39-0.09,2.09c1.42-0.12,2.69-0.34,3.79-0.6
		c3.55-0.85,6.26-2.22,6.38-2.25c0.04,0.01,2.28,1.87,8.61-0.68c2.45-0.99,2.54-1.84,2.84-2.09c0.97,0.41,7.29,4.2,17.1,3.11
		c-0.04-0.43-0.08-0.86-0.13-1.28C64.18,39.3,60.84,39.59,55.93,38.06"/>
	<path class="st0" d="M45.15,68.24c-0.02-0.01-0.04-0.01-0.09-0.02c0,0-0.01,0-0.01,0c-0.01,0-0.02,0-0.03,0
		c-0.44-0.08-1.72-0.16-1.85,0c-0.02,0.02-0.02,0.04,0,0.06c0.11,0.27,0.33,0.55,0.59,0.75c0.23,0.18,0.5,0.3,0.76,0.3
		c0.14,0,0.7-0.06,0.74-0.36C45.29,68.78,45.33,68.31,45.15,68.24"/>
	<path class="st0" d="M47.32,67.3c-0.02-0.09-0.06-0.17-0.11-0.26c-0.09-0.16-0.19-0.31-0.19-0.47c0-0.22-0.11-0.45-0.22-0.05
		c-0.08,0.27-0.18,0.44-0.28,0.63c-0.05,0.09-0.09,0.19-0.14,0.32c-0.03,0.07-0.16,0.6-0.14,0.93c0,0.04,0.01,0.07,0.02,0.11
		c0,0,0,0,0,0c0.01,0.05,0.03,0.09,0.05,0.12c0,0,0,0,0,0c0.01,0.01,0.02,0.02,0.02,0.02c0.01,0,0.02,0.01,0.03,0.02c0,0,0,0,0,0
		c0.01,0,0.02,0,0.03,0.01c0.18,0.14,0.64,0.15,0.87,0.08c0.12-0.04,0.2-0.14,0.23-0.27c0.03-0.09,0.04-0.19,0.04-0.3
		c0-0.15-0.02-0.31-0.05-0.44C47.48,67.59,47.34,67.4,47.32,67.3"/>
	<path class="st0" d="M46.32,64.32c-0.04-0.12-0.08-0.23-0.12-0.34c-0.1-0.27-0.19-0.54-0.2-0.82c-0.01-0.11-0.03-0.11-0.08-0.07
		c-0.03,0.03-0.07,0.09-0.11,0.15c-0.09,0.12-0.19,0.27-0.27,0.26c-0.05,0-0.1-0.04-0.13-0.07c0-0.01-0.01-0.01-0.01-0.02
		c-0.02-0.02-0.02-0.04-0.02-0.04l0,0v0c-0.07,0.28-0.1,1.69-0.35,1.69c-0.3,0-0.53-0.19-0.68-0.47c-0.23-0.43-0.32-1.09-0.27-1.72
		c0.07-0.99,0.68-2.34,1.06-3.61c0.17-0.58,0.3-1.13,0.3-1.63c0-0.54-0.13-1.01-0.49-1.36c-0.02-0.03-0.31-0.02-0.53,0.04
		c-0.02,0.01-0.05,0.01-0.07,0.02c-0.18,0.06-0.26,0.21-0.47,0.15c-1.02-0.24-0.83,0.02-0.99,0.12c-0.09,0.05-0.18,0.04-0.24,0.01
		c-0.04-0.02-0.07-0.06-0.07-0.09c-0.02-0.09,0.07-0.3,0.06-0.43c0-0.04-0.02-0.08-0.05-0.09c-0.07-0.04-0.2-0.06-0.33-0.04
		c-0.13,0.02-0.27,0.08-0.36,0.22c-0.08,0.13-0.31,0.39-0.55,0.64c-0.24,0.25-0.49,0.49-0.63,0.59v0c0,0.03,0.01,0.06,0.01,0.09
		c0,0.02,0,0.05,0,0.07v0.03v0.03c0.01,0.5-0.07,1.22,0.09,1.74c0.16,0.53,0.33,0.98,0.48,1.41c0.13,0.38,0.24,0.74,0.3,1.13
		c0,0.04,0.01,0.07,0.02,0.1c0.08,0.6,0.15,1.09-0.02,1.63c-0.07,0.24-0.2,0.48-0.38,0.76c-0.32,0.47-0.17,1.08-0.16,1.82
		c0,0.44,0.73,0.82,1.03,1.21c0.03,0.04,0.07,0.07,0.13,0.09c0.03,0.01,0.05,0.01,0.07,0.02c0.4,0.05,1.13-0.31,1.52-0.43
		c0.11-0.03,0.18-0.03,0.24-0.01c0.1,0.03,0.14,0.11,0.2,0.15c0.04,0.03,0.1,0.04,0.18-0.02c0.13-0.08,0.19-0.32,0.22-0.41
		c0.07-0.24,0.19-0.31,0.33-0.32c0.18,0,0.38,0.11,0.55,0.17c0.02,0.01,0.04,0.01,0.06,0.01c0.14,0,0.25-0.2,0.42-0.45
		C46.53,65.42,46.48,64.84,46.32,64.32"/>
	<path class="st0" d="M112.14,24.51c-0.57-0.56-0.85-1.31-0.85-2.25V15.2c0-0.94,0.28-1.69,0.85-2.25c0.57-0.56,1.32-0.84,2.28-0.84
		c0.95,0,1.71,0.28,2.29,0.85c0.57,0.57,0.86,1.32,0.86,2.26v0.8c0,0.12-0.06,0.18-0.18,0.18h-0.94c-0.12,0-0.19-0.06-0.19-0.18
		v-0.83c0-0.58-0.17-1.05-0.5-1.4c-0.33-0.35-0.78-0.53-1.33-0.53c-0.54,0-0.98,0.18-1.32,0.54c-0.34,0.36-0.51,0.82-0.51,1.39v7.1
		c0,0.57,0.17,1.03,0.51,1.39c0.34,0.36,0.78,0.54,1.32,0.54c0.55,0,1-0.18,1.33-0.53c0.33-0.35,0.5-0.82,0.5-1.4v-2.37
		c0-0.05-0.03-0.07-0.07-0.07h-1.59c-0.12,0-0.19-0.06-0.19-0.18v-0.78c0-0.12,0.06-0.18,0.19-0.18h2.79c0.12,0,0.18,0.06,0.18,0.18
		v3.39c0,0.94-0.29,1.69-0.86,2.25c-0.57,0.56-1.34,0.84-2.29,0.84C113.47,25.36,112.71,25.08,112.14,24.51"/>
	<path class="st0" d="M120.09,24.58c-0.52-0.52-0.79-1.2-0.79-2.05v-3.98c0-0.84,0.27-1.52,0.8-2.05c0.53-0.53,1.23-0.8,2.11-0.8
		c0.89,0,1.6,0.26,2.13,0.8c0.53,0.53,0.8,1.21,0.8,2.05v3.98c0,0.85-0.26,1.54-0.8,2.05c-0.53,0.52-1.24,0.78-2.13,0.78
		C121.32,25.36,120.61,25.1,120.09,24.58 M123.36,23.71c0.3-0.32,0.45-0.75,0.45-1.28v-3.81c0-0.53-0.15-0.96-0.45-1.29
		c-0.3-0.33-0.69-0.49-1.16-0.49c-0.47,0-0.85,0.16-1.15,0.49c-0.3,0.33-0.44,0.76-0.44,1.29v3.81c0,0.53,0.15,0.96,0.44,1.28
		c0.29,0.32,0.68,0.48,1.15,0.48C122.68,24.19,123.06,24.03,123.36,23.71"/>
	<path class="st0" d="M132.24,16.47c0.48,0.51,0.71,1.2,0.71,2.06v4c0,0.84-0.23,1.52-0.7,2.04c-0.47,0.52-1.1,0.79-1.89,0.79
		c-0.33,0-0.65-0.06-0.96-0.19c-0.31-0.13-0.58-0.32-0.81-0.58c-0.02-0.02-0.05-0.03-0.06-0.02c-0.02,0.01-0.03,0.03-0.03,0.06v0.41
		c0,0.12-0.06,0.18-0.19,0.18h-0.94c-0.12,0-0.19-0.06-0.19-0.18V12.44c0-0.12,0.06-0.18,0.19-0.18h0.94c0.12,0,0.19,0.06,0.19,0.18
		v4c0,0.02,0.01,0.04,0.04,0.06c0.02,0.01,0.05,0,0.07-0.04c0.22-0.25,0.49-0.43,0.8-0.56c0.31-0.13,0.63-0.19,0.96-0.19
		C131.14,15.7,131.77,15.96,132.24,16.47 M131.2,17.34c-0.3-0.33-0.68-0.49-1.17-0.49c-0.46,0-0.83,0.16-1.11,0.49
		c-0.28,0.33-0.42,0.76-0.42,1.29v3.83c0,0.52,0.14,0.94,0.42,1.27c0.28,0.33,0.65,0.49,1.11,0.49c0.48,0,0.87-0.16,1.17-0.49
		c0.3-0.33,0.44-0.75,0.44-1.27v-3.83C131.64,18.09,131.5,17.66,131.2,17.34"/>
	<path class="st0" d="M135.06,13.85c-0.19-0.2-0.29-0.44-0.29-0.74c0-0.31,0.09-0.56,0.29-0.75c0.19-0.19,0.44-0.29,0.75-0.29
		c0.3,0,0.54,0.1,0.73,0.29c0.19,0.19,0.29,0.44,0.29,0.75c0,0.3-0.1,0.54-0.29,0.74c-0.19,0.2-0.43,0.3-0.73,0.3
		C135.5,14.15,135.25,14.05,135.06,13.85 M135.16,25.02v-8.99c0-0.12,0.06-0.19,0.18-0.19h0.94c0.12,0,0.19,0.06,0.19,0.19v8.99
		c0,0.12-0.06,0.18-0.19,0.18h-0.94C135.22,25.21,135.16,25.15,135.16,25.02"/>
	<path class="st0" d="M144.26,21.03h-4.22c-0.05,0-0.07,0.03-0.07,0.07v1.35c0,0.52,0.14,0.94,0.43,1.27
		c0.29,0.33,0.67,0.49,1.14,0.49c0.39,0,0.73-0.12,1.01-0.36c0.28-0.24,0.46-0.55,0.55-0.93c0.04-0.11,0.1-0.17,0.2-0.17l0.92,0.04
		c0.05,0,0.09,0.02,0.13,0.06c0.04,0.04,0.05,0.09,0.04,0.15c-0.1,0.73-0.4,1.31-0.9,1.73c-0.5,0.43-1.15,0.64-1.95,0.64
		c-0.87,0-1.58-0.26-2.1-0.78c-0.52-0.52-0.79-1.2-0.79-2.05v-4c0-0.84,0.26-1.52,0.79-2.04c0.52-0.52,1.22-0.79,2.1-0.79
		c0.89,0,1.59,0.26,2.12,0.79c0.52,0.53,0.79,1.21,0.79,2.04v2.31C144.44,20.97,144.38,21.03,144.26,21.03 M140.4,17.34
		c-0.29,0.33-0.43,0.76-0.43,1.29v1.24c0,0.05,0.02,0.07,0.07,0.07h3.03c0.05,0,0.07-0.02,0.07-0.07v-1.24
		c0-0.53-0.15-0.96-0.44-1.29c-0.3-0.33-0.68-0.49-1.17-0.49C141.07,16.85,140.69,17.01,140.4,17.34"/>
	<path class="st0" d="M150.35,15.96c0.09,0.05,0.12,0.13,0.09,0.24l-0.22,0.96c-0.01,0.11-0.09,0.15-0.22,0.11
		c-0.15-0.07-0.33-0.11-0.56-0.11c-0.1,0-0.17,0.01-0.22,0.02c-0.44,0.02-0.81,0.25-1.09,0.69c-0.28,0.44-0.43,0.97-0.43,1.6v5.55
		c0,0.12-0.06,0.18-0.18,0.18h-0.94c-0.12,0-0.18-0.06-0.18-0.18v-8.99c0-0.12,0.06-0.19,0.18-0.19h0.94c0.12,0,0.18,0.06,0.18,0.19
		v1.11c0,0.04,0.01,0.06,0.03,0.06c0.02,0,0.04-0.01,0.07-0.04c0.36-0.94,0.94-1.41,1.76-1.41
		C149.86,15.75,150.12,15.82,150.35,15.96"/>
	<path class="st0" d="M156.87,16.49c0.41,0.52,0.62,1.24,0.62,2.17v6.36c0,0.12-0.06,0.18-0.18,0.18h-0.94
		c-0.12,0-0.18-0.06-0.18-0.18v-6.25c0-0.6-0.13-1.07-0.4-1.41c-0.27-0.33-0.63-0.5-1.1-0.5c-0.49,0-0.88,0.18-1.16,0.54
		c-0.28,0.36-0.42,0.84-0.42,1.46v6.16c0,0.12-0.06,0.18-0.19,0.18h-0.94c-0.12,0-0.19-0.06-0.19-0.18v-8.99
		c0-0.12,0.06-0.19,0.19-0.19h0.94c0.12,0,0.19,0.06,0.19,0.19v0.59c0,0.02,0.01,0.04,0.04,0.06c0.02,0.01,0.04,0,0.05-0.04
		c0.22-0.31,0.5-0.54,0.84-0.69c0.34-0.15,0.7-0.23,1.08-0.23C155.87,15.72,156.45,15.98,156.87,16.49"/>
	<path class="st0" d="M160.21,24.58c-0.52-0.52-0.79-1.2-0.79-2.05v-3.98c0-0.84,0.27-1.52,0.8-2.05c0.53-0.53,1.23-0.8,2.11-0.8
		c0.89,0,1.6,0.26,2.13,0.8c0.53,0.53,0.8,1.21,0.8,2.05v3.98c0,0.85-0.26,1.54-0.8,2.05c-0.53,0.52-1.24,0.78-2.13,0.78
		C161.44,25.36,160.74,25.1,160.21,24.58 M163.49,23.71c0.3-0.32,0.45-0.75,0.45-1.28v-3.81c0-0.53-0.15-0.96-0.45-1.29
		c-0.3-0.33-0.69-0.49-1.16-0.49c-0.47,0-0.85,0.16-1.15,0.49c-0.3,0.33-0.44,0.76-0.44,1.29v3.81c0,0.53,0.15,0.96,0.44,1.28
		c0.3,0.32,0.68,0.48,1.15,0.48C162.8,24.19,163.19,24.03,163.49,23.71"/>
	<path class="st0" d="M175.45,12.26h0.94c0.12,0,0.18,0.06,0.18,0.18v12.58c0,0.12-0.06,0.18-0.18,0.18h-0.94
		c-0.12,0-0.19-0.06-0.19-0.18v-0.41c0-0.02-0.01-0.04-0.03-0.06c-0.02-0.01-0.04-0.01-0.06,0.02c-0.47,0.52-1.06,0.78-1.78,0.78
		c-0.79,0-1.42-0.26-1.89-0.79c-0.47-0.52-0.7-1.21-0.7-2.04v-4c0-0.86,0.23-1.55,0.7-2.06c0.47-0.51,1.1-0.77,1.89-0.77
		c0.73,0,1.32,0.26,1.78,0.8c0.02,0.02,0.05,0.03,0.06,0.02c0.02-0.01,0.03-0.03,0.03-0.06v-4.02
		C175.26,12.32,175.33,12.26,175.45,12.26 M174.83,23.72c0.29-0.33,0.43-0.75,0.43-1.27v-3.83c0-0.53-0.14-0.96-0.43-1.29
		c-0.29-0.33-0.66-0.49-1.12-0.49c-0.47,0-0.85,0.16-1.16,0.49c-0.3,0.33-0.45,0.76-0.45,1.29v3.83c0,0.52,0.15,0.94,0.45,1.27
		c0.3,0.33,0.69,0.49,1.16,0.49C174.17,24.21,174.54,24.05,174.83,23.72"/>
	<path class="st0" d="M184.24,21.03h-4.22c-0.05,0-0.07,0.03-0.07,0.07v1.35c0,0.52,0.14,0.94,0.43,1.27
		c0.29,0.33,0.67,0.49,1.14,0.49c0.39,0,0.73-0.12,1.01-0.36c0.28-0.24,0.46-0.55,0.55-0.93c0.04-0.11,0.1-0.17,0.2-0.17l0.92,0.04
		c0.05,0,0.09,0.02,0.13,0.06c0.04,0.04,0.05,0.09,0.04,0.15c-0.1,0.73-0.4,1.31-0.9,1.73c-0.5,0.43-1.15,0.64-1.95,0.64
		c-0.87,0-1.58-0.26-2.1-0.78c-0.52-0.52-0.79-1.2-0.79-2.05v-4c0-0.84,0.26-1.52,0.79-2.04c0.52-0.52,1.22-0.79,2.1-0.79
		c0.89,0,1.59,0.26,2.12,0.79c0.52,0.53,0.79,1.21,0.79,2.04v2.31C184.42,20.97,184.36,21.03,184.24,21.03 M180.38,17.34
		c-0.29,0.33-0.43,0.76-0.43,1.29v1.24c0,0.05,0.02,0.07,0.07,0.07h3.03c0.05,0,0.07-0.02,0.07-0.07v-1.24
		c0-0.53-0.15-0.96-0.44-1.29c-0.3-0.33-0.68-0.49-1.17-0.49C181.05,16.85,180.67,17.01,180.38,17.34"/>
	<path class="st0" d="M118.05,30.54c0.04,0.04,0.07,0.1,0.07,0.16v1.41c0,0.06-0.02,0.11-0.07,0.16c-0.04,0.04-0.1,0.06-0.16,0.06
		h-2.35c-0.06,0-0.09,0.03-0.09,0.09V43.2c0,0.06-0.02,0.11-0.06,0.16c-0.04,0.04-0.1,0.07-0.16,0.07h-1.7
		c-0.06,0-0.11-0.02-0.16-0.07c-0.04-0.04-0.06-0.1-0.06-0.16V32.42c0-0.06-0.03-0.09-0.09-0.09H111c-0.06,0-0.11-0.02-0.16-0.06
		c-0.04-0.04-0.07-0.1-0.07-0.16v-1.41c0-0.06,0.02-0.11,0.07-0.16c0.04-0.04,0.09-0.06,0.16-0.06h6.9
		C117.96,30.47,118.01,30.49,118.05,30.54"/>
	<path class="st0" d="M119.66,32.3c-0.25-0.25-0.37-0.56-0.37-0.94c0-0.38,0.12-0.7,0.37-0.94c0.25-0.25,0.56-0.37,0.94-0.37
		c0.38,0,0.69,0.12,0.93,0.37c0.24,0.25,0.36,0.56,0.36,0.94c0,0.38-0.12,0.7-0.37,0.94c-0.25,0.25-0.56,0.37-0.92,0.37
		C120.22,32.67,119.9,32.55,119.66,32.3 M119.61,43.36c-0.04-0.04-0.06-0.1-0.06-0.16v-9.01c0-0.06,0.02-0.11,0.06-0.16
		c0.04-0.04,0.1-0.06,0.16-0.06h1.7c0.06,0,0.11,0.02,0.16,0.06c0.04,0.04,0.07,0.1,0.07,0.16v9.01c0,0.06-0.02,0.11-0.07,0.16
		c-0.04,0.04-0.09,0.06-0.16,0.06h-1.7C119.71,43.42,119.65,43.4,119.61,43.36"/>
	<path class="st0" d="M129.78,39.42c-0.04,0.04-0.1,0.06-0.16,0.06h-4.09c-0.06,0-0.09,0.03-0.09,0.09v0.83
		c0,0.38,0.1,0.7,0.31,0.94c0.21,0.25,0.48,0.37,0.81,0.37c0.28,0,0.53-0.09,0.73-0.27c0.2-0.18,0.34-0.41,0.4-0.69
		c0.04-0.12,0.12-0.18,0.24-0.18l1.65,0.07c0.06,0,0.11,0.02,0.16,0.06c0.04,0.04,0.06,0.1,0.05,0.18c-0.09,0.86-0.4,1.53-0.94,1.99
		c-0.54,0.46-1.3,0.69-2.28,0.69c-1.01,0-1.81-0.27-2.4-0.8c-0.59-0.54-0.88-1.27-0.88-2.19v-3.76c0-0.9,0.29-1.62,0.88-2.17
		c0.59-0.55,1.38-0.82,2.4-0.82c1.01,0,1.81,0.27,2.4,0.82c0.59,0.55,0.88,1.27,0.88,2.17v2.44
		C129.85,39.32,129.83,39.37,129.78,39.42 M125.76,36.04c-0.21,0.25-0.31,0.56-0.31,0.94v0.83c0,0.06,0.03,0.09,0.09,0.09h2.09
		c0.06,0,0.09-0.03,0.09-0.09v-0.83c0-0.39-0.11-0.71-0.31-0.95c-0.21-0.24-0.49-0.36-0.83-0.36
		C126.24,35.67,125.97,35.8,125.76,36.04"/>
	<path class="st0" d="M135.97,34.04c0.1,0.06,0.14,0.15,0.11,0.28l-0.29,1.72c-0.01,0.15-0.1,0.19-0.26,0.13
		c-0.17-0.05-0.33-0.07-0.48-0.07c-0.15,0-0.28,0.02-0.41,0.06c-0.35,0.05-0.63,0.24-0.84,0.58c-0.22,0.34-0.32,0.74-0.32,1.21v5.24
		c0,0.06-0.02,0.11-0.07,0.16c-0.04,0.04-0.1,0.06-0.16,0.06h-1.7c-0.06,0-0.11-0.02-0.16-0.06c-0.04-0.04-0.07-0.1-0.07-0.16v-8.99
		c0-0.06,0.02-0.11,0.07-0.16c0.04-0.04,0.09-0.06,0.16-0.06h1.7c0.06,0,0.11,0.02,0.16,0.06c0.04,0.04,0.07,0.1,0.07,0.16v0.85
		c0,0.05,0.01,0.08,0.04,0.08c0.02,0.01,0.04-0.02,0.05-0.06c0.33-0.8,0.88-1.2,1.63-1.2C135.53,33.86,135.79,33.92,135.97,34.04"/>
	<path class="st0" d="M141.76,34.04c0.1,0.06,0.14,0.15,0.11,0.28l-0.3,1.72c-0.01,0.15-0.1,0.19-0.26,0.13
		c-0.17-0.05-0.33-0.07-0.48-0.07c-0.15,0-0.28,0.02-0.41,0.06c-0.35,0.05-0.63,0.24-0.84,0.58c-0.22,0.34-0.32,0.74-0.32,1.21v5.24
		c0,0.06-0.02,0.11-0.07,0.16c-0.04,0.04-0.1,0.06-0.16,0.06h-1.7c-0.06,0-0.11-0.02-0.16-0.06c-0.04-0.04-0.07-0.1-0.07-0.16v-8.99
		c0-0.06,0.02-0.11,0.07-0.16c0.04-0.04,0.09-0.06,0.16-0.06h1.7c0.06,0,0.11,0.02,0.16,0.06c0.04,0.04,0.07,0.1,0.07,0.16v0.85
		c0,0.05,0.01,0.08,0.04,0.08c0.02,0.01,0.04-0.02,0.05-0.06c0.33-0.8,0.88-1.2,1.63-1.2C141.32,33.86,141.58,33.92,141.76,34.04"/>
	<path class="st0" d="M148.42,34.67c0.6,0.57,0.91,1.31,0.91,2.24v6.29c0,0.06-0.02,0.11-0.07,0.16c-0.04,0.04-0.1,0.06-0.16,0.06
		h-1.7c-0.06,0-0.11-0.02-0.16-0.06c-0.04-0.04-0.06-0.1-0.06-0.16v-0.35c0-0.04-0.01-0.06-0.04-0.07c-0.02-0.01-0.05,0-0.07,0.04
		c-0.43,0.51-1.06,0.76-1.89,0.76c-0.7,0-1.32-0.2-1.86-0.6c-0.54-0.4-0.81-1.13-0.81-2.19c0-1.11,0.32-1.9,0.97-2.37
		c0.65-0.47,1.53-0.7,2.64-0.7h0.96c0.06,0,0.09-0.03,0.09-0.09v-0.48c0-0.44-0.11-0.8-0.33-1.06c-0.22-0.27-0.5-0.4-0.83-0.4
		c-0.26,0-0.48,0.08-0.65,0.25c-0.17,0.17-0.28,0.39-0.31,0.68c-0.01,0.15-0.09,0.22-0.24,0.22h-1.79c-0.15,0-0.22-0.07-0.2-0.22
		c0.06-0.84,0.39-1.51,0.99-2.02c0.6-0.51,1.35-0.76,2.25-0.76C147.03,33.82,147.82,34.1,148.42,34.67 M146.76,41.44
		c0.28-0.23,0.43-0.56,0.43-0.98v-1.05c0-0.06-0.03-0.09-0.09-0.09h-0.96c-0.42,0-0.76,0.11-1.02,0.34
		c-0.26,0.23-0.39,0.56-0.39,0.99c0,0.38,0.1,0.67,0.3,0.86c0.2,0.19,0.45,0.29,0.76,0.29C146.15,41.79,146.47,41.68,146.76,41.44"
		/>
	<path class="st0" d="M158.86,30.54c0.04-0.04,0.1-0.06,0.16-0.06h1.7c0.06,0,0.12,0.02,0.16,0.06c0.04,0.04,0.06,0.1,0.06,0.16
		V43.2c0,0.06-0.02,0.11-0.06,0.16c-0.04,0.04-0.1,0.06-0.16,0.06h-1.7c-0.06,0-0.11-0.02-0.16-0.06c-0.04-0.04-0.06-0.1-0.06-0.16
		v-0.22c0-0.04-0.01-0.06-0.04-0.07c-0.03-0.01-0.05-0.01-0.07,0.02c-0.44,0.43-1,0.65-1.67,0.65c-0.83,0-1.47-0.27-1.92-0.81
		c-0.46-0.54-0.68-1.27-0.68-2.18v-3.76c0-0.94,0.23-1.67,0.69-2.2c0.46-0.53,1.1-0.8,1.92-0.8c0.28,0,0.57,0.05,0.87,0.16
		c0.3,0.1,0.56,0.27,0.8,0.51c0.02,0.02,0.05,0.03,0.07,0.02c0.02-0.01,0.04-0.04,0.04-0.07v-3.74
		C158.8,30.63,158.82,30.58,158.86,30.54 M158.43,41.43c0.2-0.19,0.32-0.45,0.37-0.77v-3.94c-0.05-0.32-0.17-0.58-0.37-0.77
		c-0.2-0.19-0.44-0.29-0.74-0.29c-0.35,0-0.62,0.12-0.83,0.36c-0.21,0.24-0.31,0.56-0.31,0.95v3.42c0,0.4,0.11,0.71,0.31,0.95
		c0.21,0.24,0.49,0.36,0.83,0.36C157.99,41.72,158.23,41.63,158.43,41.43"/>
	<path class="st0" d="M168.98,39.42c-0.04,0.04-0.1,0.06-0.16,0.06h-4.09c-0.06,0-0.09,0.03-0.09,0.09v0.83
		c0,0.38,0.1,0.7,0.31,0.94c0.21,0.25,0.48,0.37,0.81,0.37c0.28,0,0.53-0.09,0.73-0.27c0.2-0.18,0.34-0.41,0.4-0.69
		c0.04-0.12,0.12-0.18,0.24-0.18l1.65,0.07c0.06,0,0.11,0.02,0.16,0.06c0.04,0.04,0.06,0.1,0.05,0.18c-0.09,0.86-0.4,1.53-0.94,1.99
		c-0.54,0.46-1.3,0.69-2.28,0.69c-1.01,0-1.81-0.27-2.4-0.8c-0.59-0.54-0.88-1.27-0.88-2.19v-3.76c0-0.9,0.29-1.62,0.88-2.17
		c0.59-0.55,1.38-0.82,2.4-0.82s1.81,0.27,2.4,0.82c0.59,0.55,0.88,1.27,0.88,2.17v2.44C169.05,39.32,169.03,39.37,168.98,39.42
		 M164.96,36.04c-0.21,0.25-0.31,0.56-0.31,0.94v0.83c0,0.06,0.03,0.09,0.09,0.09h2.09c0.06,0,0.09-0.03,0.09-0.09v-0.83
		c0-0.39-0.11-0.71-0.31-0.95c-0.21-0.24-0.49-0.36-0.83-0.36C165.44,35.67,165.17,35.8,164.96,36.04"/>
	<path class="st0" d="M170.52,43.36c-0.04-0.04-0.06-0.1-0.06-0.16V30.69c0-0.06,0.02-0.11,0.06-0.16c0.04-0.04,0.1-0.06,0.16-0.06
		h1.7c0.06,0,0.11,0.02,0.16,0.06c0.04,0.04,0.07,0.1,0.07,0.16V43.2c0,0.06-0.02,0.11-0.07,0.16c-0.04,0.04-0.1,0.06-0.16,0.06
		h-1.7C170.61,43.42,170.56,43.4,170.52,43.36"/>
	<path class="st0" d="M184.43,32.26c-0.04,0.04-0.1,0.06-0.16,0.06h-3.98c-0.06,0-0.09,0.03-0.09,0.09v3.5
		c0,0.06,0.03,0.09,0.09,0.09h2.35c0.06,0,0.11,0.02,0.16,0.06c0.04,0.04,0.07,0.1,0.07,0.16v1.42c0,0.06-0.02,0.11-0.07,0.16
		c-0.04,0.04-0.1,0.06-0.16,0.06h-2.35c-0.06,0-0.09,0.03-0.09,0.09v5.24c0,0.06-0.02,0.11-0.06,0.16c-0.04,0.04-0.1,0.06-0.16,0.06
		h-1.7c-0.06,0-0.12-0.02-0.16-0.06c-0.04-0.04-0.06-0.1-0.06-0.16V30.69c0-0.06,0.02-0.11,0.06-0.16c0.04-0.04,0.1-0.06,0.16-0.06
		h5.99c0.06,0,0.11,0.02,0.16,0.06c0.04,0.04,0.06,0.1,0.06,0.16v1.41C184.49,32.16,184.47,32.21,184.43,32.26"/>
	<path class="st0" d="M189.63,34.03c0.04-0.04,0.1-0.06,0.16-0.06h1.7c0.06,0,0.11,0.02,0.16,0.06c0.04,0.04,0.07,0.1,0.07,0.16
		v9.01c0,0.06-0.02,0.11-0.07,0.16c-0.04,0.04-0.09,0.06-0.16,0.06h-1.7c-0.06,0-0.11-0.02-0.16-0.06c-0.04-0.04-0.06-0.1-0.06-0.16
		v-0.41c0-0.04-0.01-0.06-0.04-0.07c-0.03-0.01-0.05,0-0.08,0.04c-0.36,0.53-0.93,0.8-1.72,0.8c-0.75,0-1.36-0.22-1.82-0.67
		c-0.46-0.45-0.69-1.14-0.69-2.08v-6.6c0-0.06,0.02-0.11,0.06-0.16c0.04-0.04,0.1-0.06,0.16-0.06h1.7c0.06,0,0.11,0.02,0.16,0.06
		c0.04,0.04,0.07,0.1,0.07,0.16v6.14c0,0.93,0.36,1.39,1.07,1.39c0.36,0,0.64-0.13,0.83-0.4c0.2-0.27,0.3-0.63,0.3-1.08v-6.05
		C189.56,34.13,189.59,34.08,189.63,34.03"/>
	<path class="st0" d="M199.73,39.42c-0.04,0.04-0.1,0.06-0.16,0.06h-4.09c-0.06,0-0.09,0.03-0.09,0.09v0.83
		c0,0.38,0.1,0.7,0.31,0.94c0.21,0.25,0.48,0.37,0.81,0.37c0.28,0,0.53-0.09,0.73-0.27c0.2-0.18,0.34-0.41,0.4-0.69
		c0.04-0.12,0.12-0.18,0.24-0.18l1.65,0.07c0.06,0,0.11,0.02,0.16,0.06c0.04,0.04,0.06,0.1,0.05,0.18c-0.09,0.86-0.4,1.53-0.94,1.99
		c-0.54,0.46-1.3,0.69-2.28,0.69c-1.01,0-1.81-0.27-2.4-0.8c-0.59-0.54-0.88-1.27-0.88-2.19v-3.76c0-0.9,0.29-1.62,0.88-2.17
		c0.59-0.55,1.38-0.82,2.4-0.82c1.01,0,1.81,0.27,2.4,0.82c0.59,0.55,0.88,1.27,0.88,2.17v2.44
		C199.79,39.32,199.77,39.37,199.73,39.42 M195.71,36.04c-0.21,0.25-0.31,0.56-0.31,0.94v0.83c0,0.06,0.03,0.09,0.09,0.09h2.09
		c0.06,0,0.09-0.03,0.09-0.09v-0.83c0-0.39-0.11-0.71-0.31-0.95c-0.21-0.24-0.49-0.36-0.83-0.36
		C196.19,35.67,195.92,35.8,195.71,36.04"/>
	<path class="st0" d="M205.57,34.03c0.04-0.04,0.1-0.06,0.16-0.06h1.7c0.06,0,0.11,0.02,0.16,0.06c0.04,0.04,0.07,0.1,0.07,0.16
		v8.88c0,1.33-0.3,2.36-0.91,3.08c-0.6,0.72-1.68,1.08-3.24,1.08c-0.27,0-0.48-0.01-0.61-0.02c-0.15-0.01-0.22-0.09-0.22-0.24v-1.42
		c0-0.16,0.08-0.23,0.24-0.2c0.7,0.01,1.24-0.07,1.62-0.26c0.38-0.19,0.63-0.46,0.77-0.81c0.14-0.36,0.2-0.83,0.2-1.41v-0.2
		c0-0.04-0.01-0.06-0.04-0.06c-0.02-0.01-0.05,0.01-0.07,0.05c-0.41,0.53-0.99,0.8-1.74,0.8c-0.83,0-1.46-0.27-1.89-0.8
		c-0.43-0.54-0.65-1.27-0.65-2.19v-3.63c0-0.95,0.22-1.69,0.66-2.21c0.44-0.53,1.06-0.79,1.88-0.79c0.75,0,1.33,0.27,1.74,0.8
		c0.02,0.04,0.05,0.05,0.07,0.05c0.03-0.01,0.04-0.03,0.04-0.06v-0.41C205.51,34.13,205.53,34.08,205.57,34.03 M205.2,41.23
		c0.2-0.24,0.3-0.55,0.3-0.93v-3.31c0-0.39-0.1-0.71-0.3-0.95c-0.2-0.24-0.47-0.36-0.8-0.36c-0.33,0-0.6,0.12-0.81,0.37
		c-0.21,0.25-0.31,0.56-0.31,0.94v3.31c0,0.38,0.1,0.69,0.31,0.93c0.21,0.24,0.48,0.36,0.81,0.36
		C204.73,41.59,205,41.47,205.2,41.23"/>
	<path class="st0" d="M209.98,42.76c-0.59-0.54-0.88-1.28-0.88-2.2v-3.72c0-0.91,0.3-1.64,0.89-2.19c0.59-0.55,1.39-0.82,2.4-0.82
		c1.02,0,1.83,0.28,2.42,0.82c0.59,0.55,0.89,1.28,0.89,2.19v3.72c0,0.92-0.29,1.66-0.88,2.2c-0.59,0.54-1.4,0.81-2.43,0.81
		C211.37,43.57,210.56,43.3,209.98,42.76 M213.23,41.34c0.22-0.24,0.32-0.56,0.32-0.95v-3.4c0-0.38-0.11-0.7-0.32-0.94
		c-0.22-0.25-0.5-0.37-0.84-0.37c-0.35,0-0.62,0.12-0.83,0.36c-0.21,0.24-0.31,0.56-0.31,0.95v3.4c0,0.39,0.1,0.71,0.31,0.95
		c0.21,0.24,0.49,0.36,0.83,0.36C212.74,41.7,213.02,41.58,213.23,41.34"/>
	<path class="st0" d="M116.27,61.43l-0.35-1.94c0-0.06-0.04-0.09-0.11-0.09h-2.7c-0.07,0-0.11,0.03-0.11,0.09l-0.35,1.94
		c-0.01,0.14-0.09,0.2-0.24,0.2h-1.68c-0.17,0-0.24-0.08-0.2-0.24l2.74-12.5c0.02-0.14,0.11-0.2,0.24-0.2h1.96
		c0.14,0,0.22,0.07,0.24,0.2l2.74,12.5v0.07c0,0.11-0.07,0.17-0.2,0.17h-1.72C116.36,61.64,116.28,61.57,116.27,61.43 M113.42,57.71
		h2.05c0.08,0,0.11-0.03,0.09-0.09l-1.07-5.85c-0.01-0.04-0.03-0.06-0.06-0.06s-0.04,0.02-0.06,0.06l-1.05,5.85
		C113.32,57.68,113.35,57.71,113.42,57.71"/>
	<path class="st0" d="M125.42,52.84c0.41,0.54,0.62,1.3,0.62,2.28v6.29c0,0.06-0.02,0.11-0.07,0.16c-0.04,0.04-0.1,0.06-0.16,0.06
		h-1.7c-0.06,0-0.11-0.02-0.16-0.06c-0.04-0.04-0.06-0.1-0.06-0.16v-6.12c0-0.44-0.09-0.79-0.28-1.03
		c-0.18-0.25-0.45-0.37-0.79-0.37c-0.36,0-0.63,0.13-0.83,0.39c-0.2,0.26-0.3,0.62-0.3,1.07v6.07c0,0.06-0.02,0.11-0.07,0.16
		c-0.04,0.04-0.1,0.06-0.16,0.06h-1.7c-0.06,0-0.11-0.02-0.16-0.06c-0.04-0.04-0.06-0.1-0.06-0.16v-9.01c0-0.06,0.02-0.11,0.06-0.16
		c0.04-0.04,0.1-0.06,0.16-0.06h1.7c0.06,0,0.11,0.02,0.16,0.06c0.04,0.04,0.07,0.1,0.07,0.16v0.37c0,0.04,0.01,0.06,0.05,0.06
		c0.03,0.01,0.06-0.02,0.1-0.06c0.42-0.49,1-0.74,1.76-0.74C124.4,52.04,125,52.3,125.42,52.84"/>
	<path class="st0" d="M131.56,53.64c-0.04,0.04-0.1,0.06-0.16,0.06h-1.15c-0.06,0-0.09,0.03-0.09,0.09v4.85
		c0,0.43,0.08,0.73,0.24,0.9c0.16,0.17,0.4,0.24,0.72,0.23h0.13c0.06,0,0.11,0.02,0.16,0.07c0.04,0.04,0.06,0.1,0.06,0.16v1.42
		c0,0.06-0.02,0.11-0.06,0.16c-0.04,0.04-0.1,0.06-0.16,0.06h-0.63c-0.84,0-1.47-0.15-1.9-0.46c-0.43-0.31-0.64-0.89-0.64-1.74
		v-5.64c0-0.06-0.03-0.09-0.09-0.09h-0.65c-0.06,0-0.11-0.02-0.16-0.06c-0.04-0.04-0.07-0.1-0.07-0.16v-1.07
		c0-0.06,0.02-0.11,0.07-0.16c0.04-0.04,0.09-0.06,0.16-0.06H128c0.06,0,0.09-0.03,0.09-0.09v-2.03c0-0.06,0.02-0.11,0.07-0.16
		c0.04-0.04,0.1-0.06,0.16-0.06h1.63c0.06,0,0.11,0.02,0.16,0.06c0.04,0.04,0.06,0.1,0.06,0.16v2.03c0,0.06,0.03,0.09,0.09,0.09
		h1.15c0.06,0,0.11,0.02,0.16,0.06c0.04,0.04,0.07,0.1,0.07,0.16v1.07C131.62,53.54,131.6,53.59,131.56,53.64"/>
	<path class="st0" d="M138.47,52.89c0.6,0.57,0.91,1.31,0.91,2.24v6.29c0,0.06-0.02,0.11-0.06,0.16c-0.04,0.04-0.1,0.06-0.16,0.06
		h-1.7c-0.06,0-0.11-0.02-0.16-0.06c-0.04-0.04-0.07-0.1-0.07-0.16v-0.35c0-0.04-0.01-0.06-0.04-0.07c-0.02-0.01-0.05,0-0.07,0.04
		c-0.43,0.51-1.06,0.76-1.89,0.76c-0.7,0-1.32-0.2-1.86-0.6c-0.54-0.4-0.8-1.13-0.8-2.19c0-1.11,0.32-1.9,0.97-2.37
		c0.65-0.47,1.53-0.7,2.64-0.7h0.96c0.06,0,0.09-0.03,0.09-0.09v-0.48c0-0.44-0.11-0.8-0.33-1.06c-0.22-0.27-0.5-0.4-0.83-0.4
		c-0.26,0-0.48,0.08-0.65,0.25c-0.17,0.17-0.28,0.39-0.31,0.68c-0.01,0.15-0.09,0.22-0.24,0.22h-1.8c-0.15,0-0.22-0.07-0.2-0.22
		c0.06-0.84,0.39-1.51,0.99-2.02c0.6-0.51,1.35-0.76,2.25-0.76C137.08,52.04,137.87,52.32,138.47,52.89 M136.8,59.66
		c0.28-0.23,0.42-0.56,0.42-0.98v-1.05c0-0.06-0.03-0.09-0.09-0.09h-0.96c-0.42,0-0.76,0.11-1.02,0.34
		c-0.26,0.23-0.39,0.56-0.39,0.99c0,0.38,0.1,0.67,0.3,0.86c0.2,0.19,0.45,0.29,0.76,0.29C136.19,60.01,136.52,59.89,136.8,59.66
		 M135.01,50.93c-0.04-0.05-0.03-0.11,0.02-0.19l1.09-1.9c0.05-0.1,0.14-0.15,0.28-0.15h1.33c0.1,0,0.16,0.03,0.19,0.08
		c0.02,0.06,0.01,0.12-0.04,0.2l-1.37,1.9c-0.06,0.09-0.15,0.13-0.26,0.13h-1.05C135.11,51,135.05,50.98,135.01,50.93"/>
	<path class="st0" d="M145.54,52.26c0.1,0.06,0.14,0.15,0.11,0.28l-0.3,1.72c-0.01,0.15-0.1,0.19-0.26,0.13
		c-0.17-0.05-0.33-0.07-0.48-0.07c-0.15,0-0.28,0.02-0.41,0.06c-0.35,0.05-0.63,0.24-0.84,0.58c-0.22,0.34-0.32,0.74-0.32,1.21v5.23
		c0,0.06-0.02,0.11-0.07,0.16c-0.04,0.04-0.1,0.06-0.16,0.06h-1.7c-0.06,0-0.11-0.02-0.16-0.06c-0.04-0.04-0.07-0.1-0.07-0.16v-8.99
		c0-0.06,0.02-0.11,0.07-0.16c0.04-0.04,0.09-0.06,0.16-0.06h1.7c0.06,0,0.11,0.02,0.16,0.06c0.04,0.04,0.07,0.1,0.07,0.16v0.85
		c0,0.05,0.01,0.08,0.04,0.08c0.02,0.01,0.04-0.02,0.05-0.06c0.33-0.8,0.88-1.2,1.63-1.2C145.09,52.07,145.35,52.14,145.54,52.26"/>
	<path class="st0" d="M150.58,53.64c-0.04,0.04-0.1,0.06-0.16,0.06h-1.15c-0.06,0-0.09,0.03-0.09,0.09v4.85
		c0,0.43,0.08,0.73,0.24,0.9c0.16,0.17,0.4,0.24,0.72,0.23h0.13c0.06,0,0.11,0.02,0.16,0.07c0.04,0.04,0.06,0.1,0.06,0.16v1.42
		c0,0.06-0.02,0.11-0.06,0.16c-0.04,0.04-0.1,0.06-0.16,0.06h-0.63c-0.84,0-1.47-0.15-1.9-0.46c-0.43-0.31-0.64-0.89-0.64-1.74
		v-5.64c0-0.06-0.03-0.09-0.09-0.09h-0.65c-0.06,0-0.11-0.02-0.16-0.06c-0.04-0.04-0.07-0.1-0.07-0.16v-1.07
		c0-0.06,0.02-0.11,0.07-0.16c0.04-0.04,0.09-0.06,0.16-0.06h0.65c0.06,0,0.09-0.03,0.09-0.09v-2.03c0-0.06,0.02-0.11,0.07-0.16
		c0.04-0.04,0.1-0.06,0.16-0.06h1.63c0.06,0,0.11,0.02,0.16,0.06c0.04,0.04,0.06,0.1,0.06,0.16v2.03c0,0.06,0.03,0.09,0.09,0.09
		h1.15c0.06,0,0.11,0.02,0.16,0.06c0.04,0.04,0.07,0.1,0.07,0.16v1.07C150.64,53.54,150.62,53.59,150.58,53.64"/>
	<path class="st0" d="M152.08,50.52c-0.25-0.25-0.37-0.56-0.37-0.94c0-0.38,0.12-0.7,0.37-0.94c0.25-0.25,0.56-0.37,0.94-0.37
		c0.38,0,0.69,0.12,0.93,0.37c0.24,0.25,0.36,0.56,0.36,0.94c0,0.38-0.12,0.7-0.37,0.94c-0.25,0.25-0.56,0.37-0.92,0.37
		C152.65,50.89,152.33,50.77,152.08,50.52 M152.04,61.57c-0.04-0.04-0.06-0.1-0.06-0.16v-9.01c0-0.06,0.02-0.11,0.06-0.16
		c0.04-0.04,0.1-0.06,0.16-0.06h1.7c0.06,0,0.11,0.02,0.16,0.06c0.04,0.04,0.07,0.1,0.07,0.16v9.01c0,0.06-0.02,0.11-0.07,0.16
		c-0.04,0.04-0.09,0.06-0.16,0.06h-1.7C152.13,61.64,152.08,61.62,152.04,61.57"/>
	<path class="st0" d="M160.18,48.75c0.04-0.04,0.1-0.06,0.16-0.06h1.7c0.06,0,0.12,0.02,0.16,0.06c0.04,0.04,0.06,0.1,0.06,0.16
		v12.51c0,0.06-0.02,0.11-0.06,0.16c-0.04,0.04-0.1,0.06-0.16,0.06h-1.7c-0.06,0-0.11-0.02-0.16-0.06c-0.04-0.04-0.06-0.1-0.06-0.16
		v-0.22c0-0.04-0.01-0.06-0.04-0.07c-0.03-0.01-0.05-0.01-0.07,0.02c-0.44,0.43-1,0.65-1.67,0.65c-0.83,0-1.47-0.27-1.92-0.81
		c-0.46-0.54-0.68-1.27-0.68-2.18v-3.76c0-0.94,0.23-1.67,0.69-2.2c0.46-0.53,1.1-0.8,1.92-0.8c0.28,0,0.57,0.05,0.87,0.16
		c0.3,0.11,0.56,0.27,0.8,0.51c0.02,0.02,0.05,0.03,0.07,0.02c0.02-0.01,0.04-0.04,0.04-0.07v-3.74
		C160.11,48.85,160.13,48.8,160.18,48.75 M159.74,59.65c0.2-0.19,0.32-0.45,0.37-0.77v-3.94c-0.05-0.32-0.17-0.58-0.37-0.77
		c-0.2-0.19-0.44-0.29-0.74-0.29c-0.35,0-0.62,0.12-0.83,0.36c-0.21,0.24-0.31,0.56-0.31,0.95v3.42c0,0.39,0.11,0.71,0.31,0.95
		c0.21,0.24,0.49,0.36,0.83,0.36C159.3,59.94,159.55,59.84,159.74,59.65"/>
	<path class="st0" d="M169.55,52.89c0.6,0.57,0.91,1.31,0.91,2.24v6.29c0,0.06-0.02,0.11-0.07,0.16c-0.04,0.04-0.1,0.06-0.16,0.06
		h-1.7c-0.06,0-0.11-0.02-0.16-0.06c-0.04-0.04-0.06-0.1-0.06-0.16v-0.35c0-0.04-0.01-0.06-0.04-0.07c-0.02-0.01-0.05,0-0.07,0.04
		c-0.43,0.51-1.06,0.76-1.89,0.76c-0.7,0-1.32-0.2-1.86-0.6c-0.54-0.4-0.81-1.13-0.81-2.19c0-1.11,0.32-1.9,0.97-2.37
		c0.65-0.47,1.53-0.7,2.64-0.7h0.96c0.06,0,0.09-0.03,0.09-0.09v-0.48c0-0.44-0.11-0.8-0.33-1.06c-0.22-0.27-0.5-0.4-0.83-0.4
		c-0.26,0-0.48,0.08-0.65,0.25c-0.17,0.17-0.28,0.39-0.31,0.68c-0.01,0.15-0.09,0.22-0.24,0.22h-1.79c-0.15,0-0.22-0.07-0.2-0.22
		c0.06-0.84,0.39-1.51,0.99-2.02c0.6-0.5,1.35-0.76,2.25-0.76C168.15,52.04,168.94,52.32,169.55,52.89 M167.88,59.66
		c0.28-0.23,0.43-0.56,0.43-0.98v-1.05c0-0.06-0.03-0.09-0.09-0.09h-0.96c-0.42,0-0.76,0.11-1.02,0.34
		c-0.26,0.23-0.39,0.56-0.39,0.99c0,0.38,0.1,0.67,0.3,0.86c0.2,0.19,0.45,0.29,0.76,0.29C167.27,60.01,167.6,59.89,167.88,59.66"/>
	<path class="st0" d="M182.03,57.63c-0.04,0.04-0.1,0.06-0.16,0.06h-4.09c-0.06,0-0.09,0.03-0.09,0.09v0.83
		c0,0.38,0.1,0.7,0.31,0.94c0.21,0.25,0.48,0.37,0.81,0.37c0.28,0,0.53-0.09,0.73-0.27c0.2-0.18,0.34-0.41,0.4-0.69
		c0.04-0.12,0.12-0.19,0.24-0.19l1.65,0.07c0.06,0,0.11,0.02,0.16,0.06c0.04,0.04,0.06,0.1,0.05,0.18c-0.09,0.86-0.4,1.53-0.94,1.99
		c-0.54,0.46-1.3,0.69-2.28,0.69c-1.01,0-1.81-0.27-2.4-0.8c-0.59-0.54-0.88-1.27-0.88-2.19v-3.76c0-0.9,0.29-1.62,0.88-2.17
		c0.59-0.55,1.38-0.82,2.4-0.82s1.81,0.27,2.4,0.82c0.59,0.55,0.88,1.27,0.88,2.17v2.44C182.09,57.54,182.07,57.59,182.03,57.63
		 M178,54.26c-0.21,0.25-0.31,0.56-0.31,0.94v0.83c0,0.06,0.03,0.09,0.09,0.09h2.09c0.06,0,0.09-0.03,0.09-0.09V55.2
		c0-0.4-0.11-0.71-0.31-0.95c-0.21-0.24-0.49-0.36-0.83-0.36C178.48,53.89,178.21,54.01,178,54.26"/>
	<path class="st0" d="M187.48,61.57c-0.04-0.04-0.06-0.1-0.06-0.16V48.91c0-0.06,0.02-0.11,0.06-0.16c0.04-0.04,0.1-0.07,0.16-0.07
		h1.7c0.06,0,0.11,0.02,0.16,0.07c0.04,0.04,0.07,0.1,0.07,0.16v12.51c0,0.06-0.02,0.11-0.07,0.16c-0.04,0.04-0.09,0.06-0.16,0.06
		h-1.7C187.58,61.64,187.53,61.62,187.48,61.57"/>
	<path class="st0" d="M191.99,61.05c-0.58-0.47-0.87-1.1-0.87-1.91v-0.13c0-0.06,0.02-0.11,0.07-0.16c0.04-0.04,0.09-0.06,0.16-0.06
		h1.59c0.06,0,0.11,0.02,0.16,0.06c0.04,0.04,0.06,0.1,0.06,0.16v0.09c0,0.3,0.11,0.54,0.34,0.74c0.23,0.2,0.51,0.3,0.84,0.3
		c0.32,0,0.57-0.09,0.76-0.28c0.18-0.18,0.28-0.42,0.28-0.7c0-0.25-0.08-0.45-0.24-0.62c-0.16-0.17-0.33-0.29-0.52-0.38
		c-0.18-0.09-0.52-0.23-1-0.43c-0.7-0.27-1.28-0.62-1.73-1.04c-0.45-0.42-0.68-1.04-0.68-1.87c0-0.86,0.27-1.54,0.82-2.03
		c0.55-0.49,1.29-0.73,2.23-0.73c0.96,0,1.72,0.26,2.29,0.77c0.56,0.51,0.84,1.2,0.84,2.06c0,0.06-0.02,0.12-0.06,0.16
		c-0.04,0.04-0.1,0.06-0.16,0.06h-1.55c-0.06,0-0.12-0.02-0.16-0.06c-0.04-0.04-0.07-0.1-0.07-0.16v-0.11c0-0.3-0.1-0.54-0.3-0.74
		c-0.2-0.2-0.46-0.3-0.77-0.3c-0.32,0-0.58,0.1-0.77,0.31c-0.19,0.2-0.29,0.45-0.29,0.73c0,0.23,0.07,0.43,0.22,0.59
		c0.15,0.16,0.31,0.29,0.5,0.38c0.18,0.09,0.49,0.23,0.92,0.42c0.52,0.21,0.95,0.42,1.3,0.62c0.35,0.2,0.66,0.49,0.93,0.87
		c0.27,0.38,0.4,0.84,0.4,1.4c0,0.83-0.29,1.48-0.87,1.96c-0.58,0.48-1.36,0.72-2.35,0.72C193.34,61.75,192.57,61.51,191.99,61.05"
		/>
	<path class="st0" d="M198.77,61.57c-0.04-0.04-0.06-0.1-0.06-0.16V48.91c0-0.06,0.02-0.11,0.06-0.16c0.04-0.04,0.1-0.07,0.16-0.07
		h1.7c0.06,0,0.11,0.02,0.16,0.07c0.04,0.04,0.07,0.1,0.07,0.16v12.51c0,0.06-0.02,0.11-0.07,0.16c-0.04,0.04-0.1,0.06-0.16,0.06
		h-1.7C198.86,61.64,198.81,61.62,198.77,61.57"/>
	<path class="st0" d="M208.04,52.89c0.6,0.57,0.91,1.31,0.91,2.24v6.29c0,0.06-0.02,0.11-0.07,0.16c-0.04,0.04-0.1,0.06-0.16,0.06
		h-1.7c-0.06,0-0.11-0.02-0.16-0.06c-0.04-0.04-0.06-0.1-0.06-0.16v-0.35c0-0.04-0.01-0.06-0.04-0.07c-0.02-0.01-0.05,0-0.07,0.04
		c-0.43,0.51-1.06,0.76-1.89,0.76c-0.7,0-1.32-0.2-1.86-0.6c-0.54-0.4-0.81-1.13-0.81-2.19c0-1.11,0.32-1.9,0.97-2.37
		c0.65-0.47,1.53-0.7,2.64-0.7h0.96c0.06,0,0.09-0.03,0.09-0.09v-0.48c0-0.44-0.11-0.8-0.33-1.06c-0.22-0.27-0.5-0.4-0.83-0.4
		c-0.26,0-0.48,0.08-0.65,0.25c-0.17,0.17-0.28,0.39-0.31,0.68c-0.01,0.15-0.09,0.22-0.24,0.22h-1.79c-0.15,0-0.22-0.07-0.2-0.22
		c0.06-0.84,0.39-1.51,0.99-2.02c0.6-0.5,1.35-0.76,2.25-0.76C206.65,52.04,207.44,52.32,208.04,52.89 M206.38,59.66
		c0.28-0.23,0.43-0.56,0.43-0.98v-1.05c0-0.06-0.03-0.09-0.09-0.09h-0.96c-0.42,0-0.76,0.11-1.02,0.34
		c-0.26,0.23-0.39,0.56-0.39,0.99c0,0.38,0.1,0.67,0.3,0.86c0.2,0.19,0.45,0.29,0.76,0.29C205.77,60.01,206.1,59.89,206.38,59.66"/>
	<path class="st0" d="M211.06,61.05c-0.58-0.47-0.87-1.1-0.87-1.91v-0.13c0-0.06,0.02-0.11,0.07-0.16c0.04-0.04,0.09-0.06,0.16-0.06
		H212c0.06,0,0.11,0.02,0.16,0.06c0.04,0.04,0.06,0.1,0.06,0.16v0.09c0,0.3,0.11,0.54,0.34,0.74c0.23,0.2,0.51,0.3,0.84,0.3
		c0.32,0,0.57-0.09,0.76-0.28c0.19-0.18,0.28-0.42,0.28-0.7c0-0.25-0.08-0.45-0.24-0.62c-0.16-0.17-0.33-0.29-0.52-0.38
		c-0.18-0.09-0.52-0.23-1-0.43c-0.7-0.27-1.28-0.62-1.73-1.04c-0.45-0.42-0.68-1.04-0.68-1.87c0-0.86,0.27-1.54,0.82-2.03
		c0.55-0.49,1.29-0.73,2.23-0.73c0.96,0,1.72,0.26,2.29,0.77c0.56,0.51,0.84,1.2,0.84,2.06c0,0.06-0.02,0.12-0.06,0.16
		c-0.04,0.04-0.1,0.06-0.16,0.06h-1.55c-0.06,0-0.12-0.02-0.16-0.06c-0.04-0.04-0.07-0.1-0.07-0.16v-0.11c0-0.3-0.1-0.54-0.3-0.74
		c-0.2-0.2-0.46-0.3-0.77-0.3c-0.32,0-0.58,0.1-0.77,0.31c-0.19,0.2-0.29,0.45-0.29,0.73c0,0.23,0.07,0.43,0.22,0.59
		c0.15,0.16,0.31,0.29,0.5,0.38c0.18,0.09,0.49,0.23,0.92,0.42c0.52,0.21,0.95,0.42,1.3,0.62c0.35,0.2,0.66,0.49,0.93,0.87
		c0.27,0.38,0.4,0.84,0.4,1.4c0,0.83-0.29,1.48-0.87,1.96c-0.58,0.48-1.36,0.72-2.35,0.72C212.42,61.75,211.64,61.51,211.06,61.05"
		/>
	<path class="st0" d="M115.41,66.97c0.04-0.04,0.1-0.06,0.16-0.06h1.7c0.06,0,0.12,0.02,0.16,0.06c0.04,0.04,0.06,0.1,0.06,0.16
		v12.5c0,0.06-0.02,0.11-0.06,0.16c-0.04,0.04-0.1,0.06-0.16,0.06h-1.7c-0.06,0-0.11-0.02-0.16-0.06c-0.04-0.04-0.06-0.1-0.06-0.16
		v-0.22c0-0.04-0.01-0.06-0.04-0.07c-0.03-0.01-0.05-0.01-0.07,0.02c-0.44,0.43-1,0.65-1.67,0.65c-0.83,0-1.47-0.27-1.92-0.81
		c-0.46-0.54-0.68-1.27-0.68-2.18v-3.76c0-0.94,0.23-1.67,0.69-2.2c0.46-0.53,1.1-0.8,1.92-0.8c0.28,0,0.57,0.05,0.87,0.16
		c0.3,0.1,0.56,0.27,0.8,0.51c0.02,0.02,0.05,0.03,0.07,0.02c0.02-0.01,0.04-0.04,0.04-0.07v-3.74
		C115.34,67.06,115.37,67.01,115.41,66.97 M114.97,77.86c0.2-0.19,0.32-0.45,0.37-0.77v-3.94c-0.05-0.32-0.17-0.58-0.37-0.77
		c-0.2-0.19-0.44-0.29-0.74-0.29c-0.34,0-0.62,0.12-0.83,0.36c-0.21,0.24-0.31,0.56-0.31,0.95v3.42c0,0.39,0.11,0.71,0.31,0.95
		c0.21,0.24,0.49,0.36,0.83,0.36C114.53,78.15,114.78,78.05,114.97,77.86"/>
	<path class="st0" d="M125.53,75.85c-0.04,0.04-0.1,0.06-0.16,0.06h-4.09c-0.06,0-0.09,0.03-0.09,0.09v0.83
		c0,0.38,0.1,0.7,0.31,0.94c0.21,0.25,0.48,0.37,0.81,0.37c0.28,0,0.53-0.09,0.73-0.27c0.2-0.18,0.34-0.41,0.4-0.69
		c0.04-0.12,0.12-0.19,0.24-0.19l1.65,0.07c0.06,0,0.11,0.02,0.16,0.07c0.04,0.04,0.06,0.1,0.05,0.18c-0.09,0.86-0.4,1.53-0.94,1.99
		c-0.54,0.46-1.3,0.69-2.28,0.69c-1.01,0-1.81-0.27-2.4-0.8c-0.59-0.54-0.88-1.27-0.88-2.19v-3.76c0-0.9,0.29-1.62,0.88-2.17
		c0.59-0.55,1.38-0.82,2.4-0.82c1.01,0,1.81,0.27,2.4,0.82c0.59,0.55,0.88,1.27,0.88,2.17v2.44
		C125.59,75.75,125.57,75.8,125.53,75.85 M121.51,72.47c-0.21,0.25-0.31,0.56-0.31,0.94v0.83c0,0.06,0.03,0.09,0.09,0.09h2.09
		c0.06,0,0.09-0.03,0.09-0.09v-0.83c0-0.4-0.11-0.71-0.31-0.95c-0.21-0.24-0.49-0.36-0.83-0.36
		C121.99,72.1,121.71,72.22,121.51,72.47"/>
	<path class="st0" d="M127.06,79.79c-0.04-0.04-0.06-0.1-0.06-0.16v-12.5c0-0.06,0.02-0.11,0.06-0.16c0.04-0.04,0.1-0.06,0.16-0.06
		h1.7c0.06,0,0.11,0.02,0.16,0.06c0.04,0.04,0.07,0.1,0.07,0.16v12.5c0,0.06-0.02,0.11-0.07,0.16c-0.04,0.04-0.1,0.06-0.16,0.06
		h-1.7C127.16,79.85,127.11,79.83,127.06,79.79"/>
	<path class="st0" d="M139.62,79.65l-0.35-1.94c0-0.06-0.04-0.09-0.11-0.09h-2.7c-0.07,0-0.11,0.03-0.11,0.09l-0.35,1.94
		c-0.01,0.14-0.09,0.2-0.24,0.2h-1.68c-0.17,0-0.24-0.08-0.2-0.24l2.74-12.51c0.02-0.14,0.11-0.2,0.24-0.2h1.96
		c0.14,0,0.22,0.07,0.24,0.2l2.74,12.51v0.07c0,0.11-0.07,0.17-0.2,0.17h-1.72C139.71,79.85,139.63,79.78,139.62,79.65
		 M136.77,75.93h2.05c0.08,0,0.11-0.03,0.09-0.09l-1.07-5.85c-0.01-0.04-0.03-0.06-0.06-0.06c-0.02,0-0.04,0.02-0.06,0.06
		l-1.05,5.85C136.66,75.9,136.69,75.93,136.77,75.93"/>
	<path class="st0" d="M146.69,71.85c-0.04,0.04-0.1,0.06-0.16,0.06h-1.15c-0.06,0-0.09,0.03-0.09,0.09v4.85
		c0,0.43,0.08,0.73,0.24,0.9c0.16,0.17,0.4,0.24,0.72,0.23h0.13c0.06,0,0.11,0.02,0.16,0.06c0.04,0.04,0.06,0.1,0.06,0.16v1.42
		c0,0.06-0.02,0.11-0.06,0.16c-0.04,0.04-0.1,0.06-0.16,0.06h-0.63c-0.84,0-1.47-0.15-1.9-0.46c-0.43-0.31-0.64-0.89-0.64-1.74
		v-5.64c0-0.06-0.03-0.09-0.09-0.09h-0.65c-0.06,0-0.11-0.02-0.16-0.06c-0.04-0.04-0.07-0.1-0.07-0.16v-1.07
		c0-0.06,0.02-0.11,0.07-0.16c0.04-0.04,0.09-0.06,0.16-0.06h0.65c0.06,0,0.09-0.03,0.09-0.09v-2.03c0-0.06,0.02-0.11,0.07-0.16
		c0.04-0.04,0.1-0.06,0.16-0.06h1.63c0.06,0,0.11,0.02,0.16,0.06c0.04,0.04,0.06,0.1,0.06,0.16v2.03c0,0.06,0.03,0.09,0.09,0.09
		h1.15c0.06,0,0.11,0.02,0.16,0.06c0.04,0.04,0.07,0.1,0.07,0.16v1.07C146.76,71.75,146.74,71.81,146.69,71.85"/>
	<path class="st0" d="M148.01,79.79c-0.04-0.04-0.06-0.1-0.06-0.16v-12.5c0-0.06,0.02-0.11,0.06-0.16c0.04-0.04,0.1-0.06,0.16-0.06
		h1.7c0.06,0,0.11,0.02,0.16,0.06c0.04,0.04,0.07,0.1,0.07,0.16v12.5c0,0.06-0.02,0.11-0.07,0.16c-0.04,0.04-0.1,0.06-0.16,0.06
		h-1.7C148.1,79.85,148.05,79.83,148.01,79.79"/>
	<path class="st0" d="M157.28,71.1c0.6,0.57,0.91,1.31,0.91,2.24v6.29c0,0.06-0.02,0.11-0.06,0.16c-0.04,0.04-0.1,0.06-0.16,0.06
		h-1.7c-0.06,0-0.11-0.02-0.16-0.06c-0.04-0.04-0.07-0.1-0.07-0.16v-0.35c0-0.04-0.01-0.06-0.04-0.07c-0.02-0.01-0.05,0-0.07,0.04
		c-0.43,0.51-1.06,0.76-1.89,0.76c-0.7,0-1.32-0.2-1.86-0.6c-0.54-0.4-0.8-1.13-0.8-2.19c0-1.11,0.32-1.9,0.97-2.37
		c0.65-0.47,1.53-0.7,2.64-0.7h0.96c0.06,0,0.09-0.03,0.09-0.09v-0.48c0-0.44-0.11-0.8-0.33-1.06c-0.22-0.27-0.5-0.4-0.83-0.4
		c-0.26,0-0.48,0.08-0.65,0.25c-0.17,0.17-0.28,0.39-0.31,0.68c-0.01,0.15-0.09,0.22-0.24,0.22h-1.8c-0.15,0-0.22-0.07-0.2-0.22
		c0.06-0.84,0.39-1.51,0.99-2.02c0.6-0.51,1.35-0.76,2.25-0.76C155.89,70.25,156.68,70.53,157.28,71.1 M155.62,77.87
		c0.28-0.23,0.43-0.56,0.43-0.98v-1.05c0-0.06-0.03-0.09-0.09-0.09h-0.96c-0.42,0-0.76,0.11-1.02,0.34
		c-0.26,0.23-0.39,0.56-0.39,0.99c0,0.38,0.1,0.67,0.3,0.86c0.2,0.19,0.45,0.29,0.76,0.29C155.01,78.22,155.33,78.11,155.62,77.87
		 M153.82,69.14c-0.04-0.05-0.03-0.11,0.02-0.19l1.09-1.9c0.05-0.1,0.14-0.15,0.28-0.15h1.33c0.1,0,0.16,0.03,0.18,0.08
		c0.02,0.06,0.01,0.12-0.04,0.19l-1.37,1.91c-0.06,0.09-0.15,0.13-0.26,0.13h-1.05C153.92,69.21,153.86,69.19,153.82,69.14"/>
	<path class="st0" d="M165.58,71.05c0.41,0.54,0.62,1.3,0.62,2.28v6.29c0,0.06-0.02,0.11-0.07,0.16c-0.04,0.04-0.1,0.06-0.16,0.06
		h-1.7c-0.06,0-0.11-0.02-0.16-0.06c-0.04-0.04-0.06-0.1-0.06-0.16v-6.12c0-0.44-0.09-0.79-0.28-1.04
		c-0.18-0.25-0.45-0.37-0.79-0.37c-0.36,0-0.63,0.13-0.83,0.39c-0.2,0.26-0.3,0.62-0.3,1.07v6.07c0,0.06-0.02,0.11-0.07,0.16
		c-0.04,0.04-0.1,0.06-0.16,0.06h-1.7c-0.06,0-0.11-0.02-0.16-0.06c-0.04-0.04-0.06-0.1-0.06-0.16v-9.01c0-0.06,0.02-0.11,0.06-0.16
		c0.04-0.04,0.1-0.06,0.16-0.06h1.7c0.06,0,0.11,0.02,0.16,0.06c0.04,0.04,0.07,0.1,0.07,0.16v0.37c0,0.04,0.01,0.06,0.05,0.06
		c0.03,0.01,0.06-0.02,0.1-0.06c0.42-0.49,1-0.74,1.76-0.74C164.56,70.25,165.17,70.52,165.58,71.05"/>
	<path class="st0" d="M171.72,71.85c-0.04,0.04-0.1,0.06-0.16,0.06h-1.15c-0.06,0-0.09,0.03-0.09,0.09v4.85
		c0,0.43,0.08,0.73,0.24,0.9c0.16,0.17,0.4,0.24,0.72,0.23h0.13c0.06,0,0.11,0.02,0.16,0.06c0.04,0.04,0.06,0.1,0.06,0.16v1.42
		c0,0.06-0.02,0.11-0.06,0.16c-0.04,0.04-0.1,0.06-0.16,0.06h-0.63c-0.84,0-1.47-0.15-1.9-0.46c-0.43-0.31-0.64-0.89-0.64-1.74
		v-5.64c0-0.06-0.03-0.09-0.09-0.09h-0.65c-0.06,0-0.11-0.02-0.16-0.06c-0.04-0.04-0.07-0.1-0.07-0.16v-1.07
		c0-0.06,0.02-0.11,0.07-0.16c0.04-0.04,0.09-0.06,0.16-0.06h0.65c0.06,0,0.09-0.03,0.09-0.09v-2.03c0-0.06,0.02-0.11,0.07-0.16
		c0.04-0.04,0.1-0.06,0.16-0.06h1.63c0.06,0,0.11,0.02,0.16,0.06c0.04,0.04,0.06,0.1,0.06,0.16v2.03c0,0.06,0.03,0.09,0.09,0.09
		h1.15c0.06,0,0.11,0.02,0.16,0.06c0.04,0.04,0.07,0.1,0.07,0.16v1.07C171.79,71.75,171.76,71.81,171.72,71.85"/>
	<path class="st0" d="M173.23,68.73c-0.25-0.25-0.37-0.56-0.37-0.94c0-0.38,0.12-0.7,0.37-0.94c0.25-0.25,0.56-0.37,0.94-0.37
		c0.38,0,0.69,0.12,0.93,0.37c0.24,0.25,0.36,0.56,0.36,0.94c0,0.38-0.12,0.7-0.37,0.94c-0.25,0.25-0.56,0.37-0.92,0.37
		C173.79,69.1,173.48,68.98,173.23,68.73 M173.18,79.79c-0.04-0.04-0.06-0.1-0.06-0.16v-9.01c0-0.06,0.02-0.11,0.06-0.16
		c0.04-0.04,0.1-0.06,0.16-0.06h1.7c0.06,0,0.11,0.02,0.16,0.06c0.04,0.04,0.07,0.1,0.07,0.16v9.01c0,0.06-0.02,0.11-0.07,0.16
		c-0.04,0.04-0.09,0.06-0.16,0.06h-1.7C173.28,79.85,173.23,79.83,173.18,79.79"/>
	<path class="st0" d="M177.75,79.19c-0.59-0.54-0.88-1.28-0.88-2.2v-3.74c0-0.9,0.29-1.62,0.88-2.17c0.59-0.55,1.38-0.82,2.4-0.82
		s1.81,0.27,2.41,0.8c0.59,0.54,0.89,1.22,0.89,2.05v0.26c0,0.06-0.02,0.11-0.07,0.16c-0.04,0.04-0.09,0.06-0.16,0.06l-1.7,0.07
		c-0.15,0-0.22-0.07-0.22-0.22v-0.19c0-0.31-0.11-0.58-0.32-0.8c-0.22-0.23-0.49-0.34-0.82-0.34s-0.6,0.12-0.81,0.37
		c-0.21,0.25-0.31,0.56-0.31,0.94v3.42c0,0.38,0.1,0.7,0.31,0.94c0.21,0.25,0.48,0.37,0.81,0.37s0.61-0.12,0.82-0.34
		c0.21-0.23,0.32-0.5,0.32-0.82V76.8c0-0.06,0.02-0.11,0.06-0.16c0.04-0.04,0.1-0.06,0.16-0.06l1.7,0.02c0.06,0,0.11,0.02,0.16,0.06
		c0.04,0.04,0.07,0.1,0.07,0.16v0.33c0,0.85-0.3,1.54-0.89,2.06c-0.59,0.52-1.39,0.79-2.41,0.79S178.34,79.73,177.75,79.19"/>
	<path class="st0" d="M185.56,79.19c-0.59-0.54-0.88-1.28-0.88-2.2v-3.72c0-0.91,0.3-1.64,0.89-2.19c0.59-0.55,1.39-0.82,2.41-0.82
		c1.02,0,1.83,0.28,2.42,0.82c0.59,0.55,0.89,1.28,0.89,2.19v3.72c0,0.92-0.29,1.66-0.88,2.2c-0.59,0.54-1.4,0.81-2.43,0.81
		C186.95,80,186.14,79.73,185.56,79.19 M188.82,77.77c0.22-0.24,0.32-0.56,0.32-0.95v-3.4c0-0.38-0.11-0.7-0.32-0.94
		c-0.22-0.25-0.5-0.37-0.84-0.37c-0.35,0-0.62,0.12-0.83,0.36c-0.21,0.24-0.31,0.56-0.31,0.95v3.4c0,0.4,0.1,0.71,0.31,0.95
		c0.21,0.24,0.49,0.36,0.83,0.36C188.32,78.13,188.6,78.01,188.82,77.77"/>
	<path class="st0" d="M197.24,79.07c-0.63-0.62-0.94-1.42-0.94-2.42v-0.48c0-0.06,0.02-0.11,0.07-0.16c0.04-0.04,0.1-0.06,0.16-0.06
		h1.68c0.06,0,0.11,0.02,0.16,0.06c0.04,0.04,0.07,0.1,0.07,0.16v0.37c0,0.48,0.12,0.87,0.36,1.17c0.24,0.3,0.55,0.44,0.93,0.44
		c0.38,0,0.7-0.14,0.94-0.42c0.25-0.28,0.37-0.64,0.37-1.1c0-0.32-0.07-0.6-0.2-0.83c-0.14-0.23-0.33-0.46-0.57-0.67
		c-0.25-0.21-0.64-0.51-1.18-0.91c-0.62-0.44-1.11-0.84-1.49-1.18c-0.38-0.35-0.69-0.76-0.94-1.25c-0.25-0.49-0.38-1.05-0.38-1.69
		c0-1.02,0.31-1.84,0.93-2.44c0.62-0.6,1.43-0.91,2.44-0.91c1.02,0,1.85,0.32,2.48,0.95c0.63,0.64,0.94,1.48,0.94,2.53v0.44
		c0,0.06-0.02,0.11-0.07,0.16c-0.04,0.04-0.1,0.06-0.16,0.06h-1.66c-0.06,0-0.11-0.02-0.16-0.06c-0.04-0.04-0.06-0.1-0.06-0.16
		v-0.48c0-0.48-0.12-0.87-0.36-1.16c-0.24-0.29-0.56-0.43-0.95-0.43c-0.37,0-0.67,0.13-0.91,0.4c-0.23,0.26-0.35,0.63-0.35,1.1
		c0,0.45,0.13,0.82,0.38,1.13c0.25,0.31,0.75,0.73,1.49,1.28c0.75,0.55,1.32,1.01,1.7,1.36c0.38,0.35,0.68,0.74,0.89,1.16
		c0.21,0.42,0.32,0.92,0.32,1.5c0,1.05-0.32,1.89-0.94,2.52c-0.63,0.64-1.45,0.95-2.48,0.95C198.7,80,197.87,79.69,197.24,79.07"/>
	<path class="st0" d="M208.89,70.46c0.04-0.04,0.1-0.06,0.16-0.06h1.7c0.06,0,0.11,0.02,0.16,0.06c0.04,0.04,0.07,0.1,0.07,0.16
		v9.01c0,0.06-0.02,0.11-0.07,0.16c-0.04,0.04-0.09,0.06-0.16,0.06h-1.7c-0.06,0-0.11-0.02-0.16-0.06c-0.04-0.04-0.06-0.1-0.06-0.16
		v-0.41c0-0.04-0.01-0.06-0.04-0.07c-0.03-0.01-0.05,0-0.08,0.04c-0.36,0.53-0.93,0.8-1.72,0.8c-0.75,0-1.36-0.22-1.82-0.68
		c-0.46-0.45-0.69-1.14-0.69-2.08v-6.6c0-0.06,0.02-0.11,0.06-0.16c0.04-0.04,0.1-0.06,0.16-0.06h1.7c0.06,0,0.11,0.02,0.16,0.06
		c0.04,0.04,0.07,0.1,0.07,0.16v6.14c0,0.92,0.36,1.39,1.07,1.39c0.36,0,0.63-0.13,0.83-0.4c0.2-0.26,0.3-0.63,0.3-1.08v-6.05
		C208.82,70.56,208.84,70.51,208.89,70.46"/>
	<path class="st0" d="M217.29,70.47c0.1,0.06,0.14,0.15,0.11,0.28l-0.3,1.72c-0.01,0.15-0.1,0.19-0.26,0.13
		c-0.17-0.05-0.33-0.07-0.48-0.07c-0.15,0-0.28,0.02-0.41,0.06c-0.35,0.05-0.63,0.24-0.84,0.58c-0.22,0.34-0.32,0.74-0.32,1.21v5.23
		c0,0.06-0.02,0.11-0.07,0.16c-0.04,0.04-0.1,0.06-0.16,0.06h-1.7c-0.06,0-0.11-0.02-0.16-0.06c-0.04-0.04-0.07-0.1-0.07-0.16v-8.99
		c0-0.06,0.02-0.11,0.07-0.16c0.04-0.04,0.09-0.06,0.16-0.06h1.7c0.06,0,0.11,0.02,0.16,0.06c0.04,0.04,0.07,0.1,0.07,0.16v0.85
		c0,0.05,0.01,0.08,0.04,0.08c0.02,0.01,0.04-0.02,0.05-0.06c0.33-0.8,0.88-1.2,1.63-1.2C216.85,70.29,217.11,70.35,217.29,70.47"/>
</g>
</svg>
