<?xml version="1.0" encoding="utf-8"?>
<!-- Generator: Adobe Illustrator 19.0.0, SVG Export Plug-In . SVG Version: 6.00 Build 0)  -->
<svg version="1.1" id="Capa_1" xmlns="http://www.w3.org/2000/svg" xmlns:xlink="http://www.w3.org/1999/xlink" x="0px" y="0px"
	 viewBox="0 0 220 70" style="enable-background:new 0 0 220 70;" xml:space="preserve">
<style type="text/css">
	.st0{fill:#FFFFFF;}
</style>
<g id="XMLID_1_">
	<path class="st0" d="M67.3,33c7.7-1.2,14.2-3.6,19.9-7.1C80.7,28.6,74.1,31,67.3,33 M50.5,33.1L50.5,33.1c1.6-3.4,4.9-6,9.7-7.9
		C56.2,26.7,52.7,29.2,50.5,33.1z M49.5,35.9c0.1-0.4,0.2-0.7,0.3-1c0.6-0.3,1.3-0.7,2-1c2.2-0.9,4.5-1.7,6.6-2.2
		c0.2-0.1,0.4,0.1,0.5,0.3c0.1,0.2-0.1,0.4-0.3,0.5c-2,0.5-4.3,1.2-6.4,2.1C51.2,35,50.3,35.5,49.5,35.9z M49,41.6
		c0-0.3,0-0.6,0-0.9c1-0.7,2.2-1.3,3.4-1.8c2.1-0.9,4.4-1.7,6.4-2.2c0.2-0.1,0.4,0.1,0.5,0.3s-0.1,0.4-0.3,0.5
		c-2,0.5-4.3,1.2-6.4,2.1C51.3,40.2,50,40.9,49,41.6z M49.5,45.7c1.2-0.8,2.5-1.5,3.8-2.1c2-0.9,4-1.6,6-2c0.2-0.1,0.4,0.1,0.5,0.3
		c0.1,0.2-0.1,0.4-0.3,0.5c-2,0.5-4,1.1-5.9,2c-1.2,0.5-2.8,1.5-3.9,2.3L49.5,45.7z M50.5,33.2c-3.2-12.4-3.6-18,5.8-22.6
		c3.4-1.6,12.6-4,18-5c5.2-1,10.3-2.3,14.4-5.6c0.3,1,0.7,3.1,0.8,4.5c-1.5,0.4-3.1,0.7-4.6,0.9c-0.2,0-0.4,0.2-0.3,0.4
		c0,0.2,0.2,0.4,0.4,0.3c2.1-0.2,4.2-0.7,6.3-1.3c1.4-0.5,2.8-1,4.1-1.6c0.2,1.5,0.2,2.9,0.1,4.2c-1.2,0.6-2.5,1.2-3.9,1.6
		c-2.1,0.7-4.5,1.2-6.5,1.4c-0.2,0-0.4,0.2-0.3,0.4c0,0.2,0.2,0.4,0.4,0.3c2.1-0.2,4.5-0.7,6.7-1.4c1.3-0.4,2.5-0.9,3.6-1.4
		c-0.2,1.7-0.5,3.3-1,4.6c-0.9,0.4-1.9,0.8-2.9,1c-2.3,0.7-4.5,1.2-6.7,1.4c-0.2,0-0.4,0.2-0.3,0.4c0,0.2,0.2,0.4,0.4,0.3
		c2.1-0.2,4.5-0.7,6.8-1.4c0.8-0.2,1.5-0.5,2.3-0.8c-0.4,0.8-0.9,1.5-1.3,2.2l0,0c-0.1,0.1-0.2,0.2-0.2,0.2v0.1
		c-0.1,0.1-0.2,0.2-0.2,0.2l0,0c-0.2,0.2-0.2,0.3-0.3,0.4l0,0c-0.1,0.1-0.2,0.2-0.2,0.2l0,0c-0.1,0.1-0.2,0.2-0.2,0.2l0,0
		c-0.1,0.1-0.2,0.2-0.2,0.2l0,0c-0.1,0.1-0.2,0.2-0.2,0.2l0,0c-0.1,0.1-0.2,0.2-0.2,0.2l0,0c-0.1,0.1-0.2,0.2-0.2,0.2l0,0
		c-0.1,0.1-0.2,0.1-0.2,0.2l0,0c-0.1,0.1-0.2,0.1-0.2,0.2l0,0c-0.1,0.1-0.2,0.1-0.2,0.2l0,0c-0.1,0.1-0.2,0.1-0.2,0.2l0,0
		c-0.1,0.1-0.2,0.1-0.2,0.2l0,0c-0.1,0.1-0.2,0.1-0.3,0.2l0,0c-0.5,0.3-0.5,0.4-0.6,0.4l0,0c-0.1,0.1-0.2,0.1-0.3,0.2l0,0
		c-0.1,0.1-0.2,0.1-0.3,0.2l0,0c-0.1,0.1-0.2,0.1-0.3,0.2l0,0c-0.1,0.1-0.2,0.1-0.3,0.2l0,0l0,0c-0.1,0-0.2,0.1-0.3,0.1l0,0l0,0
		c-0.1,0-0.2,0.1-0.3,0.1l0,0l0,0c-0.1,0-0.2,0.1-0.3,0.1l0,0l0,0l0,0c-0.1,0-0.2,0.1-0.3,0.1l0,0l0,0l0,0c-0.1,0-0.2,0.1-0.3,0.1
		l0,0l0,0c-0.1,0-0.2,0.1-0.3,0.1l0,0l0,0l0,0c-0.1,0-0.2,0.1-0.3,0.1l0,0l0,0c-0.2,0-0.2,0.1-0.4,0.1l0,0l0,0l0,0
		c-0.2,0-0.2,0.1-0.4,0.1l0,0l0,0c-0.2,0-0.2,0.1-0.4,0.1l0,0l0,0c-0.2,0-0.2,0-0.4,0.1l0,0c-0.2,0-0.2,0-0.4,0.1h-0.1h-0.1l-0.2,0
		h-0.1h-0.1h-0.1h-0.1h-0.1l0,0h-0.1H82h-0.1l0,0h-0.1h-0.1h-0.1h-0.1l0,0l0,0h-0.2h-0.1l0,0h-0.1H81l0,0H81h-0.1h-0.1l0,0h-0.1
		h-0.1h-0.1h-0.1l0,0h-0.1h-0.1h-0.1l0,0h-0.1h-0.1h-0.2h-0.1h-0.1h-0.1l0,0h-0.1h-0.1h-0.1h-0.1h-0.1h-0.1h-0.1h-0.1l0,0H79h-0.1
		h-0.1h-0.2l0,0h-0.1h-0.1h-0.1h-0.1h-0.1h-0.2h-0.1l-1,0.8H77h-0.1h-0.1h-0.1h-0.1c-5,0.8-10,1.4-14.2,2.7
		C57.5,25.9,53,28.6,50.5,33.2z M58.8,66c-2.1-8.7-3.7-13.7-3.6-16.2c1.1-3.9,9.8-7.5,14.7-9.1c5.2-1.6,9.6-1.7,13.3-4.6
		c0.2,1.4,0.1,3.1,0.1,4c-1.3,0.4-2.5,0.6-3.8,0.8c-0.2,0-0.4,0.2-0.3,0.5c0,0.2,0.2,0.4,0.5,0.3c1.8-0.2,3.6-0.7,5.3-1.3
		c0.9-0.3,1.9-0.7,2.7-1.2c0.2,1.1,0.2,2.2,0.2,3.1c-0.8,0.4-1.7,0.8-2.7,1.1c-1.8,0.6-3.8,1.1-5.6,1.3c-0.2,0-0.4,0.2-0.3,0.5
		c0,0.2,0.2,0.4,0.5,0.3c1.8-0.2,3.8-0.7,5.7-1.4c0.9-0.3,1.6-0.6,2.4-1c-0.1,1.2-0.2,2.3-0.5,3.2c-0.7,0.3-1.4,0.5-2.2,0.9
		c-1.9,0.6-3.9,1.1-5.7,1.3c-0.2,0-0.4,0.2-0.3,0.5c0,0.2,0.2,0.4,0.5,0.3c1.8-0.2,3.9-0.7,5.8-1.4c0.5-0.2,1.1-0.4,1.6-0.6
		c-1.6,3.8-5.1,5.4-9.5,5.9c-3.5,0.4-6.4,0.6-9.6,1.5C62.8,56.2,57.5,58.6,58.8,66z M59.7,67.8c0.7,3.2,4.9,2.7,6.4,0.2l7.6-13.5
		c-1.7,0.2-3.4,0.5-5.2,0.9c-4.9,1.3-10.1,3.7-9.2,10.7L59.7,67.8z"/>
	<path class="st0" d="M158.7,44.2c-1.9,0-3.7-0.3-5.5-0.9c-1.8-0.6-3.5-1.6-4.9-3l3.2-3.8c1.1,0.9,2.3,1.6,3.5,2.2
		c1.2,0.5,2.5,0.8,3.8,0.8c1.1,0,2-0.2,2.6-0.6c0.6-0.4,0.9-0.9,0.9-1.7v-0.1c0-0.3-0.1-0.6-0.2-0.9c-0.2-0.2-0.4-0.5-0.7-0.8
		c-0.4-0.2-0.9-0.5-1.5-0.7c-0.6-0.2-1.5-0.5-2.5-0.7c-1.3-0.3-2.4-0.6-3.4-1s-1.9-0.9-2.6-1.4c-0.7-0.5-1.3-1.3-1.6-2
		c-0.4-0.8-0.5-1.8-0.5-3.1v-0.1c0-1.1,0.2-2.1,0.6-3.1c0.4-0.9,1-1.6,1.7-2.4c0.8-0.6,1.6-1.2,2.7-1.5c1-0.3,2.2-0.5,3.5-0.5
		c1.8,0,3.5,0.2,4.9,0.8c1.5,0.5,2.9,1.3,4.2,2.4l-2.8,4.1c-1.1-0.8-2.2-1.3-3.2-1.8c-1-0.5-2.1-0.6-3.1-0.6s-1.9,0.2-2.4,0.6
		c-0.5,0.4-0.8,0.9-0.8,1.6v0.1c0,0.4,0.1,0.7,0.2,1c0.2,0.3,0.4,0.5,0.9,0.8c0.4,0.2,0.9,0.5,1.6,0.7c0.7,0.2,1.6,0.5,2.6,0.7
		c1.3,0.3,2.4,0.7,3.3,1.1c0.9,0.4,1.8,0.9,2.4,1.5c0.7,0.5,1.2,1.3,1.5,2c0.3,0.8,0.5,1.7,0.5,2.7v0.1c0,1.3-0.2,2.3-0.6,3.2
		c-0.5,0.9-1.1,1.7-1.9,2.4c-0.8,0.6-1.7,1.1-2.8,1.5C161.3,43.9,160,44.2,158.7,44.2 M133.6,44.2c-3.3,0-5.9-0.9-7.8-2.7
		s-2.8-4.5-2.8-8.2V19.1h5.4v14c0,2,0.5,3.5,1.4,4.5c0.9,1,2.2,1.6,3.9,1.6c1.6,0,3-0.5,3.9-1.5s1.4-2.4,1.4-4.4V19.2h5.4v13.9
		c0,1.9-0.2,3.5-0.8,4.9c-0.5,1.4-1.3,2.5-2.2,3.5s-2,1.6-3.4,2C136.7,43.9,135.2,44.2,133.6,44.2z M109,44.2c-1.8,0-3.5-0.3-5-1
		c-1.6-0.6-2.9-1.6-4-2.7c-1.1-1.1-2-2.5-2.7-4c-0.6-1.6-0.9-3.2-0.9-4.9v-0.1c0-1.7,0.3-3.4,0.9-4.9s1.5-2.9,2.7-4.1
		c1.1-1.2,2.4-2,4-2.7s3.3-1,5.2-1c1.2,0,2.2,0.1,3.1,0.3c0.9,0.2,1.8,0.5,2.6,0.8s1.5,0.7,2.1,1.2c0.6,0.5,1.3,1,1.8,1.6l-3.5,4
		c-0.9-0.9-2-1.6-2.9-2c-1-0.5-2.1-0.7-3.4-0.7c-1,0-2,0.2-2.8,0.6c-0.9,0.4-1.6,0.9-2.3,1.6s-1.1,1.5-1.5,2.4
		c-0.3,0.9-0.5,1.9-0.5,3v0.1c0,1,0.2,2,0.5,3c0.3,0.9,0.9,1.7,1.5,2.4s1.3,1.3,2.3,1.6c0.9,0.4,1.9,0.6,2.9,0.6
		c1.4,0,2.6-0.2,3.5-0.8c0.9-0.5,2-1.3,2.9-2.1l3.5,3.5c-0.6,0.7-1.3,1.3-2,1.8c-0.7,0.5-1.4,1-2.2,1.4c-0.8,0.4-1.7,0.7-2.7,0.9
		C111.2,44.1,110.1,44.2,109,44.2z"/>
	<path class="st0" d="M130.5,52.9c0.1,0,0.2,0,0.2,0.1c0.1,0.2,0,0.6-0.3,1c-0.4,0.6-1.1,1-1.8,1.1c0.2-0.5,0.4-1.1,0.9-1.6
		C129.8,53.1,130.1,52.9,130.5,52.9L130.5,52.9 M129.7,57.1c0.9,0,1.7-0.4,2.4-1.1c0.5-0.5,0.8-1,0.8-1.1c0.1-0.2,0-0.4-0.2-0.5
		s-0.4,0-0.5,0.2c0,0-0.2,0.5-0.7,0.9c-0.5,0.5-1.3,0.9-1.9,0.9c-0.5,0-0.9-0.2-1.2-0.6c0.5,0,0.9-0.2,1.3-0.4s0.8-0.6,1-1
		c0.4-0.6,0.5-1.3,0.4-1.7c-0.2-0.4-0.5-0.5-0.9-0.5c-0.5,0.1-1,0.4-1.5,0.9c-0.5,0.5-0.9,1.3-1,2c-0.2,0.7,0.1,1.2,0.3,1.5
		C128.4,56.9,129,57.1,129.7,57.1z M129.3,50.1c-0.1-0.2-0.2-0.3-0.5-0.3l-1.5,0.3l0.4-0.9c0.1-0.2,0-0.4-0.2-0.5s-0.4,0-0.5,0.2
		c-0.2,0.4-0.4,0.9-0.5,1.3l-0.9,0.2c-0.2,0-0.3,0.2-0.3,0.4s0.2,0.3,0.3,0.3h0.1l0.4-0.1c-0.2,0.7-0.5,1.4-0.7,2.1
		c-0.5,1.8-0.6,2.8-0.2,3.5c0.2,0.2,0.4,0.5,0.9,0.5c0.3,0,0.6-0.2,0.9-0.4c0.2-0.2,0.5-0.5,0.7-0.8c0.4-0.5,0.7-1,0.7-1
		c0.1-0.2,0-0.4-0.2-0.5c-0.2-0.1-0.4,0-0.5,0.2c0,0-0.3,0.5-0.6,0.9c-0.5,0.5-0.9,0.9-1.2,0.9c-0.2,0-0.2-0.1-0.3-0.2
		c-0.1-0.1-0.2-0.4-0.1-1c0.1-0.5,0.2-1.1,0.4-1.8c0.2-0.7,0.5-1.6,0.9-2.5l2-0.4C129.2,50.5,129.3,50.3,129.3,50.1z M120.1,51.8
		c0,0,0.1,0,0.1,0.2c0.2,0.2,0.2,0.6,0.2,0.9h-0.1c-0.4-0.4-0.3-0.7-0.3-0.8C120,51.8,120,51.8,120.1,51.8z M123.2,57.1
		c0.3,0,0.6-0.2,0.9-0.4c0.2-0.2,0.5-0.5,0.7-0.8c0.4-0.5,0.7-1,0.7-1c0.1-0.2,0-0.4-0.2-0.5c-0.2-0.1-0.4,0-0.5,0.2
		c0,0-0.3,0.5-0.6,0.9c-0.5,0.5-0.9,0.9-1.2,0.9c-0.2,0-0.2-0.1-0.3-0.2c-0.2-0.2-0.4-0.9,0.5-3.6c0.1-0.2,0-0.3-0.2-0.4
		c-0.2-0.1-0.3-0.1-0.5,0c0,0-0.5,0.4-1,0.6c-0.4,0.2-0.7,0.2-0.9,0.2v-0.2c0.1-0.5,0-0.9-0.2-1.3c-0.2-0.3-0.5-0.5-0.8-0.5
		c-0.3,0-0.6,0.3-0.8,0.7c-0.1,0.2-0.1,0.5,0,0.8c0.1,0.3,0.2,0.5,0.5,0.8c0.1,0.1,0.2,0.2,0.3,0.2l-0.1,0.2
		c-0.3,0.6-0.6,1.2-0.6,1.2c-0.2,0.2-0.1,0.4,0.1,0.5c0.2,0.2,0.4,0.1,0.5-0.1c0,0,0.4-0.5,0.7-1.3c0.1-0.1,0.1-0.2,0.2-0.3
		c0.5,0.1,0.9,0,1.4-0.2c0.2-0.1,0.2-0.1,0.3-0.2c-0.2,0.5-0.3,1.1-0.3,1.5c-0.2,0.9-0.1,1.5,0.2,1.8
		C122.5,56.9,122.8,57.1,123.2,57.1z M117.8,57.1c0.3,0,0.6-0.2,0.9-0.4c0.2-0.2,0.5-0.5,0.8-0.8c0.5-0.5,0.7-1,0.7-1
		c0.1-0.2,0-0.4-0.2-0.5c-0.2-0.1-0.4,0-0.5,0.2c0,0-0.3,0.5-0.7,0.9c-0.5,0.5-0.9,0.9-1.2,0.9c-0.2,0-0.2-0.1-0.2-0.1
		c-0.2-0.2-0.2-0.9,0.1-2c0.1-0.2-0.1-0.4-0.2-0.5c-0.2-0.1-0.4,0-0.5,0.2c-0.5,1.2-1,1.7-1.4,2c-0.5,0.3-0.8,0.4-0.9,0.3
		c-0.3-0.1-0.3-0.5-0.2-1.2c0.2-0.6,0.5-1.3,1.1-1.7c0.5-0.5,0.9-0.5,1-0.5l0,0c0,0,0,0.2,0,0.4c-0.1,0.2,0.1,0.4,0.3,0.4
		c0.2,0.1,0.4-0.1,0.4-0.3c0.2-1-0.4-1.3-0.5-1.3c-0.5-0.1-1.1,0.2-1.6,0.7c-0.6,0.5-1.1,1.3-1.3,2c-0.2,0.5-0.2,0.9-0.1,1.3
		c0.1,0.4,0.3,0.7,0.7,0.8c0.2,0.1,0.5,0.1,0.8,0c0.3-0.1,0.5-0.2,0.9-0.5c0.2-0.2,0.5-0.4,0.6-0.7c0,0.4,0.2,0.6,0.3,0.9
		C117.1,56.9,117.4,57.1,117.8,57.1z M109.8,56c-0.5,0.3-0.8,0.4-0.9,0.3c-0.3-0.1-0.3-0.5-0.2-1.2c0.2-0.6,0.5-1.3,1.1-1.7
		c0.5-0.5,0.9-0.5,1-0.5l0,0c0,0,0,0.2,0,0.4c-0.1,0.2,0.1,0.4,0.3,0.4c0.1,0,0.2,0,0.2,0c0,0.1,0,0.2-0.1,0.2l0,0
		C110.7,55.1,110.1,55.7,109.8,56z M114.4,54.4c-0.2-0.1-0.4,0-0.5,0.2c0,0-0.3,0.5-0.6,0.9c-0.5,0.5-0.9,0.9-1.2,0.9
		c-0.2,0-0.2-0.1-0.3-0.2s-0.2-0.4-0.1-1c0.1-0.5,0.2-1.1,0.4-1.8c0.3-1.1,0.9-2.5,1.6-4.2c0.1-0.2,0-0.4-0.2-0.5s-0.4,0-0.5,0.2
		c-0.5,1-1.1,2.6-1.6,4c-0.1-0.5-0.5-0.6-0.5-0.7c-0.5-0.1-1.1,0.2-1.6,0.7c-0.6,0.5-1.1,1.3-1.3,2c-0.2,0.5-0.2,0.9-0.1,1.3
		c0.1,0.4,0.3,0.7,0.7,0.8c0.2,0,0.2,0.1,0.4,0.1c0.2,0,0.3,0,0.4-0.1c0.3-0.1,0.5-0.2,0.9-0.5c0.2-0.2,0.5-0.5,0.7-0.7
		c0,0.3,0.1,0.6,0.2,0.9c0.2,0.2,0.4,0.5,0.9,0.5c0.3,0,0.6-0.2,0.9-0.4c0.2-0.2,0.5-0.5,0.7-0.8c0.4-0.5,0.7-1,0.7-1
		C114.6,54.8,114.5,54.5,114.4,54.4z M107,51.1c0.1-0.2-0.1-0.3-0.2-0.3c-0.2,0-0.4,0.2-0.5,0.4s0.1,0.4,0.2,0.3
		S106.9,51.2,107,51.1z M106.3,57.1c0.3,0,0.6-0.2,0.9-0.4c0.2-0.2,0.5-0.5,0.7-0.8c0.4-0.5,0.7-1,0.7-1c0.1-0.2,0-0.4-0.2-0.5
		s-0.4,0-0.5,0.2c0,0-0.3,0.5-0.6,0.9c-0.5,0.5-0.9,0.9-1.2,0.9c-0.2,0-0.2-0.1-0.3-0.2c-0.2-0.2-0.4-0.9,0.5-3.6
		c0.1-0.2,0-0.4-0.2-0.5c-0.2-0.1-0.4,0-0.5,0.2c-0.3,1-0.5,1.8-0.7,2.5c-0.2,0.9-0.1,1.4,0.2,1.8C105.6,56.9,105.8,57.1,106.3,57.1
		z M105.8,54.4c-0.2-0.1-0.4,0-0.5,0.2c0,0-0.2,0.5-0.6,0.9c-0.5,0.5-0.9,0.9-1.2,0.9c-0.2,0-0.2-0.1-0.3-0.2
		c-0.2-0.2-0.4-0.9,0.5-3.7c0.1-0.2,0-0.4-0.2-0.5c-0.2-0.1-0.4,0-0.5,0.2c-0.3,0.8-0.5,1.6-0.6,2.1c0,0,0,0.1-0.1,0.1
		c0,0-0.2,0.5-0.5,0.9c-0.4,0.5-0.8,0.9-1,0.9c-0.2,0-0.2-0.1-0.3-0.2c-0.2-0.2-0.4-0.9,0.5-3.7c0.1-0.2,0-0.4-0.2-0.5
		c-0.2-0.1-0.4,0-0.5,0.2c-0.3,1-0.5,1.8-0.7,2.5c-0.2,0.9-0.1,1.5,0.2,1.8c0.2,0.2,0.4,0.4,0.9,0.4c0.5,0,1-0.3,1.6-1
		c0,0.2,0.1,0.5,0.2,0.6c0.2,0.2,0.4,0.4,0.9,0.4c0.3,0,0.6-0.2,0.9-0.4c0.2-0.2,0.5-0.5,0.7-0.7c0.4-0.5,0.7-1,0.7-1
		C106,54.8,106,54.5,105.8,54.4z M97.6,60.2c2.3,0,4.6-0.2,7-0.8c1.6-0.4,2.5-0.8,2.5-0.8c0.2-0.1,0.2-0.3,0.2-0.5
		c-0.1-0.2-0.3-0.3-0.5-0.2c0,0-0.9,0.4-2.4,0.7c-1.4,0.3-3.8,0.7-6.8,0.7c-1.6,0-2.9-0.5-3.6-1.5c-0.6-0.9-0.9-2-0.5-3.2
		c0.5-1.8,1.4-3.5,2.7-4.5c0.5-0.5,1.1-0.9,1.6-1.1c0.5-0.2,0.9-0.3,1.3-0.2c0.8,0.2,0.7,1.3,0.5,1.9c0,0.2,0.1,0.4,0.3,0.4
		c0.2,0.1,0.4-0.1,0.5-0.3c0.2-0.8,0.2-1.4-0.1-1.9c-0.2-0.5-0.5-0.8-1.1-0.9c-0.5-0.1-1,0-1.6,0.2c-0.6,0.2-1.3,0.7-1.8,1.3
		c-1.3,1.3-2.4,3-2.8,4.9c-0.2,0.7-0.2,1.4-0.1,2.1c0.2,0.6,0.4,1.3,0.8,1.7C94.4,59.6,95.9,60.2,97.6,60.2z"/>
	<path class="st0" d="M169.1,52.9c0.1,0,0.2,0,0.2,0.1c0.1,0.2,0,0.6-0.3,1c-0.4,0.6-1.1,1-1.8,1.1c0.2-0.5,0.4-1.1,0.9-1.6
		C168.3,53.1,168.8,52.9,169.1,52.9L169.1,52.9 M168.3,57.1c0.9,0,1.7-0.4,2.4-1.1c0.5-0.5,0.8-1,0.8-1.1c0.1-0.2,0-0.4-0.2-0.5
		s-0.4,0-0.5,0.2c0,0-0.2,0.5-0.7,0.9c-0.5,0.5-1.3,0.9-1.9,0.9c-0.5,0-0.9-0.2-1.2-0.6c0.5,0,0.9-0.2,1.3-0.4s0.8-0.6,1-1
		c0.4-0.6,0.5-1.3,0.4-1.7c-0.2-0.4-0.5-0.5-0.9-0.5c-0.5,0.1-1,0.4-1.5,0.9c-0.5,0.5-0.9,1.3-1,2c-0.2,0.7,0.1,1.2,0.3,1.5
		C167,56.9,167.6,57.1,168.3,57.1z M161.5,51.8c0,0,0.1,0,0.1,0.2c0.2,0.2,0.2,0.6,0.2,0.9h-0.1c-0.4-0.4-0.3-0.7-0.3-0.8
		C161.4,51.8,161.4,51.8,161.5,51.8z M164.7,57.1c0.3,0,0.6-0.2,0.9-0.4c0.2-0.2,0.5-0.5,0.7-0.8c0.4-0.5,0.7-1,0.7-1
		c0.1-0.2,0-0.4-0.2-0.5s-0.4,0-0.5,0.2c0,0-0.3,0.5-0.6,0.9c-0.5,0.5-0.9,0.9-1.2,0.9c-0.2,0-0.2-0.1-0.3-0.2
		c-0.2-0.2-0.4-0.9,0.5-3.6c0.1-0.2,0-0.3-0.2-0.4c-0.2-0.1-0.3-0.1-0.5,0c0,0-0.5,0.4-1,0.6c-0.4,0.2-0.7,0.2-0.9,0.2v-0.2
		c0.1-0.5,0-0.9-0.2-1.3c-0.2-0.3-0.5-0.5-0.8-0.5c-0.3,0-0.6,0.3-0.8,0.7c-0.1,0.2-0.1,0.5,0,0.8c0.1,0.3,0.2,0.5,0.5,0.8
		c0.1,0.1,0.2,0.2,0.3,0.2l-0.1,0.2c-0.3,0.6-0.6,1.2-0.6,1.2c-0.2,0.2-0.1,0.4,0.1,0.5c0.2,0.2,0.4,0.1,0.5-0.1
		c0,0,0.4-0.5,0.7-1.3c0.1-0.1,0.1-0.2,0.2-0.3c0.5,0.1,0.9,0,1.4-0.2c0.2-0.1,0.2-0.1,0.3-0.2c-0.2,0.5-0.3,1.1-0.3,1.5
		c-0.2,0.9-0.1,1.5,0.2,1.8C164,56.9,164.2,57.1,164.7,57.1z M159.7,54.1c-0.2,0.6-0.5,1.3-1.1,1.7c-0.5,0.5-0.9,0.5-1,0.5l0,0
		c0,0,0-0.2,0-0.4c0.1-0.2-0.1-0.4-0.3-0.4c-0.2,0-0.3,0-0.4,0.2l0.2-0.4c0,0,0-0.1,0.1-0.1c0.5-1.2,1-1.7,1.4-2s0.7-0.5,1-0.3
		c0.2,0.1,0.2,0.2,0.2,0.3C159.8,53.4,159.9,53.7,159.7,54.1z M160.4,53c-0.1-0.4-0.4-0.6-0.7-0.8c-0.2-0.1-0.5-0.1-0.9,0
		c-0.3,0.1-0.5,0.2-0.9,0.5c-0.2,0.1-0.2,0.2-0.3,0.3l0.1-0.4c0.1-0.2-0.1-0.4-0.2-0.5c-0.2-0.1-0.4,0.1-0.5,0.2l-2,7.2
		c-0.1,0.2,0.1,0.4,0.2,0.5h0.1c0.2,0,0.3-0.1,0.3-0.2l1.1-4c-0.2,0.9,0.4,1.2,0.5,1.2c0.1,0,0.2,0,0.2,0c0.4,0,0.9-0.2,1.4-0.7
		c0.6-0.5,1-1.3,1.3-2C160.6,53.8,160.6,53.4,160.4,53z M148.1,57.1c0.2,0,0.2-0.1,0.3-0.2c0,0,0.5-1,1.3-2.1c1-1.5,1.5-1.9,1.7-2
		c0,0.2,0.1,0.6-0.2,1.8c-0.2,0.9-0.4,1.7-0.5,2c-0.1,0.2,0,0.4,0.2,0.5s0.4,0,0.5-0.2c0,0,0.5-1,1.3-2.1c1.1-1.6,1.6-1.9,1.7-2
		c0,0.1,0,0.2,0,0.3c-0.1,0.2-0.2,0.5-0.2,0.9l-0.2,0.5c-0.2,0.9-0.4,1.7-0.1,2.2c0.2,0.2,0.5,0.3,0.8,0.3c0.3,0,0.6-0.2,0.9-0.4
		c0.2-0.2,0.5-0.5,0.7-0.8c0.4-0.5,0.7-1,0.7-1c0.1-0.2,0-0.4-0.2-0.5c-0.2-0.1-0.4,0-0.5,0.2c0,0-0.3,0.5-0.6,0.9
		c-0.5,0.5-0.9,0.9-1.2,0.9c-0.1,0-0.2,0-0.2-0.1c0,0-0.1-0.2-0.1-0.5s0.2-0.6,0.2-1.1l0.2-0.5c0.2-0.9,0.4-1.5,0.1-1.9
		c-0.1-0.1-0.2-0.2-0.5-0.2c-0.4,0-0.7,0.2-1.3,0.8c-0.3,0.4-0.7,0.9-1.2,1.5l-0.2,0.2c0.3-1.6,0.2-2,0-2.2
		c-0.2-0.2-0.3-0.2-0.5-0.2c-0.4,0-0.7,0.2-1.3,0.8c-0.2,0.2-0.5,0.6-0.8,0.9l0.5-1.3c0.1-0.2,0-0.4-0.2-0.5c-0.2-0.1-0.4,0-0.5,0.2
		c-0.8,2.2-1.4,4.2-1.5,4.2c-0.1,0.2,0,0.4,0.2,0.5C148,57.1,148,57.1,148.1,57.1z M146.6,52.9c0.1,0,0.2,0,0.2,0.1
		c0.1,0.2,0,0.6-0.3,1c-0.4,0.6-1.1,1-1.8,1.1c0.2-0.5,0.4-1.1,0.9-1.6C145.9,53.1,146.3,52.9,146.6,52.9
		C146.5,52.9,146.6,52.9,146.6,52.9z M145.8,57.1c0.9,0,1.7-0.4,2.4-1.1c0.5-0.5,0.8-1,0.8-1.1c0.1-0.2,0-0.4-0.2-0.5
		s-0.4,0-0.5,0.2c0,0-0.2,0.5-0.7,0.9c-0.5,0.5-1.3,0.9-1.9,0.9c-0.5,0-0.9-0.2-1.2-0.6c0.5,0,0.9-0.2,1.3-0.4s0.8-0.6,1-1
		c0.4-0.6,0.5-1.3,0.4-1.7c-0.2-0.4-0.5-0.5-0.9-0.5c-0.5,0.1-1,0.4-1.5,0.9c-0.5,0.5-0.9,1.3-1,2c-0.2,0.7,0.1,1.2,0.3,1.5
		C144.6,56.9,145.1,57.1,145.8,57.1z M142.9,51.1c0.1-0.2-0.1-0.3-0.2-0.3c-0.2,0-0.4,0.2-0.5,0.4c-0.1,0.2,0.1,0.4,0.2,0.3
		C142.6,51.4,142.8,51.2,142.9,51.1z M142.2,57.1c0.3,0,0.6-0.2,0.9-0.4c0.2-0.2,0.5-0.5,0.7-0.8c0.4-0.5,0.7-1,0.7-1
		c0.1-0.2,0-0.4-0.2-0.5s-0.4,0-0.5,0.2c0,0-0.3,0.5-0.6,0.9c-0.5,0.5-0.9,0.9-1.2,0.9c-0.2,0-0.2-0.1-0.3-0.2
		c-0.2-0.2-0.4-0.9,0.5-3.6c0.1-0.2,0-0.4-0.2-0.5c-0.2-0.1-0.4,0-0.5,0.2c-0.3,1-0.5,1.8-0.7,2.5c-0.2,0.9-0.1,1.4,0.2,1.8
		C141.4,56.9,141.8,57.1,142.2,57.1z M141.3,50c-0.3,0.4-1.1,0.6-2.4,0.6c-0.6,0-1.3-0.1-2.1-0.2c0.7-1.1,2.1-1.6,3.2-1.6
		c0.7,0,1.3,0.2,1.5,0.5C141.5,49.5,141.4,49.8,141.3,50z M142.1,48.9c-0.3-0.5-1.1-0.9-2.2-0.9c-0.8,0-1.6,0.2-2.3,0.6
		c-0.8,0.4-1.3,0.9-1.7,1.6c-1.6-0.2-3.6-0.5-4.3,1.3c-0.1,0.2,0,0.4,0.2,0.5s0.4,0,0.5-0.2c0.5-1,1.6-1.1,3.5-0.9l0,0
		c0,0.2,0,0.4,0,0.6c0,0.3,0.2,0.6,0.4,0.9c0.4,0.5,0.9,1.1,1.6,1.6c0.5,0.5,1.1,0.9,1.5,1.5c0.3,0.5,0.4,1,0.2,1.5
		c-0.4,0.9-1.3,1.6-2.4,2c-1.1,0.3-2.3,0.3-3.2,0c-0.8-0.3-2-1.2-1.3-3.1c0.1-0.2-0.1-0.4-0.2-0.5s-0.4,0-0.5,0.2
		c-0.2,0.5-0.2,0.9-0.2,1.4c0,0.5,0.1,0.9,0.3,1.2c0.3,0.6,0.9,1.2,1.7,1.5c0.5,0.2,1.2,0.3,1.9,0.3c0.6,0,1.3-0.1,1.8-0.3
		c0.6-0.2,1.3-0.5,1.7-0.9c0.5-0.4,0.9-0.9,1.2-1.5c0.2-0.4,0.2-0.8,0.2-1.2c-0.1-0.3-0.2-0.7-0.4-1c-0.4-0.6-1-1.1-1.6-1.6
		c-1.2-1-1.9-1.6-1.6-2.5c0.9,0.1,1.7,0.2,2.4,0.2s1.3-0.1,1.8-0.2c0.5-0.2,0.9-0.4,1.3-0.7c0.2-0.2,0.3-0.5,0.3-0.7
		C142.2,49.4,142.2,49.2,142.1,48.9z"/>
	<path id="XMLID_2_" class="st0" d="M142.3,60.1c-0.2,0-0.3-0.1-0.3-0.3c0-0.2,0.1-0.3,0.3-0.3c0.1,0,21.5-1.7,23.1,0.2
		c0.3,0.3,0.2,0.6-0.1,0.9c-0.6,0.5-2.9,0.7-5.3,0.9c-0.9,0.1-1.8,0.2-2.7,0.3c-1.4,0.2-2.6,0.4-3.3,0.7c-0.5,0.2-0.6,0.5-0.2,0.8
		c0.2,0.1,0.2,0.3,0,0.5c-0.1,0.2-0.3,0.2-0.5,0c-0.9-0.8-0.6-1.4,0.4-1.8c0.8-0.3,2-0.5,3.5-0.7c0.9-0.1,1.8-0.2,2.7-0.3
		c2.4-0.2,4.5-0.5,5-0.9l0,0C163.5,58.4,142.4,60.1,142.3,60.1"/>
</g>
</svg>
