<?xml version="1.0" encoding="utf-8"?>
<!-- Generator: Adobe Illustrator 19.0.0, SVG Export Plug-In . SVG Version: 6.00 Build 0)  -->
<svg version="1.1" id="Capa_1" xmlns="http://www.w3.org/2000/svg" xmlns:xlink="http://www.w3.org/1999/xlink" x="0px" y="0px"
	 viewBox="-273 396.9 48 48" style="enable-background:new -273 396.9 48 48;" xml:space="preserve">
<style type="text/css">
	.st0{display:none;fill:#FFFFFF;}
	.st1{display:none;}
	.st2{display:inline;fill:#FFFFFF;}
	.st3{display:inline;}
	.st4{fill:#FFFFFF;}
	.st5{clip-path:url(#SVGID_3_);}
</style>
<g id="_x34_8">
	<circle id="base_circular" class="st0" cx="-249" cy="420.9" r="24.1"/>
	<g id="Registros">
		<g id="PAIERC" class="st1">
			<path class="st2" d="M-243.4,416.8c0,0,3.7,0.9,4.7-2.3c1-3.2,1.2-14-12.5-13.6c0,0-9.6,0.9-12.9,13.6c0,0-3.8,15.6,8.9,24
				c0,0,6.9,3.7,12.6-2.4c0,0,2.6-2.7,1.8-7.3c0,0-1.1-4.1-3.4-5.5c0,0,7-0.3,3.3,17.5c0,0,1.1-1.4,1.7-0.1c0,0,0.7-6.6,1.5-8.3
				c0,0,1.8-5.4-1.3-9.8c0,0,3,1,3.6,0.9c0.5-0.1-0.1-1.6,0.5-2.1c0.7-0.4,0.4-1.4,0-1.4c-0.4,0-5.5-0.4-6-1.3
				c-0.4-0.9,3.5,2.4,7.1-0.4c0,0,0.5-2.1-1.4-2.7c0,0-1.5,1-4.9,1.3C-243.5,417.3-243.4,416.8-243.4,416.8z"/>
			<path class="st2" d="M-258.3,404.5c1.9,0.4-2.7-1.1-5.7,1.8c-2.6,2.5,8.4,3.7,10.4,3.4c2-0.2-3.3-0.6-3.3-0.6s-4.7-0.4-5-1.7
				c-0.2-1.3,2.2-1.8,2.2-1.8L-258.3,404.5z"/>
			<g class="st3">
				<path class="st4" d="M-254.3,404h0.5C-255.4,403.6-254.3,404-254.3,404z"/>
				<path class="st4" d="M-235.3,411.2c-3.2-2.7-8.6-6.7-8.6-6.7l-9.9-0.5c1.2,0.3,4.1,1.1,10.5,3.1l7.8,6.1c0.8,0.9,6.7,8,3.2,13.3
					c-6.3,9.4-24.2,11.1-40.7,9.9v0.7c8.2,0.5,14.3,0.2,14.3,0.2s15.3,0.3,24.5-7.6C-228.1,424.5-231.9,414.1-235.3,411.2z"/>
			</g>
		</g>
		<g id="NOMIVAC">
			<g>
				<path class="st4" d="M-246.9,418.7c0.6-0.4,5.1-3.4,5.2-3.5l16.9-18.3h-3l-19.4,21C-247.9,418.5-247.2,418.9-246.9,418.7z"/>
				<path class="st4" d="M-249.9,417.4c0.2,0.4,0.6,0.6,1,0.5c0.2-0.1,0.4-0.3,0.5-0.5c0.4-1,0.9-2.1,1.5-3.3c1.3-2.8,2.8-6,2.8-8.3
					c0-1.4-0.6-2.6-1.5-3.5s-2.2-1.5-3.5-1.5c-1.4,0-2.6,0.6-3.5,1.5s-1.5,2.2-1.5,3.5c0,2.4,1.5,5.6,2.8,8.5
					C-250.7,415.4-250.2,416.5-249.9,417.4z"/>
				<path class="st4" d="M-255.3,417.7c1.2,0.4,2.4,0.9,3.3,1.3c0.4,0.2,0.9,0,1-0.4c0.1-0.2,0.1-0.5,0-0.7
					c-0.4-0.9-0.8-2.1-1.3-3.4c-1.1-2.9-2.2-6.2-3.9-7.9c-1-1-2.3-1.5-3.5-1.5c-1.2,0-2.6,0.5-3.5,1.5c-1,1-1.5,2.3-1.5,3.5
					c0,1.3,0.5,2.6,1.5,3.5C-261.6,415.4-258.3,416.6-255.3,417.7z M-262.2,407.7c0.7-0.7,1.5-1,2.4-1c0.9,0,1.8,0.3,2.4,1
					c1.4,1.4,2.5,4.5,3.5,7.3c0.2,0.6,0.4,1.2,0.6,1.7c-0.5-0.2-1.1-0.4-1.6-0.6c-2.8-1-6-2.2-7.4-3.6c-0.7-0.7-1-1.5-1-2.4
					S-262.9,408.4-262.2,407.7z"/>
				<path class="st4" d="M-251,423.7c0.1-0.2,0.1-0.4,0-0.7c-0.2-0.4-0.6-0.6-1-0.4c-0.9,0.4-2,0.8-3.3,1.3c-3,1.1-6.3,2.3-8,4
					c-1,1-1.5,2.3-1.5,3.5s0.5,2.6,1.5,3.5c1,1,2.3,1.5,3.5,1.5c1.2,0,2.6-0.5,3.5-1.5c1.7-1.7,2.8-5,3.9-7.9
					C-251.9,425.9-251.4,424.7-251,423.7z M-253.8,426.6c-1,2.8-2.1,5.9-3.5,7.3c-0.7,0.7-1.5,1-2.4,1c-0.9,0-1.8-0.3-2.4-1
					c-0.7-0.7-1-1.5-1-2.4c0-0.9,0.3-1.8,1-2.4c1.4-1.4,4.6-2.6,7.4-3.6c0.6-0.2,1.1-0.4,1.6-0.6
					C-253.4,425.4-253.6,426-253.8,426.6z"/>
				<path class="st4" d="M-242.8,424.1c-1.3-0.5-2.5-0.9-3.4-1.3c-0.2-0.1-0.4-0.1-0.7,0c-0.4,0.2-0.6,0.6-0.4,1
					c0.4,0.9,0.8,2,1.3,3.3c1.1,3,2.3,6.3,4,8c1,1,2.3,1.5,3.5,1.5c1.3,0,2.6-0.5,3.5-1.5c1-1,1.5-2.3,1.5-3.5
					c0-1.3-0.5-2.6-1.5-3.5C-236.5,426.3-239.8,425.1-242.8,424.1z M-236,433.9c-0.7,0.7-1.5,1-2.4,1c-0.9,0-1.8-0.3-2.4-1
					c-1.4-1.4-2.6-4.6-3.6-7.4c-0.2-0.6-0.4-1.1-0.6-1.6c0.6,0.2,1.1,0.4,1.7,0.6c2.8,1,5.9,2.1,7.3,3.5c0.7,0.7,1,1.5,1,2.4
					C-235,432.4-235.3,433.3-236,433.9z"/>
				<path class="st4" d="M-234,415.8c-2.4,0-5.5,1.5-8.3,2.8c-1.2,0.6-2.4,1.1-3.3,1.5c-0.2,0.1-0.4,0.2-0.5,0.5
					c-0.2,0.4,0.1,0.9,0.5,1c0.9,0.3,2,0.9,3.2,1.4c2.9,1.3,6.1,2.8,8.5,2.8c1.4,0,2.6-0.6,3.5-1.5c0.9-0.9,1.5-2.2,1.5-3.5
					c0-1.4-0.6-2.6-1.5-3.5C-231.4,416.4-232.6,415.8-234,415.8z"/>
				<path class="st4" d="M-248.4,424.3c-0.1-0.2-0.2-0.4-0.5-0.5c-0.4-0.2-0.9,0.1-1,0.5c-0.3,0.9-0.9,2-1.4,3.2
					c-1.3,2.9-2.8,6.1-2.8,8.5c0,1.4,0.6,2.6,1.5,3.5c0.9,0.9,2.2,1.5,3.5,1.5c1.4,0,2.6-0.6,3.5-1.5c0.9-0.9,1.5-2.2,1.5-3.5
					c0-2.4-1.5-5.5-2.8-8.3C-247.5,426.4-248,425.2-248.4,424.3z"/>
				<path class="st4" d="M-255.7,423c1.2-0.5,2.3-1.1,3.2-1.4c0.4-0.2,0.6-0.6,0.5-1c-0.1-0.2-0.3-0.4-0.5-0.5
					c-1-0.4-2.1-0.9-3.3-1.5c-2.8-1.3-6-2.8-8.3-2.8c-1.4,0-2.6,0.6-3.5,1.5s-1.5,2.2-1.5,3.5c0,1.4,0.6,2.6,1.5,3.5
					s2.2,1.5,3.5,1.5C-261.8,425.8-258.6,424.4-255.7,423z"/>
			</g>
			<path class="st4" d="M-246.7,438.3c0.6-0.6,1-1.5,1-2.4c0-2-1.4-5-2.7-7.7c-0.3-0.6-0.5-1.1-0.8-1.7c-0.2,0.5-0.5,1-0.7,1.6
				c-1.3,2.7-2.7,5.8-2.7,7.8c0,0.9,0.4,1.8,1,2.4c0.6,0.6,1.5,1,2.4,1C-248.1,439.4-247.3,439-246.7,438.3 M-245.7,405.7
				c0-0.9-0.4-1.8-1-2.4c-0.6-0.6-1.5-1-2.4-1c-0.9,0-1.8,0.4-2.4,1s-1,1.5-1,2.4c0,2,1.4,5.1,2.7,7.8c0.2,0.5,0.5,1.1,0.7,1.6
				c0.2-0.5,0.5-1.1,0.8-1.7C-247.1,410.7-245.7,407.8-245.7,405.7z M-264.2,417.4c-0.9,0-1.8,0.4-2.4,1c-0.6,0.6-1,1.5-1,2.4
				s0.4,1.8,1,2.4c0.6,0.6,1.5,1,2.4,1c2,0,5.1-1.4,7.8-2.7c0.5-0.2,1.1-0.5,1.6-0.7c-0.5-0.2-1.1-0.5-1.7-0.8
				C-259.2,418.8-262.2,417.4-264.2,417.4z M-231.6,418.4c-0.6-0.6-1.5-1-2.4-1c-2,0-5,1.4-7.7,2.7c-0.6,0.3-1.1,0.5-1.7,0.8
				c0.5,0.2,1,0.5,1.6,0.7c2.7,1.3,5.8,2.7,7.8,2.7c0.9,0,1.8-0.4,2.4-1c0.6-0.6,1-1.5,1-2.4C-230.6,419.9-231,419-231.6,418.4z"/>
		</g>
	</g>
	<g id="Modulos" class="st1">
		<g id="default" class="st3">
			<g id="_x5F__general_4_">
				<g>
					<g>
						<g>
							<circle id="SVGID_1_" class="st4" cx="-249" cy="420.9" r="24"/>
						</g>
						<g>
							<defs>
								<circle id="SVGID_2_" cx="-249" cy="420.9" r="24"/>
							</defs>
							<use xlink:href="#SVGID_2_"  style="overflow:visible;fill:#FFFFFF;"/>
							<clipPath id="SVGID_3_">
								<use xlink:href="#SVGID_2_"  style="overflow:visible;"/>
							</clipPath>
							<g id="logo_base_1_" class="st5">
								<path class="st4" d="M-253.1,405.1c-0.6,0.6-1,1.2-1.3,1.9c-0.3,0.7-0.4,1.4-0.4,2.2c0,1.2,0.3,2.2,0.9,3.1
									c0.1,0.2,0.2,0.4,0.4,0.5c0.1,0.2,0.3,0.3,0.5,0.5l0,0l0,0l0,0c0.5,0.5,1,0.9,1.5,1.1c0.1,0.1,0.2,0.1,0.3,0.1
									c0.7,0.3,1.4,0.4,2.2,0.4l0,0l0,0c1.1,0,2.2-0.3,3.1-0.9c0.2-0.1,0.4-0.2,0.5-0.4c0.2-0.1,0.3-0.3,0.5-0.5l0,0l0,0l0,0
									c0.5-0.5,0.8-1,1.1-1.6l0,0c0-0.1,0.1-0.2,0.1-0.3c0.3-0.7,0.4-1.4,0.4-2.2l0,0l0,0c0-0.8-0.1-1.6-0.4-2.2
									c-0.3-0.7-0.7-1.3-1.3-1.9c-0.5-0.5-1-0.9-1.5-1.1c-0.1,0-0.2-0.1-0.3-0.1l0,0c-0.7-0.3-1.4-0.4-2.2-0.4l0,0l0,0
									c-1.1,0-2.2,0.3-3.1,0.9l0,0c-0.2,0.1-0.3,0.2-0.5,0.4C-252.8,404.8-252.9,404.9-253.1,405.1L-253.1,405.1L-253.1,405.1
									L-253.1,405.1z"/>
								<path class="st4" d="M-253.1,417.7c-0.9-0.5-1.7-1.1-2.4-1.8l0,0l0,0l0,0c-0.2-0.2-0.5-0.5-0.7-0.8
									c-0.2-0.3-0.4-0.6-0.6-0.8c-0.9-1.5-1.4-3.2-1.4-5c0-0.5,0-1,0.1-1.5h-8.9v58.6h14.4v-48.5
									C-252.8,417.8-252.9,417.7-253.1,417.7z"/>
								<path class="st4" d="M-239.9,407.8c0.1,0.5,0.1,1,0.1,1.5l0,0l0,0c0,1.3-0.2,2.5-0.7,3.6c-0.1,0.2-0.2,0.4-0.2,0.5l0,0
									c-0.4,0.9-1,1.7-1.8,2.5l0,0l0,0l0,0c-0.2,0.2-0.5,0.5-0.8,0.7c-0.3,0.2-0.5,0.4-0.8,0.6c-0.4,0.3-0.8,0.5-1.3,0.7v48.6
									h14.4v-58.7H-239.9z"/>
							</g>
						</g>
					</g>
				</g>
			</g>
		</g>
	</g>
</g>
<g id="_x39_6" class="st1">
</g>
</svg>
