<?xml version="1.0" standalone="no"?>
<!DOCTYPE svg PUBLIC "-//W3C//DTD SVG 1.1//EN" "http://www.w3.org/Graphics/SVG/1.1/DTD/svg11.dtd" >
<svg xmlns="http://www.w3.org/2000/svg">
<metadata>Generated by IcoMoon</metadata>
<defs>
<font id="icomoon" horiz-adv-x="1024">
<font-face units-per-em="1024" ascent="960" descent="-64" />
<missing-glyph horiz-adv-x="1024" />
<glyph unicode="&#x20;" horiz-adv-x="512" d="" />
<glyph unicode="&#xe900;" glyph-name="acceder" d="M704 448l-384-384-96 96 224 224h-448v128h448l-224 224 96 96 384-384zM1024 960h-448v-128h320v-768h-320v-128h448v1024z" />
<glyph unicode="&#xe901;" glyph-name="acceder_ver" d="M861.867 567.467l-349.867 349.867-119.467-119.467 260.267-264.533h-610.133v-170.667h610.133l-260.267-264.533 119.467-119.467 469.333 469.333z" />
<glyph unicode="&#xe902;" glyph-name="aceptar" d="M876.8 857.6l-544-544-185.6 179.2-134.4-134.4 185.6-179.2 134.4-140.8 678.4 678.4z" />
<glyph unicode="&#xe903;" glyph-name="actualizar" d="M938.667 533.333l-85.333-85.333c0 234.667-192 426.667-426.667 426.667s-426.667-192-426.667-426.667c0-234.667 192-426.667 426.667-426.667v170.667c-140.8 0-256 115.2-256 256s115.2 256 256 256c140.8 0 256-115.2 256-256l-85.333 85.333-85.333-85.333 256-256 256 256-85.333 85.333z" />
<glyph unicode="&#xe904;" glyph-name="ael_consejo" d="M832 662.4c-3.2-38.4-6.4-67.2-12.8-86.4-6.4-28.8-16-51.2-28.8-70.4-25.6-38.4-44.8-67.2-54.4-86.4-19.2-28.8-32-57.6-41.6-86.4-3.2-12.8-6.4-25.6-6.4-38.4 0-6.4 0-19.2 0-35.2 0-6.4-6.4-16-16-25.6-3.2-3.2-9.6-9.6-12.8-12.8h-35.2c0 32 0 73.6 0 73.6 0 19.2 3.2 38.4 9.6 57.6 9.6 32 25.6 64 44.8 99.2 12.8 19.2 32 51.2 57.6 89.6 9.6 12.8 16 28.8 19.2 48 3.2 16 6.4 44.8 9.6 76.8s-6.4 64-25.6 96c-22.4 35.2-51.2 67.2-92.8 92.8-19.2 12.8-41.6 22.4-64 28.8-19.2 6.4-44.8 9.6-76.8 9.6-28.8 0-54.4-6.4-76.8-9.6-22.4-6.4-44.8-16-64-28.8-38.4-25.6-70.4-57.6-89.6-92.8-19.2-32-28.8-64-25.6-96 3.2-35.2 6.4-60.8 9.6-76.8 3.2-19.2 9.6-35.2 19.2-48 25.6-38.4 44.8-70.4 57.6-89.6 19.2-35.2 35.2-67.2 44.8-99.2 6.4-19.2 9.6-38.4 9.6-57.6 0-3.2 0-44.8 0-73.6h-35.2c-3.2 3.2-6.4 9.6-12.8 12.8-9.6 9.6-16 19.2-16 25.6 0 16 0 25.6 0 35.2 0 12.8-3.2 25.6-6.4 38.4-9.6 25.6-22.4 54.4-41.6 86.4-9.6 19.2-28.8 48-54.4 86.4-12.8 19.2-22.4 41.6-28.8 70.4-3.2 19.2-9.6 48-12.8 86.4-3.2 44.8 6.4 89.6 35.2 134.4 25.6 44.8 64 80 112 112 25.6 16 54.4 28.8 83.2 38.4 25.6 6.4 54.4 9.6 92.8 12.8 0 0 0 0 0 0 35.2 0 67.2-6.4 92.8-12.8 28.8-6.4 57.6-19.2 83.2-38.4 48-32 86.4-70.4 112-112 32-41.6 44.8-86.4 38.4-134.4zM649.6 128c6.4 6.4 9.6 12.8 9.6 19.2s-3.2 12.8-12.8 16c9.6 6.4 12.8 9.6 9.6 16 6.4 9.6 9.6 19.2 6.4 28.8 3.2 6.4 3.2 9.6 0 12.8h-80v67.2l-16 22.4v60.8l-6.4 6.4v12.8l6.4 12.8 51.2 198.4h3.2l9.6 32v3.2l-6.4 3.2h-3.2l-57.6-224-9.6-19.2v-16h-3.2l-3.2 6.4-6.4 6.4v128h9.6c6.4 3.2 3.2 9.6-6.4 12.8h-70.4c-9.6-6.4-12.8-9.6-6.4-12.8h9.6v-128l-6.4-6.4-3.2-6.4h-3.2v16l-9.6 19.2-57.6 224h-3.2l-6.4-3.2v-3.2l9.6-32h3.2l51.2-198.4 6.4-12.8v-12.8l-6.4-6.4v-60.8l-16-22.4v-67.2h-80c-3.2-3.2-3.2-9.6 0-12.8-3.2-9.6-3.2-19.2 6.4-28.8 0-6.4 3.2-12.8 9.6-16-6.4-6.4-12.8-9.6-12.8-16s3.2-12.8 9.6-19.2c-12.8-9.6-12.8-22.4-3.2-35.2-3.2-6.4-6.4-12.8-6.4-19.2s3.2-12.8 9.6-16c-3.2-6.4-6.4-16-3.2-22.4s6.4-12.8 16-19.2c16-16 32-25.6 44.8-35.2h12.8v-9.6l32-32h64l32 32v9.6h12.8c16 9.6 28.8 19.2 44.8 35.2 9.6 6.4 12.8 12.8 16 19.2s3.2 16-3.2 22.4c6.4 6.4 9.6 9.6 9.6 16s-3.2 12.8-6.4 19.2c19.2 12.8 19.2 22.4 9.6 35.2z" />
<glyph unicode="&#xe905;" glyph-name="ael_contenidos" d="M512 960c-281.6 0-512-230.4-512-512s230.4-512 512-512c281.6 0 512 230.4 512 512s-230.4 512-512 512zM512 32c-230.4 0-416 185.6-416 416s185.6 416 416 416c230.4 0 416-185.6 416-416s-185.6-416-416-416zM323.2 704h380.8c25.6-19.2 44.8-38.4 64-64h-512c19.2 25.6 41.6 44.8 67.2 64zM192 448h640c0-22.4-3.2-44.8-6.4-64h-627.2c-3.2 22.4-6.4 41.6-6.4 64zM700.8 192c-54.4-38.4-118.4-64-188.8-64s-137.6 25.6-188.8 64h377.6zM806.4 320c-9.6-22.4-22.4-44.8-38.4-64h-512c-16 19.2-28.8 41.6-38.4 64h588.8zM806.4 576c9.6-19.2 16-41.6 19.2-64h-627.2c3.2 22.4 12.8 44.8 19.2 64h588.8z" />
<glyph unicode="&#xe906;" glyph-name="ael_destacado" d="M515.2 64c54.4 0 108.8 12.8 156.8 35.2v-35.2h-156.8zM640 595.2v-294.4c3.2 3.2 6.4 6.4 9.6 9.6 9.6 9.6 16 16 22.4 25.6v224c-6.4 9.6-12.8 19.2-22.4 25.6-3.2 3.2-6.4 6.4-9.6 9.6zM0 960v-896h508.8c-51.2 0-102.4 12.8-150.4 32h-326.4v832h608v-118.4c9.6-3.2 22.4-6.4 32-12.8v163.2h-672zM128 288h35.2c-6.4 9.6-9.6 22.4-12.8 32h-22.4v-32zM128 352h12.8c-3.2 9.6-6.4 22.4-6.4 32h-6.4v-32zM240 720c6.4 6.4 12.8 9.6 19.2 16h-131.2v-32h99.2c3.2 6.4 6.4 9.6 12.8 16zM198.4 672h-70.4v-32h51.2c6.4 12.8 12.8 22.4 19.2 32zM140.8 544h-12.8v-32h6.4c0 9.6 3.2 22.4 6.4 32zM240 176c-6.4 6.4-9.6 9.6-12.8 16h-99.2v-32h131.2c-6.4 6.4-12.8 9.6-19.2 16zM163.2 608h-35.2v-32h22.4c3.2 9.6 6.4 22.4 12.8 32zM358.4 800h-230.4v-32h169.6c19.2 12.8 38.4 22.4 60.8 32zM128 416c0 6.4 0 12.8 0 22.4v-22.4zM179.2 256h-51.2v-32h73.6c-9.6 9.6-16 22.4-22.4 32zM780.8 134.4l41.6 41.6-41.6 41.6-41.6-41.6 41.6-41.6zM889.6 156.8c-12.8 12.8-32 12.8-41.6 0l-41.6-41.6c-12.8-12.8-12.8-32 0-41.6l134.4-134.4h86.4v86.4l-137.6 131.2zM284.8 675.2c124.8 124.8 326.4 124.8 454.4 0 124.8-124.8 124.8-326.4 0-454.4-124.8-124.8-326.4-124.8-454.4 0-124.8 124.8-124.8 329.6 0 454.4zM329.6 265.6c102.4-102.4 265.6-102.4 368 0s102.4 265.6 0 368c-102.4 102.4-265.6 102.4-368 0s-102.4-268.8 0-368zM576 320h-211.2c3.2-3.2 6.4-6.4 9.6-9.6 6.4-6.4 16-16 25.6-22.4h179.2v32zM448 352v32h-121.6c3.2-9.6 9.6-22.4 16-32h105.6zM361.6 576c-9.6-9.6-16-19.2-22.4-32h108.8v32h-86.4zM316.8 480h259.2v32h-249.6c-3.2-9.6-6.4-22.4-9.6-32zM576 448h-262.4c0-9.6 0-22.4 3.2-32h259.2v32z" />
<glyph unicode="&#xe907;" glyph-name="ael_nota" d="M128 672h384v-32h-384v32zM128 576h384l32 32h-416v-32zM128 512h320l32 32h-352v-32zM128 768h512v32h-512v-32zM704 585.6v0zM128 416h272l12.8 32h-284.8v-32zM128 704h512v32h-512v-32zM544 422.4v0 0 0zM640 256h-160l-73.6-32h233.6v32zM0 960v-1024h768v531.2l-64-64v-403.2h-640v896h640v-128l64 64v128h-768zM128 352h243.2l12.8 32h-256v-32zM128 288h214.4l12.8 32h-230.4v-32zM128 160h384v32h-179.2l-41.6-19.2 6.4 19.2h-172.8v-32zM128 224h185.6l12.8 32h-201.6v-32zM1017.6 838.4l-60.8 60.8-25.6 6.4-441.6-441.6-44.8-105.6-25.6-57.6 57.6 25.6 105.6 44.8 441.6 441.6-6.4 25.6z" />
<glyph unicode="&#xe908;" glyph-name="agregar" d="M896 533.333h-298.667v298.667h-170.667v-298.667h-298.667v-170.667h298.667v-298.667h170.667v298.667h298.667z" />
<glyph unicode="&#xe909;" glyph-name="archivo" d="M725.333 960h-597.333v-1024h768v853.333l-170.667 170.667zM682.667 746.667v170.667l170.667-170.667h-170.667z" />
<glyph unicode="&#xe90a;" glyph-name="archivoadjunto" d="M682.667 768v-298.667c0-81.067-68.267-149.333-149.333-149.333s-149.333 68.267-149.333 149.333v85.333h85.333v-85.333c0-34.133 29.867-64 64-64s64 29.867 64 64v298.667c0 59.733-46.933 106.667-106.667 106.667-51.2 0-93.867-38.4-102.4-85.333h-85.333c12.8 93.867 89.6 170.667 187.733 170.667 106.667 0 192-85.333 192-192zM725.333 746.667v-277.333c0-106.667-85.333-192-192-192s-192 85.333-192 192v85.333c0 25.6 17.067 42.667 42.667 42.667h85.333c25.6 0 42.667-17.067 42.667-42.667v-85.333c0-12.8 8.533-21.333 21.333-21.333s21.333 8.533 21.333 21.333v277.333h-341.333v-810.667h597.333v810.667h-85.333z" />
<glyph unicode="&#xe90b;" glyph-name="atencion" d="M1002.667 132.267l-379.733 763.733c-21.333 38.4-64 64-110.933 64s-89.6-25.6-110.933-64v0l-379.733-763.733c-12.8-17.067-21.333-42.667-21.333-68.267 0-72.533 55.467-128 128-128 0 0 0 0 0 0v0h768c0 0 0 0 0 0 72.533 0 128 55.467 128 128 0 25.6-8.533 51.2-21.333 68.267zM593.067 661.333l-21.333-405.333h-123.733l-17.067 405.333h162.133zM571.733 85.333c-17.067-17.067-34.133-21.333-59.733-21.333s-42.667 4.267-59.733 21.333c-17.067 12.8-25.6 29.867-25.6 51.2s8.533 38.4 25.6 51.2 38.4 21.333 59.733 21.333c25.6 0 42.667-8.533 59.733-21.333s25.6-29.867 25.6-51.2-8.533-38.4-25.6-51.2z" />
<glyph unicode="&#xe90c;" glyph-name="auditoriaconsultar" d="M1024 960v-1024h-768v46.933l29.867 29.867c8.533 8.533 17.067 21.333 21.333 34.133l8.533 25.6c8.533-8.533 17.067-12.8 25.6-17.067v-34.133h597.333v853.333h-426.667c0 0 0 0 0 0s0 0 0 0h-170.667v-34.133c-29.867-12.8-59.733-29.867-85.333-51.2v170.667h768zM0 25.6v-89.6h89.6l72.533 72.533-89.6 89.6-72.533-72.533zM755.2 204.8c-132.267-132.267-349.867-132.267-482.133 0s-132.267 349.867 0 482.133c132.267 132.267 349.867 132.267 482.133 0s132.267-345.6 0-482.133zM691.2 627.2c-98.133 98.133-260.267 98.133-362.667 0-98.133-98.133-98.133-260.267 0-362.667 98.133-98.133 260.267-98.133 362.667 0 102.4 102.4 102.4 264.533 0 362.667zM179.2 174.933l-46.933-17.067-29.867-29.867 89.6-89.6 29.867 29.867 17.067 46.933 29.867 29.867-59.733 59.733-29.867-29.867z" />
<glyph unicode="&#xe90d;" glyph-name="ayudaenlinea" d="M405.333 260.267c0 68.267 8.533 119.467 21.333 157.867 17.067 38.4 38.4 72.533 72.533 102.4s59.733 55.467 76.8 76.8c17.067 25.6 25.6 51.2 25.6 76.8 0 68.267-29.867 102.4-89.6 102.4-25.6 0-51.2-8.533-68.267-29.867-12.8-17.067-21.333-42.667-21.333-76.8h-234.667c0 93.867 29.867 162.133 85.333 213.333 59.733 51.2 136.533 76.8 238.933 76.8s183.467-25.6 238.933-72.533c55.467-46.933 85.333-115.2 85.333-200.533 0-38.4-8.533-72.533-21.333-102.4-17.067-29.867-38.4-64-72.533-93.867l-81.067-72.533c-21.333-21.333-38.4-42.667-46.933-68.267-8.533-21.333-12.8-51.2-12.8-85.333h-196.267zM375.467 51.2c0 34.133 12.8 59.733 38.4 85.333 25.6 21.333 55.467 34.133 93.867 34.133s68.267-12.8 93.867-34.133c25.6-21.333 38.4-51.2 38.4-85.333s-12.8-59.733-38.4-85.333c-25.6-21.333-55.467-34.133-93.867-34.133s-68.267 12.8-93.867 34.133c-25.6 25.6-38.4 51.2-38.4 85.333z" />
<glyph unicode="&#xe90e;" glyph-name="borrar" d="M469.333 277.333l-256 256v42.667l42.667 42.667h170.667l256-256h-170.667l-42.667-42.667v-42.667zM0 789.333v-298.667h140.8c-8.533 12.8-12.8 25.6-12.8 42.667h-85.333v213.333h938.667v-213.333h-349.867l42.667-42.667h349.867v298.667h-1024zM725.333 320h-170.667l-42.667-42.667v-42.667l128-128h170.667l42.667 42.667v42.667l-128 128z" />
<glyph unicode="&#xe90f;" glyph-name="cancelar" d="M960 768l-128 128-320-320-320 320-128-128 320-320-320-320 128-128 320 320 320-320 128 128-320 320z" />
<glyph unicode="&#xe910;" glyph-name="cd_info" d="M810.667 362.667c-119.467 0-213.333-93.867-213.333-213.333s93.867-213.333 213.333-213.333c119.467 0 213.333 93.867 213.333 213.333s-93.867 213.333-213.333 213.333zM840.533 21.333h-55.467v183.467h55.467v-183.467zM832 230.4c-4.267-4.267-12.8-8.533-21.333-8.533s-17.067 4.267-21.333 8.533c-4.267 4.267-8.533 12.8-8.533 21.333s4.267 12.8 8.533 21.333c4.267 4.267 12.8 8.533 21.333 8.533s17.067-4.267 21.333-8.533c4.267-4.267 8.533-12.8 8.533-21.333s0-17.067-8.533-21.333zM593.067-55.467c-25.6-4.267-51.2-8.533-81.067-8.533-281.6 0-512 230.4-512 512s230.4 512 512 512 512-230.4 512-512c0-29.867-4.267-55.467-8.533-81.067-55.467 51.2-128 81.067-204.8 81.067-29.867 0-59.733-4.267-85.333-12.8 0 4.267 0 8.533 0 12.8 0 119.467-93.867 213.333-213.333 213.333s-213.333-93.867-213.333-213.333 93.867-213.333 213.333-213.333c4.267 0 8.533 0 12.8 0-8.533-25.6-12.8-55.467-12.8-85.333 0-81.067 29.867-153.6 81.067-204.8zM512 618.667c-93.867 0-170.667-76.8-170.667-170.667s76.8-170.667 170.667-170.667c8.533 0 21.333 0 29.867 4.267 29.867 59.733 76.8 106.667 136.533 136.533 0 8.533 4.267 21.333 4.267 29.867 0 93.867-76.8 170.667-170.667 170.667zM512 362.667c-46.933 0-85.333 38.4-85.333 85.333s38.4 85.333 85.333 85.333 85.333-38.4 85.333-85.333-38.4-85.333-85.333-85.333z" />
<glyph unicode="&#xe911;" glyph-name="configurar" d="M972.8 362.667c4.267 25.6 8.533 55.467 8.533 85.333s-4.267 59.733-8.533 85.333h-85.333c-8.533 42.667-25.6 81.067-51.2 119.467l59.733 59.733c-34.133 46.933-72.533 89.6-119.467 119.467l-59.733-59.733c-38.4 21.333-76.8 38.4-119.467 51.2v85.333c-25.6 4.267-55.467 8.533-85.333 8.533s-59.733-4.267-85.333-8.533v-85.333c-42.667-12.8-81.067-29.867-119.467-51.2l-59.733 64c-46.933-34.133-89.6-76.8-123.733-123.733l59.733-59.733c-17.067-38.4-34.133-76.8-46.933-119.467h-85.333c-4.267-25.6-8.533-55.467-8.533-85.333s4.267-59.733 8.533-85.333h85.333c8.533-42.667 25.6-81.067 51.2-119.467l-59.733-59.733c34.133-46.933 72.533-89.6 119.467-119.467l59.733 59.733c34.133-21.333 76.8-38.4 119.467-51.2v-85.333c25.6-4.267 55.467-8.533 85.333-8.533s59.733 4.267 85.333 8.533v85.333c42.667 8.533 81.067 25.6 119.467 51.2l59.733-59.733c46.933 34.133 89.6 72.533 119.467 119.467l-59.733 59.733c21.333 34.133 38.4 76.8 51.2 119.467h85.333zM512 234.667c-119.467 0-213.333 93.867-213.333 213.333s93.867 213.333 213.333 213.333 213.333-93.867 213.333-213.333-93.867-213.333-213.333-213.333zM512 320c-72.533 0-128 55.467-128 128s55.467 128 128 128 128-55.467 128-128-55.467-128-128-128z" />
<glyph unicode="&#xe912;" glyph-name="deshabilitar" d="M768 490.667v170.667c0 140.8-115.2 256-256 256s-256-115.2-256-256v-170.667h-85.333v-512h682.667v512h-85.333zM554.667 204.8v-98.133h-85.333v98.133c-25.6 12.8-42.667 42.667-42.667 72.533 0 46.933 38.4 85.333 85.333 85.333s85.333-38.4 85.333-85.333c0-29.867-17.067-59.733-42.667-72.533zM682.667 490.667h-341.333v170.667c0 93.867 76.8 170.667 170.667 170.667s170.667-76.8 170.667-170.667v-170.667z" />
<glyph unicode="&#xe913;" glyph-name="editar" d="M601.6 349.867l55.467-183.467-179.2 64-477.867 482.133 119.467 119.467 482.133-482.133zM256 960v-140.8l85.333-85.333v140.8h597.333v-853.333h-597.333v226.133l-85.333 85.333v-396.8h768v1024h-768z" />
<glyph unicode="&#xe914;" glyph-name="eliminar" d="M128 533.333h768v-170.667h-768v170.667z" />
<glyph unicode="&#xe915;" glyph-name="endesarrollo" d="M426.667 533.333h597.333v-597.333h-597.333v597.333zM0-64h341.333v341.333h-341.333v-341.333zM0 960v-597.333h341.333v256h682.667v341.333h-1024z" />
<glyph unicode="&#xe916;" glyph-name="explorar" d="M1024 789.333l-85.333-256v298.667h42.667l42.667-42.667zM605.867 183.467c-98.133-98.133-260.267-98.133-362.667 0-98.133 98.133-98.133 260.267 0 362.667 98.133 98.133 260.267 98.133 362.667 0 102.4-102.4 102.4-264.533 0-362.667zM546.133 243.2c68.267 68.267 68.267 174.933 0 243.2s-174.933 68.267-243.2 0c-68.267-68.267-68.267-174.933 0-243.2s179.2-68.267 243.2 0zM853.333 917.333h-298.667l-85.333 42.667h-128l-42.667-42.667h-42.667l-42.667-42.667v-247.467c59.733 46.933 136.533 76.8 213.333 76.8 89.6 0 174.933-34.133 243.2-98.133 42.667-42.667 72.533-98.133 89.6-157.867h98.133l42.667 42.667v384l-46.933 42.667zM187.733 183.467l-42.667-42.667c-17.067 0-34.133-4.267-46.933-17.067l-98.133-98.133v-89.6h89.6l98.133 98.133c12.8 12.8 17.067 29.867 17.067 46.933l42.667 42.667c-12.8 8.533-21.333 17.067-34.133 29.867-8.533 8.533-17.067 17.067-25.6 29.867z" />
<glyph unicode="&#xe917;" glyph-name="ico_homes_acerca" d="M426.667 832h298.667v-42.667h-298.667v42.667zM426.667 704h298.667v42.667h-298.667v-42.667zM640 661.333h-213.333v-42.667h213.333v42.667zM128 277.333h597.333v42.667h-597.333v-42.667zM128 192h597.333v42.667h-597.333v-42.667zM128 106.667h384v42.667h-384v-42.667zM128 488.533h597.333v42.667h-597.333v-42.667zM426.667 405.333h-298.667v-42.667h298.667v42.667zM1024 106.667h-85.333v-85.333h-85.333v-85.333h-853.333v1024h853.333v-85.333h85.333v-85.333h85.333v-682.667zM810.667 21.333v896h-768v-938.667h768v42.667zM896 106.667v725.333h-42.667v-768h42.667v42.667zM981.333 746.667h-42.667v-597.333h42.667v597.333zM128 661.333v128c0 23.467 19.2 42.667 42.667 42.667h128c23.467 0 42.667-19.2 42.667-42.667v-128c0-23.467-19.2-42.667-42.667-42.667h-128c-21.333 0-42.667 19.2-42.667 42.667zM253.867 740.267h-38.4v-78.933h38.4v78.933zM213.333 772.267c0-4.267 2.133-8.533 6.4-12.8 4.267-2.133 8.533-4.267 14.933-4.267s10.667 2.133 14.933 4.267c4.267 2.133 6.4 6.4 6.4 12.8 0 4.267-2.133 8.533-6.4 12.8s-8.533 4.267-14.933 4.267c-6.4 0-12.8-2.133-14.933-4.267s-6.4-8.533-6.4-12.8z" />
<glyph unicode="&#xe918;" glyph-name="ico_homes_autoridades" d="M814.933 59.733v0 0 0 0 0 0 0c0-2.133 0-2.133 0 0v0 0 0c2.133-2.133 2.133-2.133 0 0v0 0 0 0 0l2.133-2.133c0 0 0 0 0 0v0 0 0c0 0 0 0-2.133 2.133 0-2.133 0-2.133 0 0 0-2.133 0-2.133 0 0 0-2.133 0-2.133 0 0v0 0 0 0c0-2.133 0-2.133 0 0v0 0 0 0 0zM817.067 55.467v0 0 0 0 0 0 0 0c0 0 0 0 0 0v0 0 0 0zM819.2 55.467v0 0 0c0 0 0 0 0 0v0 0 0 0 0 0 0 0c0 0 0 0 0 0v0 0 0 0zM812.8 55.467v0 0 0 0c0 0 0 0 0 0v0 0 0c0 0 0 0 0 0v0 0 0c0 0 0 0 0 0v0 0 0 0 0 0 0c0 0 0 0 0 0v0 0c0 0 0 0 0 0v0 0 0 0zM812.8 51.2v0 0 0 0 0 0c0 0 0 0 0 0v0 0 0c0 0 0 0 0 0zM817.067 49.067v0 0 0 0 0 0 0 0 0zM817.067 46.933c0 0 0 0 0 0v0 0c0 0 0 0 0 0v0 0 0 0c0 0 0 0 0 0v0 0 0 0zM819.2 44.8v0 0c0 0 0 2.133 0 0v0 0 0 0 0 0 0zM819.2 44.8v0 0 0 0 0 0c0 0 0 0 0 0v0 0zM808.533 49.067c0 0 0 0 0 0 2.133 0 2.133 0 0 0 2.133 0 2.133 0 0 0v0 0c2.133 0 2.133 0 0 0 0 0 0 0 0 0v0c0 0 0 0 0 0v0zM810.667 49.067v0c0 0 0 0 0 0s0 0 0 0v0 0c2.133-2.133 2.133-2.133 0 0 0-2.133 0-2.133 0 0v0 0 0 0 0 0zM802.133 44.8v0 0 0 0 0c0 0 0 0 0 0v0 0 0 0zM802.133 44.8v0c0 0 0 0 0 0v0 0 0 0 0 0 0 0c0 0 0 0 0 0v0c0 0 2.133 0 0 0v0 0 0c2.133 0 2.133 0 0 0v0c0-2.133 0-2.133 0 0v0c0-2.133 0-2.133 0 0v0 0 0 0 0 0c0-2.133 0-2.133 0 0v0 0 0 0 0 0c0-2.133 0-2.133 0-2.133v0 0c0 0 0 0 0 0s0 0 0 2.133v0c0 0 0 0 0 0v0 0 0c0 0 0 0 0 0v0zM800 40.533v0 0 0c2.133 0 2.133 0 0 0v0 0c2.133 0 2.133 0 0 0v0 0 0 0 0 0 0 0 0 0 0 0 0 0 0c2.133 0 2.133 0 0 0v0 0 0 0c2.133 0 2.133 0 0 0v0c2.133 0 2.133 0 0 0v0c2.133 0 2.133 0 2.133 0s0 0 0 0 0 0 0 0h-2.133c2.133-2.133 2.133-2.133 0 0v0 0 0c2.133-2.133 2.133-2.133 0 0v0 0 0 0c2.133-2.133 2.133-2.133 0 0 2.133 0 2.133 0 2.133 0v0 0 0c0-2.133 0-2.133-2.133 0 2.133-2.133 2.133-2.133 0 0v0 0 0 0 0c2.133-2.133 2.133-2.133 0 0v0 0 0 0zM804.267 38.4c0 0 0 0 0 0v0 0 0 0 0 0zM804.267 36.267v0 0 0c0 2.133 0 2.133 0 0v0 0 0c0 2.133 0 0 0 0v0c0 0 0 0 0 0v0 0 0 0 0 0zM804.267 36.267v0 0 0 0 0c0 0 0 0 0 0s0 0 0 0v0 0 0 0zM804.267 38.4v0 0 0 0 0 0 0 0c0 0 0 0 0 0v0 0 0 0 0 0 0 0c0 2.133 0 2.133 0 0v0 0c0 2.133 0 2.133 0 0v0 0 0 0c0 2.133 0 2.133 0 0v0 0 0 0 0 0 0 0 0 0 0 0 0 0c2.133 0 2.133 0 0 0 2.133 0 2.133 0 2.133 0s0 0 0 0v0h-2.133l2.133 2.133c0 0 0 0 0 0v0 0 0 0 0 0c0 0 0 0 0 0v0c0 0 0 0 0 0v0 0 0c0 0 0 0 0 0v0 0c0 0 0 0 0 0v0 0 0 0 0c0 0 0 0 0 0v0 0 0c0 0 0 0 0 0v0 0 0 0 0 0 0 0 0 0 0 0 0 0 0 0 0c0 0 0 0 0 0v0c0 0 0 0 0 0s0 0 0 0v0 0 0 0 0 0 0 0 0 0 0 0 0 0 0 0 0 0 0 0 0c0 0 0 0 0 0v0 0c0 0 0 0 0 0v0 0 0c0 0 0 0 0 0v0 0c0 0 0 0 0 0v0 0 0 0 0 0 0 0 0 0 0 0 0 0 0 0 0 0 0c0 0 0 0 0 0v0 0c0 0 0 0 0 0v0c0 0 0 0 0 0v0c0 0 0 0 0 0v0c0 0 0 0 0 0v0 0 0 0 0c0 0 0 0 0 0v0c0 0 0 0 0 0v0 0 0c0 0 0 0 0 0v0 0 0 0 0 0 0 0 0 0c0 0 0 0 0 0v0 0 0 0 0c0 0 0 0 0 0v0 0 0 0 0 0 0 0c0 0 0 0 0 0v0 0 0 0 0 0 0 0c0 0 0 0 0 0v0 0 0 0 0 0 0 0 0 0 0 0 0c0 0 0 0 0 0v0 0 0 0c0 0 0 0 0 0v0 0 0c0 0 0 0 0 0v0 0 0 0 0 0 0 0 0 0 0 0 0 0c0 0 0 0 0 0v0 0 0 0c0 0 0 0 0 0v0 0 0 0c0 0 0 0 0 0s0 0 0 0v0 0l-2.133-2.133c0-2.133 0-2.133 0 0v0 0 0 0 0 0 0 0c0 0 2.133 0 0 0v0 0c2.133 0 2.133 0 0 0v0 0c2.133 0 2.133 0 0 0v0 0 0c2.133 0 2.133 0 0 0v0 0 0 0 0 0 0 0 0 0 0 0 0 0 0c0 0 0 0 0 0v0 0 0 0 0 0 0 0 0 0 0zM846.933 27.733c0 0 0 0 0 0s0 0 0 0v0 0c0 0 0 0 0 0v-2.133c0 0 0 0 0 0v0c0 0 0 0 0 0s0 0 0 0v0c0 0 0 0 0 0v0 0 0 0c0 0 0 0 0 0v0 0 0 0c0 0 0 0 2.133 0 0 0 0 0 0 0v0 0c0 0 0 0 0 0v0 0c-2.133 0-2.133 0-2.133 2.133 0-2.133 0 0 0 0s0 0 0 0 0 0 0 0 0 0 0 0v0 0 0 0 0 0zM829.867 23.467v0c0 0 0 0 0 0v0 0c0 2.133 0 2.133 0 0 2.133 2.133 2.133 2.133 2.133 2.133v0c0 0 0 0 0 0v0c0 0 0 0 0 0v0 0 0c0 0 0 0 0 0v0 0 0 0c0 0 0 0 0 0v0 0c0 0 0 0 0 0v0 0 0 0 0 0 0 0 0c-2.133 0-2.133 0-2.133-2.133v0 0 0c0 2.133 0 2.133 0 0v0 0 0 0zM827.733 21.333v0 0c2.133 0 2.133 0 0 0 2.133 0 2.133 0 0 0v0 0 0 0 0c2.133 2.133 2.133 2.133 0 0 2.133 2.133 2.133 2.133 2.133 2.133v0c0 0 0 0 0 0v0l-2.133-2.133c2.133 0 2.133 0 0 0v0c2.133 0 2.133 0 0 0 2.133 0 2.133 0 0 0v0 0c2.133 0 2.133 0 0 0v0 0 0 0 0 0 0 0 0zM829.867 21.333c0 0 0-2.133 0 0v0c0-2.133 0-2.133 0 0v0 0c0 0 0 0 0 0v0 0c0 0 0 0 0 0v0 0 0c0 0 0 0 0 0v0 0c0 0 0 0 0 0v0 0zM832 21.333v0 0 0 0c0 0 0 0 0 0s0 0 0 0v0 0 0 0c0 0 0 0 0 0v0zM812.8 46.933v0c0 0 0 0 0 0v0 0 0c0-2.133 0-2.133 0 0v0 0 0 0 0 0 0c0 0 0 0 0 0v0 0 0 0 0 0 0zM804.267 40.533v0 0 0c0 0 0 0 0 0v0 0c0 0 0 0 0 0v0 0 0c0 0 0 0 0 0v0zM804.267 40.533v0 0 0 0 0 0 0 0 0zM806.4 40.533c-2.133 0-2.133 0 0 0v0 0 0 0c0 0 0 0 0 0v0zM806.4 40.533v0 0 0 0c0 0 0 0 0 0v0 0 0 0 0 0 0c0 0 0 0 0 0v0zM806.4 34.133v0c0 0 0 0 0 0v0 0 0c0 0 0-2.133 0 0v0 0 0 0 0 0 0 0 0zM806.4 32v0c2.133 2.133 2.133 2.133 0 0v0 0 0 0 0 0c2.133 0 2.133 0 0 0v0 0 0 0zM817.067 27.733v0c0 0 0 0 0 0v0 0 0 0 0 0 0 0 0zM817.067 25.6v0c0 0 0 0 0 0v0c0 0 0 0 0 0v0zM829.867 34.133v0 0 0c2.133 0 2.133 0 0 0v0c2.133 0 2.133 2.133 0 0v0 0 0 0 0 0 0c2.133 0 2.133 0 0 0v0 0 0 0 0 0 0 0 0 0 0zM829.867 57.6v0 0c0 0 0 0 0 0s0 0 0 0v0 0 0 0c2.133 0 2.133 0 2.133 0s0 0 0 0v0 0c0 0 0 0 2.133 0v0 0 0 0 0 0 0 0 0 0c0 0 0 0 0 0v0c0 0 0 0 0 0s0 0 0 0v0 0c0 0 0 0 0 0v0 0c0 0 0 0 0 0v0c0 0 0 0 0 0v0c0 0 0 0 0 0s0 0 0 0v0 0c0 0 0 0 0 0v0 0c0 0 0 0 0 0v0 0c0 0 0 0 0 0v0 0c0 0-2.133 0-2.133 0s0 0 0 0 0 0 0 0v0h-2.133c0 0 0 0 0 0v0 0 0zM829.867 55.467v0 0 0 0 0 0 0 0 0 0 0 0c0-2.133 2.133 0 0 0v0 0 0c2.133 0 2.133 0 0 0v0 0 0c2.133 0 2.133 0 0 0v0 0c0 0 0 0 0 0v0 0 0c0 0 0 0 0 0v0 0zM832 40.533v0c0 0 0 0 0 0v0c0 0 0 0 0 0v0 0 0 0zM834.133 42.667v0 0 0 0 0 0 0 0 0 0 0c0 0 0 0 0 0v0 0c0 0 0 0 0 0v0zM832 40.533v0c0 0 0 0 0 0s0 0 0 0v0c2.133 0 2.133 0 0 0v0 0c2.133 0 2.133 0 0 0v0 0 0 0c2.133 0 2.133 0 0 0 2.133 0 2.133 0 0 0v0 0c2.133 0 2.133 0 0 0v0 0 0 0c2.133 0 2.133 0 0 0v0 0 0 0c2.133 0 2.133 0 0 0v0zM832 38.4v0 0 0 0 0 0 0c2.133 0 0 0 0 0v0 0 0zM832 36.267v0 0 0 0 0 0 0 0 0 0 0 0zM832 36.267v0 0 0c0 0 0 0 0 0v0 0 0 0 0c0 0 0 0 0 0v0zM829.867 32v0 0 0 0 0c0 0 0 0 0 0 0-2.133 0-2.133 0 0v0 0 0 0 0 0 0 0 0 0zM827.733 34.133v0 0c0-2.133 0-2.133 0 0v0 0 0 0 0 0 0zM827.733 32c0 0 0 0 0 0v0 0c0 0 0 0 0 0v0 0 0 0 0zM827.733 29.867v0 0 0 0 0 0 0 0 0zM834.133 23.467v0 0c0 0 0 0 0 0v0 0 0c0 0 0 0 0 0v0 0 0 0 0 0 0zM819.2 57.6c0 0 2.133 0 0 0v0 0c2.133 0 2.133 0 0 0 2.133-2.133 2.133-2.133 2.133-2.133s0 0 0 0v0 0 0 0c0 0 0 0 0 0v0 0c0 0 0 0 0 0v0c0 0 0 0 0 0v0c0 0 0 0-2.133 2.133l2.133-2.133c0 0 0 0 0 0s0 0 0 0 0 0 0 0v0 0 0 0 0 0 0 0 0 0 0 0c0 0 0 0 0 0v0 0 0 0 0 0 0 0c0 0 0 0 0 0v0c0 0 0 0 0 0s0 0 0 0 0 0 0 0v0 0 0c0 0 0 0 0 0s0 0 0 0v0c0 0 0 0 0 0v0 0c0 0 0 0 0 0v0 0 0 0 0 0 0c0 0 0 0 0 0s0 0 0 0v0 0l-2.133 2.133c2.133 0 2.133 0 0 0 2.133 0 2.133 0 0 0 2.133 0 0 0 0 0v0 0zM825.6 57.6v0c0 0 0 0 0 0v0c0 0 0 0 0 0v0 0c0 0 0 0 0 0v0 0 0 0 0 0c2.133 0 2.133 0 2.133 0v0 0 0 0c0 0 0 0 0 0s0 0 0 0h-2.133c2.133-2.133 2.133-2.133 0 0 2.133-2.133 2.133-2.133 0 0 2.133-2.133 2.133-2.133 0 0 2.133-2.133 2.133-2.133 0 0v0c2.133-2.133 2.133-2.133 0 0 2.133-2.133 2.133-2.133 0 0 0-2.133 0-2.133 0 0v0 0c0-2.133 0-2.133 0 0v0c0-2.133 0-2.133 0 0 0-2.133 0-2.133 0 0v0zM827.733 59.733v0 0c0 0 0 0 0 0v0 0 0 0 0 0 0 0zM827.733 59.733v0 0c0-2.133 0-2.133 0 0v0 0c0-2.133 0-2.133 0 0 0-2.133 0-2.133 0 0 0-2.133 0-2.133 0 0v0 0 0zM829.867 53.333c0 0 0 0 0 0v0c2.133 0 2.133 0 0 0v0c2.133 0 2.133 0 0 0v0h2.133c0 0 0 0 0 0v0h-2.133c2.133 0 2.133 0 0 0 2.133 0 2.133 0 0 0v0 0 0 0 0c0 0 0 0 0 0v0c0 0 0 0 0 0v0zM832 53.333c0 0 0 0 0 0s0 0 0 0v0 0 0 0c0 0 0 0 0 0s0 0 0 0v0c0 0 0 0 0 0v0 0c0 0 0 0 0 0v0zM832 53.333v0c0 0 0 0 0 0s0 0 0 0v0 0 0 0c2.133 0 2.133 0 0 0v0c2.133 0 0 0 0 0v0 0 0 0 0c0 0 0 0 0 0v0 0zM844.8 27.733v0c0 0 0 0 0 0v0 0 0 0c0 0 0 0 0 0v0 0c0 0 0 0 0 0v0c0 0 0 0 0 0v0 0zM806.4 32v0 0c0 0 0 0 0 0v0c0 0 0 0 0 0v0c0 0 0 0 0 0v0 0c0 0 0 0 0 0s0 0 0 0 0 0 0 0v0 0c0 0 0 0 0 0s0 0 0 0 0 0 0 0v0 0 0l2.133-2.133c0 0 0 0 0 0v0 0c0 0 0 0 0 0s0 0 0 0v0c0 0 0 0 0 0v0 0c0 0 0 0 0 0v0 0 0 0 0c0 0 0 0 0 0v0 0 0 0 0 0 0 0 0c0 0 0 0 0 0v0h2.133c0 0 0 0 0 0v0 0c0 0 0 0 0 0v0 0 0c0 0 0 0 0 0s0 0 0 0v0 0 0c0 0 0 0 0 0v0 0 0 0 0 0 0c0 0 0 0 0 0v0 0 0 0 0 0c0 0 0 0 0 0s0 0 0 0v0c0 0 0 0 0 0v0 0 0 0 0 0 0 0 0 0 0 0 0 0 0 0 0 0 0c0 0 0 0 0 0v0 0 0 0 0c0 0 0 0 0 0v0 0 0 0 0 0 0 0 0 0 0 0 0 0 0 0 0 0 0c0 0 0 0 0 0v0 0 0c0 0 0 0 0 0v0 0 0 0c0 0 0 0 0 0v0 0c0 0 0 0 0 0v0c0 0 0 0 0 0v0 0 0 0 0 0 0 0 0 0 0 0 0c0 0 0 0 0 0v0 0 0 0c0 0 0 0 0 0v0 0 0 0c0 0 0 0 0 0s0 0 0 0 0 0 0 0v0c0 0 0 0 0 0v0 0 0 0c0 0 0 0 0 0v0 0 0 0c0 0 0 0 0 0v0 0c0 0 0 0 0 0v0 0 0c0 0 0 0 0 0v0 0 0c0 0 0 0 0 0v0 0 0 0 0c0 0 0 0 0 0s0 0 0 0v0c0 0 0 0 0 0s0 0 0 0v0 0 0 0c0 0 0 0 0 0v0 0 0 0c0 0 0 0 0 0v0 0 0 0c0 0 0 0 0 0v0 0 0 0 0c0 0 0 0 0 0v0 0 0 0 0 0c0 0 0 0 0 0s0 0 0 0v0 0c0 0 0 0 0 0s0 0 0 0 0 0 0 0 0 0 0 0v0 0 0 0 0 0c0 0 0 0 0 0v0 0 0 0 0 0 0 0 0 0c0 0 0 0 0 0v0 0 0 0 0c0 0 0 0 0 0v0 0c0 0 0 0 0 0v0 0 0 0c0 0 0 0 0 0v0 0c0 0 0 0 0 0s0 0 0 2.133v0 0 0 0c0 0 0 0 0 0v0 0 0c0 0 0 0 0 0s0 0 0 0v0c0 0 0 0 0 2.133 0 0 0 0 0 0v0c0 0 0 0 0 0v0c0 0 0 0 0 0v0c0 0 0 0 0 0v0 0 0 0c0 0 0 0 0 0s0-2.133 0-2.133v0c0 0 0 0 0 0s0 0 0 0v0 0c0 0 0 0 0 0v0 0 0 0 0c0 0 0 0 0 0s0 0 0 0 0 0 0 0v0 0 0 0 0 0 0 0 0 0 0c0 0 0 0 0 0v0 0c0 0 0 0 0 0s0 0 0 0v0c0 0 0 0 0 0v0 0 0c0 0 0 0 0 0v0c0 0 0 0 0 0s0 0 0 0v0 0c0 0 0 0 0 0s0 0 0 0v0 0 0 0 0 0 0c0 0 2.133 2.133 2.133 2.133s0 0 0 0v0 0 0 0 0c0 0 0 0 0 0v0c0 0 0 0 2.133 2.133 0 0 0 0 0 0v0c0 0 0 0 0 0v0 0 0 0c0 0 0 0 0 0s0 0 0 0v0 0c0 0 0 0 0 0v0c0 0 0 0 0 0v0 0c0 0 0 0 0 0s0 0 0 0v0 0c0 0 0 0 0 0v0 0c0 0 0 0 0 0v0 0c0 0 0 2.133 0 2.133s0 0 0 0 0 0 0-2.133v0 0 0 0 0 0c0 0 0 0 0 0s0 0 0 0v0 0c0 0 0 0 0 0s0 0 0 0v0c0 0 0 0 0 0s0 0 0 0 0 0 0 0v0c0 0 0 0 0 0s0 0 0 0 0 0 0 0v0 0 0 0 0 0 0 0 0 0 0 0c0 0 0 0 0 0v0 0c0 0 0 0 0 0v0c0 0 0 0 0 0v0 0 0c0 0 0 0 0 0s0 0 0 0v0 0 0 0 0c0 0 0 0 0 0s0 0 0 0v0c0 0 0 0 0 0v0c0 0 0 0 0 0s0 0 0 0v0c0 0 0 0 0 0v0c0 0 0 0 0 0v0 0c0 0 0 0 0 0v0c0 0 0 0 0 0v0 0 0 0 0c0 0 0 0 0 2.133 0 0 0 0 0 0v0c0 0 0 0 0 0v0 0 0c0 0 0 0 0 0v0c0 0 0 0 0 0v0 0 0 0 0 0 0 0 0 0 0c0 0 0 0 0 0v0 0 0 0c0 0 0 0 0 0s0 0 0 0v0c0 0 0 0 0 0v0c0 0 0 0 0 0v0 0 0 0c0 0 0 0 0 0v0 0 0 0 0 0c0 0 0 0 0 0v0 0c0 0 0 0 0 0s0 0 0 0v0 0 0 0 0 0 0 0c0 0 0 0 0 0v0c0 0 0 0 0 0v0 0c0 0 0 0 0 0s0 0 0 0v0c0 0 0 0 0 0v0 0c0 0 0 0 0 0v0 0 0 0 0c0 0 0 0 0 0s0 0 0 0v0 0 0 0 0 0 0 0 0 0 0 0 0 0 0c0 0 0 0 0 0v0 0 0 0 0 0 0c0 0 0 0 0 0s0 0 0 0v0 0 0 0 0 0 0 0c0 0 0 0 0 0s0 0 0 0v0c0 0 0 0 0 0v0 0 0 0c0 0 0 0 0 0v0 0 0c0 0 0 0 0 0v0 0 0c0 0 0 0 0 0v0c0 0 0 0 0 0v0c0 0 0 0 0 0s0 0 0 0v0 0c0 0 0 0 0 0s0 0 0 0 0 0 0 0 0 0 0 0v0 0c0 0 0 0 0 0s0 0 0 0 0 0 0 0v0 0 0c0 0 0 0 0 0v0 0 0c0 0 0 0 0 0v0c0 0 0 0 0 0v0 0 0 0 0 0 0 0 0 0 0 0 0 0 0 0 0 0c0 0 0 0 0 0s0 0 0 0v0 0 0c0 0 0 0 0 0v0 0 0 0 0 0 0 0 0 0 0c0 0 0 0 0 0v0 0c0 0 0 0 0 0v0 0 0 0 0 0 0 0 0 0 0c0 0 0 0 0 0s0 0 0 0v0c0 0 0 0 0 0v0 0c0 0 0 0 0 0v0 0c0 0 0 0 0 0v0 0 0 0c0 0 0 0 0 0v0 0c0 0 0 0 0 0s0 0 0 0v0c0 0 0 0 0 0s0 0 0 0v0 0c0 0 0 0 0 0v0c0 0 0 0 0 0s0 0 0 0 0 0 0 0 0 0 0 0v0 0 0 0 0 0c0 0 0 0 0 0v0 0 0c0 0 0 0 0 0v0c0 0 0 0 0 0s0 0 0 0v0 0 0 0 0 0c0 0 0 0 0 0s0 0 0 0v0 0 0c0 0 0 0 0 0v0c0 0 0 0 0 0v0 0 0c0 0 0 0 0 0s0 0 0 0 0 0 0 0v0 0c0 0 0 0 0 0s0 0 0 0v0 0 0c0 0 0 0 0 0s0 0 0 0v0 0c0 0 0 0 0 0s0 0 0 0v0 0 0c0 0 0 0 0 0v0 0 0 0 0 0 0c0 0 0 0 0 0v0 0 0 0 0 0 0c0 0 0 0 0 0v0 0c0 0 0 0 0 0v0 0 0 0 0 0 0c0 0 0 0 0 0v0 0 0 0 0c0 0 0 0 0 0v0 0 0 0c0 0 0 0 0 0v0 0 0 0 0 0 0 0 0 0 0 0 0 0 0 0 0 0 0 0 0c0 0 0 0 0 0v0 0 0 0 0 0 0 0 0 0 0 0c0 0 0 0 0 0v0 0 0 0 0 0 0 0c0 0 0 0 0 0v0 0 0 0 0c0 0 0 0 0 0s0 0 0 0v0 0c0 0 0 0 0 0s0 0 0 0v0 0 0 0 0c0 0 0 0 0 0v0 0 0 0 0 0 0 0c0 0 0 0 0 0v0 0 0 0 0 0 0 0 0 0 0 0 0c0 0 0 0 0 0s0 0 0 0v0 0c0 0 0 0 0 0v0 0c0 0 0 0 0 0s0 0 0 0 0 0 0 0v0 0 0 0 0 0 0 0 0 0 0 0 0 0 0c0 0 0 0 0 0v0 0 0c0 0 0 0 0 0v0 0 0 0 0 0 0 0c0 0 0 0 0 0v0 0c0 0 0 0 0 0v0 0 0 0 0c0 0 0 0 0 0v0 0c0 0 0 0 0 0v0 0 0 0 0 0c0 0 0 0 0 0v0 0 0 0 0c0 0 0 0 0 0s0 0 0 0 0 0 0 0 0 0 0 0v0c0 0 0 0 0 0v0 0 0 0 0 0c0 0 0 0 0 0s-2.133 0-2.133 2.133v0 0c0 0 0 0 0 0v0 0 0c0 0 0 0 0 0v0c0 0 0 0 0 0v0c0 0 0 0 0 0v0 0 0c0 0 0 0 0 0v0 0 0 0 0c0 0 0 0 0 0v0c0 0 0 0 0 0v0 0 0 0c0 0 0 0 0 0s0 0 0 0v0c0 0 0 0 0 0v0c0 0 0 0 0 0v0c0 0 0 0 0 0v0 0 0 0 0 0c0 0 0 0 0 0s0 0 0 0v0c0 0 0 0 0 0s0 0 0 0 0 0 0 0v0 0c0 0 0 0 0 0v0 0c0 0 0 0 0 0s0 0 0 0 0 0 0 0v0c0 0 0 0 0 0s0 0 0 0 0 0 0 0v0 0c0 0 0 0 0 0s0 0 0 0 0 0 0 0v0c0 0 0 0 0 0v0c0 0 0 0 0 0s0 0 0 0v0 0 0 0 0 0 0c0 0 0 0 0 0v0c0 0 0 0 0 0s0 0 0 0v0 0 0 0 0 0 0 0 0 0c0 0 0 0 0 0v0 0 0 0c0 0 0 0 0 0v0c0 0 0 0 0 0s0 0 0 0 0 0 0 0v0 0 0 0 0 0c0 0 0 0 0 0v0 0 0c0 0 0 0 0 0v0 0 0 0 0 0c0 0 0 0 0 0v0 0c0 0 0 0 0 0v0 0 0 0 0 0c0 0 0 0 0 0v0c0 0 0 0 0 0v0c0 0 0 0 0 0v0c0 0 0 0 0 0v0 0 0 0 0 0 0 0 0 0c0 0 0 0 0 0v0 0 0 0c0 0 0 0 0 0v0 0c0 0 0 0 0 0v0c0 0 0 0 0 0v0 0c0 0 0 0 0 0s0 0 0 0v0 0 0 0 0 0 0c0 0 0 0 0 0v0 0 0 0 0 0 0 0 0 0c0 0 0 0 0 0v0 0c0 0 0 0 0 0v0 0 0 0 0 0c0 0 0 0 0 0v0 0 0 0 0 0 0c0 0 0 0 0 0v0 0 0c0 0 0 0 0 0v0 0c0 0 0 0 0 0v0c0 0 0 0 0 0s0 0 0 0v0 0c0 0 0 0 0 0v0c0 0 0 0-2.133-2.133v0 0 0 0 0 0c0 0 0 0 0 0v0 0 0 0c0 0 0 0 0 0v0c0 0 0 0 0 0v0 0 0 0 0c0 0 0 0 0 0v0 0 0 0c0 0 0 0 0 0v0 0 0c0 0 0 0 0 0s0 0 0 0v0 0 0 0 0 0 0c0 0 0 0 0 0v0 0c0 0 0 0 0 0v0 0 0 0 0c0 0 0 0 0 0v0 0c0 0 0 0 0 0v0c0 0 0 0 0 0s0 0 0 0v0 0 0 0 0 0 0 0c0 0 0 0 0 0v0 0 0c0 0 0 0 0 0s0 0 0 0v0 0 0c0 0 0 0 0 0v0 0 0c0 0 0 0 0 0s0 0 0 0v0 0c0 0 0 0 0 0v0c0 0 0 0 0 0v0c0 0 0 0 0 0v0 0 0 0c0 0 0 0 0 0v0 0 0 0c0 0 0 0 0 0v0c0 0 0 0 0 0v0 0 0 0 0 0 0c0 0 0 0 0 0v0c0 0 0 0 0 0v0 0 0 0 0 0 0 0 0 0 0 0 0 0 0c0 0 0 0 0 0v0 0 0 0c0 0 0 0 0 0s0 0 0 0v0 0 0 0 0 0 0c0 0 0 0 0 0s0 0 0 0v0c0 0 0 0 0 0v0 0 0 0 0 0c0 0 0 0 0 0v0 0c0 0 0 0 0 0v0 0 0 0c0 0 0 0 0 0v0c0 0 0 0 0 0s0 0 0 0 0 0 0-2.133v0 0 0 0 0c0 0 0 0 0 0v0 0 0 0 0 0 0c0 0 0 0 0 0v0 0 0 0 0 0 0 0 0 0 0 0 0 0c0 0 0 0 0 0v0c-2.133-4.267-2.133-4.267-4.267-4.267v0c0 0 0 0 0 0v0c0 0 0 0 0 0v0c0 0 0 0 0 0s0 0 0 0v0 0 0 0c0 2.133 0 2.133 0 0 0 2.133 0 2.133 0 0v0 0 0 0 0 0zM864 49.067c2.133 0 2.133 0 0 0 2.133 0 2.133 0 0 0v0 0c2.133 0 2.133 0 0 0v0 0 0 0c2.133 0 2.133 0 0 0 2.133 0 2.133 0 0 0v0 0c0 0 0 0 0 0s0 0 0 0 0 0 0 0c-2.133 0-2.133 0-2.133 0s0 0 0 0v0 0 0 0 0c0 0 0 0 0 0v0 0 0 0c0 0 0 0 0 0v0c0 0 0 0 0 0v0c0 0 0 0 0 0v0c0 0 0 0 0 0s0 0 0 0 0 0 0 0v0c0 0 0 0 0 0v0 0 0c0 0 0 0 0 0v0 0 0 0 0 0 0c0 0 0 0 0 0s0 0 2.133 0c0 0 0 0 0 0v0 0 0 0 0 0 0 0 0 0 0 0 0 0 0 0c0 0 0 0-2.133 0 0 0 0 0 0 0s0 0 0 0v0 0 0 0 0c0 0 0 0 0 0v0c0 0 0 0 0 0v0 0 0 0 0 0 0 0c0 0 0 0 0 0s0 0 0 0v0 0 0 0 0c0 0 0 0 0 0v0c0 0 0 0 0 0s0 0 0 0v0c0 0 0 0 0-2.133 0 0-2.133 0-2.133 0v0c0 0 0 0 0 0v0c0 0 0 0 2.133 0v0 0 0 0c0 0 0 0 0 0s0 0 0 0v0c0 0 0 0 0 0v0 0c0 0 0 0 0 0v0c0 0 0 0-2.133 0v0 0 0c0 0 0 0 0 0s0 0 0 0v0c0 0 0 0 0 0v0 0 0 0c0 0 0 0 0 0v0 0c0 0 0 0 0 0s0 0 0 0v0 0 0 0 0 0 0c0 0 0 0 0 0v0 0 0 0 0c0 0 0 0 0 0v0c0 0 0 0 0 0v0c0 0 0 0 0 0v0 0c0 0 0 0 0 0v0 0 0 0 0 0 0c0 0 0 0 0 0v0c0 0 0 0 0 0v0 0 0c0 0 0 0 0 0s0 0 0 0v0c0 0 0 0 0 0s0 0 0 0v0c0 0 0 0 0 0v0c0 0 0 0 0 0v0 0 0c0 0 0 0 0 0s0 0 0 0v0c0 0 0 0 0 0s0 0 0 0v0 0 0 0c0 0 0 0 0 0v0 0c0 0 0 0 0 0v0 0 0 0c0 0 0 0 0 0v0 0c0 0 0 0 0 0s0 0 0 0 0 0 0 0v0 0 0 0 0 0 0c0 0 0 0 0 0v0 0 0 0c0 0 0 0 0 0v0 0 0 0 0c0 0 0 2.133-2.133 2.133v0c0 0 0 0 0 0v0 0 0 0 0 0 0c0 0 0 0 0 0v0c0 0 0 0 0 0v0 0 0c0 0 0 0 0 0v0 0 0 0 0 0 0 0 0c0 0 0 0 0 0v0c0 0 0 0 0 0v0 0 0c0 0 0 0 0 0v0 0 0 0 0 0 0 0c0 0 0 0 0 0v0 0 0 0 0 0c0 0 0 0 0 0s0 0 0 0v0c0 0 0 0 0 0v0 0 0 0c0 0 0 0 0 0v0 0c0 0 0 0 0 0v0 0c0 0 0 0 0 0s0 0 0 0v0 0 0 0c0 0 0 0 0 0s0 0 0 0 0 0 0 0 0 0 0 0 0 0 0 0v0 0 0c0 0 0 0 0 0v0c0 0 0 0 0 0s0 0 0 0 0 0 0 0v0 0c0 0 0 0 0 0v0 0c0 0 0 0 0 0s0 0 0 0v0 0 0 0 0 0c0 0 0 0 2.133 0 0 0 0 0 0 0v0c0 0 0 0 0 0v0 0c0 0 0 0 0 0s0 0 0 0v0 0 0 0c0 0 0 0 0 0v0 0c0 0 0 0 0 0s0 0 0 0v0 0 0 0 0 0 0 0 0 0 0c0 0 0 0 0 0s0 0 0 0 0 0 0 0v0c0 0 0 0 0 0s0 0 0 0 0 0 0 0v0 0 0 0 0c0 0 0 0 0 0v0 0c0 0 0 0 0 0v0 0 0c0 0 0 0 0 0v0 0c0 0 0 0 0 0v0 0c0 0 0 0 0 0v0 0 0 0c0 0 0 0 0 0s0 0 0 0 0 0 0 0v0c0 0 0 0 0 0v0 0 0 0c0 0 0 0 0 0v0 0 0 0c0 0 0 0 0 0s0 0 0 0v0 0 0 0 0 0 0c0 0 0 0 0 0v0 0 0 0c0 0 0 0 0 0s0 0 0 0v0 0 0 0 0 0c0 0 0 0 0 0v0 0c0 0 0 0 0 0v0c0 0 0 0 0 0v0c0 0 0 0 0 0v0 0c0 0 0 0 0 0v0 0c0 0 0 0 0 0s0 0 0 0v0 0c0 0 0 0 0 0v0 0 0c0 0 0 0 0 0s0 0 0 0v0 0 0c0 0 0 0 0 0v0 0 0 0 0c0 0 0 0 0 0v0c0 0 0 0 0 0v0c0 0 0 0 0 0v0 0 0 0c0 0 0 0 0 0v0 0c0 0 0 0 0 0s0 0 0 0v0 0 0c0 0 0 0 0 0v0 0 0c0 0 0 0 0 0v0 0 0 0 0 0 0 0 0 0 0 0 0 0c0 0 0 0 0 0v0 0 0 0 0 0 0 0 0 0c0 0 0 0 0 0v0 0 0c0 0 0 0 0 0v0 0 0 0 0 0 0 0 0 0 0 0 0 0c0 0 0 0 0 0v0c0 0 0 0 0 0v0 0 0c0 0 0 0 0 0v0 0 0c0 0 0 0 0 0s0 0 0 0 0 0 0 0 0 0 0 0v0c0 0 0 0 0 0v0 0c0 0 0 0 0 0v0 0 0 0c0 0 0 0 0 0v0 0 0c0 0 0 0 0 0v0c0 0 0 0 0 0v0 0 0c0 0 0 0 0 0v0 0 0 0 0 0 0c0 0 0 0 0 0v0c0 0 0 0 0 0v0c0 0 0 0 0 0v0 0 0c0 0 0 0 0 0v0 0c0 0 0 0 0 0v0 0 0 0 0 0 0 0 0c0 0 0 0 0 0v0c0 0 0 0 0 0v0 0 0c0 0 0 0 0 0v0 0 0c0 0 0 0 0 0v0 0 0c0 0 0 0 0 0s0 0 0 0v0 0c0 0 0 0 0 0v0 0 0c0 0 0 0 0 0v0 0c0 0 0 0 0 0v0c0 0 0 0 0 0v0 0c0 0 0 0 0 0v0c0 0 0 0 0 0v0 0c0 0 0 0 0 0v0c0 0 0 0 0 0v0c0 0 0 0 0 0v0c0 0 0 0 0 0s0 0 0 0v0 0 0 0 0 0 0c0 0 0 0 0 0v0 0 0 0 0 0 0c0 0 0 0 0 0v0 0 0 0 0c0 0 0 0 0 0v0 0 0 0 0 0c0 0 0 0 0 0v0c0 0 0 0 0 0v0 0 0c0 0 0 0 0 0v0 0 0 0 0 0c0 0 0 0 0 0v0 0 0 0 0 0 0c0 0 0 0 0 0v0 0c0 0 0 0 0 0v0 0 0 0 0 0 0c0 0 0 0 0 0v0 0c0 0 0 0 0 0v0 0 0c0 0 0 0 0 0s0 0 0 0v0 0 0c0 0 0 0 0 0v0 0 0 0 0 0c0 0 0 0 0 0v0 0 0c0 0 0 0 0 0v0 0 0 0 0 0c0 0 0 0 0 0s0 0 0 0v0 0 0 0 0 0 0 0 0c0 0 0 0 0 0v0 0 0 0c0 0 0 0 0 0s0 0 0 0v0 0c0 0 0 0 0 0v0 0 0 0 0 0c0 0 0 0 0 0v0 0 0 0c0 0 0 0 0 0v0 0 0c0 0 0 0 0 0s0 0 0 0v0 0 0c0 0 0 0 0 0s0 0 0 0v0c0 0 0 0 0 0v0 0 0c0 0 0 0 0 0v0 0 0 0 0 0 0 0c0 0 0 0 0 0v0 0 0c0 0 0 0 0 0s0 0 0 0v0c0 0 0 0 0 0v0 0 0 0 0 0c0 0 0 0 0 0v0c0 0 0 0 0 0v0 0 0 0c0 0 0 0 0 0s0 0 0 0v0 0 0 0 0 0 0 0c0 0 0 0 0 0v0c0 0 0 0 0 0v0c0 0 0 0 0 0v0 0c0 0 0 0 0 0s0 0 0 0v0 0 0 0 0 0 0 0 0 0 0 0 0c0 0 0 0 0 0v0 0 0 0 0c0 0 0 0 0 0v0 0 0c0 0 0 0 0 0s0 0 0 0 0 0 0 0 0 0 0 0v0 0c0 0 0 0 0 0v0 0 0 0 0 0 0 0c0 0 0 0 0 0v0 0 0 0 0 0 0 0 0 0 0 0 0 0 0 0c0 0 0 0 0 0v0 0c0 0 0 0 0 0v0 0 0c0 0 0 0 0 0v0c0 0 0 0 0 0s0 0 0 0v0 0 0 0 0 0 0 0 0c0 0 0 0 0 0v0c0 0 0 0 0 0v0c0 0 0 0 0 0v0 0 0 0 0 0 0 0 0 0 0c0 0 0 0 0 0v0 0 0 0c0 0 0 0 0 0v0 0 0 0 0c0 0 0 0 0 0v0 0 0 0c0 0 0 0 0 0v0 0c0 0 0 0 0 0v0 0 0c0 0 0 0 0 0v0 0 0 0 0 0 0 0c0 0 0 0 0 0v0 0 0 0 0c0 0 0 0 0 0v0 0 0 0 0 0 0 0 0 0c0 0 0 0 0 0v0 0 0 0 0 0 0 0c0 0 0 0 0 0s0 0 0 0v0 0 0 0 0 0c0 0 0 0 0 0v0 0 0 0c0 0 0 0 0 0v0c0 0 0 0 0 0v0c0 0 0 0 0 0v0c0 0 0 0 0 0v0 0c0 0 0 0 0 0s0 0 0 0v0 0 0 0 0 0 0c0 0 0 0 0 0s0 0 0 0v0 0c0 0 0 0 0 0v0 0 0c0 0 0 0 0 0v0 0c0 0 0 0 0 0v0c0 0 0 0 0 0v0 0 0 0 0c0 0 0 0 0 0s0 0 0 0v0 0c0 0 0 0 0 0s0 0 0 0v0 0c0 0 0 0 0 0s0 0 0 0 0 0 0 0 0 0 0 0v0 0c0 0 0 0 0 0v0 0 0 0c0 0 0 0 0 0v0c0 0 0 0 0 0s0 0 0 0 0 0 0 0v0c0 0 0 0 0 0v0 0 0 0 0 0 0 0 0c0 0 0 0 0 0v0 0 0 0 0c0 0 0 0 0 0v0 0 0 0 0 0c0 0 0 0 0 0v0c0 0 0 0 0 0v0 0 0c0 0 0 0 0 0v0c0 0 0 0 0 0v0 0 0 0 0c0 0 0 0 0 0v0 0c0 0 0 0 0 0v0 0 0 0 0c0 0 0 0 0 0v0 0c0 0 0 0 0 0v0 0 0 0c0 0 0 0 0 0v0 0 0c0 0 0 0 0 0v0 0 0 0 0c0 0 0 0 0 0v0 0 0 0 0 0 0 0 0 0c0 0 0 0 0 0v0 0 0 0 0 0 0 0 0c0 0 0 0 0 0v0 0c0 0 0 0 0 0s0 0 0 0 0 0 0 0 0 0 0 0v0c0 0 0 0 0 0v0 0 0c0 0 0 0 0 0v0c0 0 0 0 0 0s0 0 0 0 0 0 0 0v0 0c0 0 0 0 0 0v0 0 0 0 0c0 0 0 0 0 0v0c0 0 0 0 0 0v0 0 0 0 0 0 0 0 0 0 0 0 0 0 0 0 0c0 0 0 0 0 0v0c0 0 0 0 0 0v0 0c0 0 0 0 0 0v0 0 0 0c0 0 0 0 0 0v0c0 0 0 0 0 0v0c0 0 0 0 0 0s0 0 0 0 0 0 0 0v0 0c0 0 0 0 0 0v0 0 0c0 0 0 0 0 0s0 0 0 0v0 0 0 0c0 0 0 0 0 0v0 0 0 0c0 0 0 0 0 0s0 0 0 0v0 0c0 0 0-2.133 0-2.133s0 0 0 0v0 0c0 0 0 0 0 0v0c0 0 0 0 0 0s0 0 0 0v0c0 0 0 0 0 0v0 0c0 0 0 0 0 0v0 0 0 0 0 0 0 0 0 0 0 0 0 0c0 0 0 0 0 0v0c0 0 0 0 0 0s0 0 0 0v0c0 0 0 0 0 0v0 0 0 0c0 0 0 0 0 0s0 0 0 0v0c0 0 0 0-2.133 0v0c0 0 0 0 0 0v0c0 0 0 0 0 0v0 0 0c0 0 0 0 0 0v0 0 0 0c0 0 0 0 0 0v0 0c0 0 0 0 0 0s0 0 2.133 0v0 0 0 0 0 0c0 0 0 0 0 0v0 0 0 0c0 0 0 0 0 0v0 0 0 0 0 0 0c0 0 0 0 0 0v0 0 0c0 0 0 0 0 0s0 0 0 0v0c0 0 0 0 0 0v0c0 0 0 2.133 0 2.133v0 0 0 0 0c0 0 0 0 0 0v0c0 0 0 0 0 0s0 0 0 0v0c0 0 0 0 0 0v0c0 0 0 0 0 0v0 0c0 0 0 0 0 0v0 0 0c0 0 0 0 0 0s0 0 0 0 0 0 0 0 0 0 0 0 0 0 0 0 0 0 0 0 0 0 0 0 0 0 0 0 0 0 0 0v0 0 0 0 0 0c0 0 0 0 0 0v0 0c0 0 0 0 0 0v0 0c0 0 0 0 0 0s0 0 0 0v0 0 0c0 0 0 0 0 0s0 0 0-2.133c0 0 0 0 0 0v0 0 0 0 0 0c0 0 0 0 0-2.133v0 0 0 0c0 0 0 0 0 0v0c0 0 0 0 0 0s0 0 0 0v0 0 0c0 0 0 0 0 0s0 0 0 0v0 0 0 0 0c0 0 0 0 0 0v0c0 0 0 0 0 0v0 0c0 0 0 0 0 0s0 0 0 0v0c0 0 0 0 0 0v0 0c0 0 0 0 0 0v0c0 0 0 0 0 0v0c0 0 0 0 0 0s0 0 0 0v0 0 0 0 0 0 0 0c0 0 0 0 0 0v0c0 0 0 0 0 0v0 0 0 0c0 0 0 0 0 0v0 0c0 0 0 0 0 0s0 0 0 0v0 0c0 0 0 0 0 0s0 0 0 0v0 0c0 0 0 0 0 0s0 0 0 0v0 0 0 0c0 0 0 0 0 0v0 0 0 0 0 0 0c0 0 0 0 0 0v0c0 0 0 0 0 0s0 0 0 0v0 0c0 0 0 0 0-2.133v0c0 0 0 0 0 0v0 0 0 0c0 0 0 0 0 0v0c0 0 0 0 0 0v0 0 0c0 0 0 0 0 0s0 0 0 0v0 0 0 0 0 0c0 0 0 0 0 0v0 0 0 0 0 0 0c0 0 0 0 0 0s0 0 0 0 0 0 0 0v0 0 0 0 0 0 0 0 0 0 0 0 0c0 0 0 0 0 0v0 0 0 0c0 0 0 0 0 0v0c0 0 0 0 0 0v0 0 0 0 0 0 0 0 0 0 0 0c0 0 2.133 2.133 2.133 2.133v0 0 0 0c0 0 0 0 0 0s0 0 0 0 0 0 0 0v0c0 0 0 0 0 0v0 0 0c0 0 0 0 0 0v0c0 0 0 0 0 0v0 0 0 0c0 0 0 0 0 0s0 0 0 0v0 0c0 0 0 0 0 0v0 0 0 0c4.267 6.4 4.267 6.4 2.133 4.267v0 0 0c2.133 2.133 2.133 0 0 0v0c2.133 0 2.133 0 0 0v0c2.133 2.133 2.133 2.133 0 0v0 0 0 0zM849.067 36.267v0 0 0 0 0 0 0 0 0 0zM851.2 36.267v0 0 0 0 0 0 0 0zM855.467 36.267c0 0 0 0 0 0v0 0 0 0c0 0 0 0 0 0v0 0 0 0 0 0 0zM853.333 36.267v0c0 0 0 0 0 0v0 0 0 0zM851.2 29.867c0-2.133 0-2.133 0 0v0 0c0-2.133 0-2.133 0 0 0-2.133 0 0 0 0v0 0 0 0 0 0 0zM849.067 29.867v0 0 0c0-2.133 0-2.133 0 0 0-2.133 0-2.133 0 0v0 0 0 0zM857.6 36.267v0 0 0 0c0 0 0 2.133 0 0v0 0c0 2.133 0 0 0 0zM883.2 580.267c-2.133 8.533-2.133 17.067 0 23.467 0 2.133 0 4.267 0 4.267h6.4l2.133 2.133c0 6.4-2.133 10.667 0 17.067 2.133 2.133 2.133 4.267 2.133 6.4v2.133l-2.133 2.133c0 2.133 0 4.267 2.133 4.267 0 2.133 0 2.133-2.133 4.267h4.267c2.133 2.133 2.133 4.267 2.133 6.4s-2.133 2.133-2.133 4.267c2.133 2.133 4.267 6.4 6.4 8.533 0 2.133 0 4.267 2.133 8.533 0 0 2.133 2.133 2.133 2.133 0 2.133 0 6.4-2.133 8.533l2.133 2.133c2.133 2.133 4.267 4.267 6.4 6.4 4.267 2.133 6.4 6.4 8.533 8.533v2.133l2.133 2.133h4.267c12.8 12.8 23.467 27.733 36.267 40.533h2.133c0 0 2.133-2.133 2.133-2.133h2.133v2.133l-2.133 2.133v2.133c4.267 2.133 8.533 4.267 12.8 8.533 4.267 2.133 8.533 4.267 12.8 8.533l2.133 2.133c2.133 2.133 4.267 2.133 8.533 2.133 2.133 2.133 4.267 2.133 6.4 2.133s2.133 2.133 2.133 2.133c4.267 2.133 6.4 4.267 10.667 4.267 4.267 8.533 6.4 19.2 6.4 29.867-2.133 6.4-4.267 12.8-6.4 19.2-2.133 2.133-4.267 2.133-8.533 2.133l-4.267-4.267h-2.133c-2.133 2.133-2.133 4.267-4.267 4.267-2.133-8.533-4.267-17.067-4.267-27.733 0-2.133-2.133-2.133-2.133-4.267s0-2.133-2.133-4.267v0c0 0-2.133 0-2.133 0-2.133-2.133-2.133-2.133-4.267-4.267h-2.133v-2.133l-2.133-2.133c-2.133 0-2.133 0-4.267 0-2.133-2.133-4.267-2.133-6.4-4.267s-2.133-6.4-4.267-8.533l-2.133-2.133-4.267 4.267c0 0-2.133 0-2.133 0s-2.133 2.133-2.133 2.133c-2.133 0-4.267 0-4.267-2.133s-2.133-4.267-4.267-6.4l-4.267 4.267h-6.4c-2.133 0-2.133 2.133-4.267 2.133s-2.133 0-4.267-2.133c-12.8 6.4-27.733 8.533-40.533 6.4 0 2.133-2.133 2.133-2.133 4.267v2.133h2.133c8.533 8.533 12.8 17.067 14.933 27.733 2.133 0 4.267 2.133 4.267 2.133 2.133 4.267 4.267 8.533 6.4 10.667 2.133 0 2.133 2.133 4.267 2.133 0 2.133 0 4.267 0 6.4-2.133 4.267-4.267 6.4-8.533 8.533-4.267 0-6.4 2.133-8.533 4.267h-2.133l-2.133-2.133c-2.133 2.133-2.133 2.133-4.267 4.267l-2.133 2.133c-2.133 0-4.267 0-6.4 2.133-10.667 8.533-21.333 14.933-32 23.467h-4.267c-8.533 2.133-14.933 4.267-21.333 8.533-2.133 2.133-2.133 4.267-2.133 6.4-4.267 4.267-10.667 8.533-17.067 10.667-2.133 2.133-4.267 6.4-6.4 6.4-4.267 6.4-6.4 10.667-8.533 17.067-2.133 2.133-2.133 2.133-4.267 2.133-2.133 2.133-6.4 6.4-8.533 8.533 0 2.133-2.133 2.133-2.133 4.267-8.533 0-17.067 0-25.6 0h-4.267c0 0-2.133 2.133-2.133 2.133l-2.133-2.133c-4.267-8.533-8.533-17.067-10.667-25.6-2.133 4.267-2.133 6.4-4.267 10.667l-2.133 2.133c0 2.133-2.133 4.267-2.133 4.267l-2.133 2.133h-4.267c-10.667 4.267-21.333 4.267-32 2.133-2.133 2.133-2.133 2.133-4.267 4.267h-4.267l-2.133 2.133c-2.133 0-2.133 2.133-4.267 2.133l-2.133-2.133c0-2.133 0-4.267 0-6.4l-2.133-2.133c-4.267-2.133-6.4-2.133-10.667-4.267v-6.4c-2.133-2.133-4.267-2.133-6.4-2.133l-2.133-2.133v-2.133c0-2.133-2.133-2.133-4.267-4.267v-4.267c2.133-2.133 4.267-4.267 4.267-4.267-4.267-10.667-6.4-21.333-6.4-32-10.667-4.267-19.2-10.667-29.867-17.067 0-2.133-2.133-4.267-4.267-6.4v-6.4l2.133-2.133c2.133-2.133 2.133-4.267 2.133-6.4-2.133 0-2.133 0-2.133-2.133-2.133-8.533-2.133-19.2 4.267-27.733v-4.267c-2.133-2.133-2.133-4.267-4.267-6.4 0-2.133 0-4.267 2.133-6.4s4.267-6.4 6.4-8.533c0-2.133 0-4.267 0-4.267-2.133 0-4.267 0-4.267 0s-2.133-2.133-2.133-2.133h-2.133c-2.133 0-2.133 0-2.133 2.133h-2.133l-2.133-2.133c0-2.133 0-4.267 0-6.4l-2.133-2.133c-2.133-4.267-4.267-10.667-4.267-17.067-2.133-2.133-4.267-4.267-4.267-6.4-2.133-2.133-4.267-6.4-8.533-8.533 0-6.4-2.133-10.667-2.133-17.067 0-2.133 0-2.133 0-4.267-2.133-2.133-4.267-4.267-6.4-6.4 2.133-6.4 4.267-14.933 4.267-21.333v-2.133l2.133-2.133v-2.133c0-2.133-2.133-4.267-2.133-6.4-2.133 0-2.133 0-4.267 0h-2.133c0 0 0-2.133 0-2.133-2.133-4.267-2.133-10.667-2.133-14.933v-2.133c0 0-2.133 0-2.133 0v-2.133h-2.133l-2.133-2.133c0-4.267 0-8.533 0-14.933l4.267-4.267v-2.133l2.133-2.133h4.267v-4.267c0 0-2.133-2.133-2.133-2.133 2.133-4.267 4.267-8.533 6.4-12.8 0-2.133 0-4.267 0-6.4l2.133-2.133h2.133v-2.133c0-2.133 0-2.133-2.133-4.267v-6.4l2.133-2.133c2.133 0 2.133 2.133 4.267 2.133h2.133v-2.133c0-4.267-2.133-8.533-2.133-14.933 0-4.267 2.133-8.533 2.133-12.8l-2.133-2.133h-4.267c0-2.133 0-4.267 0-4.267-2.133-2.133-2.133-4.267-4.267-4.267v-2.133c0-2.133 0-2.133-2.133-2.133 0-4.267 0-8.533 0-12.8-2.133 0-2.133-2.133-4.267-2.133v-2.133c2.133 0 2.133 0 4.267 0v-4.267c0-2.133 0-2.133 2.133-4.267 0-2.133 0-4.267 2.133-6.4 0-2.133 0-2.133 0-4.267s0-4.267 2.133-4.267l-2.133-2.133h-2.133c-2.133-2.133-4.267-4.267-2.133-8.533h-4.267v-2.133c0 0-2.133-2.133-2.133-2.133 0-2.133 0-4.267 0-4.267s-2.133-2.133-2.133-2.133c0-4.267 0-8.533 2.133-10.667 0-2.133 0-4.267-2.133-4.267v-2.133l4.267-4.267c-2.133-6.4 0-12.8 4.267-19.2 0-6.4 2.133-10.667 4.267-14.933v-2.133c-4.267-2.133-8.533-6.4-10.667-8.533 0-6.4 0-14.933-2.133-21.333-2.133 0-2.133 0-4.267 2.133v0c0-2.133 2.133-6.4 2.133-8.533s0-4.267 0-4.267v-2.133h-2.133v-6.4h4.267v-2.133c0-2.133-2.133-2.133-2.133-2.133v-4.267c0-2.133 0-2.133-2.133-4.267v-2.133c2.133-2.133 2.133-4.267 2.133-6.4 0-6.4 0-12.8 0-19.2 2.133-4.267 4.267-8.533 4.267-14.933h-4.267l-2.133-2.133v-4.267l2.133-2.133v-2.133c0-2.133-2.133-2.133-2.133-4.267 0-4.267 2.133-10.667 2.133-14.933 2.133-2.133 4.267-2.133 6.4-2.133v-4.267c-2.133 0-2.133-2.133-2.133-4.267l6.4-6.4c0-2.133-2.133-2.133-2.133-4.267l4.267-4.267v-2.133c-2.133-2.133-2.133-4.267-2.133-6.4s0-4.267 0-6.4l2.133-2.133c4.267 0 6.4 0 10.667 0 2.133 0 2.133 0 2.133-2.133v-2.133c0-2.133-2.133-2.133-2.133-2.133 0-2.133 0-2.133 0-4.267l-2.133-2.133c-2.133 0-2.133 2.133-4.267 2.133s-2.133-2.133-4.267-2.133c0 0-2.133 0-4.267 0h-2.133c-2.133 0-2.133 0-4.267 0v-2.133l4.267-4.267h2.133c2.133 0 2.133 0 4.267 0l2.133-2.133c2.133-2.133 2.133-4.267 6.4-6.4v-2.133l-4.267-4.267c0-2.133 0-2.133 0-4.267h-2.133c-2.133 0-2.133 0-4.267 0 0-2.133 0-4.267 0-6.4l6.4-6.4c0-2.133-2.133-4.267-4.267-6.4v-2.133c2.133 0 2.133-2.133 2.133-2.133 0-4.267 2.133-6.4 2.133-10.667l-2.133-4.267c-2.133-2.133-2.133-2.133-4.267-4.267 0-2.133 0-4.267 0-6.4v-2.133h2.133v-4.267h-2.133c0-2.133 0-2.133 0-4.267h-4.267v-2.133c0-6.4-2.133-10.667-2.133-14.933 0-2.133 2.133-2.133 4.267-2.133l2.133-2.133c0-2.133 0-2.133 0-4.267s-2.133-4.267-6.4-6.4c2.133-6.4 2.133-10.667-2.133-14.933 0 0-2.133 0-2.133-2.133s-2.133-4.267-2.133-4.267c0-2.133 0-2.133 0-4.267v-2.133c-2.133 0-4.267 0-6.4 0-2.133-2.133-2.133-6.4-2.133-8.533s2.133-2.133 2.133-4.267c0-2.133 0-4.267 0-4.267 0-2.133 0-2.133 2.133-4.267 0-2.133 0-2.133 0-4.267 2.133-2.133 4.267-2.133 4.267-4.267s2.133-6.4 2.133-8.533c2.133-2.133 2.133-2.133 2.133-4.267h4.267c2.133 2.133 2.133 4.267 4.267 6.4 0 0 2.133 0 2.133-2.133h2.133l2.133 2.133h4.267v-6.4l2.133-2.133v-2.133c0-2.133-2.133-4.267-2.133-6.4v-2.133c2.133 0 2.133-2.133 2.133-2.133 0-4.267-2.133-6.4-2.133-10.667 2.133-2.133 2.133-2.133 2.133-4.267 2.133 0 4.267-2.133 4.267-2.133 0-2.133 2.133-4.267 2.133-4.267h2.133c19.2 4.267 36.267 2.133 53.333-2.133 4.267-2.133 8.533-4.267 12.8-6.4v2.133c-4.267 6.4-8.533 12.8-12.8 19.2h-2.133l2.133 2.133c-2.133 6.4-4.267 10.667-4.267 17.067h-2.133c0 0-2.133-2.133-2.133-2.133v2.133c2.133 2.133 2.133 2.133 4.267 2.133l2.133 2.133c0 10.667 4.267 19.2 12.8 23.467v2.133l2.133-2.133h2.133c8.533 6.4 10.667 14.933 8.533 23.467v0h-2.133c2.133 8.533 6.4 17.067 12.8 23.467h2.133c2.133 2.133 4.267 2.133 4.267 4.267 4.267 2.133 8.533 6.4 10.667 10.667h4.267v2.133c0 0 0 0-2.133 2.133v0h4.267v2.133c-2.133 2.133-2.133 2.133-2.133 4.267v2.133c0 2.133 2.133 2.133 2.133 2.133 2.133 6.4 2.133 12.8-2.133 17.067-6.4 0-12.8 0-17.067 2.133-12.8 8.533-21.333 21.333-17.067 36.267h2.133c0 2.133 0 2.133 0 4.267 2.133 4.267 6.4 10.667 10.667 14.933 2.133 0 4.267 0 6.4 0 0 2.133 0 2.133 0 4.267l2.133 2.133h2.133c0 0 2.133 2.133 2.133 2.133 2.133 0 4.267 0 4.267 0 2.133 0 2.133 0 4.267 0l2.133-2.133h2.133c0 2.133 2.133 2.133 2.133 4.267v2.133h-2.133v4.267c2.133 2.133 4.267 6.4 8.533 6.4 0 2.133 0 2.133 0 4.267h2.133v4.267c0 2.133 0 2.133 0 4.267v2.133h2.133v2.133c-2.133 4.267-2.133 8.533-2.133 12.8 2.133 2.133 4.267 6.4 6.4 8.533v4.267c4.267 4.267 10.667 6.4 14.933 8.533v2.133h-2.133c-4.267 2.133-8.533 2.133-12.8 4.267 0 0 0 2.133-2.133 2.133l2.133 2.133c2.133 2.133 4.267 2.133 6.4 4.267 2.133 0 2.133 0 4.267 0s4.267-2.133 4.267-2.133v-6.4c0-2.133 2.133-2.133 4.267-4.267 2.133 0 4.267 2.133 6.4 2.133l2.133 2.133 2.133 4.267c0 4.267 0 8.533 0 10.667-2.133 2.133-2.133 4.267-2.133 6.4h-2.133c-4.267-2.133-6.4-4.267-10.667-4.267v0 0c2.133 0 2.133 0 4.267 0v-4.267h-6.4c0 0-2.133 0-2.133-2.133h-4.267v2.133c0 0 2.133 2.133 2.133 2.133v2.133c-6.4 0-10.667 2.133-12.8 8.533 0 2.133 0 4.267 2.133 6.4v4.267c0 2.133 0 2.133 0 4.267-6.4 10.667-6.4 19.2 2.133 27.733v0-2.133c0 0-2.133-2.133-2.133-2.133v0c8.533-2.133 17.067-4.267 23.467-8.533 14.933-2.133 27.733 2.133 36.267 14.933l-2.133 2.133c-2.133 2.133-4.267 4.267-4.267 6.4v4.267h2.133l2.133 2.133v4.267c0 2.133 2.133 4.267 2.133 4.267h2.133c2.133 4.267 4.267 8.533 2.133 12.8 0 0-2.133 2.133-2.133 2.133-2.133 2.133-2.133 4.267-4.267 8.533 0 2.133 0 2.133 2.133 4.267v2.133l-2.133 2.133v2.133h2.133l6.4-6.4c36.267-2.133 70.4 6.4 102.4 23.467 6.4 12.8 14.933 25.6 25.6 36.267 2.133 6.4 2.133 12.8 0 19.2h-2.133c0 0-2.133 0-2.133-2.133h-2.133c-6.4 4.267-8.533 8.533-10.667 17.067 2.133 4.267 4.267 8.533 6.4 12.8-6.4 10.667-17.067 21.333-29.867 27.733 0 4.267-2.133 6.4-4.267 8.533 2.133 0 2.133 0 4.267 2.133v14.933zM659.2 8.533c0-19.2 2.133-38.4 2.133-57.6 6.4 0 14.933 0 21.333 0v0c-6.4-2.133-14.933-2.133-23.467 0v-8.533c0 0 2.133-2.133 2.133-2.133 12.8 2.133 25.6 2.133 36.267-4.267 2.133 0 2.133 2.133 2.133 2.133 2.133 0 4.267 0 6.4 2.133v2.133h4.267v-2.133h4.267c0 0 0 0 2.133 2.133 0 0 2.133 0 2.133 0v0c2.133 2.133 2.133 4.267 2.133 8.533v0c-2.133 0-6.4 0-8.533-2.133-19.2 8.533-36.267 23.467-46.933 42.667h-6.4l-2.133 2.133v2.133c0 2.133 2.133 2.133 2.133 4.267h2.133l2.133-2.133c2.133 4.267 0 8.533-4.267 10.667v0zM663.467-57.6v0 0 0 0zM416 418.133c0-100.267-72.533-181.333-160-181.333s-160 81.067-160 181.333 72.533 181.333 160 181.333c87.467 0 160-81.067 160-181.333zM409.6 236.8c-6.4 4.267-12.8 10.667-19.2 14.933-36.267-36.267-83.2-57.6-134.4-57.6s-98.133 21.333-134.4 57.6c-6.4-4.267-12.8-8.533-19.2-14.933-57.6-2.133-102.4-49.067-102.4-106.667 0-44.8 27.733-81.067 66.133-98.133 36.267-55.467 108.8-93.867 189.867-93.867 83.2 0 155.733 38.4 189.867 93.867 38.4 17.067 66.133 53.333 66.133 98.133 0 55.467-44.8 102.4-102.4 106.667z" />
<glyph unicode="&#xe919;" glyph-name="ico_homes_documentacionaccesopublico" d="M443.733 450.133c17.067 4.267 44.8 6.4 78.933 6.4 32 0 59.733-2.133 78.933-6.4l-78.933 125.867-78.933-125.867zM166.4 450.133c17.067 4.267 44.8 6.4 78.933 6.4s59.733-2.133 78.933-6.4l-78.933 125.867-78.933-125.867zM810.667 21.333v853.333l-42.667 42.667h-725.333l-42.667-42.667v-896l42.667-42.667h616.533l44.8 42.667h64l42.667 42.667zM149.333 441.6c0 2.133 2.133 4.267 6.4 4.267 0 2.133 0 2.133 0 4.267l85.333 136.533-4.267 6.4h-2.133c0-2.133 0-4.267 0-6.4s0-2.133-2.133-2.133-2.133 0-4.267 2.133-2.133 4.267-2.133 8.533c0 2.133 0 6.4 2.133 8.533s2.133 2.133 4.267 2.133 2.133-2.133 2.133-6.4h2.133v2.133c0 2.133 2.133 4.267 2.133 6.4 2.133 2.133 2.133 2.133 6.4 2.133 2.133 0 4.267 0 6.4-2.133 0 0 2.133-2.133 2.133-4.267 2.133-4.267 8.533-6.4 14.933-6.4 4.267 0 8.533 2.133 14.933 4.267 2.133 2.133 8.533 4.267 12.8 8.533 6.4 4.267 10.667 6.4 14.933 8.533 6.4 2.133 10.667 4.267 17.067 4.267 8.533 0 14.933-2.133 23.467-6.4 2.133-2.133 4.267-4.267 8.533-6.4 0 0 2.133 0 2.133-2.133v14.933h10.667c0 6.4 4.267 10.667 10.667 10.667s10.667-4.267 10.667-10.667h10.667v-14.933c0 0 2.133 0 2.133 2.133 4.267 2.133 6.4 4.267 8.533 6.4 8.533 4.267 14.933 6.4 23.467 6.4 6.4 0 10.667-2.133 17.067-4.267 4.267-2.133 8.533-4.267 14.933-8.533s10.667-6.4 12.8-8.533c4.267-2.133 10.667-4.267 14.933-4.267 8.533 0 12.8 2.133 14.933 6.4 2.133 2.133 2.133 4.267 2.133 4.267 2.133 0 4.267 2.133 6.4 2.133s4.267 0 6.4-2.133c0 0 2.133-2.133 2.133-6.4v-2.133h2.133c0 4.267 0 6.4 2.133 6.4s2.133 0 4.267-2.133c0-2.133 2.133-4.267 2.133-8.533 0-2.133 0-6.4-2.133-8.533 0-2.133-2.133-2.133-4.267-2.133 0 0-2.133 0-2.133 2.133s0 4.267 0 6.4h-2.133l-4.267-6.4 85.333-136.533c0-2.133 0-2.133 0-4.267 4.267-2.133 6.4-2.133 6.4-4.267 0 0 0 0 0 0v0c0 0 0 0 0 0 0-29.867-42.667-55.467-96-55.467s-96 25.6-96 55.467c0 0 0 0 0 0v0c0 0 0 0 0 0 0 2.133 2.133 4.267 6.4 4.267 0 2.133 0 2.133 0 4.267l85.333 138.667c0 0 2.133 2.133 2.133 2.133v0 6.4h-2.133c-4.267-4.267-6.4-6.4-12.8-6.4-4.267 0-8.533-2.133-14.933-2.133s-14.933 2.133-25.6 6.4c-10.667 4.267-19.2 6.4-25.6 6.4-10.667 0-17.067-2.133-23.467-6.4-4.267-2.133-6.4-4.267-8.533-6.4v-4.267h-10.667v-10.667h10.667v-10.667h-10.667v-264.533h21.333v-32c46.933-2.133 81.067-6.4 81.067-10.667v-14.933c34.133-4.267 57.6-8.533 57.6-14.933v-42.667c0-12.8-76.8-21.333-170.667-21.333s-170.667 8.533-170.667 21.333v42.667c0 6.4 21.333 12.8 57.6 14.933v14.933c0 4.267 34.133 10.667 81.067 10.667v32h21.333v266.667h-10.667v10.667h10.667v10.667h-10.667v4.267c-2.133 2.133-6.4 4.267-8.533 6.4-6.4 2.133-14.933 4.267-23.467 6.4-6.4 0-12.8-2.133-25.6-6.4s-21.333-6.4-25.6-6.4c-6.4 0-10.667 0-14.933 2.133-4.267 0-8.533 4.267-12.8 6.4h-2.133v-6.4c0 0 2.133 0 2.133-2.133l85.333-138.667c0-2.133 0-2.133 0-4.267 4.267-2.133 6.4-2.133 6.4-4.267 0 0 0 0 0 0v0c0 0 0 0 0 0 0-29.867-42.667-55.467-96-55.467s-100.267 21.333-100.267 53.333c0-2.133 0-2.133 0 0v0c0 0 0 0 0 0zM149.333 682.667v42.667h469.333v-42.667h-469.333zM746.667 21.333h-21.333v-21.333h-21.333v789.333l-21.333 21.333h-618.667v21.333h21.333v21.333h21.333v21.333h21.333v21.333h640v-853.333h-21.333v-21.333zM827.733 917.333h110.933l85.333 42.667h-256c10.667 0 21.333-4.267 29.867-12.8l29.867-29.867zM853.333 618.667v0h64zM949.333 556.8c-2.133-2.133-6.4-2.133-10.667-2.133h-85.333v-21.333h85.333l85.333 42.667h-36.267l-38.4-19.2zM949.333 514.133c-2.133-2.133-6.4-2.133-10.667-2.133h-85.333v-234.667h85.333l85.333 42.667v21.333l-85.333-42.667-21.333 21.333v128l21.333 21.333 85.333 42.667v21.333h-36.267l-38.4-19.2zM947.2 599.467c-2.133-2.133-6.4-2.133-8.533-2.133h-85.333v-21.333h85.333l85.333 42.667h-38.4l-38.4-19.2zM949.333 855.467c-2.133-2.133-6.4-2.133-10.667-2.133h-85.333v-234.667h85.333l85.333 42.667v21.333l-85.333-42.667-21.333 21.333v128l21.333 21.333 85.333 42.667v21.333h-36.267l-38.4-19.2zM949.333 898.133c-2.133-2.133-6.4-2.133-10.667-2.133h-91.733c4.267-6.4 6.4-12.8 6.4-21.333v0h85.333l85.333 42.667h-36.267l-38.4-19.2z" />
<glyph unicode="&#xe91a;" glyph-name="ico_homes_establecimientos" d="M930.133 172.8v471.467l-93.867 12.8v66.133l-535.467 104.533-128-93.867v-34.133l-106.667-59.733v-460.8l-64-6.4v-4.267l200.533-98.133 817.067 83.2v6.4l-89.6 12.8zM554.667 162.133l-268.8-21.333v46.933l268.8 17.067v-42.667zM554.667 251.733l-268.8-10.667v34.133l268.8 8.533v-32zM678.4 145.067v106.667l68.267 4.267v-102.4h2.133l-70.4-8.533zM917.333 189.867l-76.8-6.4v38.4l76.8 4.267v-36.267zM917.333 266.667l-76.8-2.133v29.867l76.8 2.133v-29.867zM917.333 332.8l-631.467-8.533v34.133l631.467 2.133v-27.733zM917.333 401.067l-631.467 8.533v38.4l631.467-17.067v-29.867zM917.333 467.2l-631.467 27.733v34.133l631.467-34.133v-27.733zM917.333 531.2l-631.467 46.933v38.4l631.467-55.467v-29.867z" />
<glyph unicode="&#xe91b;" glyph-name="ico_homes_faq" d="M576 917.333c36.267 0 64-27.733 64-64v-170.667c0-36.267-27.733-64-64-64h-469.333c-36.267 0-64 27.733-64 64v170.667c0 36.267 27.733 64 64 64h469.333zM576 960h-469.333c-59.733 0-106.667-46.933-106.667-106.667v-170.667c0-59.733 46.933-106.667 106.667-106.667h70.4c-4.267-70.4-61.867-128-134.4-128 108.8 0 196.267 57.6 202.667 128h330.667c59.733 0 106.667 46.933 106.667 106.667v170.667c0 59.733-46.933 106.667-106.667 106.667v0zM362.667 490.667h554.667c36.267 0 64-27.733 64-64v-256c0-36.267-27.733-64-64-64h-554.667c-36.267 0-64 27.733-64 64v256c0 36.267 29.867 64 64 64zM362.667 533.333c-59.733 0-106.667-46.933-106.667-106.667v-256c0-59.733 46.933-106.667 106.667-106.667h416c6.4-70.4 93.867-128 202.667-128-72.533 0-130.133 57.6-134.4 128h70.4c59.733 0 106.667 46.933 106.667 106.667v256c0 59.733-46.933 106.667-106.667 106.667h-554.667zM177.067 718.933h-36.267c0 4.267 0 8.533 0 8.533 0 10.667 2.133 21.333 6.4 29.867s10.667 17.067 23.467 25.6c10.667 8.533 19.2 14.933 21.333 19.2 4.267 4.267 4.267 10.667 4.267 14.933 0 8.533-2.133 14.933-8.533 19.2-6.4 6.4-14.933 8.533-25.6 8.533s-19.2-2.133-25.6-8.533c-6.4-6.4-10.667-14.933-14.933-25.6l-36.267 4.267c0 17.067 8.533 32 21.333 42.667 12.8 12.8 32 17.067 53.333 17.067 23.467 0 40.533-6.4 55.467-17.067s21.333-25.6 21.333-42.667c0-8.533-2.133-17.067-6.4-25.6s-14.933-19.2-32-32c-8.533-6.4-12.8-12.8-14.933-17.067-6.4-4.267-6.4-10.667-6.4-21.333zM140.8 663.467v40.533h40.533v-40.533h-40.533zM420.267 226.133l-14.933 151.467v70.4h61.867v-70.4l-14.933-151.467h-32zM407.467 149.333v57.6h57.6v-57.6h-57.6zM938.667 448h-405.333v-42.667h405.333v42.667zM938.667 362.667h-405.333v-42.667h405.333v42.667zM938.667 277.333h-405.333v-42.667h405.333v42.667zM896 192h-362.667v-42.667h362.667v42.667zM599.467 874.667h-320v-42.667h320v42.667zM599.467 789.333h-320v-42.667h320v42.667zM514.133 704h-234.667v-42.667h234.667v42.667z" />
<glyph unicode="&#xe91c;" glyph-name="ico_homes_infografia" d="M0 960v-1024h1021.867v1024h-1021.867zM981.333-21.333h-938.667v938.667h938.667v-938.667zM721.067 379.733c2.133-12.8 2.133-25.6 2.133-38.4 0-59.733-17.067-113.067-46.933-160l-202.667 130.133 247.467 68.267zM712.533 422.4l-224-64 136.533 202.667c42.667-36.267 72.533-83.2 87.467-138.667zM426.667 341.333h-298.667c0 164.267 134.4 298.667 298.667 298.667v-298.667zM652.8 147.2c-55.467-64-136.533-104.533-226.133-104.533-149.333 0-275.2 110.933-294.4 256h281.6l238.933-151.467zM593.067 588.8l-125.867-183.467v232.533c46.933-8.533 89.6-23.467 125.867-49.067zM768 746.667h-640v85.333h640v-85.333z" />
<glyph unicode="&#xe91d;" glyph-name="ico_homes_investigacion" d="M396.8 546.133c-6.4 6.4-8.533 12.8-8.533 21.333s2.133 14.933 8.533 21.333c6.4 6.4 12.8 8.533 21.333 8.533s14.933-2.133 21.333-8.533c6.4-6.4 8.533-12.8 8.533-21.333s-2.133-14.933-8.533-21.333c-6.4-6.4-12.8-8.533-21.333-8.533s-14.933 4.267-21.333 8.533zM782.933-10.667v-4.267l-4.267-42.667c-4.267-4.267-8.533-6.4-12.8-8.533l-290.133 4.267c-155.733 19.2-234.667 44.8-241.067 72.533l2.133 34.133c0 0 0 0 0 0v12.8c8.533 21.333 38.4 34.133 89.6 38.4l34.133 46.933c-59.733 61.867-96 136.533-108.8 221.867-4.267 76.8 21.333 160 76.8 245.333 0 2.133 0 4.267 0 6.4l72.533 19.2 2.133-2.133c6.4 4.267 12.8 8.533 19.2 8.533l4.267 6.4 21.333 2.133-14.933 53.333 8.533 4.267 2.133 2.133-2.133 6.4c8.533 8.533 12.8 17.067 14.933 25.6v2.133l-32 110.933c0 0 0 0 0 0l-2.133 4.267-23.467 74.667c19.2 12.8 42.667 21.333 70.4 21.333l23.467-76.8v-4.267l34.133-115.2c8.533-4.267 17.067-8.533 23.467-8.533l2.133-10.667-6.4-2.133 61.867-200.533 29.867 19.2 12.8 4.267 6.4-6.4 6.4-4.267h2.133l6.4-2.133 2.133-2.133-4.267-19.2-6.4-8.533 8.533-4.267v-2.133l12.8-10.667v-4.267l4.267-4.267v-4.267l27.733-25.6v-4.267l4.267-8.533v-10.667l-14.933-14.933h-10.667l-4.267 2.133h-6.4l-27.733 23.467h-6.4l-4.267 4.267h-4.267l-10.667 8.533v6.4l-4.267 4.267-21.333-14.933 2.133-4.267 2.133-2.133 2.133-14.933 2.133-2.133v-12.8l6.4-25.6-8.533-8.533-27.733-6.4-10.667 2.133-8.533 27.733-2.133 4.267-6.4 2.133 2.133 2.133-4.267 12.8h-2.133v6.4l-10.667 4.267-6.4-2.133-2.133 2.133 6.4 6.4v12.8l-6.4 4.267-2.133 8.533-6.4 2.133v4.267l6.4-2.133 2.133 4.267-14.933 8.533-17.067-4.267 10.667-40.533-8.533-8.533-8.533 2.133-25.6-6.4-4.267 2.133-19.2-4.267c-6.4-6.4-12.8-8.533-21.333-8.533-6.4 0-10.667 2.133-14.933 4.267h-6.4c-46.933 6.4-70.4-14.933-66.133-61.867 4.267-42.667 17.067-78.933 38.4-110.933 23.467-29.867 55.467-25.6 89.6 8.533v2.133l-10.667 36.267 270.933 81.067 61.867-51.2 6.4-27.733-253.867-78.933-14.933-25.6 29.867-87.467v-4.267l162.133-8.533c8.533-2.133 12.8-6.4 12.8-12.8v-36.267c-2.133-2.133-4.267-4.267-10.667-4.267h-113.067c-42.667-2.133-78.933-10.667-108.8-21.333-2.133 0 0-2.133 2.133-2.133 38.4-10.667 78.933-21.333 119.467-27.733h132.267c17.067 8.533 27.733 4.267 32-6.4zM362.667 565.333c0-14.933 4.267-27.733 14.933-36.267 10.667-10.667 23.467-14.933 36.267-14.933 14.933 0 27.733 4.267 36.267 14.933 10.667 10.667 14.933 23.467 14.933 36.267 0 14.933-4.267 27.733-14.933 36.267-10.667 10.667-23.467 14.933-36.267 14.933-14.933 0-27.733-4.267-36.267-14.933-8.533-8.533-14.933-21.333-14.933-36.267zM471.467 177.067c0 8.533-2.133 14.933-8.533 19.2-6.4 6.4-12.8 8.533-19.2 8.533-8.533 0-14.933-2.133-19.2-8.533-6.4-6.4-8.533-12.8-8.533-19.2 0-8.533 2.133-14.933 8.533-19.2 6.4-6.4 12.8-8.533 19.2-8.533 8.533 0 14.933 2.133 19.2 8.533 6.4 6.4 8.533 12.8 8.533 19.2z" />
<glyph unicode="&#xe91e;" glyph-name="ico_homes_marconormativo" d="M853.333 309.333c0-17.067-14.933-32-32-32s-32 14.933-32 32 14.933 32 32 32 32-14.933 32-32zM896 309.333c0-40.533-34.133-74.667-74.667-74.667s-74.667 34.133-74.667 74.667c0 40.533 34.133 74.667 74.667 74.667s74.667-34.133 74.667-74.667zM874.667 309.333c0 29.867-23.467 53.333-53.333 53.333s-53.333-23.467-53.333-53.333 23.467-53.333 53.333-53.333 53.333 23.467 53.333 53.333zM746.667 85.333v-44.8l-42.667-42.667h-64l-44.8-42.667h-552.533l-42.667 42.667v898.133l42.667 42.667h661.333l42.667-42.667h-42.667v21.333h-576v-21.333h-21.333v-21.333h-21.333v-21.333h-21.333v-21.333h-21.333v-21.333h576l21.333-21.333v-85.333l42.667-21.333v-213.333l-42.667-42.667v-407.467h21.333v21.333h21.333v21.333h21.333v21.333h42.667zM554.667 704h-405.333v-42.667h405.333v42.667zM384 874.667v-42.667h21.333v21.333h597.333v-725.333h-341.333v-21.333h362.667v768h-640zM857.6 230.4c0-10.667-17.067-17.067-36.267-17.067s-36.267 6.4-36.267 17.067v-70.4l36.267 32 36.267-32v70.4zM896 576h-170.667v-42.667h170.667v42.667zM810.667 490.667h-85.333v-42.667h85.333v42.667zM896 661.333h-170.667v-42.667h170.667v42.667zM896 746.667h-170.667v-42.667h170.667v42.667zM896 832h-170.667v-42.667h170.667v42.667z" />
<glyph unicode="&#xe91f;" glyph-name="ico_homes_reniscomiteetica" d="M1011.2 535.467c0 0 2.133 0 0 0 0 6.4-4.267 8.533-10.667 12.8 0 2.133 0 6.4 0 8.533l-181.333 292.267 8.533 12.8h6.4c0-4.267 0-8.533 2.133-10.667 0-4.267 2.133-4.267 4.267-4.267 4.267 0 6.4 2.133 8.533 6.4s4.267 10.667 4.267 17.067c0 6.4 0 12.8-2.133 17.067s-6.4 6.4-8.533 6.4c-4.267 0-6.4-4.267-6.4-10.667h-6.4v4.267c-2.133 6.4-4.267 8.533-6.4 10.667-2.133 4.267-6.4 6.4-12.8 6.4s-10.667-2.133-12.8-4.267c0-2.133-2.133-4.267-6.4-10.667-6.4-8.533-17.067-12.8-34.133-12.8-10.667 0-19.2 2.133-29.867 8.533-6.4 4.267-17.067 8.533-29.867 17.067s-23.467 14.933-29.867 19.2c-12.8 6.4-25.6 8.533-36.267 8.533-17.067 0-34.133-4.267-49.067-10.667-4.267-4.267-8.533-6.4-17.067-10.667-2.133-2.133-4.267-2.133-6.4-4.267v32h-23.467c0 12.8-10.667 23.467-23.467 23.467s-23.467-10.667-23.467-23.467h-23.467v-32c-2.133 2.133-4.267 2.133-6.4 4.267-8.533 4.267-14.933 8.533-17.067 10.667-17.067 8.533-32 10.667-49.067 10.667-10.667 0-23.467-2.133-36.267-8.533-8.533-4.267-19.2-10.667-29.867-19.2-12.8-8.533-23.467-14.933-29.867-17.067-10.667-6.4-21.333-8.533-29.867-8.533-17.067 0-27.733 4.267-34.133 12.8-4.267 6.4-6.4 8.533-6.4 10.667-2.133 2.133-6.4 4.267-12.8 4.267s-8.533-2.133-12.8-6.4c-2.133-2.133-4.267-6.4-6.4-10.667v-4.267h-6.4c0 8.533-2.133 10.667-6.4 10.667-2.133 0-6.4-2.133-8.533-6.4s-2.133-10.667-2.133-17.067c0-6.4 2.133-12.8 4.267-17.067s4.267-6.4 8.533-6.4c2.133 0 2.133 2.133 4.267 4.267 0 4.267 2.133 6.4 2.133 10.667h6.4l8.533-12.8-181.333-292.267c-2.133-2.133-2.133-6.4 0-8.533-8.533-4.267-12.8-6.4-12.8-10.667 0 0 0-2.133 0-2.133v0c0 0 0-2.133 0-2.133 0-66.133 91.733-119.467 204.8-119.467s204.8 53.333 204.8 119.467c0 0 0 2.133 0 2.133v0c0 0 0 2.133 0 2.133 0 4.267-4.267 6.4-12.8 10.667 0 2.133 0 6.4 0 8.533l-181.333 296.533c0 2.133-2.133 2.133-4.267 4.267v0 12.8h6.4c6.4-8.533 14.933-12.8 25.6-14.933 8.533-2.133 19.2-4.267 34.133-4.267 10.667 0 29.867 4.267 55.467 14.933 23.467 8.533 42.667 12.8 53.333 12.8 21.333 0 38.4-4.267 51.2-10.667 6.4-4.267 12.8-8.533 19.2-12.8v-8.533h23.467v-23.467h-23.467v-23.467h23.467v-569.6h-44.8v-68.267c-100.267-2.133-174.933-12.8-174.933-23.467v-32c-74.667-8.533-121.6-21.333-121.6-34.133v-91.733c0-25.6 162.133-44.8 364.8-44.8s364.8 21.333 364.8 44.8v91.733c0 12.8-46.933 25.6-121.6 34.133v32c0 10.667-74.667 21.333-174.933 23.467v68.267h-44.8v569.6h23.467v23.467h-23.467v23.467h23.467v6.4c6.4 6.4 12.8 10.667 19.2 12.8 12.8 6.4 29.867 10.667 51.2 10.667 10.667 0 29.867-4.267 53.333-12.8 25.6-10.667 42.667-14.933 55.467-14.933s25.6 0 34.133 4.267c10.667 2.133 19.2 6.4 25.6 14.933h4.267v-12.8c-2.133 0-2.133-2.133-4.267-4.267l-181.333-296.533c-2.133-2.133-2.133-6.4 0-8.533-8.533-4.267-12.8-6.4-12.8-10.667 0 0 0-2.133 0-2.133v0c0 0 0-2.133 0-2.133 0-66.133 91.733-119.467 204.8-119.467s202.667 55.467 200.533 123.733c2.133-2.133 2.133-2.133 0 0v0zM381.867 554.667c-36.267 8.533-98.133 12.8-166.4 12.8s-128-4.267-166.4-12.8l166.4 270.933 166.4-270.933zM808.533 823.467l166.4-270.933c-36.267 8.533-98.133 12.8-166.4 12.8s-128-4.267-166.4-12.8l166.4 270.933z" />
<glyph unicode="&#xe920;" glyph-name="ico_homes_renisconsultar" d="M228.267 753.067h-8.533c0 2.133-2.133 4.267-2.133 4.267l-14.933-14.933c2.133-2.133 4.267-2.133 8.533-2.133v-6.4c0-2.133 0-2.133 2.133-2.133h2.133c2.133 0 2.133 0 2.133 2.133v4.267l8.533-8.533c2.133-2.133 4.267-2.133 4.267 0l2.133 2.133c2.133 2.133 2.133 4.267 0 6.4l-10.667 8.533h6.4c2.133 0 2.133 0 2.133 2.133v2.133c0 2.133 0 2.133-2.133 2.133zM187.733 785.067c4.267-4.267 6.4-8.533 6.4-12.8 0-6.4-2.133-10.667-6.4-14.933-2.133-2.133-2.133-2.133-4.267-2.133l10.667-10.667 21.333 21.333-49.067 49.067-21.333-21.333 10.667-10.667c0 2.133 2.133 2.133 2.133 4.267 4.267 4.267 8.533 6.4 14.933 6.4 6.4-2.133 10.667-4.267 14.933-8.533zM185.6 782.933c-4.267 2.133-6.4 4.267-10.667 4.267s-8.533-2.133-10.667-4.267c-2.133-4.267-4.267-6.4-4.267-10.667s2.133-8.533 4.267-10.667c4.267-4.267 6.4-4.267 10.667-4.267s8.533 2.133 10.667 4.267c4.267 4.267 4.267 6.4 4.267 10.667 2.133 4.267 0 6.4-4.267 10.667zM200.533 699.733c-10.667 0-19.2 4.267-27.733 10.667-8.533 8.533-10.667 17.067-10.667 27.733v8.533c0 2.133 0 6.4 2.133 8.533-2.133 0-2.133 2.133-2.133 2.133-2.133 2.133-4.267 4.267-4.267 8.533-2.133-6.4-4.267-10.667-4.267-17.067 0 0 0-2.133 0-2.133v-8.533c0-10.667 2.133-19.2 8.533-27.733v-36.267c-4.267 0-6.4-2.133-6.4-6.4v-4.267c0-4.267 2.133-6.4 8.533-6.4h74.667c4.267 0 6.4 2.133 6.4 6.4v4.267c0 4.267-2.133 8.533-6.4 8.533h-4.267l-23.467 14.933c6.4 0 12.8 2.133 19.2 6.4l2.133-2.133c2.133-2.133 4.267-2.133 6.4 0l32 32c2.133 2.133 2.133 4.267 0 8.533l-8.533 6.4c-2.133 2.133-4.267 2.133-6.4 0l-32-32c-2.133-2.133-2.133-4.267-2.133-6.4-8.533-2.133-14.933-4.267-21.333-4.267zM162.133 827.733c-2.133 4.267-6.4 4.267-10.667 0l-21.333-21.333c-4.267-4.267-4.267-6.4 0-10.667l2.133-2.133c4.267-4.267 6.4-4.267 10.667 0l21.333 21.333c4.267 4.267 4.267 6.4 0 10.667l-2.133 2.133zM1021.867-17.067l-44.8-44.8-87.467 87.467 44.8 44.8 87.467-87.467zM445.867 514.133c108.8 108.8 283.733 108.8 392.533 0s108.8-283.733 0-392.533c-108.8-108.8-283.733-108.8-392.533 0s-108.8 285.867 0 392.533zM505.6 168.533c78.933-78.933 206.933-78.933 285.867 0s78.933 206.933 0 285.867c-78.933 78.933-206.933 78.933-285.867 0s-78.933-206.933 0-285.867zM868.267 123.733l-29.867-29.867 14.933-14.933 8.533-23.467 14.933-14.933 44.8 44.8-14.933 14.933-23.467 8.533-14.933 14.933zM215.467 341.333h-85.333v21.333h85.333v-21.333zM215.467 256h-85.333v21.333h85.333v-21.333zM215.467 298.667h-85.333v21.333h85.333v-21.333zM215.467 573.867v-21.333h-85.333v21.333h85.333zM386.133 509.867h-298.667v21.333h315.733c-6.4-6.4-12.8-12.8-17.067-21.333zM215.467 467.2h-85.333v21.333h85.333v-21.333zM215.467 426.667h-85.333v21.333h85.333v-21.333zM215.467 384h-85.333v21.333h85.333v-21.333zM130.133 64h85.333v-21.333h-85.333v21.333zM215.467 85.333h-85.333v21.333h85.333v-21.333zM215.467 213.333h-85.333v21.333h85.333v-21.333zM770.133 25.6v-91.733h-768v1024h768v-347.733c-14.933 6.4-27.733 10.667-42.667 14.933v292.267h-682.667v-938.667h682.667v32c12.8 4.267 27.733 8.533 42.667 14.933zM215.467 170.667h-85.333v21.333h85.333v-21.333zM215.467 128h-85.333v21.333h85.333v-21.333zM480 42.667h-224v21.333h192c10.667-8.533 21.333-14.933 32-21.333zM258.133 448h89.6c-2.133-6.4-6.4-14.933-8.533-21.333h-83.2v21.333zM258.133 405.333h74.667c-2.133-6.4-4.267-14.933-4.267-21.333h-70.4v21.333zM258.133 277.333h66.133c0-6.4 2.133-14.933 4.267-21.333h-70.4v21.333zM324.267 362.667c0-6.4-2.133-14.933-2.133-21.333h-64v21.333h66.133zM258.133 573.867h192c-8.533-6.4-17.067-12.8-25.6-21.333h-166.4v21.333zM371.2 488.533c-4.267-6.4-8.533-14.933-12.8-21.333h-100.267v21.333h113.067zM341.333 682.667h213.333v-21.333h-213.333v21.333zM258.133 149.333h113.067c4.267-6.4 8.533-14.933 14.933-21.333h-128v21.333zM341.333 725.333h298.667v-21.333h-298.667v21.333zM258.133 192h89.6c2.133-6.4 6.4-14.933 10.667-21.333h-100.267v21.333zM322.133 320c0 0-2.133 0 0 0 0-6.4 0-14.933 0-21.333h-64v21.333h64zM640 832v-85.333h-298.667v85.333h298.667zM258.133 106.667h145.067c4.267-4.267 8.533-8.533 12.8-12.8 2.133-2.133 6.4-4.267 8.533-8.533h-166.4v21.333zM332.8 234.667c2.133-6.4 4.267-14.933 6.4-21.333h-81.067v21.333h74.667zM616.533 467.2h64c29.867-6.4 57.6-21.333 81.067-42.667h-224c21.333 23.467 49.067 38.4 78.933 42.667zM554.667 298.667h170.667v-42.667h-170.667v42.667zM774.4 213.333c-4.267-4.267-8.533-10.667-12.8-14.933-10.667-10.667-23.467-21.333-38.4-27.733h-83.2v42.667h134.4zM640 384h151.467c6.4-12.8 10.667-27.733 14.933-42.667h-164.267v42.667zM490.667 341.333c2.133 14.933 6.4 29.867 14.933 42.667h155.733v-42.667h-170.667zM808.533 298.667c-2.133-14.933-4.267-29.867-10.667-42.667h-93.867v42.667h104.533zM661.333 170.667h-87.467c-14.933 6.4-27.733 17.067-38.4 27.733-4.267 4.267-8.533 8.533-12.8 14.933h138.667v-42.667zM499.2 256c-4.267 12.8-8.533 27.733-10.667 42.667h87.467v-42.667h-76.8z" />
<glyph unicode="&#xe921;" glyph-name="ico_homes_renisinformaciondelregistro" d="M533.333 533.333h-405.333v42.667h405.333v-42.667zM533.333 490.667h-405.333v-42.667h405.333v42.667zM533.333 405.333h-405.333v-42.667h405.333v42.667zM533.333 320h-405.333v-42.667h405.333v42.667zM448 234.667h-320v-42.667h320v42.667zM533.333 832h-192v-85.333h192v85.333zM448 704h-106.667v-42.667h106.667v42.667zM298.667 810.667c0 12.8-8.533 21.333-21.333 21.333h-128c-12.8 0-21.333-8.533-21.333-21.333v-128c0-12.8 8.533-21.333 21.333-21.333h128c12.8 0 21.333 8.533 21.333 21.333v128zM1024 149.333c0-117.333-96-213.333-213.333-213.333s-213.333 96-213.333 213.333c0 117.333 96 213.333 213.333 213.333s213.333-96 213.333-213.333zM981.333 149.333c0 93.867-76.8 170.667-170.667 170.667s-170.667-76.8-170.667-170.667 76.8-170.667 170.667-170.667 170.667 76.8 170.667 170.667zM791.467 234.667c4.267-4.267 10.667-6.4 19.2-6.4s14.933 2.133 19.2 6.4c4.267 4.267 8.533 10.667 8.533 19.2 0 6.4-2.133 12.8-6.4 17.067s-10.667 6.4-19.2 6.4c-8.533 0-14.933-2.133-19.2-6.4s-6.4-10.667-6.4-17.067c-4.267-8.533-2.133-14.933 4.267-19.2zM836.267 204.8h-49.067v-183.467h49.067v183.467zM558.933 106.667h-516.267v810.667h576v-599.467c12.8 14.933 25.6 27.733 42.667 38.4v539.733h42.667v-514.133c6.4 2.133 14.933 6.4 21.333 8.533v462.933h42.667v-452.267c6.4 2.133 14.933 2.133 21.333 2.133v471.467h-64v42.667h-64v42.667h-661.333v-896h569.6c-4.267 14.933-8.533 27.733-10.667 42.667z" />
<glyph unicode="&#xe922;" glyph-name="ico_homes_renisinvestigador" d="M256 710.4c0 0 0 0 0 0 0 136.533 115.2 249.6 256 249.6s256-110.933 256-249.6c0 0 0 0 0 0 0-192-115.2-347.733-256-347.733s-256 155.733-256 347.733zM379.733-49.067c34.133-8.533 72.533-12.8 110.933-14.933l-78.933 356.267c-53.333 19.2-102.4 51.2-142.933 96-10.667-4.267-19.2-10.667-27.733-17.067l19.2-128 113.067-21.333-32-93.867 38.4-177.067zM981.333 192c0-93.867-76.8-170.667-170.667-170.667-4.267 0-8.533 0-10.667 2.133-36.267-25.6-78.933-49.067-128-64l36.267 170.667-23.467 72.533 100.267 19.2 21.333 138.667c2.133 0 2.133 0 4.267 0 93.867 2.133 170.667-74.667 170.667-168.533zM853.333 85.333h-36.267v76.8c0 10.667-8.533 19.2-19.2 19.2s-19.2-8.533-19.2-19.2v-76.8h-53.333v-38.4h128v38.4zM780.8 373.333c-8.533 6.4-17.067 10.667-27.733 17.067-38.4-44.8-87.467-76.8-142.933-96l-76.8-358.4c38.4 2.133 74.667 6.4 110.933 14.933l38.4 177.067-29.867 93.867 110.933 21.333 17.067 130.133zM313.6 130.133l23.467 72.533-100.267 19.2-19.2 138.667c-2.133 0-2.133 0-4.267 0-93.867 0-170.667-76.8-170.667-170.667s76.8-170.667 170.667-170.667c4.267 0 8.533 0 10.667 2.133 34.133-25.6 78.933-46.933 125.867-64l-36.267 172.8z" />
<glyph unicode="&#xe923;" glyph-name="ico_homes_renispatrocinador" d="M81.067 300.8l-53.333 10.667c-17.067 21.333-25.6 66.133-27.733 113.067v8.533c0 4.267 0 8.533 0 12.8 0 8.533 0 14.933 0 23.467v0 0c0 21.333 2.133 40.533 6.4 61.867 0 0 0 2.133 0 2.133 2.133 8.533 4.267 17.067 4.267 27.733 0 2.133 0 2.133 0 4.267 2.133 8.533 4.267 17.067 6.4 25.6 0 0 0 2.133 0 2.133 61.867 211.2 258.133 366.933 490.667 366.933 140.8 0 268.8-57.6 362.667-149.333l51.2 51.2 25.6-249.6-249.6 25.6 51.2 51.2c-61.867 61.867-147.2 100.267-241.067 100.267-123.733 0-232.533-66.133-292.267-164.267l44.8-14.933 40.533-23.467v-4.267l14.933-4.267 23.467-4.267 19.2 2.133 51.2-4.267-6.4-4.267c-6.4-4.267-10.667-10.667-14.933-19.2l-8.533-21.333c-2.133-6.4-4.267-14.933-2.133-23.467 0-2.133-2.133-4.267-2.133-6.4v-4.267l-17.067-40.533c-2.133-4.267-2.133-10.667-2.133-14.933v-8.533c0-10.667 4.267-19.2 8.533-27.733l8.533-10.667c4.267-6.4 10.667-10.667 17.067-12.8l17.067-6.4c4.267-2.133 10.667-2.133 14.933-2.133h12.8c4.267 0 10.667 0 14.933 2.133l12.8 4.267c6.4 2.133 12.8 6.4 17.067 10.667l17.067 19.2c0 0 0 0 2.133 2.133l21.333 25.6c2.133 2.133 2.133 2.133 2.133 4.267l25.6-21.333 59.733-68.267c0 0 0 0 0-2.133l36.267-40.533c0 0 0 0 0 0l46.933-46.933c8.533-8.533 19.2-12.8 29.867-12.8h4.267l-19.2-12.8h-17.067l-2.133-21.333-12.8-12.8-17.067-4.267-25.6 2.133-12.8-14.933-19.2-6.4h-29.867l-10.667-8.533h-14.933c0 2.133 0 4.267 0 4.267 0 17.067-8.533 34.133-23.467 40.533v0l-2.133 8.533c-2.133 8.533-4.267 14.933-10.667 21.333l-8.533 10.667v2.133c0 8.533-2.133 17.067-8.533 25.6l-6.4 8.533c-2.133 4.267-4.267 6.4-8.533 8.533l-12.8 10.667c-6.4 4.267-12.8 6.4-19.2 8.533l-10.667 2.133c-2.133 0-4.267 0-6.4 0l-2.133 4.267c-4.267 4.267-8.533 8.533-12.8 12.8l-12.8 6.4c-6.4 4.267-12.8 6.4-21.333 6.4h-17.067c-4.267 0-8.533 0-12.8-2.133l-19.2 14.933c-4.267 2.133-8.533 4.267-12.8 6.4l-17.067 6.4c-4.267 2.133-10.667 2.133-14.933 2.133-12.8 0-25.6-6.4-34.133-17.067l-25.6 23.467-4.267 2.133-19.2-32-10.667-6.4-42.667 21.333-38.4 10.667-12.8-29.867-14.933-46.933zM439.467 170.667l10.667-10.667 14.933-4.267h12.8l8.533 4.267 29.867 10.667-25.6 12.8 2.133 12.8-2.133 14.933-10.667 10.667-10.667 6.4v25.6l-6.4 8.533-12.8 10.667-10.667 2.133-12.8-2.133-10.667-8.533-2.133 14.933-12.8 17.067-12.8 6.4h-17.067l-21.333-8.533-12.8 8.533-4.267 6.4-21.333 17.067-17.067 6.4-6.4-10.667v-17.067l2.133-10.667 19.2-19.2 10.667-2.133 8.533 2.133v-21.333l4.267-12.8 12.8-17.067 8.533-2.133h17.067l17.067 8.533v-17.067l6.4-12.8 14.933-8.533h25.6v-10.667l4.267-10.667zM1004.8 307.2c6.4 25.6 12.8 51.2 14.933 76.8 0 0 0 2.133 0 2.133 2.133 19.2 4.267 40.533 4.267 61.867 0 6.4 0 12.8 0 21.333v0c0 0 0 0 0 0 0 10.667-2.133 23.467-2.133 34.133 0 4.267 0 8.533-2.133 10.667-2.133 8.533-2.133 17.067-4.267 25.6-4.267 27.733-12.8 55.467-21.333 81.067v-6.4c2.133-12.8-2.133-25.6-12.8-34.133-8.533-8.533-19.2-12.8-29.867-12.8-2.133 0-2.133 0-4.267 0l-168.533 17.067-21.333-10.667-10.667-8.533-14.933-4.267v-6.4h6.4l8.533-8.533-40.533-19.2-134.4 51.2-34.133-4.267-25.6-14.933-55.467-14.933-21.333-14.933-8.533-21.333 2.133-6.4-4.267-12.8-2.133-8.533-17.067-46.933v-8.533l8.533-10.667 17.067-6.4h12.8l12.8 4.267 17.067 19.2 21.333 25.6 4.267 17.067h6.4l6.4 2.133 19.2 2.133 4.267-2.133h10.667v-2.133l38.4-29.867 61.867-72.533 36.267-40.533 46.933-46.933h10.667l32 23.467 8.533 2.133 53.333 29.867c-44.8-136.533-172.8-236.8-324.267-236.8-93.867 0-179.2 38.4-241.067 100.267l51.2 51.2-249.6 25.6 25.6-249.6 51.2 51.2c91.733-91.733 219.733-149.333 362.667-149.333 232.533 0 428.8 155.733 490.667 369.067 4.267 4.267 4.267 6.4 4.267 6.4z" />
<glyph unicode="&#xe924;" glyph-name="ico_homes_renisregistrar" d="M640 744.533h-298.667v85.333h298.667v-85.333zM640 704h-298.667v-42.667h298.667v42.667zM640 576h-512v-42.667h512v42.667zM640 488.533h-512v-42.667h512v42.667zM341.333 405.333h-213.333v-42.667h213.333v42.667zM663.467 230.4l-27.733-91.733 89.6 32 300.8 300.8-59.733 59.733-302.933-300.8zM147.2 791.467l10.667-10.667c0 2.133 2.133 2.133 2.133 4.267 4.267 4.267 8.533 6.4 14.933 6.4 4.267 0 8.533-2.133 12.8-6.4s6.4-8.533 6.4-12.8c0-6.4-2.133-10.667-6.4-14.933-2.133-2.133-2.133-2.133-4.267-2.133l10.667-10.667 21.333 21.333-49.067 49.067-19.2-23.467zM162.133 827.733c-2.133 4.267-6.4 4.267-10.667 0l-21.333-21.333c-4.267-4.267-4.267-6.4 0-10.667l2.133-2.133c4.267-4.267 6.4-4.267 10.667 0l21.333 21.333c4.267 4.267 4.267 6.4 0 10.667l-2.133 2.133zM228.267 695.467c2.133-2.133 4.267-2.133 6.4 0l32 32c2.133 2.133 2.133 4.267 0 8.533l-8.533 6.4c-2.133 2.133-4.267 2.133-6.4 0l-32-32c-2.133-2.133-2.133-4.267-2.133-6.4-4.267-2.133-10.667-4.267-17.067-4.267-10.667 0-19.2 4.267-27.733 10.667-8.533 8.533-10.667 17.067-10.667 27.733v8.533c0 2.133 0 6.4 2.133 8.533-2.133 0-2.133 2.133-2.133 2.133-2.133 2.133-4.267 4.267-4.267 8.533-2.133-6.4-4.267-10.667-4.267-17.067 0 0 0-2.133 0-2.133v-8.533c0-10.667 2.133-19.2 8.533-27.733v-36.267c-4.267 0-6.4-2.133-6.4-6.4v-4.267c0-4.267 2.133-6.4 8.533-6.4h74.667c4.267 0 6.4 2.133 6.4 6.4v4.267c0 4.267-2.133 8.533-6.4 8.533h-4.267l-23.467 14.933c4.267 0 8.533 2.133 17.067 4.267v0zM174.933 755.2c4.267 0 8.533 2.133 10.667 4.267 4.267 4.267 4.267 6.4 4.267 10.667s-2.133 8.533-4.267 10.667c-4.267 2.133-6.4 4.267-10.667 4.267s-8.533-2.133-10.667-4.267c-2.133-4.267-4.267-6.4-4.267-10.667s2.133-8.533 4.267-10.667c2.133-2.133 6.4-4.267 10.667-4.267zM128 277.333h512v42.667h-512v-42.667zM230.4 748.8v0c0 4.267-2.133 4.267-2.133 4.267h-8.533c0 2.133-2.133 4.267-2.133 4.267l-14.933-14.933c2.133-2.133 4.267-2.133 8.533-2.133v-6.4c0-2.133 0-2.133 2.133-2.133h2.133c2.133 0 2.133 0 2.133 2.133v4.267l8.533-8.533c2.133-2.133 4.267-2.133 4.267 0l2.133 2.133c2.133 2.133 2.133 4.267 0 6.4l-10.667 8.533h6.4c2.133 0 2.133 0 2.133 2.133zM753.067 140.8c-4.267-4.267-10.667-8.533-14.933-10.667l-10.667-4.267v-149.333h-682.667v938.667h682.667v-561.067l42.667 42.667v563.2h-768v-1024h768v221.867l-17.067-17.067zM128 106.667h477.867c0 0-2.133 2.133-2.133 2.133-10.667 10.667-14.933 25.6-10.667 40.533h-462.933v-42.667zM128 192h477.867l12.8 42.667h-490.667v-42.667z" />
<glyph unicode="&#xe925;" glyph-name="listas_anterior" d="M160 448l384 384 96-96-224-224h448v-128h-448l224-224-96-96-384 384z" />
<glyph unicode="&#xe926;" glyph-name="listas_ordenar_ascendente" d="M512 800l384-384-96-96-224 224v-448h-128v448l-224-224-96 96 384 384z" />
<glyph unicode="&#xe927;" glyph-name="listas_ordenar_descendente" d="M512 96l-384 384 96 96 224-224v448h128v-448l224 224 96-96-384-384z" />
<glyph unicode="&#xe928;" glyph-name="listas_primer" d="M320 448l384 384 96-96-224-224h448v-128h-448l224-224-96-96-384 384zM0 64h128v768h-128v-768z" />
<glyph unicode="&#xe929;" glyph-name="listas_siguiente" d="M864 448l-384-384-96 96 224 224h-448v128h448l-224 224 96 96 384-384z" />
<glyph unicode="&#xe92a;" glyph-name="listas_ultimo" d="M704 448l-384-384-96 96 224 224h-448v128h448l-224 224 96 96 384-384zM1024 832h-128v-768h128v768z" />
</font>
</defs>
</svg>
