<?xml version="1.0" encoding="utf-8"?>
<!-- Generator: Adobe Illustrator 25.0.0, SVG Export Plug-In . SVG Version: 6.00 Build 0)  -->
<svg version="1.1" id="Capa_1" xmlns="http://www.w3.org/2000/svg" xmlns:xlink="http://www.w3.org/1999/xlink" x="0px" y="0px"
	 viewBox="0 0 103.257 62.24" style="enable-background:new 0 0 103.257 62.24;" xml:space="preserve">
<style type="text/css">
	.st0{fill:#FFFFFF;}
	.st1{fill:#32BBED;}
	.st2{fill:#009DE1;}
</style>
<g>
	<path class="st0" d="M100.989,16.423c-1.974-5.495-5.971-9.891-11.256-12.381c-2.937-1.382-6.067-2.083-9.301-2.083
		c-3.665,0-7.316,0.983-10.577,2.813c-3.261-1.83-6.914-2.813-10.577-2.813c-3.232,0-6.361,0.7-9.305,2.085
		c-0.642,0.302-1.27,0.636-1.878,0.999C43.069,1.771,37.168,0,31.12,0C13.96,0,0,13.96,0,31.12C0,48.28,13.96,62.24,31.12,62.24
		c9.366,0,18.069-4.175,23.914-11.202c3.151,2.997,6.003,5.563,7.711,7.077c1.96,1.741,4.487,2.699,7.114,2.699
		c2.624,0,5.148-0.958,7.099-2.693c7.348-6.511,20.137-18.416,23.233-24.991C102.679,27.852,102.963,21.919,100.989,16.423"/>
	<path class="st1" d="M43.374,18.093c0.974-2.709,2.588-5.068,4.684-6.926c-4.566-3.88-10.476-6.226-16.938-6.226
		c-14.457,0-26.178,11.72-26.178,26.178c0,14.457,11.721,26.178,26.178,26.178c10.029,0,18.736-5.642,23.132-13.922
		c-4.527-4.534-8.831-9.314-10.262-12.356C42.065,26.937,41.846,22.345,43.374,18.093"/>
	<path class="st1" d="M96.339,18.094c-1.528-4.253-4.621-7.655-8.71-9.581C85.356,7.443,82.935,6.9,80.433,6.9
		c-3.829,0-7.573,1.404-10.577,3.814c-3.005-2.41-6.749-3.814-10.577-3.814c-2.499,0-4.919,0.542-7.199,1.614
		c-1.482,0.699-2.829,1.597-4.022,2.654c5.65,4.802,9.24,11.957,9.24,19.952c0,4.429-1.104,8.599-3.046,12.256
		c4.648,4.656,9.529,9.053,11.775,11.044c1.055,0.937,2.413,1.453,3.831,1.453c1.413,0,2.773-0.517,3.822-1.45
		c4.436-3.931,19.139-17.238,22.041-23.4C97.647,26.937,97.867,22.346,96.339,18.094 M66.951,46.843
		c0.004-0.003,0.008-0.007,0.012-0.011C66.959,46.836,66.955,46.84,66.951,46.843 M72.747,46.832
		c0.002,0.001,0.004,0.003,0.006,0.005C72.751,46.835,72.749,46.833,72.747,46.832 M81.481,28.84
		c-1.547,2.311-6.485,7.134-11.684,11.877c-0.001-0.001-0.002-0.002-0.003-0.003c-0.002,0.001-0.003,0.002-0.004,0.003
		c-5.199-4.743-10.137-9.565-11.684-11.877c-0.714-0.928-1.143-2.093-1.143-3.361c0-2.201,1.284-4.094,3.131-4.962
		c0.37-0.224,0.849-0.395,1.475-0.49c4.927-0.747,8.223,3.528,8.223,3.528s0.001,0.003,0.003,0.006
		c0.001-0.003,0.003-0.006,0.003-0.006s3.295-4.274,8.222-3.528c0.626,0.095,1.104,0.266,1.475,0.49
		c1.847,0.868,3.131,2.761,3.131,4.962C82.624,26.747,82.195,27.912,81.481,28.84"/>
	<path class="st2" d="M48.058,11.168c-2.097,1.857-3.71,4.216-4.684,6.926c-1.528,4.252-1.309,8.844,0.616,12.927
		c1.431,3.041,5.736,7.821,10.262,12.356c1.942-3.657,3.208-7.986,3.208-12.415C57.46,22.964,53.709,15.969,48.058,11.168"/>
	<path class="st0" d="M28.508,46.05l-0.443,0.001c-0.939,0.002-1.785,0.706-1.824,1.643c-0.041,0.984,0.746,1.793,1.72,1.79
		l5.628-0.014c0.81-0.002,1.578-0.519,1.759-1.308c0.26-1.129-0.591-2.128-1.674-2.125l-0.573,0.001L33.1,43.217
		c0-0.01-0.007-0.017-0.017-0.017h-4.545c-0.009,0-0.017,0.008-0.017,0.017l0.003,2.817C28.525,46.043,28.517,46.05,28.508,46.05"/>
	<path class="st0" d="M35.407,38.327h-0.029l-0.043-16.611c-0.005-0.947-0.774-1.712-1.721-1.712l-0.572,0.002l-0.002-0.573
		c-0.005-0.947-0.774-1.713-1.721-1.713l-0.007-4.798c-0.001-0.317-0.257-0.573-0.574-0.571c-0.316,0.001-0.571,0.258-0.57,0.574
		l0.006,4.798c-0.947,0.006-1.712,0.774-1.713,1.722l0.002,0.572l-0.572,0.002c-0.947,0.006-1.712,0.774-1.713,1.722l0.043,16.587
		h-0.017c-0.95,0-1.721,0.77-1.721,1.721c0,0.95,0.771,1.721,1.721,1.721h2.128h0.187h4.578h0.187h2.123
		c0.95,0,1.721-0.771,1.721-1.721C37.128,39.097,36.358,38.327,35.407,38.327 M30.793,38.323l-3.427,0.003l-0.042-16.385
		c-0.001-0.429,0.346-0.778,0.775-0.779l2.694-0.007V38.323z"/>
</g>
</svg>
