<?xml version="1.0" encoding="utf-8"?>
<!-- Generator: Adobe Illustrator 25.0.0, SVG Export Plug-In . SVG Version: 6.00 Build 0)  -->
<svg version="1.1" id="Capa_1" xmlns="http://www.w3.org/2000/svg" xmlns:xlink="http://www.w3.org/1999/xlink" x="0px" y="0px"
	 viewBox="0 0 185.05 70.9" style="enable-background:new 0 0 185.05 70.9;" xml:space="preserve">
<style type="text/css">
	.st0{fill:#FFFFFF;}
</style>
<g id="XMLID_366_">
	<g id="XMLID_394_">
		<path id="XMLID_364_" class="st0" d="M23.38,9.25l-0.01-0.03L23.38,9.25c0.65-0.1,1.24-0.16,1.73-0.16c1.62,0,1.87,0.54,1.9,0.6
			c0,0.01,0.06,0.14,0.22,0.14c0.03,0,0.05,0,0.08-0.01c0.05-0.01,0.08-0.03,0.1-0.06c0.02-0.04,0.02-0.1-0.01-0.18
			c0-0.01-0.38-1.05-2.05-1.23c-0.01,0-0.9-0.11-1.85,0.05c-0.26,0.05-0.34,0.65-0.34,0.66c-0.01,0.07,0,0.12,0.03,0.15
			C23.25,9.26,23.34,9.25,23.38,9.25"/>
		<path id="XMLID_363_" class="st0" d="M20.61,9.94L20.61,9.94c-0.39-0.18-1.27-0.14-1.28-0.14c-1.41,0.05-1.81,0.93-1.82,0.94
			c-0.04,0.09-0.04,0.17-0.02,0.22c0.04,0.06,0.11,0.07,0.11,0.07c0.29,0.07,0.38-0.15,0.38-0.15c0,0,0.09-0.27,0.71-0.43
			c0.02,0,0.03,0,0.03,0.01c0.01,0.01,0.01,0.02,0.01,0.03c-0.03,0.09-0.05,0.17-0.05,0.27c0,0.4,0.32,0.72,0.72,0.72
			c0.39,0,0.72-0.32,0.72-0.72c0-0.1-0.02-0.19-0.06-0.28c-0.01-0.01,0-0.03,0.01-0.04c0.01-0.01,0.02-0.01,0.04-0.01
			c0.25,0.1,0.44,0.27,0.56,0.5c0.04,0.08,0.12,0.13,0.41,0.13c0.07,0,0.15-0.01,0.19-0.06c0.02-0.04,0.01-0.08,0.01-0.09
			C21.08,10.17,20.61,9.94,20.61,9.94"/>
		<path id="XMLID_362_" class="st0" d="M23.32,11.07c0.29,0,0.37-0.05,0.41-0.13c0.12-0.24,0.3-0.41,0.55-0.5
			c0.01-0.01,0.03,0,0.04,0.01c0.01,0.01,0.01,0.02,0.01,0.04c-0.04,0.09-0.06,0.19-0.06,0.28c0,0.4,0.32,0.72,0.72,0.72
			c0.39,0,0.72-0.32,0.72-0.72c0-0.09-0.02-0.18-0.05-0.27c0-0.01,0-0.02,0.01-0.03c0.01-0.01,0.02-0.01,0.03-0.01
			c0.6,0.15,0.7,0.4,0.71,0.43c0.01,0.02,0.1,0.21,0.36,0.15c0.06-0.01,0.1-0.03,0.12-0.07c0.03-0.05,0.02-0.12-0.02-0.22
			c0-0.01-0.4-0.89-1.82-0.94c-0.09,0-0.91-0.03-1.28,0.14c0,0-0.47,0.24-0.65,0.97c-0.01,0.04-0.01,0.07,0.01,0.1
			C23.16,11.06,23.25,11.07,23.32,11.07"/>
		<path id="XMLID_361_" class="st0" d="M17.06,9.81L17.06,9.81C17.06,9.81,17.06,9.82,17.06,9.81c0.04,0.01,0.07,0.01,0.09,0.01
			c0.16,0,0.22-0.14,0.22-0.14c0.02-0.04,0.41-0.95,3.62-0.44c0,0,0.12,0.02,0.18-0.03c0.03-0.03,0.04-0.08,0.03-0.15
			c0-0.02-0.09-0.61-0.34-0.66c-0.35-0.06-0.72-0.09-1.12-0.09c-0.42,0-0.72,0.04-0.73,0.04c-1.68,0.18-2.05,1.21-2.05,1.22
			c-0.03,0.08-0.04,0.14-0.01,0.19C16.99,9.8,17.05,9.81,17.06,9.81"/>
		<path id="XMLID_395_" class="st0" d="M44.16,44.72c0.02-0.12-0.03-0.24-0.13-0.32c-0.08-0.07-0.18-0.1-0.28-0.08
			c0.08-0.17,0.15-0.34,0.22-0.52c0.27-0.75,0.42-1.61,0.43-2.56c0-0.12-0.06-0.24-0.16-0.31c-0.08-0.05-0.18-0.07-0.27-0.05
			c0.06-0.16,0.11-0.33,0.16-0.51c0.2-0.77,0.26-1.64,0.17-2.59c-0.01-0.12-0.08-0.23-0.19-0.29c-0.09-0.05-0.19-0.06-0.28-0.03
			c0.05-0.19,0.09-0.39,0.13-0.6c0.12-0.79,0.1-1.66-0.08-2.6c-0.02-0.12-0.1-0.22-0.22-0.27c-0.07-0.03-0.14-0.03-0.21-0.02
			c0.03-0.14,0.05-0.28,0.06-0.42c0.09-0.79,0.02-1.66-0.2-2.59c-0.03-0.12-0.11-0.22-0.23-0.26c-0.12-0.04-0.24-0.02-0.34,0.05
			c0,0-0.01,0.01-0.03,0.02c0.02-0.22,0.02-0.44,0.02-0.66c-0.02-0.8-0.21-1.65-0.56-2.54c-0.04-0.11-0.14-0.2-0.26-0.22
			c-0.11-0.02-0.22,0-0.3,0.07c-0.01-0.2-0.02-0.4-0.05-0.61c-0.11-0.79-0.38-1.62-0.81-2.47c-0.06-0.11-0.16-0.18-0.28-0.19
			c-0.11-0.01-0.21,0.03-0.29,0.1c-0.03-0.19-0.07-0.37-0.11-0.56c-0.2-0.77-0.57-1.57-1.1-2.36c-0.07-0.1-0.18-0.16-0.3-0.16
			c-0.12,0-0.23,0.06-0.3,0.17c0,0-0.01,0.01-0.01,0.02c-0.06-0.22-0.14-0.44-0.24-0.65c-0.32-0.73-0.81-1.45-1.46-2.15
			c-0.09-0.09-0.22-0.13-0.34-0.11c-0.1,0.02-0.18,0.08-0.23,0.16c-0.1-0.21-0.22-0.43-0.35-0.63c-0.43-0.67-1.02-1.3-1.75-1.87
			c-0.1-0.08-0.22-0.1-0.34-0.06c-0.1,0.03-0.18,0.11-0.22,0.21c-0.46-0.62-1.09-1.1-1.89-1.42c0.1,0.01,0.2,0.02,0.3,0.02
			c1.06,0.06,1.8-0.16,1.83-0.17c0.25-0.08,0.41-0.32,0.38-0.58c-0.03-0.26-0.25-0.46-0.51-0.47c-1.13-0.05-1.55-0.29-2.08-0.58
			c-0.05-0.03-0.11-0.06-0.16-0.09l2.49-0.37c0.26-0.04,0.46-0.27,0.46-0.54c0-0.27-0.2-0.5-0.46-0.53l-2.36-0.34
			c0.26-0.08,0.51-0.15,0.75-0.24c1-0.35,1.6-0.84,1.63-0.86c0.2-0.17,0.26-0.46,0.12-0.68c-0.13-0.23-0.4-0.33-0.65-0.24
			C32.18,9.55,31.7,9.5,31.1,9.43c-0.06-0.01-0.11-0.01-0.17-0.02l2.15-1.3c0.23-0.14,0.32-0.43,0.22-0.67
			c-0.1-0.25-0.37-0.38-0.63-0.32l-2.32,0.59c0.21-0.17,0.42-0.34,0.61-0.52c0.79-0.71,1.16-1.39,1.17-1.42
			c0.12-0.23,0.06-0.52-0.15-0.68c-0.21-0.16-0.5-0.15-0.69,0.03c-0.83,0.76-1.29,0.9-1.88,1.07c-0.05,0.02-0.1,0.03-0.16,0.05
			l1.49-2.02c0.16-0.21,0.14-0.52-0.05-0.71s-0.49-0.21-0.7-0.05l-1.93,1.44c0.14-0.25,0.26-0.49,0.37-0.72
			c0.46-0.95,0.54-1.73,0.54-1.76c0.02-0.26-0.14-0.5-0.39-0.57c-0.25-0.07-0.52,0.05-0.63,0.29c-0.48,1.02-0.85,1.33-1.33,1.72
			c-0.04,0.03-0.08,0.07-0.12,0.1l0.61-2.43c0.06-0.26-0.07-0.53-0.32-0.63c-0.25-0.1-0.53-0.01-0.67,0.22l-1.24,2.08
			c0.03-0.28,0.06-0.55,0.07-0.81c0.06-1.06-0.16-1.81-0.17-1.84c-0.08-0.25-0.32-0.41-0.58-0.38c-0.26,0.03-0.46,0.25-0.47,0.51
			c-0.05,1.13-0.28,1.56-0.57,2.09c-0.02,0.05-0.05,0.09-0.07,0.14l-0.36-2.47C22.69,0.2,22.46,0,22.19,0c-0.27,0-0.5,0.2-0.53,0.47
			l-0.33,2.35c-0.07-0.26-0.15-0.51-0.23-0.74c-0.34-1-0.84-1.61-0.86-1.63c-0.17-0.2-0.45-0.26-0.68-0.13
			c-0.23,0.13-0.33,0.4-0.24,0.65c0.38,1.07,0.33,1.55,0.26,2.16c-0.01,0.06-0.01,0.11-0.02,0.17l-1.3-2.17
			c-0.14-0.23-0.42-0.32-0.67-0.22c-0.25,0.1-0.38,0.38-0.31,0.63l0.59,2.31c-0.17-0.21-0.34-0.41-0.5-0.6
			c-0.68-0.77-1.34-1.14-1.42-1.18c-0.23-0.12-0.52-0.06-0.68,0.15c-0.16,0.21-0.15,0.5,0.03,0.7c0.76,0.84,0.89,1.3,1.07,1.89
			c0.02,0.06,0.03,0.11,0.05,0.17l-2.02-1.5c-0.21-0.16-0.52-0.14-0.7,0.05c-0.19,0.19-0.21,0.49-0.05,0.71l1.43,1.92
			c-0.24-0.13-0.47-0.26-0.7-0.37c-0.95-0.46-1.72-0.54-1.76-0.54c-0.26-0.02-0.5,0.14-0.57,0.4c-0.07,0.25,0.05,0.52,0.29,0.63
			c1.02,0.48,1.32,0.86,1.71,1.34c0.03,0.04,0.07,0.08,0.1,0.12l-2.43-0.61c-0.26-0.06-0.53,0.07-0.63,0.32
			c-0.1,0.25-0.01,0.53,0.22,0.67l2.07,1.23c-0.28-0.03-0.54-0.05-0.8-0.07c-1.05-0.06-1.8,0.16-1.83,0.17
			c-0.25,0.08-0.41,0.32-0.38,0.59c0.03,0.26,0.25,0.46,0.51,0.47c1.12,0.05,1.55,0.28,2.09,0.58c0.05,0.02,0.09,0.05,0.14,0.08
			l-2.48,0.37c-0.26,0.04-0.46,0.27-0.46,0.54s0.2,0.5,0.46,0.53l2.39,0.35c-0.27,0.08-0.53,0.16-0.77,0.25
			c-0.99,0.35-1.6,0.84-1.62,0.87c-0.2,0.17-0.25,0.46-0.12,0.68c0.13,0.23,0.4,0.33,0.65,0.24c0.53-0.19,0.94-0.29,1.34-0.31
			c-0.68,0.6-0.99,0.94-1.13,1.11c-0.11,0.14-0.22,0.29-0.31,0.44c-0.04-0.08-0.12-0.14-0.2-0.17c-0.12-0.04-0.24-0.02-0.34,0.06
			c-0.75,0.59-1.36,1.22-1.79,1.9c-0.13,0.2-0.25,0.41-0.35,0.62c-0.05-0.1-0.15-0.16-0.26-0.18c-0.12-0.02-0.24,0.02-0.33,0.11
			c-0.65,0.7-1.14,1.42-1.46,2.15c-0.09,0.2-0.16,0.41-0.23,0.61c-0.06-0.07-0.15-0.11-0.25-0.12c-0.13-0.01-0.24,0.05-0.31,0.15
			c-0.56,0.77-0.97,1.54-1.2,2.31c-0.06,0.21-0.11,0.42-0.15,0.63c-0.01-0.01-0.01-0.01-0.01-0.01c-0.08-0.1-0.2-0.15-0.32-0.13
			c-0.12,0.01-0.23,0.08-0.29,0.19c-0.44,0.84-0.72,1.67-0.84,2.46c-0.03,0.21-0.05,0.41-0.05,0.62c0,0,0,0,0,0
			c-0.09-0.09-0.21-0.12-0.33-0.09c-0.12,0.03-0.22,0.11-0.26,0.23C1.78,28.45,1.6,29.3,1.59,30.1c0,0.2,0,0.41,0.02,0.61
			c-0.1-0.07-0.22-0.08-0.33-0.04c-0.12,0.04-0.2,0.14-0.23,0.26c-0.22,0.93-0.29,1.8-0.2,2.59c0.02,0.15,0.04,0.31,0.07,0.46
			c-0.06-0.01-0.12,0-0.18,0.03c-0.11,0.05-0.19,0.15-0.22,0.27c-0.18,0.94-0.2,1.81-0.08,2.6c0.03,0.21,0.08,0.41,0.13,0.61
			c-0.06,0-0.11,0.01-0.16,0.04c-0.11,0.05-0.18,0.16-0.2,0.28c-0.12,0.94-0.09,1.82,0.08,2.6c0.04,0.18,0.09,0.35,0.14,0.52
			c-0.09-0.02-0.18,0-0.26,0.05C0.07,41.02,0,41.13,0,41.26c-0.02,0.95,0.1,1.82,0.36,2.57c0.08,0.23,0.17,0.45,0.27,0.67
			c-0.05-0.02-0.08-0.02-0.08-0.02c-0.12-0.03-0.24,0-0.33,0.08c-0.09,0.08-0.13,0.2-0.11,0.33c0.15,0.94,0.42,1.77,0.8,2.47
			c0.08,0.14,0.16,0.28,0.24,0.41c-0.07,0.02-0.14,0.05-0.19,0.1c-0.08,0.09-0.12,0.21-0.09,0.33c0.22,0.93,0.55,1.74,0.98,2.41
			c0.11,0.17,0.22,0.33,0.34,0.48c-0.11,0-0.21,0.06-0.27,0.14c-0.07,0.1-0.09,0.23-0.05,0.34c0.32,0.9,0.75,1.66,1.25,2.28
			c0.12,0.14,0.24,0.28,0.37,0.41c-0.1,0.02-0.18,0.08-0.23,0.17c-0.06,0.11-0.07,0.24-0.01,0.35c0.43,0.85,0.94,1.57,1.51,2.12
			c0.13,0.12,0.26,0.24,0.4,0.35c-0.09,0.03-0.17,0.1-0.21,0.19c-0.05,0.11-0.04,0.24,0.03,0.35c0.51,0.8,1.09,1.46,1.73,1.95
			c0.2,0.16,0.41,0.3,0.62,0.42c-0.07,0.02-0.11,0.03-0.11,0.03c-0.12,0.04-0.2,0.14-0.23,0.26c-0.03,0.12,0.01,0.25,0.09,0.34
			c0.66,0.69,1.33,1.23,2.01,1.61c0.55,0.31,1.11,0.53,1.65,0.63c0.46,0.09,0.92,0.09,1.31,0.02c1.2,0.85,2.47,1.56,3.77,2.12
			c1.08,0.46,2.18,0.81,3.28,1.04c0.16,0.03,0.32,0.07,0.48,0.1l0.37,0.07c0.24,0.08,0.46,0.13,0.62,0.16
			c-0.02,0.11-0.04,0.23-0.04,0.34c0,0.13,0.02,0.26,0.04,0.38c-0.39,0.39-1.77,1.6-3.73,1.84l-0.12,0.01l0.06,0.1
			c0.08,0.12,0.25,0.37,0.54,0.64l0.03,0.03l0.04-0.01c1.75-0.34,2.99-1.28,3.59-1.84c0.05,0.05,0.1,0.1,0.15,0.14
			c-0.14,0.5-0.66,1.69-2.68,2.24l-0.21,0.06l0.21,0.09c0.36,0.15,0.76,0.26,1.19,0.32l0.02,0l0.02-0.01
			c1.51-0.69,2.05-1.75,2.24-2.33c0.2,0.04,0.4,0.04,0.59,0c0.19,0.59,0.73,1.64,2.24,2.33l0.02,0.01l0.02,0
			c0.42-0.06,0.82-0.17,1.19-0.32l0.2-0.09l-0.21-0.06c-2.02-0.55-2.55-1.72-2.68-2.23c0.05-0.05,0.11-0.09,0.15-0.14
			c0.6,0.55,1.84,1.5,3.59,1.83l0.04,0.01l0.03-0.03c0.29-0.27,0.46-0.52,0.54-0.64l0.06-0.1l-0.12-0.01
			c-1.9-0.23-3.22-1.35-3.71-1.83c0.03-0.13,0.05-0.26,0.05-0.39c0-0.12-0.01-0.23-0.04-0.35c0.2-0.04,0.4-0.09,0.57-0.15l0.42-0.07
			c0.52-0.09,1.03-0.2,1.52-0.33c1.1-0.3,2.19-0.71,3.24-1.23c1.49-0.73,2.47-1.47,2.77-1.7c0.39,0.07,0.85,0.07,1.31-0.02
			c0.54-0.1,1.1-0.31,1.65-0.63c0.68-0.39,1.35-0.93,2.01-1.61c0.09-0.09,0.12-0.22,0.09-0.34c-0.03-0.12-0.12-0.22-0.23-0.26
			c-0.01,0-0.04-0.01-0.09-0.03c0.21-0.13,0.43-0.27,0.63-0.43c0.63-0.49,1.21-1.15,1.72-1.95c0.07-0.1,0.08-0.23,0.03-0.35
			c-0.04-0.09-0.12-0.16-0.21-0.19c0.14-0.11,0.27-0.23,0.4-0.35c0.58-0.55,1.08-1.27,1.51-2.12c0.06-0.11,0.05-0.24-0.01-0.35
			c-0.06-0.11-0.17-0.17-0.29-0.18c0.14-0.14,0.27-0.29,0.4-0.44c0.51-0.62,0.93-1.38,1.25-2.28c0.04-0.11,0.02-0.23-0.04-0.33
			c-0.06-0.1-0.17-0.16-0.29-0.16c-0.01,0-0.02,0-0.03,0h0c0.12-0.14,0.23-0.3,0.34-0.46c0.44-0.66,0.78-1.47,1.02-2.39
			c0.03-0.12,0-0.25-0.08-0.34c-0.08-0.09-0.2-0.13-0.32-0.11c0.11-0.17,0.21-0.35,0.3-0.54C43.8,46.5,44.04,45.66,44.16,44.72
			 M43.74,41.74L43.74,41.74c0.01,0.01,0.02,0.02,0.02,0.03c-0.05,0.65-0.17,1.25-0.36,1.78c-0.19,0.53-0.46,1-0.79,1.39
			c-0.39,0.46-0.79,0.7-0.94,0.79c-0.01,0-0.01,0-0.01,0c-0.02,0-0.03-0.01-0.03-0.01c-0.52-0.71-0.78-1.59-0.76-2.6
			c0.01-0.32,0.04-0.65,0.1-0.98c0-0.01,0.01-0.02,0.03-0.03c0.01,0,0.03,0,0.03,0.01c0.46,0.57,0.72,1.31,0.73,1.34
			c0.04,0.1,0.13,0.17,0.24,0.18c0.01,0,0.01,0,0.02,0c0.1,0,0.19-0.06,0.24-0.15c0.43-0.91,1.03-1.45,1.45-1.76
			C43.71,41.73,43.73,41.73,43.74,41.74 M43.65,38.35c0.01-0.01,0.02-0.01,0.04-0.01c0.01,0.01,0.02,0.02,0.02,0.03
			c0.02,0.65-0.04,1.26-0.18,1.81c-0.14,0.55-0.36,1.04-0.65,1.46c-0.34,0.49-0.71,0.77-0.86,0.87c-0.01,0-0.01,0.01-0.02,0.01
			c-0.01,0-0.02,0-0.03-0.01c-0.92-1.05-1.01-2.6-0.98-3.44c0-0.01,0.01-0.03,0.02-0.03c0.01,0,0.03,0,0.04,0.01
			c0.49,0.54,0.82,1.19,0.83,1.21c0.05,0.1,0.15,0.16,0.25,0.15c0.11-0.01,0.2-0.08,0.24-0.18C42.72,39.29,43.26,38.69,43.65,38.35
			 M43.29,34.9L43.29,34.9c0.01-0.01,0.02-0.01,0.04-0.01c0.01,0,0.02,0.01,0.02,0.03c0.08,0.65,0.08,1.26,0,1.81
			c-0.08,0.56-0.25,1.07-0.5,1.52c-0.3,0.53-0.65,0.85-0.78,0.97c-0.01,0.01-0.01,0.01-0.02,0.01c-0.01,0-0.02,0-0.02-0.01
			c-0.91-0.76-1.19-2.4-1.27-3.31c0-0.01,0.01-0.03,0.02-0.03c0.01-0.01,0.03,0,0.04,0.01c0.53,0.49,0.91,1.09,0.92,1.1
			c0.06,0.09,0.16,0.14,0.27,0.12c0.11-0.02,0.19-0.09,0.22-0.2C42.45,35.94,42.93,35.28,43.29,34.9 M42.75,31.63L42.75,31.63
			c0.01-0.01,0.02-0.01,0.04-0.01c0.01,0,0.02,0.01,0.02,0.03c0.11,0.64,0.14,1.25,0.08,1.81c-0.06,0.57-0.2,1.08-0.43,1.54
			c-0.27,0.54-0.6,0.87-0.73,0.99C41.73,35.99,41.72,36,41.71,36c0,0-0.02,0-0.02-0.01c-0.77-0.65-1.13-1.61-1.3-2.3
			c-0.08-0.31-0.13-0.63-0.17-0.96c0-0.01,0.01-0.03,0.02-0.03c0.01-0.01,0.03-0.01,0.04,0c0.57,0.46,1,1.08,1,1.08
			c0.06,0.09,0.17,0.13,0.27,0.11c0.1-0.02,0.19-0.1,0.21-0.21C41.96,32.7,42.41,32.02,42.75,31.63 M25.09,49.45
			c0.04,0.1,0.11,0.19,0.21,0.23c1.12,0.55,2.05,1.7,2.39,2.16c0,0,0,0.01,0,0.01c-0.04,0.1-0.1,0.18-0.16,0.26
			c-0.19,0.21-0.45,0.32-0.8,0.32c-0.02,0-0.03,0-0.05,0c-0.01,0-0.01,0-0.01-0.01c-0.11-0.26-0.33-0.57-0.63-0.92
			c-0.39-0.46-1.22-1.04-1.23-1.04c-0.18-0.13-0.44-0.09-0.57,0.1c-0.13,0.18-0.08,0.44,0.1,0.57c0.21,0.15,0.81,0.6,1.08,0.91
			c0.34,0.39,0.46,0.63,0.51,0.73c0,0,0,0.01,0,0.01c-0.04,0.09-0.12,0.22-0.24,0.33c-0.19,0.18-0.42,0.25-0.7,0.21
			c-0.01,0-0.01,0-0.01-0.01c-0.11-0.25-0.37-0.76-0.86-1.31c-0.15-0.17-0.41-0.18-0.57-0.03c-0.08,0.07-0.13,0.17-0.14,0.28
			c-0.01,0.11,0.03,0.21,0.1,0.29c0.35,0.39,0.56,0.76,0.67,1c0,0.01,0,0.01-0.01,0.02c-0.09,0.06-0.19,0.11-0.29,0.15
			c-0.27,0.11-0.56,0.14-0.86,0.09c-0.01,0-0.01,0-0.01-0.01s0-0.01,0-0.01c0.14-0.2,0.22-0.4,0.24-0.6
			c0.03-0.25-0.02-0.62-0.4-0.99c-0.2-0.2-0.6-0.38-1.12-0.28c0,0-0.01,0-0.01,0c0,0-0.01-0.01-0.01-0.01
			c-0.03-0.29-0.17-0.56-0.44-0.79c-0.41-0.36-0.88-0.45-1.41-0.29c-0.01,0-0.02,0.01-0.03,0.01l-0.01,0.01
			c-0.01,0-0.02,0-0.02-0.01c-0.07-0.21-0.25-0.5-0.7-0.73c-0.38-0.19-0.81-0.22-1.23-0.08c0,0-0.01,0-0.01,0
			c-0.37-0.33-0.87-0.39-1.01-0.4c-0.6-0.08-1.4,0.22-1.91,0.71c0,0,0,0,0,0c-2.7,1.45-6.19,3.03-7.56,3.64c0,0,0,0,0,0
			c-0.01,0-0.01,0-0.01-0.01c-0.74-1.4-1.38-2.91-1.88-4.5c-0.14-0.45-0.28-0.91-0.4-1.36c0,0,0-0.01,0-0.01
			c0,0,0.01-0.01,0.01-0.01c3.96-0.45,7.14-0.92,9.45-1.38c2.41-0.48,3.96-0.98,4.74-1.5l0.01-0.01c0.93-0.66,1.57-0.98,2.47-0.91
			c0.28,0.02,0.53,0.05,0.76,0.09c0.01,0,0.01,0.01,0.01,0.01c0,0.01,0,0.01-0.01,0.02c-0.23,0.08-0.44,0.18-0.64,0.33
			c-0.37,0.26-0.59,0.44-0.79,0.61c-0.2,0.17-0.36,0.3-0.62,0.47c-0.18,0.12-0.42,0.23-0.65,0.35c-0.54,0.26-0.96,0.47-1.09,0.82
			l-0.02,0l0.01,0.01c-0.14,0.38-0.08,0.72,0.18,1.09c0.4,0.56,1.06,0.52,1.59,0.5c0.6-0.03,1.34-0.26,1.88-0.57
			c0.19-0.11,0.37-0.23,0.52-0.33c0.24-0.16,0.45-0.3,0.6-0.33c0.01,0,0.02,0,0.02-0.01c0.49-0.13,1.04-0.08,1.68,0.17
			c0.57,0.22,1.13,0.57,1.65,0.91c1.25,0.82,2.18,1.93,2.43,2.25c0,0,0,0.01,0,0.01c-0.02,0.14-0.08,0.34-0.23,0.49
			c-0.15,0.15-0.39,0.22-0.69,0.22c0,0-0.01,0-0.01-0.01c-0.38-0.51-1.4-1.78-2.69-2.41c-0.2-0.1-0.44-0.01-0.54,0.19
			C25.06,49.23,25.05,49.34,25.09,49.45 M22.02,53.63c-0.01,0.01-0.02,0.01-0.03,0.02l0,0c-0.17,0.13-0.7,0.46-1.14,0.46
			c-0.05,0-0.1,0-0.15-0.01c-0.08-0.02-0.21-0.06-0.34-0.2c0,0,0-0.01,0-0.02c0.2-0.46,0.67-0.76,1.09-1
			c0.55-0.32,0.81-0.14,0.84-0.12c0.18,0.17,0.17,0.28,0.16,0.32C22.43,53.3,22.15,53.55,22.02,53.63l-0.01-0.01L22.02,53.63z
			 M17.32,51.35c0.58-0.56,1.03-0.73,1.42-0.53c0.11,0.06,0.26,0.15,0.29,0.27c0.01,0.04,0.02,0.09,0,0.14c0,0,0,0.01-0.01,0.01
			c-0.09,0.06-0.18,0.12-0.27,0.19c-0.61,0.43-0.98,0.88-1.1,1.34c0,0.01-0.01,0.01-0.01,0.01c-0.01,0-0.01,0-0.01,0
			c-0.1-0.02-0.19-0.04-0.27-0.07c-0.5-0.16-0.52-0.44-0.53-0.53C16.83,51.92,16.96,51.7,17.32,51.35 M16.76,50.76
			c-0.28,0.27-0.58,0.6-0.69,1.04c0,0.01-0.01,0.01-0.01,0.01h0c-0.08-0.01-0.17-0.01-0.24-0.03c-0.29-0.05-0.5-0.15-0.55-0.26
			c-0.02-0.05-0.09-0.22,0.11-0.48c0.29-0.38,0.96-0.69,1.37-0.63c0.01,0,0.02,0,0.03,0c0.06,0,0.16,0.02,0.26,0.05
			c0,0,0.01,0.01,0.01,0.01c0,0.01,0,0.01-0.01,0.01C16.95,50.58,16.86,50.66,16.76,50.76 M19.23,52.1c0.74-0.52,1.14-0.7,1.52-0.37
			c0.11,0.1,0.17,0.19,0.16,0.27c-0.01,0.15-0.18,0.35-0.34,0.47c-0.47,0.33-0.79,0.69-0.97,1.1c0,0-0.01,0.01-0.01,0.01
			c-0.1,0.02-0.26,0.04-0.44,0.04c-0.2,0-0.42-0.03-0.56-0.13c-0.07-0.05-0.15-0.12-0.17-0.31C18.39,52.76,18.91,52.32,19.23,52.1
			 M27.48,16.03c-0.01-0.01-0.02-0.02-0.01-0.03c0-0.01,0.01-0.02,0.02-0.03c0.34-0.11,0.69-0.17,1.03-0.19
			c0.96-0.06,1.77,0.25,2.4,0.92c0.01,0.01,0.01,0.02,0.01,0.03c0,0.01-0.01,0.02-0.02,0.02c-0.2,0.07-0.52,0.15-0.91,0.17
			c-0.05,0-0.09,0-0.14,0C29.04,16.93,28.24,16.63,27.48,16.03 M28.61,17.4H15.8c2.04-1.03,4.19-1.55,6.41-1.55
			C24.41,15.86,26.56,16.38,28.61,17.4 M30.22,14.78c-0.29,0.11-0.74,0.27-1.25,0.37c-0.32,0.06-0.63,0.09-0.92,0.09
			c-0.69,0-1.28-0.17-1.76-0.51c-0.01-0.01-0.02-0.02-0.01-0.03c0-0.01,0.01-0.02,0.02-0.03c0.22-0.13,0.58-0.3,1.04-0.41
			c0.49-0.12,1-0.13,1.5-0.05c0.47,0.08,0.94,0.25,1.4,0.51c0.01,0.01,0.02,0.02,0.02,0.03C30.24,14.76,30.23,14.77,30.22,14.78
			 M27.15,13.7c-0.32,0.15-0.88,0.35-1.71,0.45c-0.11,0.01-0.2,0.09-0.23,0.2c-0.03,0.11,0.02,0.22,0.11,0.28
			c0.01,0,0.65,0.45,1.12,1.05c0.01,0.01,0.01,0.02,0,0.04c-0.01,0.01-0.02,0.02-0.03,0.02c-0.79-0.02-2.26-0.25-3.31-1.52
			c-0.01-0.01-0.01-0.03,0-0.05c0.17-0.16,0.46-0.39,0.91-0.56c0.84-0.32,1.92-0.31,3.13,0.02c0.01,0,0.02,0.02,0.03,0.03
			C27.17,13.68,27.16,13.69,27.15,13.7 M23.64,13.12c-0.28,0.22-0.78,0.53-1.61,0.78c-0.11,0.03-0.19,0.13-0.19,0.25
			c0,0.11,0.07,0.22,0.17,0.26c0.01,0,0.71,0.27,1.27,0.75c0.01,0.01,0.02,0.02,0.01,0.04c0,0.01-0.02,0.02-0.03,0.02
			c-0.23,0.02-0.47,0.03-0.7,0.03c-0.8,0-1.94-0.14-2.82-0.81c-0.01-0.01-0.02-0.03-0.01-0.05c0.13-0.19,0.37-0.47,0.77-0.72
			c0.77-0.49,1.84-0.7,3.11-0.61c0.01,0,0.03,0.01,0.03,0.02C23.66,13.09,23.65,13.11,23.64,13.12 M20.04,13.18
			c-0.21,0.28-0.63,0.7-1.45,1.11c-0.1,0.05-0.16,0.16-0.15,0.28c0.02,0.11,0.1,0.21,0.22,0.23c0.01,0,0.74,0.14,1.4,0.47
			c0.01,0.01,0.02,0.02,0.02,0.03c0,0.01-0.01,0.03-0.02,0.03c-0.31,0.1-0.62,0.18-0.93,0.24c-0.33,0.06-0.66,0.09-0.97,0.09
			c-0.63,0-1.19-0.12-1.69-0.35c-0.02-0.01-0.02-0.03-0.02-0.04c0.09-0.21,0.26-0.54,0.59-0.87c0.65-0.65,1.68-1.09,2.97-1.27
			c0.01,0,0.03,0,0.03,0.02C20.05,13.15,20.05,13.16,20.04,13.18 M16.66,13.77L16.66,13.77c-0.16,0.38-0.52,0.98-1.27,1.63
			c-0.08,0.07-0.12,0.19-0.08,0.3c0.04,0.1,0.14,0.17,0.25,0.17h0c0.05,0,0.35,0,0.72,0.05c0.28,0.04,0.53,0.09,0.76,0.16
			c0.01,0,0.02,0.02,0.02,0.03c0,0.01-0.01,0.03-0.02,0.03c-0.29,0.15-0.6,0.28-0.9,0.38c-0.59,0.2-1.16,0.31-1.7,0.31
			c-0.36,0-0.69-0.05-1-0.13c-0.02,0-0.03-0.02-0.02-0.04c0.12-0.6,0.67-2.08,3.19-2.94c0.01,0,0.03,0,0.04,0.01
			C16.67,13.74,16.67,13.76,16.66,13.77 M30.12,18.27c0.7,0.45,1.37,0.96,2.02,1.52H12.26c0.65-0.56,1.32-1.07,2.02-1.52H30.12z
			 M33.07,20.66c0.48,0.48,0.94,0.98,1.38,1.52h-9.69c-1.29-0.94-2.67-0.88-2.88-0.86c-0.18,0-1.48,0.06-2.69,0.86H9.95
			c0.44-0.54,0.9-1.05,1.38-1.52H33.07z M19.02,31.92c-0.82-0.07-1.51,0.15-2.36,0.52c0,0-0.01,0-0.01,0c0,0-0.01-0.01-0.01-0.01
			c0.01-0.07,0.02-0.15,0.04-0.22c0.45-2.27,1.33-3.81,2-4.71c0.5-0.67,0.95-1.1,1.18-1.29c0.07-0.05,0.14-0.11,0.21-0.16
			c0.19-0.16,0.22-0.45,0.07-0.65c-0.15-0.2-0.44-0.24-0.64-0.1c-0.02,0.01-0.1,0.07-0.22,0.18c-0.36,0.25-0.7,0.32-0.93,0.2
			c-0.19-0.11-0.27-0.35-0.22-0.64c0.09-0.5,0.64-1.17,0.85-1.38c0.01-0.01,0.02-0.02,0.02-0.03c1.12-1.32,2.9-1.35,2.92-1.35
			c0.01,0,0.6-0.05,1.31,0.18c0.96,0.32,1.69,0.97,2.2,1.95c0.71,1.38,1.24,2.78,1.63,4.27c0,0.01,0,0.01,0,0.01c0,0-0.01,0-0.01,0
			c-1.02-0.35-1.83-1.01-1.87-1.03c-0.2-0.17-0.5-0.14-0.67,0.06c-0.17,0.2-0.14,0.5,0.06,0.67c0.05,0.04,1.27,1.04,2.73,1.36
			c0.01,0,0.01,0.01,0.01,0.01c0.11,0.53,0.21,1.08,0.32,1.74c0,0.01,0,0.01-0.01,0.01c0,0-0.01,0-0.02,0
			c-0.48-0.26-1.07-0.42-1.54-0.55c-0.31-0.08-0.61-0.16-0.84-0.25c-1.01-0.4-1.87-1.08-1.88-1.09c-0.2-0.16-0.5-0.13-0.66,0.08
			c-0.16,0.2-0.13,0.5,0.08,0.67c0.04,0.03,0.97,0.77,2.11,1.23c0.28,0.11,0.61,0.2,0.95,0.29c1.28,0.34,1.9,0.62,1.92,1.3
			c0,0,0,0,0,0.01c-0.01,0.12-0.1,0.21-0.18,0.29c-0.37,0.41-1.13,0.49-1.52,0.49c-0.05,0-1.36-0.01-1.36-0.01
			c-0.24,0-1.47-0.05-2.54-0.75C20.85,32.39,19.89,31.99,19.02,31.92 M21.5,33.96c0,0.01-0.01,0.01-0.01,0.01h-3.81
			c-0.39,0-0.67-0.1-0.83-0.31c-0.05-0.05-0.08-0.12-0.12-0.2c0-0.01,0-0.02,0.01-0.02c1.72-0.79,2.52-0.94,4.76,0.49
			C21.5,33.94,21.5,33.95,21.5,33.96 M22.78,37.37h17.48c0.04,0.54,0.08,1.09,0.1,1.64H22.78V37.37z M22.78,36.5v-1.53h17.2
			c0.08,0.51,0.15,1.02,0.21,1.53H22.78z M28.26,34.11c0.17-0.19,0.3-0.42,0.38-0.68c0.01-0.03,0.02-0.06,0.02-0.09
			c0.06-0.23,0.08-0.49,0.06-0.76h10.77c0.12,0.5,0.23,1.01,0.33,1.52H28.26z M28.61,31.72c-0.07-0.48-0.15-0.99-0.25-1.52h10.45
			c0.04,0.13,0.09,0.26,0.13,0.38c0.12,0.38,0.23,0.76,0.34,1.14H28.61z M28.18,29.34c-0.11-0.49-0.24-1-0.39-1.52h10.1
			c0.22,0.5,0.42,1,0.62,1.52H28.18z M27.52,26.95c-0.17-0.49-0.36-1-0.58-1.52h9.75c0.28,0.49,0.55,1,0.8,1.52H27.52z M26.55,24.56
			c-0.09-0.2-0.19-0.4-0.3-0.6c-0.18-0.35-0.38-0.66-0.59-0.92h9.46c0.36,0.49,0.71,1,1.04,1.52H26.55z M18.23,23.04
			c-0.2,0.22-0.75,0.84-0.97,1.52H8.24c0.33-0.52,0.68-1.03,1.04-1.52H18.23z M17.17,25.43c0.06,0.46,0.3,0.84,0.69,1.06
			c0.09,0.05,0.18,0.09,0.27,0.12c0,0,0.01,0,0.01,0.01c0,0,0,0.01,0,0.01c-0.08,0.1-0.16,0.21-0.24,0.32H6.92
			c0.25-0.52,0.52-1.03,0.8-1.52H17.17z M17.32,27.81c-0.26,0.44-0.52,0.94-0.76,1.52H5.9c0.19-0.52,0.4-1.03,0.62-1.52H17.32z
			 M16.23,30.2c-0.16,0.47-0.3,0.98-0.42,1.52H5.13c0.11-0.38,0.22-0.76,0.34-1.14c0.04-0.13,0.08-0.26,0.13-0.38H16.23z
			 M15.67,32.59c-0.01,0.22-0.01,0.42,0.02,0.62c0,0.03,0.01,0.06,0.01,0.09c0.05,0.31,0.15,0.59,0.3,0.81H4.58
			c0.1-0.51,0.2-1.02,0.33-1.52H15.67z M21.62,34.97v1.53H4.22c0.06-0.51,0.12-1.02,0.21-1.53H21.62z M21.62,37.37v1.64H4.05
			c0.02-0.55,0.05-1.1,0.1-1.64H21.62z M21.62,39.91v3.53c0,0,0,0.01,0,0.01c0,0-0.01,0-0.01,0c-0.04,0-0.07,0-0.11,0
			c-0.98,0-1.76,0.41-2.68,1.06c-1.39,0.94-6.08,1.87-13.94,2.76c-0.01,0-0.01,0-0.02-0.01c-0.55-2.33-0.83-4.77-0.83-7.24
			c0-0.04,0-0.07,0-0.11H21.62z M27.28,47.71c-0.86-0.56-2.45-1.6-3.98-1.18c-0.3,0.07-0.56,0.24-0.87,0.45
			c-0.15,0.1-0.3,0.2-0.48,0.3c-0.5,0.29-1.12,0.44-1.52,0.46c-0.46,0.03-0.76,0.03-0.89-0.15c-0.11-0.15-0.11-0.22-0.09-0.3
			c0,0,0,0,0-0.01c0.09-0.1,0.47-0.28,0.69-0.39c0.26-0.13,0.52-0.26,0.74-0.4c0.29-0.19,0.49-0.35,0.69-0.52
			c0.19-0.16,0.41-0.33,0.75-0.57c0.48-0.34,1-0.35,1.79-0.37c0.12,0,0.25-0.01,0.38-0.01c0.09,0,0.19-0.01,0.29-0.01
			c0.84-0.04,1.59,0.23,2.73,0.64c0.33,0.12,0.7,0.25,1.11,0.39c0,0,0,0,0,0c0.02,0.01,1.53,0.49,3.66,1
			c1.81,0.43,4.49,0.98,6.99,1.14c0,0,0.01,0,0.01,0.01c0,0,0,0.01,0,0.01c-0.12,0.43-0.24,0.85-0.37,1.25
			c-0.52,1.64-1.19,3.21-1.97,4.65c0,0.01-0.01,0.01-0.01,0.01s-0.01,0-0.01,0c-1.22-0.5-4.28-1.83-6.29-3.32
			c-0.41-0.29-0.69-0.58-0.82-0.74c0,0,0,0,0,0c0-0.01-0.01-0.01-0.01-0.02l-0.01-0.01c-0.04-0.05-0.07-0.08-0.07-0.08
			C29.33,49.43,28.45,48.47,27.28,47.71 M28.89,45.27c-0.4-0.14-0.77-0.27-1.09-0.39c-1.18-0.43-2.04-0.74-3.04-0.69
			c-0.06,0-0.12,0-0.17,0.01c0,0,0,0-0.01,0c-0.55-0.27-1.06-0.47-1.79-0.61c-0.01,0-0.01-0.01-0.01-0.01v-3.66h17.59
			c0,0.04,0,0.07,0,0.11c0,2.51-0.29,4.98-0.86,7.35c0,0.01-0.01,0.01-0.01,0.01H39.5C34.73,47.1,29.13,45.34,28.89,45.27
			 M41.71,28.31c0.01-0.01,0.02-0.02,0.03-0.02c0.01,0,0.02,0.01,0.03,0.02c0.2,0.62,0.31,1.22,0.33,1.79
			c0.02,0.57-0.05,1.1-0.21,1.58c-0.19,0.57-0.47,0.94-0.58,1.08c-0.01,0.01-0.02,0.01-0.03,0.01c0,0-0.01,0-0.02-0.01
			c-0.71-0.45-1.26-1.16-1.64-2.12c-0.12-0.29-0.21-0.6-0.28-0.92c0-0.01,0-0.03,0.01-0.04c0.01-0.01,0.03-0.01,0.04,0
			c0.64,0.38,1.15,0.94,1.16,0.95c0.07,0.08,0.18,0.11,0.29,0.07c0.1-0.04,0.17-0.13,0.18-0.24C41.08,29.48,41.43,28.75,41.71,28.31
			 M39.74,27.61c0.1-0.05,0.16-0.15,0.15-0.25c-0.04-1,0.23-1.76,0.47-2.23c0.01-0.02,0.03-0.02,0.03-0.02
			c0.01,0,0.02,0.01,0.03,0.02c0.26,0.6,0.44,1.19,0.51,1.74c0.08,0.56,0.06,1.1-0.05,1.6c-0.13,0.59-0.37,0.99-0.47,1.13
			c-0.01,0.01-0.02,0.02-0.03,0.02c0,0-0.01,0-0.01,0c-0.76-0.37-1.38-1.03-1.85-1.94c-0.14-0.28-0.27-0.58-0.37-0.89
			c0-0.01,0-0.03,0.01-0.04c0.01-0.01,0.02-0.01,0.04-0.01c0.67,0.31,1.24,0.82,1.25,0.82C39.53,27.64,39.64,27.66,39.74,27.61
			L39.74,27.61 M38.33,24.69c0.09-0.05,0.15-0.16,0.13-0.27c-0.16-0.99,0.03-1.78,0.2-2.26c0-0.01,0.02-0.02,0.03-0.02h0
			c0.01,0,0.02,0.01,0.03,0.02c0.33,0.57,0.57,1.13,0.71,1.67c0.14,0.55,0.19,1.09,0.14,1.59c-0.06,0.6-0.25,1.02-0.33,1.18
			c-0.01,0.01-0.02,0.02-0.03,0.02c0,0-0.01,0-0.01,0c-0.85-0.3-1.56-0.88-2.12-1.73c-0.18-0.27-0.33-0.57-0.46-0.87
			c0-0.01,0-0.03,0.01-0.04c0.01-0.01,0.02-0.01,0.03-0.01c0.73,0.21,1.36,0.7,1.36,0.71C38.12,24.74,38.24,24.75,38.33,24.69
			 M36.24,21.98c0.09,0.07,0.22,0.06,0.31,0c0.09-0.07,0.13-0.19,0.1-0.3c-0.27-0.88-0.23-1.71-0.14-2.24
			c0-0.01,0.01-0.02,0.02-0.03c0.01,0,0.03,0,0.04,0.01c0.41,0.5,0.73,1.01,0.95,1.51c0.23,0.52,0.36,1.04,0.39,1.55
			c0.03,0.57-0.07,1.01-0.14,1.21c0,0.01-0.02,0.02-0.03,0.02h-0.01c-0.83-0.16-1.61-0.62-2.31-1.37c-0.23-0.25-0.45-0.52-0.65-0.81
			c-0.01-0.01-0.01-0.02,0-0.04c0.01-0.01,0.02-0.02,0.03-0.02C35.6,21.54,36.23,21.98,36.24,21.98 M34.13,19.57
			c0.1,0.04,0.22,0.01,0.3-0.07c0.07-0.08,0.09-0.2,0.04-0.3c-0.46-0.89-0.54-1.69-0.52-2.21c0-0.01,0.01-0.03,0.02-0.03
			c0.01-0.01,0.03,0,0.04,0.01c0.48,0.42,0.87,0.87,1.17,1.34c0.31,0.48,0.52,0.97,0.64,1.47c0.14,0.6,0.1,1.07,0.08,1.25
			c0,0.02-0.02,0.03-0.03,0.03c-0.02,0-0.03,0-0.05,0c-0.94,0-1.81-0.52-2.37-0.95c-0.28-0.22-0.55-0.46-0.81-0.73
			c-0.01-0.01-0.01-0.02-0.01-0.04c0.01-0.01,0.02-0.02,0.03-0.02C33.4,19.28,34.13,19.56,34.13,19.57 M33.31,17.38
			c0.22,0.57,0.25,1.11,0.24,1.38c0,0.02-0.01,0.03-0.03,0.03c-0.05,0-0.1,0-0.15,0c-1.16,0-2.52-0.79-3.22-1.26
			c-0.01-0.01-0.02-0.02-0.01-0.04c0-0.01,0.01-0.02,0.03-0.03c0.72-0.14,1.41,0.02,1.44,0.02c0.11,0.03,0.23-0.02,0.29-0.12
			c0.06-0.1,0.05-0.22-0.02-0.31c-0.46-0.58-0.74-1.24-0.9-1.69c0-0.01,0-0.03,0.01-0.04c0.01-0.01,0.02-0.01,0.03-0.01
			C32.16,15.71,32.93,16.4,33.31,17.38 M11.75,14.15c-0.01,0-0.01,0-0.02-0.01c0-0.01,0-0.02,0.01-0.02
			c0.23-0.12,0.48-0.23,0.73-0.32c0.68-0.24,1.34-0.4,1.66-0.47c0.73-0.16,1.25-0.49,1.27-0.5c0.03-0.02,0.05-0.06,0.04-0.1
			c-0.01-0.04-0.04-0.07-0.08-0.08l-3.87-0.57c-0.01,0-0.01-0.01-0.01-0.01c0-0.01,0.01-0.01,0.01-0.01l3.87-0.57
			c0.05-0.01,0.08-0.05,0.08-0.1c0-0.05-0.04-0.09-0.08-0.1c-0.01,0-0.74-0.12-1.5-0.46c-0.22-0.1-0.41-0.2-0.59-0.3
			c-0.44-0.24-0.83-0.45-1.52-0.57c-0.01,0-0.01-0.01-0.01-0.01c0-0.01,0.01-0.01,0.01-0.01c0.26-0.02,0.53-0.03,0.79-0.01
			c0.72,0.04,1.39,0.15,1.72,0.2c0.74,0.13,1.34,0.03,1.37,0.03c0.04-0.01,0.07-0.04,0.08-0.08c0.01-0.04-0.01-0.08-0.05-0.1
			l-3.36-2c-0.01,0-0.01-0.01-0.01-0.02c0-0.01,0.01-0.01,0.02-0.01l3.8,0.96c0.05,0.01,0.1-0.01,0.11-0.06
			c0.02-0.05,0-0.1-0.04-0.12c-0.01,0-0.63-0.38-1.21-1c-0.17-0.18-0.3-0.34-0.43-0.51c-0.32-0.39-0.59-0.73-1.19-1.11
			c-0.01,0-0.01-0.01-0.01-0.02c0-0.01,0.01-0.01,0.02-0.01c0.25,0.08,0.5,0.18,0.74,0.3c0.65,0.32,1.22,0.67,1.51,0.85
			c0.64,0.41,1.23,0.54,1.25,0.55c0.04,0.01,0.08-0.01,0.1-0.04c0.02-0.03,0.02-0.08,0-0.11l-2.34-3.14c0-0.01,0-0.01,0-0.02
			c0.01,0,0.01-0.01,0.02,0l3.15,2.34c0.04,0.03,0.09,0.02,0.13-0.01c0.03-0.03,0.04-0.09,0.01-0.13c0-0.01-0.44-0.6-0.73-1.39
			c-0.09-0.23-0.15-0.43-0.2-0.63c-0.14-0.49-0.27-0.91-0.68-1.48c0-0.01,0-0.01,0-0.02c0.01-0.01,0.01-0.01,0.02,0
			c0.2,0.17,0.39,0.36,0.57,0.56c0.48,0.54,0.87,1.09,1.07,1.36c0.43,0.62,0.93,0.97,0.95,0.99c0.03,0.02,0.08,0.02,0.11,0
			c0.03-0.02,0.05-0.07,0.04-0.11l-0.97-3.8c0-0.01,0-0.01,0.01-0.02c0.01,0,0.01,0,0.02,0.01l2.02,3.37
			c0.02,0.04,0.08,0.06,0.12,0.04c0.04-0.02,0.07-0.07,0.06-0.11c-0.01-0.03-0.18-0.74-0.15-1.56c0.01-0.24,0.03-0.46,0.05-0.66
			c0.05-0.51,0.1-0.94-0.06-1.63c0-0.01,0-0.01,0.01-0.02c0.01,0,0.01,0,0.02,0.01c0.12,0.24,0.23,0.48,0.31,0.73
			c0.24,0.69,0.39,1.34,0.47,1.67c0.16,0.72,0.46,1.22,0.5,1.28c0.02,0.04,0.06,0.05,0.1,0.04c0.04-0.01,0.07-0.04,0.08-0.08
			l0.54-3.87c0-0.01,0.01-0.01,0.01-0.01c0.01,0,0.02,0.01,0.02,0.01l0.56,3.87c0.01,0.05,0.05,0.08,0.1,0.08
			c0.05,0,0.09-0.04,0.1-0.08c0-0.03,0.12-0.75,0.45-1.5c0.1-0.22,0.2-0.41,0.3-0.59c0.24-0.45,0.45-0.83,0.56-1.53
			c0-0.01,0.01-0.01,0.02-0.01c0,0,0.01,0.01,0.01,0.01c0.02,0.26,0.03,0.53,0.01,0.8c-0.04,0.73-0.14,1.39-0.2,1.72
			C24,4.84,24.1,5.44,24.1,5.47c0.01,0.04,0.04,0.07,0.08,0.08c0.04,0.01,0.08-0.01,0.1-0.05l2-3.37c0-0.01,0.01-0.01,0.02-0.01
			c0.01,0,0.01,0.01,0.01,0.02l-0.95,3.8c-0.01,0.05,0.01,0.1,0.06,0.12c0.04,0.02,0.1,0,0.12-0.04c0-0.01,0.39-0.64,0.99-1.21
			c0.18-0.17,0.34-0.3,0.5-0.43c0.39-0.32,0.73-0.59,1.11-1.2c0-0.01,0.01-0.01,0.02-0.01c0.01,0,0.01,0.01,0.01,0.02
			c-0.08,0.25-0.18,0.5-0.3,0.74c-0.31,0.65-0.66,1.23-0.84,1.51c-0.4,0.64-0.54,1.23-0.55,1.26c-0.01,0.04,0.01,0.08,0.04,0.1
			c0.03,0.02,0.08,0.02,0.11,0l3.13-2.35c0.01,0,0.01,0,0.02,0c0.01,0.01,0.01,0.01,0,0.02l-2.33,3.15
			c-0.03,0.04-0.03,0.09,0.01,0.13c0.03,0.03,0.09,0.04,0.13,0.01c0.01,0,0.59-0.44,1.38-0.74c0.23-0.09,0.43-0.15,0.63-0.21
			c0.48-0.14,0.9-0.27,1.48-0.68c0.01,0,0.01,0,0.02,0c0,0.01,0.01,0.01,0,0.02c-0.17,0.2-0.36,0.39-0.56,0.57
			C30,7.21,29.46,7.61,29.18,7.8c-0.62,0.44-0.97,0.93-0.98,0.95c-0.02,0.03-0.02,0.08,0,0.11c0.02,0.03,0.07,0.05,0.1,0.04
			l3.78-0.97c0.01,0,0.01,0,0.02,0.01c0,0.01,0,0.01-0.01,0.02l-3.35,2.02c-0.04,0.02-0.06,0.08-0.04,0.12
			c0.02,0.05,0.07,0.07,0.11,0.06c0.03-0.01,0.74-0.18,1.56-0.15c0.24,0.01,0.46,0.03,0.66,0.05c0.5,0.05,0.93,0.1,1.62-0.06
			c0.01,0,0.01,0,0.02,0.01c0,0.01,0,0.01-0.01,0.02c-0.23,0.12-0.48,0.23-0.73,0.31c-0.68,0.24-1.34,0.4-1.66,0.47
			c-0.73,0.16-1.25,0.49-1.27,0.5c-0.03,0.02-0.05,0.06-0.04,0.1c0.01,0.04,0.04,0.07,0.08,0.08l3.86,0.56
			c0.01,0,0.01,0.01,0.01,0.01c0,0.01-0.01,0.01-0.01,0.01l-3.87,0.58c-0.05,0.01-0.08,0.05-0.08,0.1c0,0.05,0.03,0.09,0.08,0.1
			c0.01,0,0.73,0.11,1.5,0.46c0.22,0.1,0.41,0.2,0.59,0.3c0.44,0.24,0.83,0.45,1.52,0.57c0.01,0,0.01,0.01,0.01,0.01
			c0,0.01-0.01,0.01-0.01,0.01c-0.15,0.01-0.3,0.02-0.46,0.02c-0.11,0-0.23,0-0.34-0.01c-0.72-0.04-1.39-0.15-1.72-0.21
			c-0.03-0.01-0.07-0.01-0.1-0.02c0,0,0,0,0,0c-0.61-0.27-1.23-0.4-1.85-0.4c-0.01,0-0.02,0-0.03,0c0,0-0.01,0-0.01,0
			c0,0,0-0.01,0-0.01c0-0.03,0-0.05-0.01-0.08c-0.02-0.1-0.09-0.18-0.19-0.21c-0.72-0.25-1.4-0.4-2.03-0.46
			c-0.03,0-0.06,0-0.09-0.01l-0.01,0c-0.02,0-0.03,0-0.05,0c-0.03,0-0.07,0-0.1-0.01l-0.02,0c-0.01,0-0.02,0-0.03,0
			c-0.05,0-0.1,0-0.15,0c-0.01,0-0.03,0-0.04,0c-0.29,0-0.58,0.02-0.84,0.07c-0.01,0-0.01,0-0.01,0c0,0-0.01-0.01,0-0.01
			c0,0,0-0.01,0-0.01c0-0.04,0-0.08-0.02-0.12c0-0.01-0.01-0.02-0.01-0.02c-0.04-0.09-0.12-0.14-0.22-0.16
			c-0.06-0.01-0.12-0.02-0.18-0.02c-0.01,0-0.03,0-0.04,0l-0.02,0c-0.04,0-0.08-0.01-0.12-0.01c-0.02,0-0.05,0-0.07-0.01
			c-0.04,0-0.07-0.01-0.11-0.01c-0.73-0.06-1.4-0.03-1.99,0.09c-0.16,0.03-0.33,0.07-0.48,0.12c-0.01,0-0.02,0.01-0.03,0.01
			c-0.03,0.01-0.05,0.02-0.08,0.02l-0.03,0.01c-0.04,0.01-0.07,0.02-0.1,0.04l0,0c-0.08,0.03-0.15,0.06-0.22,0.09
			c-0.01,0-0.01,0-0.02,0c0,0-0.01-0.01,0-0.01l0,0l0,0c0-0.01,0-0.02,0.01-0.03l0,0c0.01-0.09-0.01-0.17-0.07-0.24l0,0
			c-0.01-0.01-0.01-0.01-0.02-0.02l-0.01,0c-0.06-0.05-0.13-0.07-0.21-0.07c-0.94,0.08-1.77,0.27-2.47,0.57
			c-0.23,0.1-0.45,0.22-0.66,0.35c0,0-0.01,0-0.02,0c0,0-0.01-0.01-0.01-0.01c0.01-0.05,0.01-0.07,0.01-0.08v0c0,0,0,0,0,0
			c0.01-0.09-0.03-0.18-0.1-0.24l0,0c-0.01-0.01-0.02-0.01-0.02-0.02l-0.01,0c-0.01-0.01-0.02-0.01-0.02-0.01l-0.01,0
			c-0.06-0.03-0.13-0.03-0.2-0.02c-0.92,0.25-1.71,0.61-2.35,1.05c-0.01,0.01-0.03,0.02-0.04,0.03l-0.02,0.01c0,0,0,0,0,0
			c-0.19,0.01-0.38,0.02-0.55,0.01c-0.15,0-0.62-0.05-0.66-0.05C12.88,14.03,12.44,13.99,11.75,14.15 M13.23,14.91L13.23,14.91
			c0.01-0.01,0.03-0.01,0.04,0c0.01,0.01,0.02,0.02,0.02,0.03c-0.03,0.51-0.19,1.3-0.73,2.15c-0.06,0.09-0.06,0.21,0,0.3
			c0.06,0.09,0.17,0.13,0.27,0.11c0.01,0,0.72-0.15,1.45-0.09c0.01,0,0.03,0.01,0.03,0.02c0,0.01,0,0.03-0.01,0.04
			c-0.62,0.49-1.85,1.32-3.18,1.32c-0.05,0-0.1,0-0.14,0c-0.02,0-0.03-0.02-0.03-0.03C10.91,18.13,11.06,16.48,13.23,14.91
			 M8.65,19.79c0.11-0.5,0.33-0.99,0.64-1.47c0.31-0.47,0.72-0.93,1.21-1.37c0.01-0.01,0.02-0.01,0.04-0.01
			c0.01,0.01,0.02,0.02,0.02,0.03c0.02,0.51-0.06,1.32-0.52,2.21c-0.05,0.1-0.04,0.21,0.03,0.3c0.07,0.08,0.18,0.11,0.29,0.08
			c0.01,0,0.69-0.23,1.41-0.26c0.01,0,0.03,0.01,0.03,0.02c0.01,0.01,0,0.03-0.01,0.04c-0.27,0.27-0.55,0.52-0.83,0.73
			c-0.57,0.44-1.42,0.96-2.23,0.96c-0.03,0-0.07,0-0.1,0c-0.02,0-0.03-0.01-0.03-0.03C8.56,20.86,8.51,20.39,8.65,19.79 M7.91,19.4
			L7.91,19.4c0.01-0.01,0.02-0.01,0.03-0.01c0.01,0,0.02,0.01,0.02,0.03c0.1,0.51,0.15,1.31-0.16,2.27c-0.04,0.11,0,0.23,0.09,0.3
			c0.09,0.07,0.22,0.07,0.31,0.01c0.01,0,0.62-0.43,1.41-0.49c0.01,0,0.03,0.01,0.03,0.02c0.01,0.01,0.01,0.03,0,0.04
			c-0.51,0.72-1.57,1.95-2.93,2.18h0c-0.02,0-0.03-0.01-0.03-0.02C6.48,23.1,6.2,21.46,7.91,19.4 M4.97,23.81
			c0.16-0.54,0.43-1.09,0.78-1.64c0.01-0.01,0.02-0.02,0.03-0.02c0.01,0,0.02,0.01,0.03,0.02c0.16,0.49,0.31,1.28,0.11,2.27
			c-0.02,0.12,0.03,0.23,0.14,0.29c0.1,0.06,0.23,0.04,0.31-0.05c0.01-0.01,0.58-0.57,1.38-0.68c0.01,0,0.02,0,0.03,0.01
			c0.01,0.01,0.01,0.02,0,0.04c-0.11,0.22-0.29,0.57-0.55,0.93c-0.6,0.83-1.33,1.38-2.15,1.62c0,0-0.01,0-0.01,0
			c-0.02,0-0.03-0.01-0.03-0.02C4.98,26.43,4.8,26,4.77,25.4C4.74,24.89,4.81,24.36,4.97,23.81 M3.39,26.86
			c0.08-0.56,0.26-1.14,0.53-1.74c0.01-0.01,0.02-0.02,0.03-0.02c0.01,0,0.02,0.01,0.03,0.02c0.23,0.46,0.5,1.22,0.45,2.23
			c0,0.11,0.05,0.21,0.15,0.25c0.1,0.05,0.21,0.03,0.29-0.04c0.03-0.02,0.63-0.54,1.32-0.84c0.01,0,0.03,0,0.04,0.01
			c0.01,0.01,0.01,0.02,0.01,0.03c-0.07,0.28-0.17,0.56-0.31,0.83c-0.43,0.87-1.1,1.55-2.01,2c0,0-0.01,0-0.02,0
			c-0.01,0-0.02-0.01-0.03-0.02c-0.12-0.18-0.33-0.57-0.45-1.13C3.32,27.96,3.31,27.42,3.39,26.86 M2.53,28.29
			c0-0.01,0.01-0.02,0.03-0.02c0.01,0,0.03,0,0.03,0.02c0.29,0.43,0.65,1.15,0.73,2.16c0.01,0.11,0.08,0.2,0.19,0.23
			c0.1,0.03,0.22,0,0.29-0.08c0-0.01,0.51-0.6,1.2-1c0.01-0.01,0.02-0.01,0.04,0c0.01,0.01,0.02,0.02,0.02,0.03
			c-0.03,0.3-0.1,0.6-0.19,0.89c-0.31,0.95-0.9,1.7-1.75,2.23c-0.01,0-0.01,0.01-0.02,0.01c-0.01,0-0.02,0-0.03-0.01
			c-0.11-0.13-0.4-0.5-0.6-1.07c-0.17-0.48-0.25-1.01-0.23-1.58C2.24,29.52,2.34,28.92,2.53,28.29 M1.56,31.6L1.56,31.6
			c0-0.01,0.01-0.02,0.02-0.03c0.01,0,0.03,0,0.03,0.01c0.34,0.39,0.79,1.07,0.99,2.05c0.02,0.11,0.1,0.19,0.21,0.21
			c0.1,0.02,0.21-0.02,0.27-0.11c0.05-0.07,0.47-0.67,1.04-1.12c0.01-0.01,0.02-0.01,0.04,0c0.01,0.01,0.02,0.02,0.02,0.03
			c-0.01,0.3-0.05,0.59-0.12,0.88c-0.22,0.97-0.69,1.77-1.39,2.41c-0.01,0.01-0.01,0.01-0.02,0.01c0,0-0.02,0-0.02-0.01
			c-0.16-0.15-0.46-0.47-0.72-0.98c-0.23-0.46-0.37-0.98-0.43-1.54C1.42,32.86,1.45,32.25,1.56,31.6 M1.07,34.92
			c0-0.01,0.01-0.02,0.02-0.03c0.01,0,0.03,0,0.04,0.01c0.36,0.38,0.84,1.03,1.08,2.01c0.03,0.11,0.12,0.19,0.23,0.2
			c0.11,0.01,0.22-0.05,0.27-0.15c0.01-0.03,0.33-0.67,0.88-1.16c0.01-0.01,0.02-0.01,0.04-0.01c0.01,0.01,0.02,0.02,0.02,0.03
			c0,0.34-0.03,0.68-0.08,1C3.39,37.83,3,38.64,2.38,39.21c-0.01,0.01-0.01,0.01-0.01,0.01c-0.02,0-0.02,0-0.03-0.01
			c-0.13-0.11-0.48-0.43-0.77-0.95c-0.25-0.45-0.42-0.96-0.5-1.52C0.98,36.18,0.98,35.57,1.07,34.92 M0.79,38.41L0.79,38.41
			c0-0.01,0.01-0.02,0.02-0.03c0.01-0.01,0.03,0,0.04,0.01c0.07,0.07,0.14,0.14,0.21,0.21c0.31,0.33,0.73,0.9,1,1.73
			c0.04,0.11,0.14,0.19,0.26,0.19c0.01,0,0.01,0,0.02,0c0.12-0.01,0.22-0.1,0.24-0.22c0-0.01,0.13-0.72,0.72-1.26
			c0.01-0.01,0.02-0.01,0.03-0.01c0.01,0,0.02,0.01,0.02,0.03c0.06,0.39,0.11,1,0,1.65c-0.13,0.78-0.46,1.42-0.97,1.92
			c-0.01,0.01-0.02,0.01-0.02,0.01c0,0-0.01,0-0.02-0.01C1.82,42.24,0.62,41.08,0.79,38.41 M0.66,41.78c0.01-0.01,0.03,0,0.04,0
			c0.08,0.06,0.16,0.12,0.23,0.19c0.34,0.3,0.82,0.82,1.17,1.61c0.04,0.1,0.14,0.16,0.24,0.16l0,0.01l0-0.01
			c0.11,0,0.2-0.07,0.24-0.17c0.01-0.03,0.32-0.76,0.8-1.34c0.01-0.01,0.02-0.01,0.03-0.01c0.01,0,0.02,0.01,0.02,0.03
			c0.15,0.72,0.26,2.13-0.8,3.56c-0.01,0.01-0.02,0.01-0.03,0.01c0,0-0.01,0-0.02,0c-0.55-0.32-1.85-1.36-1.97-4.01
			C0.64,41.8,0.65,41.79,0.66,41.78 M0.83,45.32L0.83,45.32c0-0.01,0-0.03,0.01-0.03c0.01-0.01,0.02-0.01,0.04,0
			c0.46,0.24,1.13,0.69,1.7,1.53c0.06,0.09,0.17,0.13,0.27,0.11c0.1-0.02,0.19-0.1,0.21-0.21l0,0c0.01-0.05,0.19-0.83,0.57-1.48
			c0.01-0.01,0.02-0.02,0.03-0.02h0c0.01,0,0.02,0.01,0.03,0.02c0.14,0.29,0.24,0.59,0.31,0.9c0.2,0.96,0.05,1.9-0.47,2.78
			c-0.01,0.01-0.02,0.02-0.03,0.02c0,0-0.01,0-0.01,0c-0.17-0.06-0.6-0.25-1.06-0.65c-0.38-0.34-0.71-0.76-0.98-1.27
			C1.18,46.53,0.97,45.96,0.83,45.32 M1.62,48.59L1.62,48.59c0-0.01,0-0.03,0.01-0.04c0.01-0.01,0.02-0.01,0.04-0.01
			c0.09,0.04,0.18,0.08,0.27,0.13c0.4,0.21,1,0.6,1.54,1.28c0.07,0.08,0.18,0.12,0.28,0.09c0.1-0.03,0.18-0.11,0.19-0.22
			c0.01-0.03,0.12-0.79,0.43-1.46c0.01-0.01,0.02-0.02,0.03-0.02c0.01,0,0.03,0.01,0.03,0.02c0.33,0.73,0.79,2.17,0.13,3.62
			C4.57,52,4.56,52.01,4.55,52.01c0,0-0.01,0-0.01,0C3.92,51.83,2.4,51.14,1.62,48.59 M3.59,53.44C3.23,53,2.92,52.48,2.66,51.88
			c-0.01-0.01,0-0.03,0.01-0.04c0.01-0.01,0.02-0.01,0.04-0.01c0.09,0.03,0.19,0.06,0.28,0.09c0.43,0.16,1.06,0.48,1.67,1.1
			c0.08,0.08,0.19,0.1,0.29,0.06c0.1-0.04,0.16-0.14,0.17-0.24c0-0.01,0.02-0.78,0.26-1.48c0-0.01,0.02-0.02,0.03-0.02
			c0.01,0,0.03,0.01,0.03,0.02c0.16,0.28,0.3,0.57,0.41,0.87c0.35,0.95,0.4,1.86,0.15,2.69c0,0.01-0.02,0.02-0.03,0.02l-0.01,0
			c-0.17-0.03-0.63-0.13-1.15-0.44C4.35,54.24,3.95,53.88,3.59,53.44 M4.06,54.99c-0.01-0.01-0.01-0.03,0-0.04
			c0.01-0.01,0.02-0.02,0.03-0.01c0.51,0.09,1.29,0.32,2.08,0.96c0.08,0.07,0.2,0.08,0.3,0.02c0.09-0.05,0.15-0.16,0.13-0.26
			c0-0.03-0.08-0.73,0.07-1.47c0-0.01,0.01-0.02,0.03-0.03c0.01,0,0.03,0,0.04,0.01c0.19,0.27,0.35,0.56,0.5,0.84
			c0.31,0.63,0.65,1.6,0.48,2.6c0,0.02-0.02,0.03-0.03,0.03c-0.22-0.01-0.67-0.07-1.2-0.3c-0.47-0.21-0.91-0.52-1.32-0.91
			C4.76,56.04,4.39,55.55,4.06,54.99 M7.05,59.23c-0.44-0.35-0.86-0.79-1.25-1.32c-0.01-0.01-0.01-0.02,0-0.04
			c0.01-0.01,0.02-0.02,0.03-0.02c0.52,0.03,1.31,0.19,2.17,0.74c0.09,0.06,0.21,0.06,0.3-0.01c0.09-0.06,0.13-0.18,0.1-0.28
			c0-0.01-0.17-0.71-0.09-1.45c0-0.01,0.01-0.02,0.02-0.03c0.01,0,0.03,0,0.04,0.01c0.54,0.65,1.43,1.95,1.34,3.32
			c0,0.02-0.02,0.03-0.03,0.03c-0.04,0-0.09,0-0.13,0c-0.24,0-0.63-0.03-1.09-0.18C7.98,59.84,7.5,59.58,7.05,59.23 M11.9,62.44
			c-0.07,0.01-0.23,0.04-0.44,0.04c-0.22,0-0.45-0.02-0.67-0.07c-0.94-0.19-1.91-0.75-2.88-1.66c-0.01-0.01-0.01-0.02-0.01-0.04
			c0-0.01,0.02-0.02,0.03-0.02c0.52-0.07,1.33-0.07,2.27,0.31c0.1,0.04,0.21,0.02,0.29-0.06s0.1-0.19,0.06-0.29
			c0-0.01-0.28-0.69-0.35-1.44c0-0.01,0.01-0.03,0.02-0.03c0.01-0.01,0.03,0,0.04,0c0.66,0.55,1.75,1.71,1.68,3.23
			C11.92,62.42,11.91,62.44,11.9,62.44 M18.32,65.25c-0.75-0.21-1.5-0.47-2.23-0.77c-1.25-0.53-2.46-1.21-3.61-2.02
			c0,0-0.01-0.01-0.01-0.01c0.02-0.45-0.04-0.91-0.19-1.36c0-0.01,0-0.01,0.01-0.02c0.01,0,0.01,0,0.02,0
			c0.89,0.73,1.66,1.31,2.51,1.78c0.98,0.55,2.02,0.99,3.08,1.31v0l0.26,0.08c-0.02,0.38,0.07,0.73,0.27,1.03L18.32,65.25z
			 M20.07,64.42c-0.14,0.37-0.11,0.75,0.08,1.14c0.01,0.02,0,0.03-0.01,0.05c-0.01,0.01-0.02,0.01-0.03,0.01c0,0-0.01,0-0.01,0
			c-0.47-0.16-0.82-0.38-1.03-0.63c-0.18-0.22-0.25-0.48-0.22-0.78c0.02-0.22,0.12-0.38,0.29-0.49c0.29-0.19,0.82-0.26,1.52-0.19
			c0.02,0,0.03,0.01,0.04,0.03c0,0.02,0,0.04-0.02,0.05C20.4,63.82,20.19,64.09,20.07,64.42 M22.21,67.81
			c-0.51,0-0.92-0.41-0.92-0.92c0-0.51,0.41-0.92,0.92-0.92c0.51,0,0.92,0.41,0.92,0.92C23.12,67.4,22.71,67.81,22.21,67.81
			 M23.33,65.67c-0.02,0.02-0.04,0.02-0.06,0c-0.3-0.26-0.67-0.41-1.07-0.41c-0.4,0-0.78,0.15-1.08,0.41
			c-0.01,0.01-0.02,0.01-0.03,0.01c-0.01,0-0.02,0-0.03-0.01c-0.24-0.25-0.49-0.64-0.35-1.02c0.3-0.82,1.44-0.83,1.48-0.83h0
			c0.08,0,0.35,0.01,0.64,0.11c0.43,0.14,0.71,0.38,0.83,0.72C23.81,65.04,23.57,65.42,23.33,65.67 M25.33,64.99
			c-0.21,0.25-0.55,0.47-1.03,0.63c0,0-0.01,0-0.01,0c-0.01,0-0.02-0.01-0.03-0.01c-0.01-0.01-0.01-0.03-0.01-0.05
			c0.19-0.39,0.21-0.77,0.08-1.14c-0.12-0.33-0.33-0.6-0.61-0.81c-0.01-0.01-0.02-0.03-0.02-0.05c0-0.02,0.02-0.03,0.04-0.03
			c0.49-0.05,1.15-0.05,1.52,0.19c0.17,0.11,0.27,0.27,0.29,0.49C25.59,64.51,25.51,64.76,25.33,64.99 M31.94,62.44
			c0,0,0,0.01-0.01,0.01c-0.26,0.2-1.22,0.93-2.67,1.64c-1.01,0.49-2.05,0.89-3.1,1.17l-0.21,0.05c0.21-0.31,0.31-0.67,0.29-1.06
			l0.31-0.09v0c1.04-0.32,2.06-0.76,3.03-1.3c0.92-0.51,1.76-1.17,2.53-1.81c0.01,0,0.01,0,0.02,0c0.01,0,0.01,0.01,0.01,0.02
			C31.99,61.52,31.92,61.98,31.94,62.44 M29.24,62.3c-0.98,0.55-2.01,0.99-3.05,1.3l-0.1,0.03c-0.1-0.2-0.25-0.36-0.45-0.49
			c-0.99-0.65-2.88-0.18-3.43-0.02c-0.01,0-0.02,0-0.02,0c-0.55-0.16-2.44-0.63-3.43,0.02c-0.19,0.13-0.34,0.29-0.45,0.49
			l-0.16-0.05c-1.02-0.31-2.02-0.74-2.99-1.28c-2.16-1.21-4.11-2.95-5.78-5.16c-0.58-0.77-1.12-1.59-1.62-2.45c0,0,0-0.01,0-0.01
			c0,0,0-0.01,0.01-0.01c1.15-0.51,4.1-1.84,6.64-3.16c0,0,0.01,0,0.01,0c0,0,0.01,0.01,0.01,0.01c0.01,0.11,0.04,0.22,0.09,0.32
			c0.21,0.49,0.76,0.67,1.18,0.74c0.13,0.02,0.26,0.03,0.4,0.04c0,0,0.01,0,0.01,0.01c0.16,0.4,0.51,0.7,1.02,0.86
			c0.17,0.05,0.36,0.09,0.55,0.12c0.01,0,0.01,0,0.01,0.01c0.09,0.23,0.23,0.41,0.43,0.55c0.49,0.34,1.19,0.28,1.56,0.22
			c0,0,0.01,0,0.01,0.01c0.22,0.27,0.5,0.44,0.82,0.51c0.32,0.06,0.68,0.02,1.06-0.12c0,0,0.01,0,0.01,0c0,0,0.01,0.01,0.01,0.01
			v4.48c0,0.32,0.26,0.58,0.58,0.58c0.32,0,0.58-0.26,0.58-0.58V54.6c0,0,0-0.01,0.01-0.01c0,0,0.01,0,0.01,0
			c0.61,0.12,1.1,0.01,1.4-0.11c0.27-0.11,0.48-0.25,0.6-0.35c0,0,0.01,0,0.01,0c0.58,0.1,1.09-0.05,1.48-0.45
			c0.12-0.12,0.22-0.26,0.31-0.42c0,0,0.01-0.01,0.01-0.01h0c0.04,0,0.08,0,0.12,0c0.73,0,1.17-0.32,1.41-0.6
			c0.12-0.14,0.22-0.29,0.29-0.46c0-0.01,0.01-0.01,0.01-0.01c0.48-0.02,0.88-0.17,1.17-0.46c0.13-0.13,0.24-0.28,0.32-0.45
			c0,0,0.01-0.01,0.01-0.01s0.01,0,0.01,0c2.05,1.59,5.29,3.02,6.59,3.55c0,0,0.01,0,0.01,0.01c0,0,0,0.01,0,0.01
			c-0.47,0.8-0.99,1.58-1.53,2.3C33.35,59.35,31.4,61.09,29.24,62.3 M36.52,60.75L36.52,60.75c-1.2,1.13-2.23,1.53-2.88,1.66
			c-0.23,0.05-0.45,0.07-0.67,0.07c-0.2,0-0.35-0.02-0.44-0.04c-0.02,0-0.03-0.02-0.03-0.03c-0.04-0.86,0.29-1.71,0.98-2.51
			c0.21-0.25,0.46-0.48,0.72-0.7c0.01-0.01,0.03-0.01,0.04,0c0.01,0.01,0.02,0.02,0.02,0.03c-0.08,0.72-0.36,1.41-0.36,1.42
			c-0.04,0.1-0.02,0.21,0.06,0.29c0.07,0.08,0.19,0.1,0.29,0.06c0.94-0.37,1.75-0.37,2.27-0.3c0.01,0,0.02,0.01,0.03,0.02
			C36.53,60.73,36.53,60.74,36.52,60.75 M38.64,57.91c-0.39,0.53-0.8,0.97-1.25,1.32c-0.45,0.35-0.92,0.61-1.41,0.77
			c-0.46,0.15-0.84,0.18-1.09,0.18c-0.05,0-0.09,0-0.13,0c-0.02,0-0.03-0.01-0.03-0.03c-0.06-0.83,0.19-1.69,0.74-2.56
			c0.17-0.27,0.37-0.53,0.59-0.78c0.01-0.01,0.02-0.01,0.04-0.01c0.01,0,0.02,0.02,0.02,0.03c0.07,0.71-0.06,1.4-0.08,1.48
			c-0.02,0.11,0.02,0.21,0.11,0.27c0.09,0.06,0.2,0.06,0.29,0.01c0.85-0.54,1.65-0.7,2.17-0.73c0.01,0,0.03,0.01,0.03,0.02
			C38.65,57.89,38.65,57.9,38.64,57.91 M40.38,54.99c-0.33,0.56-0.7,1.05-1.1,1.44c-0.41,0.4-0.85,0.71-1.32,0.91
			c-0.55,0.25-1.02,0.29-1.2,0.3c-0.02,0-0.03-0.01-0.04-0.03c-0.15-0.82,0.01-1.71,0.47-2.62c0.14-0.28,0.31-0.56,0.5-0.83
			c0.01-0.01,0.02-0.02,0.03-0.01c0.01,0,0.02,0.01,0.03,0.03c0.14,0.72,0.08,1.48,0.08,1.48c-0.01,0.11,0.04,0.21,0.14,0.26
			c0.09,0.05,0.21,0.04,0.29-0.03c0.79-0.63,1.56-0.87,2.08-0.95c0.01,0,0.03,0,0.03,0.01C40.39,54.96,40.39,54.98,40.38,54.99
			 M41.78,51.79L41.78,51.79c-0.26,0.62-0.58,1.16-0.94,1.61c-0.36,0.44-0.77,0.8-1.21,1.06c-0.5,0.29-0.93,0.4-1.15,0.44l-0.01,0
			c-0.02,0-0.03-0.01-0.03-0.02c-0.25-0.84-0.19-1.75,0.16-2.7c0.1-0.29,0.24-0.57,0.39-0.84c0.01-0.01,0.02-0.02,0.03-0.02
			c0.01,0,0.02,0.01,0.03,0.02c0.22,0.71,0.26,1.46,0.26,1.47c0,0.11,0.07,0.2,0.18,0.24c0.1,0.04,0.21,0.01,0.29-0.07c0,0,0,0,0,0
			c0.62-0.68,1.25-1,1.67-1.14c0.1-0.03,0.2-0.06,0.3-0.09c0.01,0,0.03,0,0.03,0.01C41.79,51.76,41.79,51.78,41.78,51.79
			 M42.79,48.58L42.79,48.58c-0.2,0.62-0.46,1.18-0.76,1.64c-0.31,0.48-0.68,0.87-1.09,1.17c-0.49,0.36-0.93,0.5-1.1,0.55
			c0,0-0.01,0-0.01,0c-0.02,0-0.03-0.01-0.03-0.02c-0.4-0.97-0.28-2.01-0.12-2.71c0.08-0.32,0.18-0.63,0.3-0.94
			c0.01-0.01,0.02-0.02,0.03-0.02s0.03,0.01,0.03,0.02c0.3,0.69,0.4,1.48,0.41,1.51c0.01,0.11,0.09,0.19,0.19,0.22
			c0.1,0.03,0.21-0.01,0.28-0.09c0.63-0.78,1.34-1.18,1.83-1.37c0.01-0.01,0.03,0,0.04,0.01C42.79,48.55,42.8,48.56,42.79,48.58
			 M42.9,46.91c-0.25,0.51-0.57,0.95-0.94,1.3c-0.42,0.4-0.82,0.6-1.02,0.68c-0.01,0-0.01,0-0.01,0c-0.02,0-0.03-0.01-0.03-0.02
			c-0.43-0.77-0.59-1.69-0.46-2.73c0.04-0.32,0.1-0.64,0.19-0.96c0-0.01,0.02-0.02,0.03-0.02c0.02,0,0.03,0.01,0.03,0.02
			c0.38,0.65,0.58,1.45,0.59,1.48c0.03,0.1,0.11,0.18,0.22,0.2c0.11,0.02,0.21-0.03,0.27-0.12c0.53-0.85,1.19-1.33,1.64-1.59
			c0.01-0.01,0.03-0.01,0.04,0c0.01,0.01,0.02,0.02,0.01,0.03C43.34,45.82,43.15,46.4,42.9,46.91"/>
	</g>
	<g id="XMLID_367_">
		<g id="XMLID_369_">
			<path id="XMLID_391_" class="st0" d="M72.78,41.58l-1.75-5.37c-0.06-0.18-0.23-0.31-0.43-0.31h-7.47c-0.19,0-0.37,0.12-0.43,0.31
				l-1.75,5.37c-0.06,0.18-0.23,0.31-0.43,0.31h-2.73c-0.31,0-0.52-0.3-0.42-0.59l6.7-19.91c0.06-0.18,0.23-0.31,0.42-0.31h4.78
				c0.19,0,0.36,0.12,0.42,0.31l6.7,19.91c0.1,0.29-0.12,0.59-0.42,0.59h-2.76C73.01,41.89,72.84,41.77,72.78,41.58z M64.39,32.89
				h4.94c0.3,0,0.52-0.3,0.43-0.59l-2.47-7.56c-0.13-0.41-0.72-0.41-0.85,0l-2.46,7.56C63.87,32.6,64.09,32.89,64.39,32.89z"/>
			<path id="XMLID_389_" class="st0" d="M79.14,26.55h2.2c0.22,0,0.41,0.16,0.44,0.39l0.23,1.61h0.2c0.45-0.72,1.04-1.27,1.78-1.63
				c0.74-0.37,1.54-0.55,2.42-0.55c0.27,0,0.55,0.02,0.83,0.05c0.23,0.02,0.4,0.22,0.4,0.45v2.44c0,0.26-0.22,0.47-0.48,0.44
				c-0.28-0.02-0.59-0.04-0.95-0.04c-0.73,0-1.45,0.15-2.16,0.45c-0.65,0.28-1.18,0.66-1.57,1.15c-0.06,0.08-0.1,0.18-0.1,0.29v9.84
				c0,0.25-0.2,0.45-0.45,0.45h-2.79c-0.25,0-0.45-0.2-0.45-0.45V27C78.69,26.75,78.89,26.55,79.14,26.55z"/>
			<path id="XMLID_385_" class="st0" d="M92.09,48.19c-0.73-0.09-1.43-0.22-2.08-0.39c-0.2-0.05-0.33-0.23-0.33-0.44v-1.99
				c0-0.29,0.28-0.5,0.56-0.43c1.43,0.37,2.8,0.55,4.09,0.55c1.05,0,1.9-0.13,2.56-0.4c0.66-0.27,1.14-0.7,1.46-1.29
				c0.31-0.59,0.47-1.37,0.47-2.33v-1.21h-0.18c-0.48,0.55-1.06,0.98-1.75,1.29c-0.69,0.31-1.46,0.46-2.33,0.46
				c-1.1,0-2.09-0.26-2.98-0.79c-0.89-0.53-1.6-1.35-2.14-2.47c-0.53-1.12-0.8-2.52-0.8-4.21c0-2.7,0.7-4.74,2.11-6.13
				c1.41-1.39,3.49-2.08,6.27-2.09c0.92,0,1.87,0.07,2.85,0.21c0.85,0.12,1.62,0.29,2.31,0.49c0.19,0.06,0.31,0.23,0.31,0.43v13.36
				c0,1.77-0.29,3.21-0.86,4.32c-0.58,1.11-1.44,1.93-2.61,2.45c-1.16,0.52-2.64,0.78-4.43,0.78C93.78,48.36,92.95,48.3,92.09,48.19
				z M97.5,38.69c0.46-0.18,0.86-0.45,1.19-0.79c0.08-0.08,0.12-0.2,0.12-0.32v-7.81c0-0.22-0.15-0.41-0.37-0.45
				c-0.59-0.11-1.17-0.16-1.74-0.16c-1.45,0-2.54,0.4-3.27,1.21c-0.73,0.81-1.09,2.09-1.09,3.85c0,1.75,0.3,2.99,0.91,3.7
				c0.61,0.72,1.48,1.08,2.61,1.08C96.44,38.99,96.98,38.89,97.5,38.69z"/>
			<path id="XMLID_382_" class="st0" d="M118.16,35.33h-8.56c-0.27,0-0.47,0.24-0.44,0.51c0.08,0.76,0.25,1.38,0.52,1.86
				c0.33,0.59,0.83,1.01,1.52,1.27c0.68,0.26,1.6,0.39,2.74,0.39c0.98,0,2.08-0.13,3.3-0.41c0.28-0.06,0.55,0.15,0.55,0.43v1.88
				c0,0.21-0.15,0.4-0.35,0.44c-1.35,0.31-2.69,0.46-4.01,0.46c-1.83,0-3.33-0.28-4.5-0.83c-1.18-0.55-2.05-1.41-2.64-2.58
				c-0.58-1.17-0.87-2.68-0.87-4.55c0-1.71,0.27-3.16,0.8-4.34c0.53-1.18,1.31-2.07,2.32-2.66s2.23-0.89,3.67-0.89
				c2.09,0,3.68,0.67,4.77,2.02c1.09,1.34,1.63,3.34,1.63,6v0.55C118.61,35.13,118.41,35.33,118.16,35.33z M109.92,29.73
				c-0.46,0.61-0.73,1.58-0.8,2.92c-0.01,0.25,0.2,0.47,0.45,0.47h5.13c0.25,0,0.46-0.21,0.45-0.47c-0.07-1.34-0.32-2.31-0.76-2.92
				c-0.49-0.67-1.23-1.01-2.2-1.01C111.19,28.72,110.44,29.06,109.92,29.73z"/>
			<path id="XMLID_380_" class="st0" d="M121.8,26.55h2.22c0.22,0,0.41,0.16,0.44,0.38l0.19,1.24h0.2c0.58-0.6,1.27-1.06,2.06-1.38
				c0.79-0.32,1.64-0.48,2.54-0.48c1.58,0,2.84,0.47,3.75,1.4c0.92,0.93,1.38,2.41,1.38,4.42v9.31c0,0.25-0.2,0.45-0.45,0.45h-2.79
				c-0.25,0-0.45-0.2-0.45-0.45v-9.1c0-1.02-0.22-1.75-0.65-2.19c-0.43-0.44-1.06-0.65-1.88-0.65c-0.62,0-1.23,0.13-1.83,0.39
				c-0.55,0.24-1.01,0.58-1.4,1.03c-0.07,0.08-0.11,0.19-0.11,0.3v10.22c0,0.25-0.2,0.45-0.45,0.45h-2.79
				c-0.25,0-0.45-0.2-0.45-0.45V27C121.35,26.75,121.55,26.55,121.8,26.55z"/>
			<path id="XMLID_378_" class="st0" d="M147.24,39.44v2.05c0,0.21-0.15,0.4-0.36,0.44c-0.77,0.15-1.54,0.23-2.3,0.23
				c-3.64,0-5.45-1.83-5.45-5.5v-6.74c0-0.25-0.2-0.45-0.45-0.45h-1.75c-0.25,0-0.45-0.2-0.45-0.45V27c0-0.25,0.2-0.45,0.45-0.45
				h1.8c0.23,0,0.42-0.17,0.44-0.4l0.55-4.68c0.03-0.23,0.22-0.4,0.44-0.4h2.19c0.25,0,0.45,0.2,0.45,0.45v4.57
				c0,0.25,0.2,0.45,0.45,0.45h3.39c0.25,0,0.45,0.2,0.45,0.45v2.04c0,0.25-0.2,0.45-0.45,0.45h-3.39c-0.25,0-0.45,0.2-0.45,0.45
				v6.14c0,0.75,0.1,1.34,0.29,1.79c0.19,0.44,0.48,0.76,0.88,0.95c0.39,0.19,0.91,0.29,1.56,0.29c0.33,0,0.73-0.04,1.19-0.11
				C147,38.96,147.24,39.17,147.24,39.44z"/>
			<path id="XMLID_375_" class="st0" d="M149.93,23.41c-0.39-0.34-0.58-0.84-0.58-1.48c0-0.65,0.19-1.14,0.58-1.49
				c0.39-0.35,0.97-0.52,1.75-0.52c0.78,0,1.36,0.17,1.75,0.52c0.39,0.35,0.58,0.84,0.58,1.49c0,0.65-0.19,1.14-0.58,1.48
				c-0.39,0.34-0.97,0.51-1.75,0.51C150.91,23.93,150.32,23.75,149.93,23.41z M149.83,41.44V27c0-0.25,0.2-0.45,0.45-0.45h2.8
				c0.25,0,0.45,0.2,0.45,0.45v14.44c0,0.25-0.2,0.45-0.45,0.45h-2.8C150.03,41.89,149.83,41.69,149.83,41.44z"/>
			<path id="XMLID_373_" class="st0" d="M156.99,26.55h2.22c0.22,0,0.41,0.16,0.44,0.38l0.19,1.24h0.2c0.58-0.6,1.27-1.06,2.06-1.38
				c0.79-0.32,1.64-0.48,2.54-0.48c1.58,0,2.84,0.47,3.75,1.4c0.92,0.93,1.38,2.41,1.38,4.42v9.31c0,0.25-0.2,0.45-0.45,0.45h-2.79
				c-0.25,0-0.45-0.2-0.45-0.45v-9.1c0-1.02-0.22-1.75-0.65-2.19s-1.06-0.65-1.88-0.65c-0.62,0-1.23,0.13-1.83,0.39
				c-0.55,0.24-1.01,0.58-1.4,1.03c-0.07,0.08-0.11,0.19-0.11,0.3v10.22c0,0.25-0.2,0.45-0.45,0.45h-2.79
				c-0.25,0-0.45-0.2-0.45-0.45V27C156.54,26.75,156.74,26.55,156.99,26.55z"/>
			<path id="XMLID_370_" class="st0" d="M182.18,26.9c0.97,0.39,1.68,1.03,2.16,1.92c0.47,0.89,0.71,2.1,0.71,3.63v9
				c0,0.25-0.2,0.45-0.45,0.45h-2.22c-0.22,0-0.41-0.16-0.44-0.38l-0.19-1.21h-0.2c-0.46,0.61-1.05,1.07-1.78,1.38
				c-0.73,0.31-1.53,0.47-2.41,0.47c-1,0-1.87-0.18-2.6-0.53c-0.73-0.36-1.29-0.86-1.68-1.51c-0.39-0.65-0.58-1.42-0.58-2.3
				c0-1.42,0.49-2.53,1.46-3.3c0.97-0.78,2.52-1.25,4.62-1.42l2.87-0.27v-0.6c0-0.78-0.12-1.39-0.37-1.83
				c-0.25-0.45-0.64-0.76-1.17-0.95c-0.53-0.19-1.24-0.28-2.13-0.28c-0.63,0-1.31,0.05-2.04,0.16c-0.53,0.08-1.04,0.18-1.54,0.32
				c-0.29,0.08-0.57-0.13-0.57-0.43v-1.89c0-0.2,0.13-0.38,0.32-0.43c0.61-0.17,1.28-0.3,2-0.4c0.86-0.11,1.67-0.17,2.44-0.17
				C179.96,26.32,181.22,26.51,182.18,26.9z M180.08,39.23c0.46-0.18,0.87-0.47,1.24-0.85c0.08-0.08,0.13-0.2,0.13-0.32v-2.59
				c0-0.26-0.23-0.47-0.49-0.45l-2.03,0.18c-0.97,0.09-1.67,0.33-2.12,0.7c-0.44,0.37-0.67,0.89-0.67,1.55c0,0.67,0.2,1.19,0.6,1.55
				c0.4,0.36,0.98,0.53,1.75,0.53C179.04,39.54,179.57,39.44,180.08,39.23z"/>
		</g>
		<g>
			<path class="st0" d="M57.37,52.14c1.09-0.21,2.15-0.32,3.2-0.32c1.62,0,2.83,0.32,3.63,0.97c0.8,0.64,1.2,1.64,1.2,3
				c0,1.31-0.4,2.3-1.2,2.96c-0.8,0.67-2,1-3.6,1c-0.26,0-0.66-0.02-1.22-0.05v3.45h-2.02V52.14z M62.76,57.64
				c0.45-0.38,0.67-0.99,0.67-1.83c0-0.85-0.22-1.47-0.65-1.86c-0.44-0.39-1.11-0.59-2.03-0.59c-0.47,0-0.92,0.04-1.36,0.11v4.67
				c0.34,0.05,0.76,0.08,1.24,0.08C61.61,58.22,62.32,58.02,62.76,57.64z"/>
			<path class="st0" d="M67.23,54.9h1.64l0.15,1.08h0.11c0.24-0.39,0.56-0.68,0.96-0.88c0.4-0.2,0.83-0.3,1.31-0.3
				c0.22,0,0.44,0.02,0.66,0.05v1.8c-0.2-0.04-0.45-0.05-0.77-0.05c-0.39,0-0.78,0.08-1.16,0.24c-0.38,0.16-0.68,0.39-0.9,0.69v5.63
				h-1.98V54.9z"/>
			<path class="st0" d="M79.94,59.62h-5.11c0.02,0.54,0.13,0.96,0.3,1.28c0.18,0.32,0.45,0.54,0.82,0.69
				c0.37,0.14,0.86,0.21,1.48,0.21c0.61,0,1.3-0.1,2.08-0.29v1.51c-0.79,0.2-1.58,0.3-2.35,0.3c-0.98,0-1.79-0.15-2.43-0.45
				c-0.63-0.3-1.11-0.76-1.42-1.39s-0.47-1.44-0.47-2.45c0-0.92,0.14-1.7,0.43-2.34c0.29-0.64,0.7-1.11,1.25-1.44
				c0.54-0.32,1.2-0.48,1.98-0.48c1.13,0,1.98,0.36,2.57,1.09c0.59,0.72,0.88,1.8,0.88,3.23V59.62z M75.26,56.61
				c-0.28,0.36-0.42,0.97-0.44,1.83h3.26c-0.02-0.85-0.16-1.46-0.42-1.83c-0.27-0.36-0.66-0.54-1.19-0.54
				C75.95,56.06,75.54,56.25,75.26,56.61z"/>
			<path class="st0" d="M81.41,62.96v-1.48c0.8,0.24,1.64,0.36,2.5,0.36c0.59,0,1.01-0.09,1.28-0.26c0.27-0.17,0.41-0.43,0.41-0.76
				c0-0.27-0.07-0.47-0.21-0.61c-0.14-0.14-0.38-0.25-0.73-0.32l-1.26-0.23c-0.76-0.15-1.32-0.42-1.67-0.8
				c-0.35-0.38-0.52-0.89-0.52-1.53c0-0.51,0.14-0.96,0.41-1.34c0.27-0.38,0.68-0.68,1.23-0.89s1.23-0.32,2.04-0.32
				c0.76,0,1.47,0.09,2.11,0.26v1.48c-0.65-0.18-1.34-0.27-2.06-0.27c-1.25,0-1.87,0.34-1.87,1.03c0,0.24,0.07,0.44,0.21,0.58
				c0.14,0.14,0.38,0.25,0.71,0.32l1.26,0.23c0.76,0.15,1.31,0.41,1.67,0.78c0.36,0.37,0.53,0.89,0.53,1.56
				c0,0.53-0.14,0.99-0.41,1.37c-0.27,0.38-0.67,0.68-1.2,0.89s-1.17,0.31-1.91,0.31C82.99,63.31,82.15,63.2,81.41,62.96z"/>
			<path class="st0" d="M89.17,53.21c-0.21-0.18-0.31-0.45-0.31-0.8c0-0.35,0.1-0.62,0.31-0.8c0.21-0.19,0.52-0.28,0.94-0.28
				c0.42,0,0.73,0.09,0.94,0.28c0.21,0.19,0.31,0.45,0.31,0.8c0,0.35-0.1,0.61-0.31,0.8c-0.21,0.18-0.52,0.28-0.94,0.28
				C89.69,53.48,89.38,53.39,89.17,53.21z M89.11,63.16V54.9h1.99v8.26H89.11z"/>
			<path class="st0" d="M94.56,62.88c-0.5-0.28-0.9-0.73-1.2-1.34c-0.3-0.61-0.44-1.39-0.44-2.34c0-1.45,0.37-2.56,1.12-3.31
				s1.83-1.13,3.26-1.13c0.34,0,0.71,0.03,1.11,0.08v-3.92h1.98v12.24h-1.67l-0.12-0.87h-0.11c-0.25,0.31-0.56,0.56-0.94,0.74
				c-0.38,0.18-0.81,0.27-1.28,0.27C95.63,63.3,95.06,63.16,94.56,62.88z M97.7,61.48c0.28-0.12,0.52-0.31,0.7-0.55v-4.52
				c-0.34-0.08-0.71-0.11-1.11-0.11c-0.8,0-1.4,0.22-1.79,0.65s-0.59,1.13-0.59,2.09c0,0.96,0.16,1.64,0.49,2.03
				c0.33,0.4,0.8,0.59,1.4,0.59C97.12,61.67,97.42,61.61,97.7,61.48z"/>
			<path class="st0" d="M109.31,59.62h-5.11c0.02,0.54,0.13,0.96,0.3,1.28c0.18,0.32,0.45,0.54,0.82,0.69
				c0.37,0.14,0.86,0.21,1.48,0.21c0.61,0,1.3-0.1,2.08-0.29v1.51c-0.79,0.2-1.58,0.3-2.35,0.3c-0.98,0-1.79-0.15-2.43-0.45
				c-0.63-0.3-1.11-0.76-1.42-1.39s-0.47-1.44-0.47-2.45c0-0.92,0.14-1.7,0.43-2.34c0.29-0.64,0.7-1.11,1.25-1.44
				c0.54-0.32,1.2-0.48,1.98-0.48c1.13,0,1.98,0.36,2.57,1.09c0.59,0.72,0.88,1.8,0.88,3.23V59.62z M104.63,56.61
				c-0.28,0.36-0.42,0.97-0.44,1.83h3.26c-0.02-0.85-0.16-1.46-0.42-1.83c-0.27-0.36-0.66-0.54-1.19-0.54
				C105.31,56.06,104.91,56.25,104.63,56.61z"/>
			<path class="st0" d="M111.03,54.9h1.64l0.14,0.87h0.11c0.31-0.32,0.68-0.57,1.11-0.74c0.43-0.17,0.88-0.26,1.37-0.26
				c0.85,0,1.53,0.25,2.02,0.75c0.49,0.5,0.74,1.3,0.74,2.38v5.26h-1.98v-5.14c0-0.55-0.12-0.94-0.35-1.18
				c-0.23-0.23-0.57-0.35-1.02-0.35c-0.33,0-0.66,0.07-0.98,0.21s-0.59,0.35-0.81,0.62v5.84h-1.98V54.9z"/>
			<path class="st0" d="M120.94,62.26c-0.69-0.7-1.04-1.78-1.04-3.21c0-1.45,0.37-2.52,1.11-3.22s1.81-1.05,3.23-1.05
				c0.64,0,1.24,0.07,1.79,0.2v1.59c-0.55-0.12-1.06-0.17-1.54-0.17c-0.59,0-1.07,0.09-1.45,0.27c-0.37,0.18-0.65,0.46-0.83,0.84
				c-0.18,0.39-0.27,0.9-0.27,1.53c0,0.95,0.19,1.64,0.57,2.06s0.97,0.62,1.75,0.62c0.26,0,0.53-0.02,0.81-0.07
				c0.28-0.05,0.6-0.12,0.96-0.22v1.59c-0.65,0.21-1.33,0.32-2.06,0.32C122.65,63.31,121.63,62.96,120.94,62.26z"/>
			<path class="st0" d="M127.75,53.21c-0.21-0.18-0.31-0.45-0.31-0.8c0-0.35,0.1-0.62,0.31-0.8c0.21-0.19,0.52-0.28,0.94-0.28
				c0.42,0,0.73,0.09,0.94,0.28c0.21,0.19,0.31,0.45,0.31,0.8c0,0.35-0.1,0.61-0.31,0.8c-0.21,0.18-0.52,0.28-0.94,0.28
				C128.28,53.48,127.96,53.39,127.75,53.21z M127.7,63.16V54.9h1.99v8.26H127.7z"/>
			<path class="st0" d="M136.68,55.08c0.52,0.21,0.91,0.55,1.16,1.03c0.25,0.48,0.38,1.13,0.38,1.95v5.09h-1.64l-0.14-0.86h-0.11
				c-0.25,0.33-0.57,0.58-0.96,0.75s-0.82,0.25-1.3,0.25c-0.54,0-1.01-0.1-1.4-0.29c-0.39-0.19-0.7-0.46-0.9-0.81
				c-0.21-0.35-0.31-0.76-0.31-1.24c0-0.77,0.26-1.36,0.79-1.78c0.52-0.42,1.36-0.67,2.49-0.77l1.54-0.14v-0.33
				c0-0.42-0.07-0.75-0.2-0.99c-0.13-0.24-0.34-0.41-0.63-0.51s-0.67-0.15-1.15-0.15c-0.34,0-0.7,0.03-1.1,0.09
				c-0.39,0.06-0.77,0.15-1.14,0.26v-1.52c0.37-0.12,0.79-0.2,1.25-0.27s0.9-0.09,1.31-0.09C135.49,54.77,136.16,54.87,136.68,55.08
				z M135.55,61.73c0.28-0.11,0.52-0.29,0.74-0.53v-1.76l-1.36,0.12c-0.52,0.05-0.9,0.18-1.14,0.38c-0.24,0.2-0.36,0.48-0.36,0.84
				c0,0.36,0.11,0.64,0.32,0.83c0.21,0.19,0.53,0.29,0.94,0.29C134.99,61.9,135.28,61.84,135.55,61.73z"/>
		</g>
	</g>
</g>
</svg>
