<?xml version="1.0" encoding="utf-8"?>
<!-- Generator: Adobe Illustrator 25.0.0, SVG Export Plug-In . SVG Version: 6.00 Build 0)  -->
<svg version="1.1" id="Capa_1" xmlns="http://www.w3.org/2000/svg" xmlns:xlink="http://www.w3.org/1999/xlink" x="0px" y="0px"
	 viewBox="0 0 553.66 118.3" style="enable-background:new 0 0 553.66 118.3;" xml:space="preserve">
<style type="text/css">
	.st0{fill:#46BAEB;}
	.st1{fill:#0094DA;}
	.st2{fill:none;}
	.st3{fill:#FFFFFF;}
	.st4{fill:#1D1D1B;}
</style>
<g id="XMLID_144_">
	<g id="XMLID_174_">
		<g id="XMLID_166_">
			<g id="XMLID_170_">
				<g>
					<g>
						<path class="st0" d="M254.12,75.35l-2.58-8.34h-11.59l-2.58,8.34h-6.71l10.09-31.25h10.05l10.09,31.25H254.12z M241.62,61.55
							h8.23l-4.12-13.32L241.62,61.55z"/>
						<path class="st0" d="M263.37,52.25h5.51l0.53,2.98h0.32c0.63-1.11,1.48-1.94,2.53-2.48c1.06-0.54,2.25-0.81,3.59-0.81
							c0.68,0,1.29,0.06,1.86,0.17v6.1c-0.62-0.13-1.38-0.19-2.28-0.19c-1.03,0-2.03,0.2-3.02,0.59c-0.99,0.39-1.75,0.94-2.28,1.62
							v15.12h-6.76V52.25z"/>
						<path class="st0" d="M280.68,84.12v-5.28c2.49,0.69,4.9,1.04,7.22,1.04c1.52,0,2.75-0.18,3.7-0.55
							c0.94-0.37,1.64-0.95,2.08-1.74c0.44-0.8,0.67-1.85,0.67-3.16v-1.54h-0.32c-0.68,0.83-1.52,1.47-2.54,1.93
							c-1.02,0.46-2.17,0.69-3.43,0.69c-1.65,0-3.15-0.41-4.51-1.22c-1.36-0.82-2.44-2.07-3.25-3.75c-0.81-1.68-1.21-3.77-1.21-6.26
							c0-4.03,1.1-7.09,3.29-9.21s5.48-3.17,9.84-3.17c1.52,0,3.08,0.11,4.67,0.33c1.59,0.22,3,0.53,4.22,0.94v20.02
							c0,2.77-0.46,5.04-1.38,6.79c-0.92,1.75-2.31,3.04-4.17,3.86s-4.23,1.24-7.12,1.24C285.64,85.07,283.06,84.75,280.68,84.12z
							 M292.65,69.66c0.66-0.23,1.22-0.58,1.69-1.05V57.3c-0.84-0.2-1.75-0.3-2.72-0.3c-1.91,0-3.35,0.53-4.31,1.59
							s-1.44,2.76-1.44,5.1c0,2.32,0.4,3.96,1.2,4.9c0.8,0.94,1.98,1.41,3.53,1.41C291.31,70.01,291.99,69.9,292.65,69.66z"/>
						<path class="st0" d="M325.64,65.77h-14.02c0.07,1.24,0.33,2.21,0.79,2.92c0.46,0.71,1.17,1.22,2.14,1.54
							c0.97,0.32,2.29,0.48,3.97,0.48c1.76,0,3.7-0.25,5.83-0.74v5.05c-2.25,0.52-4.51,0.78-6.78,0.78c-2.94,0-5.35-0.42-7.21-1.26
							c-1.87-0.84-3.25-2.14-4.15-3.9c-0.9-1.76-1.35-4.05-1.35-6.86c0-2.53,0.42-4.69,1.26-6.47c0.84-1.78,2.06-3.13,3.66-4.04
							c1.6-0.92,3.55-1.37,5.83-1.37c3.27,0,5.75,1.03,7.46,3.09c1.71,2.06,2.57,5.06,2.57,9.01V65.77z M312.63,57.47
							c-0.65,0.87-0.99,2.34-1.04,4.39h7.75c-0.04-2.07-0.37-3.54-0.99-4.4c-0.62-0.87-1.56-1.3-2.83-1.3
							C314.24,56.16,313.28,56.6,312.63,57.47z"/>
						<path class="st0" d="M329.56,52.25h5.55l0.46,2.34h0.32c0.84-0.87,1.84-1.54,3-2.01c1.15-0.46,2.41-0.7,3.78-0.7
							c2.43,0,4.36,0.73,5.76,2.2c1.41,1.46,2.11,3.76,2.11,6.88v14.38h-6.76V61.38c0-1.34-0.27-2.28-0.82-2.84
							s-1.36-0.83-2.43-0.83c-0.8,0-1.58,0.16-2.34,0.49c-0.76,0.32-1.39,0.8-1.88,1.42v15.75h-6.76V52.25z"/>
						<path class="st0" d="M369.72,69.95v5.34c-1.42,0.32-2.84,0.49-4.27,0.49c-2.84,0-5-0.7-6.47-2.11
							c-1.47-1.41-2.21-3.59-2.21-6.55v-9.54h-3.76v-5.32h3.76l1.22-8.15h5.53v8.15h6.06v5.32h-6.06v8.49
							c0,1.04,0.13,1.87,0.39,2.47c0.26,0.61,0.66,1.04,1.2,1.3c0.54,0.26,1.26,0.39,2.16,0.39
							C367.89,70.22,368.7,70.13,369.72,69.95z"/>
						<path class="st0" d="M373.7,47.99c-0.7-0.61-1.04-1.47-1.04-2.6c0-1.14,0.34-2.01,1.03-2.62s1.74-0.91,3.15-0.91
							c1.39,0,2.43,0.3,3.12,0.91c0.69,0.61,1.03,1.48,1.03,2.62c0,1.13-0.34,1.99-1.03,2.6c-0.69,0.61-1.73,0.91-3.12,0.91
							S374.4,48.6,373.7,47.99z M373.46,75.35v-23.1h6.76v23.1H373.46z"/>
						<path class="st0" d="M384.19,52.25h5.55l0.46,2.34h0.32c0.84-0.87,1.84-1.54,3-2.01c1.15-0.46,2.41-0.7,3.78-0.7
							c2.44,0,4.36,0.73,5.76,2.2c1.41,1.46,2.11,3.76,2.11,6.88v14.38h-6.76V61.38c0-1.34-0.27-2.28-0.82-2.84
							s-1.36-0.83-2.43-0.83c-0.8,0-1.58,0.16-2.34,0.49c-0.76,0.32-1.39,0.8-1.88,1.42v15.75h-6.76V52.25z"/>
						<path class="st0" d="M423.61,52.82c1.55,0.62,2.7,1.64,3.44,3.05c0.75,1.42,1.12,3.33,1.12,5.75v13.73h-5.57l-0.46-2.28h-0.32
							c-0.68,0.92-1.54,1.59-2.6,2.04s-2.23,0.67-3.53,0.67c-1.55,0-2.89-0.28-4.01-0.83c-1.13-0.56-1.99-1.34-2.59-2.34
							c-0.6-1.01-0.9-2.18-0.9-3.52c0-2.21,0.77-3.92,2.31-5.13c1.54-1.21,3.97-1.92,7.29-2.13l3.76-0.32v-0.3
							c0-1.07-0.17-1.91-0.52-2.51s-0.89-1.04-1.65-1.3c-0.75-0.26-1.78-0.39-3.09-0.39c-0.94,0-1.97,0.08-3.09,0.23
							c-1.12,0.16-2.18,0.39-3.18,0.7v-5.07c1.1-0.31,2.32-0.55,3.65-0.72c1.34-0.17,2.61-0.25,3.82-0.25
							C420.03,51.9,422.06,52.21,423.61,52.82z M419.85,70.74c0.63-0.23,1.2-0.6,1.71-1.11V65.3l-3.08,0.23
							c-1.27,0.1-2.19,0.39-2.77,0.88s-0.87,1.17-0.87,2.04c0,0.86,0.26,1.51,0.78,1.96c0.52,0.45,1.28,0.68,2.28,0.68
							C418.57,71.09,419.22,70.97,419.85,70.74z"/>
					</g>
				</g>
			</g>
			<g id="XMLID_167_">
				<g>
					<g>
						<path class="st0" d="M245.74,108.76v5.34c-1.42,0.32-2.84,0.49-4.27,0.49c-2.84,0-5-0.7-6.47-2.11
							c-1.47-1.41-2.21-3.59-2.21-6.54v-9.54h-3.76v-5.32h3.76l1.22-8.15h5.53v8.15h6.06v5.32h-6.06v8.49
							c0,1.04,0.13,1.87,0.39,2.47c0.26,0.61,0.66,1.04,1.2,1.3c0.54,0.26,1.26,0.39,2.16,0.39
							C243.9,109.03,244.71,108.94,245.74,108.76z"/>
						<path class="st0" d="M268.88,104.58h-14.02c0.07,1.24,0.33,2.21,0.79,2.92c0.46,0.71,1.17,1.22,2.14,1.54s2.29,0.47,3.97,0.47
							c1.76,0,3.7-0.25,5.83-0.74v5.05c-2.25,0.52-4.51,0.78-6.78,0.78c-2.94,0-5.35-0.42-7.21-1.26c-1.87-0.84-3.25-2.14-4.15-3.9
							s-1.35-4.05-1.35-6.86c0-2.53,0.42-4.69,1.26-6.47c0.84-1.78,2.06-3.13,3.66-4.04c1.6-0.92,3.55-1.37,5.83-1.37
							c3.27,0,5.75,1.03,7.46,3.09s2.57,5.06,2.57,9.01V104.58z M255.87,96.28c-0.65,0.87-0.99,2.34-1.03,4.39h7.75
							c-0.04-2.07-0.37-3.54-0.99-4.4c-0.62-0.87-1.56-1.3-2.83-1.3C257.48,94.97,256.52,95.41,255.87,96.28z"/>
						<path class="st0" d="M281.01,111.62c-2.05-1.99-3.07-4.98-3.07-8.96c0-4.01,1.09-7.01,3.26-8.98s5.32-2.97,9.45-2.97
							c1.91,0,3.64,0.18,5.17,0.53v5.34c-1.48-0.3-2.89-0.44-4.24-0.44c-1.56,0-2.83,0.22-3.81,0.65c-0.98,0.44-1.7,1.13-2.17,2.08
							c-0.46,0.95-0.7,2.19-0.7,3.73c0,2.32,0.5,4,1.5,5.03c1,1.03,2.53,1.54,4.6,1.54c0.72,0,1.45-0.06,2.2-0.18
							c0.75-0.12,1.62-0.31,2.62-0.58v5.34c-1.77,0.58-3.73,0.87-5.87,0.87C286.04,114.61,283.06,113.61,281.01,111.62z"/>
						<path class="st0" d="M301.49,112.38c-1.43-1.46-2.14-3.75-2.14-6.87V91.06h6.76v14c0,1.32,0.27,2.27,0.81,2.83
							c0.54,0.56,1.32,0.84,2.33,0.84c0.75,0,1.5-0.16,2.26-0.49c0.76-0.32,1.39-0.79,1.9-1.39V91.06h6.76v23.1h-5.57l-0.46-2.32
							h-0.28c-0.89,0.9-1.88,1.58-2.99,2.04c-1.11,0.46-2.28,0.69-3.54,0.69C304.87,114.57,302.92,113.84,301.49,112.38z"/>
						<path class="st0" d="M324.27,86.8c-0.7-0.6-1.04-1.47-1.04-2.6c0-1.14,0.34-2.01,1.04-2.62c0.69-0.61,1.74-0.91,3.15-0.91
							c1.39,0,2.44,0.3,3.12,0.91c0.69,0.6,1.04,1.48,1.04,2.62c0,1.13-0.35,1.99-1.04,2.6c-0.69,0.61-1.73,0.91-3.12,0.91
							S324.97,87.4,324.27,86.8z M324.03,114.16v-23.1h6.76v23.1H324.03z"/>
						<path class="st0" d="M339.21,113.36c-1.42-0.8-2.56-2.06-3.4-3.77c-0.84-1.71-1.27-3.88-1.27-6.49c0-4.04,1.07-7.12,3.22-9.24
							c2.15-2.12,5.27-3.18,9.36-3.18c0.96,0,1.85,0.06,2.68,0.17V80.04h6.76v34.12h-5.66l-0.42-2.41h-0.32
							c-0.67,0.87-1.54,1.56-2.59,2.06c-1.05,0.5-2.24,0.75-3.56,0.75C342.24,114.57,340.63,114.16,339.21,113.36z M348.12,108.66
							c0.68-0.26,1.24-0.65,1.69-1.17V96.07c-0.82-0.17-1.7-0.25-2.66-0.25c-1.97,0-3.43,0.53-4.38,1.59
							c-0.95,1.06-1.43,2.78-1.43,5.16s0.4,4.05,1.2,5.03c0.8,0.97,1.96,1.46,3.46,1.46C346.74,109.06,347.45,108.93,348.12,108.66z
							"/>
						<path class="st0" d="M375.19,91.64c1.55,0.62,2.7,1.64,3.44,3.05s1.12,3.33,1.12,5.75v13.72h-5.57l-0.46-2.28h-0.32
							c-0.68,0.92-1.54,1.59-2.6,2.04s-2.23,0.67-3.53,0.67c-1.55,0-2.89-0.28-4.01-0.83c-1.13-0.56-1.99-1.34-2.59-2.34
							c-0.6-1.01-0.9-2.18-0.9-3.52c0-2.21,0.77-3.92,2.31-5.13c1.54-1.21,3.97-1.92,7.29-2.13l3.76-0.32v-0.29
							c0-1.07-0.17-1.91-0.52-2.51c-0.34-0.61-0.89-1.04-1.65-1.3s-1.78-0.39-3.09-0.39c-0.94,0-1.97,0.08-3.09,0.23
							c-1.12,0.15-2.18,0.39-3.18,0.7v-5.07c1.1-0.31,2.32-0.55,3.65-0.72s2.61-0.25,3.82-0.25
							C371.61,90.71,373.64,91.02,375.19,91.64z M371.43,109.55c0.63-0.23,1.2-0.6,1.71-1.11v-4.33l-3.08,0.23
							c-1.27,0.1-2.19,0.39-2.77,0.88c-0.58,0.49-0.87,1.17-0.87,2.04c0,0.86,0.26,1.51,0.78,1.96s1.28,0.68,2.28,0.68
							C370.15,109.9,370.8,109.78,371.43,109.55z"/>
					</g>
				</g>
			</g>
		</g>
		<g id="XMLID_175_">
			<g id="XMLID_178_">
				<g id="XMLID_148_">
					<g id="XMLID_156_">
						<path id="XMLID_165_" class="st0" d="M89.27,30.55c2.26-6.29,6.01-11.77,10.88-16.09C89.54,5.45,75.81,0,60.81,0
							C27.22,0,0,27.22,0,60.81s27.22,60.81,60.81,60.81c23.29,0,43.52-13.1,53.73-32.34c-10.51-10.53-20.51-21.64-23.84-28.7
							C86.23,51.09,85.72,40.42,89.27,30.55z"/>
						<path id="XMLID_159_" class="st0" d="M212.29,30.55c-3.55-9.88-10.73-17.78-20.23-22.25c-5.28-2.49-10.91-3.75-16.72-3.75
							c-8.89,0-17.59,3.26-24.57,8.86c-6.98-5.6-15.68-8.86-24.57-8.86c-5.8,0-11.43,1.26-16.72,3.75
							c-3.44,1.62-6.57,3.71-9.34,6.16c13.26,11.15,21.84,27.76,21.46,46.34c-0.23,11.63-2.56,19.97-7.07,28.47
							c10.8,10.81,22.13,21.03,27.35,25.65c2.45,2.18,5.61,3.37,8.9,3.37c3.28,0,6.44-1.2,8.88-3.37
							c10.31-9.13,44.46-40.04,51.2-54.35C215.33,51.09,215.84,40.43,212.29,30.55z M144.03,97.33c0.01-0.01,0.02-0.02,0.03-0.02
							C144.05,97.31,144.04,97.32,144.03,97.33z M157.49,97.3c0,0,0.01,0.01,0.01,0.01C157.5,97.31,157.5,97.3,157.49,97.3z"/>
						<path id="XMLID_157_" class="st1" d="M100.15,14.46c-4.87,4.31-8.62,9.79-10.88,16.09c-3.55,9.88-3.04,20.54,1.43,30.03
							c3.32,7.06,13.32,18.17,23.84,28.7c4.51-8.49,7.45-18.55,7.45-28.84C121.99,41.86,113.27,25.61,100.15,14.46z"/>
					</g>
					<g id="XMLID_149_">
						<path id="XMLID_155_" class="st2" d="M51.99,39.49l0.1,38.06l7.96-0.01V37.66l-6.26,0.02C52.79,37.68,51.98,38.49,51.99,39.49
							z"/>
						<path id="XMLID_153_" class="st3" d="M54.74,95.49l-1.03,0c-2.18,0-4.14,1.64-4.24,3.82c-0.1,2.29,1.73,4.16,3.99,4.16
							l13.07-0.03c1.88,0,3.66-1.2,4.09-3.04c0.6-2.62-1.37-4.94-3.89-4.94l-1.33,0L65.4,88.9c0-0.02-0.02-0.04-0.04-0.04H54.81
							c-0.02,0-0.04,0.02-0.04,0.04l0.01,6.54C54.78,95.47,54.76,95.49,54.74,95.49z"/>
						<path id="XMLID_150_" class="st3" d="M70.76,77.55h-0.07l-0.1-38.58c-0.01-2.2-1.8-3.98-4-3.98l-1.33,0l0-1.33
							c-0.01-2.2-1.8-3.98-4-3.98l-0.02-11.14c0-0.73-0.6-1.33-1.33-1.33c-0.73,0-1.33,0.6-1.33,1.33l0.02,11.15
							c-2.2,0.01-3.98,1.8-3.98,4l0,1.33l-1.33,0c-2.2,0.01-3.98,1.8-3.98,4l0.1,38.53h-0.04c-2.21,0-4,1.79-4,4c0,2.21,1.79,4,4,4
							h4.94h0.44H65.4h0.44h4.93c2.21,0,4-1.79,4-4C74.76,79.33,72.97,77.55,70.76,77.55z M60.04,77.54l-7.96,0.01l-0.1-38.06
							c0-1,0.8-1.81,1.8-1.81l6.26-0.02V77.54z"/>
					</g>
				</g>
			</g>
			<path id="XMLID_147_" class="st3" d="M177.78,55.51c-3.59,5.37-15.06,16.57-27.14,27.59c0,0-0.01-0.01-0.01-0.01
				c0,0-0.01,0.01-0.01,0.01c-12.08-11.02-23.55-22.22-27.14-27.59c-1.66-2.16-2.66-4.86-2.66-7.81c0-5.11,2.98-9.51,7.27-11.53
				c0.86-0.52,1.97-0.92,3.43-1.14c11.45-1.73,19.1,8.19,19.1,8.19s0,0.01,0.01,0.01c0-0.01,0.01-0.01,0.01-0.01
				s7.65-9.93,19.1-8.19c1.45,0.22,2.56,0.62,3.42,1.14c4.29,2.02,7.27,6.41,7.27,11.53C180.44,50.65,179.44,53.35,177.78,55.51z"/>
		</g>
	</g>
	<g id="XMLID_140_">
		<g id="XMLID_142_">
			<g>
				<g>
					<path class="st4" d="M454.91,53.14c-0.91-0.88-1.36-2.21-1.36-3.98c0-1.78,0.48-3.11,1.45-3.99s2.36-1.32,4.19-1.32
						c0.85,0,1.61,0.08,2.29,0.23v2.37c-0.66-0.13-1.28-0.2-1.88-0.2c-0.69,0-1.26,0.1-1.69,0.29c-0.43,0.19-0.75,0.5-0.96,0.92
						c-0.21,0.42-0.31,0.97-0.31,1.65c0,1.03,0.22,1.77,0.67,2.23c0.44,0.46,1.12,0.68,2.04,0.68c0.32,0,0.64-0.03,0.97-0.08
						c0.33-0.05,0.72-0.14,1.16-0.26v2.37c-0.79,0.26-1.65,0.38-2.6,0.38C457.14,54.46,455.82,54.02,454.91,53.14z"/>
					<path class="st4" d="M469.91,44.27c0.69,0.28,1.2,0.73,1.53,1.35c0.33,0.63,0.5,1.48,0.5,2.55v6.09h-2.47l-0.21-1.01h-0.14
						c-0.3,0.41-0.68,0.71-1.15,0.9c-0.47,0.2-0.99,0.3-1.56,0.3c-0.69,0-1.28-0.12-1.78-0.37c-0.5-0.25-0.88-0.59-1.15-1.04
						s-0.4-0.97-0.4-1.56c0-0.98,0.34-1.74,1.03-2.28s1.76-0.85,3.24-0.95l1.67-0.14v-0.13c0-0.47-0.08-0.85-0.23-1.11
						c-0.15-0.27-0.4-0.46-0.73-0.58s-0.79-0.17-1.37-0.17c-0.42,0-0.88,0.04-1.37,0.1c-0.5,0.07-0.97,0.17-1.41,0.31v-2.25
						c0.49-0.14,1.03-0.24,1.62-0.32c0.59-0.07,1.16-0.11,1.7-0.11C468.32,43.86,469.22,44,469.91,44.27z M468.24,52.22
						c0.28-0.1,0.53-0.27,0.76-0.49v-1.92l-1.37,0.1c-0.56,0.04-0.97,0.17-1.23,0.39s-0.38,0.52-0.38,0.9
						c0,0.38,0.12,0.67,0.35,0.87c0.23,0.2,0.57,0.3,1.01,0.3C467.67,52.37,467.96,52.32,468.24,52.22z"/>
					<path class="st4" d="M487.93,44.83c0.61,0.65,0.92,1.67,0.92,3.06v6.37h-2.99v-6.21c0-0.58-0.12-1-0.35-1.25
						c-0.23-0.25-0.56-0.37-0.98-0.37c-0.3,0-0.59,0.06-0.87,0.17c-0.28,0.12-0.52,0.29-0.72,0.53c0.02,0.21,0.03,0.43,0.03,0.67
						v6.46h-2.93v-6.21c0-0.59-0.11-1-0.33-1.25c-0.22-0.25-0.54-0.37-0.96-0.37c-0.32,0-0.63,0.07-0.93,0.21
						c-0.3,0.14-0.55,0.36-0.74,0.64v6.98h-3V44.02h2.46l0.21,1.04h0.14c0.73-0.8,1.69-1.2,2.88-1.2c0.57,0,1.08,0.11,1.52,0.32
						c0.45,0.22,0.81,0.55,1.08,1.01c0.42-0.46,0.9-0.79,1.43-1.01c0.53-0.21,1.08-0.32,1.64-0.32
						C486.48,43.86,487.32,44.19,487.93,44.83z"/>
					<path class="st4" d="M490.99,44.02h2.51l0.19,1.09h0.14c0.3-0.39,0.68-0.69,1.15-0.91s0.99-0.33,1.58-0.33
						c0.79,0,1.5,0.18,2.14,0.53c0.63,0.35,1.13,0.91,1.51,1.67c0.37,0.76,0.56,1.72,0.56,2.89c0,1.79-0.48,3.16-1.43,4.1
						c-0.95,0.94-2.34,1.41-4.15,1.41c-0.33,0-0.73-0.03-1.19-0.08v4.01h-3V44.02z M497.11,51.47c0.42-0.47,0.63-1.23,0.63-2.29
						c0-1.06-0.18-1.81-0.53-2.23c-0.36-0.43-0.87-0.64-1.54-0.64c-0.32,0-0.64,0.06-0.94,0.17s-0.55,0.29-0.75,0.52v5.07
						c0.36,0.08,0.76,0.11,1.18,0.11C496.04,52.18,496.69,51.94,497.11,51.47z"/>
					<path class="st4" d="M508.83,44.27c0.69,0.28,1.2,0.73,1.53,1.35c0.33,0.63,0.5,1.48,0.5,2.55v6.09h-2.47l-0.21-1.01h-0.14
						c-0.3,0.41-0.68,0.71-1.15,0.9c-0.47,0.2-0.99,0.3-1.56,0.3c-0.69,0-1.28-0.12-1.78-0.37c-0.5-0.25-0.88-0.59-1.15-1.04
						c-0.27-0.45-0.4-0.97-0.4-1.56c0-0.98,0.34-1.74,1.03-2.28s1.76-0.85,3.24-0.95l1.67-0.14v-0.13c0-0.47-0.08-0.85-0.23-1.11
						s-0.4-0.46-0.73-0.58s-0.79-0.17-1.37-0.17c-0.42,0-0.88,0.04-1.37,0.1c-0.5,0.07-0.97,0.17-1.41,0.31v-2.25
						c0.49-0.14,1.03-0.24,1.62-0.32c0.59-0.07,1.16-0.11,1.7-0.11C507.24,43.86,508.15,44,508.83,44.27z M507.17,52.22
						c0.28-0.1,0.53-0.27,0.76-0.49v-1.92l-1.37,0.1c-0.56,0.04-0.97,0.17-1.23,0.39s-0.38,0.52-0.38,0.9
						c0,0.38,0.12,0.67,0.35,0.87c0.23,0.2,0.57,0.3,1.01,0.3C506.6,52.37,506.88,52.32,507.17,52.22z"/>
					<path class="st4" d="M513,44.02h2.46l0.21,1.04h0.14c0.38-0.39,0.82-0.68,1.33-0.89s1.07-0.31,1.68-0.31
						c1.08,0,1.93,0.33,2.56,0.97c0.62,0.65,0.94,1.67,0.94,3.05v6.38h-3v-6.2c0-0.59-0.12-1.01-0.37-1.26
						c-0.24-0.25-0.6-0.37-1.08-0.37c-0.36,0-0.7,0.07-1.04,0.21c-0.34,0.14-0.62,0.35-0.83,0.63v6.99h-3V44.02z M518.37,42.11
						c-0.25-0.08-0.54-0.19-0.88-0.34c-0.3-0.14-0.55-0.24-0.75-0.3c-0.2-0.07-0.4-0.1-0.61-0.1c-0.35,0-0.67,0.06-0.95,0.19
						c-0.28,0.12-0.56,0.33-0.85,0.61v-1.87c0.24-0.25,0.51-0.43,0.81-0.55c0.3-0.12,0.64-0.17,1.03-0.17
						c0.27,0,0.53,0.04,0.77,0.12c0.25,0.08,0.54,0.19,0.88,0.34c0.3,0.14,0.55,0.24,0.75,0.3c0.2,0.07,0.4,0.1,0.61,0.1
						c0.35,0,0.67-0.06,0.95-0.19c0.28-0.12,0.57-0.33,0.85-0.61v1.87c-0.24,0.25-0.51,0.43-0.81,0.55
						c-0.3,0.12-0.64,0.17-1.03,0.17C518.88,42.23,518.62,42.19,518.37,42.11z"/>
					<path class="st4" d="M530.77,44.27c0.69,0.28,1.2,0.73,1.53,1.35c0.33,0.63,0.5,1.48,0.5,2.55v6.09h-2.47l-0.21-1.01h-0.14
						c-0.3,0.41-0.68,0.71-1.15,0.9c-0.47,0.2-0.99,0.3-1.56,0.3c-0.69,0-1.28-0.12-1.78-0.37c-0.5-0.25-0.88-0.59-1.15-1.04
						s-0.4-0.97-0.4-1.56c0-0.98,0.34-1.74,1.03-2.28s1.76-0.85,3.24-0.95l1.67-0.14v-0.13c0-0.47-0.08-0.85-0.23-1.11
						c-0.15-0.27-0.4-0.46-0.73-0.58s-0.79-0.17-1.37-0.17c-0.42,0-0.88,0.04-1.37,0.1c-0.5,0.07-0.97,0.17-1.41,0.31v-2.25
						c0.49-0.14,1.03-0.24,1.62-0.32c0.59-0.07,1.16-0.11,1.7-0.11C529.18,43.86,530.08,44,530.77,44.27z M529.1,52.22
						c0.28-0.1,0.53-0.27,0.76-0.49v-1.92l-1.37,0.1c-0.56,0.04-0.97,0.17-1.23,0.39s-0.38,0.52-0.38,0.9
						c0,0.38,0.12,0.67,0.35,0.87c0.23,0.2,0.57,0.3,1.01,0.3C528.53,52.37,528.82,52.32,529.1,52.22z"/>
					<path class="st4" d="M454.01,63.54h2.46l0.21,1.04h0.14c0.37-0.39,0.82-0.68,1.33-0.89c0.51-0.21,1.07-0.31,1.68-0.31
						c1.08,0,1.93,0.32,2.56,0.97c0.62,0.65,0.94,1.67,0.94,3.05v6.38h-3v-6.2c0-0.59-0.12-1.01-0.37-1.26
						c-0.24-0.25-0.6-0.37-1.08-0.37c-0.36,0-0.7,0.07-1.04,0.22s-0.62,0.35-0.83,0.63v6.99h-3V63.54z"/>
					<path class="st4" d="M471.78,63.79c0.69,0.27,1.2,0.73,1.53,1.35c0.33,0.63,0.5,1.48,0.5,2.55v6.09h-2.47l-0.21-1.01h-0.14
						c-0.3,0.41-0.68,0.71-1.15,0.9c-0.47,0.2-0.99,0.29-1.56,0.29c-0.69,0-1.28-0.12-1.78-0.37c-0.5-0.25-0.88-0.59-1.15-1.04
						c-0.27-0.45-0.4-0.97-0.4-1.56c0-0.98,0.34-1.74,1.03-2.28s1.76-0.85,3.24-0.95l1.67-0.14v-0.13c0-0.47-0.08-0.85-0.23-1.11
						s-0.4-0.46-0.73-0.58c-0.33-0.12-0.79-0.17-1.37-0.17c-0.42,0-0.88,0.03-1.37,0.1c-0.5,0.07-0.97,0.17-1.41,0.31v-2.25
						c0.49-0.14,1.03-0.24,1.62-0.32c0.59-0.08,1.16-0.11,1.7-0.11C470.19,63.38,471.09,63.52,471.78,63.79z M470.11,71.74
						c0.28-0.1,0.53-0.27,0.76-0.49v-1.92l-1.37,0.1c-0.56,0.04-0.97,0.17-1.23,0.39c-0.26,0.21-0.38,0.52-0.38,0.9
						c0,0.38,0.12,0.67,0.35,0.87c0.23,0.2,0.57,0.3,1.01,0.3C469.55,71.89,469.83,71.84,470.11,71.74z"/>
					<path class="st4" d="M476.84,72.66c-0.91-0.88-1.36-2.21-1.36-3.98c0-1.78,0.48-3.11,1.45-3.99c0.96-0.88,2.36-1.32,4.19-1.32
						c0.85,0,1.61,0.08,2.29,0.23v2.37c-0.66-0.13-1.28-0.2-1.88-0.2c-0.69,0-1.26,0.1-1.69,0.29s-0.75,0.5-0.96,0.92
						c-0.21,0.42-0.31,0.97-0.31,1.65c0,1.03,0.22,1.77,0.67,2.23s1.12,0.68,2.04,0.68c0.32,0,0.64-0.03,0.97-0.08
						c0.33-0.05,0.72-0.14,1.16-0.26v2.37c-0.79,0.26-1.65,0.38-2.6,0.38C479.07,73.98,477.75,73.54,476.84,72.66z"/>
					<path class="st4" d="M485.63,61.65c-0.31-0.27-0.46-0.65-0.46-1.15c0-0.51,0.15-0.89,0.46-1.16s0.77-0.4,1.4-0.4
						c0.62,0,1.08,0.13,1.39,0.4c0.31,0.27,0.46,0.66,0.46,1.16c0,0.5-0.15,0.88-0.46,1.15c-0.31,0.27-0.77,0.4-1.39,0.4
						S485.94,61.91,485.63,61.65z M485.52,73.78V63.54h3v10.25H485.52z"/>
					<path class="st4" d="M492.61,73.39c-0.75-0.39-1.32-0.98-1.72-1.77c-0.4-0.79-0.6-1.77-0.6-2.93c0-1.76,0.43-3.09,1.3-3.98
						c0.87-0.89,2.1-1.33,3.7-1.33c1.59,0,2.82,0.45,3.7,1.34c0.87,0.89,1.31,2.21,1.31,3.95c0,1.17-0.2,2.15-0.6,2.94
						c-0.4,0.79-0.98,1.39-1.72,1.78c-0.75,0.39-1.64,0.59-2.67,0.59S493.35,73.78,492.61,73.39z M496.38,71.42
						c0.29-0.19,0.51-0.5,0.66-0.94c0.15-0.44,0.23-1.03,0.23-1.78c0-0.76-0.08-1.37-0.23-1.82c-0.15-0.45-0.37-0.77-0.67-0.96
						c-0.29-0.19-0.65-0.28-1.09-0.28c-0.44,0-0.8,0.09-1.09,0.28c-0.29,0.19-0.51,0.5-0.67,0.94c-0.15,0.44-0.23,1.04-0.23,1.79
						c0,0.76,0.08,1.37,0.23,1.81c0.15,0.45,0.37,0.76,0.66,0.95c0.29,0.19,0.65,0.28,1.1,0.28S496.09,71.61,496.38,71.42z"/>
					<path class="st4" d="M502.04,63.54h2.46l0.21,1.04h0.14c0.37-0.39,0.82-0.68,1.33-0.89c0.51-0.21,1.07-0.31,1.68-0.31
						c1.08,0,1.93,0.32,2.56,0.97c0.62,0.65,0.94,1.67,0.94,3.05v6.38h-3v-6.2c0-0.59-0.12-1.01-0.37-1.26
						c-0.24-0.25-0.6-0.37-1.08-0.37c-0.36,0-0.7,0.07-1.04,0.22s-0.62,0.35-0.83,0.63v6.99h-3V63.54z"/>
					<path class="st4" d="M519.81,63.79c0.69,0.27,1.2,0.73,1.53,1.35c0.33,0.63,0.5,1.48,0.5,2.55v6.09h-2.47l-0.21-1.01h-0.14
						c-0.3,0.41-0.68,0.71-1.15,0.9c-0.47,0.2-0.99,0.29-1.56,0.29c-0.69,0-1.28-0.12-1.78-0.37c-0.5-0.25-0.88-0.59-1.15-1.04
						c-0.27-0.45-0.4-0.97-0.4-1.56c0-0.98,0.34-1.74,1.03-2.28s1.76-0.85,3.24-0.95l1.67-0.14v-0.13c0-0.47-0.08-0.85-0.23-1.11
						s-0.4-0.46-0.73-0.58c-0.33-0.12-0.79-0.17-1.37-0.17c-0.42,0-0.88,0.03-1.37,0.1c-0.5,0.07-0.97,0.17-1.41,0.31v-2.25
						c0.49-0.14,1.03-0.24,1.62-0.32c0.59-0.08,1.16-0.11,1.7-0.11C518.22,63.38,519.12,63.52,519.81,63.79z M518.14,71.74
						c0.28-0.1,0.53-0.27,0.76-0.49v-1.92l-1.37,0.1c-0.56,0.04-0.97,0.17-1.23,0.39c-0.26,0.21-0.38,0.52-0.38,0.9
						c0,0.38,0.12,0.67,0.35,0.87c0.23,0.2,0.57,0.3,1.01,0.3C517.57,71.89,517.86,71.84,518.14,71.74z"/>
					<path class="st4" d="M523.98,73.78V58.65h3v15.14H523.98z"/>
					<path class="st4" d="M534.76,73.43c-0.63-0.36-1.13-0.91-1.51-1.67s-0.56-1.72-0.56-2.88c0-1.79,0.48-3.16,1.43-4.1
						c0.95-0.94,2.34-1.41,4.15-1.41c0.42,0,0.82,0.03,1.19,0.08v-4.8h3v15.14h-2.51l-0.19-1.07h-0.14
						c-0.3,0.39-0.68,0.69-1.15,0.91c-0.47,0.22-0.99,0.33-1.58,0.33C536.1,73.96,535.39,73.78,534.76,73.43z M538.71,71.34
						c0.3-0.12,0.55-0.29,0.75-0.52v-5.07c-0.36-0.08-0.76-0.11-1.18-0.11c-0.87,0-1.52,0.24-1.94,0.71
						c-0.42,0.47-0.63,1.23-0.63,2.29s0.18,1.8,0.53,2.23c0.36,0.43,0.87,0.65,1.54,0.65C538.1,71.52,538.41,71.46,538.71,71.34z"/>
					<path class="st4" d="M553.43,69.53h-6.22c0.03,0.55,0.15,0.98,0.35,1.3c0.2,0.32,0.52,0.54,0.95,0.68
						c0.43,0.14,1.02,0.21,1.76,0.21c0.78,0,1.64-0.11,2.58-0.33v2.24c-1,0.23-2,0.35-3.01,0.35c-1.3,0-2.37-0.19-3.2-0.56
						s-1.44-0.95-1.84-1.73c-0.4-0.78-0.6-1.79-0.6-3.04c0-1.12,0.19-2.08,0.56-2.87c0.37-0.79,0.91-1.39,1.62-1.79
						c0.71-0.41,1.57-0.61,2.58-0.61c1.45,0,2.55,0.46,3.31,1.37c0.76,0.92,1.14,2.25,1.14,3.99V69.53z M547.66,65.85
						c-0.29,0.39-0.44,1.04-0.46,1.95h3.44c-0.02-0.92-0.17-1.57-0.44-1.95s-0.69-0.58-1.25-0.58
						C548.38,65.27,547.95,65.46,547.66,65.85z"/>
					<path class="st4" d="M460.9,83.06h2.95l-3.62,10.25h-3.75l-3.6-10.25h3.13l2.44,7.53L460.9,83.06z"/>
					<path class="st4" d="M471.26,83.31c0.69,0.27,1.2,0.73,1.53,1.35c0.33,0.63,0.5,1.48,0.5,2.55v6.09h-2.47l-0.21-1.01h-0.14
						c-0.3,0.41-0.68,0.71-1.15,0.9c-0.47,0.2-0.99,0.29-1.56,0.29c-0.69,0-1.28-0.12-1.78-0.37c-0.5-0.25-0.88-0.59-1.15-1.04
						c-0.27-0.45-0.4-0.97-0.4-1.56c0-0.98,0.34-1.74,1.03-2.28s1.76-0.85,3.24-0.95l1.67-0.14v-0.13c0-0.47-0.08-0.85-0.23-1.11
						s-0.4-0.46-0.73-0.58c-0.33-0.12-0.79-0.17-1.37-0.17c-0.42,0-0.88,0.03-1.37,0.1c-0.5,0.07-0.97,0.17-1.41,0.31v-2.25
						c0.49-0.14,1.03-0.24,1.62-0.32c0.59-0.08,1.16-0.11,1.7-0.11C469.67,82.9,470.57,83.03,471.26,83.31z M469.59,91.26
						c0.28-0.1,0.53-0.27,0.76-0.49v-1.92l-1.37,0.1c-0.56,0.04-0.97,0.17-1.23,0.39c-0.26,0.21-0.38,0.52-0.38,0.9
						c0,0.38,0.12,0.67,0.35,0.87c0.23,0.2,0.57,0.3,1.01,0.3C469.02,91.41,469.31,91.36,469.59,91.26z"/>
					<path class="st4" d="M476.32,92.17c-0.91-0.88-1.36-2.21-1.36-3.98c0-1.78,0.48-3.11,1.45-3.99c0.96-0.88,2.36-1.32,4.19-1.32
						c0.85,0,1.61,0.08,2.29,0.23v2.37c-0.66-0.13-1.28-0.2-1.88-0.2c-0.69,0-1.26,0.1-1.69,0.29s-0.75,0.5-0.96,0.92
						c-0.21,0.42-0.31,0.97-0.31,1.65c0,1.03,0.22,1.77,0.67,2.23s1.12,0.68,2.04,0.68c0.32,0,0.64-0.03,0.97-0.08
						c0.33-0.05,0.72-0.14,1.16-0.26v2.37c-0.79,0.26-1.65,0.38-2.6,0.38C478.55,93.5,477.23,93.06,476.32,92.17z"/>
					<path class="st4" d="M485.78,92.51c-0.63-0.65-0.95-1.66-0.95-3.05v-6.41h3v6.21c0,0.59,0.12,1,0.36,1.25
						c0.24,0.25,0.58,0.37,1.03,0.37c0.33,0,0.67-0.07,1-0.21c0.34-0.14,0.62-0.35,0.84-0.62v-7.01h3V93.3h-2.47l-0.21-1.03h-0.12
						c-0.39,0.4-0.83,0.7-1.33,0.9c-0.49,0.2-1.01,0.3-1.57,0.3C487.28,93.48,486.41,93.16,485.78,92.51z"/>
					<path class="st4" d="M496.28,83.06h2.46l0.21,1.04h0.14c0.37-0.39,0.82-0.68,1.33-0.89c0.51-0.21,1.07-0.31,1.68-0.31
						c1.08,0,1.93,0.32,2.56,0.97c0.62,0.65,0.94,1.67,0.94,3.05v6.38h-3v-6.2c0-0.59-0.12-1.01-0.37-1.26
						c-0.24-0.25-0.6-0.37-1.08-0.37c-0.36,0-0.7,0.07-1.04,0.22s-0.62,0.35-0.83,0.63v6.99h-3V83.06z"/>
					<path class="st4" d="M514.05,83.31c0.69,0.27,1.2,0.73,1.53,1.35c0.33,0.63,0.5,1.48,0.5,2.55v6.09h-2.47l-0.21-1.01h-0.14
						c-0.3,0.41-0.68,0.71-1.15,0.9c-0.47,0.2-0.99,0.29-1.56,0.29c-0.69,0-1.28-0.12-1.78-0.37c-0.5-0.25-0.88-0.59-1.15-1.04
						c-0.27-0.45-0.4-0.97-0.4-1.56c0-0.98,0.34-1.74,1.03-2.28s1.76-0.85,3.24-0.95l1.67-0.14v-0.13c0-0.47-0.08-0.85-0.23-1.11
						s-0.4-0.46-0.73-0.58c-0.33-0.12-0.79-0.17-1.37-0.17c-0.42,0-0.88,0.03-1.37,0.1c-0.5,0.07-0.97,0.17-1.41,0.31v-2.25
						c0.49-0.14,1.03-0.24,1.62-0.32c0.59-0.08,1.16-0.11,1.7-0.11C512.46,82.9,513.36,83.03,514.05,83.31z M512.38,91.26
						c0.28-0.1,0.53-0.27,0.76-0.49v-1.92l-1.37,0.1c-0.56,0.04-0.97,0.17-1.23,0.39c-0.26,0.21-0.38,0.52-0.38,0.9
						c0,0.38,0.12,0.67,0.35,0.87c0.23,0.2,0.57,0.3,1.01,0.3C511.81,91.41,512.1,91.36,512.38,91.26z"/>
					<path class="st4" d="M519.11,92.17c-0.91-0.88-1.36-2.21-1.36-3.98c0-1.78,0.48-3.11,1.45-3.99c0.96-0.88,2.36-1.32,4.19-1.32
						c0.85,0,1.61,0.08,2.29,0.23v2.37c-0.66-0.13-1.28-0.2-1.88-0.2c-0.69,0-1.26,0.1-1.69,0.29s-0.75,0.5-0.96,0.92
						c-0.21,0.42-0.31,0.97-0.31,1.65c0,1.03,0.22,1.77,0.67,2.23s1.12,0.68,2.04,0.68c0.32,0,0.64-0.03,0.97-0.08
						c0.33-0.05,0.72-0.14,1.16-0.26v2.37c-0.79,0.26-1.65,0.38-2.6,0.38C521.34,93.5,520.02,93.06,519.11,92.17z"/>
					<path class="st4" d="M527.93,81.16c-0.31-0.27-0.46-0.65-0.46-1.15c0-0.51,0.15-0.89,0.46-1.16c0.31-0.27,0.77-0.4,1.4-0.4
						c0.62,0,1.08,0.13,1.39,0.4s0.46,0.66,0.46,1.16c0,0.5-0.15,0.88-0.46,1.15s-0.77,0.4-1.39,0.4S528.24,81.43,527.93,81.16z
						 M527.83,93.3V83.06h3V93.3H527.83z"/>
					<path class="st4" d="M534.91,92.91c-0.75-0.39-1.32-0.98-1.72-1.77c-0.4-0.79-0.6-1.77-0.6-2.93c0-1.76,0.43-3.09,1.3-3.98
						c0.87-0.89,2.1-1.33,3.7-1.33c1.59,0,2.82,0.45,3.69,1.34c0.87,0.89,1.31,2.21,1.31,3.95c0,1.17-0.2,2.15-0.6,2.94
						c-0.4,0.79-0.98,1.39-1.72,1.78c-0.75,0.39-1.64,0.59-2.67,0.59C536.55,93.5,535.66,93.3,534.91,92.91z M538.68,90.94
						c0.29-0.19,0.51-0.5,0.66-0.94c0.15-0.44,0.23-1.03,0.23-1.78c0-0.76-0.08-1.37-0.23-1.82c-0.15-0.45-0.38-0.77-0.67-0.96
						c-0.29-0.19-0.65-0.28-1.09-0.28c-0.44,0-0.8,0.09-1.09,0.28c-0.29,0.19-0.51,0.5-0.67,0.94c-0.15,0.44-0.23,1.04-0.23,1.79
						c0,0.76,0.08,1.37,0.23,1.81s0.37,0.76,0.66,0.95c0.29,0.19,0.65,0.28,1.1,0.28C538.03,91.22,538.39,91.13,538.68,90.94z
						 M536.21,81.75l2.11-3.59h3.18l-2.55,3.59H536.21z"/>
					<path class="st4" d="M544.35,83.06h2.46l0.21,1.04h0.14c0.38-0.39,0.82-0.68,1.33-0.89s1.07-0.31,1.68-0.31
						c1.08,0,1.93,0.32,2.56,0.97c0.62,0.65,0.94,1.67,0.94,3.05v6.38h-3v-6.2c0-0.59-0.12-1.01-0.37-1.26
						c-0.24-0.25-0.6-0.37-1.08-0.37c-0.36,0-0.7,0.07-1.04,0.22c-0.34,0.14-0.62,0.35-0.83,0.63v6.99h-3V83.06z"/>
					<path class="st4" d="M455.52,112.63c-1.23-1.15-1.85-2.93-1.85-5.36c0-2.36,0.63-4.14,1.9-5.34s3.1-1.8,5.5-1.8
						c1.07,0,2.06,0.11,2.97,0.33v2.51c-0.91-0.21-1.82-0.32-2.73-0.32c-1.01,0-1.84,0.16-2.49,0.47s-1.13,0.8-1.46,1.48
						c-0.32,0.67-0.48,1.55-0.48,2.64c0,1.11,0.16,2,0.48,2.68c0.32,0.67,0.79,1.16,1.42,1.47c0.63,0.3,1.44,0.46,2.43,0.46
						c0.89,0,1.83-0.15,2.84-0.44v2.52c-0.45,0.14-0.94,0.25-1.48,0.32c-0.54,0.08-1.08,0.12-1.63,0.12
						C458.55,114.34,456.75,113.77,455.52,112.63z"/>
					<path class="st4" d="M467.65,113.77c-0.75-0.39-1.32-0.98-1.72-1.77c-0.4-0.79-0.6-1.77-0.6-2.93c0-1.76,0.43-3.09,1.3-3.98
						c0.87-0.89,2.1-1.33,3.7-1.33c1.59,0,2.82,0.45,3.69,1.34c0.87,0.89,1.31,2.21,1.31,3.95c0,1.17-0.2,2.15-0.6,2.94
						c-0.4,0.79-0.98,1.39-1.72,1.78c-0.75,0.39-1.64,0.59-2.67,0.59C469.29,114.36,468.4,114.17,467.65,113.77z M471.43,111.81
						c0.29-0.19,0.51-0.5,0.66-0.94c0.15-0.44,0.23-1.03,0.23-1.78c0-0.76-0.08-1.37-0.23-1.82c-0.15-0.45-0.38-0.77-0.67-0.96
						c-0.29-0.19-0.65-0.28-1.09-0.28c-0.44,0-0.8,0.09-1.09,0.28c-0.29,0.19-0.51,0.5-0.67,0.94c-0.15,0.44-0.23,1.04-0.23,1.79
						c0,0.76,0.08,1.37,0.23,1.81s0.37,0.76,0.66,0.95c0.29,0.19,0.65,0.28,1.1,0.28C470.77,112.09,471.14,111.99,471.43,111.81z"/>
					<path class="st4" d="M483.74,103.92h2.95l-3.62,10.25h-3.75l-3.6-10.25h3.13l2.44,7.53L483.74,103.92z"/>
					<path class="st4" d="M487.89,102.03c-0.31-0.27-0.46-0.65-0.46-1.15c0-0.51,0.15-0.89,0.46-1.16c0.31-0.27,0.77-0.4,1.4-0.4
						c0.62,0,1.08,0.13,1.39,0.4s0.46,0.66,0.46,1.16c0,0.5-0.15,0.88-0.46,1.15s-0.77,0.4-1.39,0.4S488.2,102.3,487.89,102.03z
						 M487.79,114.17v-10.25h3v10.25H487.79z"/>
					<path class="st4" d="M494.62,113.81c-0.63-0.36-1.13-0.91-1.51-1.67c-0.37-0.76-0.56-1.72-0.56-2.88c0-1.79,0.48-3.16,1.43-4.1
						c0.95-0.94,2.34-1.41,4.15-1.41c0.42,0,0.82,0.03,1.19,0.08v-4.8h3v15.14h-2.51l-0.19-1.07h-0.14
						c-0.3,0.39-0.68,0.69-1.15,0.91c-0.46,0.22-0.99,0.33-1.58,0.33C495.96,114.34,495.25,114.17,494.62,113.81z M498.57,111.73
						c0.3-0.12,0.55-0.29,0.75-0.52v-5.07c-0.36-0.08-0.76-0.11-1.18-0.11c-0.88,0-1.52,0.24-1.94,0.71
						c-0.42,0.47-0.63,1.23-0.63,2.29s0.18,1.8,0.53,2.23c0.36,0.43,0.87,0.65,1.54,0.65C497.96,111.9,498.27,111.84,498.57,111.73z
						"/>
					<path class="st4" d="M504.9,110.07v-2.44h6.34v2.44H504.9z"/>
					<path class="st4" d="M517.2,100.26h1.98v13.91h-3.06v-10.29l-3.14,2.18v-2.86L517.2,100.26z"/>
					<path class="st4" d="M530.2,101.75c0.96,1.08,1.44,2.76,1.44,5.03c0,2.52-0.58,4.41-1.72,5.67c-1.15,1.26-2.81,1.89-4.98,1.89
						c-1.14,0-2.08-0.14-2.83-0.42v-2.33c0.79,0.29,1.68,0.43,2.68,0.43c1.27,0,2.23-0.34,2.87-1.02c0.64-0.68,0.98-1.72,1.02-3.14
						c-0.37,0.24-0.81,0.43-1.32,0.57c-0.5,0.14-1.02,0.21-1.54,0.21c-0.87,0-1.63-0.15-2.29-0.45s-1.18-0.76-1.56-1.39
						s-0.57-1.41-0.57-2.34c0-0.89,0.2-1.67,0.59-2.32c0.39-0.65,0.95-1.15,1.68-1.5s1.58-0.52,2.56-0.52
						C527.92,100.13,529.24,100.67,530.2,101.75z M524.75,105.94c0.4,0.34,0.95,0.51,1.66,0.51c0.4,0,0.79-0.06,1.18-0.17
						s0.75-0.28,1.06-0.51c-0.04-0.87-0.16-1.55-0.37-2.06s-0.48-0.87-0.83-1.08s-0.77-0.32-1.26-0.32c-0.62,0-1.12,0.17-1.49,0.52
						s-0.56,0.86-0.56,1.54C524.15,105.08,524.35,105.6,524.75,105.94z"/>
				</g>
			</g>
		</g>
	</g>
</g>
</svg>
