<?xml version="1.0" encoding="utf-8"?>
<!-- Generator: Adobe Illustrator 25.0.0, SVG Export Plug-In . SVG Version: 6.00 Build 0)  -->
<svg version="1.1" id="Capa_1" xmlns="http://www.w3.org/2000/svg" xmlns:xlink="http://www.w3.org/1999/xlink" x="0px" y="0px"
	 viewBox="0 0 15.407 24" style="enable-background:new 0 0 15.407 24;" xml:space="preserve">
<g id="XMLID_1_">
	<g id="XMLID_581_">
		<path id="XMLID_680_" d="M8.104,3.13V3.12V3.13c0.22-0.04,0.42-0.05,0.59-0.05c0.55,0,0.63,0.18,0.64,0.2c0,0,0.02,0.05,0.07,0.05
			c0.01,0,0.02,0,0.03,0c0.02,0,0.03-0.01,0.03-0.02c0.01-0.01,0.01-0.03,0-0.06c0,0-0.13-0.36-0.69-0.42c0,0-0.31-0.04-0.63,0.02
			c-0.09,0.02-0.11,0.22-0.12,0.22c0,0.02,0,0.04,0.01,0.05C8.054,3.14,8.094,3.13,8.104,3.13"/>
		<path id="XMLID_679_" d="M7.164,3.37L7.164,3.37c-0.13-0.06-0.43-0.05-0.43-0.05c-0.48,0.02-0.61,0.31-0.62,0.32
			c-0.01,0.03-0.02,0.06-0.01,0.07c0.01,0.02,0.04,0.02,0.04,0.02c0.1,0.02,0.13-0.05,0.13-0.05s0.03-0.09,0.24-0.14
			c0.01,0,0.01,0,0.01,0v0.01c-0.01,0.03-0.02,0.06-0.02,0.09c0,0.13,0.11,0.24,0.24,0.24s0.24-0.11,0.24-0.24
			c0-0.03-0.01-0.07-0.02-0.1V3.53h0.01c0.09,0.03,0.15,0.09,0.19,0.17c0.01,0.03,0.04,0.05,0.14,0.05c0.02,0,0.05,0,0.06-0.02
			c0.01-0.01,0-0.03,0-0.03C7.324,3.44,7.164,3.37,7.164,3.37"/>
		<path id="XMLID_678_" d="M8.084,3.75c0.1,0,0.13-0.02,0.14-0.05c0.04-0.08,0.1-0.14,0.19-0.17h0.01v0.01
			c-0.01,0.03-0.02,0.06-0.02,0.1c0,0.13,0.11,0.24,0.24,0.24s0.24-0.11,0.24-0.24c0-0.03-0.01-0.06-0.02-0.09V3.54h0.01
			c0.2,0.05,0.24,0.14,0.24,0.15c0,0.01,0.04,0.07,0.12,0.05c0.02,0,0.03-0.01,0.04-0.02c0.01-0.02,0.01-0.04-0.01-0.07
			c0,0-0.14-0.3-0.61-0.32c-0.03,0-0.31-0.01-0.43,0.05c0,0-0.16,0.08-0.22,0.33c0,0.01,0,0.02,0,0.03
			C8.034,3.74,8.064,3.75,8.084,3.75"/>
		<path id="XMLID_677_" d="M5.964,3.32L5.964,3.32L5.964,3.32c0.01,0,0.02,0,0.03,0c0.06,0,0.08-0.05,0.08-0.05
			c0.01-0.01,0.14-0.32,1.23-0.15c0,0,0.04,0.01,0.06-0.01c0.01-0.01,0.01-0.03,0.01-0.05c0-0.01-0.03-0.21-0.12-0.22
			c-0.12-0.02-0.24-0.03-0.38-0.03s-0.24,0.01-0.25,0.01c-0.57,0.06-0.69,0.41-0.69,0.41c-0.01,0.03-0.01,0.05,0,0.06
			C5.944,3.32,5.964,3.32,5.964,3.32"/>
		<path id="XMLID_601_" d="M15.134,15.14c0.01-0.04-0.01-0.08-0.04-0.11c-0.03-0.02-0.06-0.03-0.09-0.03
			c0.03-0.06,0.05-0.11,0.07-0.17c0.09-0.25,0.14-0.54,0.14-0.87c0-0.04-0.02-0.08-0.05-0.1c-0.03-0.02-0.06-0.02-0.09-0.02
			c0.02-0.06,0.04-0.11,0.05-0.17c0.07-0.26,0.09-0.56,0.06-0.88c0-0.04-0.03-0.08-0.06-0.1c-0.03-0.02-0.06-0.02-0.1-0.01
			c0.02-0.07,0.03-0.13,0.04-0.2c0.04-0.27,0.03-0.56-0.03-0.88c-0.01-0.04-0.04-0.07-0.07-0.09c-0.02-0.01-0.05-0.01-0.07-0.01
			c0.01-0.05,0.02-0.09,0.02-0.14c0.03-0.27,0.01-0.56-0.07-0.88c-0.01-0.04-0.04-0.07-0.08-0.09c-0.04-0.01-0.08-0.01-0.12,0.02
			c0,0,0,0-0.01,0.01c0.01-0.07,0.01-0.15,0.01-0.22c-0.01-0.27-0.07-0.56-0.19-0.86c-0.02-0.04-0.05-0.07-0.09-0.08
			c-0.04-0.01-0.07,0-0.1,0.02c0-0.07-0.01-0.14-0.02-0.21c-0.04-0.27-0.13-0.55-0.28-0.84c-0.02-0.04-0.05-0.06-0.1-0.07
			c-0.04,0-0.07,0.01-0.1,0.03c-0.01-0.06-0.02-0.13-0.04-0.19c-0.07-0.26-0.19-0.53-0.37-0.8c-0.02-0.03-0.06-0.05-0.1-0.05
			s-0.08,0.02-0.1,0.06c0,0,0,0,0,0.01c-0.02-0.07-0.05-0.15-0.08-0.22c-0.11-0.25-0.27-0.49-0.5-0.73
			c-0.03-0.03-0.07-0.05-0.12-0.04c-0.03,0.01-0.06,0.03-0.08,0.06c-0.03-0.07-0.07-0.14-0.12-0.21c-0.14-0.23-0.34-0.44-0.59-0.63
			c-0.03-0.03-0.08-0.03-0.11-0.02s-0.06,0.04-0.07,0.07c-0.15-0.21-0.37-0.37-0.64-0.48c0.03,0,0.07,0.01,0.1,0.01
			c0.36,0.02,0.61-0.05,0.62-0.06c0.08-0.03,0.14-0.11,0.13-0.2c-0.01-0.09-0.08-0.16-0.17-0.16c-0.38-0.02-0.52-0.1-0.7-0.2
			c-0.02-0.01-0.04-0.02-0.05-0.03l0.84-0.13c0.09-0.01,0.16-0.09,0.16-0.18s-0.07-0.17-0.16-0.18l-0.8-0.11
			c0.09-0.03,0.17-0.05,0.25-0.08c0.34-0.12,0.54-0.28,0.55-0.29c0.07-0.06,0.09-0.15,0.04-0.23c-0.04-0.08-0.14-0.11-0.22-0.08
			c-0.36,0.13-0.52,0.11-0.73,0.09c-0.02,0-0.04,0-0.06-0.01l0.73-0.44c0.08-0.05,0.11-0.14,0.07-0.23
			c-0.03-0.08-0.13-0.13-0.21-0.11l-0.79,0.2c0.07-0.06,0.14-0.12,0.21-0.17c0.27-0.24,0.39-0.47,0.4-0.48
			c0.04-0.08,0.02-0.18-0.05-0.23c-0.07-0.05-0.17-0.05-0.23,0.01c-0.28,0.26-0.44,0.3-0.64,0.36c-0.02,0.01-0.04,0.01-0.05,0.02
			l0.5-0.68c0.05-0.07,0.05-0.18-0.02-0.24c-0.06-0.06-0.17-0.07-0.24-0.02l-0.65,0.49c0.05-0.08,0.09-0.16,0.13-0.24
			c0.15-0.32,0.18-0.59,0.18-0.6c0.01-0.09-0.05-0.17-0.13-0.19c-0.09-0.02-0.18,0.02-0.21,0.1c-0.16,0.35-0.29,0.45-0.45,0.58
			c-0.01,0.01-0.03,0.02-0.04,0.03l0.21-0.82c0.02-0.09-0.02-0.18-0.11-0.21c-0.08-0.03-0.18,0-0.23,0.08l-0.42,0.7
			c0.01-0.1,0.02-0.19,0.02-0.28c0.02-0.36-0.06-0.61-0.06-0.62c-0.03-0.09-0.11-0.14-0.2-0.13c-0.09,0.01-0.15,0.08-0.16,0.17
			c-0.02,0.38-0.09,0.53-0.19,0.71c-0.01,0.02-0.02,0.03-0.03,0.05l-0.12-0.84c-0.01-0.09-0.09-0.16-0.18-0.16s-0.17,0.07-0.18,0.16
			l-0.11,0.8c-0.02-0.09-0.05-0.17-0.08-0.25c-0.12-0.34-0.28-0.54-0.29-0.55c-0.06-0.07-0.15-0.09-0.23-0.04
			c-0.08,0.04-0.11,0.14-0.08,0.22c0.13,0.36,0.11,0.52,0.09,0.73c0,0.02,0,0.04-0.01,0.06l-0.44-0.73
			c-0.05-0.08-0.14-0.11-0.23-0.07c-0.08,0.04-0.13,0.13-0.11,0.21l0.2,0.78c-0.06-0.07-0.11-0.14-0.17-0.2
			c-0.23-0.26-0.45-0.39-0.48-0.4c-0.08-0.04-0.17-0.02-0.23,0.05C5.284,0.83,5.284,0.93,5.344,1c0.26,0.28,0.3,0.44,0.36,0.64
			c0.01,0.02,0.01,0.04,0.02,0.06l-0.68-0.51c-0.07-0.05-0.17-0.05-0.24,0.02s-0.07,0.17-0.02,0.24l0.49,0.65
			c-0.08-0.05-0.16-0.09-0.24-0.12c-0.32-0.16-0.58-0.18-0.59-0.18c-0.09-0.01-0.17,0.05-0.19,0.13c-0.02,0.09,0.02,0.18,0.1,0.21
			c0.35,0.16,0.45,0.29,0.58,0.45c0.01,0.01,0.02,0.03,0.03,0.04l-0.82-0.21c-0.09-0.02-0.18,0.02-0.21,0.11
			c-0.03,0.08,0,0.18,0.08,0.23l0.7,0.42c-0.09-0.01-0.18-0.02-0.27-0.02c-0.36-0.02-0.61,0.06-0.62,0.06
			c-0.08,0.03-0.14,0.11-0.13,0.2c0.01,0.09,0.08,0.16,0.17,0.16c0.38,0.02,0.52,0.1,0.71,0.2c0.02,0.01,0.03,0.02,0.05,0.03
			l-0.84,0.12c-0.09,0.01-0.16,0.09-0.16,0.18s0.07,0.17,0.16,0.18l0.81,0.12c-0.09,0.03-0.18,0.05-0.26,0.08
			c-0.34,0.12-0.54,0.29-0.55,0.29c-0.07,0.06-0.09,0.15-0.04,0.23c0.04,0.08,0.14,0.11,0.22,0.08c0.18-0.07,0.32-0.1,0.45-0.11
			c-0.23,0.2-0.34,0.32-0.38,0.38c-0.04,0.05-0.07,0.1-0.11,0.15c-0.01-0.03-0.04-0.05-0.07-0.06c-0.04-0.01-0.08-0.01-0.11,0.02
			c-0.26,0.2-0.46,0.41-0.61,0.64c-0.04,0.07-0.08,0.14-0.12,0.21c-0.02-0.03-0.05-0.06-0.09-0.06c-0.04-0.01-0.08,0.01-0.11,0.04
			c-0.22,0.24-0.39,0.48-0.5,0.73c-0.03,0.07-0.06,0.14-0.08,0.21c-0.02-0.02-0.05-0.04-0.08-0.04c-0.04,0-0.08,0.02-0.1,0.05
			c-0.19,0.26-0.33,0.52-0.4,0.78c-0.02,0.07-0.04,0.14-0.05,0.21l0,0c-0.03-0.03-0.07-0.05-0.11-0.04c-0.04,0-0.08,0.03-0.1,0.07
			c-0.15,0.29-0.25,0.57-0.28,0.83c-0.01,0.07-0.02,0.14-0.02,0.21l0,0c-0.03-0.03-0.07-0.04-0.11-0.03
			c-0.04,0.01-0.07,0.04-0.09,0.08c-0.11,0.3-0.17,0.59-0.18,0.86c0,0.07,0,0.14,0.01,0.21c-0.03-0.02-0.07-0.03-0.11-0.01
			c-0.04,0.01-0.07,0.05-0.08,0.09c-0.07,0.31-0.1,0.61-0.07,0.88c0.01,0.05,0.01,0.1,0.02,0.16c-0.02,0-0.04,0-0.06,0.01
			c-0.04,0.02-0.07,0.05-0.07,0.09c-0.06,0.32-0.07,0.61-0.03,0.88c0.01,0.07,0.03,0.14,0.04,0.21c-0.02,0-0.04,0-0.06,0.01
			c-0.04,0.02-0.06,0.05-0.07,0.1c-0.04,0.32-0.03,0.62,0.03,0.88c0.01,0.06,0.03,0.12,0.05,0.18c-0.03-0.01-0.06,0-0.09,0.02
			c-0.04,0.02-0.06,0.06-0.06,0.1c-0.01,0.32,0.03,0.62,0.12,0.87c0.03,0.08,0.06,0.15,0.09,0.23c-0.02-0.01-0.03-0.01-0.03-0.01
			c-0.04-0.01-0.08,0-0.11,0.03s-0.05,0.07-0.04,0.11c0.05,0.32,0.14,0.6,0.27,0.84c0.03,0.05,0.05,0.09,0.08,0.14
			c-0.02,0.01-0.05,0.02-0.06,0.04c-0.03,0.03-0.04,0.07-0.03,0.11c0.07,0.31,0.19,0.59,0.33,0.82c0.04,0.06,0.08,0.11,0.12,0.16
			c-0.04,0-0.07,0.02-0.09,0.05s-0.03,0.08-0.02,0.12c0.11,0.3,0.25,0.56,0.42,0.77c0.04,0.05,0.08,0.09,0.12,0.14
			c-0.03,0.01-0.06,0.03-0.08,0.06c-0.02,0.04-0.02,0.08,0,0.12c0.14,0.29,0.32,0.53,0.51,0.72c0.04,0.04,0.09,0.08,0.13,0.12
			c-0.03,0.01-0.06,0.03-0.07,0.07c-0.02,0.04-0.01,0.08,0.01,0.12c0.17,0.27,0.37,0.49,0.58,0.66c0.07,0.05,0.14,0.1,0.21,0.14
			c-0.02,0.01-0.04,0.01-0.04,0.01c-0.04,0.01-0.07,0.05-0.08,0.09c-0.01,0.04,0,0.08,0.03,0.11c0.22,0.23,0.45,0.42,0.68,0.55
			c0.19,0.11,0.38,0.18,0.56,0.21c0.15,0.03,0.31,0.03,0.44,0.01c0.41,0.29,0.83,0.53,1.28,0.72c0.36,0.15,0.74,0.27,1.11,0.35
			c0.05,0.01,0.11,0.02,0.16,0.03l0.13,0.02c0.08,0.03,0.16,0.04,0.21,0.06c-0.01,0.04-0.01,0.08-0.01,0.12s0.01,0.09,0.01,0.13
			c-0.13,0.13-0.6,0.54-1.26,0.62h-0.04l0.02,0.03c0.03,0.04,0.08,0.13,0.18,0.22l0.01,0.01h0.01c0.59-0.11,1.01-0.43,1.22-0.62
			c0.02,0.02,0.03,0.03,0.05,0.05c-0.05,0.17-0.22,0.57-0.91,0.76l-0.07,0.02l0.07,0.03c0.12,0.05,0.26,0.09,0.4,0.11h0.01h0.01
			c0.51-0.23,0.69-0.59,0.76-0.79c0.07,0.01,0.13,0.01,0.2,0c0.06,0.2,0.25,0.56,0.76,0.79h0.01h0.01c0.14-0.02,0.28-0.06,0.4-0.11
			l0.07-0.03l-0.07-0.02c-0.68-0.19-0.86-0.58-0.91-0.75c0.02-0.02,0.04-0.03,0.05-0.05c0.2,0.19,0.62,0.51,1.21,0.62h0.01
			l0.01-0.01c0.1-0.09,0.16-0.17,0.18-0.22l0.02-0.03h-0.04c-0.64-0.08-1.09-0.46-1.26-0.62c0.01-0.04,0.02-0.09,0.02-0.13
			s0-0.08-0.01-0.12c0.07-0.01,0.13-0.03,0.19-0.05l0.14-0.02c0.18-0.03,0.35-0.07,0.51-0.11c0.37-0.1,0.74-0.24,1.1-0.41
			c0.5-0.25,0.84-0.5,0.94-0.58c0.13,0.02,0.29,0.02,0.44-0.01c0.18-0.03,0.37-0.11,0.56-0.21c0.23-0.13,0.46-0.31,0.68-0.55
			c0.03-0.03,0.04-0.07,0.03-0.11c-0.01-0.04-0.04-0.07-0.08-0.09c0,0-0.01,0-0.03-0.01c0.07-0.04,0.14-0.09,0.21-0.14
			c0.21-0.17,0.41-0.39,0.58-0.66c0.02-0.04,0.03-0.08,0.01-0.12c-0.01-0.03-0.04-0.05-0.07-0.07c0.05-0.04,0.09-0.08,0.13-0.12
			c0.19-0.19,0.37-0.43,0.51-0.72c0.02-0.04,0.02-0.08,0-0.12s-0.06-0.06-0.1-0.06c0.05-0.05,0.09-0.1,0.14-0.15
			c0.17-0.21,0.31-0.47,0.42-0.77c0.01-0.04,0.01-0.08-0.01-0.11c-0.02-0.03-0.06-0.05-0.1-0.05h-0.01l0,0
			c0.04-0.05,0.08-0.1,0.11-0.15c0.15-0.22,0.27-0.5,0.34-0.81c0.01-0.04,0-0.08-0.03-0.11s-0.07-0.04-0.11-0.04
			c0.04-0.06,0.07-0.12,0.1-0.18C15.014,15.74,15.094,15.46,15.134,15.14 M14.994,14.13L14.994,14.13l0.01,0.01
			c-0.02,0.22-0.06,0.42-0.12,0.6s-0.15,0.34-0.27,0.47c-0.13,0.16-0.27,0.24-0.32,0.27c0,0,0,0-0.01,0h-0.01
			c-0.18-0.24-0.26-0.54-0.26-0.88c0-0.11,0.01-0.22,0.03-0.33c0,0,0-0.01,0.01-0.01h0.01c0.16,0.19,0.24,0.44,0.25,0.45
			c0.01,0.04,0.04,0.06,0.08,0.06c0,0,0,0,0.01,0c0.03,0,0.07-0.02,0.08-0.05c0.15-0.31,0.35-0.49,0.49-0.59
			C14.984,14.13,14.994,14.13,14.994,14.13 M14.964,12.98h0.01l0.01,0.01c0.01,0.22-0.01,0.43-0.06,0.61
			c-0.05,0.19-0.12,0.35-0.22,0.49c-0.11,0.17-0.24,0.26-0.29,0.3c0,0,0,0-0.01,0h-0.01c-0.31-0.35-0.34-0.88-0.33-1.16
			c0,0,0-0.01,0.01-0.01h0.01c0.17,0.18,0.28,0.4,0.28,0.41c0.02,0.03,0.05,0.05,0.09,0.05s0.07-0.03,0.08-0.06
			C14.654,13.3,14.834,13.1,14.964,12.98 M14.844,11.81L14.844,11.81h0.01c0,0,0.01,0,0.01,0.01c0.03,0.22,0.03,0.43,0,0.61
			c-0.03,0.19-0.09,0.36-0.17,0.51c-0.1,0.18-0.22,0.29-0.27,0.33c0,0,0,0-0.01,0h-0.01c-0.31-0.26-0.4-0.81-0.43-1.12
			c0,0,0-0.01,0.01-0.01h0.01c0.18,0.17,0.31,0.37,0.31,0.37c0.02,0.03,0.05,0.05,0.09,0.04c0.04-0.01,0.06-0.03,0.07-0.07
			C14.554,12.16,14.724,11.94,14.844,11.81 M14.654,10.71L14.654,10.71h0.01c0,0,0.01,0,0.01,0.01c0.04,0.22,0.05,0.42,0.03,0.61
			c-0.02,0.19-0.07,0.37-0.15,0.52c-0.09,0.18-0.2,0.29-0.25,0.33c0,0,0,0-0.01,0s-0.01,0-0.01,0c-0.26-0.22-0.38-0.54-0.44-0.78
			c-0.03-0.1-0.04-0.21-0.06-0.33c0,0,0-0.01,0.01-0.01h0.01c0.19,0.16,0.34,0.36,0.34,0.37c0.02,0.03,0.06,0.04,0.09,0.04
			c0.04-0.01,0.06-0.03,0.07-0.07C14.394,11.07,14.544,10.84,14.654,10.71 M8.684,16.74c0.01,0.03,0.04,0.06,0.07,0.08
			c0.38,0.19,0.69,0.57,0.81,0.73l0,0c-0.01,0.03-0.03,0.06-0.05,0.09c-0.06,0.07-0.15,0.11-0.27,0.11c-0.01,0-0.01,0-0.02,0l0,0
			c-0.04-0.09-0.11-0.19-0.21-0.31c-0.13-0.16-0.41-0.35-0.42-0.35c-0.06-0.04-0.15-0.03-0.19,0.03s-0.03,0.15,0.03,0.19
			c0.07,0.05,0.27,0.2,0.37,0.31c0.11,0.13,0.16,0.21,0.17,0.25l0,0c-0.01,0.03-0.04,0.07-0.08,0.11c-0.06,0.06-0.14,0.09-0.24,0.07
			l0,0c-0.04-0.09-0.13-0.26-0.29-0.44c-0.05-0.06-0.14-0.06-0.19-0.01c-0.03,0.02-0.04,0.06-0.05,0.1c0,0.04,0.01,0.07,0.03,0.1
			c0.12,0.13,0.19,0.26,0.23,0.34c0,0,0,0,0,0.01c-0.03,0.02-0.06,0.04-0.1,0.05c-0.09,0.04-0.19,0.05-0.29,0.03l0,0l0,0
			c0.05-0.07,0.07-0.14,0.08-0.2c0.01-0.08-0.01-0.21-0.14-0.33c-0.07-0.07-0.2-0.13-0.38-0.09l0,0l0,0
			c-0.01-0.1-0.06-0.19-0.15-0.27c-0.14-0.12-0.3-0.15-0.48-0.1h-0.01l0,0h-0.01c-0.02-0.07-0.08-0.17-0.24-0.25
			c-0.13-0.06-0.27-0.07-0.42-0.03l0,0c-0.13-0.11-0.29-0.13-0.34-0.14c-0.2-0.03-0.47,0.07-0.65,0.24l0,0
			c-0.91,0.49-2.1,1.02-2.56,1.23l0,0l0,0c-0.25-0.47-0.47-0.99-0.64-1.52c-0.05-0.15-0.09-0.31-0.14-0.46l0,0l0,0
			c1.34-0.15,2.42-0.31,3.2-0.47c0.82-0.16,1.34-0.33,1.61-0.51l0,0c0.32-0.22,0.53-0.33,0.84-0.31c0.1,0.01,0.18,0.02,0.26,0.03
			l0,0c0,0,0,0,0,0.01c-0.08,0.03-0.15,0.06-0.22,0.11c-0.12,0.09-0.2,0.15-0.27,0.21c-0.07,0.06-0.12,0.1-0.21,0.16
			c-0.06,0.04-0.14,0.08-0.22,0.12c-0.18,0.09-0.32,0.16-0.37,0.28h-0.01l0,0c-0.05,0.13-0.03,0.24,0.06,0.37
			c0.14,0.19,0.36,0.18,0.54,0.17c0.2-0.01,0.45-0.09,0.64-0.19c0.07-0.04,0.12-0.08,0.18-0.11c0.08-0.05,0.15-0.1,0.2-0.11h0.01
			c0.16-0.05,0.35-0.03,0.57,0.06c0.19,0.08,0.38,0.19,0.56,0.31c0.42,0.28,0.74,0.65,0.82,0.76l0,0c-0.01,0.05-0.03,0.12-0.08,0.17
			c-0.05,0.05-0.13,0.07-0.23,0.08l0,0c-0.13-0.17-0.47-0.6-0.91-0.82c-0.07-0.03-0.15,0-0.18,0.06
			C8.674,16.67,8.664,16.7,8.684,16.74 M7.644,18.16C7.634,18.16,7.634,18.16,7.644,18.16l-0.01,0.01
			c-0.06,0.04-0.24,0.16-0.38,0.16c-0.02,0-0.03,0-0.05,0c-0.03-0.01-0.07-0.02-0.11-0.07c0,0,0,0,0-0.01
			c0.07-0.15,0.23-0.26,0.37-0.34c0.19-0.11,0.27-0.05,0.28-0.04c0.06,0.06,0.06,0.1,0.06,0.11C7.784,18.04,7.684,18.13,7.644,18.16
			L7.644,18.16L7.644,18.16z M6.054,17.38c0.2-0.19,0.35-0.25,0.48-0.18c0.04,0.02,0.09,0.05,0.1,0.09c0,0.01,0.01,0.03,0,0.05l0,0
			c-0.03,0.02-0.06,0.04-0.09,0.06c-0.21,0.14-0.33,0.3-0.37,0.45l0,0l0,0c-0.03-0.01-0.06-0.01-0.09-0.02
			c-0.17-0.06-0.18-0.15-0.18-0.18C5.884,17.58,5.934,17.5,6.054,17.38 M5.864,17.18c-0.09,0.09-0.19,0.2-0.23,0.35l0,0l0,0
			c-0.03,0-0.06,0-0.08-0.01c-0.1-0.02-0.17-0.05-0.19-0.09c-0.01-0.02-0.03-0.07,0.04-0.16c0.1-0.13,0.32-0.23,0.47-0.21h0.01
			c0.02,0,0.05,0.01,0.09,0.02l0,0l0,0C5.924,17.12,5.894,17.15,5.864,17.18 M6.694,17.63c0.25-0.18,0.39-0.24,0.51-0.13
			c0.04,0.03,0.06,0.06,0.06,0.09c0,0.05-0.06,0.12-0.11,0.16c-0.16,0.11-0.27,0.23-0.33,0.37l0,0c-0.03,0.01-0.09,0.01-0.15,0.01
			c-0.07,0-0.14-0.01-0.19-0.04c-0.02-0.02-0.05-0.04-0.06-0.11C6.414,17.86,6.594,17.71,6.694,17.63 M9.494,5.43
			c0,0-0.01-0.01,0-0.01c0,0,0-0.01,0.01-0.01c0.12-0.04,0.23-0.06,0.35-0.07c0.33-0.02,0.6,0.08,0.81,0.31v0.01
			c0,0,0,0.01-0.01,0.01c-0.07,0.02-0.18,0.05-0.31,0.06c-0.02,0-0.03,0-0.05,0C10.024,5.73,9.744,5.63,9.494,5.43 M9.874,5.89
			h-4.34c0.69-0.35,1.42-0.52,2.17-0.52C8.454,5.37,9.184,5.54,9.874,5.89 M10.424,5c-0.1,0.04-0.25,0.09-0.42,0.12
			c-0.11,0.02-0.21,0.03-0.31,0.03c-0.23,0-0.43-0.06-0.6-0.17c0,0-0.01-0.01,0-0.01c0,0,0-0.01,0.01-0.01
			c0.08-0.04,0.2-0.1,0.35-0.14c0.17-0.04,0.34-0.04,0.51-0.02c0.16,0.03,0.32,0.09,0.47,0.17l0.01,0.01C10.424,5,10.424,5,10.424,5
			 M9.384,4.64c-0.11,0.05-0.3,0.12-0.58,0.15c-0.04,0-0.07,0.03-0.08,0.07c-0.01,0.04,0.01,0.07,0.04,0.1c0,0,0.22,0.15,0.38,0.35
			v0.01l-0.01,0.01c-0.27-0.01-0.77-0.09-1.12-0.51c0,0,0-0.01,0-0.02c0.06-0.05,0.16-0.13,0.31-0.19c0.28-0.11,0.65-0.11,1.06,0.01
			l0.01,0.01C9.384,4.63,9.384,4.63,9.384,4.64 M8.194,4.44c-0.09,0.07-0.27,0.18-0.54,0.27c-0.04,0.01-0.06,0.05-0.06,0.08
			c0,0.04,0.02,0.07,0.06,0.09c0,0,0.24,0.09,0.43,0.25c0,0,0.01,0.01,0,0.01l-0.01,0.01c-0.08,0.01-0.16,0.01-0.24,0.01
			c-0.27,0-0.66-0.05-0.95-0.27c0,0-0.01-0.01,0-0.02c0.04-0.06,0.13-0.16,0.26-0.25c0.26-0.16,0.62-0.24,1.05-0.21
			c0,0,0.01,0,0.01,0.01C8.194,4.43,8.194,4.44,8.194,4.44 M6.974,4.46c-0.07,0.1-0.21,0.24-0.49,0.38
			c-0.04,0.02-0.05,0.05-0.05,0.09c0.01,0.04,0.03,0.07,0.07,0.08c0,0,0.25,0.05,0.48,0.16l0.01,0.01c0,0,0,0.01-0.01,0.01
			c-0.1,0.03-0.21,0.06-0.32,0.08c-0.11,0.02-0.22,0.03-0.33,0.03c-0.21,0-0.4-0.04-0.57-0.12c-0.01,0-0.01-0.01-0.01-0.01
			c0.03-0.07,0.09-0.18,0.2-0.29c0.22-0.22,0.57-0.37,1-0.43c0,0,0.01,0,0.01,0.01C6.974,4.45,6.974,4.46,6.974,4.46 M5.834,4.66
			L5.834,4.66c-0.06,0.13-0.18,0.33-0.43,0.55c-0.03,0.02-0.04,0.07-0.03,0.1c0.01,0.04,0.05,0.06,0.08,0.06l0,0
			c0.02,0,0.12,0,0.24,0.02c0.09,0.01,0.18,0.03,0.26,0.05l0.01,0.01c0,0,0,0.01-0.01,0.01c-0.1,0.05-0.2,0.09-0.3,0.13
			c-0.2,0.07-0.39,0.1-0.58,0.1c-0.12,0-0.23-0.02-0.34-0.05c-0.01,0-0.01-0.01-0.01-0.01c0.04-0.2,0.23-0.7,1.08-0.99h0.01
			C5.834,4.65,5.834,4.66,5.834,4.66 M10.384,6.18c0.24,0.15,0.46,0.32,0.68,0.52h-6.73c0.22-0.19,0.45-0.36,0.68-0.52H10.384z
			 M11.384,6.99c0.16,0.16,0.32,0.33,0.47,0.52h-3.28c-0.44-0.32-0.9-0.3-0.97-0.29c-0.06,0-0.5,0.02-0.91,0.29h-3.13
			c0.15-0.18,0.31-0.35,0.47-0.52H11.384z M6.624,10.8c-0.28-0.02-0.51,0.05-0.8,0.18l0,0l0,0c0-0.02,0.01-0.05,0.01-0.08
			c0.15-0.77,0.45-1.29,0.68-1.59c0.17-0.23,0.32-0.37,0.4-0.44c0.02-0.02,0.05-0.04,0.07-0.06c0.06-0.06,0.07-0.15,0.02-0.22
			c-0.05-0.07-0.15-0.08-0.22-0.03c-0.01,0-0.03,0.02-0.08,0.06c-0.12,0.08-0.24,0.11-0.31,0.07c-0.06-0.04-0.09-0.12-0.07-0.22
			C6.354,8.3,6.544,8.08,6.614,8l0.01-0.01c0.38-0.45,0.98-0.46,0.99-0.46c0,0,0.2-0.02,0.44,0.06c0.32,0.11,0.57,0.33,0.74,0.66
			c0.24,0.47,0.42,0.94,0.55,1.45l0,0l0,0c-0.35-0.12-0.62-0.34-0.63-0.35c-0.07-0.06-0.17-0.05-0.23,0.02
			c-0.06,0.07-0.05,0.17,0.02,0.23c0.02,0.01,0.43,0.35,0.93,0.46l0,0c0.04,0.18,0.07,0.37,0.11,0.59l0,0c0,0,0,0-0.01,0
			c-0.16-0.09-0.36-0.14-0.52-0.19c-0.11-0.03-0.21-0.06-0.28-0.09C8.394,10.23,8.104,10,8.094,10c-0.07-0.05-0.17-0.04-0.22,0.03
			s-0.04,0.17,0.03,0.23c0.01,0.01,0.33,0.26,0.72,0.42c0.1,0.04,0.21,0.07,0.32,0.1c0.43,0.12,0.64,0.21,0.65,0.44l0,0
			c0,0.04-0.03,0.07-0.06,0.1c-0.13,0.14-0.38,0.17-0.52,0.17c-0.02,0-0.46,0-0.46,0c-0.08,0-0.5-0.02-0.86-0.25
			C7.244,10.97,6.924,10.83,6.624,10.8 M7.464,11.49C7.464,11.5,7.464,11.5,7.464,11.49h-1.3c-0.13,0-0.23-0.03-0.28-0.1
			c-0.02-0.02-0.03-0.04-0.04-0.07v-0.01C6.434,11.06,6.704,11.01,7.464,11.49L7.464,11.49 M7.894,12.65h5.92
			c0.02,0.18,0.03,0.37,0.03,0.56h-5.95V12.65z M7.894,12.36v-0.52h5.82c0.03,0.17,0.05,0.34,0.07,0.52H7.894z M9.754,11.55
			c0.06-0.07,0.1-0.14,0.13-0.23c0-0.01,0.01-0.02,0.01-0.03c0.02-0.08,0.03-0.17,0.02-0.26h3.65c0.04,0.17,0.08,0.34,0.11,0.52
			L9.754,11.55L9.754,11.55z M9.874,10.74c-0.02-0.16-0.05-0.34-0.09-0.52h3.54c0.01,0.04,0.03,0.09,0.04,0.13
			c0.04,0.13,0.08,0.26,0.11,0.39L9.874,10.74L9.874,10.74z M9.724,9.93c-0.04-0.17-0.08-0.34-0.13-0.52h3.42
			c0.07,0.17,0.14,0.34,0.21,0.52H9.724z M9.504,9.12c-0.06-0.17-0.12-0.34-0.2-0.52h3.3c0.1,0.17,0.19,0.34,0.27,0.52H9.504z
			 M9.174,8.32c-0.03-0.07-0.07-0.13-0.1-0.2C9.014,8,8.944,7.9,8.874,7.81h3.2c0.12,0.17,0.24,0.34,0.35,0.52h-3.25V8.32z
			 M6.364,7.8c-0.07,0.07-0.25,0.29-0.33,0.52h-3.05c0.11-0.18,0.23-0.35,0.35-0.52H6.364z M6.004,8.61
			c0.02,0.15,0.1,0.28,0.23,0.36c0.03,0.02,0.06,0.03,0.09,0.04l0,0l0,0c-0.03,0.03-0.05,0.07-0.08,0.11h-3.72
			c0.09-0.18,0.18-0.35,0.27-0.52h3.21V8.61z M6.054,9.42c-0.09,0.15-0.18,0.32-0.26,0.52h-3.61c0.07-0.18,0.13-0.35,0.21-0.52
			H6.054z M5.684,10.22c-0.05,0.16-0.1,0.33-0.14,0.52h-3.61c0.04-0.13,0.07-0.26,0.11-0.39c0.01-0.04,0.03-0.09,0.04-0.13
			L5.684,10.22L5.684,10.22z M5.494,11.03c0,0.07,0,0.14,0.01,0.21c0,0.01,0,0.02,0,0.03c0.02,0.11,0.05,0.2,0.1,0.28h-3.87
			c0.03-0.17,0.07-0.35,0.11-0.52H5.494z M7.504,11.84v0.52h-5.89c0.02-0.17,0.04-0.35,0.07-0.52H7.504z M7.504,12.65v0.56h-5.95
			c0.01-0.19,0.02-0.37,0.03-0.56H7.504z M7.504,13.51v1.19l0,0l0,0c-0.01,0-0.03,0-0.04,0c-0.33,0-0.59,0.14-0.91,0.36
			c-0.47,0.32-2.06,0.63-4.72,0.94c0,0,0,0-0.01,0c-0.19-0.79-0.28-1.61-0.28-2.45c0-0.01,0-0.03,0-0.04L7.504,13.51L7.504,13.51z
			 M9.424,16.15c-0.29-0.19-0.83-0.54-1.35-0.4c-0.1,0.02-0.19,0.08-0.29,0.15c-0.05,0.03-0.1,0.07-0.16,0.1
			c-0.17,0.1-0.38,0.15-0.51,0.16c-0.16,0.01-0.26,0.01-0.3-0.05c-0.04-0.05-0.04-0.07-0.03-0.1l0,0c0.03-0.03,0.16-0.1,0.23-0.13
			c0.09-0.04,0.18-0.09,0.25-0.14c0.1-0.06,0.16-0.12,0.23-0.18c0.06-0.05,0.14-0.11,0.25-0.19c0.16-0.12,0.34-0.12,0.6-0.12
			c0.04,0,0.08,0,0.13,0c0.03,0,0.06,0,0.1,0c0.29-0.01,0.54,0.08,0.92,0.22c0.11,0.04,0.24,0.09,0.38,0.13l0,0
			c0.01,0,0.52,0.17,1.24,0.34c0.61,0.15,1.52,0.33,2.37,0.39l0,0l0,0c-0.04,0.14-0.08,0.29-0.13,0.42
			c-0.18,0.56-0.4,1.08-0.67,1.57l0,0l0,0c-0.41-0.17-1.45-0.62-2.13-1.13c-0.14-0.1-0.23-0.2-0.28-0.25l0,0c0,0,0,0,0-0.01l0,0
			c-0.01-0.02-0.02-0.03-0.02-0.03C10.114,16.73,9.824,16.41,9.424,16.15 M9.974,15.32c-0.14-0.05-0.26-0.09-0.37-0.13
			c-0.4-0.15-0.69-0.25-1.03-0.23c-0.02,0-0.04,0-0.06,0l0,0c-0.19-0.09-0.36-0.16-0.61-0.21l0,0v-1.24h5.96c0,0.01,0,0.03,0,0.04
			c0,0.85-0.1,1.69-0.29,2.49l0,0l0,0C11.944,15.94,10.054,15.35,9.974,15.32 M14.304,9.58l0.01-0.01c0,0,0.01,0,0.01,0.01
			c0.07,0.21,0.1,0.41,0.11,0.6c0.01,0.19-0.02,0.37-0.07,0.54c-0.06,0.19-0.16,0.32-0.2,0.37h-0.01c0,0,0,0-0.01,0
			c-0.24-0.15-0.43-0.39-0.55-0.72c-0.04-0.1-0.07-0.2-0.1-0.31v-0.01h0.01c0.22,0.13,0.39,0.32,0.39,0.32
			c0.02,0.03,0.06,0.04,0.1,0.02c0.03-0.01,0.06-0.04,0.06-0.08C14.094,9.98,14.214,9.73,14.304,9.58 M13.644,9.35
			c0.03-0.02,0.05-0.05,0.05-0.09c-0.01-0.34,0.08-0.6,0.16-0.75c0-0.01,0.01-0.01,0.01-0.01s0.01,0,0.01,0.01
			c0.09,0.2,0.15,0.4,0.17,0.59c0.03,0.19,0.02,0.37-0.02,0.54c-0.04,0.2-0.13,0.33-0.16,0.38l-0.01,0.01l0,0
			c-0.26-0.13-0.47-0.35-0.63-0.66c-0.05-0.09-0.09-0.2-0.13-0.3V9.06h0.01c0.23,0.11,0.42,0.28,0.42,0.28
			C13.574,9.36,13.604,9.36,13.644,9.35L13.644,9.35 M13.164,8.36c0.03-0.02,0.05-0.06,0.04-0.09c-0.05-0.34,0.01-0.6,0.07-0.77
			l0.01-0.01l0,0c0,0,0.01,0,0.01,0.01c0.11,0.19,0.19,0.38,0.24,0.57s0.06,0.37,0.05,0.54c-0.02,0.2-0.09,0.35-0.11,0.4l-0.01,0.01
			l0,0c-0.29-0.1-0.53-0.3-0.72-0.59c-0.06-0.09-0.11-0.19-0.16-0.3V8.12h0.01c0.25,0.07,0.46,0.24,0.46,0.24
			C13.094,8.37,13.134,8.38,13.164,8.36 M12.454,7.44c0.03,0.02,0.07,0.02,0.1,0s0.04-0.06,0.03-0.1c-0.09-0.3-0.08-0.58-0.05-0.76
			c0,0,0-0.01,0.01-0.01h0.01c0.14,0.17,0.25,0.34,0.32,0.51c0.08,0.18,0.12,0.35,0.13,0.52c0.01,0.19-0.02,0.34-0.05,0.41
			l-0.01,0.01l0,0c-0.28-0.05-0.54-0.21-0.78-0.46c-0.08-0.08-0.15-0.18-0.22-0.28V7.27l0.01-0.01
			C12.244,7.29,12.454,7.44,12.454,7.44 M11.744,6.62c0.03,0.01,0.08,0,0.1-0.02c0.02-0.03,0.03-0.07,0.01-0.1
			c-0.16-0.3-0.18-0.57-0.18-0.75c0,0,0-0.01,0.01-0.01h0.01c0.16,0.14,0.29,0.3,0.4,0.45c0.1,0.16,0.18,0.33,0.22,0.5
			c0.05,0.2,0.03,0.36,0.03,0.42c0,0.01-0.01,0.01-0.01,0.01c-0.01,0-0.01,0-0.02,0c-0.32,0-0.61-0.18-0.8-0.32
			c-0.09-0.07-0.19-0.16-0.27-0.25V6.54l0.01-0.01C11.494,6.53,11.744,6.62,11.744,6.62 M11.464,5.88c0.08,0.19,0.08,0.38,0.08,0.47
			c0,0.01,0,0.01-0.01,0.01c-0.02,0-0.03,0-0.05,0c-0.39,0-0.85-0.27-1.09-0.43c0,0-0.01-0.01,0-0.01c0,0,0-0.01,0.01-0.01
			c0.25-0.05,0.48,0.01,0.49,0.01c0.04,0.01,0.08-0.01,0.1-0.04c0.02-0.03,0.02-0.07-0.01-0.1c-0.15-0.19-0.25-0.42-0.3-0.57V5.2
			h0.01C11.074,5.32,11.334,5.55,11.464,5.88 M4.164,4.79L4.164,4.79C4.164,4.78,4.164,4.78,4.164,4.79
			c0.08-0.05,0.16-0.09,0.24-0.12c0.23-0.08,0.45-0.13,0.56-0.16c0.25-0.06,0.42-0.17,0.43-0.17c0.01-0.01,0.02-0.02,0.01-0.04
			c0-0.01-0.01-0.02-0.03-0.03l-1.31-0.19l0,0l0,0l1.31-0.19c0.02,0,0.03-0.02,0.03-0.03c0-0.02-0.01-0.03-0.03-0.03
			c0,0-0.25-0.04-0.51-0.16c-0.08-0.03-0.14-0.07-0.2-0.1c-0.15-0.08-0.28-0.15-0.52-0.19l0,0l0,0c0.09-0.01,0.18-0.01,0.27,0
			c0.24,0.01,0.47,0.05,0.58,0.07c0.25,0.04,0.45,0.01,0.46,0.01c0.01,0,0.02-0.01,0.03-0.03c0-0.01,0-0.03-0.02-0.03l-1.14-0.68
			c0,0,0,0,0-0.01c0,0,0,0,0.01,0l1.28,0.32c0.02,0,0.03,0,0.04-0.02s0-0.03-0.01-0.04c0,0-0.21-0.13-0.41-0.34
			c-0.06-0.06-0.1-0.12-0.15-0.17c-0.11-0.13-0.2-0.25-0.4-0.38c0,0,0,0,0-0.01c0,0,0,0,0.01,0c0.08,0.03,0.17,0.06,0.25,0.1
			c0.22,0.11,0.41,0.23,0.51,0.29c0.22,0.14,0.42,0.18,0.42,0.19c0.01,0,0.03,0,0.04-0.01s0.01-0.03,0-0.04l-0.79-1.06
			c0,0,0,0,0-0.01c0,0,0,0,0.01,0l1.06,0.79c0.01,0.01,0.03,0.01,0.04,0s0.01-0.03,0-0.04c0,0-0.15-0.2-0.25-0.47
			c-0.03-0.08-0.05-0.15-0.07-0.21c-0.05-0.16-0.09-0.31-0.23-0.5c0,0,0,0,0-0.01c0,0,0,0,0.01,0c0.07,0.06,0.13,0.12,0.19,0.19
			c0.16,0.18,0.3,0.37,0.36,0.46c0.15,0.21,0.31,0.33,0.32,0.33c0.01,0.01,0.03,0.01,0.04,0s0.02-0.02,0.01-0.04l-0.33-1.29
			c0,0,0,0,0-0.01c0,0,0,0,0.01,0l0.68,1.14c0.01,0.01,0.03,0.02,0.04,0.01c0.02-0.01,0.02-0.02,0.02-0.04
			c0-0.01-0.06-0.25-0.05-0.53c0-0.08,0.01-0.15,0.02-0.22c0.02-0.17,0.03-0.32-0.02-0.55c0,0,0,0,0-0.01c0,0,0,0,0.01,0
			c0.04,0.08,0.08,0.16,0.11,0.25c0.08,0.23,0.13,0.45,0.16,0.57c0.05,0.24,0.16,0.41,0.17,0.43c0.01,0.01,0.02,0.02,0.04,0.01
			c0.01,0,0.02-0.01,0.03-0.03l0.18-1.31l0,0l0,0l0.19,1.31c0,0.02,0.02,0.03,0.03,0.03c0.02,0,0.03-0.01,0.03-0.03
			c0-0.01,0.04-0.25,0.15-0.51c0.03-0.07,0.07-0.14,0.1-0.2c0.08-0.15,0.15-0.28,0.19-0.52c0,0,0,0,0.01,0l0,0
			c0.01,0.09,0.01,0.18,0,0.27c-0.01,0.25-0.05,0.47-0.07,0.58c-0.04,0.25-0.01,0.46-0.01,0.46c0,0.01,0.01,0.02,0.03,0.03
			c0.01,0,0.03,0,0.03-0.02l0.68-1.14c0,0,0,0,0.01,0c0,0,0,0,0,0.01l-0.32,1.29c0,0.02,0,0.03,0.02,0.04s0.03,0,0.04-0.01
			c0,0,0.13-0.22,0.34-0.41c0.06-0.06,0.12-0.1,0.17-0.15c0.13-0.11,0.25-0.2,0.37-0.41c0,0,0,0,0.01,0c0,0,0,0,0,0.01
			c-0.03,0.09-0.06,0.17-0.1,0.25c-0.11,0.22-0.22,0.42-0.29,0.51c-0.14,0.22-0.18,0.42-0.18,0.43c0,0.01,0,0.03,0.01,0.04
			s0.03,0.01,0.04,0l1.06-0.79c0,0,0,0,0.01,0c0,0,0,0,0,0.01L9.444,2.6c-0.01,0.01-0.01,0.03,0,0.04s0.03,0.01,0.04,0
			c0,0,0.2-0.15,0.47-0.25c0.08-0.03,0.15-0.05,0.21-0.07c0.16-0.05,0.3-0.09,0.5-0.23c0,0,0,0,0.01,0c0,0,0,0,0,0.01
			c-0.06,0.07-0.12,0.13-0.19,0.19c-0.18,0.16-0.37,0.3-0.46,0.36c-0.21,0.15-0.33,0.31-0.33,0.32c-0.01,0.01-0.01,0.03,0,0.04
			s0.02,0.02,0.04,0.01l1.28-0.33c0,0,0,0,0.01,0c0,0,0,0,0,0.01l-1.13,0.68c-0.01,0.01-0.02,0.03-0.01,0.04
			c0.01,0.02,0.02,0.02,0.04,0.02c0.01,0,0.25-0.06,0.53-0.05c0.08,0,0.15,0.01,0.22,0.02c0.17,0.02,0.32,0.03,0.55-0.02
			c0,0,0,0,0.01,0s0,0,0,0.01c-0.08,0.04-0.16,0.08-0.25,0.11c-0.23,0.08-0.45,0.13-0.56,0.16c-0.25,0.06-0.42,0.16-0.43,0.17
			c-0.01,0.01-0.02,0.02-0.01,0.04c0,0.01,0.01,0.02,0.03,0.03l1.31,0.19l0,0l0,0l-1.31,0.2c-0.02,0-0.03,0.02-0.03,0.03
			s0.01,0.03,0.03,0.03c0,0,0.25,0.04,0.51,0.16c0.07,0.03,0.14,0.07,0.2,0.1c0.15,0.08,0.28,0.15,0.52,0.19c0,0,0,0,0,0.01l0,0
			c-0.05,0-0.1,0.01-0.15,0.01c-0.04,0-0.08,0-0.11,0c-0.24-0.01-0.47-0.05-0.58-0.07c-0.01,0-0.02,0-0.03-0.01l0,0
			c-0.21-0.09-0.42-0.14-0.63-0.14h-0.01l0,0l0,0c0-0.01,0-0.02,0-0.03c-0.01-0.03-0.03-0.06-0.06-0.07
			c-0.24-0.08-0.47-0.14-0.69-0.15c-0.01,0-0.02,0-0.03,0l0,0c-0.01,0-0.01,0-0.02,0c-0.01,0-0.02,0-0.03,0h-0.01h-0.01
			c-0.02,0-0.03,0-0.05,0h-0.01c-0.1,0-0.2,0.01-0.29,0.02l0,0l0,0l0,0c0-0.01,0-0.03-0.01-0.04V4.33
			c-0.01-0.03-0.04-0.05-0.07-0.05c-0.02,0-0.04-0.01-0.06-0.01h-0.01h-0.01c-0.01,0-0.03,0-0.04,0s-0.02,0-0.02,0
			c-0.01,0-0.02,0-0.04,0c-0.25-0.02-0.47-0.01-0.67,0.03c-0.06,0.01-0.11,0.02-0.16,0.04h-0.01c-0.01,0-0.02,0.01-0.03,0.01h-0.01
			c-0.01,0-0.02,0.01-0.04,0.01l0,0c-0.03,0.01-0.05,0.02-0.08,0.03c0,0,0,0-0.01,0l0,0l0,0l0,0V4.38l0,0c0-0.03,0-0.06-0.02-0.08
			l0,0c0,0,0,0-0.01-0.01l0,0c-0.02-0.02-0.04-0.02-0.07-0.02c-0.32,0.03-0.6,0.09-0.84,0.19c-0.08,0.03-0.15,0.07-0.22,0.12
			c0,0,0,0-0.01,0l0,0c0-0.02,0-0.03,0-0.03l0,0l0,0c0-0.03-0.01-0.06-0.04-0.08l0,0c0,0-0.01,0-0.01-0.01l0,0h-0.01l0,0
			c-0.02-0.01-0.04-0.01-0.07-0.01c-0.31,0.09-0.58,0.21-0.8,0.36l-0.01,0.01h-0.01l0,0c-0.06,0-0.13,0.01-0.19,0
			c-0.05,0-0.21-0.02-0.22-0.02C4.544,4.75,4.404,4.73,4.164,4.79 M4.664,5.05L4.664,5.05h0.01l0.01,0.01
			c-0.01,0.17-0.06,0.44-0.25,0.73c-0.02,0.03-0.02,0.07,0,0.1s0.06,0.04,0.09,0.04c0,0,0.24-0.05,0.49-0.03c0,0,0.01,0,0.01,0.01
			v0.01c-0.21,0.17-0.63,0.45-1.08,0.45c-0.02,0-0.03,0-0.05,0c-0.01,0-0.01-0.01-0.01-0.01C3.884,6.14,3.934,5.58,4.664,5.05
			 M3.114,6.7c0.04-0.17,0.11-0.34,0.22-0.5c0.1-0.16,0.24-0.32,0.41-0.46h0.01l0.01,0.01c0.01,0.17-0.02,0.45-0.18,0.75
			c-0.02,0.03-0.01,0.07,0.01,0.1c0.02,0.03,0.06,0.04,0.1,0.03c0,0,0.23-0.08,0.48-0.09c0,0,0.01,0,0.01,0.01v0.01
			c-0.09,0.09-0.19,0.18-0.28,0.25c-0.19,0.15-0.48,0.33-0.76,0.33c-0.01,0-0.02,0-0.03,0s-0.01,0-0.01-0.01
			C3.084,7.06,3.074,6.9,3.114,6.7 M2.864,6.57L2.864,6.57h0.01c0,0,0.01,0,0.01,0.01c0.03,0.17,0.05,0.44-0.06,0.77
			c-0.01,0.04,0,0.08,0.03,0.1c0.03,0.02,0.07,0.02,0.11,0c0,0,0.21-0.14,0.48-0.17c0,0,0.01,0,0.01,0.01V7.3
			c-0.17,0.24-0.53,0.66-0.99,0.74l0,0c-0.01,0-0.01,0-0.01-0.01C2.384,7.82,2.284,7.26,2.864,6.57 M1.874,8.06
			c0.06-0.18,0.15-0.37,0.27-0.56l0.01-0.01c0,0,0.01,0,0.01,0.01c0.05,0.17,0.1,0.43,0.04,0.77c-0.01,0.04,0.01,0.08,0.05,0.1
			c0.04,0.02,0.08,0.01,0.11-0.02c0,0,0.2-0.19,0.47-0.23h0.01v0.01c-0.04,0.08-0.1,0.19-0.19,0.31c-0.2,0.28-0.45,0.47-0.73,0.55
			l0,0c0,0-0.01,0-0.01-0.01c-0.02-0.05-0.08-0.2-0.1-0.4C1.794,8.43,1.814,8.25,1.874,8.06 M1.334,9.09
			c0.03-0.19,0.09-0.39,0.18-0.59l0.01-0.01c0,0,0.01,0,0.01,0.01c0.08,0.16,0.17,0.41,0.15,0.76c0,0.04,0.02,0.07,0.05,0.09
			s0.07,0.01,0.1-0.01c0.01-0.01,0.21-0.18,0.45-0.28h0.01v0.01c-0.02,0.1-0.06,0.19-0.1,0.28c-0.14,0.3-0.37,0.52-0.68,0.68
			c0,0,0,0-0.01,0c0,0-0.01,0-0.01-0.01c-0.04-0.06-0.11-0.19-0.15-0.38C1.314,9.47,1.304,9.28,1.334,9.09 M1.044,9.58
			C1.044,9.57,1.054,9.57,1.044,9.58c0.01-0.01,0.02-0.01,0.02,0c0.1,0.15,0.22,0.39,0.25,0.73c0,0.04,0.03,0.07,0.06,0.08
			c0.03,0.01,0.07,0,0.1-0.03c0,0,0.17-0.2,0.41-0.34h0.01l0.01,0.01c-0.01,0.1-0.03,0.2-0.07,0.3c-0.1,0.32-0.3,0.57-0.59,0.76
			c0,0,0,0-0.01,0h-0.01c-0.04-0.05-0.14-0.17-0.2-0.36c-0.06-0.16-0.08-0.34-0.08-0.54S0.984,9.79,1.044,9.58 M0.714,10.7
			L0.714,10.7C0.714,10.69,0.724,10.69,0.714,10.7c0.01-0.01,0.02-0.01,0.02-0.01c0.11,0.13,0.27,0.36,0.33,0.7
			c0.01,0.04,0.04,0.06,0.07,0.07c0.04,0.01,0.07-0.01,0.09-0.04c0.02-0.02,0.16-0.23,0.35-0.38h0.01l0.01,0.01
			c0,0.1-0.02,0.2-0.04,0.3c-0.07,0.33-0.23,0.6-0.47,0.81c0,0,0,0-0.01,0h-0.01c-0.05-0.05-0.16-0.16-0.24-0.33
			c-0.08-0.15-0.13-0.33-0.15-0.52C0.674,11.12,0.684,10.92,0.714,10.7 M0.554,11.82C0.554,11.82,0.554,11.81,0.554,11.82
			c0.01-0.01,0.02-0.01,0.02-0.01c0.12,0.13,0.28,0.35,0.37,0.68c0.01,0.04,0.04,0.06,0.08,0.07c0.04,0,0.07-0.02,0.09-0.05
			c0-0.01,0.11-0.23,0.3-0.39h0.01l0.01,0.01c0,0.11-0.01,0.23-0.03,0.34c-0.06,0.34-0.19,0.62-0.4,0.81c0,0,0,0-0.01,0h-0.01
			c-0.05-0.04-0.16-0.15-0.26-0.32c-0.08-0.15-0.14-0.32-0.17-0.51C0.524,12.25,0.524,12.04,0.554,11.82 M0.454,13L0.454,13
			c0,0,0-0.01,0.01-0.01h0.01c0.02,0.02,0.05,0.05,0.07,0.07c0.1,0.11,0.25,0.3,0.34,0.58c0.01,0.04,0.05,0.06,0.09,0.06
			c0,0,0,0,0.01,0c0.04,0,0.08-0.03,0.08-0.08c0,0,0.04-0.24,0.24-0.43h0.01c0,0,0.01,0,0.01,0.01c0.02,0.13,0.04,0.34,0,0.56
			c-0.04,0.26-0.15,0.48-0.33,0.65h-0.01c0,0,0,0-0.01,0C0.804,14.3,0.404,13.91,0.454,13 M0.414,14.14h0.01
			c0.03,0.02,0.05,0.04,0.08,0.06c0.12,0.1,0.28,0.28,0.4,0.55c0.01,0.03,0.05,0.05,0.08,0.05l0,0l0,0c0.04,0,0.07-0.02,0.08-0.06
			c0-0.01,0.11-0.26,0.27-0.45h0.01c0,0,0.01,0,0.01,0.01c0.05,0.24,0.09,0.72-0.27,1.21h-0.01c0,0,0,0-0.01,0
			c-0.19-0.11-0.63-0.46-0.67-1.36C0.404,14.15,0.414,14.15,0.414,14.14 M0.474,15.34L0.474,15.34v-0.01h0.01
			c0.16,0.08,0.38,0.23,0.57,0.52c0.02,0.03,0.06,0.04,0.09,0.04c0.04-0.01,0.06-0.03,0.07-0.07l0,0c0-0.02,0.06-0.28,0.19-0.5
			l0.01-0.01l0,0c0,0,0.01,0,0.01,0.01c0.05,0.1,0.08,0.2,0.1,0.31c0.07,0.33,0.02,0.64-0.16,0.94l-0.01,0.01l0,0
			c-0.06-0.02-0.2-0.08-0.36-0.22c-0.13-0.11-0.24-0.26-0.33-0.43C0.584,15.75,0.514,15.56,0.474,15.34 M0.744,16.45L0.744,16.45
			v-0.01h0.01c0.03,0.01,0.06,0.03,0.09,0.04c0.14,0.07,0.34,0.2,0.52,0.43c0.02,0.03,0.06,0.04,0.09,0.03
			c0.04-0.01,0.06-0.04,0.07-0.07c0-0.01,0.04-0.27,0.15-0.5l0.01-0.01c0,0,0.01,0,0.01,0.01c0.11,0.25,0.27,0.73,0.04,1.23
			l-0.01,0.01l0,0C1.514,17.54,1.004,17.31,0.744,16.45 M1.404,18.09c-0.12-0.15-0.23-0.33-0.31-0.53v-0.01h0.01
			c0.03,0.01,0.06,0.02,0.1,0.03c0.14,0.05,0.36,0.16,0.57,0.37c0.03,0.03,0.06,0.03,0.1,0.02c0.03-0.01,0.06-0.05,0.06-0.08
			c0,0,0.01-0.26,0.09-0.5l0.01-0.01c0,0,0.01,0,0.01,0.01c0.05,0.09,0.1,0.19,0.14,0.29c0.12,0.32,0.14,0.63,0.05,0.91l-0.01,0.01
			l0,0c-0.06-0.01-0.21-0.04-0.39-0.15C1.664,18.36,1.524,18.24,1.404,18.09 M1.564,18.61V18.6c0,0,0.01-0.01,0.01,0
			c0.17,0.03,0.44,0.11,0.7,0.32c0.03,0.02,0.07,0.03,0.1,0.01s0.05-0.05,0.05-0.09c0-0.01-0.03-0.25,0.02-0.5c0,0,0-0.01,0.01-0.01
			s0.01,0,0.01,0c0.06,0.09,0.12,0.19,0.17,0.29c0.11,0.21,0.22,0.54,0.16,0.88c0,0.01-0.01,0.01-0.01,0.01
			c-0.07,0-0.23-0.02-0.41-0.1c-0.16-0.07-0.31-0.17-0.45-0.31C1.804,18.97,1.674,18.81,1.564,18.61 M2.574,20.05
			c-0.15-0.12-0.29-0.27-0.42-0.45v-0.01l0.01-0.01c0.18,0.01,0.44,0.06,0.73,0.25c0.03,0.02,0.07,0.02,0.1,0s0.04-0.06,0.03-0.1
			c0,0-0.06-0.24-0.03-0.49c0,0,0-0.01,0.01-0.01h0.01c0.18,0.22,0.48,0.66,0.45,1.12c0,0.01-0.01,0.01-0.01,0.01
			c-0.01,0-0.03,0-0.05,0c-0.08,0-0.21-0.01-0.37-0.06C2.894,20.26,2.724,20.17,2.574,20.05 M4.214,21.14
			c-0.02,0-0.08,0.01-0.15,0.01c-0.07,0-0.15-0.01-0.23-0.02c-0.32-0.06-0.65-0.25-0.98-0.56v-0.01l0.01-0.01
			c0.17-0.02,0.45-0.02,0.77,0.1c0.03,0.01,0.07,0.01,0.1-0.02s0.03-0.06,0.02-0.1c0,0-0.1-0.23-0.12-0.49c0,0,0-0.01,0.01-0.01
			h0.01c0.22,0.19,0.59,0.58,0.57,1.09C4.224,21.13,4.224,21.14,4.214,21.14 M6.384,22.09c-0.25-0.07-0.51-0.16-0.75-0.26
			c-0.42-0.18-0.83-0.41-1.22-0.68l0,0c0.01-0.15-0.01-0.31-0.07-0.46c0,0,0,0,0-0.01c0,0,0,0,0.01,0c0.3,0.25,0.56,0.44,0.85,0.6
			c0.33,0.19,0.68,0.34,1.04,0.44l0,0l0.09,0.03c-0.01,0.13,0.02,0.25,0.09,0.35L6.384,22.09z M6.984,21.81
			c-0.05,0.12-0.04,0.25,0.03,0.39c0,0.01,0,0.01,0,0.02h-0.01l0,0c-0.16-0.06-0.28-0.13-0.35-0.21c-0.06-0.08-0.09-0.16-0.07-0.26
			c0.01-0.08,0.04-0.13,0.1-0.17c0.1-0.07,0.28-0.09,0.52-0.06c0.01,0,0.01,0,0.01,0.01s0,0.01-0.01,0.02
			C7.094,21.6,7.024,21.7,6.984,21.81 M7.704,22.95c-0.17,0-0.31-0.14-0.31-0.31s0.14-0.31,0.31-0.31c0.17,0,0.31,0.14,0.31,0.31
			S7.874,22.95,7.704,22.95 M8.084,22.23c-0.01,0.01-0.01,0.01-0.02,0c-0.1-0.09-0.23-0.14-0.36-0.14c-0.13,0-0.26,0.05-0.36,0.14
			h-0.01h-0.01c-0.08-0.09-0.16-0.22-0.12-0.34c0.1-0.28,0.49-0.28,0.5-0.28l0,0c0.03,0,0.12,0,0.22,0.04
			c0.14,0.05,0.24,0.13,0.28,0.24C8.254,22.02,8.164,22.14,8.084,22.23 M8.764,22c-0.07,0.09-0.19,0.16-0.35,0.21l0,0h-0.01
			c0,0,0-0.01,0-0.02c0.06-0.13,0.07-0.26,0.03-0.39c-0.04-0.11-0.11-0.2-0.21-0.28c0,0-0.01-0.01-0.01-0.02s0.01-0.01,0.01-0.01
			c0.17-0.02,0.39-0.02,0.52,0.06c0.06,0.04,0.09,0.09,0.1,0.17C8.854,21.84,8.824,21.92,8.764,22 M11.004,21.14L11.004,21.14
			c-0.09,0.07-0.42,0.32-0.9,0.56c-0.34,0.17-0.69,0.3-1.05,0.4l-0.07,0.02c0.07-0.11,0.1-0.23,0.1-0.36l0.1-0.03l0,0
			c0.35-0.11,0.7-0.26,1.03-0.44c0.31-0.17,0.6-0.4,0.86-0.61c0,0,0,0,0.01,0c0,0,0,0,0,0.01
			C11.014,20.82,10.994,20.98,11.004,21.14 M10.084,21.09c-0.33,0.19-0.68,0.33-1.03,0.44l-0.03,0.01
			c-0.04-0.07-0.09-0.12-0.15-0.17c-0.33-0.22-0.97-0.06-1.16-0.01h-0.01c-0.19-0.05-0.83-0.21-1.16,0.01
			c-0.07,0.04-0.12,0.1-0.15,0.17l-0.05-0.02c-0.34-0.1-0.69-0.25-1.01-0.43c-0.73-0.41-1.39-1-1.96-1.75
			c-0.2-0.26-0.38-0.54-0.55-0.83l0,0l0,0c0.39-0.17,1.39-0.62,2.25-1.07l0,0l0,0c0,0.04,0.02,0.07,0.03,0.11
			c0.07,0.17,0.26,0.23,0.4,0.25c0.04,0.01,0.09,0.01,0.14,0.01l0,0c0.05,0.14,0.17,0.24,0.35,0.29c0.06,0.02,0.12,0.03,0.19,0.04
			l0,0c0.03,0.08,0.08,0.14,0.15,0.19c0.17,0.11,0.4,0.1,0.53,0.08l0,0c0.07,0.09,0.17,0.15,0.28,0.17
			c0.11,0.02,0.23,0.01,0.36-0.04l0,0l0,0v1.52c0,0.11,0.09,0.2,0.2,0.2c0.11,0,0.2-0.09,0.2-0.2v-1.58l0,0l0,0
			c0.21,0.04,0.37,0,0.47-0.04c0.09-0.04,0.16-0.08,0.2-0.12l0,0c0.2,0.03,0.37-0.02,0.5-0.15c0.04-0.04,0.08-0.09,0.1-0.14l0,0l0,0
			c0.01,0,0.03,0,0.04,0c0.25,0,0.39-0.11,0.48-0.2c0.04-0.05,0.07-0.1,0.1-0.16l0,0c0.16-0.01,0.3-0.06,0.4-0.15
			c0.04-0.04,0.08-0.09,0.11-0.15l0,0l0,0c0.69,0.54,1.79,1.02,2.23,1.2l0,0l0,0c-0.16,0.27-0.33,0.53-0.52,0.78
			C11.474,20.09,10.814,20.68,10.084,21.09 M12.554,20.56L12.554,20.56c-0.41,0.38-0.76,0.52-0.98,0.56
			c-0.08,0.02-0.15,0.02-0.23,0.02c-0.07,0-0.12-0.01-0.15-0.01c-0.01,0-0.01-0.01-0.01-0.01c-0.01-0.29,0.1-0.58,0.33-0.85
			c0.07-0.08,0.15-0.16,0.24-0.24h0.01l0.01,0.01c-0.03,0.24-0.12,0.48-0.12,0.48c-0.01,0.03-0.01,0.07,0.02,0.1s0.06,0.03,0.1,0.02
			c0.32-0.13,0.59-0.13,0.77-0.1c0,0,0.01,0,0.01,0.01C12.554,20.56,12.554,20.56,12.554,20.56 M13.274,19.6
			c-0.13,0.18-0.27,0.33-0.42,0.45c-0.15,0.12-0.31,0.21-0.48,0.26c-0.15,0.05-0.29,0.06-0.37,0.06c-0.02,0-0.03,0-0.05,0
			c-0.01,0-0.01,0-0.01-0.01c-0.02-0.28,0.06-0.57,0.25-0.87c0.06-0.09,0.12-0.18,0.2-0.26h0.01l0.01,0.01
			c0.02,0.24-0.02,0.48-0.03,0.5c-0.01,0.04,0.01,0.07,0.04,0.09s0.07,0.02,0.1,0c0.29-0.18,0.56-0.24,0.73-0.25
			c0,0,0.01,0,0.01,0.01C13.274,19.59,13.274,19.6,13.274,19.6 M13.864,18.61c-0.11,0.19-0.24,0.36-0.37,0.49
			c-0.14,0.13-0.29,0.24-0.45,0.31c-0.19,0.08-0.35,0.1-0.4,0.1c-0.01,0-0.01,0-0.01-0.01c-0.05-0.28,0-0.58,0.16-0.89
			c0.05-0.1,0.1-0.19,0.17-0.28c0,0,0.01-0.01,0.01,0c0,0,0.01,0,0.01,0.01c0.05,0.24,0.03,0.5,0.03,0.5c0,0.04,0.01,0.07,0.05,0.09
			c0.03,0.02,0.07,0.01,0.1-0.01c0.27-0.21,0.53-0.29,0.7-0.32h0.01C13.864,18.61,13.864,18.61,13.864,18.61 M14.334,17.53
			L14.334,17.53c-0.09,0.21-0.2,0.39-0.32,0.54s-0.26,0.27-0.41,0.36c-0.17,0.1-0.32,0.14-0.39,0.15l0,0c-0.01,0-0.01,0-0.01-0.01
			c-0.08-0.28-0.07-0.59,0.05-0.91c0.04-0.1,0.08-0.19,0.13-0.29l0.01-0.01c0,0,0.01,0,0.01,0.01c0.08,0.24,0.09,0.49,0.09,0.5
			c0,0.04,0.02,0.07,0.06,0.08c0.03,0.01,0.07,0,0.1-0.02l0,0c0.21-0.23,0.42-0.34,0.56-0.39c0.03-0.01,0.07-0.02,0.1-0.03h0.01
			C14.334,17.52,14.334,17.53,14.334,17.53 M14.674,16.44L14.674,16.44c-0.07,0.21-0.15,0.4-0.26,0.56
			c-0.11,0.16-0.23,0.29-0.37,0.4c-0.16,0.12-0.32,0.17-0.37,0.19l0,0c-0.01,0-0.01,0-0.01-0.01c-0.14-0.33-0.1-0.68-0.04-0.92
			c0.03-0.11,0.06-0.21,0.1-0.32l0.01-0.01c0,0,0.01,0,0.01,0.01c0.1,0.23,0.14,0.5,0.14,0.51c0,0.04,0.03,0.07,0.06,0.08
			c0.03,0.01,0.07,0,0.09-0.03c0.21-0.26,0.45-0.4,0.62-0.47h0.01C14.674,16.43,14.674,16.44,14.674,16.44 M14.714,15.88
			c-0.09,0.17-0.19,0.32-0.32,0.44c-0.14,0.13-0.28,0.2-0.35,0.23l0,0c0,0-0.01,0-0.01-0.01c-0.15-0.26-0.2-0.57-0.16-0.92
			c0.01-0.11,0.03-0.22,0.07-0.32l0.01-0.01c0.01,0,0.01,0,0.01,0.01c0.13,0.22,0.2,0.49,0.2,0.5c0.01,0.04,0.04,0.06,0.07,0.07
			c0.04,0.01,0.07-0.01,0.09-0.04c0.18-0.29,0.4-0.45,0.56-0.54h0.01c0,0,0.01,0.01,0,0.01C14.864,15.51,14.794,15.71,14.714,15.88"
			/>
	</g>
</g>
</svg>
