<?xml version="1.0" encoding="utf-8"?>
<!-- Generator: Adobe Illustrator 19.0.0, SVG Export Plug-In . SVG Version: 6.00 Build 0)  -->
<svg version="1.1" id="Capa_1" xmlns="http://www.w3.org/2000/svg" xmlns:xlink="http://www.w3.org/1999/xlink" x="0px" y="0px"
	 viewBox="-426 260 107 41" style="enable-background:new -426 260 107 41;" xml:space="preserve">
<style type="text/css">
	.st0{fill:#FFFFFF;}
</style>
<g id="XMLID_252_">
	<g id="XMLID_327_">
		<path id="XMLID_454_" class="st0" d="M-412.5,265.3L-412.5,265.3L-412.5,265.3c0.4-0.1,0.7-0.1,1-0.1c0.9,0,1.1,0.3,1.1,0.3
			c0,0,0,0.1,0.1,0.1c0,0,0,0,0,0c0,0,0,0,0.1,0c0,0,0-0.1,0-0.1c0,0-0.2-0.6-1.2-0.7c0,0-0.5-0.1-1.1,0c-0.1,0-0.2,0.4-0.2,0.4
			c0,0,0,0.1,0,0.1C-412.6,265.3-412.5,265.3-412.5,265.3"/>
		<path id="XMLID_453_" class="st0" d="M-414.1,265.7L-414.1,265.7c-0.2-0.1-0.7-0.1-0.7-0.1c-0.8,0-1,0.5-1,0.5c0,0.1,0,0.1,0,0.1
			c0,0,0.1,0,0.1,0c0.2,0,0.2-0.1,0.2-0.1c0,0,0.1-0.2,0.4-0.2c0,0,0,0,0,0c0,0,0,0,0,0c0,0,0,0.1,0,0.2c0,0.2,0.2,0.4,0.4,0.4
			c0.2,0,0.4-0.2,0.4-0.4c0-0.1,0-0.1,0-0.2c0,0,0,0,0,0c0,0,0,0,0,0c0.1,0.1,0.3,0.2,0.3,0.3c0,0,0.1,0.1,0.2,0.1c0,0,0.1,0,0.1,0
			c0,0,0,0,0-0.1C-413.8,265.9-414.1,265.7-414.1,265.7"/>
		<path id="XMLID_452_" class="st0" d="M-412.5,266.4c0.2,0,0.2,0,0.2-0.1c0.1-0.1,0.2-0.2,0.3-0.3c0,0,0,0,0,0c0,0,0,0,0,0
			c0,0.1,0,0.1,0,0.2c0,0.2,0.2,0.4,0.4,0.4c0.2,0,0.4-0.2,0.4-0.4c0-0.1,0-0.1,0-0.2c0,0,0,0,0,0c0,0,0,0,0,0
			c0.3,0.1,0.4,0.2,0.4,0.3c0,0,0.1,0.1,0.2,0.1c0,0,0.1,0,0.1,0c0,0,0-0.1,0-0.1c0,0-0.2-0.5-1-0.5c-0.1,0-0.5,0-0.7,0.1
			c0,0-0.3,0.1-0.4,0.6c0,0,0,0,0,0.1C-412.6,266.4-412.6,266.4-412.5,266.4"/>
		<path id="XMLID_451_" class="st0" d="M-416.2,265.7L-416.2,265.7C-416.2,265.7-416.1,265.7-416.2,265.7
			C-416.1,265.7-416.1,265.7-416.2,265.7c0.1,0,0.2-0.1,0.2-0.1c0,0,0.2-0.6,2.1-0.3c0,0,0.1,0,0.1,0c0,0,0,0,0-0.1
			c0,0,0-0.4-0.2-0.4c-0.2,0-0.4-0.1-0.6-0.1c-0.2,0-0.4,0-0.4,0c-1,0.1-1.2,0.7-1.2,0.7C-416.2,265.6-416.2,265.6-416.2,265.7
			C-416.2,265.7-416.2,265.7-416.2,265.7"/>
		<path id="XMLID_347_" class="st0" d="M-400.5,285.8c0-0.1,0-0.1-0.1-0.2c0,0-0.1-0.1-0.2,0c0-0.1,0.1-0.2,0.1-0.3
			c0.2-0.4,0.2-0.9,0.2-1.5c0-0.1,0-0.1-0.1-0.2c0,0-0.1,0-0.2,0c0-0.1,0.1-0.2,0.1-0.3c0.1-0.4,0.1-0.9,0.1-1.5
			c0-0.1,0-0.1-0.1-0.2c-0.1,0-0.1,0-0.2,0c0-0.1,0.1-0.2,0.1-0.3c0.1-0.5,0.1-1,0-1.5c0-0.1-0.1-0.1-0.1-0.2c0,0-0.1,0-0.1,0
			c0-0.1,0-0.2,0-0.2c0-0.5,0-1-0.1-1.5c0-0.1-0.1-0.1-0.1-0.1c-0.1,0-0.1,0-0.2,0c0,0,0,0,0,0c0-0.1,0-0.3,0-0.4
			c0-0.5-0.1-1-0.3-1.5c0-0.1-0.1-0.1-0.2-0.1c-0.1,0-0.1,0-0.2,0c0-0.1,0-0.2,0-0.4c-0.1-0.5-0.2-0.9-0.5-1.4
			c0-0.1-0.1-0.1-0.2-0.1c-0.1,0-0.1,0-0.2,0.1c0-0.1,0-0.2-0.1-0.3c-0.1-0.4-0.3-0.9-0.6-1.4c0-0.1-0.1-0.1-0.2-0.1
			c-0.1,0-0.1,0-0.2,0.1c0,0,0,0,0,0c0-0.1-0.1-0.3-0.1-0.4c-0.2-0.4-0.5-0.8-0.8-1.2c0-0.1-0.1-0.1-0.2-0.1c-0.1,0-0.1,0-0.1,0.1
			c-0.1-0.1-0.1-0.2-0.2-0.4c-0.2-0.4-0.6-0.7-1-1.1c-0.1,0-0.1-0.1-0.2,0c-0.1,0-0.1,0.1-0.1,0.1c-0.3-0.4-0.6-0.6-1.1-0.8
			c0.1,0,0.1,0,0.2,0c0.6,0,1-0.1,1.1-0.1c0.1,0,0.2-0.2,0.2-0.3c0-0.2-0.1-0.3-0.3-0.3c-0.6,0-0.9-0.2-1.2-0.3c0,0-0.1,0-0.1,0
			l1.4-0.2c0.2,0,0.3-0.2,0.3-0.3c0-0.2-0.1-0.3-0.3-0.3l-1.4-0.2c0.2,0,0.3-0.1,0.4-0.1c0.6-0.2,0.9-0.5,0.9-0.5
			c0.1-0.1,0.1-0.3,0.1-0.4c-0.1-0.1-0.2-0.2-0.4-0.1c-0.6,0.2-0.9,0.2-1.2,0.2c0,0-0.1,0-0.1,0l1.2-0.7c0.1-0.1,0.2-0.2,0.1-0.4
			c-0.1-0.1-0.2-0.2-0.4-0.2l-1.3,0.3c0.1-0.1,0.2-0.2,0.4-0.3c0.5-0.4,0.7-0.8,0.7-0.8c0.1-0.1,0-0.3-0.1-0.4
			c-0.1-0.1-0.3-0.1-0.4,0c-0.5,0.4-0.7,0.5-1.1,0.6c0,0-0.1,0-0.1,0l0.9-1.2c0.1-0.1,0.1-0.3,0-0.4c-0.1-0.1-0.3-0.1-0.4,0
			l-1.1,0.8c0.1-0.1,0.2-0.3,0.2-0.4c0.3-0.5,0.3-1,0.3-1c0-0.2-0.1-0.3-0.2-0.3c-0.1,0-0.3,0-0.4,0.2c-0.3,0.6-0.5,0.8-0.8,1
			c0,0,0,0-0.1,0.1l0.4-1.4c0-0.1,0-0.3-0.2-0.4c-0.1-0.1-0.3,0-0.4,0.1l-0.7,1.2c0-0.2,0-0.3,0-0.5c0-0.6-0.1-1-0.1-1.1
			c0-0.1-0.2-0.2-0.3-0.2c-0.2,0-0.3,0.1-0.3,0.3c0,0.7-0.2,0.9-0.3,1.2c0,0,0,0.1,0,0.1l-0.2-1.4c0-0.2-0.2-0.3-0.3-0.3
			c-0.2,0-0.3,0.1-0.3,0.3l-0.2,1.4c0-0.1-0.1-0.3-0.1-0.4c-0.2-0.6-0.5-0.9-0.5-0.9c-0.1-0.1-0.3-0.1-0.4-0.1
			c-0.1,0.1-0.2,0.2-0.1,0.4c0.2,0.6,0.2,0.9,0.2,1.2c0,0,0,0.1,0,0.1l-0.8-1.3c-0.1-0.1-0.2-0.2-0.4-0.1c-0.1,0.1-0.2,0.2-0.2,0.4
			l0.3,1.3c-0.1-0.1-0.2-0.2-0.3-0.3c-0.4-0.4-0.8-0.7-0.8-0.7c-0.1-0.1-0.3,0-0.4,0.1c-0.1,0.1-0.1,0.3,0,0.4
			c0.4,0.5,0.5,0.8,0.6,1.1c0,0,0,0.1,0,0.1l-1.2-0.9c-0.1-0.1-0.3-0.1-0.4,0c-0.1,0.1-0.1,0.3,0,0.4l0.8,1.1
			c-0.1-0.1-0.3-0.1-0.4-0.2c-0.5-0.3-1-0.3-1-0.3c-0.2,0-0.3,0.1-0.3,0.2c0,0.1,0,0.3,0.2,0.4c0.6,0.3,0.8,0.5,1,0.8
			c0,0,0,0,0.1,0.1l-1.4-0.4c-0.1,0-0.3,0-0.4,0.2c-0.1,0.1,0,0.3,0.1,0.4l1.2,0.7c-0.2,0-0.3,0-0.5,0c-0.6,0-1,0.1-1.1,0.1
			c-0.1,0-0.2,0.2-0.2,0.3c0,0.2,0.1,0.3,0.3,0.3c0.6,0,0.9,0.2,1.2,0.3c0,0,0.1,0,0.1,0l-1.4,0.2c-0.2,0-0.3,0.2-0.3,0.3
			s0.1,0.3,0.3,0.3l1.4,0.2c-0.2,0-0.3,0.1-0.4,0.1c-0.6,0.2-0.9,0.5-0.9,0.5c-0.1,0.1-0.1,0.3-0.1,0.4c0.1,0.1,0.2,0.2,0.4,0.1
			c0.3-0.1,0.5-0.2,0.8-0.2c-0.4,0.3-0.6,0.5-0.7,0.6c-0.1,0.1-0.1,0.2-0.2,0.3c0,0-0.1-0.1-0.1-0.1c-0.1,0-0.1,0-0.2,0
			c-0.4,0.3-0.8,0.7-1,1.1c-0.1,0.1-0.1,0.2-0.2,0.4c0-0.1-0.1-0.1-0.1-0.1c-0.1,0-0.1,0-0.2,0.1c-0.4,0.4-0.7,0.8-0.8,1.2
			c-0.1,0.1-0.1,0.2-0.1,0.4c0,0-0.1-0.1-0.1-0.1c-0.1,0-0.1,0-0.2,0.1c-0.3,0.4-0.6,0.9-0.7,1.3c0,0.1-0.1,0.2-0.1,0.4c0,0,0,0,0,0
			c0-0.1-0.1-0.1-0.2-0.1c-0.1,0-0.1,0-0.2,0.1c-0.3,0.5-0.4,1-0.5,1.4c0,0.1,0,0.2,0,0.4c0,0,0,0,0,0c-0.1,0-0.1-0.1-0.2-0.1
			c-0.1,0-0.1,0.1-0.1,0.1c-0.2,0.5-0.3,1-0.3,1.5c0,0.1,0,0.2,0,0.4c-0.1,0-0.1,0-0.2,0c-0.1,0-0.1,0.1-0.1,0.1
			c-0.1,0.5-0.2,1-0.1,1.5c0,0.1,0,0.2,0,0.3c0,0-0.1,0-0.1,0c-0.1,0-0.1,0.1-0.1,0.2c-0.1,0.5-0.1,1,0,1.5c0,0.1,0,0.2,0.1,0.4
			c0,0-0.1,0-0.1,0c-0.1,0-0.1,0.1-0.1,0.2c-0.1,0.5-0.1,1,0,1.5c0,0.1,0,0.2,0.1,0.3c-0.1,0-0.1,0-0.2,0c-0.1,0-0.1,0.1-0.1,0.2
			c0,0.5,0.1,1,0.2,1.5c0,0.1,0.1,0.3,0.2,0.4c0,0,0,0,0,0c-0.1,0-0.1,0-0.2,0c-0.1,0-0.1,0.1-0.1,0.2c0.1,0.5,0.2,1,0.5,1.4
			c0,0.1,0.1,0.2,0.1,0.2c0,0-0.1,0-0.1,0.1c0,0.1-0.1,0.1-0.1,0.2c0.1,0.5,0.3,1,0.6,1.4c0.1,0.1,0.1,0.2,0.2,0.3
			c-0.1,0-0.1,0-0.2,0.1c0,0.1-0.1,0.1,0,0.2c0.2,0.5,0.4,1,0.7,1.3c0.1,0.1,0.1,0.2,0.2,0.2c-0.1,0-0.1,0-0.1,0.1
			c0,0.1,0,0.1,0,0.2c0.2,0.5,0.5,0.9,0.9,1.2c0.1,0.1,0.2,0.1,0.2,0.2c-0.1,0-0.1,0.1-0.1,0.1c0,0.1,0,0.1,0,0.2
			c0.3,0.5,0.6,0.8,1,1.1c0.1,0.1,0.2,0.2,0.4,0.2c0,0-0.1,0-0.1,0c-0.1,0-0.1,0.1-0.1,0.1c0,0.1,0,0.1,0.1,0.2
			c0.4,0.4,0.8,0.7,1.2,0.9c0.3,0.2,0.6,0.3,1,0.4c0.3,0,0.5,0.1,0.8,0c0.7,0.5,1.4,0.9,2.2,1.2c0.6,0.3,1.3,0.5,1.9,0.6
			c0.1,0,0.2,0,0.3,0.1l0.2,0c0.1,0,0.3,0.1,0.4,0.1c0,0.1,0,0.1,0,0.2c0,0.1,0,0.1,0,0.2c-0.2,0.2-1,0.9-2.2,1.1l-0.1,0l0,0.1
			c0,0.1,0.1,0.2,0.3,0.4l0,0l0,0c1-0.2,1.7-0.7,2.1-1.1c0,0,0.1,0.1,0.1,0.1c-0.1,0.3-0.4,1-1.5,1.3l-0.1,0l0.1,0
			c0.2,0.1,0.4,0.2,0.7,0.2l0,0l0,0c0.9-0.4,1.2-1,1.3-1.3c0.1,0,0.2,0,0.3,0c0.1,0.3,0.4,0.9,1.3,1.3l0,0l0,0
			c0.2,0,0.5-0.1,0.7-0.2l0.1,0l-0.1,0c-1.2-0.3-1.5-1-1.5-1.3c0,0,0.1-0.1,0.1-0.1c0.3,0.3,1.1,0.9,2.1,1.1l0,0l0,0
			c0.2-0.2,0.3-0.3,0.3-0.4l0-0.1l-0.1,0c-1.1-0.1-1.9-0.8-2.1-1.1c0-0.1,0-0.2,0-0.2c0-0.1,0-0.1,0-0.2c0.1,0,0.2-0.1,0.3-0.1
			l0.2,0c0.3-0.1,0.6-0.1,0.9-0.2c0.6-0.2,1.3-0.4,1.9-0.7c0.9-0.4,1.4-0.8,1.6-1c0.2,0,0.5,0,0.8,0c0.3-0.1,0.6-0.2,1-0.4
			c0.4-0.2,0.8-0.5,1.2-0.9c0-0.1,0.1-0.1,0.1-0.2c0-0.1-0.1-0.1-0.1-0.1c0,0,0,0-0.1,0c0.1-0.1,0.2-0.2,0.4-0.2
			c0.4-0.3,0.7-0.7,1-1.1c0-0.1,0-0.1,0-0.2c0-0.1-0.1-0.1-0.1-0.1c0.1-0.1,0.2-0.1,0.2-0.2c0.3-0.3,0.6-0.7,0.9-1.2
			c0-0.1,0-0.1,0-0.2c0-0.1-0.1-0.1-0.2-0.1c0.1-0.1,0.2-0.2,0.2-0.3c0.3-0.4,0.5-0.8,0.7-1.3c0-0.1,0-0.1,0-0.2
			c0-0.1-0.1-0.1-0.2-0.1c0,0,0,0,0,0h0c0.1-0.1,0.1-0.2,0.2-0.3c0.3-0.4,0.5-0.8,0.6-1.4c0-0.1,0-0.1,0-0.2c0-0.1-0.1-0.1-0.2-0.1
			c0.1-0.1,0.1-0.2,0.2-0.3C-400.7,286.8-400.6,286.4-400.5,285.8 M-400.8,284.1L-400.8,284.1C-400.7,284.1-400.7,284.1-400.8,284.1
			c0,0.4-0.1,0.7-0.2,1c-0.1,0.3-0.3,0.6-0.5,0.8c-0.2,0.3-0.5,0.4-0.5,0.5c0,0,0,0,0,0c0,0,0,0,0,0c-0.3-0.4-0.5-0.9-0.4-1.5
			c0-0.2,0-0.4,0.1-0.6c0,0,0,0,0,0c0,0,0,0,0,0c0.3,0.3,0.4,0.8,0.4,0.8c0,0.1,0.1,0.1,0.1,0.1c0,0,0,0,0,0c0.1,0,0.1,0,0.1-0.1
			C-401.4,284.6-401,284.3-400.8,284.1C-400.8,284.1-400.8,284.1-400.8,284.1 M-400.8,282.1C-400.8,282.1-400.8,282.1-400.8,282.1
			C-400.8,282.1-400.8,282.1-400.8,282.1c0,0.4,0,0.7-0.1,1.1c-0.1,0.3-0.2,0.6-0.4,0.8c-0.2,0.3-0.4,0.4-0.5,0.5c0,0,0,0,0,0
			c0,0,0,0,0,0c-0.5-0.6-0.6-1.5-0.6-2c0,0,0,0,0,0c0,0,0,0,0,0c0.3,0.3,0.5,0.7,0.5,0.7c0,0.1,0.1,0.1,0.1,0.1c0.1,0,0.1,0,0.1-0.1
			C-401.3,282.7-401,282.3-400.8,282.1 M-401,280.1L-401,280.1C-401,280.1-401,280.1-401,280.1C-401,280.1-401,280.2-401,280.1
			c0.1,0.4,0.1,0.7,0,1.1c0,0.3-0.1,0.6-0.3,0.9c-0.2,0.3-0.4,0.5-0.5,0.6c0,0,0,0,0,0c0,0,0,0,0,0c-0.5-0.4-0.7-1.4-0.7-1.9
			c0,0,0,0,0,0c0,0,0,0,0,0c0.3,0.3,0.5,0.6,0.5,0.6c0,0.1,0.1,0.1,0.2,0.1c0.1,0,0.1-0.1,0.1-0.1
			C-401.5,280.7-401.2,280.4-401,280.1 M-401.3,278.3L-401.3,278.3C-401.3,278.3-401.3,278.3-401.3,278.3
			C-401.3,278.3-401.3,278.3-401.3,278.3c0.1,0.4,0.1,0.7,0.1,1.1c0,0.3-0.1,0.6-0.2,0.9c-0.2,0.3-0.3,0.5-0.4,0.6c0,0,0,0,0,0
			c0,0,0,0,0,0c-0.4-0.4-0.7-0.9-0.8-1.3c0-0.2-0.1-0.4-0.1-0.6c0,0,0,0,0,0c0,0,0,0,0,0c0.3,0.3,0.6,0.6,0.6,0.6
			c0,0.1,0.1,0.1,0.2,0.1c0.1,0,0.1-0.1,0.1-0.1C-401.8,278.9-401.5,278.5-401.3,278.3 M-411.5,288.5c0,0.1,0.1,0.1,0.1,0.1
			c0.6,0.3,1.2,1,1.4,1.2c0,0,0,0,0,0c0,0.1-0.1,0.1-0.1,0.1c-0.1,0.1-0.3,0.2-0.5,0.2c0,0,0,0,0,0c0,0,0,0,0,0
			c-0.1-0.1-0.2-0.3-0.4-0.5c-0.2-0.3-0.7-0.6-0.7-0.6c-0.1-0.1-0.3,0-0.3,0.1c-0.1,0.1,0,0.3,0.1,0.3c0.1,0.1,0.5,0.3,0.6,0.5
			c0.2,0.2,0.3,0.4,0.3,0.4c0,0,0,0,0,0c0,0.1-0.1,0.1-0.1,0.2c-0.1,0.1-0.2,0.1-0.4,0.1c0,0,0,0,0,0c-0.1-0.1-0.2-0.4-0.5-0.8
			c-0.1-0.1-0.2-0.1-0.3,0c0,0-0.1,0.1-0.1,0.2c0,0.1,0,0.1,0.1,0.2c0.2,0.2,0.3,0.4,0.4,0.6c0,0,0,0,0,0c-0.1,0-0.1,0.1-0.2,0.1
			c-0.2,0.1-0.3,0.1-0.5,0c0,0,0,0,0,0c0,0,0,0,0,0c0.1-0.1,0.1-0.2,0.1-0.3c0-0.1,0-0.4-0.2-0.6c-0.1-0.1-0.3-0.2-0.6-0.2
			c0,0,0,0,0,0c0,0,0,0,0,0c0-0.2-0.1-0.3-0.3-0.5c-0.2-0.2-0.5-0.3-0.8-0.2c0,0,0,0,0,0l0,0c0,0,0,0,0,0c0-0.1-0.1-0.3-0.4-0.4
			c-0.2-0.1-0.5-0.1-0.7,0c0,0,0,0,0,0c-0.2-0.2-0.5-0.2-0.6-0.2c-0.3,0-0.8,0.1-1.1,0.4c0,0,0,0,0,0c-1.6,0.8-3.6,1.7-4.4,2.1
			c0,0,0,0,0,0c0,0,0,0,0,0c-0.4-0.8-0.8-1.7-1.1-2.6c-0.1-0.3-0.2-0.5-0.2-0.8c0,0,0,0,0,0c0,0,0,0,0,0c2.3-0.3,4.1-0.5,5.5-0.8
			c1.4-0.3,2.3-0.6,2.7-0.9l0,0c0.5-0.4,0.9-0.6,1.4-0.5c0.2,0,0.3,0,0.4,0.1c0,0,0,0,0,0c0,0,0,0,0,0c-0.1,0-0.3,0.1-0.4,0.2
			c-0.2,0.1-0.3,0.3-0.5,0.4c-0.1,0.1-0.2,0.2-0.4,0.3c-0.1,0.1-0.2,0.1-0.4,0.2c-0.3,0.2-0.6,0.3-0.6,0.5l0,0l0,0
			c-0.1,0.2,0,0.4,0.1,0.6c0.2,0.3,0.6,0.3,0.9,0.3c0.3,0,0.8-0.1,1.1-0.3c0.1-0.1,0.2-0.1,0.3-0.2c0.1-0.1,0.3-0.2,0.3-0.2
			c0,0,0,0,0,0c0.3-0.1,0.6,0,1,0.1c0.3,0.1,0.7,0.3,1,0.5c0.7,0.5,1.3,1.1,1.4,1.3c0,0,0,0,0,0c0,0.1,0,0.2-0.1,0.3
			c-0.1,0.1-0.2,0.1-0.4,0.1c0,0,0,0,0,0c-0.2-0.3-0.8-1-1.6-1.4c-0.1-0.1-0.3,0-0.3,0.1C-411.5,288.4-411.5,288.5-411.5,288.5
			 M-413.3,291C-413.3,291-413.3,291-413.3,291L-413.3,291c-0.1,0.1-0.4,0.3-0.7,0.3c0,0-0.1,0-0.1,0c0,0-0.1,0-0.2-0.1c0,0,0,0,0,0
			c0.1-0.3,0.4-0.4,0.6-0.6c0.3-0.2,0.5-0.1,0.5-0.1c0.1,0.1,0.1,0.2,0.1,0.2C-413,290.8-413.2,290.9-413.3,291L-413.3,291
			L-413.3,291z M-416,289.6c0.3-0.3,0.6-0.4,0.8-0.3c0.1,0,0.1,0.1,0.2,0.2c0,0,0,0.1,0,0.1c0,0,0,0,0,0c-0.1,0-0.1,0.1-0.2,0.1
			c-0.3,0.2-0.6,0.5-0.6,0.8c0,0,0,0,0,0h0c-0.1,0-0.1,0-0.2,0c-0.3-0.1-0.3-0.3-0.3-0.3C-416.3,290-416.2,289.8-416,289.6
			 M-416.3,289.3c-0.2,0.2-0.3,0.3-0.4,0.6c0,0,0,0,0,0h0c0,0-0.1,0-0.1,0c-0.2,0-0.3-0.1-0.3-0.1c0,0-0.1-0.1,0.1-0.3
			c0.2-0.2,0.6-0.4,0.8-0.4c0,0,0,0,0,0c0,0,0.1,0,0.1,0c0,0,0,0,0,0c0,0,0,0,0,0C-416.2,289.2-416.3,289.2-416.3,289.3
			 M-414.9,290.1c0.4-0.3,0.7-0.4,0.9-0.2c0.1,0.1,0.1,0.1,0.1,0.2c0,0.1-0.1,0.2-0.2,0.3c-0.3,0.2-0.5,0.4-0.6,0.6c0,0,0,0,0,0
			c-0.1,0-0.2,0-0.3,0c-0.1,0-0.2,0-0.3-0.1c0,0-0.1-0.1-0.1-0.2C-415.4,290.5-415.1,290.2-414.9,290.1 M-410.1,269.3
			C-410.1,269.3-410.1,269.2-410.1,269.3C-410.1,269.2-410.1,269.2-410.1,269.3c0.2-0.1,0.4-0.1,0.6-0.1c0.6,0,1,0.1,1.4,0.5
			c0,0,0,0,0,0c0,0,0,0,0,0c-0.1,0-0.3,0.1-0.5,0.1c0,0-0.1,0-0.1,0C-409.2,269.8-409.7,269.6-410.1,269.3 M-409.5,270h-7.4
			c1.2-0.6,2.4-0.9,3.7-0.9C-411.9,269.2-410.7,269.5-409.5,270 M-408.6,268.5c-0.2,0.1-0.4,0.2-0.7,0.2c-0.2,0-0.4,0.1-0.5,0.1
			c-0.4,0-0.7-0.1-1-0.3c0,0,0,0,0,0c0,0,0,0,0,0c0.1-0.1,0.3-0.2,0.6-0.2c0.3-0.1,0.6-0.1,0.9,0
			C-409.1,268.2-408.8,268.3-408.6,268.5C-408.5,268.5-408.5,268.5-408.6,268.5C-408.5,268.5-408.5,268.5-408.6,268.5 M-410.3,267.9
			c-0.2,0.1-0.5,0.2-1,0.3c-0.1,0-0.1,0.1-0.1,0.1c0,0.1,0,0.1,0.1,0.2c0,0,0.4,0.3,0.6,0.6c0,0,0,0,0,0c0,0,0,0,0,0
			c-0.5,0-1.3-0.1-1.9-0.9c0,0,0,0,0,0c0.1-0.1,0.3-0.2,0.5-0.3C-411.7,267.7-411,267.7-410.3,267.9
			C-410.3,267.9-410.3,267.9-410.3,267.9C-410.3,267.9-410.3,267.9-410.3,267.9 M-412.4,267.6c-0.2,0.1-0.5,0.3-0.9,0.5
			c-0.1,0-0.1,0.1-0.1,0.1c0,0.1,0,0.1,0.1,0.1c0,0,0.4,0.2,0.7,0.4c0,0,0,0,0,0c0,0,0,0,0,0c-0.1,0-0.3,0-0.4,0
			c-0.5,0-1.1-0.1-1.6-0.5c0,0,0,0,0,0c0.1-0.1,0.2-0.3,0.4-0.4C-413.7,267.6-413.1,267.5-412.4,267.6
			C-412.4,267.5-412.3,267.5-412.4,267.6C-412.3,267.6-412.3,267.6-412.4,267.6 M-414.4,267.6c-0.1,0.2-0.4,0.4-0.8,0.6
			c-0.1,0-0.1,0.1-0.1,0.2c0,0.1,0.1,0.1,0.1,0.1c0,0,0.4,0.1,0.8,0.3c0,0,0,0,0,0c0,0,0,0,0,0c-0.2,0.1-0.4,0.1-0.5,0.1
			c-0.2,0-0.4,0.1-0.6,0.1c-0.4,0-0.7-0.1-1-0.2c0,0,0,0,0,0c0-0.1,0.1-0.3,0.3-0.5C-415.8,267.9-415.2,267.7-414.4,267.6
			C-414.4,267.6-414.4,267.6-414.4,267.6C-414.4,267.6-414.4,267.6-414.4,267.6 M-416.4,268L-416.4,268c-0.1,0.2-0.3,0.6-0.7,0.9
			c0,0-0.1,0.1,0,0.2c0,0.1,0.1,0.1,0.1,0.1h0c0,0,0.2,0,0.4,0c0.2,0,0.3,0.1,0.4,0.1c0,0,0,0,0,0c0,0,0,0,0,0
			c-0.2,0.1-0.3,0.2-0.5,0.2c-0.3,0.1-0.7,0.2-1,0.2c-0.2,0-0.4,0-0.6-0.1c0,0,0,0,0,0C-418.2,269.3-417.9,268.4-416.4,268
			C-416.4,267.9-416.4,267.9-416.4,268C-416.4,267.9-416.4,267.9-416.4,268 M-408.6,270.5c0.4,0.3,0.8,0.6,1.2,0.9h-11.5
			c0.4-0.3,0.8-0.6,1.2-0.9H-408.6z M-406.9,271.9c0.3,0.3,0.5,0.6,0.8,0.9h-5.6c-0.7-0.5-1.5-0.5-1.7-0.5c-0.1,0-0.9,0-1.6,0.5
			h-5.3c0.3-0.3,0.5-0.6,0.8-0.9H-406.9z M-415,278.4c-0.5,0-0.9,0.1-1.4,0.3c0,0,0,0,0,0c0,0,0,0,0,0c0,0,0-0.1,0-0.1
			c0.3-1.3,0.8-2.2,1.2-2.7c0.3-0.4,0.5-0.6,0.7-0.7c0,0,0.1-0.1,0.1-0.1c0.1-0.1,0.1-0.3,0-0.4c-0.1-0.1-0.3-0.1-0.4-0.1
			c0,0-0.1,0-0.1,0.1c-0.2,0.1-0.4,0.2-0.5,0.1c-0.1-0.1-0.2-0.2-0.1-0.4c0-0.3,0.4-0.7,0.5-0.8c0,0,0,0,0,0
			c0.6-0.8,1.7-0.8,1.7-0.8c0,0,0.3,0,0.8,0.1c0.6,0.2,1,0.6,1.3,1.1c0.4,0.8,0.7,1.6,0.9,2.5c0,0,0,0,0,0c0,0,0,0,0,0
			c-0.6-0.2-1.1-0.6-1.1-0.6c-0.1-0.1-0.3-0.1-0.4,0c-0.1,0.1-0.1,0.3,0,0.4c0,0,0.7,0.6,1.6,0.8c0,0,0,0,0,0c0.1,0.3,0.1,0.6,0.2,1
			c0,0,0,0,0,0c0,0,0,0,0,0c-0.3-0.2-0.6-0.2-0.9-0.3c-0.2,0-0.4-0.1-0.5-0.1c-0.6-0.2-1.1-0.6-1.1-0.6c-0.1-0.1-0.3-0.1-0.4,0
			c-0.1,0.1-0.1,0.3,0,0.4c0,0,0.6,0.4,1.2,0.7c0.2,0.1,0.4,0.1,0.5,0.2c0.7,0.2,1.1,0.4,1.1,0.7l0,0c0,0.1-0.1,0.1-0.1,0.2
			c-0.2,0.2-0.7,0.3-0.9,0.3c0,0-0.8,0-0.8,0c-0.1,0-0.9,0-1.5-0.4C-414,278.7-414.5,278.5-415,278.4 M-413.6,279.6
			C-413.6,279.6-413.6,279.6-413.6,279.6l-2.2,0c-0.2,0-0.4-0.1-0.5-0.2c0,0,0-0.1-0.1-0.1c0,0,0,0,0,0
			C-415.3,278.9-414.9,278.8-413.6,279.6C-413.6,279.6-413.6,279.6-413.6,279.6 M-412.9,281.6h10.1c0,0.3,0,0.6,0.1,0.9h-10.1V281.6
			z M-412.9,281.1v-0.9h9.9c0,0.3,0.1,0.6,0.1,0.9H-412.9z M-409.7,279.7c0.1-0.1,0.2-0.2,0.2-0.4c0,0,0,0,0-0.1c0-0.1,0-0.3,0-0.4
			h6.2c0.1,0.3,0.1,0.6,0.2,0.9H-409.7z M-409.5,278.3c0-0.3-0.1-0.6-0.1-0.9h6c0,0.1,0,0.1,0.1,0.2c0.1,0.2,0.1,0.4,0.2,0.7H-409.5
			z M-409.7,276.9c-0.1-0.3-0.1-0.6-0.2-0.9h5.8c0.1,0.3,0.2,0.6,0.4,0.9H-409.7z M-410.1,275.6c-0.1-0.3-0.2-0.6-0.3-0.9h5.6
			c0.2,0.3,0.3,0.6,0.5,0.9H-410.1z M-410.7,274.2c-0.1-0.1-0.1-0.2-0.2-0.3c-0.1-0.2-0.2-0.4-0.3-0.5h5.5c0.2,0.3,0.4,0.6,0.6,0.9
			H-410.7z M-415.5,273.3c-0.1,0.1-0.4,0.5-0.6,0.9h-5.2c0.2-0.3,0.4-0.6,0.6-0.9H-415.5z M-416.1,274.7c0,0.3,0.2,0.5,0.4,0.6
			c0,0,0.1,0.1,0.2,0.1c0,0,0,0,0,0c0,0,0,0,0,0c0,0.1-0.1,0.1-0.1,0.2h-6.3c0.1-0.3,0.3-0.6,0.5-0.9H-416.1z M-416,276.1
			c-0.2,0.3-0.3,0.5-0.4,0.9h-6.2c0.1-0.3,0.2-0.6,0.4-0.9H-416z M-416.6,277.4c-0.1,0.3-0.2,0.6-0.2,0.9h-6.2
			c0.1-0.2,0.1-0.4,0.2-0.7c0-0.1,0-0.1,0.1-0.2H-416.6z M-417,278.8c0,0.1,0,0.2,0,0.4c0,0,0,0,0,0.1c0,0.2,0.1,0.3,0.2,0.5h-6.6
			c0.1-0.3,0.1-0.6,0.2-0.9H-417z M-413.5,280.2v0.9h-10c0-0.3,0.1-0.6,0.1-0.9H-413.5z M-413.5,281.6v0.9h-10.1
			c0-0.3,0-0.6,0.1-0.9H-413.5z M-413.5,283v2c0,0,0,0,0,0c0,0,0,0,0,0c0,0,0,0-0.1,0c-0.6,0-1,0.2-1.5,0.6c-0.8,0.5-3.5,1.1-8,1.6
			c0,0,0,0,0,0c-0.3-1.3-0.5-2.8-0.5-4.2c0,0,0,0,0-0.1H-413.5z M-410.2,287.5c-0.5-0.3-1.4-0.9-2.3-0.7c-0.2,0-0.3,0.1-0.5,0.3
			c-0.1,0.1-0.2,0.1-0.3,0.2c-0.3,0.2-0.6,0.3-0.9,0.3c-0.3,0-0.4,0-0.5-0.1c-0.1-0.1-0.1-0.1,0-0.2c0,0,0,0,0,0
			c0.1-0.1,0.3-0.2,0.4-0.2c0.1-0.1,0.3-0.1,0.4-0.2c0.2-0.1,0.3-0.2,0.4-0.3c0.1-0.1,0.2-0.2,0.4-0.3c0.3-0.2,0.6-0.2,1-0.2
			c0.1,0,0.1,0,0.2,0c0.1,0,0.1,0,0.2,0c0.5,0,0.9,0.1,1.6,0.4c0.2,0.1,0.4,0.1,0.6,0.2c0,0,0,0,0,0c0,0,0.9,0.3,2.1,0.6
			c1,0.2,2.6,0.6,4,0.7c0,0,0,0,0,0c0,0,0,0,0,0c-0.1,0.2-0.1,0.5-0.2,0.7c-0.3,0.9-0.7,1.9-1.1,2.7c0,0,0,0,0,0c0,0,0,0,0,0
			c-0.7-0.3-2.5-1.1-3.6-1.9c-0.2-0.2-0.4-0.3-0.5-0.4c0,0,0,0,0,0c0,0,0,0,0,0l0,0c0,0,0,0,0,0C-409.1,288.5-409.6,288-410.2,287.5
			 M-409.3,286.1c-0.2-0.1-0.4-0.2-0.6-0.2c-0.7-0.2-1.2-0.4-1.8-0.4c0,0-0.1,0-0.1,0c0,0,0,0,0,0c-0.3-0.2-0.6-0.3-1-0.4
			c0,0,0,0,0,0V283h10.2c0,0,0,0,0,0.1c0,1.5-0.2,2.9-0.5,4.2c0,0,0,0,0,0h0C-406,287.2-409.2,286.2-409.3,286.1 M-401.9,276.3
			C-401.9,276.3-401.9,276.3-401.9,276.3C-401.9,276.3-401.9,276.3-401.9,276.3c0.2,0.4,0.2,0.7,0.2,1c0,0.3,0,0.6-0.1,0.9
			c-0.1,0.3-0.3,0.5-0.3,0.6c0,0,0,0,0,0c0,0,0,0,0,0c-0.4-0.3-0.7-0.7-0.9-1.2c-0.1-0.2-0.1-0.3-0.2-0.5c0,0,0,0,0,0c0,0,0,0,0,0
			c0.4,0.2,0.7,0.5,0.7,0.5c0,0,0.1,0.1,0.2,0c0.1,0,0.1-0.1,0.1-0.1C-402.3,277-402.1,276.6-401.9,276.3 M-403.1,275.9
			c0.1,0,0.1-0.1,0.1-0.1c0-0.6,0.1-1,0.3-1.3c0,0,0,0,0,0c0,0,0,0,0,0c0.2,0.3,0.3,0.7,0.3,1c0,0.3,0,0.6,0,0.9
			c-0.1,0.3-0.2,0.6-0.3,0.7c0,0,0,0,0,0c0,0,0,0,0,0c-0.4-0.2-0.8-0.6-1.1-1.1c-0.1-0.2-0.2-0.3-0.2-0.5c0,0,0,0,0,0c0,0,0,0,0,0
			c0.4,0.2,0.7,0.5,0.7,0.5C-403.2,276-403.1,276-403.1,275.9L-403.1,275.9 M-403.9,274.3c0.1,0,0.1-0.1,0.1-0.2
			c-0.1-0.6,0-1,0.1-1.3c0,0,0,0,0,0h0c0,0,0,0,0,0c0.2,0.3,0.3,0.7,0.4,1c0.1,0.3,0.1,0.6,0.1,0.9c0,0.3-0.1,0.6-0.2,0.7
			c0,0,0,0,0,0c0,0,0,0,0,0c-0.5-0.2-0.9-0.5-1.2-1c-0.1-0.2-0.2-0.3-0.3-0.5c0,0,0,0,0,0c0,0,0,0,0,0c0.4,0.1,0.8,0.4,0.8,0.4
			C-404,274.3-403.9,274.3-403.9,274.3 M-405.1,272.7c0.1,0,0.1,0,0.2,0c0.1,0,0.1-0.1,0.1-0.2c-0.2-0.5-0.1-1-0.1-1.3c0,0,0,0,0,0
			c0,0,0,0,0,0c0.2,0.3,0.4,0.6,0.6,0.9c0.1,0.3,0.2,0.6,0.2,0.9c0,0.3,0,0.6-0.1,0.7c0,0,0,0,0,0l0,0c-0.5-0.1-0.9-0.4-1.3-0.8
			c-0.1-0.1-0.3-0.3-0.4-0.5c0,0,0,0,0,0c0,0,0,0,0,0C-405.4,272.4-405.1,272.7-405.1,272.7 M-406.3,271.3c0.1,0,0.1,0,0.2,0
			c0,0,0.1-0.1,0-0.2c-0.3-0.5-0.3-1-0.3-1.3c0,0,0,0,0,0s0,0,0,0c0.3,0.2,0.5,0.5,0.7,0.8c0.2,0.3,0.3,0.6,0.4,0.9
			c0.1,0.3,0.1,0.6,0,0.7c0,0,0,0,0,0c0,0,0,0,0,0c-0.5,0-1-0.3-1.4-0.5c-0.2-0.1-0.3-0.3-0.5-0.4c0,0,0,0,0,0c0,0,0,0,0,0
			C-406.7,271.1-406.3,271.3-406.3,271.3 M-406.8,270c0.1,0.3,0.1,0.6,0.1,0.8c0,0,0,0,0,0c0,0-0.1,0-0.1,0c-0.7,0-1.5-0.5-1.9-0.7
			c0,0,0,0,0,0c0,0,0,0,0,0c0.4-0.1,0.8,0,0.8,0c0.1,0,0.1,0,0.2-0.1c0-0.1,0-0.1,0-0.2c-0.3-0.3-0.4-0.7-0.5-1c0,0,0,0,0,0
			c0,0,0,0,0,0C-407.4,269.1-407,269.5-406.8,270 M-419.2,268.2C-419.2,268.2-419.2,268.2-419.2,268.2
			C-419.2,268.2-419.2,268.2-419.2,268.2c0.1-0.1,0.3-0.1,0.4-0.2c0.4-0.1,0.8-0.2,1-0.3c0.4-0.1,0.7-0.3,0.7-0.3c0,0,0,0,0-0.1
			c0,0,0,0,0,0l-2.2-0.3c0,0,0,0,0,0s0,0,0,0l2.2-0.3c0,0,0,0,0-0.1c0,0,0-0.1,0-0.1c0,0-0.4-0.1-0.9-0.3c-0.1-0.1-0.2-0.1-0.3-0.2
			c-0.3-0.1-0.5-0.3-0.9-0.3c0,0,0,0,0,0c0,0,0,0,0,0c0.2,0,0.3,0,0.5,0c0.4,0,0.8,0.1,1,0.1c0.4,0.1,0.8,0,0.8,0c0,0,0,0,0,0
			c0,0,0,0,0-0.1l-1.9-1.2c0,0,0,0,0,0c0,0,0,0,0,0l2.2,0.6c0,0,0.1,0,0.1,0c0,0,0-0.1,0-0.1c0,0-0.4-0.2-0.7-0.6
			c-0.1-0.1-0.2-0.2-0.2-0.3c-0.2-0.2-0.3-0.4-0.7-0.6c0,0,0,0,0,0c0,0,0,0,0,0c0.1,0,0.3,0.1,0.4,0.2c0.4,0.2,0.7,0.4,0.9,0.5
			c0.4,0.2,0.7,0.3,0.7,0.3c0,0,0,0,0.1,0c0,0,0,0,0-0.1l-1.4-1.8c0,0,0,0,0,0c0,0,0,0,0,0l1.8,1.3c0,0,0.1,0,0.1,0c0,0,0-0.1,0-0.1
			c0,0-0.3-0.3-0.4-0.8c0-0.1-0.1-0.3-0.1-0.4c-0.1-0.3-0.2-0.5-0.4-0.9c0,0,0,0,0,0c0,0,0,0,0,0c0.1,0.1,0.2,0.2,0.3,0.3
			c0.3,0.3,0.5,0.6,0.6,0.8c0.2,0.4,0.5,0.6,0.5,0.6c0,0,0,0,0.1,0c0,0,0,0,0-0.1l-0.6-2.2c0,0,0,0,0,0c0,0,0,0,0,0l1.2,1.9
			c0,0,0,0,0.1,0c0,0,0,0,0-0.1c0,0-0.1-0.4-0.1-0.9c0-0.1,0-0.3,0-0.4c0-0.3,0.1-0.5,0-0.9c0,0,0,0,0,0c0,0,0,0,0,0
			c0.1,0.1,0.1,0.3,0.2,0.4c0.1,0.4,0.2,0.8,0.3,1c0.1,0.4,0.3,0.7,0.3,0.7c0,0,0,0,0.1,0c0,0,0,0,0,0l0.3-2.2c0,0,0,0,0,0
			c0,0,0,0,0,0l0.3,2.2c0,0,0,0,0.1,0c0,0,0.1,0,0.1,0c0,0,0.1-0.4,0.3-0.9c0.1-0.1,0.1-0.2,0.2-0.3c0.1-0.3,0.3-0.5,0.3-0.9
			c0,0,0,0,0,0c0,0,0,0,0,0c0,0.2,0,0.3,0,0.5c0,0.4-0.1,0.8-0.1,1c-0.1,0.4,0,0.8,0,0.8c0,0,0,0,0,0c0,0,0,0,0.1,0l1.2-1.9
			c0,0,0,0,0,0c0,0,0,0,0,0l-0.6,2.2c0,0,0,0.1,0,0.1c0,0,0.1,0,0.1,0c0,0,0.2-0.4,0.6-0.7c0.1-0.1,0.2-0.2,0.3-0.2
			c0.2-0.2,0.4-0.3,0.6-0.7c0,0,0,0,0,0c0,0,0,0,0,0c0,0.1-0.1,0.3-0.2,0.4c-0.2,0.4-0.4,0.7-0.5,0.9c-0.2,0.4-0.3,0.7-0.3,0.7
			c0,0,0,0,0,0.1c0,0,0,0,0.1,0l1.8-1.4c0,0,0,0,0,0c0,0,0,0,0,0l-1.3,1.8c0,0,0,0.1,0,0.1c0,0,0.1,0,0.1,0c0,0,0.3-0.3,0.8-0.4
			c0.1,0,0.2-0.1,0.4-0.1c0.3-0.1,0.5-0.2,0.9-0.4c0,0,0,0,0,0c0,0,0,0,0,0c-0.1,0.1-0.2,0.2-0.3,0.3c-0.3,0.3-0.6,0.5-0.8,0.6
			c-0.4,0.3-0.6,0.5-0.6,0.5c0,0,0,0,0,0.1c0,0,0,0,0.1,0l2.2-0.6c0,0,0,0,0,0c0,0,0,0,0,0l-1.9,1.2c0,0,0,0,0,0.1c0,0,0,0,0.1,0
			c0,0,0.4-0.1,0.9-0.1c0.1,0,0.3,0,0.4,0c0.3,0,0.5,0.1,0.9,0c0,0,0,0,0,0c0,0,0,0,0,0c-0.1,0.1-0.3,0.1-0.4,0.2
			c-0.4,0.1-0.8,0.2-1,0.3c-0.4,0.1-0.7,0.3-0.7,0.3c0,0,0,0,0,0.1c0,0,0,0,0,0l2.2,0.3c0,0,0,0,0,0c0,0,0,0,0,0l-2.2,0.3
			c0,0,0,0,0,0.1c0,0,0,0.1,0,0.1c0,0,0.4,0.1,0.9,0.3c0.1,0.1,0.2,0.1,0.3,0.2c0.3,0.1,0.5,0.3,0.9,0.3c0,0,0,0,0,0c0,0,0,0,0,0
			c-0.1,0-0.2,0-0.3,0c-0.1,0-0.1,0-0.2,0c-0.4,0-0.8-0.1-1-0.1c0,0,0,0-0.1,0c0,0,0,0,0,0c-0.4-0.2-0.7-0.2-1.1-0.2h0c0,0,0,0,0,0
			c0,0,0,0,0,0c0,0,0,0,0,0c0-0.1-0.1-0.1-0.1-0.1c-0.4-0.1-0.8-0.2-1.2-0.3c0,0,0,0-0.1,0l0,0c0,0,0,0,0,0c0,0,0,0-0.1,0l0,0
			c0,0,0,0,0,0c0,0-0.1,0-0.1,0h0c-0.2,0-0.3,0-0.5,0c0,0,0,0,0,0c0,0,0,0,0,0l0,0c0,0,0,0,0-0.1c0,0,0,0,0,0c0,0-0.1-0.1-0.1-0.1
			c0,0-0.1,0-0.1,0c0,0,0,0,0,0l0,0c0,0,0,0-0.1,0c0,0,0,0,0,0c0,0,0,0-0.1,0c-0.4,0-0.8,0-1.2,0.1c-0.1,0-0.2,0-0.3,0.1
			c0,0,0,0,0,0c0,0,0,0,0,0l0,0c0,0,0,0-0.1,0l0,0c0,0-0.1,0-0.1,0.1c0,0,0,0,0,0c0,0,0,0,0,0l0,0v0c0,0,0,0,0,0l0,0
			c0,0,0-0.1,0-0.1l0,0c0,0,0,0,0,0l0,0c0,0-0.1,0-0.1,0c-0.5,0-1,0.2-1.4,0.3c-0.1,0.1-0.3,0.1-0.4,0.2c0,0,0,0,0,0c0,0,0,0,0,0
			c0,0,0,0,0,0v0l0,0c0-0.1,0-0.1-0.1-0.1l0,0c0,0,0,0,0,0l0,0c0,0,0,0,0,0l0,0c0,0-0.1,0-0.1,0c-0.5,0.1-1,0.4-1.4,0.6c0,0,0,0,0,0
			l0,0c0,0,0,0,0,0c-0.1,0-0.2,0-0.3,0c-0.1,0-0.4,0-0.4,0C-418.6,268.1-418.8,268.1-419.2,268.2 M-418.4,268.6L-418.4,268.6
			C-418.4,268.6-418.3,268.6-418.4,268.6C-418.3,268.6-418.3,268.6-418.4,268.6c0,0.3-0.1,0.8-0.4,1.3c0,0.1,0,0.1,0,0.2
			c0,0.1,0.1,0.1,0.2,0.1c0,0,0.4-0.1,0.8-0.1c0,0,0,0,0,0c0,0,0,0,0,0c-0.4,0.3-1.1,0.8-1.8,0.8c0,0-0.1,0-0.1,0c0,0,0,0,0,0
			C-419.7,270.5-419.6,269.5-418.4,268.6 M-421,271.4c0.1-0.3,0.2-0.6,0.4-0.8c0.2-0.3,0.4-0.5,0.7-0.8c0,0,0,0,0,0c0,0,0,0,0,0
			c0,0.3,0,0.8-0.3,1.3c0,0.1,0,0.1,0,0.2c0,0,0.1,0.1,0.2,0c0,0,0.4-0.1,0.8-0.1c0,0,0,0,0,0c0,0,0,0,0,0c-0.2,0.2-0.3,0.3-0.5,0.4
			c-0.3,0.3-0.8,0.6-1.3,0.6c0,0,0,0-0.1,0c0,0,0,0,0,0C-421.1,272-421.1,271.8-421,271.4 M-421.4,271.2L-421.4,271.2
			C-421.4,271.2-421.4,271.2-421.4,271.2C-421.4,271.2-421.4,271.2-421.4,271.2c0.1,0.3,0.1,0.8-0.1,1.3c0,0.1,0,0.1,0.1,0.2
			c0.1,0,0.1,0,0.2,0c0,0,0.4-0.2,0.8-0.3c0,0,0,0,0,0c0,0,0,0,0,0c-0.3,0.4-0.9,1.1-1.7,1.3h0c0,0,0,0,0,0
			C-422.3,273.3-422.4,272.4-421.4,271.2 M-423.1,273.7c0.1-0.3,0.2-0.6,0.5-0.9c0,0,0,0,0,0c0,0,0,0,0,0c0.1,0.3,0.2,0.7,0.1,1.3
			c0,0.1,0,0.1,0.1,0.2c0.1,0,0.1,0,0.2,0c0,0,0.3-0.3,0.8-0.4c0,0,0,0,0,0c0,0,0,0,0,0c-0.1,0.1-0.2,0.3-0.3,0.5
			c-0.3,0.5-0.8,0.8-1.2,0.9c0,0,0,0,0,0c0,0,0,0,0,0c0-0.1-0.1-0.3-0.2-0.7C-423.3,274.4-423.2,274.1-423.1,273.7 M-424,275.5
			c0-0.3,0.2-0.7,0.3-1c0,0,0,0,0,0c0,0,0,0,0,0c0.1,0.3,0.3,0.7,0.3,1.3c0,0.1,0,0.1,0.1,0.1c0.1,0,0.1,0,0.2,0
			c0,0,0.4-0.3,0.8-0.5c0,0,0,0,0,0c0,0,0,0,0,0c0,0.2-0.1,0.3-0.2,0.5c-0.2,0.5-0.6,0.9-1.2,1.2c0,0,0,0,0,0c0,0,0,0,0,0
			c-0.1-0.1-0.2-0.3-0.3-0.7C-424.1,276.1-424.1,275.8-424,275.5 M-424.5,276.3C-424.5,276.3-424.5,276.3-424.5,276.3
			C-424.5,276.3-424.5,276.3-424.5,276.3c0.2,0.2,0.4,0.7,0.5,1.2c0,0.1,0,0.1,0.1,0.1c0.1,0,0.1,0,0.2,0c0,0,0.3-0.3,0.7-0.6
			c0,0,0,0,0,0c0,0,0,0,0,0c0,0.2-0.1,0.3-0.1,0.5c-0.2,0.5-0.5,1-1,1.3c0,0,0,0,0,0c0,0,0,0,0,0c-0.1-0.1-0.2-0.3-0.3-0.6
			c-0.1-0.3-0.1-0.6-0.1-0.9C-424.7,277-424.6,276.7-424.5,276.3 M-425.1,278.2L-425.1,278.2C-425.1,278.2-425.1,278.2-425.1,278.2
			C-425.1,278.2-425.1,278.2-425.1,278.2c0.2,0.2,0.5,0.6,0.6,1.2c0,0.1,0.1,0.1,0.1,0.1c0.1,0,0.1,0,0.2-0.1c0,0,0.3-0.4,0.6-0.6
			c0,0,0,0,0,0c0,0,0,0,0,0c0,0.2,0,0.3-0.1,0.5c-0.1,0.6-0.4,1-0.8,1.4c0,0,0,0,0,0c0,0,0,0,0,0c-0.1-0.1-0.3-0.3-0.4-0.6
			c-0.1-0.3-0.2-0.6-0.2-0.9C-425.2,279-425.2,278.6-425.1,278.2 M-425.4,280.2C-425.4,280.2-425.4,280.1-425.4,280.2
			C-425.4,280.1-425.4,280.1-425.4,280.2c0.2,0.2,0.5,0.6,0.7,1.1c0,0.1,0.1,0.1,0.1,0.1c0.1,0,0.1,0,0.2-0.1c0,0,0.2-0.4,0.5-0.7
			c0,0,0,0,0,0c0,0,0,0,0,0c0,0.2,0,0.4,0,0.6c-0.1,0.6-0.3,1.1-0.7,1.4c0,0,0,0,0,0c0,0,0,0,0,0c-0.1-0.1-0.3-0.2-0.4-0.6
			c-0.1-0.3-0.2-0.6-0.3-0.9C-425.4,280.9-425.4,280.5-425.4,280.2 M-425.5,282.2L-425.5,282.2
			C-425.5,282.2-425.5,282.2-425.5,282.2C-425.5,282.2-425.5,282.2-425.5,282.2c0.1,0,0.1,0.1,0.2,0.1c0.2,0.2,0.4,0.5,0.6,1
			c0,0.1,0.1,0.1,0.1,0.1c0,0,0,0,0,0c0.1,0,0.1-0.1,0.1-0.1c0,0,0.1-0.4,0.4-0.7c0,0,0,0,0,0c0,0,0,0,0,0c0,0.2,0.1,0.6,0,1
			c-0.1,0.4-0.3,0.8-0.6,1.1c0,0,0,0,0,0c0,0,0,0,0,0C-425,284.4-425.6,283.7-425.5,282.2 M-425.6,284.1
			C-425.6,284.1-425.6,284.1-425.6,284.1c0.1,0,0.1,0.1,0.2,0.1c0.2,0.2,0.5,0.5,0.7,0.9c0,0.1,0.1,0.1,0.1,0.1l0,0l0,0
			c0.1,0,0.1,0,0.1-0.1c0,0,0.2-0.4,0.5-0.8c0,0,0,0,0,0c0,0,0,0,0,0c0.1,0.4,0.1,1.2-0.5,2.1c0,0,0,0,0,0c0,0,0,0,0,0
			C-424.8,286.3-425.6,285.7-425.6,284.1C-425.6,284.1-425.6,284.1-425.6,284.1 M-425.5,286.2L-425.5,286.2
			C-425.5,286.2-425.5,286.1-425.5,286.2C-425.5,286.1-425.5,286.1-425.5,286.2c0.3,0.1,0.7,0.4,1,0.9c0,0.1,0.1,0.1,0.2,0.1
			c0.1,0,0.1-0.1,0.1-0.1l0,0c0,0,0.1-0.5,0.3-0.9c0,0,0,0,0,0h0c0,0,0,0,0,0c0.1,0.2,0.1,0.3,0.2,0.5c0.1,0.6,0,1.1-0.3,1.6
			c0,0,0,0,0,0c0,0,0,0,0,0c-0.1,0-0.3-0.1-0.6-0.4c-0.2-0.2-0.4-0.4-0.6-0.7C-425.3,286.9-425.4,286.5-425.5,286.2 M-425.1,288.1
			L-425.1,288.1C-425.1,288-425.1,288-425.1,288.1C-425.1,288-425,288-425.1,288.1c0.1,0,0.1,0,0.2,0c0.2,0.1,0.6,0.3,0.9,0.7
			c0,0,0.1,0.1,0.2,0.1c0.1,0,0.1-0.1,0.1-0.1c0,0,0.1-0.5,0.3-0.8c0,0,0,0,0,0c0,0,0,0,0,0c0.2,0.4,0.5,1.2,0.1,2.1c0,0,0,0,0,0
			c0,0,0,0,0,0C-423.7,289.9-424.6,289.5-425.1,288.1 M-423.9,290.8c-0.2-0.3-0.4-0.6-0.5-0.9c0,0,0,0,0,0c0,0,0,0,0,0
			c0.1,0,0.1,0,0.2,0.1c0.2,0.1,0.6,0.3,1,0.6c0,0,0.1,0.1,0.2,0c0.1,0,0.1-0.1,0.1-0.1c0,0,0-0.4,0.1-0.9c0,0,0,0,0,0c0,0,0,0,0,0
			c0.1,0.2,0.2,0.3,0.2,0.5c0.2,0.6,0.2,1.1,0.1,1.6c0,0,0,0,0,0l0,0c-0.1,0-0.4-0.1-0.7-0.3C-423.5,291.3-423.7,291.1-423.9,290.8
			 M-423.7,291.7C-423.7,291.7-423.7,291.7-423.7,291.7C-423.6,291.7-423.6,291.7-423.7,291.7c0.3,0,0.8,0.2,1.2,0.5
			c0,0,0.1,0,0.2,0c0.1,0,0.1-0.1,0.1-0.2c0,0,0-0.4,0-0.8c0,0,0,0,0,0c0,0,0,0,0,0c0.1,0.2,0.2,0.3,0.3,0.5
			c0.2,0.4,0.4,0.9,0.3,1.5c0,0,0,0,0,0c-0.1,0-0.4,0-0.7-0.2c-0.3-0.1-0.5-0.3-0.8-0.5C-423.3,292.3-423.5,292.1-423.7,291.7
			 M-421.9,294.2c-0.3-0.2-0.5-0.5-0.7-0.8c0,0,0,0,0,0c0,0,0,0,0,0c0.3,0,0.8,0.1,1.3,0.4c0.1,0,0.1,0,0.2,0c0.1,0,0.1-0.1,0.1-0.2
			c0,0-0.1-0.4-0.1-0.8c0,0,0,0,0,0c0,0,0,0,0,0c0.3,0.4,0.8,1.1,0.8,1.9c0,0,0,0,0,0c0,0-0.1,0-0.1,0c-0.1,0-0.4,0-0.6-0.1
			C-421.4,294.5-421.7,294.4-421.9,294.2 M-419.1,296c0,0-0.1,0-0.3,0c-0.1,0-0.3,0-0.4,0c-0.5-0.1-1.1-0.4-1.7-1c0,0,0,0,0,0
			c0,0,0,0,0,0c0.3,0,0.8,0,1.3,0.2c0.1,0,0.1,0,0.2,0c0,0,0.1-0.1,0-0.2c0,0-0.2-0.4-0.2-0.8c0,0,0,0,0,0c0,0,0,0,0,0
			C-419.7,294.5-419.1,295.1-419.1,296C-419.1,296-419.1,296-419.1,296 M-415.4,297.7c-0.4-0.1-0.9-0.3-1.3-0.4
			c-0.7-0.3-1.4-0.7-2.1-1.2c0,0,0,0,0,0c0-0.3,0-0.5-0.1-0.8c0,0,0,0,0,0c0,0,0,0,0,0c0.5,0.4,1,0.8,1.4,1c0.6,0.3,1.2,0.6,1.8,0.8
			v0l0.2,0C-415.5,297.3-415.5,297.5-415.4,297.7L-415.4,297.7z M-414.4,297.2c-0.1,0.2-0.1,0.4,0,0.7c0,0,0,0,0,0c0,0,0,0,0,0
			c0,0,0,0,0,0c-0.3-0.1-0.5-0.2-0.6-0.4c-0.1-0.1-0.1-0.3-0.1-0.4c0-0.1,0.1-0.2,0.2-0.3c0.2-0.1,0.5-0.1,0.9-0.1c0,0,0,0,0,0
			c0,0,0,0,0,0C-414.2,296.8-414.3,297-414.4,297.2 M-413.2,299.1c-0.3,0-0.5-0.2-0.5-0.5c0-0.3,0.2-0.5,0.5-0.5
			c0.3,0,0.5,0.2,0.5,0.5C-412.7,298.9-412.9,299.1-413.2,299.1 M-412.5,297.9C-412.5,297.9-412.6,297.9-412.5,297.9
			c-0.2-0.1-0.4-0.2-0.7-0.2c-0.2,0-0.4,0.1-0.6,0.2c0,0,0,0,0,0c0,0,0,0,0,0c-0.1-0.1-0.3-0.4-0.2-0.6c0.2-0.5,0.8-0.5,0.9-0.5h0
			c0,0,0.2,0,0.4,0.1c0.2,0.1,0.4,0.2,0.5,0.4C-412.3,297.5-412.4,297.8-412.5,297.9 M-411.4,297.5c-0.1,0.1-0.3,0.3-0.6,0.4
			c0,0,0,0,0,0c0,0,0,0,0,0c0,0,0,0,0,0c0.1-0.2,0.1-0.4,0-0.7c-0.1-0.2-0.2-0.3-0.4-0.5c0,0,0,0,0,0c0,0,0,0,0,0
			c0.3,0,0.7,0,0.9,0.1c0.1,0.1,0.2,0.2,0.2,0.3C-411.2,297.2-411.3,297.4-411.4,297.5 M-407.6,296
			C-407.6,296-407.6,296.1-407.6,296c-0.2,0.1-0.7,0.5-1.5,1c-0.6,0.3-1.2,0.5-1.8,0.7l-0.1,0c0.1-0.2,0.2-0.4,0.2-0.6l0.2-0.1v0
			c0.6-0.2,1.2-0.4,1.7-0.8c0.5-0.3,1-0.7,1.5-1c0,0,0,0,0,0c0,0,0,0,0,0C-407.5,295.5-407.6,295.8-407.6,296 M-409.1,296
			c-0.6,0.3-1.2,0.6-1.8,0.7l-0.1,0c-0.1-0.1-0.1-0.2-0.3-0.3c-0.6-0.4-1.7-0.1-2,0c0,0,0,0,0,0c-0.3-0.1-1.4-0.4-2,0
			c-0.1,0.1-0.2,0.2-0.3,0.3l-0.1,0c-0.6-0.2-1.2-0.4-1.7-0.7c-1.2-0.7-2.4-1.7-3.3-3c-0.3-0.4-0.6-0.9-0.9-1.4c0,0,0,0,0,0
			c0,0,0,0,0,0c0.7-0.3,2.4-1.1,3.8-1.8c0,0,0,0,0,0c0,0,0,0,0,0c0,0.1,0,0.1,0.1,0.2c0.1,0.3,0.4,0.4,0.7,0.4c0.1,0,0.2,0,0.2,0
			c0,0,0,0,0,0c0.1,0.2,0.3,0.4,0.6,0.5c0.1,0,0.2,0.1,0.3,0.1c0,0,0,0,0,0c0.1,0.1,0.1,0.2,0.2,0.3c0.3,0.2,0.7,0.2,0.9,0.1
			c0,0,0,0,0,0c0.1,0.2,0.3,0.3,0.5,0.3c0.2,0,0.4,0,0.6-0.1c0,0,0,0,0,0c0,0,0,0,0,0v2.6c0,0.2,0.1,0.3,0.3,0.3
			c0.2,0,0.3-0.1,0.3-0.3v-2.7c0,0,0,0,0,0c0,0,0,0,0,0c0.4,0.1,0.6,0,0.8-0.1c0.2-0.1,0.3-0.1,0.3-0.2c0,0,0,0,0,0
			c0.3,0.1,0.6,0,0.9-0.3c0.1-0.1,0.1-0.1,0.2-0.2c0,0,0,0,0,0h0c0,0,0,0,0.1,0c0.4,0,0.7-0.2,0.8-0.3c0.1-0.1,0.1-0.2,0.2-0.3
			c0,0,0,0,0,0c0.3,0,0.5-0.1,0.7-0.3c0.1-0.1,0.1-0.2,0.2-0.3c0,0,0,0,0,0c0,0,0,0,0,0c1.2,0.9,3.1,1.7,3.8,2.1c0,0,0,0,0,0
			c0,0,0,0,0,0c-0.3,0.5-0.6,0.9-0.9,1.3C-406.8,294.3-407.9,295.3-409.1,296 M-404.9,295.1L-404.9,295.1c-0.7,0.7-1.3,0.9-1.7,1
			c-0.1,0-0.3,0-0.4,0c-0.1,0-0.2,0-0.3,0c0,0,0,0,0,0c0-0.5,0.2-1,0.6-1.4c0.1-0.1,0.3-0.3,0.4-0.4c0,0,0,0,0,0c0,0,0,0,0,0
			c0,0.4-0.2,0.8-0.2,0.8c0,0.1,0,0.1,0,0.2c0,0,0.1,0.1,0.2,0C-405.7,295-405.2,295-404.9,295.1C-404.9,295-404.9,295-404.9,295.1
			C-404.9,295.1-404.9,295.1-404.9,295.1 M-403.7,293.4c-0.2,0.3-0.5,0.6-0.7,0.8c-0.3,0.2-0.5,0.4-0.8,0.4
			c-0.3,0.1-0.5,0.1-0.6,0.1c0,0-0.1,0-0.1,0c0,0,0,0,0,0c0-0.5,0.1-1,0.4-1.5c0.1-0.2,0.2-0.3,0.3-0.4c0,0,0,0,0,0c0,0,0,0,0,0
			c0,0.4,0,0.8,0,0.9c0,0.1,0,0.1,0.1,0.2c0.1,0,0.1,0,0.2,0C-404.5,293.5-404,293.4-403.7,293.4
			C-403.7,293.4-403.7,293.4-403.7,293.4C-403.7,293.4-403.7,293.4-403.7,293.4 M-402.7,291.7c-0.2,0.3-0.4,0.6-0.6,0.8
			c-0.2,0.2-0.5,0.4-0.8,0.5c-0.3,0.1-0.6,0.2-0.7,0.2c0,0,0,0,0,0c-0.1-0.5,0-1,0.3-1.5c0.1-0.2,0.2-0.3,0.3-0.5c0,0,0,0,0,0
			c0,0,0,0,0,0c0.1,0.4,0,0.9,0,0.9c0,0.1,0,0.1,0.1,0.2c0.1,0,0.1,0,0.2,0C-403.5,291.9-403,291.8-402.7,291.7
			C-402.7,291.7-402.7,291.7-402.7,291.7C-402.7,291.7-402.7,291.7-402.7,291.7 M-401.9,289.9L-401.9,289.9
			c-0.2,0.4-0.3,0.7-0.5,0.9c-0.2,0.3-0.4,0.5-0.7,0.6c-0.3,0.2-0.5,0.2-0.7,0.3l0,0c0,0,0,0,0,0c-0.1-0.5-0.1-1,0.1-1.6
			c0.1-0.2,0.1-0.3,0.2-0.5c0,0,0,0,0,0c0,0,0,0,0,0c0.1,0.4,0.2,0.8,0.2,0.8c0,0.1,0,0.1,0.1,0.1c0.1,0,0.1,0,0.2,0l0,0
			c0.4-0.4,0.7-0.6,1-0.7C-402,289.9-402,289.9-401.9,289.9C-401.9,289.9-401.9,289.9-401.9,289.9
			C-401.9,289.9-401.9,289.9-401.9,289.9 M-401.3,288L-401.3,288c-0.1,0.4-0.3,0.7-0.4,0.9c-0.2,0.3-0.4,0.5-0.6,0.7
			c-0.3,0.2-0.5,0.3-0.6,0.3c0,0,0,0,0,0c0,0,0,0,0,0c-0.2-0.6-0.2-1.2-0.1-1.6c0-0.2,0.1-0.4,0.2-0.5c0,0,0,0,0,0c0,0,0,0,0,0
			c0.2,0.4,0.2,0.9,0.2,0.9c0,0.1,0.1,0.1,0.1,0.1c0.1,0,0.1,0,0.2-0.1C-402,288.4-401.6,288.1-401.3,288
			C-401.3,288-401.3,288-401.3,288C-401.3,288-401.3,288-401.3,288 M-401.2,287.1c-0.1,0.3-0.3,0.5-0.5,0.7
			c-0.2,0.2-0.5,0.3-0.6,0.4c0,0,0,0,0,0c0,0,0,0,0,0c-0.2-0.4-0.3-1-0.3-1.6c0-0.2,0.1-0.4,0.1-0.6c0,0,0,0,0,0c0,0,0,0,0,0
			c0.2,0.4,0.3,0.8,0.3,0.9c0,0.1,0.1,0.1,0.1,0.1c0.1,0,0.1,0,0.2-0.1c0.3-0.5,0.7-0.8,0.9-0.9c0,0,0,0,0,0c0,0,0,0,0,0
			C-401,286.5-401.1,286.8-401.2,287.1"/>
		<path id="XMLID_344_" class="st0" d="M-385.9,291.8l-0.7-2.2c0-0.1-0.1-0.1-0.2-0.1h-3c-0.1,0-0.1,0.1-0.2,0.1l-0.7,2.2
			c0,0.1-0.1,0.1-0.2,0.1h-1.1c-0.1,0-0.2-0.1-0.2-0.2l2.7-8c0-0.1,0.1-0.1,0.2-0.1h1.9c0.1,0,0.1,0,0.2,0.1l2.7,8
			c0,0.1,0,0.2-0.2,0.2h-1.1C-385.8,291.9-385.8,291.9-385.9,291.8 M-389.2,288.3h2c0.1,0,0.2-0.1,0.2-0.2l-1-3
			c-0.1-0.2-0.3-0.2-0.3,0l-1,3C-389.4,288.2-389.4,288.3-389.2,288.3"/>
		<path id="XMLID_343_" class="st0" d="M-383.3,285.7h0.9c0.1,0,0.2,0.1,0.2,0.2l0.1,0.6h0.1c0.2-0.3,0.4-0.5,0.7-0.7
			c0.3-0.1,0.6-0.2,1-0.2c0.1,0,0.2,0,0.3,0c0.1,0,0.2,0.1,0.2,0.2v1c0,0.1-0.1,0.2-0.2,0.2c-0.1,0-0.2,0-0.4,0
			c-0.3,0-0.6,0.1-0.9,0.2c-0.3,0.1-0.5,0.3-0.6,0.5c0,0,0,0.1,0,0.1v4c0,0.1-0.1,0.2-0.2,0.2h-1.1c-0.1,0-0.2-0.1-0.2-0.2v-5.8
			C-383.5,285.8-383.4,285.7-383.3,285.7"/>
		<path id="XMLID_340_" class="st0" d="M-378.1,294.4c-0.3,0-0.6-0.1-0.8-0.2c-0.1,0-0.1-0.1-0.1-0.2v-0.8c0-0.1,0.1-0.2,0.2-0.2
			c0.6,0.1,1.1,0.2,1.6,0.2c0.4,0,0.8-0.1,1-0.2c0.3-0.1,0.5-0.3,0.6-0.5c0.1-0.2,0.2-0.6,0.2-0.9v-0.5h-0.1
			c-0.2,0.2-0.4,0.4-0.7,0.5c-0.3,0.1-0.6,0.2-0.9,0.2c-0.4,0-0.8-0.1-1.2-0.3c-0.4-0.2-0.6-0.5-0.9-1c-0.2-0.5-0.3-1-0.3-1.7
			c0-1.1,0.3-1.9,0.8-2.5c0.6-0.6,1.4-0.8,2.5-0.8c0.4,0,0.8,0,1.1,0.1c0.3,0,0.7,0.1,0.9,0.2c0.1,0,0.1,0.1,0.1,0.2v5.4
			c0,0.7-0.1,1.3-0.3,1.7c-0.2,0.4-0.6,0.8-1,1c-0.5,0.2-1.1,0.3-1.8,0.3C-377.4,294.5-377.8,294.5-378.1,294.4 M-375.9,290.6
			c0.2-0.1,0.3-0.2,0.5-0.3c0,0,0-0.1,0-0.1V287c0-0.1-0.1-0.2-0.1-0.2c-0.2,0-0.5-0.1-0.7-0.1c-0.6,0-1,0.2-1.3,0.5
			c-0.3,0.3-0.4,0.8-0.4,1.5c0,0.7,0.1,1.2,0.4,1.5c0.2,0.3,0.6,0.4,1.1,0.4C-376.3,290.7-376.1,290.7-375.9,290.6"/>
		<path id="XMLID_337_" class="st0" d="M-367.6,289.3h-3.4c-0.1,0-0.2,0.1-0.2,0.2c0,0.3,0.1,0.6,0.2,0.7c0.1,0.2,0.3,0.4,0.6,0.5
			c0.3,0.1,0.6,0.2,1.1,0.2c0.4,0,0.8-0.1,1.3-0.2c0.1,0,0.2,0.1,0.2,0.2v0.8c0,0.1-0.1,0.2-0.1,0.2c-0.5,0.1-1.1,0.2-1.6,0.2
			c-0.7,0-1.3-0.1-1.8-0.3c-0.5-0.2-0.8-0.6-1.1-1c-0.2-0.5-0.4-1.1-0.4-1.8c0-0.7,0.1-1.3,0.3-1.7c0.2-0.5,0.5-0.8,0.9-1.1
			c0.4-0.2,0.9-0.4,1.5-0.4c0.8,0,1.5,0.3,1.9,0.8c0.4,0.5,0.7,1.3,0.7,2.4v0.2C-367.4,289.2-367.5,289.3-367.6,289.3 M-370.9,287
			c-0.2,0.2-0.3,0.6-0.3,1.2c0,0.1,0.1,0.2,0.2,0.2h2.1c0.1,0,0.2-0.1,0.2-0.2c0-0.5-0.1-0.9-0.3-1.2c-0.2-0.3-0.5-0.4-0.9-0.4
			C-370.4,286.6-370.7,286.7-370.9,287"/>
		<path id="XMLID_336_" class="st0" d="M-366.2,285.7h0.9c0.1,0,0.2,0.1,0.2,0.2l0.1,0.5h0.1c0.2-0.2,0.5-0.4,0.8-0.6
			c0.3-0.1,0.7-0.2,1-0.2c0.6,0,1.1,0.2,1.5,0.6c0.4,0.4,0.6,1,0.6,1.8v3.7c0,0.1-0.1,0.2-0.2,0.2h-1.1c-0.1,0-0.2-0.1-0.2-0.2v-3.7
			c0-0.4-0.1-0.7-0.3-0.9c-0.2-0.2-0.4-0.3-0.8-0.3c-0.2,0-0.5,0.1-0.7,0.2c-0.2,0.1-0.4,0.2-0.6,0.4c0,0,0,0.1,0,0.1v4.1
			c0,0.1-0.1,0.2-0.2,0.2h-1.1c-0.1,0-0.2-0.1-0.2-0.2v-5.8C-366.3,285.8-366.3,285.7-366.2,285.7"/>
		<path id="XMLID_335_" class="st0" d="M-355.9,290.9v0.8c0,0.1-0.1,0.2-0.1,0.2c-0.3,0.1-0.6,0.1-0.9,0.1c-1.5,0-2.2-0.7-2.2-2.2
			v-2.7c0-0.1-0.1-0.2-0.2-0.2h-0.7c-0.1,0-0.2-0.1-0.2-0.2v-0.8c0-0.1,0.1-0.2,0.2-0.2h0.7c0.1,0,0.2-0.1,0.2-0.2l0.2-1.9
			c0-0.1,0.1-0.2,0.2-0.2h0.9c0.1,0,0.2,0.1,0.2,0.2v1.8c0,0.1,0.1,0.2,0.2,0.2h1.4c0.1,0,0.2,0.1,0.2,0.2v0.8
			c0,0.1-0.1,0.2-0.2,0.2h-1.4c-0.1,0-0.2,0.1-0.2,0.2v2.5c0,0.3,0,0.5,0.1,0.7c0.1,0.2,0.2,0.3,0.4,0.4c0.2,0.1,0.4,0.1,0.6,0.1
			c0.1,0,0.3,0,0.5,0C-356,290.7-355.9,290.8-355.9,290.9"/>
		<path id="XMLID_332_" class="st0" d="M-354.8,284.5c-0.2-0.1-0.2-0.3-0.2-0.6c0-0.3,0.1-0.5,0.2-0.6c0.2-0.1,0.4-0.2,0.7-0.2
			s0.5,0.1,0.7,0.2c0.2,0.1,0.2,0.3,0.2,0.6c0,0.3-0.1,0.5-0.2,0.6c-0.2,0.1-0.4,0.2-0.7,0.2S-354.7,284.6-354.8,284.5
			 M-354.9,291.7v-5.8c0-0.1,0.1-0.2,0.2-0.2h1.1c0.1,0,0.2,0.1,0.2,0.2v5.8c0,0.1-0.1,0.2-0.2,0.2h-1.1
			C-354.8,291.9-354.9,291.8-354.9,291.7"/>
		<path id="XMLID_331_" class="st0" d="M-352,285.7h0.9c0.1,0,0.2,0.1,0.2,0.2l0.1,0.5h0.1c0.2-0.2,0.5-0.4,0.8-0.6
			c0.3-0.1,0.7-0.2,1-0.2c0.6,0,1.1,0.2,1.5,0.6c0.4,0.4,0.6,1,0.6,1.8v3.7c0,0.1-0.1,0.2-0.2,0.2h-1.1c-0.1,0-0.2-0.1-0.2-0.2v-3.7
			c0-0.4-0.1-0.7-0.3-0.9c-0.2-0.2-0.4-0.3-0.8-0.3c-0.2,0-0.5,0.1-0.7,0.2c-0.2,0.1-0.4,0.2-0.6,0.4c0,0,0,0.1,0,0.1v4.1
			c0,0.1-0.1,0.2-0.2,0.2h-1.1c-0.1,0-0.2-0.1-0.2-0.2v-5.8C-352.2,285.8-352.1,285.7-352,285.7"/>
		<path id="XMLID_328_" class="st0" d="M-341.9,285.9c0.4,0.2,0.7,0.4,0.9,0.8c0.2,0.4,0.3,0.8,0.3,1.5v3.6c0,0.1-0.1,0.2-0.2,0.2
			h-0.9c-0.1,0-0.2-0.1-0.2-0.2l-0.1-0.5h-0.1c-0.2,0.2-0.4,0.4-0.7,0.6c-0.3,0.1-0.6,0.2-1,0.2c-0.4,0-0.8-0.1-1-0.2
			c-0.3-0.1-0.5-0.3-0.7-0.6c-0.2-0.3-0.2-0.6-0.2-0.9c0-0.6,0.2-1,0.6-1.3c0.4-0.3,1-0.5,1.9-0.6l1.2-0.1V288c0-0.3,0-0.6-0.1-0.7
			c-0.1-0.2-0.3-0.3-0.5-0.4c-0.2-0.1-0.5-0.1-0.9-0.1c-0.3,0-0.5,0-0.8,0.1c-0.2,0-0.4,0.1-0.6,0.1c-0.1,0-0.2-0.1-0.2-0.2V286
			c0-0.1,0.1-0.2,0.1-0.2c0.2-0.1,0.5-0.1,0.8-0.2c0.3,0,0.7-0.1,1-0.1C-342.8,285.6-342.3,285.7-341.9,285.9 M-342.7,290.8
			c0.2-0.1,0.4-0.2,0.5-0.3c0,0,0.1-0.1,0.1-0.1v-1c0-0.1-0.1-0.2-0.2-0.2l-0.8,0.1c-0.4,0-0.7,0.1-0.9,0.3
			c-0.2,0.1-0.3,0.4-0.3,0.6c0,0.3,0.1,0.5,0.2,0.6c0.2,0.1,0.4,0.2,0.7,0.2C-343.1,291-342.9,290.9-342.7,290.8"/>
	</g>
	<g id="XMLID_283_">
		<path id="XMLID_325_" class="st0" d="M-386.5,272.7h1.3v6.1h-1v-4.6l-1.7,3.8h-0.9l-1.7-3.7v4.5h-1v-6.1h1.3l1.9,4.1L-386.5,272.7
			z"/>
		<path id="XMLID_322_" class="st0" d="M-383.9,273.4c-0.1-0.1-0.2-0.2-0.2-0.4s0.1-0.3,0.2-0.4c0.1-0.1,0.3-0.2,0.5-0.2
			c0.2,0,0.4,0.1,0.5,0.2c0.1,0.1,0.2,0.2,0.2,0.4s-0.1,0.3-0.2,0.4c-0.1,0.1-0.3,0.2-0.5,0.2C-383.7,273.5-383.8,273.5-383.9,273.4
			z M-384,278.8v-4.5h1.1v4.5H-384z"/>
		<path id="XMLID_320_" class="st0" d="M-381.8,274.3h0.9l0.1,0.5h0.1c0.2-0.2,0.4-0.3,0.6-0.4c0.2-0.1,0.5-0.1,0.7-0.1
			c0.5,0,0.8,0.1,1.1,0.4c0.3,0.3,0.4,0.7,0.4,1.3v2.9h-1.1V276c0-0.3-0.1-0.5-0.2-0.6s-0.3-0.2-0.6-0.2c-0.2,0-0.4,0-0.5,0.1
			c-0.2,0.1-0.3,0.2-0.4,0.3v3.2h-1.1V274.3z"/>
		<path id="XMLID_317_" class="st0" d="M-376.8,273.4c-0.1-0.1-0.2-0.2-0.2-0.4s0.1-0.3,0.2-0.4c0.1-0.1,0.3-0.2,0.5-0.2
			c0.2,0,0.4,0.1,0.5,0.2c0.1,0.1,0.2,0.2,0.2,0.4s-0.1,0.3-0.2,0.4c-0.1,0.1-0.3,0.2-0.5,0.2C-376.5,273.5-376.7,273.5-376.8,273.4
			z M-376.9,278.8v-4.5h1.1v4.5H-376.9z"/>
		<path id="XMLID_315_" class="st0" d="M-374.8,278.7v-0.8c0.4,0.1,0.9,0.2,1.4,0.2c0.3,0,0.6,0,0.7-0.1c0.1-0.1,0.2-0.2,0.2-0.4
			c0-0.1,0-0.3-0.1-0.3c-0.1-0.1-0.2-0.1-0.4-0.2l-0.7-0.1c-0.4-0.1-0.7-0.2-0.9-0.4c-0.2-0.2-0.3-0.5-0.3-0.8
			c0-0.3,0.1-0.5,0.2-0.7c0.1-0.2,0.4-0.4,0.7-0.5c0.3-0.1,0.7-0.2,1.1-0.2c0.4,0,0.8,0,1.2,0.1v0.8c-0.4-0.1-0.7-0.1-1.1-0.1
			c-0.7,0-1,0.2-1,0.6c0,0.1,0,0.2,0.1,0.3c0.1,0.1,0.2,0.1,0.4,0.2l0.7,0.1c0.4,0.1,0.7,0.2,0.9,0.4c0.2,0.2,0.3,0.5,0.3,0.9
			c0,0.3-0.1,0.5-0.2,0.7c-0.1,0.2-0.4,0.4-0.7,0.5c-0.3,0.1-0.6,0.2-1,0.2C-374,278.9-374.4,278.8-374.8,278.7z"/>
		<path id="XMLID_313_" class="st0" d="M-368.1,277.9v0.9c-0.3,0.1-0.5,0.1-0.8,0.1c-1.1,0-1.6-0.5-1.6-1.6v-2.1h-0.8v-0.9h0.8
			l0.2-1.6h0.9v1.6h1.3v0.9h-1.3v1.9c0,0.2,0,0.4,0.1,0.5s0.1,0.2,0.3,0.3c0.1,0.1,0.3,0.1,0.5,0.1
			C-368.5,278-368.3,278-368.1,277.9z"/>
		<path id="XMLID_310_" class="st0" d="M-363.8,276.9h-2.8c0,0.3,0.1,0.5,0.2,0.7c0.1,0.2,0.2,0.3,0.4,0.4c0.2,0.1,0.5,0.1,0.8,0.1
			c0.3,0,0.7-0.1,1.1-0.2v0.8c-0.4,0.1-0.9,0.2-1.3,0.2c-0.5,0-1-0.1-1.3-0.2c-0.3-0.2-0.6-0.4-0.8-0.8c-0.2-0.3-0.3-0.8-0.3-1.3
			c0-0.5,0.1-0.9,0.2-1.3c0.2-0.3,0.4-0.6,0.7-0.8c0.3-0.2,0.7-0.3,1.1-0.3c0.6,0,1.1,0.2,1.4,0.6c0.3,0.4,0.5,1,0.5,1.8V276.9z
			 M-366.4,275.2c-0.2,0.2-0.2,0.5-0.2,1h1.8c0-0.5-0.1-0.8-0.2-1c-0.1-0.2-0.4-0.3-0.6-0.3C-366,274.9-366.2,275-366.4,275.2z"/>
		<path id="XMLID_308_" class="st0" d="M-363,274.3h0.9l0.1,0.6h0.1c0.1-0.2,0.3-0.4,0.5-0.5c0.2-0.1,0.5-0.2,0.7-0.2
			c0.1,0,0.2,0,0.4,0v1c-0.1,0-0.2,0-0.4,0c-0.2,0-0.4,0-0.6,0.1c-0.2,0.1-0.4,0.2-0.5,0.4v3.1h-1.1V274.3z"/>
		<path id="XMLID_305_" class="st0" d="M-359.7,273.4c-0.1-0.1-0.2-0.2-0.2-0.4s0.1-0.3,0.2-0.4c0.1-0.1,0.3-0.2,0.5-0.2
			c0.2,0,0.4,0.1,0.5,0.2c0.1,0.1,0.2,0.2,0.2,0.4s-0.1,0.3-0.2,0.4c-0.1,0.1-0.3,0.2-0.5,0.2C-359.4,273.5-359.6,273.5-359.7,273.4
			z M-359.7,278.8v-4.5h1.1v4.5H-359.7z"/>
		<path id="XMLID_302_" class="st0" d="M-357.2,278.3c-0.4-0.4-0.6-1-0.6-1.7c0-0.8,0.2-1.4,0.5-1.8s0.9-0.6,1.6-0.6
			c0.7,0,1.2,0.2,1.6,0.6s0.5,1,0.5,1.8c0,0.5-0.1,1-0.3,1.3c-0.2,0.3-0.4,0.6-0.7,0.8c-0.3,0.2-0.7,0.3-1.1,0.3
			C-356.3,278.9-356.9,278.7-357.2,278.3z M-354.9,277.7c0.2-0.2,0.3-0.6,0.3-1.2c0-0.5-0.1-0.9-0.3-1.2c-0.2-0.2-0.4-0.3-0.8-0.3
			s-0.6,0.1-0.8,0.3c-0.2,0.2-0.3,0.6-0.3,1.2c0,0.4,0,0.7,0.1,0.9c0.1,0.2,0.2,0.4,0.3,0.5c0.1,0.1,0.3,0.1,0.6,0.1
			C-355.4,278-355.1,277.9-354.9,277.7z"/>
		<path id="XMLID_299_" class="st0" d="M-350,278.7c-0.3-0.2-0.5-0.4-0.7-0.7c-0.2-0.3-0.2-0.8-0.2-1.3c0-0.8,0.2-1.4,0.6-1.8
			c0.4-0.4,1-0.6,1.8-0.6c0.2,0,0.4,0,0.6,0v-2.1h1.1v6.7h-0.9l-0.1-0.5h-0.1c-0.1,0.2-0.3,0.3-0.5,0.4c-0.2,0.1-0.4,0.1-0.7,0.1
			C-349.4,278.9-349.7,278.8-350,278.7z M-348.3,277.9c0.2-0.1,0.3-0.2,0.4-0.3v-2.5c-0.2,0-0.4-0.1-0.6-0.1c-0.4,0-0.8,0.1-1,0.4
			c-0.2,0.2-0.3,0.6-0.3,1.1c0,0.5,0.1,0.9,0.3,1.1c0.2,0.2,0.4,0.3,0.8,0.3C-348.6,278-348.4,278-348.3,277.9z"/>
		<path id="XMLID_296_" class="st0" d="M-342,276.9h-2.8c0,0.3,0.1,0.5,0.2,0.7c0.1,0.2,0.2,0.3,0.4,0.4c0.2,0.1,0.5,0.1,0.8,0.1
			c0.3,0,0.7-0.1,1.1-0.2v0.8c-0.4,0.1-0.9,0.2-1.3,0.2c-0.5,0-1-0.1-1.3-0.2c-0.3-0.2-0.6-0.4-0.8-0.8c-0.2-0.3-0.3-0.8-0.3-1.3
			c0-0.5,0.1-0.9,0.2-1.3c0.2-0.3,0.4-0.6,0.7-0.8c0.3-0.2,0.7-0.3,1.1-0.3c0.6,0,1.1,0.2,1.4,0.6c0.3,0.4,0.5,1,0.5,1.8V276.9z
			 M-344.6,275.2c-0.2,0.2-0.2,0.5-0.2,1h1.8c0-0.5-0.1-0.8-0.2-1s-0.4-0.3-0.6-0.3C-344.2,274.9-344.4,275-344.6,275.2z"/>
		<path id="XMLID_294_" class="st0" d="M-338.5,278.8c-0.3,0-0.5-0.1-0.8-0.2v-0.9c0.3,0.1,0.5,0.2,0.8,0.2c0.3,0,0.6,0.1,0.8,0.1
			c0.4,0,0.8-0.1,1-0.2c0.2-0.1,0.3-0.4,0.3-0.6c0-0.2,0-0.3-0.1-0.4c-0.1-0.1-0.2-0.2-0.3-0.3c-0.1-0.1-0.3-0.1-0.6-0.2l-0.4-0.1
			c-0.5-0.1-0.9-0.3-1.2-0.6c-0.3-0.3-0.4-0.7-0.4-1.1c0-0.6,0.2-1,0.6-1.3c0.4-0.3,1-0.5,1.8-0.5c0.3,0,0.5,0,0.8,0
			c0.2,0,0.5,0.1,0.7,0.1v0.9c-0.2-0.1-0.4-0.1-0.7-0.1c-0.2,0-0.5,0-0.7,0c-0.5,0-0.8,0.1-1,0.2c-0.2,0.1-0.3,0.4-0.3,0.6
			c0,0.2,0,0.3,0.1,0.4c0.1,0.1,0.2,0.2,0.3,0.3c0.1,0.1,0.3,0.1,0.5,0.2l0.4,0.1c0.6,0.1,1,0.4,1.3,0.6c0.3,0.3,0.4,0.7,0.4,1.1
			c0,0.4-0.1,0.7-0.3,1c-0.2,0.3-0.5,0.5-0.8,0.6c-0.4,0.1-0.8,0.2-1.3,0.2C-338,278.9-338.2,278.9-338.5,278.8z"/>
		<path id="XMLID_291_" class="st0" d="M-331.8,274.4c0.3,0.1,0.5,0.3,0.6,0.6c0.1,0.3,0.2,0.6,0.2,1.1v2.8h-0.9l-0.1-0.5h-0.1
			c-0.1,0.2-0.3,0.3-0.5,0.4c-0.2,0.1-0.5,0.1-0.7,0.1c-0.3,0-0.6-0.1-0.8-0.2c-0.2-0.1-0.4-0.3-0.5-0.4c-0.1-0.2-0.2-0.4-0.2-0.7
			c0-0.4,0.1-0.7,0.4-1c0.3-0.2,0.7-0.4,1.4-0.4l0.8-0.1V276c0-0.2,0-0.4-0.1-0.5c-0.1-0.1-0.2-0.2-0.3-0.3
			c-0.2-0.1-0.4-0.1-0.6-0.1c-0.2,0-0.4,0-0.6,0c-0.2,0-0.4,0.1-0.6,0.1v-0.8c0.2-0.1,0.4-0.1,0.7-0.1c0.3,0,0.5,0,0.7,0
			C-332.5,274.2-332.1,274.3-331.8,274.4z M-332.4,278c0.2-0.1,0.3-0.2,0.4-0.3v-1l-0.7,0.1c-0.3,0-0.5,0.1-0.6,0.2
			c-0.1,0.1-0.2,0.3-0.2,0.5c0,0.2,0.1,0.4,0.2,0.5c0.1,0.1,0.3,0.2,0.5,0.2C-332.8,278.1-332.6,278.1-332.4,278z"/>
		<path id="XMLID_289_" class="st0" d="M-329.9,278.8v-6.7h1.1v6.7H-329.9z"/>
		<path id="XMLID_287_" class="st0" d="M-327.4,278.5c-0.3-0.3-0.4-0.7-0.4-1.3v-2.9h1.1v2.8c0,0.3,0.1,0.5,0.2,0.6
			c0.1,0.1,0.3,0.2,0.5,0.2c0.2,0,0.3,0,0.5-0.1c0.2-0.1,0.3-0.2,0.4-0.3v-3.2h1.1v4.5h-0.9l-0.1-0.5h0c-0.2,0.2-0.4,0.3-0.6,0.4
			c-0.2,0.1-0.5,0.1-0.7,0.1C-326.8,278.9-327.1,278.7-327.4,278.5z"/>
		<path id="XMLID_284_" class="st0" d="M-322.2,278.7c-0.3-0.2-0.5-0.4-0.7-0.7c-0.2-0.3-0.2-0.8-0.2-1.3c0-0.8,0.2-1.4,0.6-1.8
			c0.4-0.4,1-0.6,1.8-0.6c0.2,0,0.4,0,0.6,0v-2.1h1.1v6.7h-0.9l-0.1-0.5h-0.1c-0.1,0.2-0.3,0.3-0.5,0.4c-0.2,0.1-0.4,0.1-0.7,0.1
			C-321.6,278.9-321.9,278.8-322.2,278.7z M-320.5,277.9c0.2-0.1,0.3-0.2,0.4-0.3v-2.5c-0.2,0-0.4-0.1-0.6-0.1c-0.4,0-0.8,0.1-1,0.4
			s-0.3,0.6-0.3,1.1c0,0.5,0.1,0.9,0.3,1.1c0.2,0.2,0.4,0.3,0.8,0.3C-320.8,278-320.6,278-320.5,277.9z"/>
	</g>
</g>
</svg>
