<?xml version="1.0" encoding="utf-8"?>
<!-- Generator: Adobe Illustrator 19.0.0, SVG Export Plug-In . SVG Version: 6.00 Build 0)  -->
<svg version="1.1" id="Capa_1" xmlns="http://www.w3.org/2000/svg" xmlns:xlink="http://www.w3.org/1999/xlink" x="0px" y="0px"
	 viewBox="-455 257 48 48" style="enable-background:new -455 257 48 48;" xml:space="preserve">
<style type="text/css">
	.st0{fill:#FFFFFF;}
</style>
<path class="st0" d="M-423.7,281.6c3.7-6.2,4.3-9.2,4.3-9.2c-0.5-12-5.5-14-5.5-14c0.5,0.3,0.9,0.7,1.2,1.2
	c-0.3-0.5-0.7-0.9-1.3-1.2c-4.9-3.1-10.6,0.1-11.2,1.9c0,0-0.1,0.3-0.2,0.9c-4,8.7-3.4,11.9-3.4,11.8c1.2,2.7,2.7,5.4,4.3,8
	c-6.3,6.1-12.5,10.9-12.5,10.9l5.4,13.2c5.7-5.9,10-11,13.2-15.3c5.8,7.4,11.3,12.5,11.3,12.5l4.1-12.4
	C-417.9,286.9-421.1,284.1-423.7,281.6z M-424.5,267.8L-424.5,267.8c-1.2,2.3-3.2,4.8-5.4,7.4c-2.2-2.7-3.7-4.9-4.7-6.9
	C-433.9,267.7-429.9,264.4-424.5,267.8z"/>
</svg>
