<?xml version="1.0" encoding="utf-8"?>
<!-- Generator: Adobe Illustrator 19.0.0, SVG Export Plug-In . SVG Version: 6.00 Build 0)  -->
<svg version="1.1" id="Capa_1" xmlns="http://www.w3.org/2000/svg" xmlns:xlink="http://www.w3.org/1999/xlink" x="0px" y="0px"
	 viewBox="-252 376 107 41" style="enable-background:new -252 376 107 41;" xml:space="preserve">
<style type="text/css">
	.st0{fill:#FFFFFF;}
</style>
<g id="XMLID_510_">
	<g id="XMLID_581_">
		<path id="XMLID_680_" class="st0" d="M-238.51,381.34l0-0.02L-238.51,381.34c0.38-0.06,0.71-0.09,1-0.09
			c0.94,0,1.08,0.31,1.09,0.35c0,0,0.03,0.08,0.13,0.08c0.01,0,0.03,0,0.05-0.01c0.03,0,0.05-0.02,0.06-0.03
			c0.01-0.02,0.01-0.06-0.01-0.1c0-0.01-0.22-0.61-1.18-0.71c0,0-0.52-0.07-1.07,0.03c-0.15,0.03-0.2,0.38-0.2,0.38
			c-0.01,0.04,0,0.07,0.02,0.09C-238.58,381.35-238.53,381.34-238.51,381.34"/>
		<path id="XMLID_679_" class="st0" d="M-240.1,381.74L-240.1,381.74c-0.22-0.1-0.73-0.08-0.74-0.08c-0.82,0.03-1.05,0.54-1.05,0.54
			c-0.02,0.05-0.03,0.1-0.01,0.12c0.02,0.03,0.06,0.04,0.06,0.04c0.17,0.04,0.22-0.09,0.22-0.09c0,0,0.05-0.16,0.41-0.25
			c0.01,0,0.01,0,0.02,0.01c0,0.01,0.01,0.01,0,0.02c-0.02,0.05-0.03,0.1-0.03,0.15c0,0.23,0.19,0.42,0.41,0.42
			c0.23,0,0.41-0.19,0.41-0.42c0-0.06-0.01-0.11-0.03-0.16c0-0.01,0-0.01,0-0.02c0.01-0.01,0.01-0.01,0.02-0.01
			c0.15,0.06,0.25,0.15,0.32,0.29c0.02,0.05,0.07,0.08,0.24,0.08c0.04,0,0.09-0.01,0.11-0.03c0.01-0.02,0.01-0.05,0.01-0.05
			C-239.83,381.87-240.1,381.74-240.1,381.74"/>
		<path id="XMLID_678_" class="st0" d="M-238.54,382.39c0.17,0,0.21-0.03,0.24-0.08c0.07-0.14,0.17-0.23,0.32-0.29
			c0.01,0,0.02,0,0.02,0c0.01,0.01,0.01,0.01,0,0.02c-0.02,0.05-0.03,0.11-0.03,0.16c0,0.23,0.19,0.41,0.41,0.41
			c0.23,0,0.41-0.19,0.41-0.41c0-0.05-0.01-0.1-0.03-0.15c0-0.01,0-0.01,0-0.02c0-0.01,0.01-0.01,0.02-0.01
			c0.35,0.09,0.4,0.23,0.41,0.25c0.01,0.01,0.06,0.12,0.21,0.08c0.03-0.01,0.06-0.02,0.07-0.04c0.02-0.03,0.01-0.07-0.01-0.12
			c0,0-0.23-0.51-1.05-0.54c-0.05,0-0.53-0.02-0.74,0.08c0,0-0.27,0.14-0.37,0.56c-0.01,0.02-0.01,0.04,0,0.06
			C-238.63,382.38-238.58,382.39-238.54,382.39"/>
		<path id="XMLID_677_" class="st0" d="M-242.15,381.67L-242.15,381.67C-242.15,381.67-242.15,381.67-242.15,381.67
			c0.02,0.01,0.04,0.01,0.05,0.01c0.09,0,0.13-0.08,0.13-0.08c0.01-0.02,0.23-0.55,2.09-0.25c0,0,0.07,0.01,0.11-0.02
			c0.02-0.02,0.03-0.05,0.02-0.09c0-0.01-0.05-0.35-0.2-0.38c-0.2-0.04-0.42-0.05-0.64-0.05c-0.24,0-0.42,0.02-0.42,0.02
			c-0.97,0.1-1.18,0.7-1.18,0.71c-0.02,0.05-0.02,0.08-0.01,0.11C-242.19,381.66-242.16,381.66-242.15,381.67"/>
		<path id="XMLID_601_" class="st0" d="M-226.51,401.81c0.01-0.07-0.02-0.14-0.07-0.19c-0.05-0.04-0.1-0.06-0.16-0.05
			c0.05-0.1,0.09-0.2,0.13-0.3c0.16-0.43,0.24-0.93,0.25-1.48c0-0.07-0.03-0.14-0.09-0.18c-0.05-0.03-0.1-0.04-0.16-0.03
			c0.03-0.09,0.06-0.19,0.09-0.29c0.11-0.45,0.15-0.95,0.1-1.5c-0.01-0.07-0.05-0.13-0.11-0.17c-0.05-0.03-0.11-0.03-0.16-0.02
			c0.03-0.11,0.05-0.23,0.07-0.34c0.07-0.45,0.06-0.96-0.05-1.5c-0.01-0.07-0.06-0.13-0.13-0.16c-0.04-0.02-0.08-0.02-0.12-0.01
			c0.01-0.08,0.03-0.16,0.04-0.24c0.05-0.46,0.01-0.96-0.12-1.5c-0.02-0.07-0.07-0.12-0.13-0.15c-0.07-0.02-0.14-0.01-0.2,0.03
			c0,0-0.01,0.01-0.02,0.01c0.01-0.12,0.01-0.25,0.01-0.38c-0.01-0.46-0.12-0.95-0.32-1.46c-0.03-0.07-0.08-0.11-0.15-0.13
			c-0.06-0.01-0.12,0-0.17,0.04c0-0.12-0.01-0.23-0.03-0.35c-0.06-0.46-0.22-0.93-0.47-1.42c-0.03-0.06-0.09-0.11-0.16-0.11
			c-0.06-0.01-0.12,0.02-0.17,0.06c-0.02-0.11-0.04-0.22-0.07-0.32c-0.11-0.45-0.33-0.9-0.63-1.36c-0.04-0.06-0.11-0.09-0.18-0.09
			c-0.07,0-0.14,0.04-0.17,0.1c0,0,0,0-0.01,0.01c-0.04-0.13-0.08-0.25-0.14-0.38c-0.18-0.42-0.47-0.84-0.84-1.24
			c-0.05-0.05-0.12-0.08-0.2-0.06c-0.06,0.01-0.1,0.05-0.13,0.09c-0.06-0.12-0.13-0.25-0.2-0.36c-0.25-0.39-0.59-0.75-1.01-1.08
			c-0.06-0.04-0.13-0.06-0.2-0.03c-0.06,0.02-0.1,0.06-0.13,0.12c-0.26-0.36-0.63-0.63-1.09-0.82c0.06,0,0.12,0.01,0.17,0.01
			c0.61,0.04,1.04-0.09,1.06-0.1c0.14-0.04,0.24-0.19,0.22-0.34c-0.02-0.15-0.14-0.27-0.29-0.27c-0.65-0.03-0.89-0.16-1.2-0.33
			c-0.03-0.02-0.06-0.03-0.09-0.05l1.44-0.22c0.15-0.02,0.27-0.16,0.26-0.31c0-0.15-0.12-0.29-0.27-0.31l-1.36-0.2
			c0.15-0.04,0.3-0.09,0.43-0.14c0.58-0.2,0.92-0.49,0.94-0.5c0.12-0.1,0.15-0.26,0.07-0.4c-0.07-0.13-0.23-0.19-0.38-0.14
			c-0.61,0.22-0.89,0.19-1.24,0.15c-0.03,0-0.07-0.01-0.1-0.01l1.24-0.75c0.13-0.08,0.19-0.25,0.13-0.39
			c-0.06-0.14-0.22-0.22-0.36-0.18l-1.34,0.34c0.12-0.1,0.24-0.2,0.35-0.3c0.46-0.41,0.67-0.8,0.68-0.82
			c0.07-0.13,0.04-0.3-0.08-0.39c-0.12-0.09-0.29-0.09-0.4,0.02c-0.48,0.44-0.75,0.52-1.08,0.62c-0.03,0.01-0.06,0.02-0.09,0.03
			l0.86-1.16c0.09-0.12,0.08-0.3-0.03-0.41s-0.28-0.12-0.41-0.03l-1.11,0.83c0.08-0.14,0.15-0.28,0.21-0.41
			c0.26-0.55,0.31-1,0.31-1.02c0.01-0.15-0.08-0.29-0.23-0.33c-0.15-0.04-0.3,0.03-0.36,0.17c-0.28,0.59-0.49,0.77-0.77,0.99
			c-0.02,0.02-0.05,0.04-0.07,0.06l0.35-1.4c0.04-0.15-0.04-0.31-0.18-0.36c-0.14-0.06-0.31,0-0.39,0.13l-0.71,1.2
			c0.02-0.16,0.03-0.32,0.04-0.47c0.04-0.61-0.09-1.04-0.1-1.06c-0.04-0.15-0.19-0.24-0.34-0.22c-0.15,0.02-0.26,0.14-0.27,0.3
			c-0.03,0.65-0.16,0.9-0.33,1.21c-0.01,0.03-0.03,0.05-0.04,0.08l-0.21-1.43c-0.02-0.15-0.15-0.27-0.31-0.27
			c-0.15,0-0.29,0.12-0.31,0.27l-0.19,1.36c-0.04-0.15-0.09-0.29-0.13-0.43c-0.2-0.58-0.48-0.93-0.49-0.94
			c-0.1-0.12-0.26-0.15-0.39-0.07c-0.13,0.07-0.19,0.23-0.14,0.38c0.22,0.61,0.19,0.89,0.15,1.25c0,0.03-0.01,0.07-0.01,0.1
			l-0.75-1.25c-0.08-0.13-0.24-0.19-0.39-0.13c-0.14,0.06-0.22,0.22-0.18,0.37l0.34,1.34c-0.1-0.12-0.19-0.24-0.29-0.35
			c-0.39-0.45-0.77-0.66-0.82-0.68c-0.13-0.07-0.3-0.04-0.39,0.08c-0.09,0.12-0.09,0.29,0.02,0.4c0.44,0.48,0.52,0.75,0.62,1.09
			c0.01,0.03,0.02,0.06,0.03,0.1l-1.17-0.87c-0.12-0.09-0.3-0.08-0.41,0.03c-0.11,0.11-0.12,0.28-0.03,0.41l0.83,1.11
			c-0.14-0.08-0.27-0.15-0.41-0.21c-0.55-0.27-1-0.31-1.01-0.31c-0.15-0.01-0.29,0.08-0.33,0.23c-0.04,0.15,0.03,0.3,0.17,0.36
			c0.59,0.28,0.76,0.49,0.99,0.77c0.02,0.02,0.04,0.05,0.06,0.07l-1.4-0.35c-0.15-0.04-0.3,0.04-0.36,0.18
			c-0.06,0.14,0,0.31,0.13,0.39l1.19,0.71c-0.16-0.02-0.31-0.03-0.46-0.04c-0.61-0.04-1.04,0.09-1.06,0.1
			c-0.14,0.05-0.24,0.19-0.22,0.34c0.02,0.15,0.14,0.27,0.29,0.27c0.65,0.03,0.89,0.16,1.2,0.33c0.03,0.01,0.05,0.03,0.08,0.04
			l-1.43,0.21c-0.15,0.02-0.27,0.16-0.27,0.31c0,0.15,0.11,0.29,0.27,0.31l1.38,0.2c-0.16,0.04-0.31,0.09-0.45,0.14
			c-0.57,0.2-0.92,0.49-0.94,0.5c-0.12,0.1-0.15,0.26-0.07,0.4c0.08,0.13,0.23,0.19,0.38,0.14c0.31-0.11,0.54-0.17,0.77-0.18
			c-0.39,0.35-0.57,0.54-0.65,0.64c-0.06,0.08-0.13,0.17-0.18,0.25c-0.02-0.05-0.07-0.08-0.12-0.1c-0.07-0.02-0.14-0.01-0.2,0.03
			c-0.44,0.34-0.78,0.71-1.03,1.09c-0.08,0.12-0.14,0.24-0.2,0.36c-0.03-0.06-0.08-0.09-0.15-0.1c-0.07-0.01-0.14,0.01-0.19,0.06
			c-0.38,0.4-0.66,0.82-0.85,1.24c-0.05,0.12-0.1,0.24-0.13,0.35c-0.04-0.04-0.09-0.07-0.14-0.07c-0.07,0-0.14,0.03-0.18,0.09
			c-0.33,0.44-0.56,0.89-0.69,1.33c-0.04,0.12-0.07,0.24-0.09,0.37c0,0,0-0.01-0.01-0.01c-0.04-0.06-0.11-0.08-0.18-0.08
			c-0.07,0.01-0.13,0.05-0.16,0.11c-0.26,0.49-0.42,0.96-0.48,1.42c-0.02,0.12-0.03,0.24-0.03,0.36c0,0,0,0,0,0
			c-0.05-0.05-0.12-0.07-0.19-0.05c-0.07,0.02-0.12,0.06-0.15,0.13c-0.19,0.52-0.29,1.01-0.3,1.47c0,0.12,0,0.24,0.01,0.35
			c-0.06-0.04-0.13-0.05-0.19-0.02c-0.07,0.02-0.12,0.08-0.13,0.15c-0.13,0.53-0.17,1.04-0.12,1.5c0.01,0.09,0.02,0.18,0.04,0.27
			c-0.03,0-0.07,0-0.1,0.01c-0.07,0.03-0.11,0.08-0.13,0.15c-0.1,0.54-0.12,1.04-0.05,1.5c0.02,0.12,0.04,0.24,0.07,0.35
			c-0.03,0-0.06,0.01-0.09,0.02c-0.06,0.03-0.11,0.09-0.12,0.16c-0.07,0.55-0.05,1.05,0.05,1.5c0.02,0.1,0.05,0.2,0.08,0.3
			c-0.05-0.01-0.11,0-0.15,0.03c-0.06,0.04-0.1,0.1-0.1,0.17c-0.01,0.55,0.06,1.05,0.21,1.49c0.04,0.13,0.1,0.26,0.16,0.38
			c-0.03-0.01-0.05-0.01-0.05-0.01c-0.07-0.02-0.14,0-0.19,0.05c-0.05,0.05-0.08,0.12-0.07,0.19c0.09,0.54,0.24,1.02,0.46,1.43
			c0.04,0.08,0.09,0.16,0.14,0.24c-0.04,0.01-0.08,0.03-0.11,0.06c-0.05,0.05-0.07,0.12-0.05,0.19c0.13,0.53,0.32,1,0.57,1.39
			c0.06,0.1,0.13,0.19,0.2,0.28c-0.06,0-0.12,0.03-0.16,0.08c-0.04,0.06-0.05,0.13-0.03,0.2c0.19,0.52,0.43,0.96,0.72,1.32
			c0.07,0.08,0.14,0.16,0.21,0.23c-0.06,0.01-0.11,0.05-0.14,0.1c-0.04,0.06-0.04,0.14-0.01,0.2c0.25,0.49,0.54,0.9,0.87,1.22
			c0.07,0.07,0.15,0.14,0.23,0.2c-0.05,0.02-0.1,0.06-0.12,0.11c-0.03,0.07-0.02,0.14,0.01,0.2c0.3,0.46,0.63,0.84,1,1.13
			c0.11,0.09,0.23,0.17,0.36,0.24c-0.04,0.01-0.06,0.02-0.06,0.02c-0.07,0.02-0.12,0.08-0.13,0.15c-0.02,0.07,0,0.14,0.05,0.19
			c0.38,0.4,0.77,0.71,1.16,0.93c0.32,0.18,0.64,0.3,0.95,0.36c0.26,0.05,0.53,0.05,0.76,0.01c0.69,0.49,1.42,0.9,2.18,1.22
			c0.62,0.26,1.26,0.47,1.9,0.6c0.09,0.02,0.18,0.04,0.28,0.06l0.22,0.04c0.14,0.05,0.27,0.08,0.36,0.09
			c-0.01,0.07-0.02,0.13-0.02,0.2c0,0.07,0.01,0.15,0.03,0.22c-0.23,0.22-1.02,0.92-2.15,1.06l-0.07,0.01l0.04,0.06
			c0.04,0.07,0.14,0.21,0.31,0.37l0.02,0.01l0.02,0c1.01-0.19,1.73-0.74,2.07-1.06c0.03,0.03,0.06,0.06,0.09,0.08
			c-0.08,0.29-0.38,0.97-1.55,1.29l-0.12,0.03l0.12,0.05c0.21,0.09,0.44,0.15,0.69,0.19l0.01,0l0.01-0.01
			c0.87-0.4,1.18-1.01,1.29-1.35c0.11,0.02,0.23,0.02,0.34,0c0.11,0.34,0.42,0.95,1.29,1.35l0.01,0.01l0.01,0
			c0.25-0.04,0.48-0.1,0.69-0.19l0.12-0.05l-0.12-0.03c-1.16-0.32-1.47-1-1.55-1.29c0.03-0.03,0.06-0.05,0.09-0.08
			c0.35,0.32,1.06,0.86,2.07,1.06l0.02,0l0.02-0.01c0.17-0.15,0.27-0.3,0.31-0.37l0.04-0.06l-0.07-0.01
			c-1.1-0.14-1.86-0.78-2.14-1.06c0.02-0.07,0.03-0.15,0.03-0.23c0-0.07-0.01-0.13-0.02-0.2c0.12-0.02,0.23-0.05,0.33-0.09
			l0.24-0.04c0.3-0.05,0.6-0.12,0.88-0.19c0.64-0.17,1.27-0.41,1.87-0.71c0.86-0.42,1.43-0.85,1.6-0.98
			c0.23,0.04,0.49,0.04,0.76-0.01c0.31-0.06,0.63-0.18,0.95-0.36c0.39-0.22,0.78-0.54,1.16-0.93c0.05-0.05,0.07-0.12,0.05-0.19
			c-0.02-0.07-0.07-0.13-0.13-0.15c0,0-0.02-0.01-0.05-0.02c0.12-0.07,0.25-0.15,0.36-0.25c0.36-0.28,0.7-0.66,1-1.13
			c0.04-0.06,0.04-0.13,0.01-0.2c-0.02-0.05-0.07-0.09-0.12-0.11c0.08-0.06,0.16-0.13,0.23-0.2c0.33-0.32,0.63-0.73,0.87-1.22
			c0.03-0.06,0.03-0.14-0.01-0.2c-0.04-0.06-0.1-0.1-0.17-0.1c0.08-0.08,0.16-0.17,0.23-0.25c0.29-0.36,0.54-0.8,0.72-1.32
			c0.02-0.06,0.01-0.13-0.02-0.19c-0.04-0.06-0.1-0.09-0.16-0.09c0,0-0.01,0-0.02,0h0c0.07-0.08,0.13-0.17,0.19-0.26
			c0.26-0.38,0.45-0.85,0.59-1.38c0.02-0.07,0-0.14-0.05-0.19c-0.05-0.05-0.12-0.08-0.19-0.07c0.06-0.1,0.12-0.2,0.18-0.31
			C-226.72,402.84-226.58,402.36-226.51,401.81 M-226.75,400.09L-226.75,400.09c0.01,0,0.01,0.01,0.01,0.02
			c-0.03,0.38-0.1,0.72-0.21,1.03c-0.11,0.31-0.26,0.58-0.45,0.8c-0.22,0.26-0.46,0.41-0.54,0.45c0,0-0.01,0-0.01,0
			c-0.01,0-0.01,0-0.02-0.01c-0.3-0.41-0.45-0.92-0.44-1.5c0-0.19,0.02-0.38,0.06-0.56c0-0.01,0.01-0.01,0.01-0.02
			c0.01,0,0.02,0,0.02,0.01c0.27,0.33,0.41,0.76,0.42,0.78c0.02,0.06,0.07,0.1,0.14,0.11c0,0,0.01,0,0.01,0
			c0.06,0,0.11-0.03,0.14-0.09c0.25-0.52,0.59-0.84,0.84-1.01C-226.77,400.09-226.76,400.09-226.75,400.09 M-226.8,398.14
			c0.01,0,0.01-0.01,0.02,0c0.01,0,0.01,0.01,0.01,0.02c0.01,0.38-0.02,0.73-0.1,1.04c-0.08,0.32-0.21,0.6-0.37,0.84
			c-0.2,0.28-0.41,0.45-0.5,0.5c0,0-0.01,0-0.01,0c-0.01,0-0.01,0-0.01-0.01c-0.53-0.6-0.58-1.5-0.57-1.98
			c0-0.01,0.01-0.02,0.01-0.02c0.01,0,0.02,0,0.02,0c0.28,0.31,0.47,0.68,0.48,0.7c0.03,0.06,0.08,0.09,0.15,0.09
			c0.06,0,0.12-0.04,0.14-0.1C-227.34,398.68-227.03,398.33-226.8,398.14 M-227.01,396.15L-227.01,396.15
			c0.01-0.01,0.01-0.01,0.02-0.01c0.01,0,0.01,0.01,0.01,0.02c0.05,0.37,0.05,0.73,0,1.05c-0.05,0.32-0.15,0.62-0.29,0.88
			c-0.17,0.31-0.37,0.49-0.45,0.56c0,0-0.01,0-0.01,0c0,0-0.01,0-0.01,0c-0.53-0.44-0.69-1.38-0.73-1.91c0-0.01,0-0.02,0.01-0.02
			c0.01,0,0.02,0,0.02,0c0.31,0.28,0.53,0.63,0.53,0.64c0.03,0.05,0.09,0.08,0.15,0.07c0.06-0.01,0.11-0.05,0.13-0.11
			C-227.5,396.74-227.22,396.36-227.01,396.15 M-227.33,394.26L-227.33,394.26c0-0.01,0.01-0.01,0.02-0.01
			c0.01,0,0.01,0.01,0.01,0.02c0.06,0.37,0.08,0.72,0.05,1.05c-0.03,0.33-0.12,0.63-0.25,0.89c-0.15,0.31-0.34,0.5-0.42,0.57
			c0,0-0.01,0.01-0.01,0.01c0,0-0.01,0-0.01,0c-0.44-0.38-0.65-0.93-0.75-1.33c-0.04-0.18-0.08-0.37-0.1-0.56
			c0-0.01,0-0.02,0.01-0.02c0.01,0,0.02,0,0.02,0c0.33,0.27,0.58,0.62,0.58,0.63c0.04,0.05,0.1,0.08,0.16,0.06
			c0.06-0.01,0.11-0.06,0.12-0.12C-227.78,394.88-227.52,394.48-227.33,394.26 M-237.52,404.54c0.02,0.06,0.06,0.11,0.12,0.13
			c0.65,0.32,1.18,0.98,1.38,1.25c0,0,0,0.01,0,0.01c-0.02,0.06-0.06,0.1-0.09,0.15c-0.11,0.12-0.26,0.19-0.46,0.19
			c-0.01,0-0.02,0-0.03,0c0,0-0.01,0-0.01-0.01c-0.07-0.15-0.19-0.33-0.36-0.53c-0.23-0.26-0.7-0.6-0.71-0.6
			c-0.11-0.07-0.25-0.05-0.33,0.06c-0.07,0.11-0.05,0.25,0.06,0.33c0.12,0.08,0.47,0.35,0.62,0.53c0.2,0.23,0.27,0.36,0.29,0.42
			c0,0,0,0,0,0.01c-0.02,0.05-0.07,0.13-0.14,0.19c-0.11,0.11-0.24,0.15-0.4,0.12c0,0-0.01,0-0.01,0c-0.06-0.15-0.21-0.44-0.49-0.76
			c-0.09-0.1-0.23-0.11-0.33-0.02c-0.05,0.04-0.07,0.1-0.08,0.16c0,0.06,0.02,0.12,0.06,0.17c0.2,0.23,0.32,0.44,0.39,0.57
			c0,0,0,0.01,0,0.01c-0.05,0.03-0.11,0.06-0.17,0.09c-0.15,0.06-0.32,0.08-0.5,0.05c0,0-0.01,0-0.01-0.01c0,0,0-0.01,0-0.01
			c0.08-0.11,0.13-0.23,0.14-0.35c0.01-0.14-0.01-0.36-0.23-0.57c-0.11-0.12-0.34-0.22-0.65-0.16c0,0,0,0-0.01,0c0,0,0,0,0-0.01
			c-0.02-0.17-0.1-0.32-0.25-0.46c-0.24-0.21-0.51-0.26-0.82-0.17c-0.01,0-0.01,0-0.02,0.01l-0.01,0c0,0-0.01,0-0.01-0.01
			c-0.04-0.12-0.14-0.29-0.4-0.42c-0.22-0.11-0.47-0.13-0.71-0.04c0,0-0.01,0-0.01,0c-0.21-0.19-0.5-0.22-0.59-0.23
			c-0.34-0.05-0.81,0.12-1.1,0.41c0,0,0,0,0,0c-1.56,0.84-3.57,1.75-4.37,2.1c0,0,0,0,0,0c0,0-0.01,0-0.01,0
			c-0.43-0.81-0.8-1.68-1.09-2.59c-0.08-0.26-0.16-0.52-0.23-0.79c0,0,0-0.01,0-0.01c0,0,0,0,0.01,0c2.28-0.26,4.12-0.53,5.45-0.8
			c1.39-0.28,2.29-0.56,2.74-0.87l0,0c0.54-0.38,0.91-0.57,1.43-0.52c0.16,0.01,0.31,0.03,0.44,0.05c0,0,0.01,0,0.01,0.01
			c0,0,0,0.01-0.01,0.01c-0.13,0.04-0.25,0.11-0.37,0.19c-0.21,0.15-0.34,0.26-0.46,0.35c-0.12,0.1-0.21,0.17-0.36,0.27
			c-0.1,0.07-0.24,0.14-0.38,0.2c-0.31,0.15-0.55,0.27-0.63,0.47l-0.01,0l0.01,0c-0.08,0.22-0.05,0.41,0.1,0.63
			c0.23,0.32,0.61,0.3,0.92,0.29c0.35-0.02,0.77-0.15,1.08-0.33c0.11-0.07,0.21-0.13,0.3-0.19c0.14-0.09,0.26-0.17,0.35-0.19
			c0,0,0.01,0,0.01,0c0.28-0.08,0.6-0.05,0.97,0.1c0.33,0.13,0.65,0.33,0.95,0.52c0.72,0.47,1.26,1.11,1.4,1.3c0,0,0,0,0,0.01
			c-0.01,0.08-0.05,0.2-0.14,0.28c-0.09,0.08-0.22,0.13-0.4,0.13c0,0-0.01,0-0.01,0c-0.22-0.3-0.81-1.03-1.55-1.39
			c-0.12-0.06-0.26-0.01-0.31,0.11C-237.54,404.42-237.54,404.48-237.52,404.54 M-239.29,406.96c-0.01,0-0.01,0.01-0.02,0.01l0,0
			c-0.1,0.08-0.4,0.27-0.66,0.27c-0.03,0-0.06,0-0.08-0.01c-0.05-0.01-0.12-0.03-0.2-0.12c0,0,0-0.01,0-0.01
			c0.12-0.26,0.39-0.44,0.63-0.58c0.32-0.19,0.47-0.08,0.48-0.07c0.1,0.1,0.1,0.16,0.09,0.18
			C-239.05,406.77-239.21,406.91-239.29,406.96L-239.29,406.96L-239.29,406.96z M-242,405.64c0.33-0.32,0.59-0.42,0.82-0.3
			c0.07,0.03,0.15,0.09,0.17,0.16c0.01,0.02,0.01,0.05,0,0.08c0,0,0,0,0,0.01c-0.05,0.04-0.1,0.07-0.16,0.11
			c-0.35,0.25-0.56,0.51-0.63,0.77c0,0,0,0.01-0.01,0.01h0c-0.06-0.01-0.11-0.02-0.16-0.04c-0.29-0.1-0.3-0.25-0.31-0.3
			C-242.29,405.97-242.21,405.84-242,405.64 M-242.33,405.3c-0.16,0.15-0.33,0.35-0.4,0.6c0,0,0,0.01-0.01,0.01h0
			c-0.05,0-0.1-0.01-0.14-0.02c-0.17-0.03-0.29-0.08-0.32-0.15c-0.01-0.03-0.05-0.12,0.06-0.28c0.17-0.22,0.55-0.4,0.79-0.36
			c0.01,0,0.01,0,0.02,0c0.03,0,0.09,0.01,0.15,0.03c0,0,0.01,0,0.01,0.01c0,0,0,0.01,0,0.01
			C-242.21,405.2-242.27,405.24-242.33,405.3 M-240.9,406.07c0.43-0.3,0.66-0.41,0.88-0.22c0.07,0.06,0.1,0.11,0.09,0.16
			c0,0.09-0.1,0.2-0.19,0.27c-0.27,0.19-0.45,0.4-0.56,0.64c0,0,0,0-0.01,0c-0.06,0.01-0.15,0.02-0.25,0.02
			c-0.12,0-0.24-0.02-0.32-0.07c-0.04-0.03-0.08-0.07-0.1-0.18C-241.39,406.45-241.08,406.2-240.9,406.07 M-236.14,385.26
			c-0.01,0-0.01-0.01-0.01-0.02c0-0.01,0.01-0.01,0.01-0.02c0.2-0.06,0.4-0.1,0.59-0.11c0.56-0.03,1.02,0.14,1.38,0.53
			c0,0.01,0.01,0.01,0,0.02c0,0.01-0.01,0.01-0.01,0.01c-0.11,0.04-0.3,0.09-0.52,0.1c-0.03,0-0.05,0-0.08,0
			C-235.24,385.77-235.7,385.6-236.14,385.26 M-235.49,386.05h-7.39c1.18-0.59,2.42-0.89,3.7-0.89
			C-237.91,385.15-236.67,385.45-235.49,386.05 M-234.56,384.53c-0.17,0.07-0.43,0.16-0.72,0.21c-0.19,0.03-0.36,0.05-0.53,0.05
			c-0.4,0-0.74-0.1-1.02-0.3c-0.01,0-0.01-0.01-0.01-0.02c0-0.01,0-0.01,0.01-0.02c0.13-0.07,0.34-0.17,0.6-0.24
			c0.28-0.07,0.57-0.08,0.86-0.03c0.27,0.05,0.54,0.15,0.81,0.29c0.01,0,0.01,0.01,0.01,0.02
			C-234.54,384.52-234.55,384.53-234.56,384.53 M-236.33,383.91c-0.19,0.09-0.51,0.2-0.99,0.26c-0.06,0.01-0.12,0.05-0.13,0.12
			c-0.01,0.06,0.01,0.13,0.06,0.16c0,0,0.38,0.26,0.65,0.6c0,0.01,0.01,0.01,0,0.02c0,0.01-0.01,0.01-0.02,0.01
			c-0.45-0.01-1.31-0.15-1.91-0.88c-0.01-0.01-0.01-0.02,0-0.03c0.1-0.09,0.27-0.22,0.52-0.32c0.49-0.18,1.11-0.18,1.81,0.01
			c0.01,0,0.01,0.01,0.01,0.02C-236.32,383.9-236.32,383.9-236.33,383.91 M-238.35,383.57c-0.16,0.13-0.45,0.31-0.93,0.45
			c-0.06,0.02-0.11,0.08-0.11,0.14c0,0.07,0.04,0.13,0.1,0.15c0,0,0.41,0.16,0.73,0.43c0.01,0.01,0.01,0.01,0.01,0.02
			c0,0.01-0.01,0.01-0.02,0.01c-0.13,0.01-0.27,0.02-0.4,0.02c-0.46,0-1.12-0.08-1.63-0.47c-0.01-0.01-0.01-0.02,0-0.03
			c0.08-0.11,0.21-0.27,0.45-0.42c0.44-0.28,1.06-0.4,1.79-0.35c0.01,0,0.01,0.01,0.02,0.01
			C-238.34,383.56-238.35,383.57-238.35,383.57 M-240.43,383.61c-0.12,0.16-0.36,0.41-0.84,0.64c-0.06,0.03-0.09,0.09-0.08,0.16
			c0.01,0.07,0.06,0.12,0.12,0.13c0,0,0.43,0.08,0.81,0.27c0.01,0,0.01,0.01,0.01,0.02c0,0.01-0.01,0.01-0.01,0.02
			c-0.18,0.06-0.36,0.1-0.54,0.14c-0.19,0.03-0.38,0.05-0.56,0.05c-0.36,0-0.69-0.07-0.97-0.2c-0.01,0-0.01-0.02-0.01-0.03
			c0.05-0.12,0.15-0.31,0.34-0.5c0.38-0.37,0.97-0.63,1.71-0.73c0.01,0,0.02,0,0.02,0.01C-240.43,383.59-240.43,383.6-240.43,383.61
			 M-242.38,383.95L-242.38,383.95c-0.09,0.22-0.3,0.56-0.73,0.94c-0.05,0.04-0.07,0.11-0.04,0.17c0.02,0.06,0.08,0.1,0.14,0.1h0
			c0.03,0,0.2,0,0.41,0.03c0.16,0.02,0.31,0.05,0.44,0.09c0.01,0,0.01,0.01,0.01,0.02c0,0.01,0,0.02-0.01,0.02
			c-0.17,0.09-0.34,0.16-0.52,0.22c-0.34,0.12-0.67,0.18-0.98,0.18c-0.21,0-0.4-0.03-0.58-0.08c-0.01,0-0.02-0.01-0.01-0.02
			c0.07-0.34,0.39-1.2,1.84-1.69c0.01,0,0.02,0,0.02,0.01C-242.38,383.93-242.38,383.94-242.38,383.95 M-234.61,386.55
			c0.4,0.26,0.79,0.55,1.17,0.88h-11.47c0.37-0.32,0.76-0.62,1.17-0.88H-234.61z M-232.91,387.92c0.28,0.27,0.54,0.57,0.8,0.88
			h-5.59c-0.75-0.54-1.54-0.51-1.66-0.5c-0.1,0-0.86,0.03-1.55,0.5h-5.33c0.26-0.31,0.52-0.6,0.8-0.88H-232.91z M-241.02,394.42
			c-0.47-0.04-0.87,0.09-1.36,0.3c0,0-0.01,0-0.01,0c0,0,0,0,0-0.01c0.01-0.04,0.01-0.09,0.02-0.13c0.26-1.31,0.77-2.2,1.15-2.72
			c0.29-0.39,0.55-0.63,0.68-0.74c0.04-0.03,0.08-0.06,0.12-0.1c0.11-0.1,0.13-0.26,0.04-0.38c-0.09-0.12-0.25-0.14-0.37-0.06
			c-0.01,0.01-0.06,0.04-0.13,0.1c-0.21,0.14-0.41,0.19-0.53,0.11c-0.11-0.06-0.15-0.2-0.12-0.37c0.05-0.29,0.37-0.67,0.49-0.8
			c0,0,0.01-0.01,0.01-0.02c0.65-0.76,1.68-0.78,1.69-0.78c0.01,0,0.35-0.03,0.75,0.11c0.55,0.18,0.98,0.56,1.27,1.13
			c0.41,0.8,0.72,1.6,0.94,2.47c0,0,0,0.01,0,0.01c0,0-0.01,0-0.01,0c-0.59-0.2-1.06-0.58-1.08-0.6c-0.12-0.1-0.29-0.08-0.38,0.04
			c-0.1,0.12-0.08,0.29,0.04,0.39c0.03,0.02,0.73,0.6,1.58,0.79c0,0,0.01,0,0.01,0.01c0.06,0.3,0.12,0.62,0.18,1.01
			c0,0,0,0.01,0,0.01c0,0-0.01,0-0.01,0c-0.28-0.15-0.62-0.24-0.89-0.32c-0.18-0.05-0.35-0.09-0.48-0.15
			c-0.58-0.23-1.08-0.63-1.09-0.63c-0.12-0.09-0.29-0.07-0.38,0.04c-0.09,0.12-0.07,0.29,0.04,0.38c0.02,0.02,0.56,0.44,1.22,0.71
			c0.16,0.07,0.35,0.12,0.55,0.17c0.74,0.2,1.09,0.36,1.11,0.75l0,0c-0.01,0.07-0.06,0.12-0.1,0.17c-0.21,0.23-0.65,0.28-0.88,0.28
			c-0.03,0-0.78,0-0.78,0c-0.14,0-0.85-0.03-1.47-0.43C-239.96,394.7-240.52,394.47-241.02,394.42 M-239.59,395.6
			C-239.59,395.6-239.59,395.61-239.59,395.6l-2.21,0.01c-0.23,0-0.38-0.06-0.48-0.18c-0.03-0.03-0.05-0.07-0.07-0.11
			c0,0,0-0.01,0-0.01C-241.35,394.85-240.89,394.77-239.59,395.6C-239.59,395.59-239.59,395.6-239.59,395.6 M-238.85,397.57h10.09
			c0.03,0.31,0.05,0.63,0.06,0.95h-10.15V397.57z M-238.85,397.07v-0.88h9.93c0.05,0.29,0.09,0.59,0.12,0.88H-238.85z
			 M-235.69,395.69c0.1-0.11,0.17-0.24,0.22-0.39c0.01-0.02,0.01-0.03,0.01-0.05c0.04-0.14,0.05-0.28,0.04-0.44h6.22
			c0.07,0.29,0.13,0.58,0.19,0.88H-235.69z M-235.49,394.31c-0.04-0.28-0.09-0.57-0.15-0.88h6.03c0.02,0.07,0.05,0.15,0.07,0.22
			c0.07,0.22,0.13,0.44,0.19,0.66H-235.49z M-235.74,392.93c-0.06-0.28-0.14-0.57-0.22-0.88h5.83c0.13,0.29,0.24,0.58,0.36,0.88
			H-235.74z M-236.12,391.56c-0.1-0.28-0.21-0.58-0.34-0.88h5.63c0.16,0.29,0.32,0.58,0.46,0.88H-236.12z M-236.68,390.18
			c-0.05-0.11-0.11-0.23-0.17-0.35c-0.1-0.2-0.22-0.38-0.34-0.53h5.46c0.21,0.28,0.41,0.58,0.6,0.88H-236.68z M-241.48,389.3
			c-0.12,0.12-0.43,0.49-0.56,0.88h-5.21c0.19-0.3,0.39-0.6,0.6-0.88H-241.48z M-242.09,390.68c0.04,0.26,0.17,0.48,0.4,0.61
			c0.05,0.03,0.1,0.05,0.16,0.07c0,0,0,0,0.01,0.01c0,0,0,0.01,0,0.01c-0.05,0.06-0.09,0.12-0.14,0.19h-6.34
			c0.15-0.3,0.3-0.59,0.46-0.88H-242.09z M-242,392.06c-0.15,0.25-0.3,0.55-0.44,0.88h-6.15c0.11-0.3,0.23-0.59,0.36-0.88H-242z
			 M-242.63,393.43c-0.09,0.27-0.17,0.56-0.24,0.88h-6.16c0.06-0.22,0.13-0.44,0.19-0.66c0.02-0.07,0.05-0.15,0.07-0.22H-242.63z
			 M-242.95,394.81c-0.01,0.12-0.01,0.24,0.01,0.36c0,0.02,0,0.03,0.01,0.05c0.03,0.18,0.09,0.34,0.17,0.47h-6.59
			c0.06-0.3,0.12-0.59,0.19-0.88H-242.95z M-239.52,396.19v0.88h-10.04c0.03-0.3,0.07-0.59,0.12-0.88H-239.52z M-239.52,397.57v0.95
			h-10.15c0.01-0.32,0.03-0.63,0.06-0.95H-239.52z M-239.52,399.04v2.04c0,0,0,0,0,0.01c0,0,0,0,0,0c-0.02,0-0.04,0-0.06,0
			c-0.56,0-1.01,0.24-1.55,0.61c-0.8,0.54-3.51,1.08-8.05,1.6c0,0-0.01,0-0.01-0.01c-0.32-1.35-0.48-2.75-0.48-4.18
			c0-0.02,0-0.04,0-0.06H-239.52z M-236.25,403.54c-0.49-0.32-1.41-0.92-2.3-0.68c-0.17,0.04-0.33,0.14-0.5,0.26
			c-0.09,0.06-0.17,0.12-0.27,0.17c-0.29,0.17-0.65,0.25-0.88,0.27c-0.27,0.02-0.44,0.02-0.51-0.09c-0.06-0.09-0.07-0.13-0.05-0.18
			c0,0,0,0,0,0c0.05-0.06,0.27-0.16,0.4-0.23c0.15-0.07,0.3-0.15,0.43-0.23c0.17-0.11,0.28-0.2,0.4-0.3
			c0.11-0.09,0.23-0.19,0.43-0.33c0.28-0.2,0.58-0.2,1.03-0.21c0.07,0,0.14,0,0.22,0c0.05,0,0.11,0,0.17-0.01
			c0.49-0.02,0.92,0.13,1.57,0.37c0.19,0.07,0.41,0.15,0.64,0.23c0,0,0,0,0,0c0.01,0,0.88,0.28,2.11,0.57
			c1.04,0.25,2.59,0.57,4.04,0.66c0,0,0,0,0.01,0c0,0,0,0,0,0.01c-0.07,0.25-0.14,0.49-0.21,0.72c-0.3,0.95-0.68,1.85-1.13,2.68
			c0,0,0,0-0.01,0c0,0,0,0,0,0c-0.71-0.29-2.47-1.06-3.63-1.92c-0.23-0.17-0.4-0.34-0.48-0.43c0,0,0,0,0,0c0,0-0.01-0.01-0.01-0.01
			l0,0c-0.03-0.03-0.04-0.05-0.04-0.05C-235.07,404.53-235.58,403.98-236.25,403.54 M-235.32,402.13c-0.23-0.08-0.44-0.16-0.63-0.22
			c-0.68-0.25-1.18-0.43-1.76-0.4c-0.03,0-0.07,0-0.1,0c0,0,0,0,0,0c-0.32-0.15-0.61-0.27-1.03-0.35c0,0-0.01,0-0.01-0.01v-2.11
			h10.16c0,0.02,0,0.04,0,0.06c0,1.45-0.17,2.88-0.49,4.24c0,0,0,0.01-0.01,0.01h0C-231.95,403.19-235.19,402.17-235.32,402.13
			 M-227.92,392.34c0-0.01,0.01-0.01,0.02-0.01c0.01,0,0.01,0.01,0.02,0.01c0.12,0.36,0.18,0.71,0.19,1.03
			c0.01,0.33-0.03,0.63-0.12,0.91c-0.11,0.33-0.27,0.54-0.34,0.62c0,0-0.01,0.01-0.01,0.01c0,0-0.01,0-0.01,0
			c-0.41-0.26-0.73-0.67-0.94-1.22c-0.07-0.17-0.12-0.35-0.16-0.53c0-0.01,0-0.02,0.01-0.02c0.01,0,0.01,0,0.02,0
			c0.37,0.22,0.66,0.54,0.67,0.55c0.04,0.05,0.11,0.06,0.16,0.04c0.06-0.02,0.1-0.07,0.1-0.14
			C-228.29,393.02-228.09,392.6-227.92,392.34 M-229.06,391.94c0.06-0.03,0.09-0.08,0.09-0.15c-0.02-0.58,0.13-1.02,0.27-1.29
			c0.01-0.01,0.01-0.01,0.02-0.01c0.01,0,0.01,0,0.02,0.01c0.15,0.35,0.25,0.68,0.3,1.01c0.05,0.32,0.04,0.63-0.03,0.92
			c-0.08,0.34-0.21,0.57-0.27,0.65c0,0.01-0.01,0.01-0.02,0.01c0,0-0.01,0-0.01,0c-0.44-0.22-0.79-0.59-1.07-1.12
			c-0.08-0.16-0.16-0.33-0.22-0.51c0-0.01,0-0.02,0.01-0.02c0.01-0.01,0.01-0.01,0.02,0c0.38,0.18,0.72,0.47,0.72,0.47
			C-229.18,391.95-229.12,391.96-229.06,391.94L-229.06,391.94 M-229.87,390.25c0.05-0.03,0.08-0.1,0.07-0.16
			c-0.09-0.57,0.01-1.03,0.12-1.31c0-0.01,0.01-0.01,0.02-0.01h0c0.01,0,0.01,0,0.02,0.01c0.19,0.33,0.33,0.65,0.41,0.97
			c0.08,0.32,0.11,0.63,0.08,0.92c-0.03,0.34-0.15,0.59-0.19,0.68c0,0.01-0.01,0.01-0.02,0.01c0,0,0,0-0.01,0
			c-0.49-0.17-0.9-0.51-1.22-1c-0.1-0.16-0.19-0.33-0.27-0.5c0-0.01,0-0.01,0-0.02c0.01-0.01,0.01-0.01,0.02-0.01
			c0.42,0.12,0.78,0.41,0.79,0.41C-230,390.28-229.93,390.29-229.87,390.25 M-231.08,388.69c0.05,0.04,0.13,0.04,0.18,0
			c0.05-0.04,0.08-0.11,0.06-0.17c-0.16-0.51-0.13-0.99-0.08-1.29c0-0.01,0.01-0.01,0.01-0.02c0.01,0,0.02,0,0.02,0.01
			c0.24,0.29,0.42,0.58,0.55,0.87c0.13,0.3,0.21,0.6,0.23,0.89c0.02,0.33-0.04,0.58-0.08,0.7c0,0.01-0.01,0.01-0.02,0.01l0,0
			c-0.48-0.09-0.93-0.36-1.34-0.79c-0.13-0.14-0.26-0.3-0.37-0.47c0-0.01,0-0.01,0-0.02c0-0.01,0.01-0.01,0.02-0.01
			C-231.45,388.44-231.09,388.69-231.08,388.69 M-232.3,387.29c0.06,0.02,0.13,0.01,0.17-0.04c0.04-0.05,0.05-0.12,0.02-0.17
			c-0.27-0.51-0.31-0.98-0.3-1.27c0-0.01,0.01-0.01,0.01-0.02c0.01,0,0.02,0,0.02,0c0.28,0.24,0.5,0.51,0.68,0.77
			c0.18,0.27,0.3,0.56,0.37,0.85c0.08,0.34,0.06,0.62,0.05,0.72c0,0.01-0.01,0.02-0.02,0.02c-0.01,0-0.02,0-0.03,0
			c-0.54,0-1.04-0.3-1.37-0.55c-0.16-0.13-0.32-0.27-0.47-0.42c-0.01-0.01-0.01-0.01,0-0.02c0-0.01,0.01-0.01,0.02-0.01
			C-232.72,387.13-232.3,387.29-232.3,387.29 M-232.77,386.03c0.13,0.33,0.14,0.64,0.14,0.8c0,0.01-0.01,0.02-0.02,0.02
			c-0.03,0-0.06,0-0.09,0c-0.67,0-1.45-0.46-1.86-0.73c-0.01,0-0.01-0.01-0.01-0.02c0-0.01,0.01-0.01,0.02-0.02
			c0.42-0.08,0.82,0.01,0.83,0.01c0.06,0.02,0.13-0.01,0.17-0.07c0.04-0.06,0.03-0.13-0.01-0.18c-0.26-0.33-0.43-0.72-0.52-0.98
			c0-0.01,0-0.02,0-0.02c0.01-0.01,0.01-0.01,0.02-0.01C-233.44,385.07-232.99,385.47-232.77,386.03 M-245.21,384.17
			C-245.22,384.17-245.22,384.16-245.21,384.17c-0.01-0.01-0.01-0.01-0.01-0.02c0.14-0.07,0.28-0.13,0.42-0.18
			c0.4-0.14,0.77-0.23,0.96-0.27c0.42-0.09,0.72-0.28,0.73-0.29c0.02-0.01,0.03-0.04,0.03-0.06c-0.01-0.02-0.02-0.04-0.05-0.04
			l-2.23-0.33c0,0-0.01,0-0.01-0.01c0,0,0-0.01,0.01-0.01l2.23-0.33c0.03,0,0.05-0.03,0.05-0.06c0-0.03-0.02-0.05-0.05-0.06
			c0,0-0.43-0.07-0.86-0.26c-0.13-0.06-0.24-0.12-0.34-0.17c-0.26-0.14-0.48-0.26-0.88-0.33c0,0-0.01,0-0.01-0.01
			c0,0,0-0.01,0.01-0.01c0.15-0.01,0.31-0.01,0.46-0.01c0.42,0.02,0.8,0.08,0.99,0.12c0.42,0.07,0.77,0.02,0.79,0.01
			c0.02,0,0.04-0.02,0.05-0.05c0-0.02-0.01-0.05-0.03-0.06l-1.94-1.16c0,0,0-0.01,0-0.01c0,0,0.01-0.01,0.01-0.01l2.19,0.55
			c0.03,0.01,0.06-0.01,0.07-0.03c0.01-0.03,0-0.06-0.02-0.07c0,0-0.36-0.22-0.7-0.58c-0.1-0.1-0.17-0.2-0.25-0.29
			c-0.18-0.23-0.34-0.42-0.69-0.64c0,0,0-0.01,0-0.01c0,0,0.01-0.01,0.01,0c0.14,0.05,0.29,0.1,0.43,0.17
			c0.38,0.18,0.71,0.39,0.87,0.49c0.37,0.23,0.71,0.31,0.72,0.32c0.02,0.01,0.05,0,0.06-0.02c0.01-0.02,0.01-0.05,0-0.06l-1.35-1.81
			c0,0,0-0.01,0-0.01c0,0,0.01,0,0.01,0l1.82,1.35c0.02,0.02,0.05,0.01,0.07-0.01c0.02-0.02,0.02-0.05,0.01-0.07
			c0,0-0.25-0.34-0.42-0.8c-0.05-0.13-0.08-0.25-0.12-0.37c-0.08-0.28-0.15-0.52-0.39-0.86c0,0,0-0.01,0-0.01c0,0,0.01,0,0.01,0
			c0.12,0.1,0.23,0.21,0.33,0.32c0.28,0.31,0.5,0.63,0.62,0.79c0.25,0.36,0.53,0.56,0.55,0.57c0.02,0.01,0.05,0.01,0.06,0
			c0.02-0.01,0.03-0.04,0.02-0.06l-0.56-2.19c0,0,0-0.01,0-0.01c0,0,0.01,0,0.01,0l1.17,1.94c0.01,0.02,0.04,0.03,0.07,0.02
			c0.03-0.01,0.04-0.04,0.03-0.07c0-0.02-0.1-0.43-0.09-0.9c0-0.14,0.02-0.26,0.03-0.38c0.03-0.29,0.06-0.54-0.03-0.94
			c0,0,0-0.01,0.01-0.01c0,0,0.01,0,0.01,0c0.07,0.14,0.13,0.28,0.18,0.42c0.14,0.4,0.23,0.77,0.27,0.96
			c0.09,0.41,0.27,0.71,0.29,0.74c0.01,0.02,0.04,0.03,0.06,0.03c0.02,0,0.04-0.02,0.04-0.05l0.31-2.23c0,0,0-0.01,0.01-0.01
			c0,0,0.01,0,0.01,0.01l0.32,2.23c0,0.03,0.03,0.05,0.06,0.05c0.03,0,0.05-0.02,0.06-0.05c0-0.02,0.07-0.43,0.26-0.87
			c0.06-0.13,0.12-0.24,0.17-0.34c0.14-0.26,0.26-0.48,0.33-0.88c0,0,0-0.01,0.01-0.01c0,0,0.01,0,0.01,0.01
			c0.01,0.15,0.01,0.31,0.01,0.46c-0.02,0.42-0.08,0.8-0.12,0.99c-0.07,0.43-0.02,0.78-0.01,0.79c0,0.02,0.02,0.04,0.05,0.05
			c0.02,0,0.05-0.01,0.06-0.03l1.15-1.95c0,0,0.01-0.01,0.01,0c0,0,0.01,0.01,0.01,0.01l-0.55,2.2c-0.01,0.03,0.01,0.06,0.03,0.07
			c0.03,0.01,0.06,0,0.07-0.02c0,0,0.22-0.37,0.57-0.7c0.1-0.1,0.2-0.17,0.29-0.25c0.23-0.18,0.42-0.34,0.64-0.69c0,0,0.01,0,0.01,0
			c0,0,0.01,0.01,0,0.01c-0.05,0.15-0.1,0.29-0.17,0.43c-0.18,0.38-0.38,0.71-0.49,0.87c-0.23,0.37-0.31,0.71-0.31,0.73
			c-0.01,0.02,0,0.05,0.02,0.06c0.02,0.01,0.05,0.01,0.06,0l1.81-1.35c0,0,0.01,0,0.01,0c0,0,0,0.01,0,0.01l-1.34,1.82
			c-0.02,0.02-0.01,0.05,0.01,0.07c0.02,0.02,0.05,0.02,0.07,0.01c0,0,0.34-0.25,0.8-0.43c0.13-0.05,0.25-0.08,0.36-0.12
			c0.28-0.08,0.52-0.15,0.85-0.39c0,0,0.01,0,0.01,0c0,0,0,0.01,0,0.01c-0.1,0.12-0.21,0.23-0.32,0.33
			c-0.31,0.28-0.62,0.51-0.78,0.62c-0.36,0.25-0.56,0.54-0.57,0.55c-0.01,0.02-0.01,0.05,0,0.06c0.01,0.02,0.04,0.03,0.06,0.02
			l2.18-0.56c0,0,0.01,0,0.01,0c0,0,0,0.01,0,0.01l-1.93,1.17c-0.02,0.01-0.03,0.04-0.02,0.07c0.01,0.03,0.04,0.04,0.07,0.03
			c0.02,0,0.43-0.1,0.9-0.09c0.14,0,0.26,0.02,0.38,0.03c0.29,0.03,0.54,0.06,0.94-0.03c0,0,0.01,0,0.01,0.01s0,0.01,0,0.01
			c-0.14,0.07-0.28,0.13-0.42,0.18c-0.39,0.14-0.77,0.23-0.96,0.27c-0.42,0.09-0.72,0.28-0.73,0.29c-0.02,0.01-0.03,0.04-0.03,0.06
			c0.01,0.02,0.02,0.04,0.05,0.04l2.23,0.32c0,0,0.01,0,0.01,0.01c0,0,0,0.01-0.01,0.01l-2.23,0.34c-0.03,0-0.05,0.03-0.05,0.06
			c0,0.03,0.02,0.05,0.05,0.06c0,0,0.42,0.07,0.86,0.27c0.13,0.06,0.23,0.12,0.34,0.17c0.26,0.14,0.48,0.26,0.88,0.33
			c0,0,0.01,0,0.01,0.01c0,0,0,0.01-0.01,0.01c-0.09,0.01-0.17,0.01-0.26,0.01c-0.07,0-0.13,0-0.2-0.01
			c-0.42-0.02-0.8-0.09-0.99-0.12c-0.02,0-0.04-0.01-0.06-0.01c0,0,0,0,0,0c-0.35-0.15-0.71-0.23-1.07-0.23h-0.02c0,0,0,0-0.01,0
			c0,0,0,0,0-0.01c0-0.01,0-0.03,0-0.04c-0.01-0.06-0.05-0.1-0.11-0.12c-0.41-0.14-0.81-0.23-1.17-0.26c-0.02,0-0.04,0-0.05,0
			l-0.01,0c-0.01,0-0.02,0-0.03,0c-0.02,0-0.04,0-0.06,0l-0.01,0c-0.01,0-0.01,0-0.02,0c-0.03,0-0.06,0-0.09,0h-0.02
			c-0.17,0-0.33,0.01-0.49,0.04c0,0-0.01,0-0.01,0c0,0,0,0,0-0.01l0-0.01c0-0.02,0-0.05-0.01-0.07c0,0,0-0.01-0.01-0.01
			c-0.02-0.05-0.07-0.08-0.13-0.09c-0.04-0.01-0.07-0.01-0.11-0.01c-0.01,0-0.02,0-0.02,0l-0.01,0c-0.02,0-0.05,0-0.07-0.01
			c-0.01,0-0.03,0-0.04,0c-0.02,0-0.04,0-0.06-0.01c-0.42-0.03-0.81-0.01-1.15,0.05c-0.09,0.02-0.19,0.04-0.28,0.07
			c-0.01,0-0.01,0-0.02,0.01c-0.02,0-0.03,0.01-0.05,0.01l-0.02,0.01c-0.02,0.01-0.04,0.01-0.06,0.02l0,0
			c-0.04,0.02-0.09,0.03-0.13,0.05c0,0-0.01,0-0.01,0c0,0,0-0.01,0-0.01l0,0v0c0-0.01,0-0.01,0-0.02l0,0
			c0.01-0.05-0.01-0.1-0.04-0.14l0,0c0,0-0.01-0.01-0.01-0.01l0,0c-0.03-0.03-0.08-0.04-0.12-0.04c-0.55,0.05-1.02,0.16-1.42,0.33
			c-0.13,0.06-0.26,0.13-0.38,0.2c0,0-0.01,0-0.01,0c0,0,0,0,0-0.01c0-0.03,0.01-0.04,0.01-0.05v0l0,0c0-0.05-0.02-0.11-0.06-0.14
			l0,0c0,0-0.01-0.01-0.01-0.01l0,0c-0.01,0-0.01-0.01-0.01-0.01l0,0c-0.04-0.02-0.08-0.02-0.11-0.01
			c-0.53,0.15-0.99,0.35-1.36,0.61c-0.01,0.01-0.01,0.01-0.02,0.02l-0.01,0.01c0,0,0,0,0,0c-0.11,0.01-0.22,0.01-0.32,0.01
			c-0.08,0-0.36-0.03-0.38-0.03C-244.57,384.1-244.82,384.07-245.21,384.17 M-244.36,384.61L-244.36,384.61c0.01,0,0.01,0,0.02,0
			c0.01,0,0.01,0.01,0.01,0.02c-0.02,0.3-0.11,0.75-0.42,1.24c-0.03,0.05-0.03,0.12,0,0.17c0.03,0.05,0.1,0.08,0.16,0.06
			c0,0,0.42-0.08,0.84-0.05c0.01,0,0.01,0.01,0.02,0.01c0,0.01,0,0.02-0.01,0.02c-0.36,0.29-1.07,0.76-1.83,0.76
			c-0.03,0-0.06,0-0.08,0c-0.01,0-0.02-0.01-0.02-0.02C-245.7,386.46-245.61,385.51-244.36,384.61 M-247.01,387.42
			c0.06-0.29,0.19-0.57,0.37-0.85c0.18-0.27,0.41-0.54,0.7-0.79c0.01-0.01,0.01-0.01,0.02,0c0.01,0,0.01,0.01,0.01,0.02
			c0.01,0.3-0.03,0.76-0.3,1.28c-0.03,0.06-0.02,0.12,0.02,0.17c0.04,0.05,0.11,0.07,0.17,0.05c0,0,0.4-0.13,0.82-0.15
			c0.01,0,0.02,0,0.02,0.01c0,0.01,0,0.02,0,0.02c-0.16,0.16-0.32,0.3-0.48,0.42c-0.33,0.25-0.82,0.55-1.29,0.55
			c-0.02,0-0.04,0-0.06,0c-0.01,0-0.02-0.01-0.02-0.02C-247.06,388.04-247.09,387.77-247.01,387.42 M-247.43,387.2L-247.43,387.2
			c0-0.01,0.01-0.01,0.02-0.01c0.01,0,0.01,0.01,0.01,0.01c0.06,0.29,0.09,0.76-0.09,1.31c-0.02,0.06,0,0.13,0.05,0.17
			c0.05,0.04,0.13,0.04,0.18,0c0,0,0.36-0.25,0.81-0.28c0.01,0,0.01,0,0.02,0.01c0,0.01,0,0.01,0,0.02
			c-0.29,0.41-0.9,1.13-1.69,1.26h0c-0.01,0-0.02-0.01-0.02-0.01C-248.26,389.33-248.42,388.39-247.43,387.2 M-249.13,389.75
			c0.1-0.31,0.25-0.63,0.45-0.95c0-0.01,0.01-0.01,0.02-0.01c0.01,0,0.01,0.01,0.02,0.01c0.09,0.28,0.18,0.74,0.06,1.31
			c-0.01,0.07,0.02,0.13,0.08,0.17c0.06,0.03,0.13,0.02,0.18-0.03c0,0,0.34-0.33,0.8-0.39c0.01,0,0.01,0,0.02,0.01
			c0,0.01,0.01,0.01,0,0.02c-0.06,0.13-0.17,0.33-0.32,0.53c-0.35,0.48-0.77,0.79-1.24,0.93c0,0,0,0-0.01,0
			c-0.01,0-0.01,0-0.02-0.01c-0.04-0.09-0.14-0.34-0.16-0.69C-249.27,390.37-249.23,390.06-249.13,389.75 M-250.04,391.51
			c0.05-0.32,0.15-0.66,0.31-1c0-0.01,0.01-0.01,0.02-0.01c0.01,0,0.01,0,0.02,0.01c0.13,0.27,0.29,0.71,0.26,1.29
			c0,0.06,0.03,0.12,0.09,0.15c0.06,0.03,0.12,0.02,0.17-0.02c0.01-0.01,0.36-0.31,0.76-0.48c0.01,0,0.01,0,0.02,0
			c0.01,0,0.01,0.01,0.01,0.02c-0.04,0.16-0.1,0.33-0.18,0.48c-0.25,0.51-0.64,0.89-1.16,1.16c0,0-0.01,0-0.01,0
			c-0.01,0-0.01,0-0.02-0.01c-0.07-0.1-0.19-0.33-0.26-0.65C-250.09,392.14-250.09,391.83-250.04,391.51 M-250.54,392.33
			c0-0.01,0.01-0.01,0.02-0.01c0.01,0,0.02,0,0.02,0.01c0.17,0.25,0.37,0.67,0.42,1.25c0.01,0.06,0.05,0.12,0.11,0.14
			c0.06,0.02,0.12,0,0.16-0.05c0,0,0.29-0.35,0.69-0.58c0.01,0,0.01,0,0.02,0c0.01,0,0.01,0.01,0.01,0.02
			c-0.02,0.17-0.06,0.35-0.11,0.51c-0.18,0.55-0.52,0.98-1.01,1.29c0,0-0.01,0-0.01,0c-0.01,0-0.01,0-0.01-0.01
			c-0.07-0.08-0.23-0.29-0.35-0.62c-0.1-0.28-0.14-0.58-0.14-0.91C-250.71,393.04-250.65,392.69-250.54,392.33 M-251.1,394.24
			L-251.1,394.24c0-0.01,0.01-0.01,0.01-0.02c0.01,0,0.01,0,0.02,0.01c0.2,0.23,0.45,0.62,0.57,1.19c0.01,0.06,0.06,0.11,0.12,0.12
			c0.06,0.01,0.12-0.01,0.16-0.06c0.03-0.04,0.27-0.38,0.6-0.64c0.01,0,0.01-0.01,0.02,0c0.01,0,0.01,0.01,0.01,0.02
			c-0.01,0.17-0.03,0.34-0.07,0.51c-0.13,0.56-0.4,1.02-0.8,1.39c0,0-0.01,0.01-0.01,0.01c0,0-0.01,0-0.01-0.01
			c-0.09-0.09-0.27-0.27-0.41-0.57c-0.13-0.26-0.21-0.56-0.25-0.89C-251.18,394.97-251.16,394.61-251.1,394.24 M-251.39,396.16
			c0-0.01,0.01-0.01,0.01-0.02c0.01,0,0.01,0,0.02,0.01c0.21,0.22,0.48,0.6,0.63,1.16c0.02,0.06,0.07,0.11,0.13,0.12
			c0.06,0.01,0.13-0.03,0.15-0.09c0.01-0.02,0.19-0.38,0.51-0.67c0.01-0.01,0.01-0.01,0.02,0c0.01,0,0.01,0.01,0.01,0.02
			c0,0.2-0.02,0.39-0.05,0.58c-0.1,0.59-0.32,1.05-0.68,1.38c0,0-0.01,0-0.01,0c0,0-0.01,0-0.01,0c-0.08-0.06-0.28-0.25-0.44-0.55
			c-0.14-0.26-0.24-0.55-0.29-0.88C-251.43,396.88-251.43,396.53-251.39,396.16 M-251.54,398.17L-251.54,398.17
			c0-0.01,0.01-0.01,0.01-0.02c0.01,0,0.02,0,0.02,0c0.04,0.04,0.08,0.08,0.12,0.12c0.18,0.19,0.42,0.52,0.57,1
			c0.02,0.06,0.08,0.11,0.15,0.11c0,0,0.01,0,0.01,0c0.07-0.01,0.13-0.06,0.14-0.13c0,0,0.07-0.42,0.42-0.73
			c0.01,0,0.01-0.01,0.02,0c0.01,0,0.01,0.01,0.01,0.02c0.04,0.23,0.07,0.58,0,0.95c-0.08,0.45-0.26,0.82-0.56,1.11
			c0,0-0.01,0.01-0.01,0.01c0,0-0.01,0-0.01,0C-250.95,400.38-251.64,399.71-251.54,398.17 M-251.62,400.12c0.01,0,0.01,0,0.02,0
			c0.05,0.03,0.09,0.07,0.13,0.11c0.2,0.17,0.47,0.47,0.68,0.93c0.02,0.06,0.08,0.09,0.14,0.09l0,0.01l0-0.01
			c0.06,0,0.12-0.04,0.14-0.1c0.01-0.02,0.18-0.44,0.46-0.77c0-0.01,0.01-0.01,0.02-0.01c0.01,0,0.01,0.01,0.01,0.01
			c0.09,0.41,0.15,1.23-0.46,2.06c0,0.01-0.01,0.01-0.02,0.01c0,0-0.01,0-0.01,0c-0.32-0.19-1.07-0.79-1.14-2.32
			C-251.63,400.13-251.62,400.12-251.62,400.12 M-251.52,402.16L-251.52,402.16c0-0.01,0-0.02,0.01-0.02c0.01,0,0.01-0.01,0.02,0
			c0.27,0.14,0.65,0.4,0.98,0.88c0.03,0.05,0.1,0.08,0.16,0.07c0.06-0.01,0.11-0.06,0.12-0.12l0,0c0.01-0.03,0.11-0.48,0.33-0.85
			c0-0.01,0.01-0.01,0.02-0.01h0c0.01,0,0.01,0,0.02,0.01c0.08,0.17,0.14,0.34,0.18,0.52c0.12,0.55,0.03,1.09-0.27,1.6
			c0,0.01-0.01,0.01-0.02,0.01c0,0,0,0-0.01,0c-0.1-0.04-0.35-0.14-0.61-0.37c-0.22-0.2-0.41-0.44-0.57-0.73
			C-251.32,402.86-251.44,402.53-251.52,402.16 M-251.06,404.05L-251.06,404.05c0-0.01,0-0.02,0.01-0.02c0.01-0.01,0.01-0.01,0.02,0
			c0.05,0.02,0.1,0.05,0.16,0.07c0.23,0.12,0.58,0.34,0.89,0.74c0.04,0.05,0.1,0.07,0.16,0.05c0.06-0.02,0.1-0.07,0.11-0.13
			c0-0.02,0.07-0.46,0.25-0.84c0-0.01,0.01-0.01,0.02-0.01c0.01,0,0.01,0,0.02,0.01c0.19,0.42,0.45,1.25,0.08,2.09
			c0,0.01-0.01,0.01-0.02,0.01c0,0,0,0-0.01,0C-249.74,405.92-250.62,405.52-251.06,404.05 M-249.93,406.85
			c-0.2-0.25-0.38-0.56-0.53-0.9c0-0.01,0-0.02,0-0.02c0-0.01,0.01-0.01,0.02-0.01c0.05,0.02,0.11,0.03,0.16,0.05
			c0.25,0.09,0.61,0.28,0.97,0.63c0.04,0.04,0.11,0.06,0.17,0.03c0.06-0.02,0.1-0.08,0.1-0.14c0,0,0.01-0.45,0.15-0.86
			c0-0.01,0.01-0.01,0.02-0.01c0.01,0,0.01,0,0.02,0.01c0.09,0.16,0.17,0.33,0.23,0.5c0.2,0.55,0.23,1.07,0.08,1.55
			c0,0.01-0.01,0.01-0.02,0.01l0,0c-0.1-0.02-0.37-0.08-0.66-0.25C-249.49,407.31-249.72,407.1-249.93,406.85 M-249.65,407.74
			c0-0.01,0-0.01,0-0.02c0-0.01,0.01-0.01,0.02-0.01c0.3,0.05,0.74,0.19,1.2,0.55c0.05,0.04,0.12,0.04,0.17,0.01
			c0.05-0.03,0.09-0.09,0.08-0.15c0-0.02-0.05-0.42,0.04-0.85c0-0.01,0.01-0.01,0.02-0.02c0.01,0,0.02,0,0.02,0.01
			c0.11,0.16,0.2,0.32,0.29,0.49c0.18,0.37,0.37,0.92,0.28,1.5c0,0.01-0.01,0.02-0.02,0.02c-0.13-0.01-0.38-0.04-0.69-0.17
			c-0.27-0.12-0.53-0.3-0.76-0.53C-249.25,408.35-249.46,408.07-249.65,407.74 M-247.93,410.19c-0.26-0.2-0.5-0.46-0.72-0.76
			c0-0.01-0.01-0.01,0-0.02c0-0.01,0.01-0.01,0.02-0.01c0.3,0.02,0.76,0.11,1.25,0.42c0.05,0.03,0.12,0.03,0.17,0
			c0.05-0.04,0.07-0.1,0.06-0.16c0,0-0.1-0.41-0.05-0.84c0-0.01,0.01-0.01,0.01-0.02c0.01,0,0.02,0,0.02,0.01
			c0.31,0.38,0.82,1.12,0.78,1.92c0,0.01-0.01,0.02-0.02,0.02c-0.02,0-0.05,0-0.08,0c-0.14,0-0.36-0.02-0.63-0.1
			C-247.4,410.54-247.67,410.39-247.93,410.19 M-245.13,412.04c-0.04,0.01-0.13,0.02-0.26,0.02c-0.13,0-0.26-0.01-0.39-0.04
			c-0.55-0.11-1.11-0.43-1.66-0.96c-0.01-0.01-0.01-0.01-0.01-0.02c0-0.01,0.01-0.01,0.02-0.01c0.3-0.04,0.77-0.04,1.31,0.18
			c0.06,0.02,0.12,0.01,0.17-0.04c0.04-0.04,0.06-0.11,0.03-0.17c0,0-0.16-0.4-0.2-0.83c0-0.01,0-0.02,0.01-0.02
			c0.01,0,0.02,0,0.02,0c0.38,0.32,1.01,0.99,0.97,1.87C-245.12,412.03-245.12,412.04-245.13,412.04 M-241.43,413.66
			c-0.43-0.12-0.87-0.27-1.29-0.45c-0.72-0.3-1.42-0.7-2.08-1.17c0,0,0,0,0-0.01c0.01-0.26-0.02-0.53-0.11-0.78c0,0,0-0.01,0-0.01
			c0,0,0.01,0,0.01,0c0.51,0.42,0.96,0.75,1.45,1.03c0.57,0.32,1.16,0.57,1.78,0.76v0l0.15,0.05c-0.01,0.22,0.04,0.42,0.16,0.6
			L-241.43,413.66z M-240.41,413.19c-0.08,0.21-0.06,0.43,0.04,0.66c0,0.01,0,0.02,0,0.03c0,0.01-0.01,0.01-0.02,0.01
			c0,0-0.01,0-0.01,0c-0.27-0.09-0.47-0.22-0.59-0.36c-0.11-0.13-0.15-0.28-0.13-0.45c0.01-0.13,0.07-0.22,0.17-0.28
			c0.17-0.11,0.47-0.15,0.88-0.11c0.01,0,0.02,0.01,0.02,0.02c0,0.01,0,0.02-0.01,0.03C-240.22,412.84-240.34,413-240.41,413.19
			 M-239.18,415.14c-0.29,0-0.53-0.24-0.53-0.53c0-0.29,0.24-0.53,0.53-0.53c0.29,0,0.53,0.24,0.53,0.53
			C-238.65,414.9-238.89,415.14-239.18,415.14 M-238.53,413.91c-0.01,0.01-0.02,0.01-0.03,0c-0.17-0.15-0.39-0.23-0.62-0.23
			c-0.23,0-0.45,0.09-0.62,0.24c0,0-0.01,0.01-0.02,0.01c-0.01,0-0.01,0-0.02-0.01c-0.14-0.15-0.28-0.37-0.2-0.59
			c0.18-0.47,0.83-0.48,0.85-0.48h0c0.05,0,0.2,0.01,0.37,0.06c0.25,0.08,0.41,0.22,0.48,0.42
			C-238.25,413.54-238.4,413.76-238.53,413.91 M-237.38,413.51c-0.12,0.15-0.32,0.27-0.59,0.36c0,0-0.01,0-0.01,0
			c-0.01,0-0.01,0-0.02-0.01c-0.01-0.01-0.01-0.02,0-0.03c0.11-0.22,0.12-0.45,0.04-0.66c-0.07-0.19-0.19-0.35-0.35-0.47
			c-0.01-0.01-0.01-0.02-0.01-0.03c0-0.01,0.01-0.02,0.02-0.02c0.28-0.03,0.67-0.03,0.88,0.11c0.1,0.07,0.15,0.16,0.17,0.28
			C-237.23,413.24-237.27,413.38-237.38,413.51 M-233.56,412.04C-233.56,412.04-233.56,412.05-233.56,412.04
			c-0.15,0.13-0.71,0.54-1.54,0.95c-0.58,0.28-1.18,0.51-1.79,0.67l-0.12,0.03c0.12-0.18,0.18-0.38,0.17-0.61l0.18-0.05v0
			c0.6-0.19,1.19-0.44,1.75-0.75c0.53-0.3,1.02-0.68,1.46-1.04c0,0,0.01,0,0.01,0c0,0,0,0.01,0,0.01
			C-233.54,411.51-233.58,411.78-233.56,412.04 M-235.12,411.96c-0.57,0.32-1.16,0.57-1.76,0.75l-0.06,0.02
			c-0.06-0.11-0.15-0.21-0.26-0.28c-0.57-0.37-1.66-0.1-1.98-0.01c0,0-0.01,0-0.01,0c-0.32-0.09-1.41-0.36-1.98,0.01
			c-0.11,0.07-0.2,0.17-0.26,0.28l-0.09-0.03c-0.59-0.18-1.17-0.43-1.72-0.74c-1.25-0.7-2.37-1.7-3.34-2.98
			c-0.33-0.44-0.65-0.92-0.93-1.41c0,0,0,0,0-0.01c0,0,0,0,0-0.01c0.66-0.29,2.37-1.06,3.83-1.82c0,0,0.01,0,0.01,0c0,0,0,0,0,0.01
			c0.01,0.06,0.03,0.13,0.05,0.19c0.12,0.28,0.44,0.39,0.68,0.43c0.07,0.01,0.15,0.02,0.23,0.02c0,0,0.01,0,0.01,0.01
			c0.09,0.23,0.3,0.4,0.59,0.5c0.1,0.03,0.21,0.05,0.32,0.07c0,0,0.01,0,0.01,0c0.05,0.13,0.14,0.24,0.25,0.32
			c0.28,0.19,0.69,0.16,0.9,0.13c0,0,0.01,0,0.01,0c0.13,0.16,0.29,0.25,0.48,0.29c0.18,0.04,0.39,0.01,0.61-0.07c0,0,0.01,0,0.01,0
			c0,0,0,0,0,0v2.59c0,0.18,0.15,0.33,0.33,0.33c0.18,0,0.33-0.15,0.33-0.33v-2.7c0,0,0,0,0-0.01c0,0,0,0,0.01,0
			c0.35,0.07,0.64,0,0.81-0.07c0.16-0.06,0.28-0.14,0.35-0.2c0,0,0,0,0.01,0c0.33,0.06,0.63-0.03,0.85-0.26
			c0.07-0.07,0.13-0.15,0.18-0.24c0,0,0,0,0.01,0h0c0.02,0,0.05,0,0.07,0c0.42,0,0.67-0.19,0.81-0.35c0.07-0.08,0.12-0.17,0.17-0.27
			c0,0,0,0,0.01-0.01c0.28-0.01,0.51-0.1,0.68-0.26c0.08-0.07,0.14-0.16,0.18-0.26c0,0,0,0,0.01,0c0,0,0,0,0.01,0
			c1.18,0.92,3.05,1.74,3.8,2.05c0,0,0,0,0,0c0,0,0,0.01,0,0.01c-0.27,0.46-0.57,0.91-0.88,1.33
			C-232.75,410.26-233.87,411.26-235.12,411.96 M-230.92,411.07L-230.92,411.07c-0.69,0.65-1.29,0.88-1.66,0.96
			c-0.13,0.03-0.26,0.04-0.39,0.04c-0.11,0-0.2-0.01-0.26-0.02c-0.01,0-0.02-0.01-0.02-0.02c-0.02-0.5,0.17-0.99,0.56-1.45
			c0.12-0.14,0.26-0.28,0.42-0.41c0.01-0.01,0.02-0.01,0.02,0c0.01,0,0.01,0.01,0.01,0.02c-0.04,0.41-0.21,0.81-0.21,0.82
			c-0.02,0.06-0.01,0.12,0.03,0.17c0.04,0.04,0.11,0.06,0.17,0.04c0.54-0.21,1.01-0.21,1.31-0.18c0.01,0,0.01,0.01,0.02,0.01
			C-230.91,411.05-230.92,411.06-230.92,411.07 M-229.69,409.43c-0.22,0.3-0.46,0.56-0.72,0.76c-0.26,0.2-0.53,0.35-0.81,0.45
			c-0.26,0.09-0.49,0.1-0.63,0.1c-0.03,0-0.05,0-0.08,0c-0.01,0-0.02-0.01-0.02-0.02c-0.03-0.48,0.11-0.98,0.43-1.48
			c0.1-0.16,0.21-0.31,0.34-0.45c0.01-0.01,0.01-0.01,0.02-0.01c0.01,0,0.01,0.01,0.01,0.02c0.04,0.41-0.04,0.81-0.05,0.85
			c-0.01,0.06,0.01,0.12,0.06,0.16c0.05,0.04,0.12,0.04,0.17,0c0.49-0.31,0.95-0.4,1.25-0.42c0.01,0,0.01,0,0.02,0.01
			C-229.69,409.41-229.69,409.42-229.69,409.43 M-228.69,407.74c-0.19,0.33-0.4,0.61-0.64,0.83c-0.24,0.23-0.49,0.41-0.76,0.53
			c-0.32,0.14-0.59,0.17-0.69,0.17c-0.01,0-0.02-0.01-0.02-0.02c-0.08-0.47,0.01-0.98,0.27-1.51c0.08-0.16,0.18-0.33,0.29-0.48
			c0-0.01,0.01-0.01,0.02-0.01c0.01,0,0.01,0.01,0.02,0.02c0.08,0.41,0.04,0.85,0.04,0.86c-0.01,0.06,0.03,0.12,0.08,0.15
			c0.05,0.03,0.12,0.02,0.17-0.02c0.45-0.36,0.9-0.5,1.2-0.55c0.01,0,0.01,0,0.02,0.01C-228.69,407.73-228.69,407.73-228.69,407.74
			 M-227.88,405.89L-227.88,405.89c-0.15,0.36-0.34,0.67-0.54,0.93c-0.21,0.26-0.44,0.46-0.7,0.61c-0.29,0.17-0.54,0.23-0.66,0.25
			l0,0c-0.01,0-0.02-0.01-0.02-0.01c-0.14-0.48-0.11-1.01,0.09-1.56c0.06-0.17,0.14-0.33,0.22-0.49c0-0.01,0.01-0.01,0.02-0.01
			c0.01,0,0.01,0.01,0.02,0.01c0.13,0.41,0.15,0.84,0.15,0.85c0,0.06,0.04,0.12,0.1,0.14c0.06,0.02,0.12,0.01,0.17-0.04l0,0
			c0.36-0.39,0.72-0.57,0.96-0.66c0.06-0.02,0.12-0.04,0.17-0.05c0.01,0,0.01,0,0.02,0.01
			C-227.88,405.88-227.88,405.89-227.88,405.89 M-227.3,404.04L-227.3,404.04c-0.12,0.36-0.26,0.68-0.44,0.95
			c-0.18,0.27-0.39,0.5-0.63,0.68c-0.28,0.21-0.54,0.29-0.64,0.32c0,0,0,0,0,0c-0.01,0-0.02-0.01-0.02-0.01
			c-0.23-0.56-0.16-1.16-0.07-1.57c0.04-0.18,0.1-0.37,0.17-0.55c0-0.01,0.01-0.01,0.02-0.01c0.01,0,0.02,0,0.02,0.01
			c0.17,0.4,0.23,0.85,0.24,0.87c0.01,0.06,0.05,0.11,0.11,0.13c0.06,0.02,0.12,0,0.16-0.05c0.37-0.45,0.78-0.68,1.05-0.79
			c0.01,0,0.01,0,0.02,0C-227.3,404.02-227.3,404.03-227.3,404.04 M-227.24,403.08c-0.15,0.29-0.33,0.55-0.54,0.75
			c-0.24,0.23-0.47,0.34-0.59,0.39c0,0-0.01,0-0.01,0c-0.01,0-0.01,0-0.02-0.01c-0.25-0.45-0.34-0.98-0.27-1.58
			c0.02-0.18,0.06-0.37,0.11-0.55c0-0.01,0.01-0.01,0.02-0.01c0.01,0,0.02,0,0.02,0.01c0.22,0.38,0.34,0.83,0.34,0.85
			c0.01,0.06,0.06,0.11,0.13,0.12c0.06,0.01,0.12-0.02,0.15-0.07c0.31-0.49,0.68-0.77,0.95-0.92c0.01,0,0.02,0,0.02,0
			c0.01,0,0.01,0.01,0.01,0.02C-226.98,402.45-227.09,402.79-227.24,403.08"/>
		<path id="XMLID_598_" class="st0" d="M-211.87,407.78l-0.7-2.16c-0.02-0.07-0.09-0.12-0.17-0.12h-3.01
			c-0.08,0-0.15,0.05-0.17,0.12l-0.7,2.16c-0.02,0.07-0.09,0.12-0.17,0.12h-1.1c-0.12,0-0.21-0.12-0.17-0.24l2.69-8.01
			c0.02-0.07,0.09-0.12,0.17-0.12h1.92c0.08,0,0.15,0.05,0.17,0.12l2.69,8.01c0.04,0.12-0.05,0.24-0.17,0.24h-1.11
			C-211.77,407.9-211.84,407.85-211.87,407.78 M-215.24,404.28h1.99c0.12,0,0.21-0.12,0.17-0.24l-1-3.04
			c-0.05-0.17-0.29-0.17-0.34,0l-0.99,3.04C-215.45,404.16-215.37,404.28-215.24,404.28"/>
		<path id="XMLID_597_" class="st0" d="M-209.31,401.73h0.88c0.09,0,0.17,0.07,0.18,0.16l0.09,0.65h0.08
			c0.18-0.29,0.42-0.51,0.71-0.66c0.3-0.15,0.62-0.22,0.98-0.22c0.11,0,0.22,0.01,0.33,0.02c0.09,0.01,0.16,0.09,0.16,0.18v0.98
			c0,0.11-0.09,0.19-0.19,0.18c-0.11-0.01-0.24-0.01-0.38-0.01c-0.29,0-0.58,0.06-0.87,0.18c-0.26,0.11-0.47,0.27-0.63,0.46
			c-0.03,0.03-0.04,0.07-0.04,0.12v3.96c0,0.1-0.08,0.18-0.18,0.18h-1.12c-0.1,0-0.18-0.08-0.18-0.18v-5.81
			C-209.49,401.81-209.41,401.73-209.31,401.73"/>
		<path id="XMLID_594_" class="st0" d="M-204.1,410.44c-0.29-0.04-0.57-0.09-0.84-0.16c-0.08-0.02-0.13-0.09-0.13-0.18v-0.8
			c0-0.12,0.11-0.2,0.23-0.17c0.58,0.15,1.12,0.22,1.64,0.22c0.42,0,0.77-0.05,1.03-0.16c0.26-0.11,0.46-0.28,0.59-0.52
			c0.13-0.24,0.19-0.55,0.19-0.94v-0.49h-0.07c-0.19,0.22-0.43,0.4-0.7,0.52c-0.28,0.12-0.59,0.19-0.94,0.19
			c-0.44,0-0.84-0.11-1.2-0.32c-0.36-0.21-0.64-0.54-0.86-1c-0.21-0.45-0.32-1.01-0.32-1.69c0-1.09,0.28-1.91,0.85-2.46
			c0.57-0.56,1.41-0.84,2.52-0.84c0.37,0,0.75,0.03,1.15,0.08c0.34,0.05,0.65,0.11,0.93,0.2c0.08,0.02,0.13,0.09,0.13,0.17v5.37
			c0,0.71-0.12,1.29-0.35,1.74c-0.23,0.45-0.58,0.77-1.05,0.98c-0.47,0.21-1.06,0.31-1.78,0.31
			C-203.42,410.5-203.76,410.48-204.1,410.44 M-201.93,406.61c0.19-0.07,0.35-0.18,0.48-0.32c0.03-0.03,0.05-0.08,0.05-0.13v-3.14
			c0-0.09-0.06-0.16-0.15-0.18c-0.24-0.04-0.47-0.07-0.7-0.07c-0.58,0-1.02,0.16-1.31,0.49c-0.29,0.32-0.44,0.84-0.44,1.55
			c0,0.7,0.12,1.2,0.37,1.49c0.24,0.29,0.6,0.43,1.05,0.43C-202.35,406.74-202.14,406.7-201.93,406.61"/>
		<path id="XMLID_591_" class="st0" d="M-193.62,405.26h-3.44c-0.11,0-0.19,0.1-0.18,0.2c0.03,0.31,0.1,0.55,0.21,0.75
			c0.13,0.24,0.34,0.41,0.61,0.51c0.28,0.11,0.64,0.16,1.1,0.16c0.39,0,0.84-0.05,1.33-0.16c0.11-0.02,0.22,0.06,0.22,0.17v0.75
			c0,0.08-0.06,0.16-0.14,0.18c-0.54,0.12-1.08,0.19-1.61,0.19c-0.73,0-1.34-0.11-1.81-0.33c-0.47-0.22-0.83-0.57-1.06-1.04
			c-0.23-0.47-0.35-1.08-0.35-1.83c0-0.69,0.11-1.27,0.32-1.75c0.21-0.47,0.53-0.83,0.93-1.07c0.41-0.24,0.9-0.36,1.48-0.36
			c0.84,0,1.48,0.27,1.92,0.81c0.44,0.54,0.66,1.34,0.66,2.41v0.22C-193.44,405.18-193.52,405.26-193.62,405.26 M-196.93,403.01
			c-0.19,0.24-0.29,0.64-0.32,1.17c-0.01,0.1,0.08,0.19,0.18,0.19h2.06c0.1,0,0.19-0.09,0.18-0.19c-0.03-0.54-0.13-0.93-0.31-1.17
			c-0.2-0.27-0.49-0.41-0.88-0.41C-196.42,402.6-196.72,402.74-196.93,403.01"/>
		<path id="XMLID_590_" class="st0" d="M-192.16,401.73h0.89c0.09,0,0.16,0.06,0.18,0.15l0.08,0.5h0.08
			c0.23-0.24,0.51-0.43,0.83-0.55c0.32-0.13,0.66-0.19,1.02-0.19c0.64,0,1.14,0.19,1.51,0.56c0.37,0.38,0.55,0.97,0.55,1.78v3.74
			c0,0.1-0.08,0.18-0.18,0.18h-1.12c-0.1,0-0.18-0.08-0.18-0.18v-3.66c0-0.41-0.09-0.7-0.26-0.88c-0.17-0.18-0.43-0.26-0.76-0.26
			c-0.25,0-0.49,0.05-0.73,0.16c-0.22,0.09-0.41,0.23-0.56,0.41c-0.03,0.03-0.04,0.08-0.04,0.12v4.11c0,0.1-0.08,0.18-0.18,0.18
			h-1.12c-0.1,0-0.18-0.08-0.18-0.18v-5.81C-192.34,401.81-192.26,401.73-192.16,401.73"/>
		<path id="XMLID_589_" class="st0" d="M-181.92,406.92v0.83c0,0.09-0.06,0.16-0.14,0.18c-0.31,0.06-0.62,0.09-0.92,0.09
			c-1.46,0-2.19-0.74-2.19-2.21v-2.71c0-0.1-0.08-0.18-0.18-0.18h-0.7c-0.1,0-0.18-0.08-0.18-0.18v-0.82c0-0.1,0.08-0.18,0.18-0.18
			h0.72c0.09,0,0.17-0.07,0.18-0.16l0.22-1.88c0.01-0.09,0.09-0.16,0.18-0.16h0.88c0.1,0,0.18,0.08,0.18,0.18v1.84
			c0,0.1,0.08,0.18,0.18,0.18h1.36c0.1,0,0.18,0.08,0.18,0.18v0.82c0,0.1-0.08,0.18-0.18,0.18h-1.36c-0.1,0-0.18,0.08-0.18,0.18
			v2.47c0,0.3,0.04,0.54,0.12,0.72c0.08,0.18,0.19,0.3,0.35,0.38c0.16,0.08,0.37,0.12,0.63,0.12c0.13,0,0.29-0.01,0.48-0.04
			C-182.02,406.72-181.92,406.81-181.92,406.92"/>
		<path id="XMLID_586_" class="st0" d="M-180.84,400.47c-0.16-0.14-0.23-0.34-0.23-0.6c0-0.26,0.08-0.46,0.23-0.6
			c0.16-0.14,0.39-0.21,0.7-0.21c0.31,0,0.55,0.07,0.7,0.21c0.16,0.14,0.23,0.34,0.23,0.6c0,0.26-0.08,0.46-0.23,0.6
			c-0.16,0.14-0.39,0.21-0.7,0.21C-180.45,400.68-180.68,400.61-180.84,400.47 M-180.88,407.72v-5.81c0-0.1,0.08-0.18,0.18-0.18
			h1.13c0.1,0,0.18,0.08,0.18,0.18v5.81c0,0.1-0.08,0.18-0.18,0.18h-1.13C-180.8,407.9-180.88,407.82-180.88,407.72"/>
		<path id="XMLID_585_" class="st0" d="M-178,401.73h0.89c0.09,0,0.16,0.06,0.18,0.15l0.08,0.5h0.08c0.23-0.24,0.51-0.43,0.83-0.55
			c0.32-0.13,0.66-0.19,1.02-0.19c0.64,0,1.14,0.19,1.51,0.56c0.37,0.38,0.55,0.97,0.55,1.78v3.74c0,0.1-0.08,0.18-0.18,0.18h-1.12
			c-0.1,0-0.18-0.08-0.18-0.18v-3.66c0-0.41-0.09-0.7-0.26-0.88c-0.17-0.18-0.43-0.26-0.76-0.26c-0.25,0-0.49,0.05-0.73,0.16
			c-0.22,0.09-0.41,0.23-0.56,0.41c-0.03,0.03-0.04,0.08-0.04,0.12v4.11c0,0.1-0.08,0.18-0.18,0.18H-178c-0.1,0-0.18-0.08-0.18-0.18
			v-5.81C-178.18,401.81-178.1,401.73-178,401.73"/>
		<path id="XMLID_582_" class="st0" d="M-167.87,401.87c0.39,0.16,0.68,0.41,0.87,0.77c0.19,0.36,0.29,0.84,0.29,1.46v3.62
			c0,0.1-0.08,0.18-0.18,0.18h-0.89c-0.09,0-0.16-0.06-0.18-0.15l-0.08-0.49h-0.08c-0.18,0.25-0.42,0.43-0.72,0.56
			c-0.29,0.13-0.62,0.19-0.97,0.19c-0.4,0-0.75-0.07-1.05-0.22c-0.29-0.14-0.52-0.35-0.68-0.61c-0.16-0.26-0.23-0.57-0.23-0.92
			c0-0.57,0.2-1.02,0.59-1.33c0.39-0.31,1.01-0.5,1.86-0.57l1.15-0.11v-0.24c0-0.31-0.05-0.56-0.15-0.74
			c-0.1-0.18-0.26-0.31-0.47-0.38c-0.21-0.08-0.5-0.11-0.86-0.11c-0.25,0-0.53,0.02-0.82,0.06c-0.21,0.03-0.42,0.07-0.62,0.13
			c-0.12,0.03-0.23-0.05-0.23-0.17v-0.76c0-0.08,0.05-0.15,0.13-0.17c0.24-0.07,0.51-0.12,0.81-0.16c0.34-0.05,0.67-0.07,0.98-0.07
			C-168.77,401.64-168.26,401.72-167.87,401.87 M-168.72,406.83c0.18-0.07,0.35-0.19,0.5-0.34c0.03-0.03,0.05-0.08,0.05-0.13v-1.04
			c0-0.11-0.09-0.19-0.2-0.18l-0.82,0.07c-0.39,0.04-0.67,0.13-0.85,0.28c-0.18,0.15-0.27,0.36-0.27,0.62
			c0,0.27,0.08,0.48,0.24,0.62c0.16,0.14,0.39,0.22,0.7,0.22C-169.13,406.96-168.92,406.92-168.72,406.83"/>
	</g>
	<g id="XMLID_516_">
		<path id="XMLID_579_" class="st0" d="M-212.47,388.67h1.34v6.13h-1.04v-4.63l-1.68,3.76h-0.93l-1.68-3.67v4.55h-1.04v-6.13h1.34
			l1.86,4.14L-212.47,388.67z"/>
		<path id="XMLID_576_" class="st0" d="M-209.94,389.36c-0.11-0.1-0.17-0.25-0.17-0.44s0.06-0.34,0.17-0.44
			c0.11-0.1,0.29-0.15,0.52-0.15c0.23,0,0.4,0.05,0.52,0.15c0.11,0.1,0.17,0.25,0.17,0.44s-0.06,0.34-0.17,0.44
			c-0.11,0.1-0.29,0.15-0.52,0.15C-209.66,389.51-209.83,389.46-209.94,389.36z M-209.97,394.8v-4.52h1.09v4.52H-209.97z"/>
		<path id="XMLID_574_" class="st0" d="M-207.81,390.28h0.9l0.07,0.48h0.06c0.17-0.18,0.37-0.31,0.61-0.41
			c0.23-0.09,0.48-0.14,0.75-0.14c0.47,0,0.84,0.14,1.11,0.41c0.27,0.27,0.41,0.71,0.41,1.3v2.88h-1.09v-2.81
			c0-0.3-0.06-0.52-0.19-0.64c-0.13-0.13-0.31-0.19-0.56-0.19c-0.18,0-0.36,0.04-0.54,0.11c-0.18,0.08-0.32,0.19-0.44,0.34v3.19
			h-1.09V390.28z"/>
		<path id="XMLID_570_" class="st0" d="M-202.84,389.36c-0.11-0.1-0.17-0.25-0.17-0.44s0.06-0.34,0.17-0.44
			c0.11-0.1,0.29-0.15,0.52-0.15c0.23,0,0.4,0.05,0.52,0.15c0.11,0.1,0.17,0.25,0.17,0.44s-0.06,0.34-0.17,0.44
			s-0.29,0.15-0.52,0.15C-202.55,389.51-202.72,389.46-202.84,389.36z M-202.87,394.8v-4.52h1.09v4.52H-202.87z"/>
		<path id="XMLID_567_" class="st0" d="M-200.84,394.69v-0.81c0.44,0.13,0.9,0.2,1.37,0.2c0.32,0,0.55-0.05,0.7-0.14
			c0.15-0.1,0.22-0.23,0.22-0.42c0-0.15-0.04-0.26-0.12-0.34c-0.08-0.08-0.21-0.14-0.4-0.17l-0.69-0.13
			c-0.42-0.08-0.72-0.23-0.91-0.44c-0.19-0.21-0.29-0.49-0.29-0.84c0-0.28,0.07-0.53,0.22-0.74c0.15-0.21,0.37-0.37,0.67-0.49
			c0.3-0.12,0.67-0.17,1.12-0.17c0.42,0,0.8,0.05,1.16,0.14v0.81c-0.36-0.1-0.73-0.15-1.13-0.15c-0.68,0-1.02,0.19-1.02,0.56
			c0,0.13,0.04,0.24,0.11,0.32c0.08,0.08,0.21,0.14,0.39,0.18l0.69,0.13c0.41,0.08,0.72,0.22,0.91,0.42
			c0.19,0.2,0.29,0.49,0.29,0.86c0,0.29-0.07,0.54-0.22,0.75c-0.15,0.21-0.37,0.37-0.66,0.48c-0.29,0.11-0.64,0.17-1.05,0.17
			C-199.97,394.89-200.43,394.82-200.84,394.69z"/>
		<path id="XMLID_564_" class="st0" d="M-194.11,393.92v0.87c-0.26,0.06-0.52,0.09-0.78,0.09c-1.07,0-1.61-0.54-1.61-1.62v-2.12
			h-0.78v-0.87h0.78l0.19-1.61h0.89v1.61h1.26v0.87h-1.26v1.94c0,0.22,0.03,0.4,0.09,0.53c0.06,0.13,0.14,0.22,0.26,0.28
			c0.12,0.06,0.27,0.08,0.46,0.08C-194.47,393.98-194.31,393.96-194.11,393.92z"/>
		<path id="XMLID_561_" class="st0" d="M-189.82,392.87h-2.8c0.01,0.29,0.07,0.53,0.17,0.7c0.1,0.17,0.25,0.3,0.45,0.37
			c0.2,0.08,0.47,0.12,0.81,0.12c0.33,0,0.71-0.05,1.14-0.16v0.82c-0.43,0.11-0.86,0.16-1.28,0.16c-0.54,0-0.98-0.08-1.33-0.24
			c-0.35-0.16-0.61-0.42-0.78-0.76c-0.17-0.34-0.26-0.79-0.26-1.34c0-0.51,0.08-0.93,0.24-1.28c0.16-0.35,0.39-0.61,0.68-0.79
			s0.66-0.26,1.08-0.26c0.62,0,1.08,0.2,1.4,0.59c0.32,0.4,0.48,0.99,0.48,1.77V392.87z M-192.38,391.22c-0.15,0.2-0.23,0.53-0.24,1
			h1.79c-0.01-0.47-0.09-0.8-0.23-1c-0.15-0.2-0.36-0.3-0.65-0.3C-192,390.92-192.23,391.02-192.38,391.22z"/>
		<path id="XMLID_558_" class="st0" d="M-189.01,390.28h0.9l0.08,0.59h0.06c0.13-0.21,0.31-0.37,0.52-0.48
			c0.22-0.11,0.46-0.16,0.71-0.16c0.12,0,0.24,0.01,0.36,0.03v0.99c-0.11-0.02-0.25-0.03-0.42-0.03c-0.22,0-0.43,0.04-0.64,0.13
			c-0.21,0.09-0.37,0.21-0.49,0.38v3.08h-1.09V390.28z"/>
		<path id="XMLID_552_" class="st0" d="M-185.71,389.36c-0.11-0.1-0.17-0.25-0.17-0.44s0.06-0.34,0.17-0.44
			c0.11-0.1,0.29-0.15,0.52-0.15c0.23,0,0.4,0.05,0.52,0.15c0.11,0.1,0.17,0.25,0.17,0.44s-0.06,0.34-0.17,0.44
			s-0.29,0.15-0.52,0.15C-185.42,389.51-185.59,389.46-185.71,389.36z M-185.74,394.8v-4.52h1.09v4.52H-185.74z"/>
		<path id="XMLID_547_" class="st0" d="M-183.23,394.3c-0.37-0.39-0.56-0.97-0.56-1.75c0-0.78,0.18-1.37,0.55-1.76
			c0.37-0.39,0.88-0.58,1.56-0.58c0.67,0,1.19,0.19,1.56,0.58c0.37,0.39,0.55,0.97,0.55,1.75c0,0.52-0.09,0.95-0.25,1.3
			c-0.17,0.35-0.41,0.61-0.73,0.78c-0.32,0.17-0.69,0.26-1.12,0.26C-182.34,394.89-182.86,394.69-183.23,394.3z M-180.93,393.71
			c0.17-0.23,0.25-0.61,0.25-1.15c0-0.55-0.09-0.94-0.25-1.17c-0.17-0.23-0.42-0.34-0.76-0.34c-0.33,0-0.59,0.11-0.76,0.34
			c-0.17,0.23-0.25,0.61-0.25,1.15c0,0.37,0.04,0.67,0.12,0.89c0.08,0.22,0.19,0.38,0.34,0.47c0.15,0.1,0.33,0.14,0.55,0.14
			C-181.35,394.05-181.1,393.94-180.93,393.71z"/>
		<path id="XMLID_542_" class="st0" d="M-175.97,394.65c-0.27-0.15-0.49-0.4-0.65-0.74s-0.24-0.76-0.24-1.28
			c0-0.8,0.2-1.4,0.61-1.81c0.41-0.41,1-0.62,1.78-0.62c0.19,0,0.39,0.02,0.61,0.05v-2.15h1.09v6.7h-0.92l-0.07-0.48h-0.06
			c-0.14,0.17-0.31,0.31-0.51,0.41c-0.21,0.1-0.44,0.15-0.7,0.15C-175.38,394.88-175.7,394.8-175.97,394.65z M-174.25,393.88
			c0.15-0.07,0.28-0.17,0.39-0.3v-2.47c-0.19-0.04-0.39-0.06-0.61-0.06c-0.44,0-0.77,0.12-0.98,0.35s-0.32,0.62-0.32,1.15
			c0,0.52,0.09,0.9,0.27,1.11c0.18,0.22,0.44,0.33,0.77,0.33C-174.57,393.99-174.41,393.95-174.25,393.88z"/>
		<path id="XMLID_537_" class="st0" d="M-168.03,392.87h-2.8c0.01,0.29,0.07,0.53,0.17,0.7c0.1,0.17,0.25,0.3,0.45,0.37
			c0.2,0.08,0.47,0.12,0.81,0.12c0.33,0,0.71-0.05,1.14-0.16v0.82c-0.43,0.11-0.86,0.16-1.28,0.16c-0.54,0-0.98-0.08-1.33-0.24
			c-0.35-0.16-0.61-0.42-0.78-0.76c-0.17-0.34-0.26-0.79-0.26-1.34c0-0.51,0.08-0.93,0.24-1.28c0.16-0.35,0.39-0.61,0.68-0.79
			s0.66-0.26,1.08-0.26c0.62,0,1.08,0.2,1.4,0.59c0.32,0.4,0.48,0.99,0.48,1.77V392.87z M-170.59,391.22c-0.15,0.2-0.23,0.53-0.24,1
			h1.79c-0.01-0.47-0.09-0.8-0.23-1c-0.15-0.2-0.36-0.3-0.65-0.3C-170.22,390.92-170.44,391.02-170.59,391.22z"/>
		<path id="XMLID_534_" class="st0" d="M-164.52,394.81c-0.28-0.04-0.55-0.11-0.79-0.19v-0.91c0.25,0.09,0.52,0.15,0.81,0.2
			c0.29,0.05,0.57,0.07,0.83,0.07c0.43,0,0.75-0.07,0.95-0.22c0.2-0.15,0.3-0.36,0.3-0.64c0-0.16-0.03-0.29-0.09-0.4
			c-0.06-0.1-0.17-0.2-0.31-0.27c-0.14-0.08-0.34-0.15-0.6-0.22l-0.41-0.11c-0.54-0.14-0.94-0.34-1.21-0.63
			c-0.27-0.28-0.4-0.65-0.4-1.11c0-0.57,0.21-1.02,0.62-1.33c0.41-0.31,1.01-0.47,1.8-0.47c0.26,0,0.51,0.02,0.76,0.05
			c0.24,0.03,0.46,0.08,0.66,0.13v0.91c-0.2-0.06-0.42-0.11-0.65-0.14c-0.23-0.03-0.47-0.05-0.71-0.05c-0.48,0-0.83,0.07-1.04,0.22
			c-0.22,0.15-0.33,0.35-0.33,0.63c0,0.15,0.03,0.28,0.09,0.38c0.06,0.1,0.15,0.19,0.28,0.27s0.31,0.14,0.54,0.21l0.41,0.1
			c0.59,0.15,1.02,0.36,1.29,0.64c0.27,0.28,0.41,0.65,0.41,1.11c0,0.38-0.09,0.71-0.28,0.99s-0.46,0.49-0.81,0.63
			c-0.36,0.15-0.78,0.22-1.27,0.22C-163.96,394.88-164.24,394.86-164.52,394.81z"/>
		<path id="XMLID_529_" class="st0" d="M-157.82,390.38c0.28,0.11,0.5,0.3,0.64,0.57c0.14,0.26,0.21,0.62,0.21,1.07v2.78h-0.9
			l-0.07-0.47h-0.06c-0.14,0.18-0.31,0.32-0.52,0.41c-0.21,0.09-0.45,0.14-0.71,0.14c-0.3,0-0.55-0.05-0.77-0.16
			c-0.22-0.11-0.38-0.25-0.5-0.45c-0.11-0.19-0.17-0.42-0.17-0.68c0-0.42,0.14-0.74,0.43-0.97c0.29-0.23,0.74-0.37,1.36-0.42
			l0.85-0.08v-0.18c0-0.23-0.04-0.41-0.11-0.54c-0.07-0.13-0.19-0.22-0.34-0.28s-0.37-0.08-0.63-0.08c-0.19,0-0.39,0.02-0.6,0.05
			c-0.22,0.03-0.42,0.08-0.62,0.14v-0.83c0.2-0.06,0.43-0.11,0.69-0.15c0.25-0.03,0.49-0.05,0.72-0.05
			C-158.48,390.21-158.11,390.27-157.82,390.38z M-158.44,394.02c0.15-0.06,0.29-0.16,0.4-0.29v-0.96l-0.74,0.07
			c-0.28,0.03-0.49,0.1-0.62,0.21s-0.2,0.26-0.2,0.46c0,0.2,0.06,0.35,0.18,0.46c0.12,0.11,0.29,0.16,0.52,0.16
			C-158.75,394.11-158.59,394.08-158.44,394.02z"/>
		<path id="XMLID_526_" class="st0" d="M-155.94,394.8v-6.7h1.09v6.7H-155.94z"/>
		<path id="XMLID_523_" class="st0" d="M-153.4,394.47c-0.27-0.27-0.41-0.71-0.41-1.3v-2.89h1.09v2.82c0,0.3,0.06,0.52,0.19,0.64
			c0.13,0.13,0.3,0.19,0.54,0.19c0.17,0,0.35-0.04,0.52-0.12s0.32-0.19,0.44-0.34v-3.2h1.09v4.52h-0.9l-0.07-0.47h-0.05
			c-0.18,0.18-0.38,0.32-0.6,0.41c-0.22,0.09-0.46,0.14-0.71,0.14C-152.76,394.88-153.13,394.74-153.4,394.47z"/>
		<path id="XMLID_518_" class="st0" d="M-148.19,394.65c-0.27-0.15-0.49-0.4-0.65-0.74s-0.24-0.76-0.24-1.28
			c0-0.8,0.2-1.4,0.61-1.81c0.41-0.41,1-0.62,1.78-0.62c0.19,0,0.39,0.02,0.61,0.05v-2.15h1.09v6.7h-0.92l-0.07-0.48h-0.06
			c-0.14,0.17-0.31,0.31-0.51,0.41c-0.21,0.1-0.44,0.15-0.7,0.15C-147.6,394.88-147.91,394.8-148.19,394.65z M-146.47,393.88
			c0.15-0.07,0.28-0.17,0.39-0.3v-2.47c-0.19-0.04-0.39-0.06-0.61-0.06c-0.44,0-0.77,0.12-0.98,0.35s-0.32,0.62-0.32,1.15
			c0,0.52,0.09,0.9,0.27,1.11c0.18,0.22,0.44,0.33,0.77,0.33C-146.79,393.99-146.63,393.95-146.47,393.88z"/>
	</g>
</g>
</svg>
