<?xml version="1.0" encoding="utf-8"?>
<!-- Generator: Adobe Illustrator 19.0.0, SVG Export Plug-In . SVG Version: 6.00 Build 0)  -->
<svg version="1.1" id="Capa_1" xmlns="http://www.w3.org/2000/svg" xmlns:xlink="http://www.w3.org/1999/xlink" x="0px" y="0px"
	 viewBox="-273 396.9 48 48" style="enable-background:new -273 396.9 48 48;" xml:space="preserve">
<style type="text/css">
	.st0{fill:#FFFFFF;}
</style>
<g id="REFEPS_1_">
	<path class="st0" d="M-239.4,416.8L-239.4,416.8c-2.4-1.1-5.1-1.6-8.1-1.8c-0.4,0-1.1,0-1.5,0c-0.6,0-1.2,0-1.8,0.1
		c-3,0.1-5.7,0.7-8,1.6v0.1c0,0.4,0,0.6,0,0.8c0.1,3.9,1.1,7,2.8,9.8c0.3,0.5,0.5,0.8,0.9,1.2c1.7,2.2,3.8,3.3,6.1,3.3
		c2.2,0,4.3-1.2,6-3.3c0.3-0.4,0.6-0.7,0.9-1.2c1.7-2.8,2.7-5.9,2.7-9.8C-239.4,417.4-239.4,417.2-239.4,416.8z"/>
	<path class="st0" d="M-266.3,435.8c-2.1,2.4-3.1,5.6-3.1,9.1h20.4l-1.8-4.4h-12.3l4-8.9l0.4-0.3c-0.3,0.2-0.4,0.3-0.7,0.5v0.1
		C-262.1,432.3-264.3,433.5-266.3,435.8z"/>
	<path class="st0" d="M-228.6,444.9c-0.1-3.5-1.2-6.6-3.3-9.1c-1.9-2.4-4.1-3.7-6.8-3.9c0,0,0-0.1-0.1-0.1c-0.1-0.1-0.1-0.1-0.1-0.1
		l4,8.7h-12.4l-1.7,4.5H-228.6z"/>
	<path class="st0" d="M-257,431.4l-4,8.7h10l-2.7-6.7C-255,432.9-256,432.3-257,431.4z"/>
	<path class="st0" d="M-241,431.4c-1.1,0.9-2.2,1.5-3.4,2.1l-2.6,6.6h9.9L-241,431.4z"/>
	<g>
		<path class="st0" d="M-238,407.1c-0.9-1.8-2-3.2-3.4-4.3c-2-3.9-4.5-5.9-7.6-5.9s-5.7,1.9-7.5,5.7c-1.5,1.1-2.8,2.5-3.7,4.5
			c-0.4,0.5-0.7,1.2-0.8,2l1.7,5.5c2.4-1.1,5.4-1.6,8.5-1.8c0.6-0.1,1.2-0.1,1.8-0.1c0.4,0,1.1,0,1.5,0c3.1,0.2,6,0.8,8.6,1.8
			l1.7-5.4C-237.4,408.3-237.7,407.7-238,407.1z M-249.1,398.8c0.6,0,1.4,0,2,0.3c0.9,0.3,1.7,0.7,2.3,1.4c1.2,1.2,1.8,2.6,1.8,4.3
			c0,1.7-0.5,3.1-1.8,4.3c-1.3,1.2-2.6,1.8-4.3,1.8c-1.6,0-3-0.6-4.3-1.8c-1.2-1.2-1.7-2.6-1.7-4.3c0-1.7,0.5-3.1,1.7-4.3
			c0.6-0.7,1.5-1.2,2.3-1.4C-250.4,398.8-249.8,398.8-249.1,398.8z"/>
		<path class="st0" d="M-248.1,400.4h-2.2v3.1h-3.1v2.2h3.1v3.1h2.2v-3h3.1v-2.3h-3.1V400.4z"/>
	</g>
</g>
</svg>
