<?xml version="1.0" encoding="utf-8"?>
<!-- Generator: Adobe Illustrator 19.0.0, SVG Export Plug-In . SVG Version: 6.00 Build 0)  -->
<svg version="1.1" id="Capa_2" xmlns="http://www.w3.org/2000/svg" xmlns:xlink="http://www.w3.org/1999/xlink" x="0px" y="0px"
	 viewBox="12 5 244 42" style="enable-background:new 12 5 244 42;" xml:space="preserve">
<style type="text/css">
	.st0{fill:#000099;}
	.st1{fill:#3366FF;}
	.st2{fill:#FF9900;}
</style>
<g id="logo">
	<g id="logo_base_1_">
		<path class="st0" d="M166.4,47V22.6c0-5.4,1.4-9.6,4.2-12.8c2.8-3.2,6.6-4.8,11.3-4.8s8.4,1.6,11.3,4.8c2.8,3.2,4.3,7.5,4.3,12.8
			V47h-10.1V31.7h-9V22h9v-0.5c0-2-0.5-3.5-1.5-4.7c-1-1.2-2.3-1.8-4-1.8c-1.8,0-3.1,0.6-4,1.8c-0.9,1.2-1.4,2.9-1.4,5.2v25H166.4
			L166.4,47z"/>
		<path class="st0" d="M133.8,47v-9.9h14c0.8,0,1.4-0.2,1.9-0.5c0.5-0.3,0.7-0.8,0.7-1.5c0-0.6-0.2-1.2-0.7-1.7
			c-0.5-0.6-1.2-1.1-2.1-1.8l-7.8-4.8c-1.8-1.1-3.2-2.5-4.3-4.3s-1.6-3.6-1.6-5.4s0.3-3.4,0.9-4.9c0.6-1.5,1.5-2.7,2.7-3.8
			c1.1-1,2.5-1.7,4.1-2.1c1.6-0.4,4.3-0.6,7.9-0.6h9.3v9.5h-10.6c-1.5,0-2.5,0.1-3.1,0.4c-0.5,0.2-0.8,0.6-0.8,1.2
			c0,0.6,0.2,1.1,0.7,1.7c0.4,0.5,1.1,1.1,2,1.6l7.6,4.6c2.2,1.3,3.8,2.9,5,4.8c1.1,1.8,1.7,3.8,1.7,6c0,1.9-0.4,3.6-1.2,5.2
			c-0.8,1.6-1.9,2.9-3.2,3.9c-1.2,0.9-2.6,1.5-4.1,1.9s-3.9,0.6-7.2,0.6h-0.6L133.8,47L133.8,47z"/>
		<path class="st0" d="M70.4,47v-9.9h14c0.8,0,1.4-0.2,1.9-0.5c0.4-0.3,0.7-0.8,0.7-1.5c0-0.6-0.2-1.2-0.7-1.7
			c-0.5-0.6-1.1-1.1-2.1-1.8l-7.8-4.8c-1.8-1.1-3.2-2.5-4.3-4.3c-1.1-1.8-1.6-3.6-1.6-5.4s0.3-3.4,0.9-4.9s1.5-2.7,2.7-3.8
			c1.1-1,2.5-1.7,4.1-2.1c1.6-0.4,4.3-0.6,7.9-0.6h9.3v9.4H84.8c-1.5,0-2.5,0.1-3,0.4c-0.6,0.2-0.8,0.7-0.8,1.2
			c0,0.6,0.2,1.1,0.6,1.7c0.4,0.5,1.1,1.1,2,1.6l7.6,4.6c2.2,1.3,3.8,2.9,5,4.8c1.1,1.8,1.7,3.8,1.7,6c0,1.9-0.4,3.6-1.2,5.2
			c-0.8,1.6-1.9,2.9-3.2,3.9c-1.2,0.9-2.6,1.5-4.1,1.9c-1.5,0.4-3.9,0.6-7.2,0.6h-0.6H70.4L70.4,47z"/>
		<path class="st0" d="M125.8,20c-0.5,5-4.8,8.9-9.9,8.9s-9.4-3.9-9.9-8.9h-3v27h25.5V20H125.8z"/>
		<path class="st1" d="M102.9,5.5v12h3c0.7-5,4.8-8.6,9.8-8.6s9.2,3.6,9.9,8.6h2.8v-12H102.9z"/>
		<circle class="st2" cx="115.8" cy="18.9" r="7.3"/>
	</g>
</g>
</svg>
