<?xml version="1.0" encoding="utf-8"?>
<!-- Generator: Adobe Illustrator 19.0.0, SVG Export Plug-In . SVG Version: 6.00 Build 0)  -->
<svg version="1.1" id="Capa_1" xmlns="http://www.w3.org/2000/svg" xmlns:xlink="http://www.w3.org/1999/xlink" x="0px" y="0px"
	 viewBox="0 0 220 50" style="enable-background:new 0 0 220 50;" xml:space="preserve">
<style type="text/css">
	.st0{fill:#FFFFFF;}
</style>
<g>
	<g>
		<path class="st0" d="M124.6,10.7c-0.9-0.3-1.6-0.6-2-1c-0.4-0.4-0.6-0.9-0.6-1.4c0-0.6,0.3-1.2,0.8-1.6c0.5-0.4,1.2-0.6,2-0.6
			c0.6,0,1.1,0.1,1.5,0.3c0.4,0.2,0.8,0.5,1,0.9c0.2,0.4,0.4,0.8,0.4,1.3h-1.1c0-0.5-0.2-0.9-0.5-1.2c-0.3-0.3-0.8-0.4-1.3-0.4
			c-0.5,0-0.9,0.1-1.2,0.4c-0.3,0.2-0.4,0.6-0.4,1c0,0.3,0.1,0.6,0.4,0.8c0.3,0.2,0.8,0.4,1.4,0.6c0.7,0.2,1.2,0.4,1.6,0.6
			c0.4,0.2,0.7,0.5,0.9,0.8c0.2,0.3,0.3,0.7,0.3,1.1c0,0.7-0.3,1.2-0.8,1.6c-0.5,0.4-1.2,0.6-2.1,0.6c-0.6,0-1.1-0.1-1.6-0.3
			c-0.5-0.2-0.9-0.5-1.1-0.9c-0.3-0.4-0.4-0.8-0.4-1.3h1.1c0,0.5,0.2,0.9,0.5,1.2c0.4,0.3,0.9,0.4,1.5,0.4c0.6,0,1-0.1,1.3-0.3
			c0.3-0.2,0.5-0.5,0.5-0.9c0-0.4-0.1-0.7-0.4-0.9C125.8,11.1,125.3,10.9,124.6,10.7z"/>
		<path class="st0" d="M128.8,6.6c0-0.2,0.1-0.3,0.2-0.4c0.1-0.1,0.3-0.2,0.5-0.2c0.2,0,0.4,0.1,0.5,0.2c0.1,0.1,0.2,0.3,0.2,0.4
			c0,0.2-0.1,0.3-0.2,0.4c-0.1,0.1-0.3,0.2-0.5,0.2c-0.2,0-0.4-0.1-0.5-0.2C128.9,6.9,128.8,6.8,128.8,6.6z M130,14.3h-1V8.2h1V14.3
			z"/>
		<path class="st0" d="M135.2,12.7c0-0.3-0.1-0.5-0.3-0.7c-0.2-0.2-0.6-0.3-1.1-0.4c-0.5-0.1-0.9-0.2-1.3-0.4
			c-0.3-0.2-0.5-0.3-0.7-0.6c-0.1-0.2-0.2-0.5-0.2-0.8c0-0.5,0.2-0.9,0.6-1.3c0.4-0.3,1-0.5,1.6-0.5c0.7,0,1.2,0.2,1.7,0.5
			c0.4,0.4,0.6,0.8,0.6,1.4h-1c0-0.3-0.1-0.5-0.4-0.7c-0.2-0.2-0.5-0.3-0.9-0.3c-0.4,0-0.7,0.1-0.9,0.2c-0.2,0.2-0.3,0.4-0.3,0.6
			c0,0.3,0.1,0.4,0.3,0.6c0.2,0.1,0.6,0.2,1.1,0.4c0.5,0.1,0.9,0.3,1.3,0.4c0.3,0.2,0.6,0.4,0.7,0.6c0.2,0.2,0.2,0.5,0.2,0.8
			c0,0.5-0.2,1-0.7,1.3c-0.4,0.3-1,0.5-1.7,0.5c-0.5,0-0.9-0.1-1.3-0.3c-0.4-0.2-0.7-0.4-0.9-0.7c-0.2-0.3-0.3-0.6-0.3-1h1
			c0,0.3,0.2,0.6,0.4,0.8c0.3,0.2,0.6,0.3,1,0.3c0.4,0,0.7-0.1,0.9-0.2C135,13.2,135.2,13,135.2,12.7z"/>
		<path class="st0" d="M139,6.8v1.5h1.1V9H139v3.8c0,0.2,0,0.4,0.2,0.5c0.1,0.1,0.3,0.2,0.5,0.2c0.1,0,0.3,0,0.5-0.1v0.8
			c-0.3,0.1-0.5,0.1-0.8,0.1c-0.5,0-0.8-0.1-1.1-0.4c-0.2-0.3-0.4-0.7-0.4-1.2V9h-1.1V8.2h1.1V6.8H139z"/>
		<path class="st0" d="M143.8,14.4c-0.8,0-1.5-0.3-2-0.8c-0.5-0.5-0.8-1.3-0.8-2.2v-0.2c0-0.6,0.1-1.1,0.3-1.6
			c0.2-0.5,0.6-0.8,1-1.1c0.4-0.3,0.9-0.4,1.3-0.4c0.8,0,1.4,0.3,1.8,0.8c0.4,0.5,0.7,1.3,0.7,2.2v0.4h-4.1c0,0.6,0.2,1.1,0.5,1.5
			c0.3,0.4,0.8,0.6,1.3,0.6c0.4,0,0.7-0.1,0.9-0.2c0.3-0.1,0.5-0.3,0.7-0.6l0.6,0.5C145.6,14,144.9,14.4,143.8,14.4z M143.7,9
			c-0.4,0-0.8,0.2-1.1,0.5c-0.3,0.3-0.5,0.7-0.5,1.3h3v-0.1c0-0.5-0.2-0.9-0.4-1.2C144.5,9.1,144.1,9,143.7,9z"/>
		<path class="st0" d="M148.4,8.2l0,0.7c0.4-0.5,1-0.8,1.8-0.8c0.9,0,1.4,0.3,1.7,1c0.2-0.3,0.5-0.5,0.8-0.7
			c0.3-0.2,0.7-0.3,1.1-0.3c1.3,0,2,0.7,2,2.1v4.1h-1v-4c0-0.4-0.1-0.8-0.3-1c-0.2-0.2-0.5-0.3-1-0.3c-0.4,0-0.7,0.1-1,0.3
			c-0.3,0.2-0.4,0.5-0.4,0.9v4h-1v-4c0-0.9-0.4-1.3-1.3-1.3c-0.7,0-1.1,0.3-1.4,0.9v4.4h-1V8.2H148.4z"/>
		<path class="st0" d="M161.2,14.3c-0.1-0.1-0.1-0.3-0.1-0.6c-0.5,0.5-1.1,0.8-1.7,0.8c-0.6,0-1.1-0.2-1.5-0.5
			c-0.4-0.3-0.6-0.8-0.6-1.3c0-0.6,0.2-1.1,0.7-1.5c0.5-0.4,1.2-0.5,2-0.5h1v-0.5c0-0.4-0.1-0.7-0.3-0.9c-0.2-0.2-0.5-0.3-1-0.3
			c-0.4,0-0.7,0.1-0.9,0.3c-0.3,0.2-0.4,0.4-0.4,0.7h-1c0-0.3,0.1-0.6,0.3-0.9c0.2-0.3,0.5-0.5,0.9-0.7c0.4-0.2,0.8-0.2,1.2-0.2
			c0.7,0,1.2,0.2,1.6,0.5c0.4,0.4,0.6,0.8,0.6,1.4v2.8c0,0.6,0.1,1,0.2,1.3v0.1H161.2z M159.5,13.5c0.3,0,0.6-0.1,0.9-0.3
			c0.3-0.2,0.5-0.4,0.6-0.7v-1.2h-0.8c-1.3,0-1.9,0.4-1.9,1.1c0,0.3,0.1,0.6,0.3,0.8C158.9,13.4,159.2,13.5,159.5,13.5z"/>
		<path class="st0" d="M167.9,14.3h-1.1V6.1h1.1V14.3z"/>
		<path class="st0" d="M170.7,8.2l0,0.8c0.5-0.6,1.1-0.9,1.8-0.9c1.3,0,1.9,0.7,1.9,2.2v4h-1v-4c0-0.4-0.1-0.8-0.3-1
			C173,9.1,172.7,9,172.2,9c-0.3,0-0.6,0.1-0.9,0.3c-0.3,0.2-0.5,0.4-0.6,0.7v4.3h-1V8.2H170.7z"/>
		<path class="st0" d="M177.5,6.8v1.5h1.1V9h-1.1v3.8c0,0.2,0,0.4,0.2,0.5c0.1,0.1,0.3,0.2,0.5,0.2c0.1,0,0.3,0,0.5-0.1v0.8
			c-0.3,0.1-0.5,0.1-0.8,0.1c-0.5,0-0.8-0.1-1.1-0.4c-0.2-0.3-0.4-0.7-0.4-1.2V9h-1.1V8.2h1.1V6.8H177.5z"/>
		<path class="st0" d="M182.4,14.4c-0.8,0-1.5-0.3-2-0.8c-0.5-0.5-0.8-1.3-0.8-2.2v-0.2c0-0.6,0.1-1.1,0.3-1.6
			c0.2-0.5,0.6-0.8,1-1.1c0.4-0.3,0.9-0.4,1.3-0.4c0.8,0,1.4,0.3,1.8,0.8c0.4,0.5,0.7,1.3,0.7,2.2v0.4h-4.1c0,0.6,0.2,1.1,0.5,1.5
			c0.3,0.4,0.8,0.6,1.3,0.6c0.4,0,0.7-0.1,0.9-0.2c0.3-0.1,0.5-0.3,0.7-0.6l0.6,0.5C184.1,14,183.4,14.4,182.4,14.4z M182.2,9
			c-0.4,0-0.8,0.2-1.1,0.5c-0.3,0.3-0.5,0.7-0.5,1.3h3v-0.1c0-0.5-0.2-0.9-0.4-1.2C183,9.1,182.7,9,182.2,9z"/>
		<path class="st0" d="M185.7,11.2c0-0.9,0.2-1.7,0.7-2.3c0.4-0.6,1-0.8,1.7-0.8c0.7,0,1.3,0.3,1.7,0.8l0-0.7h0.9v5.9
			c0,0.8-0.2,1.4-0.7,1.9c-0.5,0.5-1.1,0.7-1.9,0.7c-0.4,0-0.9-0.1-1.3-0.3c-0.4-0.2-0.7-0.4-1-0.8l0.5-0.6c0.4,0.6,1,0.8,1.6,0.8
			c0.5,0,0.9-0.1,1.2-0.4c0.3-0.3,0.4-0.7,0.4-1.2v-0.5c-0.4,0.5-1,0.7-1.7,0.7c-0.7,0-1.3-0.3-1.7-0.9
			C185.9,13,185.7,12.2,185.7,11.2z M186.7,11.3c0,0.7,0.1,1.2,0.4,1.6c0.3,0.4,0.7,0.6,1.2,0.6c0.7,0,1.1-0.3,1.4-0.9V9.9
			C189.4,9.3,189,9,188.3,9c-0.5,0-0.9,0.2-1.2,0.6C186.9,10,186.7,10.6,186.7,11.3z"/>
		<path class="st0" d="M195.3,9.2c-0.2,0-0.3,0-0.5,0c-0.7,0-1.1,0.3-1.4,0.9v4.3h-1V8.2h1l0,0.7c0.3-0.5,0.8-0.8,1.4-0.8
			c0.2,0,0.4,0,0.5,0.1V9.2z"/>
		<path class="st0" d="M199.8,14.3c-0.1-0.1-0.1-0.3-0.1-0.6c-0.5,0.5-1.1,0.8-1.7,0.8c-0.6,0-1.1-0.2-1.5-0.5
			c-0.4-0.3-0.6-0.8-0.6-1.3c0-0.6,0.2-1.1,0.7-1.5c0.5-0.4,1.2-0.5,2-0.5h1v-0.5c0-0.4-0.1-0.7-0.3-0.9c-0.2-0.2-0.5-0.3-1-0.3
			c-0.4,0-0.7,0.1-0.9,0.3c-0.3,0.2-0.4,0.4-0.4,0.7h-1c0-0.3,0.1-0.6,0.3-0.9c0.2-0.3,0.5-0.5,0.9-0.7c0.4-0.2,0.8-0.2,1.2-0.2
			c0.7,0,1.2,0.2,1.6,0.5c0.4,0.4,0.6,0.8,0.6,1.4v2.8c0,0.6,0.1,1,0.2,1.3v0.1H199.8z M198.1,13.5c0.3,0,0.6-0.1,0.9-0.3
			c0.3-0.2,0.5-0.4,0.6-0.7v-1.2h-0.8c-1.3,0-1.9,0.4-1.9,1.1c0,0.3,0.1,0.6,0.3,0.8C197.5,13.4,197.7,13.5,198.1,13.5z"/>
		<path class="st0" d="M202,11.2c0-0.9,0.2-1.7,0.7-2.2c0.4-0.6,1-0.9,1.7-0.9c0.7,0,1.3,0.2,1.7,0.7V5.7h1v8.6h-1l-0.1-0.7
			c-0.4,0.5-1,0.8-1.7,0.8c-0.7,0-1.3-0.3-1.7-0.9C202.3,13,202,12.2,202,11.2L202,11.2z M203.1,11.3c0,0.7,0.1,1.2,0.4,1.6
			c0.3,0.4,0.7,0.6,1.2,0.6c0.7,0,1.1-0.3,1.4-0.9V9.9c-0.3-0.6-0.8-0.9-1.4-0.9c-0.5,0-0.9,0.2-1.2,0.6
			C203.2,10,203.1,10.6,203.1,11.3z"/>
		<path class="st0" d="M208.5,11.2c0-0.6,0.1-1.1,0.4-1.6c0.2-0.5,0.6-0.8,1-1.1c0.4-0.3,0.9-0.4,1.4-0.4c0.8,0,1.5,0.3,2,0.9
			c0.5,0.6,0.8,1.3,0.8,2.3v0.1c0,0.6-0.1,1.1-0.3,1.6c-0.2,0.5-0.6,0.8-1,1.1c-0.4,0.3-0.9,0.4-1.5,0.4c-0.8,0-1.5-0.3-2-0.9
			C208.8,13,208.5,12.2,208.5,11.2L208.5,11.2z M209.6,11.3c0,0.7,0.2,1.2,0.5,1.6c0.3,0.4,0.7,0.6,1.3,0.6c0.5,0,0.9-0.2,1.3-0.6
			c0.3-0.4,0.5-1,0.5-1.7c0-0.7-0.2-1.2-0.5-1.6c-0.3-0.4-0.7-0.6-1.3-0.6c-0.5,0-0.9,0.2-1.2,0.6C209.7,10,209.6,10.6,209.6,11.3z"
			/>
		<path class="st0" d="M121.8,25c0-0.9,0.2-1.7,0.7-2.2c0.4-0.6,1-0.9,1.7-0.9c0.7,0,1.3,0.2,1.7,0.7v-3.2h1v8.6h-1l0-0.7
			c-0.4,0.5-1,0.8-1.7,0.8c-0.7,0-1.3-0.3-1.7-0.9C122,26.8,121.8,26,121.8,25L121.8,25z M122.8,25.1c0,0.7,0.1,1.2,0.4,1.6
			c0.3,0.4,0.7,0.6,1.2,0.6c0.7,0,1.1-0.3,1.4-0.9v-2.8c-0.3-0.6-0.8-0.9-1.4-0.9c-0.5,0-0.9,0.2-1.2,0.6
			C122.9,23.8,122.8,24.4,122.8,25.1z"/>
		<path class="st0" d="M131,28.2c-0.8,0-1.5-0.3-2-0.8c-0.5-0.5-0.8-1.3-0.8-2.2v-0.2c0-0.6,0.1-1.1,0.3-1.6c0.2-0.5,0.6-0.8,1-1.1
			c0.4-0.3,0.9-0.4,1.3-0.4c0.8,0,1.4,0.3,1.8,0.8c0.4,0.5,0.7,1.3,0.7,2.2v0.4h-4.1c0,0.6,0.2,1.1,0.5,1.5c0.3,0.4,0.8,0.6,1.3,0.6
			c0.4,0,0.7-0.1,0.9-0.2c0.3-0.2,0.5-0.3,0.7-0.6l0.6,0.5C132.8,27.8,132,28.2,131,28.2z M130.9,22.8c-0.4,0-0.8,0.2-1.1,0.5
			c-0.3,0.3-0.5,0.7-0.5,1.3h3v-0.1c0-0.5-0.2-0.9-0.4-1.2C131.7,22.9,131.3,22.8,130.9,22.8z"/>
		<path class="st0" d="M138.8,28.1h-1.1v-8.2h1.1V28.1z"/>
		<path class="st0" d="M141.6,22l0,0.8c0.5-0.6,1.1-0.9,1.8-0.9c1.3,0,1.9,0.7,1.9,2.2v4h-1v-4c0-0.4-0.1-0.8-0.3-1
			c-0.2-0.2-0.5-0.3-0.9-0.3c-0.3,0-0.6,0.1-0.9,0.3c-0.3,0.2-0.5,0.4-0.6,0.7v4.3h-1V22H141.6z"/>
		<path class="st0" d="M147.4,28.1v-5.3h-1V22h1v-0.6c0-0.7,0.2-1.2,0.5-1.5c0.3-0.4,0.8-0.5,1.5-0.5c0.2,0,0.5,0,0.7,0.1l-0.1,0.8
			c-0.2,0-0.4-0.1-0.6-0.1c-0.3,0-0.6,0.1-0.8,0.3c-0.2,0.2-0.3,0.5-0.3,0.8V22h1.3v0.8h-1.3v5.3H147.4z"/>
		<path class="st0" d="M150.6,25c0-0.6,0.1-1.1,0.4-1.6c0.2-0.5,0.6-0.8,1-1.1c0.4-0.3,0.9-0.4,1.4-0.4c0.8,0,1.5,0.3,2,0.9
			c0.5,0.6,0.8,1.3,0.8,2.3v0.1c0,0.6-0.1,1.1-0.3,1.6c-0.2,0.5-0.6,0.8-1,1.1c-0.4,0.3-0.9,0.4-1.5,0.4c-0.8,0-1.5-0.3-2-0.9
			C150.9,26.8,150.6,26,150.6,25L150.6,25z M151.7,25.1c0,0.7,0.2,1.2,0.5,1.6c0.3,0.4,0.7,0.6,1.3,0.6c0.5,0,0.9-0.2,1.3-0.6
			c0.3-0.4,0.5-1,0.5-1.7c0-0.7-0.2-1.2-0.5-1.6c-0.3-0.4-0.7-0.6-1.3-0.6c-0.5,0-0.9,0.2-1.2,0.6C151.8,23.8,151.7,24.4,151.7,25.1
			z"/>
		<path class="st0" d="M160.4,23c-0.2,0-0.3,0-0.5,0c-0.7,0-1.1,0.3-1.4,0.9v4.3h-1V22h1l0,0.7c0.3-0.5,0.8-0.8,1.4-0.8
			c0.2,0,0.4,0,0.5,0.1V23z"/>
		<path class="st0" d="M162.3,22l0,0.7c0.4-0.5,1-0.8,1.8-0.8c0.8,0,1.4,0.3,1.7,1c0.2-0.3,0.5-0.5,0.8-0.7c0.3-0.2,0.7-0.3,1.1-0.3
			c1.3,0,2,0.7,2,2.1v4.1h-1v-4c0-0.4-0.1-0.8-0.3-1c-0.2-0.2-0.5-0.3-1-0.3c-0.4,0-0.7,0.1-1,0.3c-0.3,0.2-0.4,0.5-0.4,0.9v4h-1v-4
			c0-0.9-0.4-1.3-1.3-1.3c-0.7,0-1.1,0.3-1.4,0.9v4.4h-1V22H162.3z"/>
		<path class="st0" d="M175.2,28.1c-0.1-0.1-0.1-0.3-0.1-0.6c-0.5,0.5-1.1,0.8-1.7,0.8c-0.6,0-1.1-0.2-1.5-0.5
			c-0.4-0.3-0.6-0.8-0.6-1.3c0-0.6,0.2-1.1,0.7-1.5c0.5-0.4,1.2-0.5,2-0.5h1V24c0-0.4-0.1-0.7-0.3-0.9c-0.2-0.2-0.5-0.3-1-0.3
			c-0.4,0-0.7,0.1-0.9,0.3c-0.2,0.2-0.4,0.4-0.4,0.7h-1c0-0.3,0.1-0.6,0.3-0.9c0.2-0.3,0.5-0.5,0.9-0.7c0.4-0.2,0.8-0.2,1.2-0.2
			c0.7,0,1.2,0.2,1.6,0.5c0.4,0.4,0.6,0.8,0.6,1.4v2.8c0,0.6,0.1,1,0.2,1.3v0.1H175.2z M173.5,27.3c0.3,0,0.6-0.1,0.9-0.3
			c0.3-0.2,0.5-0.4,0.6-0.7v-1.2h-0.8c-1.3,0-1.9,0.4-1.9,1.1c0,0.3,0.1,0.6,0.3,0.8C172.9,27.2,173.1,27.3,173.5,27.3z"/>
		<path class="st0" d="M180.1,27.4c0.4,0,0.7-0.1,1-0.3c0.3-0.2,0.4-0.5,0.5-0.8h1c0,0.3-0.1,0.7-0.4,1c-0.2,0.3-0.5,0.6-0.9,0.8
			c-0.4,0.2-0.8,0.3-1.2,0.3c-0.8,0-1.5-0.3-2-0.8c-0.5-0.6-0.7-1.3-0.7-2.3V25c0-0.6,0.1-1.1,0.3-1.6c0.2-0.5,0.5-0.8,0.9-1.1
			c0.4-0.3,0.9-0.4,1.4-0.4c0.7,0,1.2,0.2,1.7,0.6c0.5,0.4,0.7,0.9,0.7,1.6h-1c0-0.4-0.2-0.7-0.4-1c-0.3-0.3-0.6-0.4-1-0.4
			c-0.5,0-0.9,0.2-1.2,0.6c-0.3,0.4-0.4,0.9-0.4,1.6v0.2c0,0.7,0.1,1.2,0.4,1.6C179.2,27.2,179.6,27.4,180.1,27.4z"/>
		<path class="st0" d="M183.7,20.4c0-0.2,0.1-0.3,0.2-0.4c0.1-0.1,0.3-0.2,0.5-0.2c0.2,0,0.4,0.1,0.5,0.2c0.1,0.1,0.2,0.3,0.2,0.4
			c0,0.2-0.1,0.3-0.2,0.4c-0.1,0.1-0.3,0.2-0.5,0.2c-0.2,0-0.4-0.1-0.5-0.2C183.8,20.7,183.7,20.6,183.7,20.4z M184.9,28.1h-1V22h1
			V28.1z"/>
		<path class="st0" d="M186.2,25c0-0.6,0.1-1.1,0.4-1.6c0.2-0.5,0.6-0.8,1-1.1c0.4-0.3,0.9-0.4,1.4-0.4c0.8,0,1.5,0.3,2,0.9
			c0.5,0.6,0.8,1.3,0.8,2.3v0.1c0,0.6-0.1,1.1-0.3,1.6c-0.2,0.5-0.6,0.8-1,1.1c-0.4,0.3-0.9,0.4-1.5,0.4c-0.8,0-1.5-0.3-2-0.9
			C186.5,26.8,186.2,26,186.2,25L186.2,25z M187.3,25.1c0,0.7,0.2,1.2,0.5,1.6c0.3,0.4,0.7,0.6,1.3,0.6c0.5,0,0.9-0.2,1.3-0.6
			c0.3-0.4,0.5-1,0.5-1.7c0-0.7-0.2-1.2-0.5-1.6c-0.3-0.4-0.7-0.6-1.3-0.6c-0.5,0-0.9,0.2-1.2,0.6C187.4,23.8,187.3,24.4,187.3,25.1
			z M189.5,19.5h1.3l-1.5,1.7l-0.8,0L189.5,19.5z"/>
		<path class="st0" d="M194.1,22l0,0.8c0.5-0.6,1.1-0.9,1.8-0.9c1.3,0,1.9,0.7,1.9,2.2v4h-1v-4c0-0.4-0.1-0.8-0.3-1
			c-0.2-0.2-0.5-0.3-0.9-0.3c-0.3,0-0.6,0.1-0.9,0.3c-0.3,0.2-0.5,0.4-0.6,0.7v4.3h-1V22H194.1z"/>
		<path class="st0" d="M124.6,38.3c-0.9-0.3-1.6-0.6-2-1c-0.4-0.4-0.6-0.9-0.6-1.4c0-0.6,0.3-1.2,0.8-1.6c0.5-0.4,1.2-0.6,2-0.6
			c0.6,0,1.1,0.1,1.5,0.3c0.4,0.2,0.8,0.5,1,0.9c0.2,0.4,0.4,0.8,0.4,1.3h-1.1c0-0.5-0.2-0.9-0.5-1.2c-0.3-0.3-0.8-0.4-1.3-0.4
			c-0.5,0-0.9,0.1-1.2,0.4c-0.3,0.2-0.4,0.6-0.4,1c0,0.3,0.1,0.6,0.4,0.8c0.3,0.2,0.8,0.4,1.4,0.6c0.7,0.2,1.2,0.4,1.6,0.6
			c0.4,0.2,0.7,0.5,0.9,0.8c0.2,0.3,0.3,0.7,0.3,1.1c0,0.7-0.3,1.2-0.8,1.6c-0.5,0.4-1.2,0.6-2.1,0.6c-0.6,0-1.1-0.1-1.6-0.3
			c-0.5-0.2-0.9-0.5-1.1-0.9c-0.3-0.4-0.4-0.8-0.4-1.3h1.1c0,0.5,0.2,0.9,0.5,1.2c0.4,0.3,0.9,0.4,1.5,0.4c0.6,0,1-0.1,1.3-0.3
			c0.3-0.2,0.5-0.5,0.5-0.9c0-0.4-0.1-0.7-0.4-0.9C125.8,38.7,125.3,38.5,124.6,38.3z"/>
		<path class="st0" d="M132.6,41.9c-0.1-0.1-0.1-0.3-0.1-0.6c-0.5,0.5-1.1,0.8-1.7,0.8c-0.6,0-1.1-0.2-1.5-0.5
			c-0.4-0.3-0.6-0.8-0.6-1.3c0-0.6,0.2-1.1,0.7-1.5c0.5-0.4,1.2-0.5,2-0.5h1v-0.5c0-0.4-0.1-0.7-0.3-0.9c-0.2-0.2-0.5-0.3-1-0.3
			c-0.4,0-0.7,0.1-0.9,0.3c-0.3,0.2-0.4,0.4-0.4,0.7h-1c0-0.3,0.1-0.6,0.3-0.9c0.2-0.3,0.5-0.5,0.9-0.7c0.4-0.2,0.8-0.2,1.2-0.2
			c0.7,0,1.2,0.2,1.6,0.5c0.4,0.3,0.6,0.8,0.6,1.4v2.8c0,0.6,0.1,1,0.2,1.3v0.1H132.6z M130.9,41.1c0.3,0,0.6-0.1,0.9-0.3
			c0.3-0.2,0.5-0.4,0.6-0.7V39h-0.8c-1.3,0-1.9,0.4-1.9,1.1c0,0.3,0.1,0.6,0.3,0.8C130.2,41,130.5,41.1,130.9,41.1z"/>
		<path class="st0" d="M136.1,35.8l0,0.8c0.5-0.6,1.1-0.9,1.8-0.9c1.3,0,1.9,0.7,1.9,2.2v4h-1v-4c0-0.4-0.1-0.8-0.3-1
			c-0.2-0.2-0.5-0.3-0.9-0.3c-0.3,0-0.6,0.1-0.9,0.3c-0.3,0.2-0.5,0.4-0.6,0.7v4.3h-1v-6.1H136.1z"/>
		<path class="st0" d="M141.4,34.2c0-0.2,0.1-0.3,0.2-0.4c0.1-0.1,0.3-0.2,0.5-0.2c0.2,0,0.4,0.1,0.5,0.2c0.1,0.1,0.2,0.3,0.2,0.4
			c0,0.2-0.1,0.3-0.2,0.4c-0.1,0.1-0.3,0.2-0.5,0.2c-0.2,0-0.4-0.1-0.5-0.2C141.5,34.5,141.4,34.4,141.4,34.2z M142.6,41.9h-1v-6.1
			h1V41.9z"/>
		<path class="st0" d="M145.6,34.4v1.5h1.1v0.8h-1.1v3.8c0,0.2,0.1,0.4,0.2,0.5c0.1,0.1,0.3,0.2,0.5,0.2c0.1,0,0.3,0,0.5-0.1v0.8
			c-0.3,0.1-0.5,0.1-0.8,0.1c-0.5,0-0.8-0.1-1.1-0.4c-0.2-0.3-0.4-0.7-0.4-1.2v-3.8h-1.1v-0.8h1.1v-1.5H145.6z"/>
		<path class="st0" d="M151.7,41.9c-0.1-0.1-0.1-0.3-0.1-0.6c-0.5,0.5-1.1,0.8-1.7,0.8c-0.6,0-1.1-0.2-1.5-0.5
			c-0.4-0.3-0.6-0.8-0.6-1.3c0-0.6,0.2-1.1,0.7-1.5c0.5-0.4,1.2-0.5,2-0.5h1v-0.5c0-0.4-0.1-0.7-0.3-0.9c-0.2-0.2-0.5-0.3-1-0.3
			c-0.4,0-0.7,0.1-0.9,0.3c-0.2,0.2-0.4,0.4-0.4,0.7h-1c0-0.3,0.1-0.6,0.3-0.9c0.2-0.3,0.5-0.5,0.9-0.7c0.4-0.2,0.8-0.2,1.2-0.2
			c0.7,0,1.2,0.2,1.6,0.5c0.4,0.3,0.6,0.8,0.6,1.4v2.8c0,0.6,0.1,1,0.2,1.3v0.1H151.7z M150,41.1c0.3,0,0.6-0.1,0.9-0.3
			c0.3-0.2,0.5-0.4,0.6-0.7V39h-0.8c-1.3,0-1.9,0.4-1.9,1.1c0,0.3,0.1,0.6,0.3,0.8C149.4,41,149.7,41.1,150,41.1z"/>
		<path class="st0" d="M157.2,36.8c-0.2,0-0.3,0-0.5,0c-0.7,0-1.1,0.3-1.4,0.9v4.3h-1v-6.1h1l0,0.7c0.3-0.5,0.8-0.8,1.4-0.8
			c0.2,0,0.4,0,0.5,0.1V36.8z"/>
		<path class="st0" d="M158.1,34.2c0-0.2,0.1-0.3,0.2-0.4c0.1-0.1,0.3-0.2,0.5-0.2c0.2,0,0.4,0.1,0.5,0.2c0.1,0.1,0.2,0.3,0.2,0.4
			c0,0.2-0.1,0.3-0.2,0.4c-0.1,0.1-0.3,0.2-0.5,0.2c-0.2,0-0.4-0.1-0.5-0.2C158.2,34.5,158.1,34.4,158.1,34.2z M159.3,41.9h-1v-6.1
			h1V41.9z"/>
		<path class="st0" d="M164.7,41.9c-0.1-0.1-0.1-0.3-0.1-0.6c-0.5,0.5-1.1,0.8-1.7,0.8c-0.6,0-1.1-0.2-1.5-0.5
			c-0.4-0.3-0.6-0.8-0.6-1.3c0-0.6,0.2-1.1,0.7-1.5c0.5-0.4,1.2-0.5,2-0.5h1v-0.5c0-0.4-0.1-0.7-0.3-0.9c-0.2-0.2-0.5-0.3-1-0.3
			c-0.4,0-0.7,0.1-0.9,0.3c-0.3,0.2-0.4,0.4-0.4,0.7h-1c0-0.3,0.1-0.6,0.3-0.9c0.2-0.3,0.5-0.5,0.9-0.7c0.4-0.2,0.8-0.2,1.2-0.2
			c0.7,0,1.2,0.2,1.6,0.5c0.4,0.3,0.6,0.8,0.6,1.4v2.8c0,0.6,0.1,1,0.2,1.3v0.1H164.7z M163,41.1c0.3,0,0.6-0.1,0.9-0.3
			c0.3-0.2,0.5-0.4,0.6-0.7V39h-0.8c-1.3,0-1.9,0.4-1.9,1.1c0,0.3,0.1,0.6,0.3,0.8C162.3,41,162.6,41.1,163,41.1z"/>
		<path class="st0" d="M174.7,39.8h-3.4l-0.8,2.1h-1.1l3.1-8.2h0.9l3.1,8.2h-1.1L174.7,39.8z M171.6,38.9h2.8l-1.4-3.8L171.6,38.9z"
			/>
		<path class="st0" d="M180.5,36.8c-0.2,0-0.3,0-0.5,0c-0.7,0-1.1,0.3-1.4,0.9v4.3h-1v-6.1h1l0,0.7c0.3-0.5,0.8-0.8,1.4-0.8
			c0.2,0,0.4,0,0.5,0.1V36.8z"/>
		<path class="st0" d="M181.1,38.8c0-0.9,0.2-1.7,0.7-2.3c0.4-0.6,1-0.8,1.7-0.8c0.7,0,1.3,0.3,1.7,0.8l0-0.7h0.9v5.9
			c0,0.8-0.2,1.4-0.7,1.9c-0.5,0.5-1.1,0.7-1.9,0.7c-0.4,0-0.9-0.1-1.3-0.3c-0.4-0.2-0.7-0.4-1-0.8l0.5-0.6c0.4,0.6,1,0.8,1.6,0.8
			c0.5,0,0.9-0.1,1.2-0.4c0.3-0.3,0.4-0.7,0.4-1.2v-0.5c-0.4,0.5-1,0.7-1.7,0.7c-0.7,0-1.3-0.3-1.7-0.9
			C181.3,40.6,181.1,39.8,181.1,38.8z M182.1,38.9c0,0.7,0.1,1.2,0.4,1.6c0.3,0.4,0.7,0.6,1.2,0.6c0.7,0,1.1-0.3,1.4-0.9v-2.8
			c-0.3-0.6-0.8-0.9-1.4-0.9c-0.5,0-0.9,0.2-1.2,0.6C182.3,37.6,182.1,38.2,182.1,38.9z"/>
		<path class="st0" d="M190.3,42c-0.8,0-1.5-0.3-2-0.8c-0.5-0.5-0.8-1.3-0.8-2.2v-0.2c0-0.6,0.1-1.1,0.3-1.6c0.2-0.5,0.6-0.8,1-1.1
			c0.4-0.3,0.9-0.4,1.3-0.4c0.8,0,1.4,0.3,1.8,0.8c0.4,0.5,0.7,1.3,0.7,2.2v0.4h-4.1c0,0.6,0.2,1.1,0.5,1.5c0.3,0.4,0.8,0.6,1.3,0.6
			c0.4,0,0.7-0.1,0.9-0.2c0.3-0.1,0.5-0.3,0.7-0.6l0.6,0.5C192.1,41.6,191.3,42,190.3,42z M190.2,36.6c-0.4,0-0.8,0.2-1.1,0.5
			c-0.3,0.3-0.5,0.7-0.5,1.3h3v-0.1c0-0.5-0.2-0.9-0.4-1.2C190.9,36.7,190.6,36.6,190.2,36.6z"/>
		<path class="st0" d="M194.9,35.8l0,0.8c0.5-0.6,1.1-0.9,1.8-0.9c1.3,0,1.9,0.7,1.9,2.2v4h-1v-4c0-0.4-0.1-0.8-0.3-1
			c-0.2-0.2-0.5-0.3-0.9-0.3c-0.3,0-0.6,0.1-0.9,0.3c-0.3,0.2-0.5,0.4-0.6,0.7v4.3h-1v-6.1H194.9z"/>
		<path class="st0" d="M201.6,34.4v1.5h1.1v0.8h-1.1v3.8c0,0.2,0.1,0.4,0.2,0.5c0.1,0.1,0.3,0.2,0.5,0.2c0.1,0,0.3,0,0.5-0.1v0.8
			c-0.3,0.1-0.5,0.1-0.8,0.1c-0.5,0-0.8-0.1-1-0.4c-0.2-0.3-0.4-0.7-0.4-1.2v-3.8h-1.1v-0.8h1.1v-1.5H201.6z"/>
		<path class="st0" d="M204,34.2c0-0.2,0.1-0.3,0.2-0.4c0.1-0.1,0.3-0.2,0.5-0.2c0.2,0,0.4,0.1,0.5,0.2c0.1,0.1,0.2,0.3,0.2,0.4
			c0,0.2-0.1,0.3-0.2,0.4c-0.1,0.1-0.3,0.2-0.5,0.2c-0.2,0-0.4-0.1-0.5-0.2C204,34.5,204,34.4,204,34.2z M205.1,41.9h-1v-6.1h1V41.9
			z"/>
		<path class="st0" d="M207.7,35.8l0,0.8c0.5-0.6,1.1-0.9,1.8-0.9c1.3,0,1.9,0.7,1.9,2.2v4h-1v-4c0-0.4-0.1-0.8-0.3-1
			c-0.2-0.2-0.5-0.3-0.9-0.3c-0.3,0-0.6,0.1-0.9,0.3c-0.3,0.2-0.5,0.4-0.6,0.7v4.3h-1v-6.1H207.7z"/>
		<path class="st0" d="M212.8,38.8c0-0.6,0.1-1.1,0.4-1.6c0.2-0.5,0.6-0.8,1-1.1c0.4-0.3,0.9-0.4,1.4-0.4c0.8,0,1.5,0.3,2,0.9
			c0.5,0.6,0.8,1.3,0.8,2.3v0.1c0,0.6-0.1,1.1-0.3,1.6c-0.2,0.5-0.6,0.8-1,1.1c-0.4,0.3-0.9,0.4-1.5,0.4c-0.8,0-1.5-0.3-2-0.9
			C213.1,40.6,212.8,39.8,212.8,38.8L212.8,38.8z M213.9,38.9c0,0.7,0.2,1.2,0.5,1.6c0.3,0.4,0.7,0.6,1.3,0.6c0.5,0,0.9-0.2,1.3-0.6
			c0.3-0.4,0.5-1,0.5-1.7c0-0.7-0.2-1.2-0.5-1.6c-0.3-0.4-0.7-0.6-1.3-0.6c-0.5,0-0.9,0.2-1.2,0.6C214,37.6,213.9,38.2,213.9,38.9z"
			/>
	</g>
	<g id="logo_2_">
		<g id="logo_base_3_">
			<path id="XMLID_6_" class="st0" d="M85,42.1V21c0-4.7,1.2-8.3,3.6-11.1c2.4-2.8,5.7-4.2,9.8-4.2c4.1,0,7.3,1.4,9.8,4.2
				c2.4,2.8,3.7,6.5,3.7,11.1v21.2h-8.8V28.9h-7.8v-8.4h7.8V20c0-1.7-0.4-3-1.3-4.1c-0.9-1-2-1.6-3.5-1.6c-1.6,0-2.7,0.5-3.5,1.6
				c-0.8,1-1.2,2.5-1.2,4.5v21.7H85L85,42.1z"/>
			<path id="XMLID_5_" class="st0" d="M56.6,42.1v-8.6h12.2c0.7,0,1.2-0.2,1.6-0.4c0.4-0.3,0.6-0.7,0.6-1.3c0-0.5-0.2-1-0.6-1.5
				c-0.4-0.5-1-1-1.8-1.6l-6.8-4.2c-1.6-1-2.8-2.2-3.7-3.7c-1-1.6-1.4-3.1-1.4-4.7c0-1.6,0.3-3,0.8-4.3c0.5-1.3,1.3-2.3,2.3-3.3
				c1-0.9,2.2-1.5,3.6-1.8c1.4-0.3,3.7-0.5,6.9-0.5h8.1v8.2h-9.2c-1.3,0-2.2,0.1-2.7,0.3c-0.4,0.2-0.7,0.5-0.7,1
				c0,0.5,0.2,1,0.6,1.5c0.3,0.4,1,1,1.7,1.4l6.6,4c1.9,1.1,3.3,2.5,4.3,4.2c1,1.6,1.5,3.3,1.5,5.2c0,1.6-0.3,3.1-1,4.5
				c-0.7,1.4-1.6,2.5-2.8,3.4c-1,0.8-2.3,1.3-3.6,1.6c-1.3,0.3-3.4,0.5-6.2,0.5h-0.5L56.6,42.1L56.6,42.1z"/>
			<path id="XMLID_4_" class="st0" d="M1.6,42.1v-8.6h12.2c0.7,0,1.2-0.2,1.6-0.4c0.3-0.3,0.6-0.7,0.6-1.3c0-0.5-0.2-1-0.6-1.5
				c-0.4-0.5-1-1-1.8-1.6l-6.8-4.2c-1.6-1-2.8-2.2-3.7-3.7c-1-1.6-1.4-3.1-1.4-4.7c0-1.6,0.3-3,0.8-4.3C3,10.6,3.8,9.6,4.8,8.6
				c1-0.9,2.2-1.5,3.6-1.8c1.4-0.3,3.7-0.5,6.9-0.5h8.1v8.2h-9.2c-1.3,0-2.2,0.1-2.6,0.3c-0.5,0.2-0.7,0.6-0.7,1
				c0,0.5,0.2,1,0.5,1.5c0.3,0.4,1,1,1.7,1.4l6.6,4c1.9,1.1,3.3,2.5,4.3,4.2c1,1.6,1.5,3.3,1.5,5.2c0,1.6-0.3,3.1-1,4.5
				c-0.7,1.4-1.6,2.5-2.8,3.4c-1,0.8-2.3,1.3-3.6,1.6c-1.3,0.3-3.4,0.5-6.3,0.5h-0.5H1.6L1.6,42.1z"/>
			<path id="XMLID_3_" class="st0" d="M49.6,18.7c-0.4,4.3-4.2,7.7-8.6,7.7c-4.4,0-8.2-3.4-8.6-7.7h-2.6v23.4H52V18.7H49.6z"/>
			<path id="XMLID_2_" class="st0" d="M29.8,6.1v10.4h2.6c0.6-4.3,4.2-7.5,8.5-7.5s8,3.1,8.6,7.5H52V6.1H29.8z"/>
			<circle id="XMLID_1_" class="st0" cx="41" cy="17.8" r="6.3"/>
		</g>
	</g>
</g>
</svg>
