<?xml version="1.0" encoding="utf-8"?>
<!-- Generator: Adobe Illustrator 19.0.0, SVG Export Plug-In . SVG Version: 6.00 Build 0)  -->
<svg version="1.1" id="Layer_1" xmlns="http://www.w3.org/2000/svg" xmlns:xlink="http://www.w3.org/1999/xlink" x="0px" y="0px"
	 viewBox="-367 265 224 32" style="enable-background:new -367 265 224 32;" xml:space="preserve">
<style type="text/css">
	.st0{fill:#FFFFFF;}
</style>
<g id="XMLID_250_">
	<path id="XMLID_280_" class="st0" d="M-350.3,289.3l-1.9-5.8c-0.1-0.2-0.2-0.3-0.5-0.3h-8c-0.2,0-0.4,0.1-0.5,0.3l-1.9,5.8
		c-0.1,0.2-0.2,0.3-0.5,0.3h-2.9c-0.3,0-0.6-0.3-0.5-0.6l7.2-21.4c0.1-0.2,0.2-0.3,0.5-0.3h5.1c0.2,0,0.4,0.1,0.5,0.3l7.2,21.4
		c0.1,0.3-0.1,0.6-0.5,0.6h-3C-350,289.7-350.2,289.5-350.3,289.3 M-359.3,280h5.3c0.3,0,0.6-0.3,0.5-0.6l-2.7-8.1
		c-0.1-0.4-0.8-0.4-0.9,0l-2.6,8.1C-359.9,279.7-359.6,280-359.3,280"/>
	<path id="XMLID_279_" class="st0" d="M-343.4,273.1h2.4c0.2,0,0.4,0.2,0.5,0.4l0.2,1.7h0.2c0.5-0.8,1.1-1.4,1.9-1.8
		c0.8-0.4,1.7-0.6,2.6-0.6c0.3,0,0.6,0,0.9,0c0.2,0,0.4,0.2,0.4,0.5v2.6c0,0.3-0.2,0.5-0.5,0.5s-0.6,0-1,0c-0.8,0-1.6,0.2-2.3,0.5
		c-0.7,0.3-1.3,0.7-1.7,1.2c-0.1,0.1-0.1,0.2-0.1,0.3V289c0,0.3-0.2,0.5-0.5,0.5h-3c-0.3,0-0.5-0.2-0.5-0.5v-15.5
		C-343.9,273.4-343.7,273.1-343.4,273.1"/>
	<path id="XMLID_276_" class="st0" d="M-329.5,296.4c-0.8-0.1-1.5-0.2-2.2-0.4c-0.2-0.1-0.4-0.3-0.4-0.5v-2.1c0-0.3,0.3-0.5,0.6-0.5
		c1.5,0.4,3,0.6,4.4,0.6c1.1,0,2-0.1,2.8-0.4c0.7-0.3,1.2-0.7,1.6-1.4c0.3-0.6,0.5-1.5,0.5-2.5v-1.3h-0.2c-0.5,0.6-1.1,1.1-1.9,1.4
		c-0.7,0.3-1.6,0.5-2.5,0.5c-1.2,0-2.2-0.3-3.2-0.9c-1-0.6-1.7-1.5-2.3-2.7c-0.6-1.2-0.9-2.7-0.9-4.5c0-2.9,0.8-5.1,2.3-6.6
		s3.8-2.2,6.7-2.3c1,0,2,0.1,3.1,0.2c0.9,0.1,1.7,0.3,2.5,0.5c0.2,0.1,0.3,0.3,0.3,0.5v14.4c0,1.9-0.3,3.5-0.9,4.7s-1.6,2.1-2.8,2.6
		c-1.3,0.6-2.8,0.8-4.8,0.8C-327.7,296.6-328.6,296.6-329.5,296.4 M-323.7,286.2c0.5-0.2,0.9-0.5,1.3-0.9c0.1-0.1,0.1-0.2,0.1-0.3
		v-8.4c0-0.2-0.2-0.4-0.4-0.5c-0.6-0.1-1.3-0.2-1.9-0.2c-1.6,0-2.7,0.4-3.5,1.3s-1.2,2.2-1.2,4.1s0.3,3.2,1,4
		c0.7,0.8,1.6,1.2,2.8,1.2C-324.8,286.5-324.2,286.4-323.7,286.2"/>
	<path id="XMLID_273_" class="st0" d="M-301.5,282.6h-9.2c-0.3,0-0.5,0.3-0.5,0.5c0.1,0.8,0.3,1.5,0.6,2c0.4,0.6,0.9,1.1,1.6,1.4
		c0.7,0.3,1.7,0.4,3,0.4c1.1,0,2.2-0.1,3.6-0.4c0.3-0.1,0.6,0.2,0.6,0.5v2c0,0.2-0.2,0.4-0.4,0.5c-1.5,0.3-2.9,0.5-4.3,0.5
		c-2,0-3.6-0.3-4.8-0.9c-1.3-0.6-2.2-1.5-2.8-2.8c-0.6-1.3-0.9-2.9-0.9-4.9c0-1.8,0.3-3.4,0.9-4.7c0.6-1.3,1.4-2.2,2.5-2.9
		c1.1-0.6,2.4-1,3.9-1c2.2,0,4,0.7,5.1,2.2c1.2,1.4,1.8,3.6,1.8,6.5v0.6C-301,282.4-301.2,282.6-301.5,282.6 M-310.3,276.6
		c-0.5,0.7-0.8,1.7-0.9,3.1c0,0.3,0.2,0.5,0.5,0.5h5.5c0.3,0,0.5-0.2,0.5-0.5c-0.1-1.4-0.3-2.5-0.8-3.1c-0.5-0.7-1.3-1.1-2.4-1.1
		C-309,275.5-309.8,275.8-310.3,276.6"/>
	<path id="XMLID_272_" class="st0" d="M-297.5,273.1h2.4c0.2,0,0.4,0.2,0.5,0.4l0.2,1.3h0.2c0.6-0.6,1.4-1.1,2.2-1.5
		c0.9-0.3,1.8-0.5,2.7-0.5c1.7,0,3.1,0.5,4,1.5c1,1,1.5,2.6,1.5,4.8v10c0,0.3-0.2,0.5-0.5,0.5h-3c-0.3,0-0.5-0.2-0.5-0.5v-9.8
		c0-1.1-0.2-1.9-0.7-2.4s-1.1-0.7-2-0.7c-0.7,0-1.3,0.1-2,0.4c-0.6,0.3-1.1,0.6-1.5,1.1c-0.1,0.1-0.1,0.2-0.1,0.3v11
		c0,0.3-0.2,0.5-0.5,0.5h-3c-0.3,0-0.5-0.2-0.5-0.5v-15.5C-298,273.4-297.8,273.1-297.5,273.1"/>
	<path id="XMLID_271_" class="st0" d="M-270.2,287v2.2c0,0.2-0.2,0.4-0.4,0.5c-0.8,0.2-1.7,0.2-2.5,0.2c-3.9,0-5.9-2-5.9-5.9v-7.2
		c0-0.3-0.2-0.5-0.5-0.5h-1.9c-0.3,0-0.5-0.2-0.5-0.5v-2.2c0-0.3,0.2-0.5,0.5-0.5h1.9c0.2,0,0.4-0.2,0.5-0.4l0.6-5
		c0-0.2,0.2-0.4,0.5-0.4h2.4c0.3,0,0.5,0.2,0.5,0.5v4.9c0,0.3,0.2,0.5,0.5,0.5h3.6c0.3,0,0.5,0.2,0.5,0.5v2.2c0,0.3-0.2,0.5-0.5,0.5
		h-3.6c-0.3,0-0.5,0.2-0.5,0.5v6.6c0,0.8,0.1,1.4,0.3,1.9c0.2,0.5,0.5,0.8,0.9,1c0.4,0.2,1,0.3,1.7,0.3c0.4,0,0.8,0,1.3-0.1
		C-270.4,286.5-270.2,286.7-270.2,287"/>
	<path id="XMLID_268_" class="st0" d="M-267.5,269.8c-0.4-0.4-0.6-0.9-0.6-1.6s0.2-1.2,0.6-1.6s1-0.6,1.9-0.6c0.8,0,1.5,0.2,1.9,0.6
		c0.4,0.4,0.6,0.9,0.6,1.6c0,0.7-0.2,1.2-0.6,1.6c-0.4,0.4-1,0.6-1.9,0.6C-266.5,270.3-267.1,270.1-267.5,269.8 M-267.6,289.2v-15.5
		c0-0.3,0.2-0.5,0.5-0.5h3c0.3,0,0.5,0.2,0.5,0.5v15.5c0,0.3-0.2,0.5-0.5,0.5h-3C-267.4,289.7-267.6,289.4-267.6,289.2"/>
	<path id="XMLID_267_" class="st0" d="M-259.3,273.1h2.4c0.2,0,0.4,0.2,0.5,0.4l0.2,1.3h0.2c0.6-0.6,1.4-1.1,2.2-1.5
		c0.9-0.3,1.8-0.5,2.7-0.5c1.7,0,3.1,0.5,4,1.5c1,1,1.5,2.6,1.5,4.8v10c0,0.3-0.2,0.5-0.5,0.5h-3c-0.3,0-0.5-0.2-0.5-0.5v-9.8
		c0-1.1-0.2-1.9-0.7-2.4s-1.1-0.7-2-0.7c-0.7,0-1.3,0.1-2,0.4c-0.6,0.3-1.1,0.6-1.5,1.1c-0.1,0.1-0.1,0.2-0.1,0.3v11
		c0,0.3-0.2,0.5-0.5,0.5h-3c-0.3,0-0.5-0.2-0.5-0.5v-15.5C-259.7,273.4-259.5,273.1-259.3,273.1"/>
	<path id="XMLID_264_" class="st0" d="M-232.1,273.5c1,0.4,1.8,1.1,2.3,2.1s0.8,2.3,0.8,3.9v9.7c0,0.3-0.2,0.5-0.5,0.5h-2.4
		c-0.2,0-0.4-0.2-0.5-0.4l-0.2-1.3h-0.2c-0.5,0.7-1.1,1.2-1.9,1.5c-0.8,0.3-1.6,0.5-2.6,0.5c-1.1,0-2-0.2-2.8-0.6
		c-0.8-0.4-1.4-0.9-1.8-1.6c-0.4-0.7-0.6-1.5-0.6-2.5c0-1.5,0.5-2.7,1.6-3.6c1-0.8,2.7-1.3,5-1.5l3.1-0.3v-0.7c0-0.8-0.1-1.5-0.4-2
		c-0.3-0.5-0.7-0.8-1.3-1c-0.6-0.2-1.3-0.3-2.3-0.3c-0.7,0-1.4,0.1-2.2,0.2c-0.6,0.1-1.1,0.2-1.7,0.3c-0.3,0.1-0.6-0.1-0.6-0.5v-2
		c0-0.2,0.1-0.4,0.3-0.5c0.7-0.2,1.4-0.3,2.2-0.4c0.9-0.1,1.8-0.2,2.6-0.2C-234.5,272.9-233.2,273.1-232.1,273.5 M-234.4,286.8
		c0.5-0.2,0.9-0.5,1.3-0.9c0.1-0.1,0.1-0.2,0.1-0.3v-2.8c0-0.3-0.2-0.5-0.5-0.5l-2.2,0.2c-1,0.1-1.8,0.4-2.3,0.7
		c-0.5,0.4-0.7,1-0.7,1.7c0,0.7,0.2,1.3,0.6,1.7c0.4,0.4,1.1,0.6,1.9,0.6C-235.5,287.1-235,287-234.4,286.8"/>
	<path id="XMLID_263_" class="st0" d="M-220.2,288.2c-1-1.1-1.5-2.7-1.5-5V274c0-0.5,0.4-0.8,0.8-0.8h3.9c0.5,0,0.8,0.4,0.8,0.8v8.8
		c0,0.8,0.2,1.4,0.5,1.7c0.3,0.3,0.8,0.5,1.4,0.5c0.4,0,0.9-0.1,1.3-0.3c0.4-0.2,0.8-0.4,1.1-0.8V274c0-0.5,0.4-0.8,0.8-0.8h3.9
		c0.5,0,0.8,0.4,0.8,0.8v14.6c0,0.5-0.4,0.8-0.8,0.8h-3.8l-0.4-1.6h-0.2c-0.6,0.6-1.3,1.1-2,1.4c-0.8,0.3-1.6,0.5-2.4,0.5
		C-217.7,289.8-219.2,289.3-220.2,288.2"/>
	<path id="XMLID_262_" class="st0" d="M-203,274c0-0.5,0.4-0.8,0.8-0.8h3.8l0.4,1.6h0.3c0.6-0.6,1.3-1.1,2.1-1.4
		c0.8-0.3,1.7-0.5,2.6-0.5c1.7,0,3.1,0.5,4.1,1.6s1.5,2.7,1.5,5v9.1c0,0.5-0.4,0.8-0.8,0.8h-3.9c-0.5,0-0.8-0.4-0.8-0.8v-8.8
		c0-0.8-0.2-1.4-0.5-1.7c-0.3-0.3-0.8-0.5-1.4-0.5c-0.5,0-0.9,0.1-1.4,0.3c-0.4,0.2-0.8,0.4-1.1,0.8v9.9c0,0.5-0.4,0.8-0.8,0.8h-3.9
		c-0.5,0-0.8-0.4-0.8-0.8V274H-203z"/>
	<path id="XMLID_259_" class="st0" d="M-183.9,270.5c-0.6-0.5-0.8-1.2-0.8-2.1c0-0.9,0.3-1.6,0.8-2.1c0.6-0.5,1.4-0.7,2.6-0.7
		c1.1,0,2,0.2,2.5,0.7c0.6,0.5,0.8,1.2,0.8,2.1s-0.3,1.6-0.8,2.1c-0.6,0.5-1.4,0.7-2.5,0.7C-182.5,271.3-183.4,271-183.9,270.5
		 M-184.2,288.7V274c0-0.5,0.4-0.8,0.8-0.8h3.9c0.5,0,0.8,0.4,0.8,0.8v14.6c0,0.5-0.4,0.8-0.8,0.8h-3.9
		C-183.8,289.5-184.2,289.1-184.2,288.7"/>
	<path id="XMLID_256_" class="st0" d="M-172.6,288.9c-1-0.6-1.8-1.5-2.4-2.7c-0.6-1.2-0.9-2.7-0.9-4.6c0-2.8,0.8-5,2.3-6.5
		c1.6-1.5,3.8-2.3,6.8-2.3c0.4,0,1,0,1.6,0.1v-6.7c0-0.5,0.4-0.8,0.8-0.8h3.9c0.5,0,0.8,0.4,0.8,0.8v22.4c0,0.5-0.4,0.8-0.8,0.8
		h-3.9l-0.3-1.7h-0.2c-0.5,0.6-1.1,1.1-1.8,1.5s-1.6,0.5-2.5,0.5C-170.4,289.8-171.6,289.5-172.6,288.9 M-166.2,285.1
		c0.4-0.1,0.7-0.3,1-0.6v-7.2c-0.5-0.1-1-0.1-1.6-0.1c-1.2,0-2.1,0.3-2.7,1c-0.6,0.6-0.9,1.7-0.9,3.2s0.2,2.5,0.7,3.1
		s1.2,0.9,2.1,0.9C-167.1,285.3-166.6,285.2-166.2,285.1"/>
	<path id="XMLID_253_" class="st0" d="M-146.3,273.6c1.2,0.5,2,1.2,2.5,2.3c0.5,1,0.8,2.5,0.8,4.3v8.5c0,0.5-0.4,0.8-0.8,0.8h-3.7
		l-0.4-1.5h-0.3c-0.5,0.6-1,1.1-1.8,1.4c-0.7,0.3-1.5,0.5-2.4,0.5c-1.1,0-2.1-0.2-2.9-0.6c-0.8-0.4-1.4-1-1.9-1.7
		c-0.4-0.7-0.6-1.6-0.6-2.5c0-1.6,0.6-2.8,1.7-3.7c1.1-0.9,2.9-1.4,5.4-1.5l2.3-0.1c0-0.6-0.1-1.1-0.4-1.5c-0.2-0.4-0.6-0.6-1.1-0.8
		c-0.5-0.2-1.2-0.2-2.1-0.2c-0.7,0-1.4,0.1-2.2,0.2c-0.8,0.1-1.5,0.3-2.2,0.5v-4.1c0.8-0.2,1.7-0.4,2.7-0.5s1.9-0.2,2.8-0.2
		C-148.9,272.9-147.4,273.2-146.3,273.6 M-149.3,285.8c0.4-0.1,0.7-0.3,1-0.5v-2.7l-1.7,0.1c-0.8,0.1-1.3,0.2-1.7,0.5
		c-0.4,0.3-0.5,0.7-0.5,1.2s0.2,0.9,0.5,1.1c0.3,0.3,0.8,0.4,1.3,0.4C-150,286-149.7,286-149.3,285.8"/>
</g>
</svg>
