<?xml version="1.0" encoding="utf-8"?>
<!-- Generator: Adobe Illustrator 19.2.1, SVG Export Plug-In . SVG Version: 6.00 Build 0)  -->
<svg version="1.1" id="Layer_1" xmlns="http://www.w3.org/2000/svg" xmlns:xlink="http://www.w3.org/1999/xlink" x="0px" y="0px"
	 viewBox="0 0 184 48" style="enable-background:new 0 0 184 48;" xml:space="preserve">
<style type="text/css">
	.st0{fill:#000099;}
	.st1{fill:#3366FF;}
	.st2{fill:#FF9900;}
</style>
<g>
	<g id="logo_3_">
		<g id="logo_base_4_">
			<path class="st0" d="M109.5,47.9V20.1c0-6.2,1.6-10.9,4.8-14.6c3.2-3.6,7.5-5.5,12.9-5.5c5.4,0,9.6,1.8,12.9,5.5
				c3.2,3.6,4.9,8.6,4.9,14.6v27.8h-11.5V30.4h-10.3V19.4h10.3v-0.6c0-2.3-0.6-4-1.7-5.4c-1.1-1.4-2.6-2.1-4.6-2.1
				c-2.1,0-3.5,0.7-4.6,2.1c-1,1.4-1.6,3.3-1.6,5.9v28.5H109.5L109.5,47.9z"/>
			<path class="st0" d="M72.2,47.9V36.6h16c0.9,0,1.6-0.2,2.2-0.6c0.6-0.3,0.8-0.9,0.8-1.7c0-0.7-0.2-1.4-0.8-1.9
				c-0.6-0.7-1.4-1.3-2.4-2.1L79,24.9C77,23.6,75.4,22,74.1,20c-1.3-2.1-1.8-4.1-1.8-6.2c0-2.1,0.3-3.9,1-5.6
				C74,6.5,75,5.1,76.4,3.9c1.3-1.1,2.9-1.9,4.7-2.4c1.8-0.5,4.9-0.7,9-0.7h10.6v10.8H88.6c-1.7,0-2.9,0.1-3.5,0.5
				c-0.6,0.2-0.9,0.7-0.9,1.4c0,0.7,0.2,1.3,0.8,1.9c0.5,0.6,1.3,1.3,2.3,1.8l8.7,5.2c2.5,1.5,4.3,3.3,5.7,5.5
				c1.3,2.1,1.9,4.3,1.9,6.8c0,2.2-0.5,4.1-1.4,5.9c-0.9,1.8-2.2,3.3-3.6,4.4c-1.4,1-3,1.7-4.7,2.2c-1.7,0.5-4.4,0.7-8.2,0.7h-0.7
				L72.2,47.9L72.2,47.9z"/>
			<path class="st0" d="M0,47.9V36.6h16c0.9,0,1.6-0.2,2.2-0.6c0.5-0.3,0.8-0.9,0.8-1.7c0-0.7-0.2-1.4-0.8-1.9
				c-0.6-0.7-1.3-1.3-2.4-2.1l-8.9-5.5C4.8,23.6,3.2,22,1.9,20c-1.3-2.1-1.8-4.1-1.8-6.2c0-2.1,0.3-3.9,1-5.6s1.7-3.1,3.1-4.3
				c1.3-1.1,2.9-1.9,4.7-2.4c1.8-0.5,4.9-0.7,9-0.7h10.6v10.7H16.4c-1.7,0-2.9,0.1-3.4,0.5c-0.7,0.2-0.9,0.8-0.9,1.4
				c0,0.7,0.2,1.3,0.7,1.9c0.5,0.6,1.3,1.3,2.3,1.8l8.7,5.2c2.5,1.5,4.3,3.3,5.7,5.5c1.3,2.1,1.9,4.3,1.9,6.8c0,2.2-0.5,4.1-1.4,5.9
				c-0.9,1.8-2.2,3.3-3.6,4.4c-1.4,1-3,1.7-4.7,2.2c-1.7,0.5-4.4,0.7-8.2,0.7h-0.7H0L0,47.9z"/>
			<path class="st0" d="M63.1,17.1c-0.6,5.7-5.5,10.1-11.3,10.1c-5.8,0-10.7-4.4-11.3-10.1h-3.4v30.8h29.1V17.1H63.1z"/>
			<path class="st1" d="M37.1,0.6v13.7h3.4c0.8-5.7,5.5-9.8,11.2-9.8s10.5,4.1,11.3,9.8h3.2V0.6H37.1z"/>
			<circle class="st2" cx="51.8" cy="15.8" r="8.3"/>
		</g>
	</g>
	<g>
		<path class="st2" d="M151.5,47.9V19.3h10c3.5,0,6.1,0.7,7.9,2c1.8,1.3,2.7,3.3,2.7,5.8c0,1.4-0.4,2.6-1.1,3.7
			c-0.7,1.1-1.7,1.8-3,2.3c1.5,0.4,2.6,1.1,3.5,2.2c0.8,1.1,1.3,2.5,1.3,4.1c0,2.7-0.9,4.8-2.6,6.2c-1.8,1.4-4.3,2.1-7.5,2.2H151.5z
			 M157.4,31.3h4.4c3-0.1,4.5-1.2,4.5-3.6c0-1.3-0.4-2.2-1.1-2.8c-0.8-0.6-1.9-0.9-3.6-0.9h-4.1V31.3z M157.4,35.4v7.7h5
			c1.4,0,2.5-0.3,3.2-1c0.8-0.7,1.2-1.6,1.2-2.7c0-2.6-1.4-3.9-4.1-4H157.4z"/>
		<path class="st2" d="M183.4,47.9h-5.9V19.3h5.9V47.9z"/>
	</g>
</g>
</svg>
