<?xml version="1.0" encoding="utf-8"?>
<!-- Generator: Adobe Illustrator 16.0.0, SVG Export Plug-In . SVG Version: 6.00 Build 0)  -->
<!DOCTYPE svg PUBLIC "-//W3C//DTD SVG 1.1//EN" "http://www.w3.org/Graphics/SVG/1.1/DTD/svg11.dtd">
<svg version="1.1" id="Capa_1" xmlns="http://www.w3.org/2000/svg" xmlns:xlink="http://www.w3.org/1999/xlink" x="0px" y="0px"
	 width="48px" height="48px" viewBox="0 0 48 48" enable-background="new 0 0 48 48" xml:space="preserve">
<g id="Usuarios_2_">
	<circle fill="#0072BC" cx="24" cy="24" r="24"/>
	<g id="Usuarios_3_">
		<defs>
			<circle id="_x5F_base_8_" cx="24" cy="24" r="24"/>
		</defs>
		<clipPath id="_x5F_base_1_">
			<use xlink:href="#_x5F_base_8_"  overflow="visible"/>
		</clipPath>
		<path clip-path="url(#_x5F_base_1_)" fill="#FFFF00" d="M43.666,45.209v11.385H4.333V45.209c0-5.564,4.229-10.093,9.511-10.271
			c0.319-0.293,0.686-0.57,1.085-0.831c2.387,2.833,5.571,4.566,9.07,4.566c3.498,0,6.682-1.732,9.069-4.566
			c0.4,0.261,0.767,0.538,1.086,0.831C39.437,35.116,43.666,39.645,43.666,45.209z M24,7.776c-6.501,0-11.77,6.079-11.77,13.577
			c0,0.056,0.002,0.111,0.003,0.167l0,0C12.309,29.29,17.545,35.562,24,35.562s11.69-6.272,11.765-14.042
			c0.001-0.057,0.004-0.112,0.004-0.167C35.77,13.854,30.5,7.776,24,7.776z"/>
	</g>
</g>
<g>
</g>
<g>
</g>
<g>
</g>
<g>
</g>
<g>
</g>
<g>
</g>
<g>
</g>
<g>
</g>
<g>
</g>
<g>
</g>
<g>
</g>
<g>
</g>
<g>
</g>
<g>
</g>
<g>
</g>
</svg>
