<?xml version="1.0" encoding="utf-8"?>
<!-- Generator: Adobe Illustrator 19.0.0, SVG Export Plug-In . SVG Version: 6.00 Build 0)  -->
<svg version="1.1" id="Capa_1" xmlns="http://www.w3.org/2000/svg" xmlns:xlink="http://www.w3.org/1999/xlink" x="0px" y="0px"
	 viewBox="-386 260 107 41" style="enable-background:new -386 260 107 41;" xml:space="preserve">
<style type="text/css">
	.st0{fill:#05B4E9;}
	.st1{fill:#FFFFFF;}
	.st2{fill:#231F20;}
	.st3{fill:#FFC60B;}
	.st4{fill:#59AA47;}
	.st5{fill:#EF4123;}
	.st6{fill:#FCBC80;}
	.st7{fill:#010101;}
</style>
<g id="XMLID_249_">
	<g id="XMLID_500_">
		<path id="XMLID_633_" class="st0" d="M-373.4,279.9h-2.3c-0.5,0-0.8-0.2-0.9-0.4c-0.1-0.1-0.2-0.3-0.2-0.6c0,0,0,0,0-0.1
			c0-0.2,0-0.4,0-0.7c0.3-1.5,0.9-2.5,1.4-3.1c-0.1,0-0.1,0-0.2-0.1c-0.3-0.2-0.5-0.5-0.4-1c0.1-0.5,0.6-1,0.6-1.1
			c0.8-0.9,2-1,2.1-1c0.2,0,1.7-0.1,2.5,1.5c1,1.9,1.2,3.5,1.4,4.8l0,0.1c0,0.2,0,0.4,0,0.6c0,0,0,0,0,0.1c-0.1,0.2-0.1,0.3-0.2,0.4
			c-0.2,0.2-0.5,0.4-0.9,0.4c-0.2,0-0.3,0-0.4,0c0,0-0.1,0-0.1,0h-0.7h0h0h-1.1v3.2h10.2c0-1.9-0.3-3.7-0.8-5.5
			c-0.5-1.7-1.3-3.2-2.3-4.4c-1-1.3-2.1-2.3-3.4-3c-1.3-0.7-2.7-1.1-4.1-1.1c-1.4,0-2.8,0.4-4.1,1.1c-1.3,0.7-2.4,1.7-3.4,3
			c-1,1.3-1.7,2.8-2.3,4.4c-0.6,1.7-0.8,3.6-0.8,5.5h10.2V279.9z"/>
		<path id="XMLID_632_" class="st1" d="M-383.6,283.1c0,1.4,0.2,2.8,0.5,4.2c4.6-0.5,7.3-1.1,8.1-1.6c0.6-0.4,1-0.6,1.6-0.6v-2
			H-383.6z"/>
		<path id="XMLID_631_" class="st1" d="M-372.7,285.2c0.4,0.1,0.7,0.2,1,0.4c0,0,0.1,0,0.1,0c0.6,0,1.1,0.2,1.8,0.4
			c0.2,0.1,0.4,0.1,0.6,0.2c0.1,0,3.4,1.1,6.2,1.2c0.3-1.4,0.5-2.8,0.5-4.3h-10.2V285.2z"/>
		<polyline id="XMLID_630_" class="st2" points="-373.8,267.4 -373.8,267.4 -373.8,267.4 		"/>
		<polyline id="XMLID_629_" class="st2" points="-375.9,267.7 -375.9,267.7 -375.9,267.7 -375.9,267.7 		"/>
		<path id="XMLID_628_" class="st1" d="M-368.6,289.7c0,0.1-0.1,0.2-0.2,0.3c-0.2,0.2-0.4,0.3-0.7,0.3c0,0.1-0.1,0.2-0.2,0.3
			c-0.2,0.2-0.4,0.4-0.9,0.3c0,0.1-0.1,0.2-0.2,0.2c-0.2,0.2-0.5,0.3-0.9,0.3c-0.1,0.1-0.2,0.1-0.4,0.2c-0.2,0.1-0.5,0.1-0.8,0.1
			v2.7c0,0.2-0.2,0.3-0.3,0.3s-0.3-0.2-0.3-0.3v-2.6c-0.1,0-0.3,0.1-0.4,0.1c-0.1,0-0.1,0-0.2,0c-0.2,0-0.4-0.1-0.5-0.3
			c-0.2,0-0.6,0.1-0.9-0.1c-0.1-0.1-0.2-0.2-0.3-0.3c-0.1,0-0.2,0-0.3-0.1c-0.3-0.1-0.5-0.3-0.6-0.5c-0.1,0-0.2,0-0.2,0
			c-0.2,0-0.6-0.1-0.7-0.4c0-0.1,0-0.1-0.1-0.2c-1.5,0.7-3.1,1.5-3.9,1.8c0.3,0.5,0.6,1,0.9,1.4c1,1.3,2.1,2.3,3.4,3
			c0.6,0.3,1.2,0.6,1.8,0.8c0.1-0.1,0.2-0.2,0.3-0.3c0.6-0.4,1.7-0.1,2,0c0.3-0.1,1.4-0.4,2,0c0.1,0.1,0.2,0.2,0.3,0.3
			c0.6-0.2,1.2-0.4,1.8-0.8c1.3-0.7,2.4-1.7,3.4-3c0.3-0.4,0.6-0.9,0.9-1.3C-365.6,291.4-367.4,290.6-368.6,289.7"/>
		<path id="XMLID_627_" class="st0" d="M-372.1,298.9c0-0.1,0-0.2,0-0.2c0-0.1,0-0.1,0-0.2c0.3-0.1,0.9-0.2,1.2-0.6
			c0.2-0.2,0.3-0.5,0.2-0.8c0-0.3-0.2-0.5-0.4-0.6c-0.6-0.4-1.7-0.1-2,0c-0.3-0.1-1.4-0.4-2,0c-0.2,0.1-0.3,0.3-0.4,0.6
			c0,0.3,0,0.5,0.2,0.8c0.3,0.4,0.9,0.5,1.2,0.6c0,0.1,0,0.1,0,0.2c0,0.1,0,0.2,0,0.2c-0.2,0.2-1.1,1-2.2,1.1v0
			c0,0.1,0.1,0.2,0.3,0.4c1-0.2,1.8-0.8,2.1-1.1c0,0,0.1,0.1,0.1,0.1c-0.1,0.3-0.4,1-1.6,1.3c0.2,0.1,0.5,0.2,0.8,0.2
			c0.9-0.4,1.2-1,1.3-1.4c0.1,0,0.1,0,0.2,0c0.1,0,0.1,0,0.2,0c0.1,0.4,0.4,1,1.3,1.4c0.3,0,0.6-0.1,0.8-0.2c-1.3-0.3-1.6-1-1.6-1.3
			c0,0,0.1-0.1,0.1-0.1c0.3,0.3,1.1,0.9,2.1,1.1c0.2-0.2,0.3-0.3,0.3-0.4C-371.1,299.9-371.9,299.2-372.1,298.9"/>
		<path id="XMLID_626_" class="st1" d="M-371.3,296.9c0.1,0.1,0.1,0.1,0.2,0.3c0,0.2,0,0.3-0.1,0.4c-0.1,0.2-0.4,0.3-0.6,0.4
			c0.1-0.2,0.1-0.5,0-0.7c-0.1-0.2-0.2-0.4-0.4-0.5C-371.8,296.7-371.5,296.8-371.3,296.9"/>
		<path id="XMLID_625_" class="st1" d="M-373.9,297.4c0.2-0.5,0.8-0.5,0.8-0.5c0,0,0.2,0,0.4,0.1c0.2,0.1,0.4,0.2,0.5,0.4
			c0.1,0.2-0.1,0.4-0.2,0.6c-0.2-0.2-0.4-0.2-0.6-0.2c-0.2,0-0.5,0.1-0.6,0.2C-373.8,297.8-374,297.6-373.9,297.4"/>
		<path id="XMLID_624_" class="st1" d="M-374.3,297.9c-0.2-0.1-0.5-0.2-0.6-0.4c-0.1-0.1-0.1-0.3-0.1-0.4c0-0.1,0.1-0.2,0.2-0.3
			c0.1-0.1,0.3-0.1,0.6-0.1c0.1,0,0.2,0,0.3,0c-0.2,0.1-0.3,0.3-0.4,0.5C-374.4,297.5-374.4,297.7-374.3,297.9"/>
		<path id="XMLID_623_" class="st1" d="M-373.6,298.7c0-0.3,0.2-0.5,0.5-0.5c0.3,0,0.5,0.2,0.5,0.5s-0.2,0.5-0.5,0.5
			C-373.4,299.2-373.6,299-373.6,298.7"/>
		<path id="XMLID_622_" class="st1" d="M-370.3,300.4c-1-0.2-1.8-0.8-2.1-1.1c0,0-0.1,0.1-0.1,0.1c0.1,0.3,0.4,1,1.6,1.3
			C-370.6,300.7-370.4,300.5-370.3,300.4"/>
		<path id="XMLID_621_" class="st1" d="M-373.8,299.3c-0.3,0.3-1.1,0.9-2.1,1.1c0.1,0.1,0.3,0.3,0.6,0.4c1.3-0.3,1.6-1.1,1.6-1.3
			C-373.7,299.4-373.8,299.4-373.8,299.3"/>
		<path id="XMLID_571_" class="st2" d="M-360.3,285.9c0-0.1,0-0.1-0.1-0.2c0,0-0.1-0.1-0.2-0.1c0-0.1,0.1-0.2,0.1-0.3
			c0.2-0.4,0.2-0.9,0.2-1.5c0-0.1,0-0.1-0.1-0.2c0,0-0.1,0-0.2,0c0-0.1,0.1-0.2,0.1-0.3c0.1-0.4,0.1-1,0.1-1.5c0-0.1,0-0.1-0.1-0.2
			c0,0-0.1,0-0.2,0c0-0.1,0.1-0.2,0.1-0.3c0.1-0.5,0.1-1,0-1.5c0-0.1-0.1-0.1-0.1-0.2c0,0-0.1,0-0.1,0c0-0.1,0-0.2,0-0.2
			c0-0.5,0-1-0.1-1.5c0-0.1-0.1-0.1-0.1-0.2c-0.1,0-0.1,0-0.2,0l0,0c0-0.1,0-0.2,0-0.4c0-0.5-0.1-1-0.3-1.5c0-0.1-0.1-0.1-0.2-0.1
			c-0.1,0-0.1,0-0.2,0c0-0.1,0-0.2,0-0.3c-0.1-0.5-0.2-0.9-0.5-1.4c0-0.1-0.1-0.1-0.2-0.1c-0.1,0-0.1,0-0.2,0.1c0-0.1,0-0.2-0.1-0.3
			c-0.1-0.4-0.3-0.9-0.6-1.4c0-0.1-0.1-0.1-0.2-0.1c-0.1,0-0.1,0-0.2,0.1c0-0.1-0.1-0.2-0.1-0.4c-0.2-0.4-0.5-0.8-0.9-1.2
			c-0.1-0.1-0.1-0.1-0.2-0.1c-0.1,0-0.1,0-0.1,0.1c-0.1-0.1-0.1-0.2-0.2-0.4c-0.2-0.4-0.6-0.8-1-1.1c-0.1,0-0.1-0.1-0.2,0
			c-0.1,0-0.1,0.1-0.1,0.1c-0.3-0.4-0.7-0.7-1.2-0.9c0.1,0,0.2,0,0.3,0c0.6,0,1-0.1,1.1-0.1c0.1,0,0.2-0.2,0.2-0.3
			c0-0.1-0.1-0.2-0.3-0.2c-0.7,0-0.9-0.2-1.2-0.3c-0.1,0-0.1-0.1-0.2-0.1l1.6-0.2c0.1,0,0.2-0.1,0.2-0.3c0-0.1-0.1-0.3-0.2-0.3
			l-1.5-0.2c0.2,0,0.4-0.1,0.6-0.2c0.6-0.2,0.9-0.5,0.9-0.5c0.1-0.1,0.1-0.2,0.1-0.4c-0.1-0.1-0.2-0.2-0.3-0.1
			c-0.6,0.2-0.9,0.2-1.3,0.2c-0.1,0-0.1,0-0.2,0l1.3-0.8c0.1-0.1,0.2-0.2,0.1-0.3c-0.1-0.1-0.2-0.2-0.3-0.2l-1.5,0.4
			c0.1-0.1,0.3-0.3,0.5-0.4c0.5-0.4,0.7-0.8,0.7-0.8c0.1-0.1,0-0.3-0.1-0.3c-0.1-0.1-0.3-0.1-0.4,0c-0.5,0.4-0.8,0.5-1.1,0.6
			c-0.1,0-0.1,0-0.2,0.1l0.9-1.3c0.1-0.1,0.1-0.3,0-0.4c-0.1-0.1-0.3-0.1-0.4,0l-1.3,0.9c0.1-0.2,0.2-0.4,0.3-0.6
			c0.3-0.5,0.3-1,0.3-1c0-0.1-0.1-0.3-0.2-0.3c-0.1,0-0.3,0-0.3,0.1c-0.3,0.6-0.5,0.8-0.8,1c-0.1,0-0.1,0.1-0.2,0.1l0.4-1.5
			c0-0.1,0-0.3-0.2-0.3c-0.1-0.1-0.3,0-0.3,0.1l-0.8,1.4c0-0.2,0-0.4,0.1-0.6c0-0.6-0.1-1-0.1-1.1c0-0.1-0.2-0.2-0.3-0.2
			c-0.1,0-0.2,0.1-0.2,0.3c0,0.7-0.2,0.9-0.3,1.2c0,0.1-0.1,0.1-0.1,0.2l-0.2-1.5c0-0.1-0.1-0.2-0.3-0.2h0c-0.1,0-0.3,0.1-0.3,0.2
			l-0.2,1.5c0-0.2-0.1-0.4-0.2-0.6c-0.2-0.6-0.5-0.9-0.5-0.9c-0.1-0.1-0.2-0.1-0.4-0.1c-0.1,0.1-0.2,0.2-0.1,0.3
			c0.2,0.6,0.2,0.9,0.2,1.3c0,0.1,0,0.1,0,0.2l-0.8-1.4c-0.1-0.1-0.2-0.2-0.3-0.1c-0.1,0.1-0.2,0.2-0.2,0.3l0.4,1.5
			c-0.1-0.1-0.2-0.3-0.4-0.5c-0.4-0.5-0.8-0.7-0.8-0.7c-0.1-0.1-0.3,0-0.3,0.1c-0.1,0.1-0.1,0.3,0,0.4c0.4,0.5,0.5,0.8,0.6,1.1
			c0,0.1,0,0.1,0.1,0.2l-1.3-0.9c-0.1-0.1-0.3-0.1-0.4,0c-0.1,0.1-0.1,0.3,0,0.4l0.9,1.3c-0.2-0.1-0.4-0.2-0.6-0.3
			c-0.5-0.3-1-0.3-1-0.3c-0.1,0-0.3,0.1-0.3,0.2c0,0.1,0,0.3,0.1,0.3c0.6,0.3,0.8,0.5,1,0.8c0,0.1,0.1,0.1,0.1,0.2l-1.5-0.4
			c-0.1,0-0.3,0-0.3,0.2c-0.1,0.1,0,0.3,0.1,0.3l1.3,0.8c-0.2,0-0.4,0-0.6-0.1c-0.6,0-1,0.1-1.1,0.1c-0.1,0-0.2,0.2-0.2,0.3
			c0,0.1,0.1,0.2,0.3,0.2c0.7,0,0.9,0.2,1.2,0.3c0.1,0,0.1,0.1,0.2,0.1l-1.5,0.2c-0.1,0-0.2,0.1-0.2,0.3c0,0.1,0.1,0.3,0.2,0.3
			l1.6,0.2c-0.2,0-0.4,0.1-0.6,0.2c-0.6,0.2-0.9,0.5-0.9,0.5c-0.1,0.1-0.1,0.2-0.1,0.4c0.1,0.1,0.2,0.2,0.3,0.1
			c0.4-0.1,0.6-0.2,0.8-0.2c-0.3,0.3-0.6,0.5-0.7,0.7c-0.1,0.1-0.1,0.2-0.2,0.2c0,0-0.1-0.1-0.1-0.1c-0.1,0-0.1,0-0.2,0
			c-0.4,0.3-0.8,0.7-1,1.1c-0.1,0.1-0.1,0.2-0.2,0.3c0-0.1-0.1-0.1-0.1-0.1c-0.1,0-0.1,0-0.2,0.1c-0.4,0.4-0.7,0.8-0.9,1.2
			c0,0.1-0.1,0.2-0.1,0.3c0,0-0.1-0.1-0.1-0.1c-0.1,0-0.1,0-0.2,0.1c-0.3,0.4-0.6,0.9-0.7,1.3c0,0.1-0.1,0.2-0.1,0.4
			c0-0.1-0.1-0.1-0.2-0.1c-0.1,0-0.1,0.1-0.2,0.1c-0.3,0.5-0.4,1-0.5,1.4c0,0.1,0,0.2,0,0.3c-0.1,0-0.1-0.1-0.2,0
			c-0.1,0-0.1,0.1-0.2,0.1c-0.2,0.5-0.3,1-0.3,1.5c0,0.1,0,0.2,0,0.3c-0.1,0-0.1,0-0.2,0c-0.1,0-0.1,0.1-0.1,0.2
			c-0.1,0.5-0.2,1-0.1,1.5c0,0.1,0,0.2,0,0.3c0,0-0.1,0-0.1,0c-0.1,0-0.1,0.1-0.1,0.2c-0.1,0.5-0.1,1,0,1.5c0,0.1,0,0.2,0.1,0.3
			c0,0-0.1,0-0.1,0c-0.1,0-0.1,0.1-0.1,0.2c-0.1,0.5-0.1,1.1,0,1.5c0,0.1,0,0.2,0.1,0.3c0,0-0.1,0-0.1,0c-0.1,0-0.1,0.1-0.1,0.2
			c0,0.6,0.1,1.1,0.2,1.5c0,0.1,0.1,0.3,0.1,0.4c0,0,0,0,0,0c-0.1,0-0.1,0-0.2,0c-0.1,0-0.1,0.1-0.1,0.2c0.1,0.5,0.2,1,0.5,1.4
			c0,0.1,0.1,0.2,0.1,0.2c0,0-0.1,0-0.1,0.1c-0.1,0.1-0.1,0.1-0.1,0.2c0.1,0.5,0.3,1,0.6,1.4c0.1,0.1,0.1,0.2,0.2,0.3
			c-0.1,0-0.1,0-0.1,0.1c0,0.1-0.1,0.1,0,0.2c0.2,0.5,0.4,1,0.7,1.3c0.1,0.1,0.1,0.2,0.2,0.2c-0.1,0-0.1,0.1-0.1,0.1
			c0,0.1,0,0.1,0,0.2c0.2,0.5,0.5,0.9,0.9,1.2c0.1,0.1,0.1,0.1,0.2,0.2c0,0-0.1,0.1-0.1,0.1c0,0.1,0,0.1,0,0.2
			c0.3,0.5,0.6,0.8,1,1.1c0.1,0.1,0.2,0.2,0.3,0.2c0,0,0,0,0,0c-0.1,0-0.1,0.1-0.1,0.2c0,0.1,0,0.1,0.1,0.2c0.4,0.4,0.8,0.7,1.2,0.9
			c0.3,0.2,0.6,0.3,1,0.4c0.3,0.1,0.6,0.1,0.8,0c0,0,0,0,0,0c0.7,0.5,1.4,0.9,2.1,1.2c0.6,0.3,1.3,0.5,1.9,0.6
			c0.1,0,0.3,0.1,0.4,0.1c-0.3-0.1-0.5-0.2-0.7-0.5c0,0-0.1-0.1-0.1-0.1c-0.4-0.1-0.9-0.3-1.3-0.5c-0.7-0.3-1.4-0.7-2.1-1.1
			c0,0,0,0,0,0c0-0.2,0-0.4-0.1-0.7c0.5,0.4,0.9,0.7,1.4,0.9c0.6,0.3,1.3,0.6,1.9,0.8c0,0,0-0.1,0-0.1c0-0.1,0-0.2,0.1-0.3
			c-0.6-0.2-1.2-0.4-1.8-0.8c-1.3-0.7-2.4-1.7-3.4-3c-0.3-0.4-0.7-0.9-0.9-1.4c0.7-0.3,2.4-1.1,3.9-1.8c0,0.1,0,0.1,0.1,0.2
			c0.1,0.3,0.4,0.4,0.7,0.4c0.1,0,0.2,0,0.2,0c0.1,0.2,0.3,0.4,0.6,0.5c0.1,0,0.2,0.1,0.3,0.1c0.1,0.1,0.1,0.2,0.3,0.3
			c0.3,0.2,0.7,0.2,0.9,0.1c0.1,0.2,0.3,0.3,0.5,0.3c0.1,0,0.1,0,0.2,0c0.2,0,0.3,0,0.4-0.1v2.6c0,0.2,0.2,0.3,0.3,0.3
			c0.2,0,0.3-0.2,0.3-0.3v-2.7c0.3,0.1,0.6,0,0.8-0.1c0.2-0.1,0.3-0.1,0.4-0.2c0.3,0.1,0.6,0,0.9-0.3c0.1-0.1,0.1-0.2,0.2-0.2
			c0.5,0,0.7-0.2,0.9-0.3c0.1-0.1,0.1-0.2,0.2-0.3c0.3,0,0.5-0.1,0.7-0.3c0.1-0.1,0.1-0.2,0.2-0.3c1.2,0.9,3,1.7,3.8,2.1
			c-0.3,0.5-0.6,0.9-0.9,1.3c-1,1.3-2.1,2.3-3.4,3c-0.6,0.3-1.2,0.6-1.8,0.8c0,0.1,0.1,0.2,0.1,0.3c0,0,0,0.1,0,0.1
			c0.7-0.2,1.3-0.5,1.9-0.8c0.5-0.3,0.9-0.6,1.4-1c-0.1,0.2-0.1,0.4-0.1,0.7c0,0,0,0,0,0c-0.2,0.2-0.7,0.5-1.5,0.9
			c-0.6,0.3-1.2,0.5-1.8,0.7c0,0-0.1,0-0.1,0c0,0,0,0.1-0.1,0.1c-0.2,0.2-0.5,0.4-0.7,0.5c0.3-0.1,0.7-0.1,1-0.2
			c0.6-0.2,1.3-0.4,1.9-0.7c0.8-0.4,1.4-0.8,1.6-1c0,0,0,0,0,0c0.2,0,0.5,0,0.8,0c0.3-0.1,0.6-0.2,1-0.4c0.4-0.2,0.8-0.5,1.2-0.9
			c0.1-0.1,0.1-0.1,0.1-0.2c0-0.1-0.1-0.1-0.1-0.2c0,0,0,0,0,0c0.1-0.1,0.2-0.1,0.3-0.2c0.4-0.3,0.7-0.7,1-1.1c0-0.1,0-0.1,0-0.2
			c0-0.1-0.1-0.1-0.1-0.1c0.1-0.1,0.1-0.1,0.2-0.2c0.3-0.3,0.6-0.7,0.9-1.2c0-0.1,0-0.1,0-0.2c0-0.1-0.1-0.1-0.2-0.1
			c0.1-0.1,0.2-0.2,0.2-0.2c0.3-0.4,0.5-0.8,0.7-1.3c0-0.1,0-0.1,0-0.2c0-0.1-0.1-0.1-0.2-0.1h0c0.1-0.1,0.1-0.2,0.2-0.3
			c0.3-0.4,0.5-0.9,0.6-1.4c0-0.1,0-0.1-0.1-0.2c0,0-0.1-0.1-0.2-0.1c0.1-0.1,0.1-0.2,0.2-0.3C-360.5,286.9-360.4,286.4-360.3,285.9
			 M-360.6,284.1C-360.6,284.1-360.6,284.1-360.6,284.1c0,0.4-0.1,0.7-0.2,1c-0.1,0.3-0.3,0.6-0.5,0.8c-0.2,0.3-0.5,0.4-0.5,0.5
			c0,0,0,0,0,0c0,0,0,0,0,0c-0.3-0.4-0.5-0.9-0.4-1.5c0-0.2,0-0.4,0.1-0.6c0,0,0,0,0,0c0,0,0,0,0,0c0.3,0.3,0.4,0.8,0.4,0.8
			c0,0.1,0.1,0.1,0.1,0.1c0.1,0,0.1,0,0.2-0.1C-361.2,284.6-360.8,284.3-360.6,284.1C-360.6,284.1-360.6,284.1-360.6,284.1
			 M-360.6,282.2C-360.6,282.2-360.6,282.2-360.6,282.2C-360.6,282.2-360.6,282.2-360.6,282.2c0,0.4,0,0.7-0.1,1.1
			c-0.1,0.3-0.2,0.6-0.4,0.8c-0.2,0.3-0.4,0.4-0.5,0.5c0,0,0,0,0,0c0,0,0,0,0,0c-0.5-0.6-0.6-1.5-0.6-2c0,0,0,0,0,0c0,0,0,0,0,0
			c0.3,0.3,0.5,0.7,0.5,0.7c0,0.1,0.1,0.1,0.2,0.1c0.1,0,0.1,0,0.1-0.1C-361.1,282.7-360.8,282.4-360.6,282.2 M-360.8,280.2
			C-360.8,280.2-360.8,280.2-360.8,280.2C-360.8,280.2-360.8,280.2-360.8,280.2c0.1,0.4,0.1,0.7,0,1.1c0,0.3-0.1,0.6-0.3,0.9
			c-0.2,0.3-0.4,0.5-0.5,0.6c0,0,0,0,0,0c0,0,0,0,0,0c-0.5-0.4-0.7-1.4-0.7-1.9c0,0,0,0,0,0c0,0,0,0,0,0c0.3,0.3,0.5,0.6,0.5,0.6
			c0,0.1,0.1,0.1,0.2,0.1c0.1,0,0.1-0.1,0.1-0.1C-361.3,280.8-361,280.4-360.8,280.2 M-361.1,278.3
			C-361.1,278.3-361.1,278.3-361.1,278.3C-361.1,278.3-361.1,278.3-361.1,278.3c0.1,0.4,0.1,0.7,0.1,1.1c0,0.3-0.1,0.6-0.2,0.9
			c-0.2,0.3-0.3,0.5-0.4,0.6c0,0,0,0,0,0c0,0,0,0,0,0c-0.4-0.4-0.7-0.9-0.8-1.3c0-0.2-0.1-0.4-0.1-0.6c0,0,0,0,0,0c0,0,0,0,0,0
			c0.3,0.3,0.6,0.6,0.6,0.6c0,0.1,0.1,0.1,0.2,0.1c0.1,0,0.1-0.1,0.1-0.1C-361.6,278.9-361.3,278.5-361.1,278.3 M-376.3,278.4
			C-376.3,278.4-376.3,278.4-376.3,278.4c0.3-1.4,0.8-2.3,1.2-2.8c0.3-0.4,0.5-0.6,0.7-0.7c0,0,0.1-0.1,0.1-0.1
			c0.1-0.1,0.1-0.3,0-0.4c-0.1-0.1-0.3-0.2-0.4-0.1c0,0-0.1,0-0.1,0.1c-0.3,0.2-0.5,0.1-0.5,0.1c-0.1-0.1-0.1-0.2-0.1-0.3
			c0-0.3,0.4-0.7,0.5-0.8c0,0,0,0,0,0c0.6-0.8,1.7-0.8,1.7-0.8c0,0,0,0,0,0c0,0,0.3,0,0.7,0.1c0.5,0.2,1,0.6,1.3,1.1
			c0.4,0.8,0.7,1.6,0.9,2.4c-0.6-0.2-1-0.6-1-0.6c-0.1-0.1-0.3-0.1-0.4,0c-0.1,0.1-0.1,0.1-0.1,0.2c0,0.1,0,0.2,0.1,0.2
			c0,0,0.7,0.6,1.6,0.8c0.1,0.3,0.1,0.6,0.2,0.9c-0.3-0.1-0.6-0.2-0.9-0.3c-0.2,0-0.4-0.1-0.5-0.1c-0.6-0.2-1.1-0.6-1.1-0.6
			c-0.1-0.1-0.3-0.1-0.4,0.1c-0.1,0.1-0.1,0.3,0.1,0.4c0,0,0.6,0.4,1.2,0.7c0.2,0.1,0.4,0.1,0.6,0.2c0.7,0.2,1.1,0.3,1.1,0.7
			c0,0.1-0.1,0.1-0.1,0.2c-0.2,0.3-0.8,0.3-0.9,0.3c0,0,0,0,0,0h-0.7c-0.1,0-0.8,0-1.5-0.4C-374.7,277.9-375.4,278-376.3,278.4
			 M-373.6,279.3h-2.1c-0.2,0-0.4-0.1-0.5-0.2c0,0,0,0-0.1-0.1C-375.3,278.7-374.9,278.5-373.6,279.3 M-372.7,283.1v-3.2h1.1h0h0
			h0.7c0,0,0,0,0.1,0c0.1,0,0.2,0,0.4,0c0.4-0.1,0.7-0.2,0.9-0.4c0.1-0.1,0.2-0.2,0.2-0.4c0,0,0,0,0-0.1c0-0.2,0.1-0.3,0-0.6l0-0.1
			c-0.2-1.3-0.4-2.9-1.4-4.8c-0.8-1.6-2.4-1.6-2.5-1.5c-0.1,0-1.3,0.1-2.1,1c-0.1,0.1-0.6,0.6-0.6,1.1c-0.1,0.4,0.1,0.8,0.4,1
			c0.1,0,0.1,0.1,0.2,0.1c-0.5,0.6-1.1,1.6-1.4,3.1c0,0.3-0.1,0.5,0,0.7c0,0,0,0,0,0.1c0,0.2,0.1,0.4,0.2,0.6
			c0.1,0.2,0.4,0.4,0.9,0.4h2.3v3.2v2c-0.6,0-1.1,0.2-1.6,0.6c-0.8,0.5-3.5,1.1-8.1,1.6c-0.3-1.4-0.5-2.8-0.5-4.2
			c0-1.9,0.3-3.7,0.8-5.5c0.5-1.7,1.3-3.2,2.3-4.4c1-1.3,2.1-2.3,3.4-3c1.3-0.7,2.7-1.1,4.1-1.1c1.4,0,2.8,0.4,4.1,1.1
			c1.3,0.7,2.4,1.7,3.4,3c1,1.3,1.7,2.8,2.3,4.4c0.6,1.7,0.8,3.6,0.8,5.5c0,1.5-0.2,2.9-0.5,4.3c-2.8-0.2-6.1-1.2-6.2-1.2
			c-0.2-0.1-0.4-0.2-0.6-0.2c-0.7-0.2-1.2-0.4-1.8-0.4c0,0-0.1,0-0.1,0c-0.3-0.2-0.6-0.3-1-0.4V283.1z M-368.4,268.5
			c-0.2,0.1-0.4,0.2-0.7,0.2c-0.2,0-0.4,0.1-0.5,0.1c-0.4,0-0.7-0.1-1-0.3c0,0,0,0,0,0c0,0,0,0,0,0c0.1-0.1,0.3-0.2,0.6-0.2
			c0.3-0.1,0.6-0.1,0.9,0C-369,268.2-368.7,268.3-368.4,268.5C-368.4,268.5-368.4,268.5-368.4,268.5
			C-368.4,268.5-368.4,268.5-368.4,268.5 M-368,269.6C-368,269.6-368,269.6-368,269.6C-368,269.7-368,269.7-368,269.6
			c-0.1,0.1-0.3,0.1-0.5,0.1c0,0-0.1,0-0.1,0c-0.5,0-0.9-0.2-1.4-0.5c0,0,0,0,0,0c0,0,0,0,0,0c0.2-0.1,0.4-0.1,0.6-0.1
			C-368.9,269.1-368.4,269.3-368,269.6 M-370.2,267.9c-0.2,0.1-0.5,0.2-1,0.3c-0.1,0-0.1,0.1-0.1,0.1c0,0.1,0,0.1,0.1,0.2
			c0,0,0.4,0.3,0.7,0.6c0,0,0,0,0,0c0,0,0,0,0,0h0c-0.5,0-1.3-0.1-1.9-0.9c0,0,0,0,0,0c0.1-0.1,0.3-0.2,0.5-0.3
			C-371.5,267.7-370.9,267.7-370.2,267.9C-370.2,267.9-370.2,267.9-370.2,267.9C-370.2,267.9-370.2,267.9-370.2,267.9 M-372.3,267.6
			c-0.2,0.1-0.5,0.3-0.9,0.5c-0.1,0-0.1,0.1-0.1,0.2c0,0.1,0,0.1,0.1,0.2c0,0,0.4,0.2,0.7,0.4c0,0,0,0,0,0c0,0,0,0,0,0
			c-0.1,0-0.3,0-0.4,0c-0.5,0-1.1-0.1-1.6-0.5c0,0,0,0,0,0c0.1-0.1,0.2-0.3,0.4-0.4C-373.6,267.6-373,267.5-372.3,267.6
			C-372.3,267.5-372.2,267.5-372.3,267.6C-372.2,267.5-372.2,267.6-372.3,267.6 M-374.3,267.6c-0.1,0.2-0.4,0.4-0.8,0.6
			c-0.1,0-0.1,0.1-0.1,0.2c0,0.1,0.1,0.1,0.1,0.1c0,0,0.4,0.1,0.8,0.3c0,0,0,0,0,0c0,0,0,0,0,0c-0.2,0.1-0.4,0.1-0.5,0.1
			c-0.2,0-0.4,0.1-0.6,0.1c-0.3,0-0.7,0-1-0.2c0,0,0,0,0,0c0-0.1,0.1-0.3,0.3-0.5C-375.7,267.9-375.1,267.7-374.3,267.6
			C-374.4,267.6-374.4,267.6-374.3,267.6C-374.3,267.6-374.3,267.6-374.3,267.6 M-377,268.9c-0.1,0-0.1,0.1,0,0.2
			c0,0.1,0.1,0.1,0.2,0.1h0c0,0,0.2,0,0.4,0c0.2,0,0.3,0.1,0.4,0.1c0,0,0,0,0,0c0,0,0,0,0,0c-0.2,0.1-0.3,0.2-0.5,0.2
			c-0.4,0.1-0.7,0.2-1,0.2c-0.2,0-0.4,0-0.6-0.1c0,0,0,0,0,0c0.1-0.3,0.4-1.2,1.9-1.7c0,0,0,0,0,0c0,0,0,0,0,0
			C-376.4,268.2-376.6,268.5-377,268.9 M-362.1,277.6c0-0.6,0.2-1,0.4-1.3c0,0,0,0,0,0c0,0,0,0,0,0c0.1,0.4,0.2,0.7,0.2,1
			c0,0.3,0,0.6-0.1,0.9c-0.1,0.3-0.3,0.5-0.3,0.6c0,0,0,0,0,0c0,0,0,0,0,0c-0.4-0.3-0.7-0.7-0.9-1.2c-0.1-0.2-0.1-0.3-0.2-0.5
			c0,0,0,0,0,0c0,0,0,0,0,0c0.4,0.2,0.7,0.5,0.7,0.5c0,0,0.1,0.1,0.2,0C-362.2,277.7-362.1,277.7-362.1,277.6 M-362.8,275.8
			c0-0.6,0.1-1,0.3-1.3c0,0,0,0,0,0c0,0,0,0,0,0c0.2,0.3,0.3,0.7,0.3,1c0,0.3,0,0.6,0,0.9c-0.1,0.3-0.2,0.6-0.3,0.7c0,0,0,0,0,0
			c0,0,0,0,0,0c-0.4-0.2-0.8-0.6-1.1-1.1c-0.1-0.2-0.2-0.3-0.2-0.5c0,0,0,0,0,0c0,0,0,0,0,0c0.4,0.2,0.7,0.5,0.7,0.5
			c0,0,0.1,0.1,0.2,0C-362.8,275.9-362.8,275.9-362.8,275.8 M-363.7,274.3L-363.7,274.3c0.1,0,0.1-0.1,0.1-0.2c-0.1-0.6,0-1,0.1-1.3
			c0,0,0,0,0,0c0,0,0,0,0,0c0.2,0.3,0.3,0.7,0.4,1c0.1,0.3,0.1,0.6,0.1,0.9c0,0.3-0.1,0.6-0.2,0.7c0,0,0,0,0,0c0,0,0,0,0,0
			c-0.5-0.2-0.9-0.5-1.2-1c-0.1-0.2-0.2-0.3-0.3-0.5c0,0,0,0,0,0c0,0,0,0,0,0c0.4,0.1,0.8,0.4,0.8,0.4
			C-363.8,274.3-363.8,274.3-363.7,274.3 M-364.9,272.7c0.1,0,0.1,0,0.2,0c0.1,0,0.1-0.1,0.1-0.2c-0.2-0.5-0.1-1-0.1-1.3
			c0,0,0,0,0,0c0,0,0,0,0,0c0.2,0.3,0.4,0.6,0.6,0.9c0.1,0.3,0.2,0.6,0.2,0.9c0,0.3,0,0.6-0.1,0.7c0,0,0,0,0,0h0
			c-0.5-0.1-0.9-0.4-1.3-0.8c-0.1-0.1-0.3-0.3-0.4-0.5c0,0,0,0,0,0c0,0,0,0,0,0C-365.3,272.4-364.9,272.7-364.9,272.7 M-366.1,271.3
			c0.1,0,0.1,0,0.2,0c0-0.1,0.1-0.1,0-0.2c-0.3-0.5-0.3-1-0.3-1.3c0,0,0,0,0,0s0,0,0,0c0.3,0.2,0.5,0.5,0.7,0.8
			c0.2,0.3,0.3,0.6,0.4,0.9c0.1,0.3,0.1,0.6,0,0.7c0,0,0,0,0,0c0,0,0,0,0,0c-0.5,0-1-0.3-1.4-0.5c-0.2-0.1-0.3-0.3-0.5-0.4
			c0,0,0,0,0,0c0,0,0,0,0,0c0,0,0,0,0.1,0C-366.5,271.2-366.2,271.3-366.1,271.3 M-366.6,270c0.1,0.3,0.1,0.6,0.1,0.8c0,0,0,0,0,0
			c0,0-0.1,0-0.1,0c-0.7,0-1.5-0.5-1.9-0.7c0,0,0,0,0,0c0,0,0,0,0,0c0.4-0.1,0.8,0,0.8,0c0.1,0,0.1,0,0.2-0.1c0-0.1,0-0.1,0-0.2
			c-0.3-0.3-0.4-0.7-0.5-1c0,0,0,0,0,0c0,0,0,0,0,0C-367.3,269.1-366.9,269.5-366.6,270 M-378.8,268C-378.8,268-378.8,268-378.8,268
			c0.5-0.2,0.9-0.3,1.1-0.3c0.4-0.1,0.7-0.3,0.8-0.3c0,0,0.1-0.1,0-0.1c0,0,0-0.1-0.1-0.1l-1.9-0.3l1.9-0.3c0.1,0,0.1-0.1,0.1-0.1
			c0-0.1,0-0.1-0.1-0.1c0,0-0.4-0.1-0.9-0.3c-0.1-0.1-0.2-0.1-0.3-0.2c-0.2-0.1-0.3-0.2-0.6-0.3c0,0,0.1,0,0.1,0
			c0.4,0,0.8,0.1,1,0.1c0.4,0.1,0.8,0,0.8,0c0,0,0.1,0,0.1-0.1c0,0,0-0.1-0.1-0.1l-1.7-1l1.9,0.5c0.1,0,0.1,0,0.1-0.1
			c0-0.1,0-0.1,0-0.1c0,0-0.4-0.2-0.7-0.6c-0.1-0.1-0.2-0.2-0.2-0.3c-0.1-0.2-0.2-0.3-0.4-0.4c0,0,0.1,0,0.1,0
			c0.4,0.2,0.7,0.4,0.9,0.5c0.4,0.2,0.7,0.3,0.7,0.3c0,0,0.1,0,0.1,0c0,0,0-0.1,0-0.1l-1.2-1.6l1.6,1.2c0,0,0.1,0,0.1,0
			c0,0,0-0.1,0-0.1c0,0-0.3-0.4-0.4-0.8c0-0.1-0.1-0.2-0.1-0.4c-0.1-0.2-0.1-0.4-0.2-0.6c0,0,0,0.1,0.1,0.1c0.3,0.3,0.5,0.6,0.6,0.8
			c0.2,0.4,0.5,0.6,0.6,0.6c0,0,0.1,0,0.1,0c0,0,0.1-0.1,0-0.1l-0.5-1.9l1,1.7c0,0,0.1,0.1,0.1,0c0.1,0,0.1-0.1,0.1-0.1
			c0,0-0.1-0.4-0.1-0.9c0-0.1,0-0.3,0-0.4c0-0.2,0-0.4,0-0.6c0,0,0,0.1,0,0.1c0.1,0.4,0.2,0.8,0.3,1c0.1,0.4,0.3,0.7,0.3,0.8
			c0,0,0.1,0.1,0.1,0.1c0,0,0.1,0,0.1-0.1l0.3-1.9l0.3,1.9c0,0.1,0.1,0.1,0.1,0.1c0.1,0,0.1,0,0.1-0.1c0,0,0.1-0.4,0.3-0.9
			c0.1-0.1,0.1-0.2,0.2-0.3c0.1-0.2,0.2-0.3,0.3-0.6c0,0,0,0.1,0,0.1c0,0.4-0.1,0.8-0.1,1c-0.1,0.4,0,0.8,0,0.8c0,0,0,0.1,0.1,0.1
			c0,0,0.1,0,0.1-0.1l1-1.7l-0.5,1.9c0,0.1,0,0.1,0.1,0.1c0.1,0,0.1,0,0.1,0c0,0,0.2-0.4,0.6-0.7c0.1-0.1,0.2-0.2,0.3-0.2
			c0.2-0.1,0.3-0.2,0.4-0.4c0,0,0,0.1,0,0.1c-0.2,0.4-0.4,0.7-0.5,0.9c-0.2,0.4-0.3,0.7-0.3,0.7c0,0,0,0.1,0,0.1c0,0,0.1,0,0.1,0
			l1.6-1.2l-1.2,1.6c0,0,0,0.1,0,0.1c0,0,0.1,0,0.1,0c0,0,0.3-0.3,0.8-0.4c0.1,0,0.2-0.1,0.4-0.1c0.2-0.1,0.4-0.1,0.6-0.2
			c0,0-0.1,0-0.1,0.1c-0.3,0.3-0.6,0.5-0.8,0.6c-0.4,0.3-0.6,0.6-0.6,0.6c0,0,0,0.1,0,0.1c0,0,0.1,0.1,0.1,0l1.9-0.5l-1.7,1
			c0,0-0.1,0.1,0,0.1c0,0.1,0.1,0.1,0.1,0.1c0,0,0.4-0.1,0.9-0.1c0.1,0,0.3,0,0.4,0c0.2,0,0.4,0,0.6,0c0,0-0.1,0-0.1,0
			c-0.4,0.1-0.8,0.2-1,0.3c-0.4,0.1-0.7,0.3-0.8,0.3c0,0-0.1,0.1,0,0.1c0,0,0,0.1,0.1,0.1l1.9,0.3l-1.9,0.3c-0.1,0-0.1,0.1-0.1,0.1
			c0,0.1,0,0.1,0.1,0.1c0,0,0.4,0.1,0.9,0.3c0.1,0.1,0.2,0.1,0.3,0.2c0.2,0.1,0.3,0.2,0.6,0.3c0,0-0.1,0-0.1,0c-0.4,0-0.8-0.1-1-0.1
			l-0.1,0c-0.4-0.2-0.7-0.2-1.1-0.2c0,0,0,0,0,0c0-0.1-0.1-0.1-0.1-0.2c-0.5-0.2-1-0.3-1.5-0.3c-0.2,0-0.3,0-0.5,0c0,0,0,0,0-0.1
			c0-0.1-0.1-0.1-0.2-0.1c-0.6-0.1-1.1-0.1-1.5,0c-0.2,0-0.3,0.1-0.5,0.1c0,0,0-0.1-0.1-0.1c0-0.1-0.1-0.1-0.2-0.1
			c-0.6,0-1,0.2-1.5,0.3c-0.1,0-0.2,0.1-0.3,0.2c0-0.1,0-0.1-0.1-0.1c-0.1,0-0.1-0.1-0.2,0c-0.5,0.1-1,0.4-1.4,0.6l0,0
			c-0.1,0-0.2,0-0.3,0c-0.1,0-0.4,0-0.4,0C-378.4,268-378.6,268-378.8,268 M-378.3,268.6C-378.3,268.6-378.3,268.6-378.3,268.6
			C-378.3,268.6-378.3,268.6-378.3,268.6c0,0.3-0.1,0.8-0.4,1.3c0,0.1,0,0.1,0,0.2c0,0.1,0.1,0.1,0.2,0.1c0,0,0.4-0.1,0.8-0.1
			c0,0,0,0,0,0c0,0,0,0,0,0c-0.4,0.3-1.1,0.8-1.8,0.8c0,0-0.1,0-0.1,0c0,0,0,0,0,0C-379.6,270.5-379.6,269.5-378.3,268.6
			 M-381,271.4c0.1-0.3,0.2-0.6,0.4-0.8c0.2-0.3,0.4-0.5,0.7-0.8c0,0,0,0,0,0c0,0,0,0,0,0c0,0.3,0,0.8-0.3,1.3c0,0.1,0,0.1,0,0.2
			c0,0.1,0.1,0.1,0.2,0c0,0,0.4-0.1,0.8-0.1c0,0,0,0,0,0c0,0,0,0,0,0c-0.2,0.2-0.3,0.3-0.5,0.4c-0.3,0.3-0.8,0.6-1.3,0.6
			c0,0,0,0-0.1,0c0,0,0,0,0,0C-381,272-381,271.8-381,271.4 M-381.4,271.2C-381.4,271.2-381.4,271.2-381.4,271.2
			C-381.4,271.2-381.4,271.2-381.4,271.2c0.1,0.3,0.1,0.8-0.1,1.3c0,0.1,0,0.1,0.1,0.2c0.1,0,0.1,0,0.2,0c0,0,0.4-0.2,0.8-0.3
			c0,0,0,0,0,0c0,0,0,0,0,0c-0.3,0.4-0.9,1.1-1.7,1.3h0c0,0,0,0,0,0C-382.2,273.3-382.4,272.4-381.4,271.2 M-383.1,273.8
			c0.1-0.3,0.2-0.6,0.5-0.9c0,0,0,0,0,0c0,0,0,0,0,0c0.1,0.3,0.2,0.7,0.1,1.3c0,0.1,0,0.1,0.1,0.2c0.1,0,0.1,0,0.2,0
			c0,0,0.3-0.3,0.8-0.4c0,0,0,0,0,0s0,0,0,0c-0.1,0.1-0.2,0.3-0.3,0.5c-0.4,0.5-0.8,0.8-1.2,0.9l0,0c0,0,0,0,0,0
			c0-0.1-0.1-0.3-0.2-0.7C-383.2,274.4-383.2,274.1-383.1,273.8 M-384,275.5c0-0.3,0.2-0.7,0.3-1c0,0,0,0,0,0s0,0,0,0
			c0.1,0.3,0.3,0.7,0.3,1.3c0,0.1,0,0.1,0.1,0.2s0.1,0,0.2,0c0,0,0.4-0.3,0.8-0.5c0,0,0,0,0,0c0,0,0,0,0,0c0,0.2-0.1,0.3-0.2,0.5
			c-0.2,0.5-0.6,0.9-1.2,1.2c0,0,0,0,0,0c0,0,0,0,0,0c-0.1-0.1-0.2-0.3-0.3-0.7C-384.1,276.2-384.1,275.8-384,275.5 M-384.5,276.3
			C-384.5,276.3-384.5,276.3-384.5,276.3C-384.5,276.3-384.5,276.3-384.5,276.3c0.2,0.2,0.4,0.7,0.4,1.2c0,0.1,0,0.1,0.1,0.1
			c0.1,0,0.1,0,0.2-0.1c0,0,0.3-0.3,0.7-0.6c0,0,0,0,0,0c0,0,0,0,0,0c0,0.2-0.1,0.3-0.1,0.5c-0.2,0.5-0.5,1-1,1.3c0,0,0,0,0,0
			c0,0,0,0,0,0c-0.1-0.1-0.2-0.3-0.3-0.6c-0.1-0.3-0.1-0.6-0.1-0.9C-384.7,277.1-384.6,276.7-384.5,276.3 M-385.1,278.3
			C-385.1,278.3-385.1,278.3-385.1,278.3C-385.1,278.3-385.1,278.3-385.1,278.3c0.2,0.2,0.5,0.6,0.6,1.2c0,0.1,0.1,0.1,0.1,0.1
			c0.1,0,0.1,0,0.2-0.1c0,0,0.3-0.4,0.6-0.6c0,0,0,0,0,0c0,0,0,0,0,0c0,0.2,0,0.3-0.1,0.5c-0.1,0.6-0.4,1-0.8,1.4c0,0,0,0,0,0
			c0,0,0,0,0,0c-0.1-0.1-0.3-0.3-0.4-0.6c-0.1-0.3-0.2-0.6-0.2-0.9C-385.2,279-385.1,278.6-385.1,278.3 M-385.4,280.2
			C-385.4,280.2-385.4,280.2-385.4,280.2C-385.4,280.2-385.4,280.2-385.4,280.2c0.2,0.2,0.5,0.6,0.6,1.2c0,0.1,0.1,0.1,0.1,0.1
			c0.1,0,0.1,0,0.2-0.1c0,0,0.2-0.4,0.5-0.7c0,0,0,0,0,0c0,0,0,0,0,0c0,0.2,0,0.4,0,0.6c-0.1,0.6-0.3,1.1-0.7,1.4c0,0,0,0,0,0
			c0,0,0,0,0,0c-0.1-0.1-0.3-0.2-0.4-0.6c-0.1-0.3-0.2-0.6-0.3-0.9C-385.4,280.9-385.4,280.6-385.4,280.2 M-385.5,282.2
			C-385.5,282.2-385.5,282.2-385.5,282.2C-385.5,282.2-385.5,282.2-385.5,282.2c0.1,0,0.1,0.1,0.1,0.1c0.2,0.2,0.4,0.5,0.6,1
			c0,0.1,0.1,0.1,0.2,0.1c0.1,0,0.1-0.1,0.1-0.1c0,0,0.1-0.4,0.4-0.7c0,0,0,0,0,0c0,0,0,0,0,0c0,0.2,0.1,0.6,0,1
			c-0.1,0.4-0.3,0.8-0.6,1.1c0,0,0,0,0,0c0,0,0,0,0,0C-384.9,284.4-385.6,283.7-385.5,282.2 M-385.6,284.2
			C-385.6,284.2-385.6,284.2-385.6,284.2c0.1,0,0.1,0.1,0.1,0.1c0.2,0.2,0.5,0.5,0.7,0.9c0,0.1,0.1,0.1,0.1,0.1h0
			c0.1,0,0.1,0,0.1-0.1c0,0,0.2-0.4,0.5-0.8c0,0,0,0,0,0c0,0,0,0,0,0c0.1,0.4,0.1,1.2-0.5,2.1c0,0,0,0,0,0c0,0,0,0,0,0
			C-384.8,286.3-385.5,285.7-385.6,284.2C-385.6,284.2-385.6,284.2-385.6,284.2 M-385.5,286.2C-385.5,286.2-385.5,286.2-385.5,286.2
			C-385.5,286.2-385.5,286.2-385.5,286.2c0.3,0.1,0.7,0.4,1,0.9c0,0.1,0.1,0.1,0.2,0.1c0.1,0,0.1-0.1,0.1-0.1l0,0l0,0
			c0,0,0.1-0.5,0.3-0.9c0,0,0,0,0,0c0,0,0,0,0,0c0.1,0.2,0.1,0.3,0.2,0.5c0.1,0.6,0,1.1-0.3,1.6c0,0,0,0,0,0c0,0,0,0,0,0
			c-0.1,0-0.3-0.1-0.6-0.4c-0.2-0.2-0.4-0.4-0.6-0.7C-385.3,286.9-385.4,286.6-385.5,286.2 M-385,288.1
			C-385,288.1-385,288.1-385,288.1C-385,288.1-385,288.1-385,288.1c0.1,0,0.1,0,0.2,0.1c0.2,0.1,0.6,0.3,0.9,0.7
			c0,0.1,0.1,0.1,0.2,0.1c0.1,0,0.1-0.1,0.1-0.1c0,0,0.1-0.5,0.3-0.8c0,0,0,0,0,0s0,0,0,0c0.2,0.4,0.5,1.2,0.1,2.1c0,0,0,0,0,0
			c0,0,0,0,0,0C-383.7,290-384.6,289.6-385,288.1 M-383.9,290.9c-0.2-0.3-0.4-0.6-0.5-0.9c0,0,0,0,0,0c0,0,0,0,0,0
			c0.1,0,0.1,0,0.2,0.1c0.2,0.1,0.6,0.3,1,0.6c0,0,0.1,0.1,0.2,0c0.1,0,0.1-0.1,0.1-0.1c0,0,0-0.4,0.1-0.9c0,0,0,0,0,0c0,0,0,0,0,0
			c0.1,0.2,0.2,0.3,0.2,0.5c0.2,0.6,0.2,1.1,0.1,1.6c0,0,0,0,0,0h0c-0.1,0-0.4-0.1-0.7-0.3C-383.5,291.4-383.7,291.2-383.9,290.9
			 M-383.6,291.8C-383.6,291.8-383.6,291.8-383.6,291.8C-383.6,291.8-383.6,291.8-383.6,291.8c0.3,0,0.8,0.2,1.2,0.5
			c0.1,0,0.1,0,0.2,0c0.1,0,0.1-0.1,0.1-0.2c0,0,0-0.4,0-0.8c0,0,0,0,0,0c0,0,0,0,0,0c0.1,0.2,0.2,0.3,0.3,0.5
			c0.2,0.4,0.4,0.9,0.3,1.5c0,0,0,0,0,0h0c-0.1,0-0.4,0-0.7-0.2c-0.3-0.1-0.5-0.3-0.8-0.5C-383.2,292.4-383.4,292.1-383.6,291.8
			 M-379.9,295.1c0,0-0.2-0.4-0.2-0.8c0,0,0,0,0,0c0,0,0,0,0,0c0.4,0.3,1,1,1,1.9c0,0,0,0,0,0c0,0-0.1,0-0.3,0c-0.1,0-0.2,0-0.4,0
			c-0.5-0.1-1.1-0.4-1.7-1c0,0,0,0,0,0c0,0,0,0,0,0c0.3,0,0.8,0,1.3,0.2c0.1,0,0.1,0,0.2,0C-379.8,295.2-379.8,295.1-379.9,295.1
			 M-381.3,293.9c0.1,0,0.1,0,0.2,0c0.1,0,0.1-0.1,0.1-0.2c0,0-0.1-0.4-0.1-0.8c0,0,0,0,0,0c0,0,0,0,0,0c0.3,0.4,0.8,1.1,0.8,1.9
			c0,0,0,0,0,0c0,0,0,0-0.1,0c-0.1,0-0.4,0-0.6-0.1c-0.3-0.1-0.6-0.2-0.8-0.4c-0.3-0.2-0.5-0.5-0.7-0.8c0,0,0,0,0,0c0,0,0,0,0,0
			C-382.3,293.5-381.8,293.6-381.3,293.9 M-375,289.6c-0.1,0-0.1,0.1-0.2,0.1c-0.3,0.2-0.6,0.5-0.6,0.8c0,0-0.1,0-0.1,0
			c-0.3-0.1-0.3-0.2-0.3-0.3c0-0.1,0.1-0.3,0.3-0.5c0.2-0.2,0.4-0.3,0.6-0.3c0.1,0,0.1,0,0.2,0C-375,289.5-375,289.5-375,289.6
			C-375,289.6-375,289.6-375,289.6 M-374.6,291c-0.1,0-0.4,0-0.5,0c0,0-0.1-0.1-0.1-0.2c0-0.2,0.3-0.5,0.4-0.6
			c0.3-0.2,0.5-0.3,0.6-0.3c0.1,0,0.1,0,0.2,0.1c0.1,0,0.1,0.1,0.1,0.1c0,0.1-0.1,0.2-0.2,0.2C-374.3,290.5-374.5,290.7-374.6,291
			 M-373.2,291c-0.1,0.1-0.5,0.3-0.7,0.3c0,0-0.1,0-0.2-0.1c0.1-0.2,0.4-0.4,0.6-0.5c0.3-0.2,0.4-0.1,0.4-0.1
			c0.1,0.1,0.1,0.1,0.1,0.2C-373,290.8-373.1,290.9-373.2,291C-373.2,291-373.2,291-373.2,291 M-376.1,289.2c0,0-0.1,0.1-0.1,0.1
			c-0.2,0.2-0.3,0.3-0.4,0.6c0,0-0.1,0-0.1,0c-0.2,0-0.3-0.1-0.3-0.1c0,0,0-0.1,0.1-0.2c0.1-0.2,0.5-0.4,0.7-0.4c0,0,0,0,0.1,0
			C-376.3,289.2-376.2,289.2-376.1,289.2C-376.2,289.2-376.2,289.2-376.1,289.2 M-369.1,289.6c-0.1,0.1-0.2,0.1-0.4,0.1
			c-0.2-0.3-0.8-1-1.6-1.4c-0.1,0-0.1,0-0.2,0c-0.1,0-0.1,0.1-0.2,0.1c0,0.1,0,0.1,0,0.2c0,0.1,0.1,0.1,0.1,0.2
			c0.6,0.3,1.2,1,1.4,1.2c0,0,0,0.1-0.1,0.1c-0.1,0.1-0.3,0.2-0.4,0.2c-0.1-0.1-0.2-0.3-0.4-0.5c-0.2-0.3-0.7-0.6-0.7-0.6
			c-0.1,0-0.1-0.1-0.2,0c-0.1,0-0.1,0.1-0.2,0.1c0,0.1-0.1,0.1,0,0.2c0,0.1,0.1,0.1,0.1,0.2c0.1,0.1,0.5,0.3,0.6,0.5
			c0.2,0.2,0.3,0.3,0.3,0.4c0,0-0.1,0.1-0.1,0.2c-0.1,0.1-0.2,0.1-0.4,0.1c-0.1-0.2-0.2-0.4-0.5-0.8c-0.1-0.1-0.3-0.1-0.4,0
			c-0.1,0-0.1,0.1-0.1,0.2c0,0.1,0,0.1,0.1,0.2c0.2,0.2,0.3,0.4,0.4,0.5c0,0-0.1,0.1-0.1,0.1c-0.1,0.1-0.3,0.1-0.4,0.1
			c0.1-0.1,0.1-0.2,0.1-0.3c0-0.2,0-0.4-0.2-0.6c-0.1-0.1-0.3-0.2-0.7-0.2c0-0.2-0.1-0.3-0.3-0.5c-0.2-0.2-0.5-0.3-0.9-0.2
			c0-0.1-0.2-0.3-0.4-0.4c-0.2-0.1-0.5-0.1-0.7-0.1c-0.2-0.2-0.5-0.2-0.6-0.2c-0.4,0-0.8,0.1-1.1,0.4c-1.6,0.8-3.6,1.7-4.4,2.1
			c-0.4-0.8-0.8-1.7-1.1-2.6c-0.1-0.2-0.2-0.5-0.2-0.8c2.3-0.3,4.1-0.5,5.5-0.8c1.4-0.3,2.3-0.6,2.8-0.9c0.5-0.4,0.9-0.6,1.4-0.5
			c0.1,0,0.2,0,0.3,0c-0.1,0-0.2,0.1-0.3,0.2c-0.2,0.2-0.3,0.3-0.5,0.4c-0.1,0.1-0.2,0.2-0.4,0.3c-0.1,0.1-0.2,0.1-0.4,0.2
			c-0.3,0.2-0.6,0.3-0.7,0.5c-0.1,0.2-0.1,0.4,0.1,0.7c0.2,0.3,0.6,0.3,1,0.3c0.4,0,0.8-0.2,1.1-0.3c0.1-0.1,0.2-0.1,0.3-0.2
			c0.1-0.1,0.3-0.2,0.3-0.2c0,0,0,0,0,0c0.3-0.1,0.6,0,1,0.1c0.3,0.1,0.7,0.3,1,0.5c0.7,0.5,1.2,1.1,1.4,1.3
			C-369,289.4-369.1,289.5-369.1,289.6 M-368.1,289.3c-0.2-0.2-0.4-0.3-0.5-0.4c0,0,0,0,0,0l0,0c0,0,0,0,0,0
			c-0.2-0.3-0.8-0.9-1.4-1.3c-0.5-0.3-1.4-0.9-2.3-0.7c-0.2,0-0.3,0.1-0.5,0.3c-0.1,0.1-0.2,0.1-0.3,0.2c-0.3,0.2-0.6,0.2-0.9,0.3
			c-0.3,0-0.4,0-0.5-0.1c-0.1-0.1-0.1-0.1,0-0.1c0.1-0.1,0.3-0.2,0.4-0.2c0.1-0.1,0.3-0.1,0.4-0.2c0.2-0.1,0.3-0.2,0.4-0.3
			c0.1-0.1,0.2-0.2,0.4-0.3c0.3-0.2,0.6-0.2,1-0.2h0c0.1,0,0.1,0,0.2,0c0.1,0,0.1,0,0.2,0c0.5,0,0.9,0.1,1.6,0.4
			c0.2,0.1,0.4,0.1,0.7,0.2c0,0,0.9,0.3,2.1,0.6c1,0.2,2.6,0.6,4,0.7c-0.1,0.2-0.1,0.5-0.2,0.7c-0.3,0.9-0.7,1.8-1.1,2.7
			C-365.2,291-367,290.2-368.1,289.3 M-364.8,295.1c-0.7,0.7-1.3,0.9-1.7,1c-0.1,0-0.3,0-0.4,0c-0.1,0-0.2,0-0.3,0c0,0,0,0,0,0
			c0-0.5,0.2-1,0.6-1.4c0.1-0.1,0.3-0.3,0.4-0.4c0,0,0,0,0,0c0,0,0,0,0,0c0,0.4-0.2,0.8-0.2,0.8c0,0.1,0,0.1,0,0.2
			c0,0,0.1,0.1,0.2,0C-365.5,295.1-365.1,295.1-364.8,295.1C-364.8,295.1-364.8,295.1-364.8,295.1
			C-364.8,295.1-364.8,295.1-364.8,295.1 M-363.5,293.5c-0.2,0.3-0.5,0.6-0.7,0.8c-0.3,0.2-0.5,0.4-0.8,0.4
			c-0.3,0.1-0.5,0.1-0.6,0.1c0,0-0.1,0-0.1,0c0,0,0,0,0,0c0-0.5,0.1-1,0.4-1.5c0.1-0.2,0.2-0.3,0.3-0.4c0,0,0,0,0,0c0,0,0,0,0,0
			c0,0.4,0,0.9,0,0.9c0,0.1,0,0.1,0.1,0.2c0.1,0,0.1,0,0.2,0C-364.3,293.6-363.8,293.5-363.5,293.5
			C-363.5,293.5-363.5,293.5-363.5,293.5C-363.5,293.5-363.5,293.5-363.5,293.5 M-363.2,292.6c-0.2,0.2-0.5,0.4-0.8,0.5
			c-0.3,0.1-0.6,0.2-0.7,0.2h0c0,0,0,0,0,0c-0.1-0.5,0-1,0.3-1.5c0.1-0.2,0.2-0.3,0.3-0.5c0,0,0,0,0,0s0,0,0,0c0.1,0.4,0,0.9,0,0.9
			c0,0.1,0,0.1,0.1,0.2c0.1,0,0.1,0,0.2,0c0.5-0.4,0.9-0.5,1.2-0.6c0,0,0,0,0,0c0,0,0,0,0,0C-362.7,292.1-362.9,292.4-363.2,292.6
			 M-362.3,290.9c-0.2,0.3-0.4,0.5-0.7,0.6c-0.3,0.2-0.5,0.2-0.7,0.3h0c0,0,0,0,0,0c-0.1-0.5-0.1-1,0.1-1.6c0.1-0.2,0.1-0.3,0.2-0.5
			c0,0,0,0,0,0c0,0,0,0,0,0c0.1,0.4,0.2,0.8,0.2,0.8c0,0.1,0,0.1,0.1,0.1c0.1,0,0.1,0,0.2,0c0.4-0.4,0.7-0.6,1-0.7
			c0.1,0,0.1,0,0.2,0c0,0,0,0,0,0c0,0,0,0,0,0C-361.9,290.3-362,290.6-362.3,290.9 M-361.6,289c-0.2,0.3-0.4,0.5-0.6,0.7
			c-0.3,0.2-0.5,0.3-0.6,0.3c0,0,0,0,0,0c0,0,0,0,0,0c-0.2-0.6-0.2-1.2-0.1-1.6c0-0.2,0.1-0.4,0.2-0.5c0,0,0,0,0,0c0,0,0,0,0,0
			c0.2,0.4,0.2,0.9,0.2,0.9c0,0.1,0.1,0.1,0.1,0.1c0.1,0,0.1,0,0.2-0.1c0.4-0.5,0.8-0.7,1.1-0.8c0,0,0,0,0,0c0,0,0,0,0,0
			C-361.2,288.4-361.4,288.8-361.6,289 M-361.1,287.1c-0.1,0.3-0.3,0.5-0.5,0.7c-0.2,0.2-0.5,0.3-0.6,0.4c0,0,0,0,0,0c0,0,0,0,0,0
			c-0.2-0.4-0.3-1-0.3-1.6c0-0.2,0.1-0.4,0.1-0.6c0,0,0,0,0,0c0,0,0,0,0,0c0.2,0.4,0.3,0.8,0.3,0.9c0,0.1,0.1,0.1,0.1,0.1
			c0.1,0,0.1,0,0.2-0.1c0.3-0.5,0.7-0.8,1-0.9c0,0,0,0,0,0c0,0,0,0,0,0C-360.8,286.5-360.9,286.8-361.1,287.1"/>
		<path id="XMLID_570_" class="st3" d="M-369.6,267.8c0.4,0,0.7,0.1,1.1,0.2l0.1,0c0.2,0,0.6,0.1,1,0.1c0,0,0.1,0,0.1,0
			c-0.2-0.1-0.4-0.2-0.6-0.3c-0.1-0.1-0.2-0.1-0.3-0.2c-0.4-0.2-0.8-0.3-0.9-0.3c-0.1,0-0.1-0.1-0.1-0.1c0-0.1,0-0.1,0.1-0.1
			l1.9-0.3l-1.9-0.3c0,0-0.1,0-0.1-0.1c0,0,0-0.1,0-0.1c0,0,0.3-0.2,0.8-0.3c0.2,0,0.6-0.1,1-0.3c0,0,0.1,0,0.1,0
			c-0.2,0-0.4,0-0.6,0c-0.1,0-0.2,0-0.4,0c-0.5,0-0.8,0.1-0.9,0.1c-0.1,0-0.1,0-0.1-0.1c0-0.1,0-0.1,0-0.1l1.7-1l-1.9,0.5
			c0,0-0.1,0-0.1,0c0,0,0-0.1,0-0.1c0,0,0.2-0.3,0.6-0.6c0.2-0.1,0.5-0.3,0.8-0.6c0,0,0.1,0,0.1-0.1c-0.2,0.1-0.4,0.2-0.6,0.2
			c-0.1,0-0.2,0.1-0.4,0.1c-0.4,0.2-0.8,0.4-0.8,0.4c0,0-0.1,0-0.1,0c0,0,0-0.1,0-0.1l1.2-1.6l-1.6,1.2c0,0-0.1,0-0.1,0
			c0,0-0.1-0.1,0-0.1c0,0,0.1-0.4,0.3-0.7c0.1-0.2,0.3-0.5,0.5-0.9c0,0,0-0.1,0-0.1c-0.1,0.2-0.3,0.3-0.4,0.4
			c-0.1,0.1-0.2,0.2-0.3,0.2c-0.3,0.3-0.5,0.7-0.6,0.7c0,0-0.1,0.1-0.1,0c-0.1,0-0.1-0.1-0.1-0.1l0.5-1.9l-1,1.7
			c0,0-0.1,0.1-0.1,0.1c0,0-0.1,0-0.1-0.1c0,0-0.1-0.4,0-0.8c0-0.2,0.1-0.6,0.1-1c0,0,0-0.1,0-0.1c-0.1,0.2-0.2,0.4-0.3,0.6
			c-0.1,0.1-0.1,0.2-0.2,0.3c-0.2,0.4-0.3,0.8-0.3,0.9c0,0.1-0.1,0.1-0.1,0.1c-0.1,0-0.1,0-0.1-0.1l-0.3-1.9l-0.3,1.9
			c0,0,0,0.1-0.1,0.1c0,0-0.1,0-0.1,0c0,0-0.2-0.3-0.3-0.8c0-0.2-0.1-0.6-0.3-1c0,0,0-0.1,0-0.1c0,0.2,0,0.4,0,0.6
			c0,0.1,0,0.2,0,0.4c0,0.5,0.1,0.9,0.1,0.9c0,0.1,0,0.1-0.1,0.1c-0.1,0-0.1,0-0.1,0l-1-1.7l0.5,1.9c0,0,0,0.1,0,0.1
			c0,0-0.1,0-0.1,0c0,0-0.3-0.2-0.6-0.6c-0.1-0.2-0.3-0.5-0.6-0.8c0,0,0-0.1-0.1-0.1c0.1,0.2,0.2,0.4,0.2,0.6c0,0.1,0.1,0.2,0.1,0.4
			c0.2,0.4,0.4,0.8,0.4,0.8c0,0,0,0.1,0,0.1c0,0-0.1,0-0.1,0l-1.6-1.2l1.2,1.6c0,0,0,0.1,0,0.1s-0.1,0.1-0.1,0c0,0-0.4-0.1-0.7-0.3
			c-0.2-0.1-0.5-0.3-0.9-0.5c0,0-0.1,0-0.1,0c0.2,0.1,0.3,0.3,0.4,0.4c0.1,0.1,0.2,0.2,0.2,0.3c0.3,0.3,0.7,0.6,0.7,0.6
			c0,0,0.1,0.1,0,0.1c0,0.1-0.1,0.1-0.1,0.1l-1.9-0.5l1.7,1c0,0,0.1,0.1,0.1,0.1c0,0,0,0.1-0.1,0.1c0,0-0.4,0.1-0.8,0
			c-0.2,0-0.6-0.1-1-0.1c0,0-0.1,0-0.1,0c0.2,0.1,0.4,0.2,0.6,0.3c0.1,0.1,0.2,0.1,0.3,0.2c0.4,0.2,0.9,0.3,0.9,0.3
			c0.1,0,0.1,0.1,0.1,0.1c0,0.1,0,0.1-0.1,0.1l-1.9,0.3l1.9,0.3c0,0,0.1,0,0.1,0.1c0,0,0,0.1,0,0.1c0,0-0.3,0.2-0.8,0.3
			c-0.2,0-0.6,0.1-1,0.3c0,0-0.1,0-0.1,0c0.2,0,0.4,0,0.6,0c0,0,0.3,0,0.4,0c0.1,0,0.2,0,0.3,0l0,0c0.4-0.3,0.8-0.5,1.4-0.6
			c0.1,0,0.1,0,0.2,0c0,0,0.1,0.1,0.1,0.1c0.1-0.1,0.2-0.1,0.3-0.2c0.4-0.2,0.9-0.3,1.5-0.3c0.1,0,0.1,0,0.2,0.1
			c0,0,0.1,0.1,0.1,0.1c0.2-0.1,0.3-0.1,0.5-0.1c0.4-0.1,0.9-0.1,1.5,0c0.1,0,0.1,0.1,0.2,0.1c0,0,0,0,0,0.1c0.2,0,0.3,0,0.5,0
			c0.4,0,0.9,0.1,1.5,0.3C-369.7,267.6-369.6,267.7-369.6,267.8C-369.6,267.8-369.6,267.8-369.6,267.8"/>
		<path id="XMLID_569_" class="st2" d="M-372.4,265.3c1.9-0.3,2.1,0.2,2.1,0.2s0.1,0.1,0.2,0.1c0,0,0.1,0,0.1-0.2
			c0,0-0.2-0.6-1.2-0.7c0,0-0.5-0.1-1.1,0c-0.2,0-0.2,0.4-0.2,0.4C-372.6,265.4-372.4,265.3-372.4,265.3"/>
		<path id="XMLID_568_" class="st2" d="M-374,265.7c-0.2-0.1-0.8-0.1-0.8-0.1c-0.9,0-1.1,0.6-1.1,0.6c-0.1,0.2,0.1,0.2,0.1,0.2
			c0.2,0,0.2-0.1,0.2-0.1s0-0.2,0.4-0.2c0,0,0,0.1,0,0.2c0,0.2,0.2,0.4,0.4,0.4c0.2,0,0.4-0.2,0.4-0.4c0-0.1,0-0.1,0-0.2
			c0.1,0,0.2,0.1,0.3,0.3c0,0.1,0.1,0.1,0.3,0.1c0.2,0,0.1-0.1,0.1-0.1C-373.7,265.8-374,265.7-374,265.7"/>
		<path id="XMLID_567_" class="st2" d="M-372.4,266.4c0.2,0,0.2,0,0.3-0.1c0.1-0.2,0.2-0.2,0.3-0.3c0,0.1,0,0.1,0,0.2
			c0,0.2,0.2,0.4,0.4,0.4c0.2,0,0.4-0.2,0.4-0.4c0-0.1,0-0.1,0-0.2c0.3,0.1,0.4,0.2,0.4,0.2s0.1,0.1,0.2,0.1c0,0,0.1,0,0.1-0.2
			c0,0-0.2-0.5-1.1-0.6c0,0-0.5,0-0.8,0.1c0,0-0.3,0.1-0.4,0.6C-372.6,266.3-372.6,266.4-372.4,266.4"/>
		<path id="XMLID_566_" class="st2" d="M-376.1,265.7c0.2,0,0.2-0.1,0.2-0.1s0.2-0.5,2.1-0.2c0,0,0.2,0,0.1-0.1c0,0,0-0.4-0.2-0.4
			c-0.6-0.1-1.1,0-1.1,0c-1,0.1-1.2,0.7-1.2,0.7C-376.2,265.7-376.1,265.7-376.1,265.7"/>
		<path id="XMLID_565_" class="st4" d="M-364.8,295.1c-0.3,0-0.8,0-1.3,0.2c-0.1,0-0.1,0-0.2,0c0,0-0.1-0.1,0-0.2
			c0,0,0.2-0.4,0.2-0.8c0,0,0,0,0,0c0,0,0,0,0,0c-0.2,0.1-0.3,0.3-0.4,0.4c-0.4,0.5-0.6,0.9-0.6,1.4c0,0,0,0,0,0c0.1,0,0.1,0,0.3,0
			c0.1,0,0.2,0,0.4,0C-366.1,296-365.5,295.8-364.8,295.1C-364.8,295.1-364.8,295.1-364.8,295.1
			C-364.8,295.1-364.8,295.1-364.8,295.1"/>
		<path id="XMLID_564_" class="st4" d="M-380,294.2C-380,294.2-380.1,294.2-380,294.2C-380.1,294.2-380.1,294.2-380,294.2
			c0,0.4,0.2,0.8,0.2,0.8c0,0.1,0,0.1,0,0.2c0,0-0.1,0.1-0.2,0c-0.5-0.2-1-0.2-1.3-0.2c0,0,0,0,0,0c0,0,0,0,0,0
			c0.6,0.5,1.1,0.8,1.7,1c0.1,0,0.3,0,0.4,0c0.1,0,0.2,0,0.3,0c0,0,0,0,0,0C-379,295.2-379.7,294.6-380,294.2"/>
		<path id="XMLID_563_" class="st4" d="M-363.5,293.5c-0.3,0-0.8,0.1-1.3,0.4c-0.1,0-0.1,0-0.2,0c-0.1,0-0.1-0.1-0.1-0.2
			c0,0,0.1-0.4,0-0.9c0,0,0,0,0,0c0,0,0,0,0,0c-0.1,0.1-0.2,0.3-0.3,0.4c-0.3,0.5-0.5,1-0.4,1.5c0,0,0,0,0,0c0,0,0,0,0.1,0
			c0.1,0,0.4,0,0.6-0.1c0.3-0.1,0.6-0.2,0.8-0.4C-364,294.1-363.8,293.8-363.5,293.5C-363.5,293.5-363.5,293.5-363.5,293.5
			C-363.5,293.5-363.5,293.5-363.5,293.5"/>
		<path id="XMLID_562_" class="st4" d="M-362.5,291.8c-0.3,0.1-0.7,0.2-1.2,0.6c-0.1,0-0.1,0-0.2,0c-0.1,0-0.1-0.1-0.1-0.2
			c0,0,0-0.4,0-0.9c0,0,0,0,0,0c0,0,0,0,0,0c-0.1,0.2-0.2,0.3-0.3,0.5c-0.3,0.5-0.4,1-0.3,1.5c0,0,0,0,0,0h0c0.1,0,0.4,0,0.7-0.2
			c0.3-0.1,0.5-0.3,0.8-0.5C-362.9,292.4-362.7,292.1-362.5,291.8C-362.5,291.8-362.5,291.8-362.5,291.8
			C-362.5,291.8-362.5,291.8-362.5,291.8"/>
		<path id="XMLID_561_" class="st4" d="M-361.7,289.9c-0.1,0-0.1,0-0.2,0.1c-0.2,0.1-0.6,0.3-1,0.7c0,0-0.1,0.1-0.2,0
			c-0.1,0-0.1-0.1-0.1-0.1c0,0,0-0.4-0.2-0.8c0,0,0,0,0,0c0,0,0,0,0,0c-0.1,0.2-0.2,0.3-0.2,0.5c-0.2,0.5-0.2,1.1-0.1,1.6
			c0,0,0,0,0,0l0,0c0.1,0,0.4-0.1,0.7-0.3c0.3-0.2,0.5-0.4,0.7-0.6C-362,290.6-361.9,290.3-361.7,289.9
			C-361.7,289.9-361.7,289.9-361.7,289.9C-361.7,289.9-361.7,289.9-361.7,289.9"/>
		<path id="XMLID_560_" class="st4" d="M-361.1,288.1c-0.3,0.1-0.7,0.3-1.1,0.8c0,0.1-0.1,0.1-0.2,0.1c-0.1,0-0.1-0.1-0.1-0.1
			c0,0-0.1-0.5-0.2-0.9c0,0,0,0,0,0c0,0,0,0,0,0c-0.1,0.2-0.1,0.4-0.2,0.5c-0.1,0.4-0.2,1,0.1,1.6c0,0,0,0,0,0c0,0,0,0,0,0
			c0.1,0,0.4-0.1,0.6-0.3c0.2-0.2,0.5-0.4,0.6-0.7C-361.4,288.8-361.2,288.4-361.1,288.1C-361.1,288.1-361.1,288.1-361.1,288.1
			C-361.1,288.1-361.1,288.1-361.1,288.1"/>
		<path id="XMLID_559_" class="st4" d="M-360.7,286.1c-0.3,0.1-0.6,0.4-1,0.9c0,0.1-0.1,0.1-0.2,0.1s-0.1-0.1-0.1-0.1
			c0,0-0.1-0.5-0.3-0.9c0,0,0,0,0,0c0,0,0,0,0,0c-0.1,0.2-0.1,0.4-0.1,0.6c-0.1,0.6,0,1.1,0.3,1.6c0,0,0,0,0,0c0,0,0,0,0,0
			c0.1,0,0.3-0.2,0.6-0.4c0.2-0.2,0.4-0.5,0.5-0.7C-360.9,286.8-360.8,286.5-360.7,286.1C-360.7,286.1-360.7,286.1-360.7,286.1
			C-360.7,286.1-360.7,286.1-360.7,286.1"/>
		<path id="XMLID_558_" class="st4" d="M-361.4,285.2c0,0.1-0.1,0.1-0.2,0.1c-0.1,0-0.1,0-0.1-0.1c0,0-0.2-0.4-0.4-0.8c0,0,0,0,0,0
			c0,0,0,0,0,0c0,0.2-0.1,0.4-0.1,0.6c0,0.6,0.1,1.1,0.4,1.5c0,0,0,0,0,0c0,0,0,0,0,0c0.1,0,0.3-0.2,0.5-0.5
			c0.2-0.2,0.3-0.5,0.5-0.8c0.1-0.3,0.2-0.7,0.2-1c0,0,0,0,0,0c0,0,0,0,0,0C-360.8,284.3-361.2,284.6-361.4,285.2"/>
		<path id="XMLID_557_" class="st4" d="M-361.5,283.4c-0.1,0-0.1,0-0.2-0.1c0,0-0.2-0.4-0.5-0.7c0,0,0,0,0,0s0,0,0,0
			c0,0.5,0,1.4,0.6,2c0,0,0,0,0,0c0,0,0,0,0,0c0.1-0.1,0.3-0.2,0.5-0.5c0.2-0.2,0.3-0.5,0.4-0.8c0.1-0.3,0.1-0.7,0.1-1c0,0,0,0,0,0
			c0,0,0,0,0,0c-0.2,0.2-0.5,0.5-0.7,1.1C-361.4,283.3-361.4,283.4-361.5,283.4"/>
		<path id="XMLID_556_" class="st4" d="M-361.6,281.5c-0.1,0-0.1,0-0.2-0.1c0,0-0.2-0.4-0.5-0.6c0,0,0,0,0,0c0,0,0,0,0,0
			c0,0.5,0.2,1.5,0.7,1.9c0,0,0,0,0,0c0,0,0,0,0,0c0.1-0.1,0.3-0.2,0.5-0.6c0.1-0.3,0.2-0.6,0.3-0.9c0-0.3,0-0.7,0-1c0,0,0,0,0,0
			c0,0,0,0,0,0c-0.2,0.2-0.5,0.6-0.6,1.2C-361.5,281.4-361.5,281.4-361.6,281.5"/>
		<path id="XMLID_555_" class="st4" d="M-361.8,279.6c-0.1,0-0.1,0-0.2-0.1c0,0-0.3-0.4-0.6-0.6c0,0,0,0,0,0c0,0,0,0,0,0
			c0,0.2,0.1,0.4,0.1,0.6c0.1,0.4,0.3,1,0.8,1.3c0,0,0,0,0,0c0,0,0,0,0,0c0.1-0.1,0.3-0.3,0.4-0.6c0.1-0.3,0.2-0.6,0.2-0.9
			c0-0.3,0-0.7,0-1c0,0,0,0,0,0c0,0,0,0,0,0c-0.2,0.2-0.5,0.6-0.6,1.2C-361.7,279.5-361.8,279.6-361.8,279.6"/>
		<path id="XMLID_554_" class="st4" d="M-362.2,277.8c-0.1,0-0.1,0-0.2,0c0,0-0.3-0.3-0.7-0.5c0,0,0,0,0,0c0,0,0,0,0,0
			c0,0.2,0.1,0.4,0.2,0.5c0.2,0.6,0.5,1,0.9,1.2c0,0,0,0,0,0c0,0,0,0,0,0c0.1-0.1,0.2-0.3,0.3-0.6c0.1-0.3,0.1-0.6,0.1-0.9
			c0-0.3-0.1-0.7-0.2-1c0,0,0,0,0,0c0,0,0,0,0,0c-0.2,0.3-0.4,0.7-0.4,1.3C-362.1,277.7-362.2,277.7-362.2,277.8"/>
		<path id="XMLID_553_" class="st4" d="M-363.1,275.9c0,0-0.3-0.3-0.7-0.5c0,0,0,0,0,0s0,0,0,0c0.1,0.2,0.1,0.4,0.2,0.5
			c0.3,0.5,0.6,0.9,1.1,1.1c0,0,0,0,0,0c0,0,0,0,0,0c0.1-0.1,0.2-0.3,0.3-0.7c0.1-0.3,0.1-0.6,0-0.9c0-0.3-0.1-0.7-0.3-1
			c0,0,0,0,0,0c0,0,0,0,0,0c-0.1,0.3-0.3,0.7-0.3,1.3c0,0.1,0,0.1-0.1,0.2C-362.9,276-363,276-363.1,275.9"/>
		<path id="XMLID_552_" class="st4" d="M-364.7,273.9C-364.7,273.9-364.7,273.9-364.7,273.9c0.1,0.2,0.2,0.4,0.3,0.5
			c0.3,0.5,0.7,0.8,1.2,1c0,0,0,0,0,0c0,0,0,0,0,0c0-0.1,0.2-0.3,0.2-0.7c0-0.3,0-0.6-0.1-0.9c-0.1-0.3-0.2-0.6-0.4-1c0,0,0,0,0,0
			s0,0,0,0c-0.1,0.3-0.2,0.7-0.1,1.3c0,0.1,0,0.1-0.1,0.2c-0.1,0-0.1,0-0.2,0C-363.9,274.3-364.3,274-364.7,273.9
			C-364.7,273.8-364.7,273.8-364.7,273.9"/>
		<path id="XMLID_551_" class="st4" d="M-365.8,272.4C-365.8,272.4-365.8,272.4-365.8,272.4c0.1,0.2,0.2,0.3,0.4,0.5
			c0.4,0.4,0.9,0.7,1.3,0.8h0c0,0,0,0,0,0c0-0.1,0.1-0.4,0.1-0.7c0-0.3-0.1-0.6-0.2-0.9c-0.1-0.3-0.3-0.6-0.6-0.9c0,0,0,0,0,0
			c0,0,0,0,0,0c0,0.3-0.1,0.8,0.1,1.3c0,0.1,0,0.1-0.1,0.2c-0.1,0-0.1,0-0.2,0C-364.9,272.7-365.3,272.4-365.8,272.4
			C-365.8,272.4-365.8,272.4-365.8,272.4"/>
		<path id="XMLID_550_" class="st4" d="M-366,271.3c0,0.1-0.1,0.1-0.2,0c0,0-0.4-0.1-0.8-0.1c0,0,0,0-0.1,0c0,0,0,0,0,0c0,0,0,0,0,0
			c0.1,0.2,0.3,0.3,0.5,0.4c0.3,0.3,0.8,0.5,1.4,0.5c0,0,0,0,0,0c0,0,0,0,0,0c0-0.1,0-0.4,0-0.7c-0.1-0.3-0.2-0.6-0.4-0.9
			c-0.2-0.3-0.4-0.5-0.7-0.8c0,0,0,0,0,0c0,0,0,0,0,0c0,0.3,0,0.8,0.3,1.3C-365.9,271.1-365.9,271.2-366,271.3"/>
		<path id="XMLID_549_" class="st4" d="M-380.4,294.8C-380.4,294.8-380.4,294.8-380.4,294.8C-380.4,294.8-380.4,294.8-380.4,294.8
			c0.1-0.8-0.4-1.6-0.7-1.9c0,0,0,0,0,0c0,0,0,0,0,0c0,0.4,0.1,0.8,0.1,0.8c0,0.1,0,0.1-0.1,0.2c-0.1,0-0.1,0-0.2,0
			c-0.5-0.3-1-0.4-1.3-0.4c0,0,0,0,0,0c0,0,0,0,0,0c0.2,0.3,0.5,0.6,0.7,0.8c0.3,0.2,0.5,0.4,0.8,0.4
			C-380.8,294.8-380.6,294.8-380.4,294.8"/>
		<path id="XMLID_548_" class="st4" d="M-381.5,293.3L-381.5,293.3C-381.5,293.3-381.5,293.3-381.5,293.3c0.1-0.6-0.1-1.1-0.3-1.5
			c-0.1-0.2-0.2-0.3-0.3-0.5c0,0,0,0,0,0c0,0,0,0,0,0c-0.1,0.4,0,0.8,0,0.8c0,0.1,0,0.1-0.1,0.2c-0.1,0-0.1,0-0.2,0
			c-0.5-0.4-0.9-0.5-1.2-0.6c0,0,0,0,0,0c0,0,0,0,0,0c0.2,0.3,0.4,0.6,0.6,0.8c0.2,0.2,0.5,0.4,0.8,0.5
			C-381.9,293.3-381.7,293.3-381.5,293.3"/>
		<path id="XMLID_547_" class="st4" d="M-382.5,291.8L-382.5,291.8C-382.5,291.8-382.5,291.8-382.5,291.8c0.2-0.5,0.1-1-0.1-1.6
			c-0.1-0.2-0.1-0.3-0.2-0.5c0,0,0,0,0,0c0,0,0,0,0,0c-0.1,0.4-0.1,0.9-0.1,0.9c0,0.1,0,0.1-0.1,0.1c-0.1,0-0.1,0-0.2,0
			c-0.4-0.4-0.7-0.5-1-0.6c-0.1,0-0.1,0-0.2-0.1c0,0,0,0,0,0c0,0,0,0,0,0c0.2,0.3,0.3,0.6,0.5,0.9c0.2,0.3,0.4,0.5,0.7,0.6
			C-382.9,291.7-382.6,291.8-382.5,291.8"/>
		<path id="XMLID_546_" class="st4" d="M-383.4,290.1C-383.4,290.1-383.4,290.1-383.4,290.1C-383.3,290.1-383.3,290.1-383.4,290.1
			c0.4-0.8,0.1-1.7-0.1-2.1c0,0,0,0,0,0h0c0,0,0,0,0,0c-0.2,0.4-0.3,0.8-0.3,0.8c0,0.1-0.1,0.1-0.1,0.1c-0.1,0-0.1,0-0.2-0.1
			c-0.3-0.4-0.7-0.6-0.9-0.7c-0.1,0-0.1-0.1-0.2-0.1c0,0,0,0,0,0c0,0,0,0,0,0C-384.6,289.6-383.7,290-383.4,290.1"/>
		<path id="XMLID_545_" class="st4" d="M-384.6,287.9c0.3,0.2,0.5,0.3,0.6,0.4c0,0,0,0,0,0c0,0,0,0,0,0c0.3-0.5,0.4-1.1,0.3-1.6
			c0-0.2-0.1-0.4-0.2-0.5c0,0,0,0,0,0c0,0,0,0,0,0c-0.2,0.4-0.3,0.8-0.3,0.9l0,0l0,0c0,0.1-0.1,0.1-0.1,0.1c-0.1,0-0.1,0-0.2-0.1
			c-0.3-0.5-0.7-0.7-1-0.9c0,0,0,0,0,0c0,0,0,0,0,0c0.1,0.4,0.2,0.7,0.4,1C-385,287.5-384.8,287.7-384.6,287.9"/>
		<path id="XMLID_544_" class="st4" d="M-384.5,286.5C-384.5,286.5-384.5,286.5-384.5,286.5C-384.5,286.5-384.5,286.5-384.5,286.5
			c0.6-0.8,0.6-1.6,0.5-2.1c0,0,0,0,0,0c0,0,0,0,0,0c-0.3,0.3-0.5,0.8-0.5,0.8c0,0.1-0.1,0.1-0.1,0.1h0c-0.1,0-0.1,0-0.1-0.1
			c-0.2-0.5-0.5-0.8-0.7-0.9c0,0-0.1-0.1-0.1-0.1c0,0,0,0,0,0s0,0,0,0C-385.5,285.7-384.8,286.3-384.5,286.5"/>
		<path id="XMLID_543_" class="st4" d="M-384.6,284.6C-384.6,284.6-384.6,284.6-384.6,284.6C-384.6,284.6-384.6,284.6-384.6,284.6
			c0.3-0.3,0.5-0.7,0.6-1.1c0.1-0.4,0-0.7,0-1c0,0,0,0,0,0s0,0,0,0c-0.3,0.3-0.4,0.7-0.4,0.7c0,0.1-0.1,0.1-0.1,0.1
			c-0.1,0-0.1,0-0.2-0.1c-0.2-0.5-0.4-0.8-0.6-1c0,0-0.1-0.1-0.1-0.1c0,0,0,0,0,0c0,0,0,0,0,0C-385.6,283.7-384.9,284.4-384.6,284.6
			"/>
		<path id="XMLID_542_" class="st4" d="M-385.1,282.1c0.2,0.3,0.4,0.5,0.4,0.6c0,0,0,0,0,0c0,0,0,0,0,0c0.4-0.3,0.6-0.8,0.7-1.4
			c0-0.2,0-0.4,0-0.6c0,0,0,0,0,0c0,0,0,0,0,0c-0.3,0.3-0.5,0.7-0.5,0.7c0,0.1-0.1,0.1-0.2,0.1c-0.1,0-0.1-0.1-0.1-0.1
			c-0.1-0.6-0.4-0.9-0.6-1.2c0,0,0,0,0,0s0,0,0,0c0,0.4,0,0.7,0,1C-385.3,281.6-385.2,281.9-385.1,282.1"/>
		<path id="XMLID_541_" class="st4" d="M-384.9,280.2c0.1,0.3,0.3,0.5,0.4,0.6c0,0,0,0,0,0c0,0,0,0,0,0c0.4-0.4,0.7-0.8,0.8-1.4
			c0-0.2,0.1-0.3,0.1-0.5c0,0,0,0,0,0c0,0,0,0,0,0c-0.3,0.3-0.6,0.6-0.6,0.6c0,0.1-0.1,0.1-0.2,0.1c-0.1,0-0.1-0.1-0.1-0.1
			c-0.1-0.6-0.4-1-0.6-1.2c0,0,0,0,0,0c0,0,0,0,0,0c-0.1,0.4-0.1,0.7,0,1C-385.1,279.6-385,279.9-384.9,280.2"/>
		<path id="XMLID_540_" class="st4" d="M-384.2,278.9C-384.2,278.9-384.2,278.9-384.2,278.9C-384.2,278.9-384.2,278.9-384.2,278.9
			c0.5-0.3,0.8-0.7,1-1.3c0.1-0.2,0.1-0.3,0.1-0.5c0,0,0,0,0,0c0,0,0,0,0,0c-0.4,0.2-0.7,0.6-0.7,0.6c0,0.1-0.1,0.1-0.2,0.1
			c-0.1,0-0.1-0.1-0.1-0.1c0-0.6-0.3-1-0.4-1.2c0,0,0,0,0,0c0,0,0,0,0,0c-0.1,0.4-0.2,0.7-0.2,1c0,0.3,0,0.6,0.1,0.9
			C-384.4,278.6-384.3,278.8-384.2,278.9"/>
		<path id="XMLID_539_" class="st4" d="M-383.7,277.1C-383.7,277.1-383.7,277.1-383.7,277.1C-383.7,277.1-383.7,277.1-383.7,277.1
			c0.5-0.3,0.9-0.6,1.2-1.2c0.1-0.2,0.1-0.3,0.2-0.5c0,0,0,0,0,0c0,0,0,0,0,0c-0.4,0.2-0.8,0.5-0.8,0.5c0,0-0.1,0.1-0.2,0
			c-0.1,0-0.1-0.1-0.1-0.2c0-0.6-0.1-1-0.3-1.3c0,0,0,0,0,0c0,0,0,0,0,0c-0.2,0.3-0.3,0.7-0.3,1c0,0.3,0,0.6,0,0.9
			C-383.9,276.8-383.8,277-383.7,277.1"/>
		<path id="XMLID_538_" class="st4" d="M-383,275.4C-383,275.4-383,275.4-383,275.4C-383,275.4-383,275.4-383,275.4
			c0.5-0.1,0.9-0.4,1.3-0.9c0.2-0.2,0.3-0.4,0.3-0.5c0,0,0,0,0,0c0,0,0,0,0,0c-0.5,0.1-0.8,0.4-0.8,0.4c-0.1,0.1-0.1,0.1-0.2,0
			c-0.1,0-0.1-0.1-0.1-0.2c0.1-0.6,0-1-0.1-1.3c0,0,0,0,0,0c0,0,0,0,0,0c-0.2,0.3-0.4,0.6-0.5,0.9c-0.1,0.3-0.1,0.6-0.1,0.9
			C-383.2,275-383.1,275.3-383,275.4"/>
		<path id="XMLID_537_" class="st4" d="M-382.1,273.7C-382.1,273.7-382.1,273.7-382.1,273.7c0.8-0.1,1.4-0.8,1.7-1.3c0,0,0,0,0,0
			c0,0,0,0,0,0c-0.5,0-0.8,0.3-0.8,0.3c-0.1,0-0.1,0-0.2,0c-0.1,0-0.1-0.1-0.1-0.2c0.2-0.6,0.2-1,0.1-1.3c0,0,0,0,0,0s0,0,0,0
			C-382.4,272.4-382.2,273.3-382.1,273.7C-382.1,273.7-382.1,273.7-382.1,273.7"/>
		<path id="XMLID_536_" class="st4" d="M-381,272.2C-381,272.2-380.9,272.2-381,272.2c0.5,0,1-0.3,1.3-0.6c0.2-0.1,0.3-0.3,0.5-0.4
			c0,0,0,0,0,0c0,0,0,0,0,0c-0.4,0-0.8,0.1-0.8,0.1c-0.1,0-0.1,0-0.2,0c0-0.1-0.1-0.1,0-0.2c0.3-0.5,0.3-1,0.3-1.3c0,0,0,0,0,0
			c0,0,0,0,0,0c-0.3,0.3-0.5,0.5-0.7,0.8c-0.2,0.3-0.3,0.6-0.4,0.8C-381,271.8-381,272-381,272.2C-381,272.1-381,272.2-381,272.2"/>
		<path id="XMLID_535_" class="st4" d="M-377.7,270.1c-0.4,0-0.8,0.1-0.8,0.1c-0.1,0-0.1,0-0.2-0.1c0-0.1,0-0.1,0-0.2
			c0.3-0.5,0.4-0.9,0.4-1.2c0,0,0,0,0,0c0,0,0,0,0,0c-1.3,0.9-1.3,1.9-1.3,2.2c0,0,0,0,0,0c0,0,0.1,0,0.1,0
			C-378.8,270.8-378.1,270.4-377.7,270.1C-377.7,270.1-377.7,270.1-377.7,270.1C-377.7,270.1-377.7,270.1-377.7,270.1"/>
		<path id="XMLID_534_" class="st4" d="M-376.1,269.3c-0.1,0-0.3-0.1-0.4-0.1c-0.2,0-0.4,0-0.4,0l0,0c-0.1,0-0.1,0-0.2-0.1
			c0-0.1,0-0.1,0-0.2c0.4-0.4,0.6-0.7,0.7-0.9c0,0,0,0,0,0c0,0,0,0,0,0c-1.5,0.5-1.8,1.3-1.9,1.7c0,0,0,0,0,0c0.1,0,0.3,0.1,0.6,0.1
			c0.3,0,0.6,0,1-0.2C-376.4,269.5-376.3,269.4-376.1,269.3C-376.1,269.3-376.1,269.3-376.1,269.3
			C-376.1,269.3-376.1,269.3-376.1,269.3"/>
		<path id="XMLID_533_" class="st4" d="M-374.3,268.8c-0.4-0.2-0.8-0.3-0.8-0.3c-0.1,0-0.1-0.1-0.1-0.1c0-0.1,0-0.1,0.1-0.2
			c0.5-0.2,0.7-0.5,0.8-0.6c0,0,0,0,0,0c0,0,0,0,0,0c-0.7,0.1-1.3,0.4-1.7,0.7c-0.2,0.2-0.3,0.4-0.3,0.5c0,0,0,0,0,0
			c0.3,0.2,0.7,0.2,1,0.2c0.2,0,0.4,0,0.6-0.1C-374.7,268.9-374.5,268.9-374.3,268.8C-374.3,268.8-374.3,268.8-374.3,268.8
			C-374.3,268.8-374.3,268.8-374.3,268.8"/>
		<path id="XMLID_532_" class="st4" d="M-373.2,268.3c-0.1,0-0.1-0.1-0.1-0.2c0-0.1,0-0.1,0.1-0.2c0.5-0.1,0.8-0.3,0.9-0.5
			c0,0,0,0,0,0c0,0,0,0,0,0c-0.7,0-1.4,0.1-1.8,0.4c-0.2,0.1-0.4,0.3-0.4,0.4c0,0,0,0,0,0c0.5,0.4,1.1,0.5,1.6,0.5
			c0.2,0,0.3,0,0.4,0c0,0,0,0,0,0s0,0,0,0C-372.8,268.5-373.2,268.3-373.2,268.3"/>
		<path id="XMLID_531_" class="st4" d="M-371.3,268.4c-0.1,0-0.1-0.1-0.1-0.2c0-0.1,0.1-0.1,0.1-0.1c0.5-0.1,0.8-0.2,1-0.3
			c0,0,0,0,0,0c0,0,0,0,0,0c-0.7-0.2-1.3-0.2-1.8,0c-0.3,0.1-0.4,0.2-0.5,0.3c0,0,0,0,0,0c0.6,0.7,1.5,0.9,1.9,0.9h0c0,0,0,0,0,0
			s0,0,0,0C-370.9,268.7-371.3,268.4-371.3,268.4"/>
		<path id="XMLID_530_" class="st4" d="M-366.5,270.8C-366.5,270.8-366.5,270.8-366.5,270.8c0-0.2,0-0.5-0.1-0.8
			c-0.2-0.6-0.7-1-1.3-1.2c0,0,0,0,0,0c0,0,0,0,0,0c0.1,0.3,0.3,0.6,0.5,1c0,0.1,0,0.1,0,0.2c0,0.1-0.1,0.1-0.2,0.1
			c0,0-0.4-0.1-0.8,0c0,0,0,0,0,0c0,0,0,0,0,0C-368,270.4-367.3,270.8-366.5,270.8C-366.6,270.8-366.5,270.8-366.5,270.8"/>
		<path id="XMLID_529_" class="st4" d="M-368,269.7C-368,269.6-368,269.6-368,269.7c-0.4-0.4-0.8-0.6-1.4-0.5c-0.2,0-0.4,0-0.6,0.1
			c0,0,0,0,0,0c0,0,0,0,0,0c0.4,0.3,0.9,0.5,1.4,0.5c0,0,0.1,0,0.1,0C-368.3,269.7-368.1,269.7-368,269.7
			C-368,269.7-368,269.7-368,269.7"/>
		<path id="XMLID_528_" class="st4" d="M-370.7,268.5C-370.7,268.5-370.7,268.5-370.7,268.5c0.3,0.2,0.6,0.3,1,0.3
			c0.2,0,0.3,0,0.5-0.1c0.3-0.1,0.6-0.1,0.7-0.2c0,0,0,0,0,0c0,0,0,0,0,0c-0.3-0.1-0.5-0.2-0.8-0.3c-0.3,0-0.6,0-0.9,0
			C-370.4,268.3-370.6,268.4-370.7,268.5C-370.7,268.5-370.7,268.5-370.7,268.5"/>
		<path id="XMLID_527_" class="st5" d="M-376.2,279.1c0.1,0.1,0.2,0.2,0.5,0.2h2.1C-374.9,278.5-375.3,278.7-376.2,279.1
			C-376.2,279.1-376.2,279.1-376.2,279.1"/>
		<path id="XMLID_526_" class="st5" d="M-371,278.2c-0.2-0.1-0.4-0.1-0.6-0.2c-0.7-0.3-1.2-0.7-1.2-0.7c-0.1-0.1-0.2-0.3-0.1-0.4
			c0.1-0.1,0.3-0.2,0.4-0.1c0,0,0.5,0.4,1.1,0.6c0.1,0.1,0.3,0.1,0.5,0.1c0.3,0.1,0.6,0.2,0.9,0.3c-0.1-0.4-0.1-0.6-0.2-0.9
			c-0.9-0.2-1.6-0.8-1.6-0.8c-0.1-0.1-0.1-0.1-0.1-0.2c0-0.1,0-0.2,0.1-0.2c0.1-0.1,0.3-0.2,0.4,0c0,0,0.5,0.4,1,0.6
			c-0.2-0.8-0.5-1.6-0.9-2.4c-0.3-0.6-0.7-0.9-1.3-1.1c-0.4-0.1-0.7-0.1-0.7-0.1c0,0,0,0,0,0c0,0-1,0-1.7,0.8c0,0,0,0,0,0
			c-0.1,0.1-0.4,0.5-0.5,0.8c0,0.2,0,0.3,0.1,0.3c0,0,0.2,0.1,0.5-0.1c0.1-0.1,0.1-0.1,0.1-0.1c0.1-0.1,0.3-0.1,0.4,0.1
			c0.1,0.1,0.1,0.3,0,0.4c0,0-0.1,0.1-0.1,0.1c-0.1,0.1-0.4,0.4-0.7,0.7c-0.4,0.5-0.9,1.4-1.2,2.7c0,0,0,0.1,0,0.1
			c0.9-0.4,1.6-0.5,3.2,0.5c0.6,0.4,1.3,0.4,1.5,0.4h0.7c0,0,0,0,0,0c0.2,0,0.7,0,0.9-0.3c0,0,0.1-0.1,0.1-0.2
			C-369.9,278.5-370.3,278.4-371,278.2"/>
		<path id="XMLID_525_" class="st6" d="M-374,290.3c0.1-0.1,0.2-0.2,0.2-0.2c0,0,0-0.1-0.1-0.1c-0.1-0.1-0.1-0.1-0.2-0.1
			c-0.2,0-0.3,0.1-0.6,0.3c-0.2,0.1-0.5,0.4-0.4,0.6c0,0.1,0,0.1,0.1,0.2c0.1,0.1,0.4,0.1,0.5,0C-374.5,290.7-374.3,290.5-374,290.3
			"/>
		<path id="XMLID_524_" class="st6" d="M-373,290.7c0,0,0-0.1-0.1-0.2c0,0-0.1-0.1-0.4,0.1c-0.2,0.1-0.5,0.3-0.6,0.5
			c0.1,0.1,0.1,0.1,0.2,0.1c0.3,0.1,0.6-0.2,0.7-0.3c0,0,0,0,0,0C-373.1,290.9-373,290.8-373,290.7"/>
		<path id="XMLID_523_" class="st6" d="M-376.3,289.2C-376.3,289.2-376.3,289.2-376.3,289.2c-0.3,0-0.6,0.2-0.8,0.3
			c-0.1,0.1-0.1,0.2-0.1,0.2c0,0,0.1,0.1,0.3,0.1c0,0,0.1,0,0.1,0c0.1-0.3,0.2-0.4,0.4-0.6c0,0,0.1-0.1,0.1-0.1
			C-376.2,289.2-376.2,289.2-376.3,289.2C-376.2,289.2-376.3,289.2-376.3,289.2"/>
		<path id="XMLID_522_" class="st6" d="M-376.2,290.2c0,0.1,0,0.2,0.3,0.3c0,0,0.1,0,0.1,0c0.1-0.3,0.3-0.5,0.6-0.8
			c0,0,0.1-0.1,0.2-0.1c0,0,0,0,0-0.1c0,0-0.1-0.1-0.2-0.1c-0.1,0-0.1,0-0.2,0c-0.2,0-0.4,0.1-0.6,0.3
			C-376.1,289.9-376.2,290-376.2,290.2"/>
		<path id="XMLID_521_" class="st6" d="M-369.5,289.7c0.2,0,0.3,0,0.4-0.1c0.1-0.1,0.1-0.2,0.1-0.2c-0.2-0.2-0.7-0.8-1.4-1.3
			c-0.3-0.2-0.6-0.4-1-0.5c-0.4-0.1-0.7-0.2-1-0.1c0,0,0,0,0,0c-0.1,0-0.2,0.1-0.3,0.2c-0.1,0.1-0.2,0.1-0.3,0.2
			c-0.3,0.2-0.8,0.3-1.1,0.3c-0.3,0-0.7,0-1-0.3c-0.2-0.2-0.2-0.4-0.1-0.7c0.1-0.2,0.3-0.3,0.7-0.5c0.1-0.1,0.3-0.1,0.4-0.2
			c0.1-0.1,0.2-0.2,0.4-0.3c0.1-0.1,0.2-0.2,0.5-0.4c0.1-0.1,0.2-0.1,0.3-0.2c-0.1,0-0.2,0-0.3,0c-0.5,0-0.9,0.1-1.4,0.5
			c-0.5,0.3-1.4,0.6-2.8,0.9c-1.3,0.3-3.2,0.5-5.5,0.8c0.1,0.3,0.1,0.5,0.2,0.8c0.3,0.9,0.7,1.8,1.1,2.6c0.8-0.4,2.8-1.3,4.4-2.1
			c0.3-0.3,0.8-0.5,1.1-0.4c0.1,0,0.4,0,0.6,0.2c0.3-0.1,0.5-0.1,0.7,0.1c0.3,0.1,0.4,0.3,0.4,0.4v0c0.3-0.1,0.6,0,0.9,0.2
			c0.2,0.1,0.2,0.3,0.3,0.5c0.3,0,0.5,0.1,0.7,0.2c0.2,0.2,0.3,0.5,0.2,0.6c0,0.1-0.1,0.2-0.1,0.3c0.2,0,0.3,0,0.4-0.1
			c0,0,0.1,0,0.1-0.1c-0.1-0.1-0.2-0.3-0.4-0.5c0-0.1-0.1-0.1-0.1-0.2c0-0.1,0-0.1,0.1-0.2c0.1-0.1,0.3-0.1,0.4,0
			c0.3,0.3,0.4,0.6,0.5,0.8c0.1,0,0.3,0,0.4-0.1c0.1-0.1,0.1-0.1,0.1-0.2c0-0.1-0.1-0.2-0.3-0.4c-0.2-0.2-0.5-0.4-0.6-0.5
			c-0.1,0-0.1-0.1-0.1-0.2c0-0.1,0-0.1,0-0.2s0.1-0.1,0.2-0.1c0.1,0,0.1,0,0.2,0c0,0,0.5,0.3,0.7,0.6c0.2,0.2,0.3,0.4,0.4,0.5
			c0.2,0,0.3-0.1,0.4-0.2c0,0,0.1-0.1,0.1-0.1c-0.2-0.3-0.7-0.9-1.4-1.2c-0.1,0-0.1-0.1-0.1-0.2c0-0.1,0-0.1,0-0.2
			c0-0.1,0.1-0.1,0.2-0.1c0.1,0,0.1,0,0.2,0C-370.3,288.6-369.7,289.4-369.5,289.7"/>
		<path id="XMLID_520_" class="st6" d="M-373,287.1c0.2-0.1,0.3-0.2,0.5-0.3c0.9-0.2,1.8,0.4,2.3,0.7c0.7,0.4,1.2,1,1.4,1.3
			c0,0,0,0,0,0l0,0c0,0,0,0,0,0c0.1,0.1,0.2,0.3,0.5,0.4c1.2,0.9,2.9,1.6,3.6,1.9c0.4-0.8,0.8-1.7,1.1-2.7c0.1-0.2,0.1-0.5,0.2-0.7
			c-1.4-0.1-3-0.4-4-0.7c-1.2-0.3-2.1-0.6-2.1-0.6c-0.2-0.1-0.5-0.2-0.7-0.2c-0.7-0.2-1.1-0.4-1.6-0.4c-0.1,0-0.1,0-0.2,0
			c-0.1,0-0.1,0-0.2,0h0c-0.4,0-0.7,0-1,0.2c-0.2,0.1-0.3,0.2-0.4,0.3c-0.1,0.1-0.2,0.2-0.4,0.3c-0.1,0.1-0.3,0.2-0.4,0.2
			c-0.1,0.1-0.3,0.2-0.4,0.2c0,0,0,0.1,0,0.1c0.1,0.1,0.2,0.1,0.5,0.1c0.2,0,0.6-0.1,0.9-0.3C-373.1,287.2-373.1,287.2-373,287.1"/>
		<path id="XMLID_517_" class="st7" d="M-346.1,291.8l-0.7-2.2c0-0.1-0.1-0.1-0.2-0.1h-3c-0.1,0-0.1,0.1-0.2,0.1l-0.7,2.2
			c0,0.1-0.1,0.1-0.2,0.1h-1.1c-0.1,0-0.2-0.1-0.2-0.2l2.7-8c0-0.1,0.1-0.1,0.2-0.1h1.9c0.1,0,0.1,0,0.2,0.1l2.7,8
			c0,0.1,0,0.2-0.2,0.2h-1.1C-346,292-346.1,291.9-346.1,291.8 M-349.5,288.3h2c0.1,0,0.2-0.1,0.2-0.2l-1-3c-0.1-0.2-0.3-0.2-0.3,0
			l-1,3C-349.7,288.2-349.6,288.3-349.5,288.3"/>
		<path id="XMLID_516_" class="st7" d="M-343.6,285.8h0.9c0.1,0,0.2,0.1,0.2,0.2l0.1,0.6h0.1c0.2-0.3,0.4-0.5,0.7-0.7
			c0.3-0.1,0.6-0.2,1-0.2c0.1,0,0.2,0,0.3,0c0.1,0,0.2,0.1,0.2,0.2v1c0,0.1-0.1,0.2-0.2,0.2c-0.1,0-0.2,0-0.4,0
			c-0.3,0-0.6,0.1-0.9,0.2c-0.3,0.1-0.5,0.3-0.6,0.5c0,0,0,0.1,0,0.1v4c0,0.1-0.1,0.2-0.2,0.2h-1.1c-0.1,0-0.2-0.1-0.2-0.2V286
			C-343.7,285.9-343.7,285.8-343.6,285.8"/>
		<path id="XMLID_513_" class="st7" d="M-338.3,294.5c-0.3,0-0.6-0.1-0.8-0.2c-0.1,0-0.1-0.1-0.1-0.2v-0.8c0-0.1,0.1-0.2,0.2-0.2
			c0.6,0.1,1.1,0.2,1.6,0.2c0.4,0,0.8-0.1,1-0.2c0.3-0.1,0.5-0.3,0.6-0.5c0.1-0.2,0.2-0.6,0.2-0.9v-0.5h-0.1
			c-0.2,0.2-0.4,0.4-0.7,0.5c-0.3,0.1-0.6,0.2-0.9,0.2c-0.4,0-0.8-0.1-1.2-0.3c-0.4-0.2-0.6-0.5-0.9-1c-0.2-0.5-0.3-1-0.3-1.7
			c0-1.1,0.3-1.9,0.8-2.5c0.6-0.6,1.4-0.8,2.5-0.8c0.4,0,0.8,0,1.2,0.1c0.3,0,0.7,0.1,0.9,0.2c0.1,0,0.1,0.1,0.1,0.2v5.4
			c0,0.7-0.1,1.3-0.3,1.7c-0.2,0.4-0.6,0.8-1.1,1c-0.5,0.2-1.1,0.3-1.8,0.3C-337.7,294.6-338,294.5-338.3,294.5 M-336.2,290.7
			c0.2-0.1,0.3-0.2,0.5-0.3c0,0,0-0.1,0-0.1v-3.1c0-0.1-0.1-0.2-0.1-0.2c-0.2,0-0.5-0.1-0.7-0.1c-0.6,0-1,0.2-1.3,0.5
			c-0.3,0.3-0.4,0.8-0.4,1.6c0,0.7,0.1,1.2,0.4,1.5c0.2,0.3,0.6,0.4,1.1,0.4C-336.6,290.8-336.4,290.8-336.2,290.7"/>
		<path id="XMLID_510_" class="st7" d="M-327.8,289.3h-3.4c-0.1,0-0.2,0.1-0.2,0.2c0,0.3,0.1,0.6,0.2,0.8c0.1,0.2,0.3,0.4,0.6,0.5
			c0.3,0.1,0.6,0.2,1.1,0.2c0.4,0,0.8-0.1,1.3-0.2c0.1,0,0.2,0.1,0.2,0.2v0.8c0,0.1-0.1,0.2-0.1,0.2c-0.5,0.1-1.1,0.2-1.6,0.2
			c-0.7,0-1.3-0.1-1.8-0.3c-0.5-0.2-0.8-0.6-1.1-1c-0.2-0.5-0.4-1.1-0.4-1.8c0-0.7,0.1-1.3,0.3-1.8c0.2-0.5,0.5-0.8,0.9-1.1
			c0.4-0.2,0.9-0.4,1.5-0.4c0.8,0,1.5,0.3,1.9,0.8c0.4,0.5,0.7,1.3,0.7,2.4v0.2C-327.7,289.2-327.7,289.3-327.8,289.3 M-331.2,287.1
			c-0.2,0.2-0.3,0.6-0.3,1.2c0,0.1,0.1,0.2,0.2,0.2h2.1c0.1,0,0.2-0.1,0.2-0.2c0-0.5-0.1-0.9-0.3-1.2c-0.2-0.3-0.5-0.4-0.9-0.4
			C-330.6,286.7-330.9,286.8-331.2,287.1"/>
		<path id="XMLID_509_" class="st7" d="M-326.4,285.8h0.9c0.1,0,0.2,0.1,0.2,0.2l0.1,0.5h0.1c0.2-0.2,0.5-0.4,0.8-0.6
			c0.3-0.1,0.7-0.2,1-0.2c0.6,0,1.1,0.2,1.5,0.6c0.4,0.4,0.6,1,0.6,1.8v3.7c0,0.1-0.1,0.2-0.2,0.2h-1.1c-0.1,0-0.2-0.1-0.2-0.2v-3.7
			c0-0.4-0.1-0.7-0.3-0.9s-0.4-0.3-0.8-0.3c-0.2,0-0.5,0.1-0.7,0.2c-0.2,0.1-0.4,0.2-0.6,0.4c0,0,0,0.1,0,0.1v4.1
			c0,0.1-0.1,0.2-0.2,0.2h-1.1c-0.1,0-0.2-0.1-0.2-0.2V286C-326.5,285.9-326.5,285.8-326.4,285.8"/>
		<path id="XMLID_508_" class="st7" d="M-316.1,291v0.8c0,0.1-0.1,0.2-0.1,0.2c-0.3,0.1-0.6,0.1-0.9,0.1c-1.5,0-2.2-0.7-2.2-2.2
			v-2.7c0-0.1-0.1-0.2-0.2-0.2h-0.7c-0.1,0-0.2-0.1-0.2-0.2V286c0-0.1,0.1-0.2,0.2-0.2h0.7c0.1,0,0.2-0.1,0.2-0.2l0.2-1.9
			c0-0.1,0.1-0.2,0.2-0.2h0.9c0.1,0,0.2,0.1,0.2,0.2v1.8c0,0.1,0.1,0.2,0.2,0.2h1.4c0.1,0,0.2,0.1,0.2,0.2v0.8
			c0,0.1-0.1,0.2-0.2,0.2h-1.4c-0.1,0-0.2,0.1-0.2,0.2v2.5c0,0.3,0,0.5,0.1,0.7c0.1,0.2,0.2,0.3,0.4,0.4c0.2,0.1,0.4,0.1,0.6,0.1
			c0.1,0,0.3,0,0.5,0C-316.2,290.8-316.1,290.9-316.1,291"/>
		<path id="XMLID_505_" class="st7" d="M-315,284.5c-0.2-0.1-0.2-0.3-0.2-0.6s0.1-0.5,0.2-0.6c0.2-0.1,0.4-0.2,0.7-0.2
			c0.3,0,0.5,0.1,0.7,0.2c0.2,0.1,0.2,0.3,0.2,0.6s-0.1,0.5-0.2,0.6c-0.2,0.1-0.4,0.2-0.7,0.2C-314.6,284.7-314.9,284.7-315,284.5
			 M-315.1,291.8V286c0-0.1,0.1-0.2,0.2-0.2h1.1c0.1,0,0.2,0.1,0.2,0.2v5.8c0,0.1-0.1,0.2-0.2,0.2h-1.1
			C-315,292-315.1,291.9-315.1,291.8"/>
		<path id="XMLID_504_" class="st7" d="M-312.2,285.8h0.9c0.1,0,0.2,0.1,0.2,0.2l0.1,0.5h0.1c0.2-0.2,0.5-0.4,0.8-0.6
			c0.3-0.1,0.7-0.2,1-0.2c0.6,0,1.1,0.2,1.5,0.6c0.4,0.4,0.6,1,0.6,1.8v3.7c0,0.1-0.1,0.2-0.2,0.2h-1.1c-0.1,0-0.2-0.1-0.2-0.2v-3.7
			c0-0.4-0.1-0.7-0.3-0.9s-0.4-0.3-0.8-0.3c-0.2,0-0.5,0.1-0.7,0.2c-0.2,0.1-0.4,0.2-0.6,0.4c0,0,0,0.1,0,0.1v4.1
			c0,0.1-0.1,0.2-0.2,0.2h-1.1c-0.1,0-0.2-0.1-0.2-0.2V286C-312.4,285.9-312.3,285.8-312.2,285.8"/>
		<path id="XMLID_501_" class="st7" d="M-302,285.9c0.4,0.2,0.7,0.4,0.9,0.8c0.2,0.4,0.3,0.8,0.3,1.5v3.6c0,0.1-0.1,0.2-0.2,0.2
			h-0.9c-0.1,0-0.2-0.1-0.2-0.2l-0.1-0.5h-0.1c-0.2,0.2-0.4,0.4-0.7,0.6c-0.3,0.1-0.6,0.2-1,0.2c-0.4,0-0.8-0.1-1-0.2
			c-0.3-0.1-0.5-0.3-0.7-0.6c-0.2-0.3-0.2-0.6-0.2-0.9c0-0.6,0.2-1,0.6-1.3c0.4-0.3,1-0.5,1.9-0.6l1.2-0.1v-0.2
			c0-0.3-0.1-0.6-0.1-0.7c-0.1-0.2-0.3-0.3-0.5-0.4c-0.2-0.1-0.5-0.1-0.9-0.1c-0.3,0-0.5,0-0.8,0.1c-0.2,0-0.4,0.1-0.6,0.1
			c-0.1,0-0.2-0.1-0.2-0.2v-0.8c0-0.1,0.1-0.2,0.1-0.2c0.2-0.1,0.5-0.1,0.8-0.2c0.3,0,0.7-0.1,1-0.1
			C-302.9,285.7-302.4,285.8-302,285.9 M-302.9,290.9c0.2-0.1,0.4-0.2,0.5-0.3c0,0,0.1-0.1,0.1-0.1v-1c0-0.1-0.1-0.2-0.2-0.2
			l-0.8,0.1c-0.4,0-0.7,0.1-0.9,0.3c-0.2,0.1-0.3,0.4-0.3,0.6c0,0.3,0.1,0.5,0.2,0.6c0.2,0.1,0.4,0.2,0.7,0.2
			C-303.3,291-303.1,291-302.9,290.9"/>
	</g>
	<g id="XMLID_456_">
		<path id="XMLID_498_" class="st2" d="M-346.7,272.7h1.3v6.1h-1v-4.6l-1.7,3.8h-0.9l-1.7-3.7v4.6h-1v-6.1h1.3l1.9,4.1L-346.7,272.7
			z"/>
		<path id="XMLID_495_" class="st2" d="M-344.2,273.4c-0.1-0.1-0.2-0.2-0.2-0.4s0.1-0.3,0.2-0.4c0.1-0.1,0.3-0.2,0.5-0.2
			c0.2,0,0.4,0.1,0.5,0.2c0.1,0.1,0.2,0.2,0.2,0.4s-0.1,0.3-0.2,0.4c-0.1,0.1-0.3,0.2-0.5,0.2C-343.9,273.5-344.1,273.5-344.2,273.4
			z M-344.2,278.8v-4.5h1.1v4.5H-344.2z"/>
		<path id="XMLID_493_" class="st2" d="M-342,274.3h0.9l0.1,0.5h0.1c0.2-0.2,0.4-0.3,0.6-0.4c0.2-0.1,0.5-0.1,0.7-0.1
			c0.5,0,0.8,0.1,1.1,0.4c0.3,0.3,0.4,0.7,0.4,1.3v2.9h-1.1V276c0-0.3-0.1-0.5-0.2-0.6c-0.1-0.1-0.3-0.2-0.6-0.2
			c-0.2,0-0.4,0-0.5,0.1c-0.2,0.1-0.3,0.2-0.4,0.3v3.2h-1.1V274.3z"/>
		<path id="XMLID_490_" class="st2" d="M-337.1,273.4c-0.1-0.1-0.2-0.2-0.2-0.4s0.1-0.3,0.2-0.4c0.1-0.1,0.3-0.2,0.5-0.2
			c0.2,0,0.4,0.1,0.5,0.2c0.1,0.1,0.2,0.2,0.2,0.4s-0.1,0.3-0.2,0.4c-0.1,0.1-0.3,0.2-0.5,0.2C-336.8,273.5-337,273.5-337.1,273.4z
			 M-337.1,278.8v-4.5h1.1v4.5H-337.1z"/>
		<path id="XMLID_488_" class="st2" d="M-335.1,278.7v-0.8c0.4,0.1,0.9,0.2,1.4,0.2c0.3,0,0.6,0,0.7-0.1c0.1-0.1,0.2-0.2,0.2-0.4
			c0-0.1,0-0.3-0.1-0.3c-0.1-0.1-0.2-0.1-0.4-0.2l-0.7-0.1c-0.4-0.1-0.7-0.2-0.9-0.4c-0.2-0.2-0.3-0.5-0.3-0.8
			c0-0.3,0.1-0.5,0.2-0.7c0.1-0.2,0.4-0.4,0.7-0.5c0.3-0.1,0.7-0.2,1.1-0.2c0.4,0,0.8,0,1.2,0.1v0.8c-0.4-0.1-0.7-0.1-1.1-0.1
			c-0.7,0-1,0.2-1,0.6c0,0.1,0,0.2,0.1,0.3c0.1,0.1,0.2,0.1,0.4,0.2l0.7,0.1c0.4,0.1,0.7,0.2,0.9,0.4c0.2,0.2,0.3,0.5,0.3,0.9
			c0,0.3-0.1,0.5-0.2,0.8c-0.1,0.2-0.4,0.4-0.7,0.5c-0.3,0.1-0.6,0.2-1,0.2C-334.2,278.9-334.7,278.9-335.1,278.7z"/>
		<path id="XMLID_486_" class="st2" d="M-328.3,278v0.9c-0.3,0.1-0.5,0.1-0.8,0.1c-1.1,0-1.6-0.5-1.6-1.6v-2.1h-0.8v-0.9h0.8
			l0.2-1.6h0.9v1.6h1.3v0.9h-1.3v1.9c0,0.2,0,0.4,0.1,0.5c0.1,0.1,0.1,0.2,0.3,0.3c0.1,0.1,0.3,0.1,0.5,0.1
			C-328.7,278-328.5,278-328.3,278z"/>
		<path id="XMLID_483_" class="st2" d="M-324,276.9h-2.8c0,0.3,0.1,0.5,0.2,0.7c0.1,0.2,0.2,0.3,0.4,0.4c0.2,0.1,0.5,0.1,0.8,0.1
			c0.3,0,0.7-0.1,1.1-0.2v0.8c-0.4,0.1-0.9,0.2-1.3,0.2c-0.5,0-1-0.1-1.3-0.2c-0.3-0.2-0.6-0.4-0.8-0.8c-0.2-0.3-0.3-0.8-0.3-1.3
			c0-0.5,0.1-0.9,0.2-1.3c0.2-0.3,0.4-0.6,0.7-0.8c0.3-0.2,0.7-0.3,1.1-0.3c0.6,0,1.1,0.2,1.4,0.6c0.3,0.4,0.5,1,0.5,1.8V276.9z
			 M-326.6,275.2c-0.2,0.2-0.2,0.5-0.2,1h1.8c0-0.5-0.1-0.8-0.2-1c-0.1-0.2-0.4-0.3-0.6-0.3C-326.2,274.9-326.4,275-326.6,275.2z"/>
		<path id="XMLID_481_" class="st2" d="M-323.2,274.3h0.9l0.1,0.6h0.1c0.1-0.2,0.3-0.4,0.5-0.5c0.2-0.1,0.5-0.2,0.7-0.2
			c0.1,0,0.2,0,0.4,0v1c-0.1,0-0.2,0-0.4,0c-0.2,0-0.4,0-0.6,0.1c-0.2,0.1-0.4,0.2-0.5,0.4v3.1h-1.1V274.3z"/>
		<path id="XMLID_478_" class="st2" d="M-319.9,273.4c-0.1-0.1-0.2-0.2-0.2-0.4s0.1-0.3,0.2-0.4c0.1-0.1,0.3-0.2,0.5-0.2
			c0.2,0,0.4,0.1,0.5,0.2c0.1,0.1,0.2,0.2,0.2,0.4s-0.1,0.3-0.2,0.4c-0.1,0.1-0.3,0.2-0.5,0.2C-319.6,273.5-319.8,273.5-319.9,273.4
			z M-319.9,278.8v-4.5h1.1v4.5H-319.9z"/>
		<path id="XMLID_475_" class="st2" d="M-317.4,278.3c-0.4-0.4-0.6-1-0.6-1.8c0-0.8,0.2-1.4,0.5-1.8c0.4-0.4,0.9-0.6,1.6-0.6
			s1.2,0.2,1.6,0.6c0.4,0.4,0.5,1,0.5,1.8c0,0.5-0.1,1-0.3,1.3c-0.2,0.3-0.4,0.6-0.7,0.8c-0.3,0.2-0.7,0.3-1.1,0.3
			C-316.5,278.9-317.1,278.7-317.4,278.3z M-315.1,277.7c0.2-0.2,0.3-0.6,0.3-1.2c0-0.6-0.1-0.9-0.3-1.2c-0.2-0.2-0.4-0.3-0.8-0.3
			c-0.3,0-0.6,0.1-0.8,0.3c-0.2,0.2-0.3,0.6-0.3,1.2c0,0.4,0,0.7,0.1,0.9c0.1,0.2,0.2,0.4,0.3,0.5c0.1,0.1,0.3,0.1,0.6,0.1
			C-315.5,278.1-315.3,278-315.1,277.7z"/>
		<path id="XMLID_472_" class="st2" d="M-310.2,278.7c-0.3-0.2-0.5-0.4-0.7-0.7c-0.2-0.3-0.2-0.8-0.2-1.3c0-0.8,0.2-1.4,0.6-1.8
			c0.4-0.4,1-0.6,1.8-0.6c0.2,0,0.4,0,0.6,0v-2.2h1.1v6.7h-0.9l-0.1-0.5h-0.1c-0.1,0.2-0.3,0.3-0.5,0.4c-0.2,0.1-0.4,0.1-0.7,0.1
			C-309.6,278.9-309.9,278.8-310.2,278.7z M-308.4,277.9c0.2-0.1,0.3-0.2,0.4-0.3v-2.5c-0.2,0-0.4-0.1-0.6-0.1c-0.4,0-0.8,0.1-1,0.4
			c-0.2,0.2-0.3,0.6-0.3,1.1c0,0.5,0.1,0.9,0.3,1.1c0.2,0.2,0.4,0.3,0.8,0.3C-308.7,278-308.6,278-308.4,277.9z"/>
		<path id="XMLID_469_" class="st2" d="M-302.2,276.9h-2.8c0,0.3,0.1,0.5,0.2,0.7c0.1,0.2,0.2,0.3,0.4,0.4c0.2,0.1,0.5,0.1,0.8,0.1
			c0.3,0,0.7-0.1,1.1-0.2v0.8c-0.4,0.1-0.9,0.2-1.3,0.2c-0.5,0-1-0.1-1.3-0.2c-0.3-0.2-0.6-0.4-0.8-0.8c-0.2-0.3-0.3-0.8-0.3-1.3
			c0-0.5,0.1-0.9,0.2-1.3c0.2-0.3,0.4-0.6,0.7-0.8c0.3-0.2,0.7-0.3,1.1-0.3c0.6,0,1.1,0.2,1.4,0.6c0.3,0.4,0.5,1,0.5,1.8V276.9z
			 M-304.8,275.2c-0.2,0.2-0.2,0.5-0.2,1h1.8c0-0.5-0.1-0.8-0.2-1c-0.1-0.2-0.4-0.3-0.6-0.3C-304.4,274.9-304.6,275-304.8,275.2z"/>
		<path id="XMLID_467_" class="st2" d="M-298.7,278.8c-0.3,0-0.5-0.1-0.8-0.2v-0.9c0.3,0.1,0.5,0.2,0.8,0.2c0.3,0,0.6,0.1,0.8,0.1
			c0.4,0,0.8-0.1,1-0.2c0.2-0.1,0.3-0.4,0.3-0.6c0-0.2,0-0.3-0.1-0.4c-0.1-0.1-0.2-0.2-0.3-0.3c-0.1-0.1-0.3-0.1-0.6-0.2l-0.4-0.1
			c-0.5-0.1-0.9-0.3-1.2-0.6c-0.3-0.3-0.4-0.7-0.4-1.1c0-0.6,0.2-1,0.6-1.3c0.4-0.3,1-0.5,1.8-0.5c0.3,0,0.5,0,0.8,0
			c0.2,0,0.5,0.1,0.7,0.1v0.9c-0.2-0.1-0.4-0.1-0.7-0.1c-0.2,0-0.5-0.1-0.7-0.1c-0.5,0-0.8,0.1-1,0.2c-0.2,0.1-0.3,0.4-0.3,0.6
			c0,0.2,0,0.3,0.1,0.4c0.1,0.1,0.2,0.2,0.3,0.3c0.1,0.1,0.3,0.1,0.5,0.2l0.4,0.1c0.6,0.1,1,0.4,1.3,0.6c0.3,0.3,0.4,0.7,0.4,1.1
			c0,0.4-0.1,0.7-0.3,1c-0.2,0.3-0.5,0.5-0.8,0.6c-0.4,0.1-0.8,0.2-1.3,0.2C-298.1,278.9-298.4,278.9-298.7,278.8z"/>
		<path id="XMLID_464_" class="st2" d="M-292,274.4c0.3,0.1,0.5,0.3,0.6,0.6s0.2,0.6,0.2,1.1v2.8h-0.9l-0.1-0.5h-0.1
			c-0.1,0.2-0.3,0.3-0.5,0.4c-0.2,0.1-0.5,0.1-0.7,0.1c-0.3,0-0.6-0.1-0.8-0.2c-0.2-0.1-0.4-0.3-0.5-0.4c-0.1-0.2-0.2-0.4-0.2-0.7
			c0-0.4,0.1-0.7,0.4-1c0.3-0.2,0.7-0.4,1.4-0.4l0.8-0.1V276c0-0.2,0-0.4-0.1-0.5c-0.1-0.1-0.2-0.2-0.3-0.3
			c-0.2-0.1-0.4-0.1-0.6-0.1c-0.2,0-0.4,0-0.6,0c-0.2,0-0.4,0.1-0.6,0.1v-0.8c0.2-0.1,0.4-0.1,0.7-0.1c0.3,0,0.5,0,0.7,0
			C-292.6,274.2-292.3,274.3-292,274.4z M-292.6,278.1c0.2-0.1,0.3-0.2,0.4-0.3v-1l-0.7,0.1c-0.3,0-0.5,0.1-0.6,0.2
			c-0.1,0.1-0.2,0.3-0.2,0.5c0,0.2,0.1,0.4,0.2,0.5c0.1,0.1,0.3,0.2,0.5,0.2C-292.9,278.1-292.7,278.1-292.6,278.1z"/>
		<path id="XMLID_462_" class="st2" d="M-290.1,278.8v-6.7h1.1v6.7H-290.1z"/>
		<path id="XMLID_460_" class="st2" d="M-287.5,278.5c-0.3-0.3-0.4-0.7-0.4-1.3v-2.9h1.1v2.8c0,0.3,0.1,0.5,0.2,0.6
			c0.1,0.1,0.3,0.2,0.5,0.2c0.2,0,0.3,0,0.5-0.1c0.2-0.1,0.3-0.2,0.4-0.3v-3.2h1.1v4.5h-0.9l-0.1-0.5h0c-0.2,0.2-0.4,0.3-0.6,0.4
			c-0.2,0.1-0.5,0.1-0.7,0.1C-286.9,278.9-287.3,278.8-287.5,278.5z"/>
		<path id="XMLID_457_" class="st2" d="M-282.3,278.7c-0.3-0.2-0.5-0.4-0.7-0.7c-0.2-0.3-0.2-0.8-0.2-1.3c0-0.8,0.2-1.4,0.6-1.8
			c0.4-0.4,1-0.6,1.8-0.6c0.2,0,0.4,0,0.6,0v-2.2h1.1v6.7h-0.9l-0.1-0.5h-0.1c-0.1,0.2-0.3,0.3-0.5,0.4c-0.2,0.1-0.4,0.1-0.7,0.1
			C-281.7,278.9-282,278.8-282.3,278.7z M-280.6,277.9c0.2-0.1,0.3-0.2,0.4-0.3v-2.5c-0.2,0-0.4-0.1-0.6-0.1c-0.4,0-0.8,0.1-1,0.4
			c-0.2,0.2-0.3,0.6-0.3,1.1c0,0.5,0.1,0.9,0.3,1.1c0.2,0.2,0.4,0.3,0.8,0.3C-280.9,278-280.8,278-280.6,277.9z"/>
	</g>
</g>
</svg>
