<?xml version="1.0" encoding="utf-8"?>
<!-- Generator: Adobe Illustrator 19.0.0, SVG Export Plug-In . SVG Version: 6.00 Build 0)  -->
<svg version="1.1" id="Capa_1" xmlns="http://www.w3.org/2000/svg" xmlns:xlink="http://www.w3.org/1999/xlink" x="0px" y="0px"
	 viewBox="-367 254 224 54" style="enable-background:new -367 254 224 54;" xml:space="preserve">
<style type="text/css">
	.st0{display:none;}
	.st1{display:inline;}
	.st2{fill:#595A5A;}
	.st3{fill:#348AC7;}
	.st4{fill:#FFFFFF;}
	.st5{fill:#221E20;}
	.st6{fill:#FACB63;}
	.st7{fill:#009D5C;}
	.st8{fill:#F0B881;}
	.st9{fill:#1A8FBA;}
	.st10{fill:#D83E25;}
</style>
<g class="st0">
	<g id="XMLID_3_" class="st1">
		<path class="st2" d="M-331.8,273.6L-331.8,273.6c0-3.1,2.3-5.6,5.6-5.6c2.1,0,3.2,0.7,4.2,1.6l-1.5,1.8c-0.8-0.8-1.7-1.2-2.8-1.2
			c-1.8,0-3.1,1.5-3.1,3.3v0.1c0,1.8,1.3,3.4,3.1,3.4c1.2,0,2-0.5,2.8-1.3l1.5,1.5c-1.1,1.2-2.3,1.9-4.4,1.9
			C-329.5,279.1-331.8,276.6-331.8,273.6z"/>
		<path class="st2" d="M-320.7,276.5L-320.7,276.5c0-1.8,1.4-2.6,3.3-2.6c0.8,0,1.4,0.1,2,0.4v-0.1c0-1-0.6-1.5-1.8-1.5
			c-0.9,0-1.5,0.2-2.3,0.5l-0.6-1.8c0.9-0.4,1.8-0.6,3.2-0.6c1.3,0,2.2,0.4,2.8,0.9c0.6,0.6,0.9,1.5,0.9,2.6v4.8h-2.3v-0.9
			c-0.6,0.6-1.4,1-2.5,1C-319.4,279.1-320.7,278.1-320.7,276.5z M-315.3,276v-0.4c-0.4-0.2-0.9-0.3-1.5-0.3c-1,0-1.6,0.4-1.6,1.1
			v0.1c0,0.6,0.5,1,1.3,1C-316.1,277.4-315.3,276.8-315.3,276z"/>
		<path class="st2" d="M-311.8,277.8l1-1.5c0.9,0.6,1.8,1,2.6,1c0.7,0,1-0.2,1-0.6v-0.1c0-0.5-0.8-0.7-1.7-0.9
			c-1.2-0.4-2.5-0.9-2.5-2.5v-0.1c0-1.7,1.4-2.6,3-2.6c1.1,0,2.2,0.3,3.1,0.9l-0.9,1.6c-0.8-0.5-1.6-0.8-2.2-0.8
			c-0.6,0-0.9,0.2-0.9,0.6v0.1c0,0.5,0.8,0.7,1.7,1c1.2,0.4,2.5,0.9,2.5,2.5v0.1c0,1.8-1.3,2.6-3.2,2.6
			C-309.4,279.1-310.6,278.7-311.8,277.8z"/>
		<path class="st2" d="M-303.9,276.5L-303.9,276.5c0-1.8,1.4-2.6,3.3-2.6c0.8,0,1.4,0.1,2,0.4v-0.1c0-1-0.6-1.5-1.8-1.5
			c-0.9,0-1.5,0.2-2.3,0.5l-0.6-1.8c0.9-0.4,1.8-0.6,3.2-0.6c1.3,0,2.2,0.4,2.8,0.9c0.6,0.6,0.9,1.5,0.9,2.6v4.8h-2.3v-0.9
			c-0.6,0.6-1.3,1-2.5,1C-302.6,279.1-303.9,278.1-303.9,276.5z M-298.5,276v-0.4c-0.4-0.2-0.9-0.3-1.5-0.3c-1,0-1.6,0.4-1.6,1.1
			v0.1c0,0.6,0.5,1,1.3,1C-299.3,277.4-298.5,276.8-298.5,276z"/>
		<path class="st2" d="M-289.4,268.1h4.9c1.4,0,2.4,0.4,3.2,1.1c0.6,0.6,0.9,1.5,0.9,2.5v0.1c0,1.8-0.9,2.8-2.3,3.3l2.6,3.9h-2.8
			l-2.3-3.5h-0.1h-1.8v3.5h-2.3v-10.8H-289.4z M-284.7,273.3c1.2,0,1.8-0.6,1.8-1.5v-0.1c0-1-0.7-1.5-1.9-1.5h-2.4v3.1H-284.7z"/>
		<path class="st2" d="M-279.1,274.8L-279.1,274.8c0-2.4,1.9-4.3,4.5-4.3c2.6,0,4.4,1.9,4.4,4.3v0.1c0,2.3-1.9,4.3-4.4,4.3
			C-277.2,279.1-279.1,277.2-279.1,274.8z M-272.5,274.8L-272.5,274.8c0-1.2-0.9-2.3-2.2-2.3c-1.4,0-2.1,1-2.1,2.2v0.1
			c0,1.2,0.9,2.3,2.2,2.3C-273.3,277.1-272.5,276-272.5,274.8z"/>
		<path class="st2" d="M-269.2,277.8l1-1.5c0.9,0.6,1.8,1,2.6,1c0.7,0,1-0.2,1-0.6v-0.1c0-0.5-0.8-0.7-1.7-0.9
			c-1.2-0.4-2.5-0.9-2.5-2.5v-0.1c0-1.7,1.4-2.6,3-2.6c1.1,0,2.2,0.3,3.1,0.9l-0.9,1.6c-0.8-0.5-1.6-0.8-2.2-0.8
			c-0.6,0-0.9,0.2-0.9,0.6v0.1c0,0.5,0.8,0.7,1.7,1c1.2,0.4,2.5,0.9,2.5,2.5v0.1c0,1.8-1.4,2.6-3.2,2.6
			C-266.8,279.1-268.1,278.7-269.2,277.8z"/>
		<path class="st2" d="M-261.3,276.5L-261.3,276.5c0-1.8,1.4-2.6,3.3-2.6c0.8,0,1.4,0.1,2,0.4v-0.1c0-1-0.6-1.5-1.8-1.5
			c-0.9,0-1.5,0.2-2.3,0.5l-0.6-1.8c0.9-0.4,1.8-0.6,3.2-0.6c1.3,0,2.2,0.4,2.8,0.9c0.6,0.6,0.9,1.5,0.9,2.6v4.8h-2.3v-0.9
			c-0.6,0.6-1.3,1-2.5,1C-260,279.1-261.3,278.1-261.3,276.5z M-255.9,276v-0.4c-0.4-0.2-0.9-0.3-1.5-0.3c-1,0-1.6,0.4-1.6,1.1v0.1
			c0,0.6,0.5,1,1.3,1C-256.6,277.4-255.9,276.8-255.9,276z"/>
		<path class="st2" d="M-252.1,274.8L-252.1,274.8c0-2.8,1.8-4.3,3.8-4.3c1.2,0,2,0.6,2.6,1.2v-4h2.3V279h-2.3v-1.2
			c-0.6,0.8-1.4,1.4-2.6,1.4C-250.3,279.1-252.1,277.5-252.1,274.8z M-245.7,274.8L-245.7,274.8c0-1.4-0.9-2.3-2-2.3
			c-1.1,0-2,0.9-2,2.3v0.1c0,1.4,0.9,2.3,2,2.3C-246.6,277.1-245.7,276.1-245.7,274.8z"/>
		<path class="st2" d="M-241.8,276.5L-241.8,276.5c0-1.8,1.4-2.6,3.3-2.6c0.8,0,1.4,0.1,2,0.4v-0.1c0-1-0.6-1.5-1.8-1.5
			c-0.9,0-1.5,0.2-2.3,0.5l-0.6-1.8c0.9-0.4,1.8-0.6,3.2-0.6c1.3,0,2.2,0.4,2.8,0.9c0.6,0.6,0.9,1.5,0.9,2.6v4.8h-2.3v-0.9
			c-0.6,0.6-1.4,1-2.5,1C-240.5,279.1-241.8,278.1-241.8,276.5z M-236.4,276v-0.4c-0.4-0.2-0.9-0.3-1.5-0.3c-1,0-1.6,0.4-1.6,1.1
			v0.1c0,0.6,0.5,1,1.3,1C-237.2,277.4-236.4,276.8-236.4,276z"/>
	</g>
	<g class="st1">
		<path class="st3" d="M-331.2,286.6h4.2c2.5,0,4.1,1.4,4.1,3.6v0.1c0,2.4-1.9,3.7-4.3,3.7h-2.1v3.5h-1.9V286.6z M-327.1,292.2
			c1.4,0,2.3-0.8,2.3-1.9v-0.1c0-1.3-0.9-1.9-2.3-1.9h-2.2v3.9L-327.1,292.2L-327.1,292.2z"/>
		<path class="st3" d="M-321.2,289.3h1.9v1.8c0.5-1.2,1.5-2.1,2.9-2v2h-0.1c-1.6,0-2.8,1.1-2.8,3.2v3.1h-1.9V289.3L-321.2,289.3z"/>
		<path class="st3" d="M-315.3,293.4L-315.3,293.4c0-2.3,1.6-4.3,4-4.3c2.6,0,3.9,2.1,3.9,4.4c0,0.2,0,0.4-0.1,0.5h-5.9
			c0.2,1.4,1.1,2,2.3,2c0.9,0,1.6-0.3,2.2-1l1.1,1c-0.8,0.9-1.8,1.5-3.3,1.5C-313.5,297.5-315.3,295.8-315.3,293.4z M-309.2,292.7
			c-0.1-1.2-0.8-2.1-2.1-2.1c-1.1,0-1.9,0.9-2.1,2.1H-309.2z"/>
		<path class="st3" d="M-306.2,296.3l0.8-1.3c0.9,0.6,1.8,1,2.6,1s1.3-0.4,1.3-0.9v-0.1c0-0.6-0.9-0.8-1.8-1.1
			c-1.2-0.4-2.5-0.8-2.5-2.4v-0.1c0-1.5,1.3-2.5,2.9-2.5c1,0,2.1,0.4,3,0.9l-0.8,1.4c-0.8-0.5-1.6-0.8-2.3-0.8
			c-0.7,0-1.1,0.4-1.1,0.8v0.1c0,0.6,0.9,0.8,1.8,1.1c1.2,0.4,2.5,0.9,2.5,2.3v0.1c0,1.7-1.4,2.6-3,2.6
			C-303.9,297.5-305.2,297.1-306.2,296.3z"/>
		<path class="st3" d="M-297.8,286.2h2v1.8h-2V286.2z M-297.7,289.3h1.9v8.1h-1.9V289.3z"/>
		<path class="st3" d="M-293.8,293.3L-293.8,293.3c0-2.7,1.8-4.2,3.8-4.2c1.4,0,2.2,0.7,2.8,1.4v-4.4h1.9v11.3h-1.9V296
			c-0.6,0.8-1.5,1.5-2.8,1.5C-292,297.5-293.8,296-293.8,293.3z M-287.3,293.3L-287.3,293.3c0-1.6-1.1-2.6-2.3-2.6
			c-1.3,0-2.3,1-2.3,2.6v0.1c0,1.6,1,2.6,2.3,2.6C-288.4,295.9-287.3,294.9-287.3,293.3z"/>
		<path class="st3" d="M-283.6,293.4L-283.6,293.4c0-2.3,1.6-4.3,4-4.3c2.6,0,3.9,2.1,3.9,4.4c0,0.2,0,0.4-0.1,0.5h-6
			c0.2,1.4,1.1,2,2.3,2c0.9,0,1.6-0.3,2.2-1l1.1,1c-0.8,0.9-1.8,1.5-3.3,1.5C-281.8,297.5-283.6,295.8-283.6,293.4z M-277.5,292.7
			c-0.1-1.2-0.8-2.1-2.1-2.1c-1.1,0-1.9,0.9-2.1,2.1H-277.5z"/>
		<path class="st3" d="M-273.9,289.3h1.9v1.3c0.5-0.8,1.3-1.4,2.5-1.4c1.8,0,2.9,1.2,2.9,3.1v5.2h-1.9v-4.6c0-1.3-0.6-2-1.8-2
			c-1,0-1.8,0.8-1.8,2v4.6h-1.9L-273.9,289.3C-273.9,289.3-273.9,289.3-273.9,289.3z"/>
		<path class="st3" d="M-264.8,293.4L-264.8,293.4c0-2.3,1.8-4.3,4.2-4.3c1.5,0,2.5,0.6,3.2,1.4l-1.2,1.2c-0.6-0.6-1.2-1-2.1-1
			c-1.4,0-2.3,1.2-2.3,2.6l0,0c0,1.5,1,2.6,2.4,2.6c0.9,0,1.5-0.4,2.1-1l1.1,1.1c-0.8,0.9-1.8,1.5-3.3,1.5
			C-263,297.5-264.8,295.6-264.8,293.4z"/>
		<path class="st3" d="M-255.5,286.2h2v1.8h-2V286.2z M-255.4,289.3h1.9v8.1h-1.9V289.3z"/>
		<path class="st3" d="M-246.1,297.3v-1c-0.5,0.6-1.4,1.2-2.6,1.2c-1.5,0-2.9-0.9-2.9-2.5v-0.1c0-1.8,1.4-2.6,3.3-2.6
			c1,0,1.6,0.1,2.2,0.3v-0.2c0-1.1-0.7-1.8-2-1.8c-0.9,0-1.6,0.2-2.3,0.5l-0.5-1.5c0.9-0.4,1.8-0.7,3.1-0.7c2.4,0,3.6,1.3,3.6,3.5
			v4.8L-246.1,297.3L-246.1,297.3z M-246.1,294c-0.5-0.2-1.1-0.4-1.9-0.4c-1.2,0-1.9,0.5-1.9,1.3v0.1c0,0.8,0.7,1.2,1.6,1.2
			c1.2,0,2.2-0.7,2.2-1.7L-246.1,294L-246.1,294z"/>
		<path class="st3" d="M-237.9,293.3L-237.9,293.3c0-2.7,1.8-4.2,3.8-4.2c1.4,0,2.2,0.7,2.8,1.4v-4.4h1.9v11.3h-1.9V296
			c-0.6,0.8-1.5,1.5-2.8,1.5C-236.1,297.5-237.9,296-237.9,293.3z M-231.3,293.3L-231.3,293.3c0-1.6-1.1-2.6-2.3-2.6
			c-1.3,0-2.3,1-2.3,2.6v0.1c0,1.6,1.1,2.6,2.3,2.6C-232.4,295.9-231.3,294.9-231.3,293.3z"/>
		<path class="st3" d="M-227.6,293.4L-227.6,293.4c0-2.3,1.6-4.3,4-4.3c2.6,0,3.9,2.1,3.9,4.4c0,0.2,0,0.4-0.1,0.5h-5.9
			c0.2,1.4,1.1,2,2.3,2c0.9,0,1.6-0.3,2.2-1l1.1,1c-0.8,0.9-1.8,1.5-3.3,1.5C-225.8,297.5-227.6,295.8-227.6,293.4z M-221.6,292.7
			c-0.1-1.2-0.8-2.1-2.1-2.1c-1.1,0-1.9,0.9-2.1,2.1H-221.6z"/>
		<path class="st3" d="M-213.2,286.1h1.9v11.3h-1.9V286.1z"/>
		<path class="st3" d="M-203.9,297.3v-1c-0.5,0.6-1.4,1.2-2.6,1.2c-1.5,0-2.9-0.9-2.9-2.5v-0.1c0-1.8,1.4-2.6,3.3-2.6
			c1,0,1.6,0.1,2.2,0.3v-0.2c0-1.1-0.7-1.8-2-1.8c-0.9,0-1.6,0.2-2.3,0.5l-0.5-1.5c0.9-0.4,1.8-0.7,3.1-0.7c2.4,0,3.6,1.3,3.6,3.5
			v4.8L-203.9,297.3L-203.9,297.3z M-203.9,294c-0.5-0.2-1.1-0.4-1.9-0.4c-1.2,0-1.9,0.5-1.9,1.3v0.1c0,0.8,0.7,1.2,1.6,1.2
			c1.2,0,2.2-0.7,2.2-1.7V294z"/>
		<path class="st3" d="M-195.1,286.6h1.8l5.7,7.4v-7.4h1.9v10.8h-1.6l-5.9-7.7v7.7h-1.9V286.6L-195.1,286.6z"/>
		<path class="st3" d="M-178.1,297.3v-1c-0.5,0.6-1.4,1.2-2.6,1.2c-1.5,0-2.9-0.9-2.9-2.5v-0.1c0-1.8,1.4-2.6,3.3-2.6
			c1,0,1.6,0.1,2.2,0.3v-0.2c0-1.1-0.7-1.8-2-1.8c-0.9,0-1.6,0.2-2.3,0.5l-0.5-1.5c0.9-0.4,1.8-0.7,3.1-0.7c2.4,0,3.6,1.3,3.6,3.5
			v4.8L-178.1,297.3L-178.1,297.3z M-178.1,294c-0.5-0.2-1.1-0.4-1.9-0.4c-1.2,0-1.9,0.5-1.9,1.3v0.1c0,0.8,0.7,1.2,1.6,1.2
			c1.2,0,2.2-0.7,2.2-1.7L-178.1,294L-178.1,294z"/>
		<path class="st3" d="M-174.5,293.4L-174.5,293.4c0-2.3,1.8-4.3,4.2-4.3c1.5,0,2.5,0.6,3.2,1.4l-1.2,1.2c-0.6-0.6-1.2-1-2.1-1
			c-1.4,0-2.3,1.2-2.3,2.6l0,0c0,1.5,1,2.6,2.4,2.6c0.9,0,1.5-0.4,2.1-1l1.1,1.1c-0.8,0.9-1.8,1.5-3.3,1.5
			C-172.8,297.5-174.5,295.6-174.5,293.4z"/>
		<path class="st3" d="M-165.3,286.2h2v1.8h-2V286.2z M-165.2,289.3h1.9v8.1h-1.9V289.3z"/>
		<path class="st3" d="M-161.3,293.4L-161.3,293.4c0-2.3,1.8-4.3,4.3-4.3c2.5,0,4.3,1.9,4.3,4.2l0,0c0,2.3-1.8,4.2-4.3,4.2
			C-159.5,297.5-161.3,295.6-161.3,293.4z M-154.5,293.4L-154.5,293.4c0-1.5-1.1-2.6-2.5-2.6s-2.5,1.2-2.5,2.6l0,0
			c0,1.4,1.1,2.6,2.5,2.6C-155.5,295.9-154.5,294.8-154.5,293.4z M-156.1,285.7l1.7,0.8l-1.9,1.8h-1.5L-156.1,285.7z"/>
		<path class="st3" d="M-150.8,289.3h1.9v1.3c0.5-0.8,1.3-1.4,2.5-1.4c1.8,0,2.9,1.2,2.9,3.1v5.2h-1.9v-4.6c0-1.3-0.6-2-1.8-2
			c-1.1,0-1.8,0.8-1.8,2v4.6h-1.8L-150.8,289.3L-150.8,289.3z"/>
	</g>
	<g class="st1">
		<g>
			<path class="st4" d="M-354,296.3c-5.6,0-10-6.1-10-13.4h19.9C-344.1,290.2-348.4,296.3-354,296.3"/>
		</g>
		<g>
			<path class="st5" d="M-351.8,266.2h0.2c0,0-0.1-0.7-1.4-0.6h-0.3l-0.1,0.4l0.9-0.1C-352.6,265.9-352,265.8-351.8,266.2"/>
		</g>
		<g>
			<path class="st5" d="M-353.3,266.6c0-0.1,0.2-0.2,0.2-0.2h0.1c0,0.1-0.1,0.1-0.1,0.1c0,0.1,0.1,0.2,0.2,0.3c0.1,0,0.2,0,0.2,0
				c0.1-0.1,0.2-0.2,0.2-0.3c0-0.1,0-0.1,0-0.1c0.1,0,0.2,0.1,0.3,0.2h0.3c0,0-0.2-0.7-1.4-0.5c0,0-0.3,0.4-0.3,0.5
				C-353.6,266.7-353.3,266.7-353.3,266.6"/>
		</g>
		<g>
			<path class="st5" d="M-356.1,266.6l0.3-0.1c0.1-0.1,0.2-0.2,0.3-0.2c0,0.1,0,0.1,0,0.1c0,0.2,0.1,0.3,0.2,0.3c0,0,0.2,0,0.2,0
				c0.1-0.1,0.2-0.2,0.2-0.3c0,0,0,0,0-0.1c0.1,0,0.1,0,0.1,0l0.2,0.2c0,0.1,0.3,0.1,0.3,0s-0.3-0.5-0.3-0.5
				C-355.9,266-356.1,266.6-356.1,266.6"/>
		</g>
		<g>
			<path class="st5" d="M-355.3,265.9l0.9,0.1c0,0-0.1-0.4-0.1-0.4h-0.2c-1.4-0.1-1.5,0.6-1.5,0.6h0.2
				C-355.9,265.8-355.3,265.9-355.3,265.9"/>
		</g>
		<g>
			<path class="st5" d="M-352.7,275.5L-352.7,275.5C-352.7,275.5-352.7,275.5-352.7,275.5"/>
		</g>
		<g>
			<path class="st5" d="M-352.9,298.1c0.9-0.1,3.8-1.4,4.8-2.2c1.1,0.1,1.5-0.8,2.3-1.2c-0.1-0.1-0.1-0.1-0.2-0.1
				c0.5-0.3,0.7-0.7,1.2-1.1c-0.1-0.1-0.2-0.1-0.4-0.1c0.8-0.2,0.2-0.5,0.9-1c0-0.1-0.1-0.1-0.1-0.1c0.5-0.3,0.5-0.8,0.9-1.2
				c-0.1-0.1-0.2-0.1-0.4-0.1c0.8-0.2,0.8-0.8,1.2-1.4c-0.1,0-0.2,0-0.4-0.1c0.5-0.4,0.3-0.8,0.6-1.4c-0.1-0.1-0.3-0.1-0.5-0.1
				c0.7-0.3,0.6-1,1-1.6c-0.1-0.1-0.2-0.1-0.3-0.1c0.6-0.6-0.2-0.4,0.3-1.5c-0.1-0.1-0.3-0.1-0.5,0.1c0.6-0.5,0.5-1,0.8-1.8
				c-0.4-0.1-1.3,0.5-1.5,1v-0.1c0.1-0.2,0.2-0.4,0.5-0.6c0.9-0.6,0.5-1.2,0.8-2.1c-0.4-0.1-1.2,0.6-1.4,1.2c0-0.1,0-0.1-0.1-0.2
				c0.1-0.2,0.2-0.5,0.6-0.8c0.8-0.4,0.5-1.2,0.8-2c-0.1,0-0.3,0-0.4,0.1c0.2-0.5-0.2-0.9-0.1-1.6c-0.4,0-0.9,0.8-1,1.3
				c0-0.1-0.1-0.1-0.1-0.2c0.1-0.2,0.1-0.5,0.5-0.7c0.8-0.9,0.1-1.4,0.2-2.2c-0.1,0-0.2,0-0.2,0.1c-0.1-0.4-0.4-0.7-0.4-1.2
				c-0.4,0.1-0.8,0.8-0.8,1.4c-0.1-0.1-0.1-0.2-0.2-0.2c0.1-0.2,0.1-0.5,0.4-0.8c0.4-0.8,0-1.2-0.1-2c-0.1,0-0.2,0.1-0.4,0.2
				c0-0.5-0.3-0.8-0.5-1.4c-0.3,0.1-0.5,0.4-0.6,0.8c0-0.2,0.1-0.4,0.1-0.6c0-1.1-0.4-1.2-0.8-2.1c-0.1,0.1-0.2,0.4-0.3,0.6
				c-0.1-0.7-0.4-0.9-0.8-1.6c-0.2,0.2-0.4,0.9-0.3,1.4c-0.1-0.2-0.1-0.3-0.1-0.6c-0.1-0.9-0.5-1.1-0.9-1.6c0.2,0,0.4-0.1,0.6-0.2
				c0,0-0.4,0.1-0.6-0.1c-0.2-0.1-0.4-0.4-0.6-0.4c-0.2-0.1-0.5,0.1-0.8-0.2l2.2-0.5l-2.1-0.4c0,0,0.1-0.1,0.4-0.2
				c0.2,0,0.5,0,0.6-0.2c0.1-0.1,0.4-0.4,1-0.4c-0.5-0.3-0.8-0.2-1.2,0c-0.3,0.2-0.5,0.1-0.9,0.1l1.8-1.1l-2.1,0.5
				c0.4-0.5,0.6-0.3,0.9-0.9c0.1-0.1,0.3-0.4,0.6-0.6c-0.4-0.1-0.8,0.1-1.2,0.6c-0.1-0.1-0.4,0.1-0.6,0.1l1.2-1.8
				c0,0-1.2,0.9-1.8,1.2l0,0c0.1-0.5,0.4-0.4,0.5-0.9c-0.1-0.2,0-0.6,0.4-1c-0.5,0.1-0.7,0.5-0.9,1c-0.1,0.2-0.3,0.3-0.6,0.5
				l0.4-2.1l-1.2,1.8c0,0-0.1-0.1-0.1-0.3c0.2-0.4,0.2-0.5,0.1-0.7c-0.1-0.3-0.3-0.6,0-1.1c-0.7,0.4-0.3,1-0.5,1.4
				c-0.1,0.2-0.2,0.4-0.3,0.6l-0.4-2.1l-0.4,2.1c-0.2-0.4-0.1-0.5-0.2-0.8c-0.2-0.4-0.5-0.3-0.5-1.2c-0.1,0.3-0.3,0.5,0.1,1.4
				c0.1,0.1-0.1,0.5,0,0.8l-1.2-1.8l0.4,2.1c-0.3,0-0.4-0.5-0.5-0.6c-0.3-0.2-0.7-0.2-0.9-0.9c-0.1,0.5,0.1,0.8,0.5,1.2
				c0.2,0.2,0.2,0.6,0.4,0.8l-1.8-1.2l1.2,1.8c-0.4,0.1-0.4-0.5-1.2-0.5c-0.5,0-0.8-0.5-0.8-0.3c0.2,0.9,0.9,0.6,1.1,1
				c0.1,0.1,0.3,0.3,0.4,0.5l-2.1-0.5l1.8,1.2c-0.3,0.2-0.7-0.2-1.1-0.1c-0.7,0.4-1,0-1.1,0c0.4,0.5,0.7,0.4,1.1,0.4
				c0.3,0,0.5,0.2,0.9,0.3l-2.1,0.4l2.1,0.4c-0.2,0.2-0.6,0.1-0.9,0.3c-0.6,0.7-1.3,0.4-1.1,0.5c0.5,0.4,0.8,0.3,1.2,0.2
				c-0.2,0.2-0.4,0.3-0.5,0.5c-0.1-0.2-0.1-0.3-0.2-0.3c-0.4,0.6-0.9,0.6-1.1,1.4c0-0.2-0.1-0.4-0.2-0.5c-0.3,0.6-0.8,0.8-0.9,1.5
				c-0.1-0.2-0.1-0.4-0.2-0.4c-0.5,0.8-1,1-0.9,2.1c0.1,0.3,0.1,0.5,0.1,0.6c-0.1-0.4-0.2-0.9-0.5-0.9c-0.3,0.5-0.5,0.8-0.6,1.4
				c-0.1-0.1-0.2-0.1-0.3-0.1c-0.1,0.8-0.7,1.1-0.1,2c0.4,0.3,0.3,0.5,0.3,0.8c-0.1,0-0.1,0.1-0.1,0.1c0.1-0.5-0.4-1.3-0.8-1.4
				c-0.1,0.6-0.4,0.9-0.3,1.4c-0.1-0.1-0.2-0.1-0.3-0.1c0.1,0.8-0.5,1.2,0.2,2c0.4,0.2,0.4,0.5,0.5,0.7c-0.1,0.1-0.1,0.1-0.1,0.2
				c-0.1-0.5-0.6-1.2-1-1.2c0.1,1-0.4,0.9-0.1,1.6c-0.2-0.1-0.3-0.1-0.4-0.1c0.2,0.8-0.1,1.5,0.8,2c0.5,0.2,0.5,0.5,0.6,0.7
				c-0.1,0.1-0.1,0.1-0.1,0.2c-0.2-0.5-0.9-1.2-1.3-1.2c0.2,0.7,0.1,1.3,0.5,1.8c-0.2-0.1-0.5-0.2-0.7-0.2c0.4,0.8,0.2,1.3,0.9,1.9
				c-0.2-0.1-0.5-0.2-0.6-0.1c0.2,0.6,0.1,1,0.4,1.4c-0.1,0-0.2,0.1-0.3,0.1c0.4,0.6,0.3,1.2,0.9,1.6c-0.2,0-0.3,0-0.4,0.1
				c0.3,0.5,0.3,0.9,0.5,1.3c-0.1,0-0.2,0.1-0.2,0.1c0.5,0.5,0.5,1,1.1,1.4c-0.2,0-0.3,0.1-0.4,0.1c0.4,0.4,0.5,0.8,0.9,1.1
				c-0.2,0-0.3,0.1-0.4,0.2c0.6,0.4,0.6,0.9,1.3,1.1c-0.2,0-0.3,0.1-0.4,0.1c0.8,0.6,0.2,0.8,0.9,1c-0.1,0-0.2,0-0.2,0.1
				c0.8,0.4,0.9,1.4,2.6,1.4l0,0c0.8,0.9,3.1,1.9,4.7,2.2L-352.9,298.1L-352.9,298.1z M-342.3,285.3c-0.2,0.5,0,0.9-0.5,1.3
				c-0.4,0.1-0.3,0.2-0.4,0.3c0.1-0.2,0.1-0.4,0.2-0.5c-0.1,0.1-0.2,0.2-0.4,0.4c-0.1-0.1-0.2-0.1-0.4-0.4c-0.2-0.5-0.1-0.6-0.1-1.1
				c0.2,0.4,0.6,0.8,0.6,1.1C-343,285.9-342.5,285.3-342.3,285.3 M-343.2,285.6c0.1-0.1,0.2-0.3,0.5-0.4c-0.2,0.2-0.4,0.4-0.5,0.6
				C-343.2,285.8-343.2,285.7-343.2,285.6 M-342.1,283.5c-0.2,0.6-0.1,0.8-0.6,1.4c-0.4,0.2-0.4,0.2-0.4,0.4
				c0.1-0.2,0.2-0.4,0.3-0.6c-0.2,0.1-0.3,0.2-0.4,0.4c-0.1-0.1-0.2,0-0.4-0.3c-0.2-0.4,0-0.6-0.1-1c0.2,0.3,0.6,0.6,0.6,0.9
				C-342.9,284.2-342.3,283.5-342.1,283.5 M-343,283c0.1-0.4,0.6-1.1,0.8-1.2c-0.2,0.6,0.1,0.8-0.4,1.4c-0.4,0.2-0.3,0.3-0.4,0.4
				c0-0.2,0.1-0.4,0.2-0.6c-0.1,0.1-0.2,0.3-0.3,0.5c-0.1-0.1-0.2,0.1-0.4-0.2c-0.3-0.4-0.1-0.6-0.2-1
				C-343.6,282.5-343.2,282.8-343,283 M-343.7,281.8c0.2,0.2,0.4,0.3,0.4,0.5c-0.1-0.1-0.3-0.2-0.4-0.4
				C-343.7,281.9-343.7,281.8-343.7,281.8 M-342.3,280.1c-0.1,0.6,0.1,0.8-0.4,1.4c-0.4,0.2-0.3,0.2-0.4,0.4
				c0.1-0.2,0.1-0.4,0.2-0.5c-0.1,0.1-0.2,0.2-0.3,0.4c-0.1-0.1-0.2,0-0.4-0.3c-0.3-0.4-0.1-0.6-0.2-1c0.3,0.3,0.7,0.5,0.8,0.8
				C-343,280.8-342.5,280.1-342.3,280.1 M-343.2,280c0-0.4,0.4-1.1,0.6-1.2c-0.1,0.6,0.2,0.8-0.1,1.4c-0.3,0.2-0.2,0.3-0.4,0.4
				c0-0.2,0.1-0.4,0.1-0.6c-0.1,0.1-0.2,0.3-0.2,0.5c-0.1-0.1-0.2,0.1-0.5-0.2c-0.4-0.3-0.2-0.5-0.4-0.9
				C-343.7,279.5-343.3,279.7-343.2,280 M-344.4,287.7c0-0.1,0.1-0.2,0.1-0.3c0,0.1,0,0.1,0,0.1c0.2,0.7,0.4,0.8,0.3,1.2l-0.1,0.1
				C-343.9,288.4-344.1,288-344.4,287.7 M-345.2,291.2c0-0.2-0.1-0.5-0.2-0.7c0.1-0.1,0.1-0.2,0.1-0.2
				C-345.3,290.8-345.1,290.9-345.2,291.2 M-344.5,291.1c-0.3,0.1-0.6,0.2-0.7,0.4c0-0.1,0-0.1,0-0.1
				C-345,291.3-344.9,291.1-344.5,291.1 M-345.9,290.1c0,0-1.8,0.3-4-1.2c0.2-0.2,0.2-0.8,0.2-1.2c-0.1-0.3-0.1-0.1-0.1,0.1
				c-0.2,0.5-0.4,0.6-0.6,0.8c-0.6-0.6-0.8-0.6-1.6-1.2c-0.6-0.3-0.6-0.5-1-0.8c-0.6,0.3-1.5,0.8-1.9,0.5c-0.4-0.2,0.4-0.4,0.8-0.9
				c0.3-0.4,0.6-0.5,1.1-0.4c0.9,0.2,1.4,0.5,2.6,1.1c1.6,0.1,2.8,0.6,4.4,0.9c0.3,0.1,0.7,0.1,0.9,0.1
				C-345.2,288.7-345.4,289.2-345.9,290.1 M-352.9,288.3c0.5,0.5,0.9,0.6,1.2,1.3c-0.1,0.2-0.3,0.2-0.5,0.1
				c-0.7-0.8-1.4-0.9-1.1-1.4c-0.1,0-0.3,0.2-0.2,0.3c0.1,0.6,0.8,0.8,0.9,1.3c-0.1,0.4-0.9,0.1-1.2-1v-0.1c-0.1,0.3-0.3,0.4,0.2,1
				c0.1,0.2,0.2,0.5-0.2,0.4c0.1,0.1-0.2,0-0.1,0h0.1c0,0,0,0-0.1-0.1c0.2-1-0.8-0.8-0.7-0.8c0.1-0.4-0.4-0.7-0.9-0.5
				c0.1-0.3-0.5-0.7-1.2-0.4c-0.1-0.3-0.8-0.5-1.5,0.3c-1.2,0.1-3.1,1.1-4.2,0.6c-0.1,0.1-0.7-1.9-0.8-1.9c1.4-0.1,4.4-0.4,5.5-0.8
				c0.8-0.5,2.5-0.8,2.8-0.6c0,0.3-0.7,0.8-0.4,1.1c0.6,0.6,1.5,0.3,2.2-0.1c0.6,0.7,1.8,0.8,2.2,1.7l-0.1,0.3
				c-0.2,0.2-0.2,0.2-0.5-0.2c-0.6-0.9-1.2-0.6-1.4-1.2C-353.1,287.9-352.9,288.1-352.9,288.3 M-356.1,290.1
				c-0.2,0.1,0.1-0.1,0.2-0.2l0.1-0.1c0.2-0.2,0.5-0.4,0.6-0.1c0.1,0.2-0.7,0.7-0.8,0.8c-0.1,0.1-0.2,0.1-0.2-0.1
				C-356.3,290.2-356.2,290.1-356.1,290.1 M-356.8,290c-0.1,0.1-0.2,0.1-0.4-0.1c-0.1-0.2,0.2-0.4,0.3-0.5c0.1-0.1,0.2-0.1,0.2-0.1
				l0.1-0.1c0.3-0.1,0.3,0,0.4,0.1C-356.1,289.4-356.6,290-356.8,290 M-354.9,290.1c0,0,0.3-0.4,0.5,0.1c0.1,0.2-0.3,0.4-0.6,0.5
				C-355.2,290.7-355.6,290.7-354.9,290.1 M-357.6,289.4c-0.1,0.1-0.4-0.2-0.2-0.2l0.1-0.2c0.2-0.1,0.4-0.2,0.4-0.1
				C-357.2,289-357.5,289.4-357.6,289.4 M-362.7,290.3c-0.1,0.1-0.1,0.2-0.1,0.2C-362.8,290.4-362.8,290.3-362.7,290.3
				C-362.7,290.3-362.7,290.3-362.7,290.3 M-363,291.2c-0.1-0.1-0.2-0.2-0.5-0.3c0.2,0.1,0.3,0.1,0.4,0.2
				C-363,291.1-363,291.1-363,291.2 M-364.1,288.6C-364.1,288.5-364.1,288.5-364.1,288.6c-0.1-0.5,0.1-0.6,0.3-1.2
				c0,0.1,0.1,0.2,0.1,0.3C-364,287.9-364.1,288.3-364.1,288.6 M-364,279c-0.1,0.1-0.2,0.1-0.3,0.2c0.1-0.1,0.2-0.2,0.3-0.3
				C-364,278.9-364,278.9-364,279 M-363.9,283h9.4v2.8c-0.4-0.1-1.2-0.1-1.8,0c-1.7,0.3-1.2,1.2-7.1,1.2
				C-364,285.2-363.9,283-363.9,283 M-358.1,269.4c0.1-0.1,0.2-0.1,0.2-0.5c0.2-0.8,0.6-0.6,1.2-1c0.2,0.2-0.5,1.1-0.8,1.3
				c0.2-0.1,0.6,0.3,0.9,0.4c-0.4,0.1-0.6,0.3-1,0.2c-0.3-0.1-0.3-0.2-0.4-0.4c0.1-0.1,0.2-0.3,0.4-0.4
				C-357.7,269.2-357.9,269.3-358.1,269.4 M-351,269.2c-0.2,0-0.3-0.1-0.5-0.1c0.2-0.1,0.5-0.2,0.6-0.3c0.4,0.1,0.8,0.3,0.8,0.6
				c-0.4-0.1-0.4,0.1-0.9,0.2c-0.5,0.1-0.7-0.2-1.1-0.2c-0.1-0.1-0.2-0.2-0.2-0.2c0.2,0.1,0.4,0.1,0.6,0v0.1
				C-351.4,269.2-351.2,269.2-351,269.2 M-352.5,268.6c0.2,0,0.4-0.1,0.6-0.1c-0.1,0-0.3,0-0.5,0c0.3-0.2,0.5-0.4,0.9-0.4
				c0.5,0,0.5,0.3,0.8,0.2C-350.5,268.5-352.1,269.2-352.5,268.6 M-353.2,268.5c0.2,0.1,0.5,0.5,0.8,0.8c-0.4-0.1-0.6,0-0.9-0.3
				c-0.2-0.2-0.2-0.4-0.2-0.5c0.2-0.1,0.3-0.2,0.4-0.3c-0.2,0.1-0.3,0.2-0.5,0.2c0.1-0.1,0.2-0.1,0.4-0.4c0.5-0.5,0.7-0.2,1.3-0.4
				C-352.2,267.9-352.8,268.4-353.2,268.5 M-354.4,268.6c0.2,0,0.5,0.4,0.9,0.6c-0.4,0-0.6,0.1-0.9-0.1c-0.3-0.2-0.3-0.3-0.4-0.4
				c0.2-0.1,0.2-0.2,0.4-0.4c-0.1,0.1-0.4,0.2-0.5,0.3c0.1-0.1,0.2-0.1,0.3-0.4c0.4-0.5,0.6-0.4,1.2-0.6
				C-353.5,267.8-354,268.5-354.4,268.6 M-355.3,269.3c-0.4,0-0.6,0.2-1,0c-0.3-0.1-0.3-0.3-0.4-0.4c0.1-0.1,0.2-0.2,0.4-0.4
				c-0.1,0.1-0.3,0.2-0.5,0.4c0.1-0.1,0.2-0.1,0.3-0.5c0.4-0.6,0.7-0.4,1.2-0.7c0,0.2-0.5,0.8-0.9,1
				C-355.9,268.8-355.6,269.1-355.3,269.3 M-348.5,271.3c0.1,0,0.1,0,0.2,0C-348.4,271.3-348.4,271.3-348.5,271.3
				C-348.5,271.3-348.5,271.3-348.5,271.3 M-345,276c0.1,0.1,0.2,0.1,0.2,0.2c-0.1,0-0.2-0.1-0.2-0.1C-345,276.1-345,276.1-345,276
				 M-350,286.5c-0.9-0.2-2.1-1.2-3.5-1.2V283h9.3c0,0.3-0.2,2.8-0.6,4.5C-346.7,287.5-348.4,286.5-350,286.5 M-344.1,278.8
				c0.2,0.1,0.3,0.2,0.4,0.3c-0.1-0.1-0.2-0.1-0.4-0.2C-344.1,278.9-344.1,278.9-344.1,278.8 M-343,277.1c-0.1,0.6,0.2,0.8-0.1,1.4
				c-0.3,0.2-0.2,0.3-0.3,0.4c0-0.2,0-0.4,0.1-0.6c-0.1,0.1-0.2,0.3-0.2,0.4c-0.1,0-0.2,0.1-0.5-0.2c-0.4-0.3-0.2-0.5-0.4-0.9
				c0.4,0.3,0.8,0.5,0.9,0.7C-343.6,277.8-343.2,277.1-343,277.1 M-343.9,277c-0.1-0.4,0.2-1.1,0.4-1.2c0.1,0.6,0.4,0.8,0.1,1.4
				c-0.2,0.2-0.2,0.3-0.2,0.4c-0.1-0.2-0.1-0.4,0-0.6c-0.1,0.2-0.2,0.3-0.2,0.5c-0.1,0-0.2,0.1-0.5-0.1c-0.4-0.2-0.3-0.5-0.6-0.9
				C-344.6,276.7-344.1,276.8-343.9,277 M-344.4,274.1c0.1,0.6,0.4,0.8,0.1,1.4c-0.3,0.2-0.2,0.3-0.2,0.4c-0.1-0.2-0.1-0.4,0-0.6
				c-0.1,0.1-0.2,0.3-0.2,0.5c-0.1,0-0.2,0.1-0.5-0.2c-0.4-0.3-0.4-0.5-0.6-0.9c0.3,0.2,0.9,0.4,1.1,0.6
				C-344.8,274.9-344.6,274.2-344.4,274.1 M-345.1,272.9c0.2,0.6,0.5,0.7,0.4,1.3c-0.2,0.2-0.1,0.4-0.2,0.5
				c-0.1-0.2-0.1-0.4-0.1-0.6c-0.1,0.2-0.1,0.3-0.1,0.5c-0.1,0-0.2,0.1-0.5-0.1c-0.5-0.2-0.5-0.5-0.8-0.8c0.4,0.2,0.9,0.3,1.2,0.5
				C-345.4,273.7-345.3,273-345.1,272.9 M-345.6,273.8c-0.1-0.1-0.2-0.2-0.3-0.2C-345.8,273.6-345.7,273.7-345.6,273.8L-345.6,273.8
				 M-346.3,271.3c0.2,0.6,0.5,0.5,0.4,1.2c-0.1,0.4-0.1,0.4-0.1,0.6c-0.1-0.2-0.2-0.4-0.2-0.6c0,0.2,0,0.4,0.1,0.6
				c-0.1,0-0.2,0.2-0.5,0.1c-0.4-0.1-0.5-0.4-0.8-0.6c0.4,0.1,0.9,0,1,0.2C-346.4,272.3-346.4,271.5-346.3,271.3 M-347.2,271.6
				c-0.2-0.4-0.2-1.1-0.1-1.3c0.3,0.5,0.5,0.4,0.6,1.1c-0.1,0.3,0,0.4,0,0.6c-0.1-0.2-0.2-0.4-0.3-0.6c0,0.2,0,0.3,0.1,0.5
				c-0.1,0.1-0.1,0.2-0.5,0.1c-0.5-0.1-0.5-0.3-0.9-0.5C-347.8,271.6-347.4,271.5-347.2,271.6 M-348.7,269.1
				c0.4,0.5,0.7,0.5,0.8,1.2c-0.1,0.4,0,0.4,0.1,0.5c-0.1-0.2-0.2-0.4-0.3-0.5c0,0.2,0.1,0.4,0.1,0.5c-0.1,0-0.1,0.2-0.5,0.2
				c-0.5,0-0.5-0.3-0.9-0.5c0.4,0,0.9-0.2,1.1-0.1C-348.7,270.1-348.8,269.3-348.7,269.1 M-349,268.7c0,0.1-0.1,0.1-0.1,0.2
				c-0.1-0.1-0.1-0.2-0.2-0.2C-349.1,268.7-349,268.7-349,268.7 M-349.1,269.2c-0.1,0.4,0.1,0.4,0.1,0.6c-0.1,0-0.1,0-0.1,0
				c-0.1-0.2-0.3-0.4-0.4-0.4c0.1,0.3,0.1,0.4,0.2,0.6c-0.1,0.1-0.1,0.1-0.3,0.1c-0.5,0.1-0.6-0.1-0.9-0.2c0.4-0.2,0.5-0.4,0.9-0.2
				c0,0,0-0.1-0.1-0.1l0,0l0,0c-0.1-0.1-0.2-0.2-0.3-0.4c-0.2-0.3-0.3-0.6-0.2-0.7C-349.7,268.8-349.3,268.6-349.1,269.2
				 M-349.4,268.2h-0.5c-0.1-0.1-0.1-0.1-0.2-0.1C-349.8,268.1-349.5,268.2-349.4,268.2 M-357.5,267.9c0.4-0.2,0.5-0.4,0.5-0.4
				l-1.3-0.4l1.3-0.3c0,0-0.1-0.1-0.8-0.3c-0.2-0.1,0-0.2-0.6-0.4c0.2-0.1,0.2,0,0.6,0.1c0.3,0,0.5,0.1,1-0.1c0,0-0.8-0.6-1.3-0.9
				c0,0,0.9,0.2,1.5,0.4c0-0.1-0.5-0.5-0.9-0.9c-0.1-0.1-0.1-0.2-0.2-0.2c0.4,0.1,0.4,0.2,0.6,0.4c0.2,0.1,0.6,0.3,0.8,0.3
				c-0.4-0.5-0.9-1.3-0.9-1.3l1.4,0.9c-0.1-0.4-0.3-0.6-0.4-0.8c-0.2-0.6-0.1-0.5-0.2-0.8c0.4,0.5,0.5,0.9,1.1,1.2l-0.2-1.7l0.8,1.5
				c0.1-0.2,0-0.6-0.1-0.8c0.1-0.8,0.1-0.3,0-0.9c0.1,0.3,0.1,0.2,0.1,0.6c0.2,0.4,0.2,0.6,0.5,0.9l0.4-1.6l0.2,1.6
				c0.2-0.4,0.2-0.5,0.3-0.8c0.2-0.2,0.3-0.6,0.3-0.6c-0.1,0.6-0.1,0.4-0.2,0.8c0,0.4,0,0.8,0.1,0.9l1-1.4l-0.4,1.6
				c0.1-0.1,0.5-0.5,0.9-0.8c0.1-0.1,0.3-0.4,0.3-0.4c-0.2,0.3-0.3,0.5-0.4,0.7c-0.2,0.4-0.1,0.2-0.3,0.8l1.4-0.9l-0.9,1.4
				c0,0,0.1,0.1,0.7-0.3c0.4-0.1,0.6-0.2,0.9-0.4c-0.5,0.4-0.6,0.3-1.3,1.2l1.6-0.3c0,0-1.3,0.8-1.4,0.8c0.1,0.1,0.6-0.1,1,0
				c0.4,0,0.4,0,0.7-0.1c-0.4,0.1-0.5,0.1-1,0.2c-0.2,0.1-0.6,0.2-0.6,0.4l1.6,0.3c0,0-1.5,0.4-1.8,0.5c-0.1,0-0.2,0-0.3,0
				c-0.1,0-0.1,0-0.2,0c0.1-0.1,0.1-0.2,0.1-0.4c-0.5,0.1-1,0-1.4,0.1c0.1-0.1,0.1-0.2,0-0.3c-0.6,0.3-1.2,0.2-1.8,0.6
				c0-0.1,0-0.3-0.1-0.4c-0.6,0.3-1.1,0.1-1.5,0.5c0-0.1,0-0.2,0-0.3c-0.6,0.2-1.1,0.3-1.5,0.8c-0.1,0-0.2-0.1-0.4-0.1
				c0,0,0-0.1-0.1-0.1l0,0.1c-0.1,0-0.2,0-0.3,0C-358,268-357.7,268-357.5,267.9 M-359.3,269.8c0.2-0.6,0.5-0.5,0.9-0.9
				c0.1,0.2-0.2,0.9-0.5,1.2c0.2-0.1,0.6,0.2,1.1,0.2c-0.4,0.1-0.5,0.4-0.9,0.3c-0.4-0.1-0.4-0.2-0.5-0.2c0.1-0.1,0.2-0.3,0.2-0.5
				c-0.1,0.2-0.2,0.3-0.4,0.4C-359.4,270.1-359.3,270.1-359.3,269.8 M-358.5,269.8L-358.5,269.8
				C-358.6,269.8-358.6,269.8-358.5,269.8L-358.5,269.8z M-360.3,270.6c0.1-0.7,0.4-0.6,0.8-1.1c0.1,0.2-0.1,1-0.3,1.3
				c0.2-0.1,0.6,0.1,1.1,0.1c-0.4,0.2-0.4,0.4-0.9,0.4c-0.4,0-0.4-0.1-0.5-0.2c0.1-0.2,0.1-0.4,0.1-0.5c-0.1,0.2-0.2,0.3-0.3,0.5
				C-360.3,270.9-360.2,270.9-360.3,270.6 M-360.6,271.1c0,0.1-0.1,0.2-0.1,0.2l0,0C-360.7,271.3-360.6,271.2-360.6,271.1
				 M-361.5,271.5c0.1-0.7,0.2-0.7,0.6-1.2c0.1,0.2,0.1,0.9-0.1,1.3c0.2-0.1,0.6,0,1,0c-0.4,0.2-0.4,0.5-0.8,0.5
				c-0.4,0.1-0.4-0.1-0.5-0.1c0.1-0.2,0.1-0.4,0.1-0.5c-0.1,0.2-0.1,0.3-0.3,0.5C-361.4,271.9-361.4,271.9-361.5,271.5 M-362,271.4
				c0.1,0.2,0.1,1-0.1,1.3c0.2-0.2,0.6-0.1,1-0.2c-0.4,0.2-0.4,0.5-0.8,0.6c-0.3,0.1-0.3-0.1-0.5-0.1c0.1-0.2,0.1-0.4,0.1-0.5
				c-0.1,0.2-0.1,0.4-0.2,0.6c0-0.2,0.1-0.2-0.1-0.5C-362.4,272-362.2,272-362,271.4 M-362.6,273.9c0.1-0.1,0.1-0.1,0.2-0.1
				C-362.5,273.7-362.6,273.9-362.6,273.9C-362.6,273.9-362.6,273.9-362.6,273.9 M-363.1,273c0.2,0.1,0.3,0.8,0.1,1.2
				c0.2-0.2,0.7-0.3,1.2-0.5c-0.3,0.4-0.3,0.6-0.8,0.8c-0.4,0.2-0.5,0.1-0.5,0.1c0-0.2,0-0.3-0.1-0.5c0,0.2-0.1,0.3-0.1,0.5
				c0-0.1,0.1-0.2-0.2-0.4C-363.6,273.7-363.2,273.6-363.1,273 M-364,275.5c-0.3-0.6,0.1-0.8,0.1-1.3c0.2,0.1,0.4,0.8,0.3,1.2
				c0.2-0.2,0.6-0.4,1-0.6c-0.2,0.4-0.2,0.6-0.6,0.9c-0.3,0.2-0.4,0.1-0.5,0.2c0-0.2-0.1-0.3-0.2-0.5c0.1,0.2,0,0.4,0,0.5
				C-363.7,275.8-363.7,275.7-364,275.5 M-363.1,276c0,0.1-0.1,0.1-0.1,0.1c-0.2,0.1-0.3,0.2-0.5,0.2
				C-363.5,276.3-363.3,276.2-363.1,276 M-364.5,275.9c0.2,0.1,0.4,0.8,0.4,1.2c0.2-0.2,0.6-0.3,1-0.5c-0.2,0.4-0.2,0.6-0.6,0.8
				c-0.3,0.2-0.4,0.1-0.5,0.2c0-0.2-0.1-0.3-0.1-0.5c0.1,0.2,0,0.4,0,0.6c0-0.1,0-0.2-0.2-0.4C-364.9,276.5-364.5,276.4-364.5,275.9
				 M-365,278.4c-0.3-0.5,0-0.8-0.1-1.3c0.2,0.1,0.6,0.8,0.6,1.1c0.1-0.2,0.6-0.4,0.9-0.7c-0.2,0.4-0.1,0.6-0.4,0.9
				c-0.2,0.2-0.4,0.2-0.5,0.2c-0.1-0.2-0.1-0.3-0.2-0.4c0.1,0.2,0.1,0.4,0.1,0.6C-364.6,278.7-364.6,278.5-365,278.4 M-365.5,278.8
				c0.2,0.1,0.6,0.8,0.6,1.2c0.1-0.2,0.6-0.4,0.9-0.6c-0.2,0.4-0.1,0.6-0.4,0.9c-0.2,0.2-0.4,0.2-0.5,0.2c-0.1-0.2-0.1-0.3-0.2-0.4
				c0.1,0.2,0.1,0.3,0.1,0.6c-0.1-0.1,0-0.2-0.3-0.4C-365.8,279.5-365.5,279.3-365.5,278.8 M-364.9,281.6c-0.1-0.2-0.2-0.3-0.3-0.4
				c0.1,0.2,0.2,0.4,0.2,0.6c-0.1-0.1-0.1-0.2-0.4-0.4c-0.5-0.5-0.3-0.6-0.4-1.2c0.2,0,0.7,0.6,0.8,1c0.1-0.2,0.5-0.5,0.8-0.8
				c-0.1,0.4,0.1,0.6-0.2,0.9C-364.6,281.6-364.8,281.5-364.9,281.6 M-364.4,281.7v0.2c-0.2,0.1-0.3,0.2-0.4,0.4
				C-364.7,282-364.6,281.9-364.4,281.7 M-365.8,281.9c0.2,0.1,0.8,0.6,0.8,1c0.1-0.2,0.5-0.5,0.7-0.8c-0.1,0.4,0.1,0.6-0.2,0.9
				c-0.2,0.2-0.4,0.2-0.4,0.2c0-0.2-0.2-0.3-0.3-0.4c0.1,0.2,0.2,0.4,0.2,0.6c-0.1-0.1-0.1-0.2-0.4-0.4
				C-365.9,282.6-365.6,282.5-365.8,281.9 M-365,284L-365,284c-0.1-0.1-0.3-0.3-0.5-0.6C-365.2,283.6-365.1,283.8-365,284
				 M-365.9,283.6c0.2,0,0.8,0.5,0.9,0.9c0-0.2,0.4-0.5,0.6-0.9c0,0.4,0.2,0.7-0.1,1c-0.1,0.3-0.3,0.2-0.4,0.3
				c-0.1-0.1-0.3-0.2-0.4-0.4c0.1,0.2,0.2,0.4,0.3,0.5c-0.1-0.1-0.1-0.2-0.4-0.4C-366.1,284-365.3,284.9-365.9,283.6 M-364.8,285.5
				c0,0.1,0,0.1,0,0.1c-0.1-0.2-0.3-0.4-0.5-0.6C-365.1,285.2-365,285.4-364.8,285.5 M-364.9,286.1c0.1-0.3,0.4-0.6,0.6-1.1
				c-0.1,0.4,0.1,0.6-0.1,1.1c-0.2,0.4-0.3,0.4-0.4,0.4c-0.1-0.2-0.2-0.2-0.4-0.4c0.1,0.1,0.2,0.3,0.2,0.5c-0.1-0.1-0.1-0.2-0.4-0.3
				c-0.5-0.4-0.3-0.5-0.5-1.1C-365.5,285.3-365,285.8-364.9,286.1 M-365.6,286.6c0.2-0.1,0.8,0.4,1,0.7c0-0.2,0.3-0.6,0.5-1.1
				c0,0.4,0.2,0.6,0.1,1.1c-0.1,0.3-0.2,0.3-0.3,0.5c-0.1-0.1-0.2-0.2-0.4-0.3c0.1,0.1,0.2,0.3,0.4,0.5c-0.2-0.1-0.2-0.2-0.5-0.2
				C-365.5,287.4-365.3,287.1-365.6,286.6 M-364,289c0-0.2,0.3-0.6,0.4-1c0,0.4,0.2,0.6,0.1,1c-0.1,0.4-0.2,0.4-0.3,0.4
				c-0.1-0.1-0.2-0.2-0.4-0.2c0.1,0.1,0.2,0.2,0.3,0.4c-0.1-0.1-0.1-0.2-0.5-0.2c-0.6-0.3-0.4-0.6-0.7-1.1
				C-364.9,288.2-364.2,288.6-364,289 M-364.7,289.5c0.2-0.1,0.9,0.2,1.2,0.5c-0.1-0.2,0.2-0.7,0.3-1.1c0.1,0.4,0.3,0.5,0.2,1
				c-0.1,0.4-0.2,0.4-0.2,0.5c-0.1-0.1-0.3-0.2-0.5-0.2c0.2,0.1,0.3,0.2,0.4,0.3c-0.1-0.1-0.1-0.2-0.5-0.1
				C-364.4,290.3-364.3,290-364.7,289.5 M-364,291c0.2-0.1,0.9,0.2,1.2,0.6c-0.1-0.2,0.2-0.6,0.3-1c0.1,0.4,0.3,0.5,0.2,1
				c-0.1,0.4-0.2,0.4-0.2,0.5c-0.1-0.1-0.3-0.2-0.5-0.2c0.2,0,0.3,0.2,0.4,0.4c-0.1-0.1-0.1-0.2-0.5-0.1
				C-363.7,291.8-363.6,291.4-364,291 M-363.4,292.2c0.2-0.1,1,0.1,1.3,0.4c-0.1-0.2,0.1-0.6,0.1-1c0.2,0.4,0.4,0.5,0.4,0.9
				c0,0.4-0.2,0.4-0.2,0.5c-0.2-0.1-0.3-0.1-0.5-0.1c0.2,0.1,0.4,0.2,0.5,0.3c-0.1-0.1-0.2-0.1-0.5-0.1
				C-363,292.9-363,292.6-363.4,292.2 M-361.6,293.4c0,0.1,0.1,0.1,0.1,0.2c-0.2-0.1-0.4-0.2-0.6-0.3
				C-362,293.3-361.8,293.4-361.6,293.4 M-362.7,293.5c0.2-0.1,1,0.2,1.3,0.5c-0.1-0.2,0.1-0.6,0.2-1.1c0.2,0.4,0.4,0.5,0.4,0.9
				c0,0.4-0.2,0.4-0.2,0.5c-0.2-0.1-0.4-0.1-0.5-0.2c0.2,0.1,0.3,0.2,0.5,0.4c-0.1-0.1-0.2-0.1-0.5-0.1
				C-362.3,294.2-362.2,293.9-362.7,293.5 M-359.7,295.6c-0.1-0.1-0.3-0.2-0.5-0.2c-0.7-0.1-0.9-0.5-1.5-0.8
				c0.2-0.1,1.1,0.1,1.4,0.3c-0.1-0.2,0-0.6-0.1-1c0.2,0.4,0.5,0.4,0.5,0.8c0.1,0.3,0.1,0.5,0.1,0.8c-0.1-0.1-0.2-0.2-0.4-0.2
				C-359.9,295.3-359.8,295.4-359.7,295.6 M-360.5,294.5L-360.5,294.5L-360.5,294.5L-360.5,294.5z M-355.9,297.5
				c-1.6-0.5-2.9-1.2-3.3-1.8c-0.1-0.3-0.2-0.6-0.2-1.1c0,0,0,0,0-0.1c1.1,0.9,2.3,1.6,3.6,1.9h-0.1
				C-356.4,297-356.2,297.3-355.9,297.5 M-354.1,296.2c-4.3-0.1-6.9-3.6-7.8-5.3c-0.2-0.2,2.5-1,3-1.2l0.7-0.2
				c0,0.3,0.6,0.4,0.5,0.3c0.1,0.1-0.1,0.3,0.3,0.5c0.3,0.2,0.6,0.1,0.6,0.1c-0.2,0.2,0.5,0.6,1,0.4c-0.1,0.2,0.3,0.3,0.4,0.3
				c0.2,0.1,0.5,0.2,0.8,0v2.3c0.1,0.5,0.1,0.5,0.3,0.6c0.9,0.1,0.8-0.2,0.9-0.5c-0.1-1.1-0.1-2.5-0.1-2.5c0.6-0.1,0.5-0.2,0.8-0.3
				c0.3,0.1,0.4,0.1,0.6-0.3c0.4,0.1,0.6-0.1,0.8-0.3c0.3,0.1,0.7-0.2,0.9-0.7c0.6,0.2,2.9,1.4,4,1.8
				C-346.9,292-349.5,296.2-354.1,296.2 M-346.6,293.7c0.1-0.1,0.2-0.1,0.3-0.1c-0.2,0.1-0.3,0.1-0.4,0.2
				C-346.7,293.8-346.6,293.7-346.6,293.7 M-347.7,294.8L-347.7,294.8L-347.7,294.8 M-348.8,294.8c-0.1,0.4-0.1,0.7-0.2,1
				c-0.4,0.8-2.4,1.4-3.2,1.6c0.2-0.2,0.4-0.7,0.1-0.9h-0.1C-351,296.2-349.8,295.6-348.8,294.8
				C-348.8,294.8-348.8,294.8-348.8,294.8 M-347.8,295.5c-0.3-0.1-0.5,0.1-0.7,0.2c0.1-0.2,0.2-0.4,0.4-0.5
				c-0.2,0.1-0.3,0.1-0.4,0.2c0-0.2,0-0.4,0.1-0.6c0.1-0.4,0.4-0.5,0.6-0.8c-0.1,0.4,0.1,0.8-0.1,1c0.4-0.2,1.3-0.4,1.5-0.3
				C-347.1,295.1-347.1,295.5-347.8,295.5 M-346.7,294.6c-0.3-0.1-0.4,0.1-0.5,0.1c0.2-0.1,0.4-0.2,0.5-0.4
				c-0.2,0.1-0.3,0.1-0.5,0.2c-0.1-0.1-0.2-0.1-0.2-0.5c0-0.5,0.2-0.5,0.4-0.9c0.1,0.4,0.2,0.8,0.1,1c0.3-0.3,1.2-0.6,1.4-0.5
				C-346,294.1-346,294.4-346.7,294.6 M-345.9,293.3c-0.4-0.1-0.4,0-0.5,0.1c0.2-0.1,0.3-0.3,0.5-0.3c-0.2,0-0.4,0.1-0.5,0.1
				c-0.1-0.1-0.2-0.1-0.2-0.5c0-0.5,0.2-0.5,0.4-0.9c0.1,0.4,0.2,0.8,0.1,1.1c0.3-0.3,1.1-0.5,1.3-0.4
				C-345.2,292.8-345.1,293.2-345.9,293.3 M-345.1,292.3c-0.4,0-0.4,0.1-0.5,0.1c0.1-0.2,0.2-0.3,0.4-0.4c-0.2,0.1-0.4,0.1-0.5,0.2
				c-0.1-0.1-0.2-0.1-0.3-0.5c-0.1-0.5,0.1-0.6,0.2-1c0.1,0.4,0.3,0.8,0.3,1.1c0.2-0.3,1-0.7,1.2-0.6
				C-344.6,291.7-344.4,292.1-345.1,292.3 M-344.3,290.7c-0.4-0.1-0.4,0.1-0.5,0.1c0.1-0.2,0.2-0.3,0.4-0.4
				c-0.2,0.1-0.4,0.1-0.5,0.2c-0.1-0.1-0.2-0.1-0.2-0.5c-0.1-0.5,0.2-0.6,0.2-1c0.1,0.4,0.3,0.9,0.3,1.1c0.2-0.3,1-0.6,1.2-0.5
				C-343.7,290.2-343.7,290.5-344.3,290.7 M-343.7,289.5c-0.4,0-0.4,0.1-0.5,0.2c0.1-0.2,0.2-0.4,0.4-0.5c-0.2,0.1-0.3,0.1-0.4,0.3
				c-0.1-0.1-0.2-0.1-0.3-0.5c-0.2-0.5,0.1-0.6,0.1-1.1c0.2,0.4,0.5,0.8,0.5,1.1c0.2-0.4,0.9-0.8,1-0.7
				C-343.3,289-343.2,289.3-343.7,289.5 M-343.6,288.4c0.1-0.1,0.2-0.1,0.3-0.1C-343.4,288.3-343.5,288.3-343.6,288.4 M-343.2,287.9
				c-0.4,0-0.4,0.1-0.5,0.2c0.1-0.2,0.2-0.3,0.4-0.5c-0.2,0.1-0.3,0.1-0.4,0.2c-0.1-0.1-0.2-0.1-0.4-0.4c-0.2-0.5,0.1-0.6,0.1-1
				c0.2,0.4,0.5,0.8,0.5,1.1c0.2-0.3,0.8-0.8,1-0.8C-342.8,287.3-342.6,287.6-343.2,287.9"/>
		</g>
		<g>
			<path class="st6" d="M-357.5,267.9c0.4-0.2,0.5-0.4,0.5-0.4l-1.3-0.4l1.3-0.3c0,0-0.1-0.1-0.8-0.3c-0.2-0.1,0-0.2-0.6-0.4
				c0.2-0.1,0.2,0,0.6,0.1c0.3,0,0.5,0.1,1-0.1c0,0-0.8-0.6-1.3-0.9c0,0,0.9,0.2,1.5,0.4c0-0.1-0.5-0.5-0.9-0.9
				c-0.1-0.1-0.1-0.2-0.2-0.2c0.4,0.1,0.4,0.2,0.6,0.4c0.2,0.1,0.6,0.3,0.8,0.3c-0.4-0.5-0.9-1.3-0.9-1.3l1.4,0.9
				c-0.1-0.4-0.3-0.6-0.4-0.8c-0.2-0.6-0.1-0.5-0.2-0.8c0.4,0.5,0.5,0.9,1.1,1.2l-0.2-1.7l0.8,1.5c0.1-0.2,0-0.6-0.1-0.8
				c0.1-0.8,0.1-0.3,0-0.9c0.1,0.3,0.1,0.3,0.1,0.6c0.2,0.4,0.2,0.6,0.5,0.9l0.4-1.6l0.2,1.6c0.2-0.4,0.2-0.5,0.3-0.8
				c0.2-0.2,0.3-0.6,0.3-0.6c-0.1,0.6-0.1,0.4-0.2,0.8c0,0.4,0,0.8,0.1,0.9l1-1.4l-0.4,1.6c0.1-0.1,0.5-0.5,0.9-0.8
				c0.1-0.1,0.3-0.4,0.3-0.4c-0.2,0.3-0.3,0.5-0.4,0.7c-0.2,0.4-0.1,0.2-0.3,0.8l1.4-0.9l-0.9,1.4c0,0,0.1,0.1,0.7-0.3
				c0.4-0.1,0.6-0.2,0.9-0.4c-0.5,0.4-0.6,0.3-1.3,1.2l1.6-0.3c0,0-1.3,0.8-1.4,0.8c0.1,0.1,0.6-0.1,1,0c0.4,0,0.4,0,0.7-0.1
				c-0.4,0.1-0.5,0.1-0.9,0.2c-0.2,0.1-0.6,0.2-0.6,0.4l1.6,0.3c0,0-1.5,0.4-1.8,0.5c-0.1,0-0.2,0-0.3,0c-0.1,0-0.1,0-0.2,0
				c0.1-0.1,0.1-0.2,0.1-0.4c-0.5,0.1-1,0-1.4,0.1c0.1-0.1,0.1-0.2,0-0.3c-0.6,0.3-1.2,0.2-1.8,0.6c0-0.1,0-0.3-0.1-0.4
				c-0.6,0.3-1.1,0.1-1.5,0.5c0-0.1,0-0.2,0-0.3c-0.6,0.2-1,0.3-1.4,0.8c-0.1,0-0.2-0.1-0.4-0.1l-0.1-0.1l-0.1,0.1
				c-0.1,0-0.2,0-0.3,0C-358,268-357.7,268-357.5,267.9"/>
		</g>
		<g>
			<path class="st5" d="M-351.8,266.2h0.2c0,0-0.1-0.7-1.4-0.6h-0.3l-0.1,0.4l0.9-0.1C-352.6,265.9-352,265.8-351.8,266.2"/>
		</g>
		<g>
			<path class="st5" d="M-353.3,266.6c0-0.1,0.2-0.2,0.2-0.2h0.1c0,0.1,0,0.1,0,0.1c0,0.1,0.1,0.2,0.2,0.3c0.1,0,0.2,0,0.2,0
				c0.1-0.1,0.2-0.2,0.2-0.3c0-0.1,0-0.1,0-0.1c0.1,0,0.2,0.1,0.3,0.2h0.3c0,0-0.2-0.7-1.4-0.5c0,0-0.3,0.4-0.3,0.5
				C-353.6,266.7-353.3,266.7-353.3,266.6"/>
		</g>
		<g>
			<path class="st5" d="M-356.1,266.6l0.3-0.1c0.1-0.1,0.2-0.2,0.3-0.2c0,0.1,0,0.1,0,0.1c0,0.2,0.1,0.3,0.2,0.3c0,0,0.2,0,0.2,0
				c0.1-0.1,0.2-0.2,0.2-0.3c0,0,0,0,0-0.1c0.1,0,0.1,0,0.1,0l0.2,0.2c0,0.1,0.3,0.1,0.3,0s-0.3-0.5-0.3-0.5
				C-355.9,266-356.1,266.6-356.1,266.6"/>
		</g>
		<g>
			<path class="st5" d="M-355.3,265.9l0.9,0.1c0,0-0.1-0.4-0.1-0.4h-0.2c-1.4-0.1-1.5,0.6-1.5,0.6h0.2
				C-355.9,265.8-355.3,265.9-355.3,265.9"/>
		</g>
		<g>
			<path class="st7" d="M-342.3,285.3c-0.2,0.5,0,0.9-0.5,1.3c-0.3,0.1-0.3,0.2-0.4,0.3c0.1-0.2,0.1-0.4,0.2-0.5
				c-0.1,0.1-0.2,0.2-0.4,0.4c-0.1-0.1-0.2-0.1-0.4-0.4c-0.2-0.5-0.1-0.6-0.2-1.1c0.2,0.4,0.6,0.8,0.6,1.1
				C-343,285.9-342.5,285.3-342.3,285.3"/>
		</g>
		<g>
			<path class="st7" d="M-342.1,283.5c-0.2,0.6-0.1,0.8-0.6,1.4c-0.4,0.2-0.4,0.2-0.4,0.4c0.1-0.2,0.2-0.4,0.3-0.6
				c-0.2,0.1-0.3,0.2-0.4,0.4c-0.1-0.1-0.2,0-0.4-0.3c-0.2-0.4,0-0.6-0.1-1c0.2,0.3,0.6,0.6,0.6,0.9
				C-342.9,284.2-342.3,283.5-342.1,283.5"/>
		</g>
		<g>
			<path class="st7" d="M-343,283c0.1-0.4,0.6-1.1,0.8-1.2c-0.2,0.6,0.1,0.8-0.4,1.4c-0.4,0.2-0.3,0.3-0.4,0.4
				c0.1-0.2,0.1-0.4,0.2-0.6c-0.1,0.1-0.2,0.3-0.4,0.4c-0.1-0.1-0.2,0.1-0.4-0.2c-0.3-0.4-0.1-0.6-0.2-1
				C-343.5,282.5-343.2,282.8-343,283"/>
		</g>
		<g>
			<path class="st7" d="M-342.3,280.1c-0.2,0.6,0.1,0.8-0.4,1.4c-0.4,0.2-0.3,0.2-0.4,0.4c0.1-0.2,0.1-0.4,0.2-0.5
				c-0.1,0.1-0.2,0.2-0.3,0.4c-0.1-0.1-0.2,0-0.5-0.3c-0.3-0.4-0.1-0.5-0.2-1c0.3,0.3,0.7,0.5,0.8,0.8
				C-343,280.8-342.5,280.1-342.3,280.1"/>
		</g>
		<g>
			<path class="st7" d="M-343.2,280c0-0.4,0.4-1.1,0.6-1.2c-0.1,0.6,0.2,0.8-0.1,1.4c-0.3,0.2-0.2,0.3-0.3,0.4c0-0.2,0-0.4,0.1-0.6
				c-0.1,0.1-0.2,0.3-0.2,0.5c-0.1,0-0.2,0.1-0.5-0.2c-0.4-0.3-0.2-0.5-0.4-0.9C-343.7,279.5-343.3,279.7-343.2,280"/>
		</g>
		<g>
			<path class="st7" d="M-358.1,269.4c0.1-0.1,0.2-0.1,0.2-0.5c0.2-0.8,0.6-0.6,1.2-1c0.2,0.2-0.5,1.1-0.8,1.3
				c0.2-0.1,0.6,0.3,0.9,0.4c-0.4,0.1-0.6,0.3-1,0.1c-0.3-0.1-0.3-0.2-0.4-0.3c0.1-0.1,0.2-0.3,0.4-0.5
				C-357.7,269.2-357.9,269.3-358.1,269.4"/>
		</g>
		<g>
			<path class="st7" d="M-351,269.2c-0.2,0-0.3-0.1-0.5-0.1c0.2-0.1,0.5-0.2,0.6-0.3c0.4,0.1,0.8,0.3,0.8,0.6
				c-0.4-0.1-0.4,0.1-0.9,0.2c-0.5,0.1-0.7-0.2-1.1-0.2c-0.1-0.1-0.2-0.2-0.2-0.3c0.2,0.1,0.4,0.1,0.6,0v0.1
				C-351.4,269.2-351.2,269.2-351,269.2"/>
		</g>
		<g>
			<path class="st7" d="M-352.5,268.6c0.2,0,0.4-0.1,0.6-0.1c-0.1,0.1-0.3,0-0.5,0c0.3-0.2,0.5-0.4,0.9-0.4c0.5,0,0.5,0.3,0.9,0.2
				C-350.5,268.5-352.1,269.2-352.5,268.6"/>
		</g>
		<g>
			<path class="st7" d="M-353.2,268.5c0.2,0.1,0.5,0.5,0.8,0.8c-0.4-0.1-0.6,0-0.9-0.3c-0.3-0.2-0.2-0.4-0.2-0.5
				c0.2-0.1,0.3-0.2,0.4-0.3c-0.2,0.1-0.3,0.2-0.5,0.2c0.1-0.1,0.2-0.1,0.4-0.4c0.5-0.5,0.7-0.2,1.3-0.4
				C-352.2,267.9-352.8,268.4-353.2,268.5"/>
		</g>
		<g>
			<path class="st7" d="M-354.4,268.6c0.2,0.1,0.5,0.4,0.9,0.6c-0.4-0.1-0.6,0.1-1-0.1c-0.3-0.2-0.2-0.3-0.3-0.4
				c0.2-0.1,0.2-0.2,0.4-0.4c-0.1,0.1-0.4,0.2-0.5,0.3c0.1-0.1,0.2-0.1,0.3-0.4c0.4-0.5,0.6-0.4,1.2-0.6
				C-353.5,267.9-354,268.5-354.4,268.6"/>
		</g>
		<g>
			<path class="st7" d="M-355.2,269.3c-0.4,0-0.6,0.2-1,0c-0.3-0.1-0.3-0.2-0.4-0.4c0.2-0.1,0.2-0.2,0.4-0.4
				c-0.1,0.1-0.4,0.2-0.5,0.4c0.1-0.1,0.2-0.1,0.3-0.5c0.4-0.6,0.6-0.4,1.2-0.7c0,0.2-0.5,0.9-0.9,1
				C-355.9,268.8-355.6,269.2-355.2,269.3"/>
		</g>
		<g>
			<path class="st7" d="M-343,277.1c-0.1,0.6,0.2,0.8-0.1,1.4c-0.3,0.2-0.2,0.3-0.3,0.4c0-0.2,0-0.4,0.1-0.6
				c-0.1,0.1-0.2,0.3-0.2,0.5c-0.1-0.1-0.2,0-0.5-0.2c-0.4-0.3-0.2-0.5-0.5-0.9c0.4,0.3,0.8,0.5,0.9,0.7
				C-343.6,277.8-343.2,277.1-343,277.1"/>
		</g>
		<g>
			<path class="st7" d="M-343.9,277c-0.1-0.4,0.2-1.1,0.4-1.2c0.1,0.6,0.4,0.8,0.1,1.4c-0.2,0.2-0.2,0.3-0.2,0.4
				c-0.1-0.2-0.1-0.4,0-0.6c-0.1,0.1-0.1,0.3-0.2,0.5c-0.1,0-0.2,0.1-0.5-0.1c-0.4-0.2-0.3-0.5-0.6-0.9
				C-344.6,276.7-344.1,276.8-343.9,277"/>
		</g>
		<g>
			<path class="st7" d="M-344.4,274.1c0.1,0.6,0.4,0.8,0.1,1.4c-0.2,0.2-0.2,0.3-0.2,0.4c-0.1-0.2-0.1-0.4,0-0.6
				c-0.1,0.1-0.2,0.3-0.2,0.5c-0.1,0-0.2,0.1-0.5-0.2c-0.4-0.3-0.4-0.5-0.6-0.9c0.3,0.2,0.9,0.4,1.1,0.6
				C-344.8,274.9-344.6,274.2-344.4,274.1"/>
		</g>
		<g>
			<path class="st7" d="M-345.1,272.9c0.2,0.5,0.5,0.7,0.4,1.3c-0.2,0.2-0.1,0.4-0.2,0.5c-0.1-0.2-0.1-0.4-0.1-0.6
				c-0.1,0.2-0.1,0.3-0.1,0.5c-0.1,0-0.2,0.1-0.5-0.1c-0.5-0.2-0.5-0.5-0.8-0.8c0.4,0.2,0.9,0.3,1.1,0.5
				C-345.4,273.8-345.3,273-345.1,272.9"/>
		</g>
		<g>
			<path class="st7" d="M-346.3,271.3c0.2,0.6,0.5,0.5,0.4,1.2c-0.1,0.4-0.1,0.4-0.1,0.6c-0.1-0.2-0.2-0.4-0.2-0.6
				c0,0.2,0,0.4,0.1,0.6c-0.1,0-0.2,0.2-0.5,0.1c-0.4-0.1-0.5-0.4-0.8-0.6c0.4,0.1,0.9,0,1,0.2
				C-346.4,272.3-346.4,271.5-346.3,271.3"/>
		</g>
		<g>
			<path class="st7" d="M-347.2,271.6c-0.2-0.4-0.3-1.1-0.1-1.3c0.3,0.5,0.5,0.4,0.5,1.1c-0.1,0.3,0,0.4,0,0.5
				c-0.1-0.2-0.2-0.4-0.3-0.5c0,0.2,0,0.3,0.1,0.5c-0.1,0.1-0.1,0.2-0.5,0.1c-0.5-0.1-0.5-0.3-0.9-0.5
				C-347.8,271.6-347.4,271.5-347.2,271.6"/>
		</g>
		<g>
			<path class="st7" d="M-348.7,269.1c0.4,0.5,0.7,0.5,0.8,1.2c-0.1,0.4,0,0.4,0,0.5c-0.1-0.2-0.2-0.4-0.3-0.5
				c0,0.2,0.1,0.4,0.1,0.5c-0.1,0.1-0.1,0.2-0.5,0.2c-0.5,0-0.5-0.2-0.9-0.5c0.4,0,0.9-0.2,1.1-0.1
				C-348.7,270.1-348.8,269.3-348.7,269.1"/>
		</g>
		<g>
			<path class="st7" d="M-349.1,269.2c-0.1,0.4,0.1,0.3,0.1,0.5c-0.1,0-0.1,0-0.1,0c-0.1-0.2-0.3-0.4-0.4-0.4
				c0.1,0.3,0.1,0.4,0.2,0.6c-0.1,0.1-0.1,0.1-0.3,0.1c-0.6,0.1-0.6-0.1-0.9-0.2c0.4-0.2,0.5-0.3,0.9-0.2c0-0.1,0-0.1-0.1-0.1l0,0
				l0,0c-0.1-0.1-0.2-0.2-0.3-0.4c-0.2-0.3-0.3-0.6-0.2-0.7C-349.7,268.8-349.3,268.6-349.1,269.2"/>
		</g>
		<g>
			<path class="st7" d="M-359.3,269.8c0.2-0.6,0.5-0.5,0.9-0.9c0.1,0.2-0.2,0.9-0.5,1.2c0.2-0.1,0.6,0.2,1.1,0.2
				c-0.4,0.1-0.5,0.4-0.9,0.3c-0.4-0.1-0.4-0.2-0.5-0.2c0.1-0.1,0.2-0.3,0.2-0.5c-0.1,0.2-0.2,0.3-0.4,0.4
				C-359.4,270.1-359.3,270.1-359.3,269.8"/>
		</g>
		<g>
			<path class="st7" d="M-360.3,270.6c0.1-0.6,0.4-0.6,0.8-1.1c0.1,0.2-0.1,1-0.3,1.4c0.2-0.1,0.6,0,1.1,0.1
				c-0.4,0.2-0.4,0.4-0.9,0.4c-0.4,0-0.4-0.1-0.5-0.2c0.1-0.2,0.1-0.4,0.1-0.5c-0.1,0.2-0.2,0.4-0.3,0.5
				C-360.3,270.9-360.2,270.9-360.3,270.6"/>
		</g>
		<g>
			<path class="st7" d="M-361.4,271.5c0.1-0.7,0.2-0.6,0.5-1.2c0.1,0.2,0.1,1-0.1,1.3c0.2-0.1,0.6,0,1,0c-0.4,0.2-0.4,0.5-0.8,0.5
				c-0.4,0-0.4-0.1-0.5-0.1c0.1-0.2,0.1-0.4,0.1-0.5c-0.1,0.2-0.1,0.4-0.3,0.5C-361.4,271.9-361.4,271.9-361.4,271.5"/>
		</g>
		<g>
			<path class="st7" d="M-362,271.4c0.1,0.2,0.2,1-0.1,1.3c0.2-0.2,0.6-0.1,1-0.2c-0.4,0.2-0.4,0.5-0.8,0.6
				c-0.3,0.1-0.4-0.1-0.5-0.1c0.1-0.2,0.1-0.4,0.1-0.5c-0.1,0.2-0.1,0.4-0.2,0.6c0-0.1,0.1-0.2-0.1-0.5
				C-362.4,272-362.2,272-362,271.4"/>
		</g>
		<g>
			<path class="st7" d="M-363,273c0.2,0.1,0.3,0.8,0.1,1.2c0.2-0.2,0.7-0.3,1.1-0.5c-0.3,0.4-0.3,0.6-0.8,0.8
				c-0.4,0.2-0.4,0.1-0.5,0.1c0-0.2,0-0.4-0.1-0.5c0,0.2-0.1,0.4-0.1,0.6c0-0.1,0.1-0.2-0.2-0.5C-363.6,273.7-363.2,273.6-363,273"
				/>
		</g>
		<g>
			<path class="st7" d="M-364,275.5c-0.3-0.6,0.1-0.8,0.1-1.3c0.2,0.1,0.5,0.8,0.3,1.2c0.2-0.2,0.6-0.4,1.1-0.6
				c-0.2,0.4-0.2,0.6-0.6,0.9c-0.3,0.2-0.4,0.1-0.5,0.2c0-0.2-0.1-0.3-0.2-0.5c0.1,0.2,0.1,0.4,0,0.5
				C-363.7,275.9-363.7,275.7-364,275.5"/>
		</g>
		<g>
			<path class="st7" d="M-364.5,275.9c0.2,0.1,0.4,0.8,0.4,1.2c0.2-0.2,0.6-0.3,1.1-0.5c-0.3,0.4-0.2,0.6-0.6,0.8
				c-0.3,0.2-0.5,0.1-0.6,0.2c0-0.2-0.1-0.3-0.2-0.5c0.1,0.2,0,0.4,0,0.6c-0.1-0.1,0.1-0.2-0.2-0.4
				C-364.9,276.5-364.5,276.4-364.5,275.9"/>
		</g>
		<g>
			<path class="st7" d="M-364.9,278.4c-0.3-0.5-0.1-0.8-0.1-1.3c0.2,0,0.6,0.7,0.6,1.1c0.1-0.2,0.6-0.4,0.9-0.7
				c-0.2,0.4-0.1,0.6-0.4,0.9c-0.3,0.2-0.4,0.2-0.5,0.2c-0.1-0.2-0.1-0.3-0.2-0.4c0.1,0.1,0.1,0.4,0.1,0.5
				C-364.6,278.7-364.6,278.6-364.9,278.4"/>
		</g>
		<g>
			<path class="st7" d="M-365.5,278.8c0.2,0.1,0.6,0.8,0.6,1.2c0.1-0.2,0.6-0.4,0.9-0.6c-0.2,0.4-0.1,0.6-0.4,0.9
				c-0.3,0.2-0.4,0.2-0.5,0.2c-0.1-0.2-0.1-0.3-0.2-0.5c0.1,0.2,0.1,0.3,0.1,0.6c-0.1-0.1,0-0.2-0.3-0.4
				C-365.7,279.5-365.5,279.4-365.5,278.8"/>
		</g>
		<g>
			<path class="st7" d="M-364.9,281.6c-0.1-0.2-0.2-0.3-0.3-0.4c0.1,0.2,0.2,0.4,0.2,0.5c-0.1-0.1-0.1-0.2-0.4-0.4
				c-0.5-0.5-0.3-0.6-0.4-1.2c0.2,0,0.8,0.6,0.8,1c0.1-0.2,0.5-0.5,0.8-0.8c-0.1,0.4,0.1,0.6-0.2,0.9
				C-364.6,281.6-364.8,281.5-364.9,281.6"/>
		</g>
		<g>
			<path class="st7" d="M-365.8,281.9c0.2,0.1,0.8,0.6,0.8,1c0.1-0.2,0.5-0.5,0.7-0.8c-0.1,0.4,0.1,0.6-0.2,0.9
				c-0.2,0.3-0.4,0.2-0.4,0.2c0-0.2-0.2-0.3-0.3-0.4c0.1,0.2,0.2,0.4,0.2,0.5c-0.1-0.1-0.1-0.2-0.3-0.4
				C-365.8,282.6-365.6,282.5-365.8,281.9"/>
		</g>
		<g>
			<path class="st7" d="M-365.9,283.6c0.2,0,0.8,0.5,0.9,0.9c0-0.2,0.4-0.5,0.6-0.9c0,0.4,0.2,0.7-0.1,1c-0.2,0.3-0.3,0.2-0.4,0.3
				c-0.1-0.1-0.3-0.2-0.4-0.4c0.1,0.1,0.2,0.4,0.3,0.5c-0.1-0.1-0.1-0.2-0.4-0.4C-366.1,284-365.3,285-365.9,283.6"/>
		</g>
		<g>
			<path class="st7" d="M-364.9,286.1c0-0.2,0.4-0.6,0.6-1.1c-0.1,0.4,0.1,0.6-0.1,1.1c-0.2,0.4-0.3,0.4-0.4,0.4
				c-0.1-0.1-0.2-0.2-0.4-0.4c0.1,0.1,0.2,0.4,0.2,0.5c-0.1-0.1-0.1-0.2-0.4-0.3c-0.5-0.4-0.2-0.5-0.5-1
				C-365.5,285.3-365,285.8-364.9,286.1"/>
		</g>
		<g>
			<path class="st7" d="M-365.6,286.6c0.2-0.1,0.8,0.4,1,0.8c0-0.2,0.3-0.7,0.5-1.1c0,0.4,0.2,0.6,0.1,1.1c-0.1,0.4-0.2,0.4-0.3,0.5
				c-0.1-0.1-0.2-0.2-0.4-0.3c0.2,0.1,0.2,0.3,0.4,0.5c-0.2-0.1-0.2-0.2-0.5-0.2C-365.5,287.4-365.3,287.1-365.6,286.6"/>
		</g>
		<g>
			<path class="st7" d="M-364,289c0-0.2,0.3-0.7,0.5-1.1c0,0.4,0.2,0.6,0.1,1.1c-0.1,0.4-0.2,0.4-0.3,0.5c-0.1-0.1-0.2-0.2-0.4-0.3
				c0.1,0.1,0.2,0.3,0.3,0.5c-0.1-0.1-0.1-0.2-0.5-0.2c-0.6-0.3-0.4-0.6-0.7-1.1C-364.9,288.2-364.2,288.6-364,289"/>
		</g>
		<g>
			<path class="st7" d="M-364.7,289.5c0.2-0.1,0.9,0.2,1.2,0.5c-0.1-0.2,0.2-0.7,0.2-1.1c0.1,0.4,0.4,0.5,0.2,1
				c-0.1,0.4-0.2,0.4-0.2,0.5c-0.1-0.1-0.3-0.2-0.5-0.2c0.2,0.1,0.3,0.2,0.4,0.3c-0.1-0.1-0.1-0.2-0.4-0.1
				C-364.4,290.3-364.3,290-364.7,289.5"/>
		</g>
		<g>
			<path class="st7" d="M-364,291c0.2-0.1,0.9,0.2,1.2,0.6c-0.1-0.2,0.2-0.6,0.3-1c0.1,0.4,0.3,0.5,0.2,1c-0.1,0.4-0.2,0.4-0.2,0.4
				c-0.1-0.1-0.3-0.2-0.5-0.2c0.1,0.1,0.2,0.2,0.4,0.4c-0.1-0.1-0.1-0.2-0.5-0.1C-363.7,291.8-363.6,291.4-364,291"/>
		</g>
		<g>
			<path class="st7" d="M-363.4,292.2c0.2-0.1,1,0.1,1.3,0.4c-0.1-0.2,0.1-0.6,0.1-1c0.2,0.4,0.4,0.5,0.4,0.9c0,0.4-0.2,0.4-0.2,0.5
				c-0.1-0.1-0.4-0.1-0.5-0.1c0.2,0.1,0.4,0.2,0.5,0.3c-0.1-0.1-0.2-0.1-0.5-0.1C-363,292.9-363,292.6-363.4,292.2"/>
		</g>
		<g>
			<path class="st7" d="M-362.7,293.5c0.2-0.1,1,0.2,1.3,0.5c-0.1-0.2,0.1-0.6,0.2-1.1c0.1,0.4,0.4,0.5,0.4,0.9
				c0,0.4-0.2,0.4-0.2,0.5c-0.2-0.1-0.4-0.1-0.5-0.2c0.2,0.1,0.3,0.2,0.5,0.4c-0.1-0.1-0.2-0.2-0.5-0.1
				C-362.3,294.2-362.2,293.9-362.7,293.5"/>
		</g>
		<g>
			<path class="st7" d="M-359.7,295.6c-0.1-0.1-0.3-0.2-0.5-0.2c-0.7-0.1-0.9-0.5-1.4-0.8c0.2-0.1,1,0.1,1.4,0.3
				c-0.1-0.2,0-0.6-0.1-1c0.2,0.3,0.5,0.4,0.5,0.8c0.1,0.4,0.1,0.6,0.1,0.8c-0.1-0.1-0.2-0.2-0.4-0.3
				C-359.9,295.3-359.8,295.5-359.7,295.6"/>
		</g>
		<g>
			<path class="st7" d="M-347.8,295.5c-0.3-0.1-0.5,0.1-0.6,0.2c0.1-0.2,0.2-0.4,0.4-0.5c-0.1,0-0.3,0.1-0.4,0.2
				c0-0.2,0-0.4,0.1-0.6c0.1-0.4,0.3-0.5,0.6-0.8c-0.1,0.4,0.1,0.8-0.1,1c0.3-0.2,1.2-0.4,1.4-0.3
				C-347.1,295.1-347.1,295.5-347.8,295.5"/>
		</g>
		<g>
			<path class="st7" d="M-346.7,294.6c-0.3-0.1-0.4,0.1-0.5,0.1c0.2-0.1,0.3-0.2,0.5-0.4c-0.2,0.1-0.3,0.1-0.5,0.2
				c-0.1-0.1-0.2-0.1-0.2-0.5c0-0.4,0.2-0.5,0.4-0.9c0.1,0.4,0.2,0.8,0.1,1c0.3-0.3,1.2-0.6,1.4-0.5
				C-346,294.1-346,294.5-346.7,294.6"/>
		</g>
		<g>
			<path class="st7" d="M-345.9,293.3c-0.4-0.1-0.4,0-0.5,0.1c0.2-0.1,0.3-0.3,0.5-0.3c-0.2,0-0.4,0.1-0.5,0.1
				c-0.1-0.1-0.2-0.1-0.2-0.5c0-0.5,0.2-0.5,0.4-0.9c0.1,0.4,0.2,0.9,0.1,1.1c0.3-0.3,1.1-0.5,1.3-0.4
				C-345.2,292.8-345.1,293.2-345.9,293.3"/>
		</g>
		<g>
			<path class="st7" d="M-345.1,292.3c-0.4,0-0.4,0.1-0.5,0.1c0.1-0.2,0.2-0.3,0.4-0.4c-0.2,0.1-0.4,0.1-0.5,0.2
				c-0.1,0-0.2,0-0.3-0.4c-0.1-0.5,0.1-0.6,0.2-1c0.1,0.4,0.4,0.8,0.3,1.1c0.2-0.4,1-0.7,1.2-0.6
				C-344.6,291.7-344.4,292.1-345.1,292.3"/>
		</g>
		<g>
			<path class="st7" d="M-344.3,290.7c-0.4-0.1-0.4,0.1-0.5,0.1c0.1-0.2,0.2-0.3,0.4-0.4c-0.2,0.1-0.4,0.1-0.5,0.2
				c-0.1-0.1-0.2-0.1-0.2-0.5c-0.1-0.5,0.1-0.6,0.2-1c0.1,0.4,0.3,0.9,0.3,1.1c0.2-0.4,1-0.6,1.2-0.5
				C-343.7,290.2-343.6,290.5-344.3,290.7"/>
		</g>
		<g>
			<path class="st7" d="M-343.7,289.5c-0.4,0-0.4,0.1-0.5,0.2c0.1-0.2,0.2-0.4,0.4-0.5c-0.2,0.1-0.3,0.1-0.4,0.3
				c-0.1-0.1-0.2-0.1-0.3-0.5c-0.2-0.5,0.1-0.6,0.1-1.1c0.2,0.4,0.5,0.8,0.5,1.1c0.2-0.4,0.9-0.8,1-0.7
				C-343.3,289-343.2,289.3-343.7,289.5"/>
		</g>
		<g>
			<path class="st7" d="M-343.1,287.9c-0.4,0.1-0.4,0.1-0.5,0.2c0.1-0.2,0.2-0.3,0.4-0.5c-0.2,0.1-0.3,0.1-0.4,0.3
				c-0.1-0.1-0.2-0.1-0.4-0.5c-0.2-0.5,0.1-0.6,0.1-1c0.2,0.4,0.5,0.8,0.5,1.1c0.2-0.3,0.8-0.8,1-0.7
				C-342.8,287.3-342.6,287.6-343.1,287.9"/>
		</g>
		<g>
			<path class="st8" d="M-345.9,290.1c0,0-1.8,0.3-4-1.2c0.2-0.2,0.2-0.8,0.2-1.2c-0.1-0.3-0.1-0.1-0.1,0.1
				c-0.2,0.5-0.4,0.6-0.6,0.8c-0.6-0.6-0.8-0.6-1.6-1.2c-0.6-0.4-0.6-0.5-1-0.8c-0.6,0.3-1.5,0.8-1.9,0.5c-0.4-0.2,0.5-0.4,0.8-0.9
				c0.3-0.4,0.6-0.5,1.1-0.4c0.9,0.2,1.4,0.5,2.7,1.1c1.6,0.1,2.8,0.6,4.5,0.9c0.3,0.1,0.7,0.1,0.9,0.1
				C-345.2,288.7-345.4,289.2-345.9,290.1"/>
		</g>
		<g>
			<path class="st8" d="M-352.9,288.3c0.5,0.5,0.9,0.6,1.2,1.3c-0.1,0.2-0.3,0.2-0.5,0.1c-0.7-0.8-1.4-0.9-1.1-1.4
				c-0.2,0-0.3,0.2-0.2,0.3c0.1,0.6,0.8,0.8,1,1.3c-0.1,0.4-0.9,0.1-1.2-1v-0.1c-0.2,0.3-0.3,0.4,0.2,1.1c0.1,0.2,0.2,0.5-0.2,0.4
				c0.1,0.1-0.2,0-0.1,0h0.1c0,0-0.1,0-0.1-0.1c0.2-1-0.8-0.8-0.7-0.8c0.1-0.4-0.4-0.7-0.9-0.5c0.1-0.3-0.5-0.7-1.2-0.4
				c-0.1-0.3-0.8-0.5-1.5,0.3c-1.2,0.1-3.1,1.1-4.2,0.6c-0.1,0.1-0.7-1.9-0.8-1.9c1.4-0.1,4.4-0.4,5.5-0.8c0.9-0.5,2.5-0.8,2.8-0.6
				c-0.1,0.3-0.7,0.8-0.4,1.1c0.6,0.6,1.6,0.3,2.2-0.1c0.6,0.7,1.8,0.8,2.2,1.7l-0.1,0.3c-0.2,0.2-0.2,0.2-0.5-0.2
				c-0.6-0.9-1.2-0.6-1.4-1.3C-353.1,287.9-352.9,288.1-352.9,288.3"/>
		</g>
		<g>
			<path class="st8" d="M-356.1,290.1c-0.2,0.1,0.1-0.2,0.2-0.2l0.1-0.1c0.2-0.2,0.5-0.4,0.6-0.1c0.1,0.2-0.7,0.7-0.8,0.7
				c-0.1,0.1-0.2,0.1-0.2-0.1C-356.3,290.2-356.2,290.1-356.1,290.1"/>
		</g>
		<g>
			<path class="st8" d="M-356.8,290c-0.1,0.1-0.2,0.1-0.4-0.1c-0.1-0.1,0.2-0.4,0.3-0.5c0.1-0.1,0.2-0.1,0.2-0.1l0.2-0.1
				c0.3-0.1,0.3,0,0.4,0.1C-356.1,289.4-356.6,290-356.8,290"/>
		</g>
		<g>
			<path class="st8" d="M-354.9,290.1c0,0,0.4-0.4,0.5,0.1c0.1,0.2-0.3,0.4-0.6,0.5C-355.2,290.7-355.6,290.7-354.9,290.1"/>
		</g>
		<g>
			<path class="st8" d="M-357.6,289.4c-0.1,0.1-0.4-0.2-0.2-0.2l0.1-0.2c0.2-0.1,0.4-0.2,0.4-0.1
				C-357.2,289-357.5,289.4-357.6,289.4"/>
		</g>
		<g>
			<path class="st9" d="M-354,269.8c-5.3,0-9.7,5.6-9.8,12.7h19.7C-344.4,275.4-348.7,269.8-354,269.8"/>
		</g>
		<g>
			<path class="st5" d="M-353.5,285.4v-5.6c0,0,1.9,0.1,2.3-0.1c0,0,0.7-0.3,0.8-0.9c0.1-0.4-0.2-1.6-0.3-1.9c0,0-0.4-0.2-0.4-0.5
				c0,0-0.2-2.1-0.6-2.8c-0.4-0.6-1.1-1.3-2.5-1.3c-1.4,0-2.1,0.9-2.2,1.6c-0.1,0.8,0.8,0.8,0.8,0.8s-0.4,0.4-0.5,0.5
				c-0.1,0.2-0.5,0.5-0.9,1.2c-0.4,0.7-0.6,1.9-0.5,2.2c0.2,0.4,0.8,0.8,1.6,0.9c0.8,0.1,1.3-0.1,1.3-0.1v5.6L-353.5,285.4z"/>
		</g>
		<g>
			<path class="st10" d="M-355.6,277.7c-0.6,0-0.8,0.3-1.3,0.4c0,0,0.1-1.1,1.1-2.3c0.4-0.5,1.4-1,1.9-1.2v-0.1
				c-0.5,0.1-1.6,0.3-1.9-0.2c-0.1-0.5,0.6-1.1,1.6-1.2c0.6,0,1,0.2,1.5,0.5c0.5,0.3,0.8,1,0.9,1.6c-0.7,0.3-0.8,0.4-0.9,0.5
				c0.1,0,0.2,0.1,0.5,0.1c0.2,0,0.4-0.1,0.5-0.1v0.4c0.1,0.1,0.1,0.1,0.1,0.2c-1.2,0.5-1.8,0.8-1.9,0.7c0,0,0.2,0.1,0.5,0.1
				c0.4,0,1-0.2,1.4-0.3c0,0.2,0,0.4,0.4,0.5l0,0l0,0c-1.2,0.6-1.6,0.6-1.8,0.5l-0.9-0.2c0.2,0.1,0.7,0.5,1.1,0.6
				c0.4,0.1,1.2-0.3,1.6-0.4l0.2,0.5c-0.7,0-1.5,1-2.6,0.6C-354.1,278.4-354.8,277.7-355.6,277.7"/>
		</g>
		<g>
			<path class="st10" d="M-354.6,279.2c-0.5,0-1.4,0-1.4-0.1c-0.3-0.1-1-0.5-0.9-0.5c0.1,0,0.2,0.1,0.9-0.2
				C-355.2,278.1-354.6,279-354.6,279.2"/>
		</g>
		<g>
			<path class="st10" d="M-350.8,278.6c-0.1,0.2-0.2,0.5-0.4,0.6c-0.2,0-0.8,0-1.2,0c0.3,0,0.5-0.1,0.6-0.2
				C-350.7,278.4-350.8,278.6-350.8,278.6"/>
		</g>
		<g>
			<path class="st4" d="M-354.6,299.3c0.1-0.2,0-0.4,0-0.4s-0.4,0.6-0.9,0.9c-0.5,0.3-1.3,0.5-1.4,0.5c0.1,0.1,0.2,0.2,0.3,0.3
				c0.1,0,0.8-0.1,1.4-0.5C-354.9,299.9-354.6,299.3-354.6,299.3"/>
		</g>
		<g>
			<path class="st9" d="M-353.4,299.3c-0.1-0.2,0-0.4,0-0.4s0.4,0.6,0.9,0.9c0.5,0.3,1.3,0.5,1.4,0.5c0.2-0.2,0.4-0.4,0.4-0.4
				s-0.8-0.1-1.5-0.3c-0.7-0.2-1.1-0.6-1.1-0.8c-0.1-0.1,0.1-0.5,0.2-0.5c0.1-0.1,1.3-0.2,1.2-1.2c-0.1-1.2-2-0.9-2.3-0.8
				c-0.2-0.1-2.2-0.4-2.2,0.8c-0.1,1,1.2,1.1,1.2,1.2c0.1,0.1,0.2,0.4,0.2,0.5c-0.1,0.1-0.4,0.6-1,0.8c-0.7,0.2-1.5,0.3-1.5,0.3
				s0.2,0.2,0.4,0.4c0.1-0.1,0.9-0.2,1.4-0.5c0.5-0.4,0.9-0.9,0.9-0.9s0.1,0.2,0,0.4c0,0-0.3,0.6-0.7,0.8c-0.6,0.4-1.2,0.4-1.3,0.5
				c0.2,0.1,0.4,0.2,0.6,0.2c1.2-0.1,1.7-1.4,1.7-1.4s0.2,0.1,0.4,0.1l0,0l0,0c0.2,0,0.4-0.1,0.4-0.1s0.5,1.4,1.7,1.4
				c0.2,0,0.4-0.1,0.6-0.2c-0.2,0-0.8-0.1-1.4-0.5C-353.1,299.9-353.4,299.3-353.4,299.3"/>
		</g>
		<g>
			<path class="st4" d="M-351,300.2c-0.2-0.1-0.9-0.2-1.4-0.5c-0.5-0.3-0.9-0.9-0.9-0.9s-0.1,0.2,0,0.4c0,0,0.3,0.6,0.7,0.8
				c0.6,0.4,1.2,0.4,1.4,0.5l0,0C-351.2,300.5-351.1,300.3-351,300.2"/>
		</g>
		<g>
			<path class="st4" d="M-354.9,296.5c0,0-0.3,0.2-0.4,0.5c-0.1,0.3,0.1,0.6,0.1,0.6s-0.6-0.2-0.6-0.6
				C-355.8,296.4-354.9,296.5-354.9,296.5"/>
		</g>
		<g>
			<path class="st4" d="M-353.1,296.5c0,0,0.3,0.2,0.4,0.5c0.1,0.3-0.1,0.6-0.1,0.6s0.6-0.2,0.6-0.6
				C-352.2,296.4-353.1,296.5-353.1,296.5"/>
		</g>
		<g>
			<path class="st4" d="M-354,296.8L-354,296.8c-1.2,0-0.5,1-0.5,1s0.2-0.1,0.5-0.1h0.1c0.3,0,0.5,0.1,0.5,0.1
				S-352.9,296.8-354,296.8"/>
		</g>
		<g>
			<path class="st4" d="M-353.9,298.1L-353.9,298.1L-353.9,298.1h-0.1c-0.3,0-0.3,0.2-0.3,0.3c0,0.1,0.1,0.8,0.3,0.8l0,0h0.1
				c0.2,0,0.3-0.6,0.3-0.8C-353.7,298.2-353.6,298.1-353.9,298.1"/>
		</g>
	</g>
</g>
<path id="XMLID_1_" class="st4" d="M-311,276.2c0-0.1-0.2-0.2-0.3-0.2h-3.6c-0.1,0-0.3,0.1-0.3,0.2l-5,15.2
	c-0.1,0.2,0.1,0.6,0.3,0.6h2.1c0.1,0,0.3-0.3,0.3-0.4l1.3-4.2c0-0.1,0.2-0.4,0.3-0.4h5.6c0.1,0,0.3,0.1,0.3,0.3l1.3,4.3
	c0,0.1,0.2,0.5,0.3,0.5h2.1c0.2,0,0.4-0.4,0.3-0.6L-311,276.2z M-311.3,285h-3.7c-0.2,0-0.4-0.3-0.3-0.5l1.9-5.7
	c0.1-0.3,0.5-0.3,0.6,0l1.9,5.8C-310.9,284.7-311.1,285-311.3,285z M-298,280.3v1.8c0,0.2,0.1,0.4-0.1,0.3c-0.2,0-0.3,0-0.6,0
	c-0.5,0-1.1,0.1-1.6,0.3c-0.5,0.2-1.1,0.5-1.4,0.9c0,0.1-0.3,0.1-0.3,0.2v7.4c0,0.2,0.4,0.7,0.2,0.7h-2.1c-0.2,0-0.1-0.6-0.1-0.7
	v-10.9c0-0.2-0.1-0.4,0.1-0.4h1.7c0.2,0,0.3,0.4,0.3,0.5l0.2,1.5h0.1c0.3-1,0.8-1.2,1.3-1.4c0.6-0.3,1.1-0.5,1.8-0.5
	c0.2,0,0.2,0,0.4,0C-297.9,280-298,280.1-298,280.3z M-286.4,280.4c-0.5-0.2-1.2-0.3-1.8-0.4c-0.7-0.1-1.5-0.2-2.2-0.2
	c-2.1,0-3.7,0.5-4.7,1.6c-1.1,1-1.6,2.6-1.6,4.6c0,1.3,0.2,2.3,0.6,3.2c0.4,0.8,0.9,1.5,1.6,1.9c0.7,0.4,1.4,0.6,2.2,0.6
	c0.6,0,1.2-0.3,1.7-0.5c0.5-0.2,1-0.2,1.3-1.2h0.3v1.3c0,0.7-0.2,1.3-0.4,1.8c-0.2,0.4-0.6,0.8-1.1,1c-0.5,0.2-1.2,0.3-1.9,0.3
	c-1,0-2-0.1-3.1-0.4c-0.2-0.1-0.4,0.1-0.4,0.3v1.5c0,0.2,0.1,0.3,0.3,0.3c0.5,0.1,1,0.2,1.6,0.3c0.6,0.1,1.3,0.1,1.9,0.1
	c1.3,0,2.5-0.2,3.3-0.6c0.9-0.4,1.7-1,2.1-1.8c0.4-0.8,0.8-1.9,0.8-3.3v-10C-286,280.6-286.3,280.4-286.4,280.4z M-289,288.3
	c0,0.1-0.1,0.2-0.2,0.2c-0.3,0.3-0.6,0.5-0.9,0.6c-0.4,0.2-0.8,0.2-1.2,0.2c-0.9,0-1.5-0.3-2-0.8c-0.5-0.5-0.7-1.5-0.7-2.8
	c0-1.3,0.3-2.3,0.8-2.9c0.5-0.6,1.4-0.9,2.5-0.9c0.4,0,0.9,0,1.4,0.1c0.2,0,0.3,0.2,0.3,0.3V288.3z M-279,279.9
	c-1.1,0-2,0.2-2.8,0.7c-0.8,0.4-1.3,1.1-1.7,2c-0.4,0.9-0.6,2-0.6,3.3c0,1.4,0.2,2.5,0.7,3.4c0.4,0.9,1.1,1.5,2,1.9
	c0.9,0.4,2,0.6,3.4,0.6c1,0,1.9-0.1,2.9-0.3c0.2,0,0.2-0.2,0.2-0.3v-1.4c0-0.2-0.1-0.4-0.3-0.3c-0.9,0.2-1.7,0.3-2.4,0.3
	c-0.9,0-1.5-0.1-2-0.3c-0.5-0.2-0.9-0.5-1.1-1c-0.2-0.4-0.3-0.7-0.4-1.2c0-0.2,0.1-0.2,0.3-0.2h6.4c0.2,0,0.6-0.5,0.6-0.7v-0.4
	c0-2-0.5-3.5-1.3-4.5C-276.2,280.4-277.5,279.9-279,279.9z M-277.2,285h-3.9c-0.2,0-0.3-0.2-0.3-0.4c0.1-1,0.3-1.7,0.6-2.2
	c0.4-0.5,1-0.8,1.7-0.8c0.7,0,1.3,0.3,1.7,0.8c0.3,0.5,0.5,1.2,0.6,2.2C-276.8,284.8-277,285-277.2,285z M-263.1,280.9
	c0.7,0.7,1.1,1.8,1.1,3.3v7c0,0.2-0.4,0.7-0.6,0.7h-2.1c-0.2,0-0.3-0.6-0.3-0.7v-6.8c0-0.8-0.2-1.3-0.5-1.6
	c-0.3-0.3-0.8-0.5-1.4-0.5c-0.5,0-0.9,0.1-1.4,0.3c-0.4,0.2-0.5,0.4-0.8,0.8c-0.1,0.1,0.1,0.1,0.1,0.2v7.7c0,0.2-0.6,0.7-0.7,0.7
	h-2.1c-0.2,0-0.2-0.6-0.2-0.7v-10.9c0-0.2,0-0.4,0.2-0.4h1.7c0.2,0,0.3,0,0.3,0.2l0.1,0.8h0.1c0.4,0,1-0.7,1.5-0.9
	c0.6-0.2,1.3-0.3,2-0.3C-264.8,279.8-263.8,280.2-263.1,280.9z M-253,289.8v1.5c0,0.2,0,0.3-0.1,0.3c-0.6,0.1-1.2,0.2-1.7,0.2
	c-2.7,0-4.1-1.4-4.1-4.1v-5.1c0-0.2,0.1-0.6-0.1-0.6h-1.3c-0.2,0-0.6,0.1-0.6-0.1v-1.5c0-0.2,0.4-0.4,0.6-0.4h1.4
	c0.2,0,0.3-0.1,0.3-0.3l0.4-3.5c0-0.2,0.2-0.3,0.3-0.3h1.6c0.2,0,0.4,0.1,0.4,0.3v3.4c0,0.2,0.1,0.3,0.3,0.3h2.6
	c0.2,0,0.1,0.2,0.1,0.4v1.5c0,0.2,0.1,0.1-0.1,0.1h-2.6c-0.2,0-0.3,0.4-0.3,0.6v4.6c0,0.6,0.1,1,0.2,1.3c0.1,0.3,0.4,0.6,0.7,0.7
	c0.3,0.1,0.7,0.2,1.2,0.2c0.3,0,0.4,0,0.7-0.1C-253,289.4-253,289.5-253,289.8z M-248,291.7c0,0.2-0.2,0.3-0.3,0.3h-2.3
	c-0.2,0-0.3-0.2-0.3-0.3v-11.3c0-0.2,0.2-0.3,0.3-0.3h2.3c0.2,0,0.3,0.2,0.3,0.3V291.7z M-248,275.5c0.3,0.3,0.4,0.6,0.4,1.1
	s-0.1,0.9-0.4,1.1c-0.3,0.3-0.7,0.4-1.3,0.4c-0.6,0-1-0.1-1.3-0.4c-0.3-0.3-0.4-0.6-0.4-1.1s0.1-0.9,0.4-1.1
	c0.3-0.3,0.7-0.4,1.3-0.4C-248.8,275.1-248.3,275.2-248,275.5z M-236.9,280.9c0.7,0.7,0.9,1.8,0.9,3.3v7c0,0.2,0.1,0.7-0.1,0.7h-2.1
	c-0.2,0-0.8-0.6-0.8-0.7v-6.8c0-0.8,0.1-1.3-0.2-1.6c-0.3-0.3-0.7-0.5-1.3-0.5c-0.5,0-0.9,0.1-1.3,0.3c-0.4,0.2-0.8,0.4-1.1,0.8
	c-0.1,0.1-0.1,0.1-0.1,0.2v7.7c0,0.2-0.1,0.7-0.3,0.7h-2.1c-0.2,0-0.6-0.6-0.6-0.7v-10.9c0-0.2,0.5-0.4,0.6-0.4h1.7
	c0.2,0,0.3,0,0.3,0.2l0.1,0.8h0.1c0.4,0,1-0.7,1.5-0.9c0.6-0.2,1.2-0.3,1.9-0.3C-238.5,279.8-237.6,280.2-236.9,280.9z
	 M-226.4,280.3c-0.7-0.3-1.7-0.4-2.8-0.4c-0.6,0-1.2,0-1.8,0.1c-0.5,0.1-1.1,0.2-1.6,0.3c-0.1,0-0.3,0.2-0.3,0.3v1.4
	c0,0.2,0.3,0.4,0.5,0.3c0.4-0.1,0.8-0.2,1.2-0.2c0.6-0.1,1.1-0.1,1.6-0.1c0.7,0,1.2,0.1,1.6,0.2c0.4,0.1,0.7,0.4,0.9,0.7
	c0.2,0.3,0.3,0.8,0.3,1.4v0.5l-2.1,0.2c-1.6,0.1-2.7,0.5-3.5,1.1c-0.7,0.6-1.1,1.4-1.1,2.5c0,0.7,0.1,1.2,0.4,1.7
	c0.3,0.5,0.7,0.9,1.3,1.1c0.6,0.3,1.2,0.4,2,0.4c0.7,0,1.3-0.3,1.8-0.6c0.5-0.2,1-0.2,1.3-1.2h0.1l0.1,1.3c0,0.2,0.2,0.7,0.3,0.7
	h1.7c0.2,0,0.6-0.6,0.6-0.7v-6.8c0-1.1-0.3-2.1-0.7-2.7C-225,281.1-225.7,280.6-226.4,280.3z M-227,288.7c0,0.1,0,0.2-0.1,0.2
	c-0.3,0.3-0.6,0.5-0.9,0.6c-0.4,0.2-0.8,0.2-1.2,0.2c-0.6,0-1-0.1-1.3-0.4c-0.3-0.3-0.4-0.7-0.4-1.2c0-0.5,0.2-0.9,0.5-1.2
	c0.3-0.3,0.9-0.5,1.6-0.5l1.5-0.1c0.2,0,0.3,0.1,0.3,0.3V288.7z M-210.6,282.6c-0.7-0.6-1.5-0.8-2.9-0.8c-0.9,0-2.5,0.1-2.5,0.3v9.9
	h1v-3.4c1,0,0.9,0,1.2,0c1.4,0,2.5-0.3,3.2-0.9c0.7-0.6,1.1-1.4,1.1-2.6C-209.6,284.1-209.9,283.2-210.6,282.6z M-211.9,286.8
	c-0.4,0.3-1.1,0.5-1.9,0.5c-0.4,0-1.2,0-1.2-0.1v-4c1-0.1,0.9-0.1,1.3-0.1c0.8,0,1.4,0.2,1.8,0.5c0.4,0.3,0.6,0.9,0.6,1.6
	C-211.3,286-211.5,286.5-211.9,286.8z M-204.5,284.4c0.2,0,0.5,0,0.5,0.1v1.6c0,0-0.3,0-0.6,0c-0.3,0-0.5,0.1-0.8,0.2
	c-0.3,0.1-0.6,0.3-0.6,0.6v5.3h-2v-8h1.4l0.1,1h0.1c0.2,0,0.5-0.4,0.8-0.6C-205.3,284.3-204.9,284.4-204.5,284.4z M-200,284.3
	c-0.7,0-1.2,0.1-1.7,0.4c-0.5,0.3-0.8,0.7-1.1,1.2c-0.2,0.5-0.4,1.2-0.4,2c0,0.9,0.1,1.6,0.4,2.1c0.3,0.5,0.7,0.9,1.2,1.2
	c0.5,0.3,1.5,0.4,2.3,0.4c0.7,0,1.2-0.1,2.2-0.3v-1.3c-1,0.2-1.5,0.2-2,0.2c-0.5,0-1.1-0.1-1.4-0.2c-0.3-0.1-0.6-0.6-0.8-0.9
	c-0.2-0.3-0.3-0.4-0.3-1.4h4.5v0.1c0-1.2-0.3-2.2-0.8-2.8C-198.3,284.7-199.1,284.3-200,284.3z M-201.5,288c0-1,0.1-1.5,0.4-1.8
	c0.2-0.3,0.6-0.6,1.1-0.6c0.5,0,0.8,0.3,1,0.7c0.2,0.3,0.3,0.8,0.4,1.8H-201.5z M-191,288.2c0.3,0.3,0.5,0.8,0.5,1.4
	c0,0.5-0.1,0.9-0.4,1.2c-0.2,0.3-0.6,0.6-1,0.8c-0.5,0.2-1.1,0.3-1.7,0.3c-0.8,0-1.3-0.1-2.3-0.3v-1.3c1,0.2,1.5,0.3,2.3,0.3
	c0.5,0,0.9-0.1,1.2-0.2c0.2-0.2,0.4-0.4,0.4-0.7c0-0.2,0-0.4-0.2-0.5c-0.1-0.1-0.3-0.2-0.6-0.3l-1.1-0.2c-0.7-0.1-1.1-0.4-1.4-0.7
	c-0.3-0.3-0.4-0.8-0.4-1.3c0-0.4,0.1-0.8,0.4-1.2c0.2-0.3,0.6-0.6,1.1-0.8c0.5-0.2,1-0.3,1.7-0.3c0.7,0,1.8,0.1,1.8,0.2v1.3
	c0-0.2-1.1-0.2-1.8-0.2c-1.1,0-1.6,0.3-1.6,0.9c0,0.2,0.1,0.4,0.2,0.5c0.1,0.1,0.3,0.2,0.6,0.3l1.1,0.2
	C-191.8,287.6-191.4,287.8-191,288.2z M-187.5,281.6c0.2,0.2,0.3,0.4,0.3,0.7c0,0.3-0.1,0.5-0.3,0.7c-0.2,0.2-0.5,0.2-0.8,0.2
	c-0.4,0-0.6-0.1-0.8-0.2c-0.2-0.2-0.3-0.4-0.3-0.7c0-0.3,0.1-0.5,0.3-0.7c0.2-0.2,0.5-0.2,0.8-0.2
	C-187.9,281.4-187.7,281.4-187.5,281.6z M-189,284h1v8h-1V284z M-181,284.4c0,0-0.7-0.1-1-0.1c-1.2,0-2.2,0.3-2.9,1
	c-0.6,0.7-1,1.6-1,2.9c0,0.8,0.1,1.5,0.4,2c0.3,0.5,0.6,0.9,1,1.2c0.4,0.2,0.9,0.4,1.5,0.4c0.4,0,0.8,0,1.1-0.2
	c0.3-0.2,0.6-0.6,0.8-0.6h0.1l0.1,1h1.9v-11h-2V284.4z M-181,289.7c0,0.2-0.4,0.4-0.7,0.5c-0.2,0.1-0.5,0.2-0.8,0.2
	c-0.5,0-0.9-0.2-1.2-0.5c-0.3-0.3-0.4-0.9-0.4-1.8c0-0.8,0.2-1.4,0.5-1.8c0.3-0.4,0.9-0.6,1.6-0.6c0.3,0,1,0,1,0.1V289.7z
	 M-174.7,284.3c-0.7,0-1.2,0.1-1.7,0.4c-0.5,0.3-0.8,0.7-1.1,1.2c-0.2,0.5-0.4,1.2-0.4,2c0,0.9,0.1,1.6,0.4,2.1
	c0.3,0.5,0.7,0.9,1.2,1.2c0.5,0.3,1.3,0.4,2.2,0.4c0.7,0,1.1-0.1,2.1-0.3v-1.3c-1,0.2-1.3,0.2-1.8,0.2c-0.5,0-1-0.1-1.3-0.2
	c-0.3-0.1-0.6-0.6-0.7-0.9c-0.2-0.3-0.3-0.4-0.3-1.4h4.1v0.1c0-1.2-0.1-2.2-0.6-2.8C-173.1,284.7-173.7,284.3-174.7,284.3z
	 M-176.2,288c0-1,0.1-1.5,0.4-1.8s0.6-0.6,1.1-0.6c0.5,0,0.8,0.3,1,0.7c0.2,0.3,0.3,0.8,0.4,1.8H-176.2z M-164.7,285
	c0.4,0.4,0.7,1.1,0.7,2.1v4.9h-2v-4.8c0-0.5,0-0.8-0.2-1c-0.2-0.2-0.4-0.3-0.8-0.3c-0.3,0-0.8,0.1-1,0.2c-0.3,0.1,0.1,0.3-0.9,0.5
	v5.5h-1v-8h1.2l0.1,1h0.1c0.3,0,0.6-0.4,1-0.5c0.4-0.1,0.8-0.2,1.2-0.2C-165.7,284.3-165.1,284.6-164.7,285z M-158.7,284.3
	c0.6,0,0.7,0.1,1.7,0.2v1.4c-1-0.1-1.1-0.2-1.5-0.2c-0.5,0-1,0.1-1.3,0.2c-0.3,0.2-0.6,0.4-0.7,0.7c-0.2,0.3-0.2,0.8-0.2,1.3
	c0,0.8,0.2,1.4,0.5,1.8c0.3,0.4,0.8,0.5,1.5,0.5c0.2,0,0.6,0,0.8-0.1c0.2,0,0-0.1,1-0.2v1.4c-1,0.2-1.3,0.3-1.9,0.3
	c-1.2,0-2.1-0.3-2.7-0.9c-0.6-0.6-0.9-1.5-0.9-2.8c0-1.3,0.4-2.2,1-2.8C-160.9,284.6-159.9,284.3-158.7,284.3z M-154.2,281.6
	c0.2,0.2,0.3,0.4,0.3,0.7c0,0.3-0.1,0.5-0.3,0.7c-0.2,0.2-0.5,0.2-0.8,0.2s-0.6-0.1-0.8-0.2c-0.2-0.2-0.3-0.4-0.3-0.7
	c0-0.3,0.1-0.5,0.3-0.7c0.2-0.2,0.5-0.2,0.8-0.2S-154.4,281.4-154.2,281.6z M-156,284h2v8h-2V284z M-147.2,285.5
	c-0.2-0.4-0.5-0.7-1-0.9c-0.4-0.2-1-0.3-1.7-0.3c-0.4,0-0.7,0-1.1,0.1c-0.4,0.1-1,0.1-1,0.2v1.3c0-0.1,0.6-0.2,0.9-0.2
	c0.3-0.1,0.6-0.1,0.9-0.1c0.4,0,0.7,0,1,0.1c0.2,0.1,0.2,0.2,0.3,0.4c0.1,0.2-0.1,0.5-0.1,0.9v0.3l-1.1,0.1c-1,0.1-1.6,0.3-2,0.7
	c-0.5,0.4-0.6,0.9-0.6,1.5c0,0.4,0.1,0.8,0.3,1.1c0.2,0.3,0.5,0.5,0.8,0.7c0.3,0.2,0.8,0.2,1.2,0.2c0.4,0,0.8,0,1.1-0.1
	c0.3-0.1,0.6-0.6,0.8-0.6h0.1l0.1,1h1.2v-4.8C-147,286.5-147,285.9-147.2,285.5z M-149,289.9c0,0.2-0.1,0.4-0.4,0.5
	c-0.2,0.1-0.3,0.1-0.6,0.1c-0.4,0-0.6-0.1-0.7-0.2c-0.2-0.2-0.2-0.4-0.2-0.7c0-0.3,0.1-0.6,0.3-0.7c0.2-0.2,0.3-0.3,0.7-0.3l0.9-0.1
	V289.9z M-346,261.3c0,0,0-0.1,0-0.1c0,0,0.1-0.5,0.3-0.5c0.7-0.1,1.4,0,1.4,0c1.3,0.1,1.5,0.9,1.5,0.9c0,0.1,0,0.1,0,0.1
	c0,0,0,0-0.1,0c0,0,0,0-0.1,0c-0.1,0-0.2-0.1-0.2-0.1c0,0-0.2-0.5-1.4-0.5c-0.4,0-0.8,0-1.3,0.1l0,0l0,0
	C-345.9,261.3-346,261.3-346,261.3z M-347.5,262.5c0,0,0,0.1,0,0.1c0,0-0.1,0-0.1,0c-0.2,0-0.3,0-0.3-0.1c-0.1-0.2-0.2-0.3-0.4-0.4
	c0,0,0,0,0,0c0,0,0,0,0,0c0,0.1,0,0.1,0,0.2c0,0.3-0.2,0.5-0.5,0.5c-0.3,0-0.5-0.2-0.5-0.5c0-0.1,0-0.1,0-0.2c0,0,0,0,0,0
	c0,0,0,0,0,0c-0.5,0.1-0.5,0.3-0.5,0.3c0,0-0.1,0.2-0.3,0.1c0,0-0.1,0-0.1-0.1c0,0,0-0.1,0-0.2c0,0,0.3-0.7,1.4-0.7c0,0,0.7,0,1,0h0
	C-348,261.7-347.6,261.9-347.5,262.5z M-346.1,262.6C-346.1,262.6-346.1,262.6-346.1,262.6c0.1-0.6,0.5-0.8,0.5-0.8
	c0.3-0.1,0.9-0.1,1-0.1c1.1,0,1.4,0.7,1.4,0.7c0,0.1,0,0.1,0,0.2c0,0,0,0-0.1,0.1c-0.2,0-0.3-0.1-0.3-0.1c0,0-0.1-0.2-0.5-0.3
	c0,0,0,0,0,0c0,0,0,0,0,0c0,0.1,0,0.1,0,0.2c0,0.3-0.2,0.5-0.5,0.5c-0.3,0-0.5-0.2-0.5-0.5c0-0.1,0-0.1,0-0.2c0,0,0,0,0,0
	c0,0,0,0,0,0c-0.2,0.1-0.3,0.2-0.4,0.4c0,0.1-0.1,0.1-0.3,0.1C-346,262.7-346,262.7-346.1,262.6z M-350.7,261.8c0,0,0-0.2,0-0.2
	c0,0,0.3-0.8,1.5-1c0,0,0.2,0,0.6,0c0.3,0,0.6,0,0.8,0.1c0.2,0,0.3,0.5,0.3,0.5c0,0.1,0,0.1,0,0.1c0,0-0.1,0-0.1,0
	c-2.4-0.4-2.7,0.3-2.7,0.3c0,0,0,0.1-0.2,0.1C-350.6,261.7-350.6,261.9-350.7,261.8c0.1,0,0.1,0.2,0.1,0.2h0
	C-350.6,262-350.7,261.8-350.7,261.8z M-330.1,285.3c0-0.1,0-0.2-0.1-0.2c-0.1,0-0.1-0.1-0.2,0c0-0.1,0.1-0.3,0.1-0.4
	c0.1-0.6,0.2-1.2,0.1-1.9c0-0.1-0.1-0.2-0.1-0.2c-0.1,0-0.1,0-0.2,0c0-0.1,0.1-0.3,0.1-0.4c0.1-0.6,0.1-1.2-0.1-2
	c0-0.1-0.1-0.2-0.2-0.2c-0.1,0-0.1,0-0.2,0c0-0.1,0-0.2,0-0.3c0.1-0.6,0-1.3-0.2-1.9c0-0.1-0.1-0.2-0.2-0.2c-0.1,0-0.2,0-0.3,0
	c0,0,0,0,0,0c0-0.2,0-0.3,0-0.5c0-0.6-0.2-1.2-0.4-1.9c0-0.1-0.1-0.1-0.2-0.2c-0.1,0-0.2,0-0.2,0.1c0-0.2,0-0.3,0-0.5
	c-0.1-0.6-0.3-1.2-0.6-1.9c0-0.1-0.1-0.1-0.2-0.1c-0.1,0-0.2,0-0.2,0.1c0-0.1,0-0.3-0.1-0.4c-0.1-0.6-0.4-1.2-0.8-1.8
	c-0.1-0.1-0.1-0.1-0.2-0.1c-0.1,0-0.2,0-0.2,0.1c0,0,0,0,0,0c0-0.2-0.1-0.3-0.2-0.5c-0.2-0.5-0.6-1.1-1.1-1.6
	c-0.1-0.1-0.2-0.1-0.3-0.1c-0.1,0-0.1,0.1-0.2,0.1c-0.1-0.2-0.2-0.3-0.3-0.5c-0.3-0.5-0.8-1-1.3-1.4c-0.1-0.1-0.2-0.1-0.3,0
	c-0.1,0-0.1,0.1-0.2,0.2c-0.3-0.5-0.8-0.8-1.4-1.1c0.1,0,0.2,0,0.2,0c0.8,0,1.4-0.1,1.4-0.1c0.2-0.1,0.3-0.2,0.3-0.4
	c0-0.2-0.2-0.3-0.4-0.4c-0.8,0-1.2-0.2-1.6-0.4c0,0-0.1,0-0.1-0.1l1.9-0.3c0.2,0,0.3-0.2,0.3-0.4c0-0.2-0.2-0.4-0.3-0.4l-1.8-0.3
	c0.2-0.1,0.4-0.1,0.6-0.2c0.8-0.3,1.2-0.6,1.2-0.6c0.2-0.1,0.2-0.3,0.1-0.5c-0.1-0.2-0.3-0.2-0.5-0.2c-0.8,0.3-1.2,0.3-1.6,0.2
	c0,0-0.1,0-0.1,0l1.6-1c0.2-0.1,0.2-0.3,0.2-0.5c-0.1-0.2-0.3-0.3-0.5-0.2l-1.7,0.4c0.2-0.1,0.3-0.3,0.5-0.4c0.6-0.5,0.9-1,0.9-1.1
	c0.1-0.2,0-0.4-0.1-0.5c-0.2-0.1-0.4-0.1-0.5,0c-0.6,0.6-1,0.7-1.4,0.8c0,0-0.1,0-0.1,0l1.1-1.5c0.1-0.2,0.1-0.4,0-0.5
	c-0.1-0.1-0.4-0.2-0.5,0l-1.4,1.1c0.1-0.2,0.2-0.4,0.3-0.5c0.3-0.7,0.4-1.3,0.4-1.3c0-0.2-0.1-0.4-0.3-0.4c-0.2-0.1-0.4,0-0.5,0.2
	c-0.4,0.8-0.6,1-1,1.3c0,0-0.1,0-0.1,0.1l0.5-1.8c0-0.2-0.1-0.4-0.2-0.5c-0.2-0.1-0.4,0-0.5,0.2l-0.9,1.6c0-0.2,0-0.4,0.1-0.6
	c0-0.8-0.1-1.4-0.1-1.4c-0.1-0.2-0.2-0.3-0.4-0.3c-0.2,0-0.3,0.2-0.4,0.4c0,0.9-0.2,1.2-0.4,1.6c0,0,0,0.1-0.1,0.1l-0.3-1.9
	c0-0.2-0.2-0.3-0.4-0.3c-0.2,0-0.4,0.2-0.4,0.4l-0.2,1.8c-0.1-0.2-0.1-0.4-0.2-0.6c-0.3-0.7-0.6-1.2-0.6-1.2
	c-0.1-0.2-0.3-0.2-0.5-0.1c-0.2,0.1-0.2,0.3-0.2,0.5c0.3,0.8,0.2,1.2,0.2,1.6c0,0,0,0.1,0,0.1l-1-1.6c-0.1-0.2-0.3-0.2-0.5-0.2
	c-0.2,0.1-0.3,0.3-0.2,0.5l0.4,1.7c-0.1-0.2-0.3-0.3-0.4-0.5c-0.5-0.6-1-0.9-1.1-0.9c-0.2-0.1-0.4,0-0.5,0.1c-0.1,0.2-0.1,0.4,0,0.5
	c0.6,0.6,0.7,1,0.8,1.4c0,0,0,0.1,0,0.1l-1.5-1.1c-0.2-0.1-0.4-0.1-0.5,0c-0.1,0.1-0.2,0.4,0,0.5l1.1,1.4c-0.2-0.1-0.4-0.2-0.5-0.3
	c-0.7-0.3-1.3-0.4-1.3-0.4c-0.2,0-0.4,0.1-0.4,0.3c-0.1,0.2,0,0.4,0.2,0.5c0.8,0.4,1,0.6,1.3,1c0,0,0,0.1,0.1,0.1l-1.8-0.5
	c-0.2,0-0.4,0.1-0.5,0.2c-0.1,0.2,0,0.4,0.2,0.5l1.6,0.9c-0.2,0-0.4,0-0.6-0.1c-0.8,0-1.4,0.1-1.4,0.1c-0.2,0.1-0.3,0.2-0.3,0.4
	c0,0.2,0.2,0.3,0.4,0.4c0.8,0,1.2,0.2,1.6,0.4c0,0,0.1,0,0.1,0.1l-1.9,0.3c-0.2,0-0.3,0.2-0.3,0.4c0,0.2,0.1,0.4,0.3,0.4l1.8,0.3
	c-0.2,0.1-0.4,0.1-0.6,0.2c-0.7,0.3-1.2,0.6-1.2,0.7c-0.2,0.1-0.2,0.3-0.1,0.5c0.1,0.2,0.3,0.2,0.5,0.2c0.4-0.1,0.7-0.2,1-0.2
	c-0.5,0.5-0.7,0.7-0.8,0.8c-0.1,0.1-0.2,0.2-0.2,0.3c0-0.1-0.1-0.1-0.2-0.1c-0.1,0-0.2,0-0.3,0c-0.6,0.4-1,0.9-1.3,1.4
	c-0.1,0.2-0.2,0.3-0.3,0.5c0-0.1-0.1-0.1-0.2-0.1c-0.1,0-0.2,0-0.2,0.1c-0.5,0.5-0.9,1.1-1.1,1.6c-0.1,0.2-0.1,0.3-0.2,0.5
	c0-0.1-0.1-0.1-0.2-0.1c-0.1,0-0.2,0-0.2,0.1c-0.4,0.6-0.7,1.2-0.9,1.7c0,0.2-0.1,0.3-0.1,0.5c0,0,0,0,0,0c-0.1-0.1-0.1-0.1-0.2-0.1
	c-0.1,0-0.2,0.1-0.2,0.1c-0.3,0.6-0.5,1.3-0.6,1.8c0,0.2,0,0.3,0,0.5c0,0,0,0,0,0c-0.1-0.1-0.2-0.1-0.2-0.1c-0.1,0-0.2,0.1-0.2,0.2
	c-0.3,0.7-0.4,1.3-0.4,1.9c0,0.2,0,0.3,0,0.5c-0.1-0.1-0.2-0.1-0.2,0c-0.1,0-0.2,0.1-0.2,0.2c-0.2,0.7-0.2,1.4-0.2,1.9
	c0,0.1,0,0.2,0.1,0.3c0,0-0.1,0-0.1,0c-0.1,0-0.1,0.1-0.2,0.2c-0.1,0.7-0.2,1.4-0.1,2c0,0.2,0.1,0.3,0.1,0.5c0,0-0.1,0-0.1,0
	c-0.1,0-0.1,0.1-0.2,0.2c-0.1,0.7-0.1,1.4,0.1,2c0,0.1,0.1,0.3,0.1,0.4c-0.1,0-0.1,0-0.2,0c-0.1,0-0.1,0.1-0.1,0.2
	c0,0.7,0.1,1.4,0.3,1.9c0.1,0.2,0.1,0.3,0.2,0.5c0,0-0.1,0-0.1,0c-0.1,0-0.2,0-0.3,0.1c-0.1,0.1-0.1,0.2-0.1,0.2
	c0.1,0.7,0.3,1.3,0.6,1.9c0.1,0.1,0.1,0.2,0.2,0.3c-0.1,0-0.1,0-0.1,0.1c-0.1,0.1-0.1,0.2-0.1,0.3c0.2,0.7,0.4,1.3,0.7,1.8
	c0.1,0.1,0.2,0.2,0.3,0.4c-0.1,0-0.2,0-0.2,0.1c-0.1,0.1-0.1,0.2,0,0.3c0.2,0.7,0.6,1.3,0.9,1.7c0.1,0.1,0.2,0.2,0.3,0.3
	c-0.1,0-0.1,0.1-0.2,0.1c0,0.1,0,0.2,0,0.3c0.3,0.6,0.7,1.2,1.1,1.6c0.1,0.1,0.2,0.2,0.3,0.3c-0.1,0-0.1,0.1-0.2,0.1
	c0,0.1,0,0.2,0,0.3c0.4,0.6,0.8,1.1,1.3,1.5c0.1,0.1,0.3,0.2,0.5,0.3c-0.1,0-0.1,0-0.1,0c-0.1,0-0.2,0.1-0.2,0.2
	c0,0.1,0,0.2,0.1,0.3c0.5,0.5,1,0.9,1.5,1.2c0.4,0.2,0.8,0.4,1.2,0.5c0.3,0.1,0.7,0.1,1,0c0.9,0.6,1.9,1.2,2.8,1.6
	c0.8,0.3,1.6,0.6,2.5,0.8c0.1,0,0.2,0,0.4,0.1l0.3,0.1c0.2,0.1,0.3,0.1,0.5,0.1c0,0.1,0,0.2,0,0.3c0,0.1,0,0.2,0,0.3
	c-0.3,0.3-1.3,1.2-2.8,1.4l-0.1,0l0,0.1c0.1,0.1,0.2,0.3,0.4,0.5l0,0l0,0c1.3-0.3,2.3-1,2.7-1.4c0,0,0.1,0.1,0.1,0.1
	c-0.1,0.4-0.5,1.3-2,1.7l-0.2,0l0.2,0.1c0.3,0.1,0.6,0.2,0.9,0.2l0,0l0,0c1.1-0.5,1.5-1.3,1.7-1.8c0.1,0,0.3,0,0.4,0
	c0.1,0.4,0.5,1.2,1.7,1.8l0,0l0,0c0.3,0,0.6-0.1,0.9-0.2l0.2-0.1l-0.2,0c-1.5-0.4-1.9-1.3-2-1.7c0,0,0.1-0.1,0.1-0.1
	c0.5,0.4,1.4,1.1,2.7,1.4l0,0l0,0c0.2-0.2,0.3-0.4,0.4-0.5l0-0.1l-0.1,0c-1.4-0.2-2.4-1-2.8-1.4c0-0.1,0-0.2,0-0.3
	c0-0.1,0-0.2,0-0.3c0.2,0,0.3-0.1,0.4-0.1l0.3-0.1c0.4-0.1,0.8-0.2,1.1-0.2c0.8-0.2,1.6-0.5,2.4-0.9c1.1-0.6,1.9-1.1,2.1-1.3
	c0.3,0.1,0.6,0,1,0c0.4-0.1,0.8-0.2,1.2-0.5c0.5-0.3,1-0.7,1.5-1.2c0.1-0.1,0.1-0.2,0.1-0.3c0-0.1-0.1-0.2-0.2-0.2c0,0,0,0-0.1,0
	c0.2-0.1,0.3-0.2,0.5-0.3c0.5-0.4,0.9-0.9,1.3-1.5c0.1-0.1,0.1-0.2,0-0.3c0-0.1-0.1-0.1-0.2-0.1c0.1-0.1,0.2-0.2,0.3-0.3
	c0.4-0.4,0.8-1,1.1-1.6c0-0.1,0-0.2,0-0.3c0-0.1-0.1-0.1-0.2-0.1c0.1-0.1,0.2-0.2,0.3-0.3c0.4-0.5,0.7-1,0.9-1.7c0-0.1,0-0.2,0-0.2
	c0-0.1-0.1-0.2-0.2-0.2c0,0,0-0.1,0-0.1h0c0.1,0,0.2-0.2,0.3-0.3c0.3-0.5,0.6-1.1,0.8-1.8c0-0.1,0-0.2-0.1-0.2
	c-0.1-0.1-0.2-0.1-0.2-0.1c0.1-0.1,0.2-0.3,0.2-0.4c0.3-0.5,0.4-1.2,0.5-1.9c0-0.1,0-0.2-0.1-0.2c-0.1,0-0.1-0.1-0.2-0.1
	c0.1-0.1,0.1-0.3,0.2-0.4C-330.2,286.7-330.1,286.1-330.1,285.3z M-330.6,283.2C-330.6,283.2-330.6,283.2-330.6,283.2
	C-330.6,283.2-330.6,283.2-330.6,283.2c0.1,0.5,0,1-0.1,1.4c-0.1,0.4-0.3,0.8-0.5,1.1c-0.3,0.4-0.5,0.6-0.6,0.7c0,0,0,0,0,0
	c0,0,0,0,0,0c-0.7-0.8-0.8-2-0.7-2.6c0,0,0,0,0,0c0,0,0,0,0,0c0.4,0.4,0.6,0.9,0.6,0.9c0,0.1,0.1,0.1,0.2,0.1c0.1,0,0.2-0.1,0.2-0.1
	C-331.3,283.9-330.9,283.4-330.6,283.2z M-330.9,280.6C-330.9,280.6-330.9,280.6-330.9,280.6C-330.9,280.6-330.9,280.6-330.9,280.6
	c0.1,0.5,0.1,1,0,1.4c-0.1,0.4-0.2,0.8-0.4,1.1c-0.2,0.4-0.5,0.6-0.6,0.7c0,0,0,0,0,0c0,0,0,0,0,0c-0.7-0.6-0.9-1.8-1-2.5
	c0,0,0,0,0,0c0,0,0,0,0,0c0.4,0.4,0.7,0.8,0.7,0.8c0,0.1,0.1,0.1,0.2,0.1c0.1,0,0.1-0.1,0.2-0.1
	C-331.5,281.4-331.2,280.9-330.9,280.6z M-331.3,278.1C-331.3,278.1-331.3,278.1-331.3,278.1C-331.3,278.1-331.3,278.1-331.3,278.1
	c0.1,0.5,0.1,1,0.1,1.4c0,0.4-0.2,0.8-0.3,1.2c-0.2,0.4-0.4,0.7-0.5,0.7c0,0,0,0,0,0c0,0,0,0,0,0c-0.6-0.5-0.9-1.2-1-1.7
	c-0.1-0.2-0.1-0.5-0.1-0.7c0,0,0,0,0,0c0,0,0,0,0,0c0.4,0.3,0.8,0.8,0.8,0.8c0,0.1,0.1,0.1,0.2,0.1c0.1,0,0.1-0.1,0.2-0.2
	C-331.9,278.9-331.6,278.4-331.3,278.1z M-344.6,291.5c0,0.1,0.1,0.1,0.2,0.2c0.8,0.4,1.5,1.3,1.8,1.6c0,0,0,0,0,0
	c0,0.1-0.1,0.2-0.1,0.3c-0.1,0.2-0.3,0.4-0.6,0.4c0,0,0,0,0,0c0,0,0-0.1,0-0.1c-0.1-0.2-0.2-0.5-0.5-0.7c-0.3-0.3-0.9-0.8-0.9-0.8
	c-0.1-0.1-0.3-0.1-0.4,0.1c-0.1,0.1-0.1,0.3,0.1,0.4c0.2,0.1,0.6,0.4,0.8,0.7c0.3,0.3,0.3,0.5,0.4,0.5c0,0,0,0,0,0
	c0,0.1-0.1,0.2-0.2,0.3c-0.1,0.1-0.3,0.2-0.5,0.2c0,0,0,0,0,0c-0.1-0.2-0.3-0.6-0.6-1c-0.1-0.1-0.3-0.1-0.4,0
	c-0.1,0.1-0.1,0.1-0.1,0.2c0,0.1,0,0.2,0.1,0.2c0.3,0.3,0.4,0.6,0.5,0.7c0,0,0,0,0,0c-0.1,0-0.1,0.1-0.2,0.1
	c-0.2,0.1-0.4,0.1-0.7,0.1c0,0,0,0,0,0c0,0,0,0,0,0c0.1-0.1,0.2-0.3,0.2-0.5c0-0.2,0-0.5-0.3-0.7c-0.1-0.2-0.4-0.3-0.8-0.2
	c0,0,0,0,0,0c0,0,0,0,0,0c0-0.2-0.1-0.4-0.3-0.6c-0.3-0.3-0.7-0.3-1.1-0.2c0,0,0,0,0,0l0,0c0,0,0,0,0,0c-0.1-0.2-0.2-0.4-0.5-0.5
	c-0.3-0.1-0.6-0.2-0.9-0.1c0,0,0,0,0,0c-0.3-0.2-0.7-0.3-0.8-0.3c-0.4-0.1-1.1,0.2-1.4,0.5c0,0,0,0,0,0c-2,1.1-4.7,1.8-5.7,2.8
	c0,0,0,0,0,0c0,0,0,0,0,0c-0.6-1.1-1-2.2-1.4-3.4c-0.1-0.3-0.2-0.7-0.3-1c0,0,0,0,0,0c0,0,0,0,0,0c3-0.3,5.4-0.7,7.1-1
	c1.8-0.4,3-0.7,3.6-1.1l0,0c0.7-0.5,1.2-0.7,1.9-0.7c0.2,0,0.4,0,0.6,0.1c0,0,0,0,0,0c0,0,0,0,0,0c-0.2,0.1-0.3,0.1-0.5,0.2
	c-0.3,0.2-0.4,0.3-0.6,0.5c-0.2,0.1-0.3,0.2-0.5,0.4c-0.1,0.1-0.3,0.2-0.5,0.3c-0.4,0.2-0.7,0.4-0.8,0.6l0,0l0,0
	c-0.1,0.3-0.1,0.5,0.1,0.8c0.3,0.4,0.8,0.4,1.2,0.4c0.5,0,1-0.2,1.4-0.4c0.1-0.1,0.3-0.2,0.4-0.2c0.2-0.1,0.3-0.2,0.5-0.2
	c0,0,0,0,0,0c0.4-0.1,0.8-0.1,1.3,0.1c0.4,0.2,0.9,0.4,1.2,0.7c0.9,0.6,1.6,1.5,1.8,1.7c0,0,0,0,0,0c0,0.1-0.1,0.3-0.2,0.4
	c-0.1,0.1-0.3,0.2-0.5,0.2c0,0,0,0,0,0c-0.3-0.4-1.1-1.3-2-1.8c-0.2-0.1-0.3,0-0.4,0.1C-344.6,291.4-344.6,291.5-344.6,291.5z
	 M-346.9,294.7C-346.9,294.7-346.9,294.7-346.9,294.7L-346.9,294.7c-0.1,0.1-0.5,0.4-0.9,0.4c0,0-0.1,0-0.1,0c-0.1,0-0.2,0-0.3-0.2
	c0,0,0,0,0,0c0.2-0.3,0.5-0.6,0.8-0.8c0.4-0.2,0.6-0.1,0.6-0.1c0.1,0.1,0.1,0.2,0.1,0.2C-346.6,294.4-346.8,294.6-346.9,294.7
	L-346.9,294.7L-346.9,294.7z M-350.4,293c0.4-0.4,0.8-0.5,1.1-0.4c0.1,0,0.2,0.1,0.2,0.2c0,0,0,0.1,0,0.1c0,0,0,0,0,0
	c-0.1,0-0.1,0.1-0.2,0.1c-0.5,0.3-0.7,0.6-0.8,1c0,0,0,0,0,0h0c-0.1,0-0.1,0-0.2,0c-0.4-0.1-0.4-0.3-0.4-0.4
	C-350.8,293.4-350.7,293.2-350.4,293z M-350.9,292.5c-0.2,0.2-0.4,0.4-0.5,0.7c0,0,0,0,0,0h0c-0.1,0-0.1,0-0.2,0
	c-0.2,0-0.4-0.1-0.4-0.2c0,0-0.1-0.2,0.1-0.3c0.2-0.3,0.7-0.5,1-0.5c0,0,0,0,0,0c0,0,0.1,0,0.2,0c0,0,0,0,0,0c0,0,0,0,0,0
	C-350.7,292.4-350.8,292.4-350.9,292.5z M-349,293.5c0.6-0.4,0.9-0.5,1.1-0.3c0.1,0.1,0.1,0.1,0.1,0.2c0,0.1-0.1,0.3-0.3,0.4
	c-0.4,0.2-0.6,0.5-0.7,0.8c0,0,0,0,0,0c-0.1,0-0.2,0-0.3,0c-0.2,0-0.3,0-0.4-0.1c-0.1,0-0.1-0.1-0.1-0.2
	C-349.6,294-349.2,293.7-349,293.5z M-342.8,266.4C-342.8,266.4-342.8,266.4-342.8,266.4C-342.8,266.4-342.8,266.4-342.8,266.4
	c0.3-0.1,0.5-0.2,0.8-0.2c0.7,0,1.3,0.2,1.8,0.7c0,0,0,0,0,0c0,0,0,0,0,0c-0.1,0.1-0.4,0.1-0.7,0.1c0,0-0.1,0-0.1,0
	C-341.6,267.1-342.2,266.8-342.8,266.4z M-341.9,267h-9.6c1.5,0,3.2-1.2,4.8-1.2C-345.1,265.8-343.5,267-341.9,267z M-340.7,265.4
	c-0.2,0.1-0.6,0.2-0.9,0.3c-0.2,0-0.5,0.1-0.7,0.1c-0.5,0-1-0.1-1.3-0.4c0,0,0,0,0,0s0,0,0,0c0.2-0.1,0.4-0.2,0.8-0.3
	c0.4-0.1,0.7-0.1,1.1,0C-341.4,265.1-341.1,265.2-340.7,265.4C-340.7,265.4-340.7,265.4-340.7,265.4
	C-340.7,265.4-340.7,265.4-340.7,265.4z M-343,264.6c-0.2,0.1-0.7,0.3-1.3,0.3c-0.1,0-0.2,0.1-0.2,0.2c0,0.1,0,0.2,0.1,0.2
	c0,0,0.5,0.3,0.8,0.8c0,0,0,0,0,0c0,0,0,0,0,0c-0.6,0-1.7-0.2-2.5-1.1c0,0,0,0,0,0c0.1-0.1,0.3-0.3,0.7-0.4
	C-344.8,264.3-343.9,264.3-343,264.6C-343,264.6-343,264.6-343,264.6C-343,264.6-343,264.6-343,264.6z M-345.7,264.2
	c-0.2,0.2-0.6,0.4-1.2,0.6c-0.1,0-0.1,0.1-0.1,0.2c0,0.1,0.1,0.2,0.1,0.2c0,0,0.5,0.2,1,0.6c0,0,0,0,0,0c0,0,0,0,0,0
	c-0.2,0-0.4,0-0.5,0c-0.6,0-1.5-0.1-2.1-0.6c0,0,0,0,0,0c0.1-0.1,0.3-0.4,0.6-0.5C-347.4,264.3-346.6,264.1-345.7,264.2
	C-345.7,264.2-345.7,264.2-345.7,264.2C-345.7,264.2-345.7,264.2-345.7,264.2z M-348.4,264.2c-0.2,0.2-0.5,0.5-1.1,0.8
	c-0.1,0-0.1,0.1-0.1,0.2c0,0.1,0.1,0.2,0.2,0.2c0,0,0.6,0.1,1.1,0.4c0,0,0,0,0,0c0,0,0,0,0,0c-0.2,0.1-0.5,0.1-0.7,0.2
	c-0.2,0-0.5,0.1-0.7,0.1c-0.5,0-0.9-0.1-1.3-0.3c0,0,0,0,0,0c0.1-0.2,0.2-0.4,0.4-0.7C-350.2,264.7-349.4,264.3-348.4,264.2
	C-348.4,264.2-348.4,264.2-348.4,264.2C-348.4,264.2-348.4,264.2-348.4,264.2z M-351.9,265.9C-351.9,266-352,265.9-351.9,265.9
	c0,0.2,0,0.1,0.1,0.1h0c0,0,0.3,0.1,0.5,0.2c0.2,0,0.4,0.1,0.6,0.2c0,0,0,0,0,0.1c0,0,0,0,0,0c-0.2,0.1-0.4,0.2-0.7,0.3
	c-0.4,0.2-0.9,0.2-1.3,0.2c-0.3,0-0.5,0-0.8-0.1c0,0,0,0,0,0c0.1-0.4,0.5-1.6,2.4-2.2c0,0,0,0,0,0c0,0,0,0,0,0
	C-351,265-351.3,265.4-351.9,265.9z M-340.8,268c0.5,0,1,1,1.5,1h-15c0.5,0,1-1,1.5-1H-340.8z M-338.6,270c0.4,0,0.7,1,1,1h-7.3
	c-1-1-2-0.7-2.2-0.6c-0.1,0-1.1-0.4-2,0.6h-7c0.3,0,0.7-1,1-1H-338.6z M-349.2,278.3c-0.6-0.1-1.1,0.1-1.8,0.4c0,0,0,0,0,0
	c0,0,0,0,0,0c0-0.1,0-0.1,0-0.2c0.3-1.7,1-2.9,1.5-3.5c0.4-0.5,0.7-0.8,0.9-1c0.1,0,0.1-0.1,0.2-0.1c0.1-0.1,0.2-0.3,0.1-0.5
	c-0.1-0.2-0.3-0.2-0.5-0.1c0,0-0.1,0.1-0.2,0.1c-0.3,0.2-0.5,0.2-0.7,0.1c-0.1-0.1-0.2-0.3-0.2-0.5c0.1-0.4,0.5-0.9,0.6-1
	c0,0,0,0,0,0c0.8-1,2.2-1,2.2-1c0,0,0.5,0,1,0.1c0.7,0.2,1.3,0.7,1.7,1.5c0.5,1,0.9,2.1,1.2,3.2c0,0,0,0,0,0c0,0,0,0,0,0
	c-0.8-0.3-1.4-0.8-1.4-0.8c-0.2-0.1-0.4-0.1-0.5,0c-0.1,0.2-0.1,0.4,0,0.5c0,0,1,0.8,2.1,1c0,0,0,0,0,0c0.1,0.4,0.2,0.8,0.2,1.3
	c0,0,0,0,0,0c0,0,0,0,0,0c-0.4-0.2-0.8-0.3-1.2-0.4c-0.2-0.1-0.5-0.1-0.6-0.2c-0.8-0.3-1.4-0.8-1.4-0.8c-0.2-0.1-0.4-0.1-0.5,0.1
	c-0.1,0.2-0.1,0.4,0.1,0.5c0,0,0.7,0.6,1.6,0.9c0.2,0.1,0.3,0.2,0.5,0.2c1,0.3,1.2,0.5,1.2,1c0,0,0,0,0,0c0,0.1,0.1,0.2,0.1,0.2
	c-0.3,0.3-0.8,0.4-1,0.4c0,0-1,0-1,0c-0.2,0-1.1,0-1.9-0.6C-347.8,278.7-348.5,278.4-349.2,278.3z M-347.3,279.9
	C-347.3,279.9-347.3,280-347.3,279.9l-2.9,0.1c-0.3,0-0.5-0.1-0.6-0.3c0,0-0.1-0.1-0.1-0.2c0,0,0,0,0,0
	C-349.6,278.9-349,278.8-347.3,279.9C-347.3,279.9-347.3,279.9-347.3,279.9z M-346,282h12.8c0,1,0.1,1,0.1,2H-346V282z M-346,282v-1
	h12.6c0.1,0,0.1,0,0.2,1H-346z M-342.2,280c0.1,0,0.2-0.3,0.3-0.5c0,0,0,0,0,0c0-0.2,0.1-0.5,0-0.5h8.1c0.1,0,0.2,1,0.2,1H-342.2z
	 M-341.9,278c-0.1,0-0.1-1-0.2-1h7.9c0,0,0.1,0.1,0.1,0.2c0.1,0.3,0.2,0.8,0.3,0.8H-341.9z M-342.3,276c-0.1,0-0.2,0-0.3-1h7.6
	c0.2,1,0.3,1,0.5,1H-342.3z M-342.8,275c-0.1-1-0.3-1-0.4-1h7.3c0.2,0,0.4,0,0.6,1H-342.8z M-343.5,273c-0.1,0-0.1-0.2-0.2-0.4
	c-0.1-0.3-0.3-0.6-0.4-0.6h7.1c0.3,0,0.5,0,0.8,1H-343.5z M-349.7,272c-0.2,0-0.6,0-0.7,1h-6.8c0.2-1,0.5-1,0.8-1H-349.7z
	 M-350.5,274c0,0,0.2,0.4,0.5,0.5c0.1,0,0.1-0.1,0.2,0c0,0,0-0.1,0-0.1c0,0,0,0.2,0,0.2c-0.1,0.1-0.1,0.4-0.2,0.4h-8.3
	c0.2-1,0.4-1,0.6-1H-350.5z M-350.4,275c-0.2,0-0.4,1-0.6,1h-8c0.1,0,0.3,0,0.5-1H-350.4z M-351.3,277c-0.1,0-0.2,1-0.3,1h-8
	c0.1,0,0.2-0.5,0.3-0.8c0-0.1,0.1-0.2,0.1-0.2H-351.3z M-351.7,279c0,0,0,0.2,0,0.4c0,0,0,0,0,0c0,0.2,0.1,0.6,0.2,0.6h-8.6
	c0.1,0,0.2-1,0.2-1H-351.7z M-347,281v1h-13.3c0-1,0.1-1,0.2-1H-347z M-347,282v2h-13.4c0-1,0-1,0.1-2H-347z M-347,284v3
	c0,0-0.1,0-0.1,0c0,0-0.1,0-0.1,0c0,0-0.1,0-0.1,0c-0.7,0-1.3,0.3-2,0.8c-1,0.7-4.6,1.4-10.5,2.1c0,0,0,0,0,0
	c-0.4-1.8-0.6-3.8-0.6-5.6c0,0,0-0.3,0-0.3H-347z M-342.9,290.2c-0.6-0.4-1.8-1.2-3-0.9c-0.2,0.1-0.4,0.2-0.7,0.3
	c-0.1,0.1-0.2,0.2-0.4,0.2c-0.4,0.2-0.8,0.3-1.1,0.3c-0.3,0-0.6,0-0.7-0.1c-0.1-0.1-0.1-0.2-0.1-0.2c0,0,0,0,0,0
	c0.1-0.1,0.4-0.2,0.5-0.3c0.2-0.1,0.4-0.2,0.6-0.3c0.2-0.1,0.4-0.3,0.5-0.4c0.1-0.1,0.3-0.3,0.6-0.4c0.4-0.3,0.8-0.3,1.3-0.3
	c0.1,0,0.2,0,0.3,0c0.1,0,0.1,0,0.2,0c0.6,0,1.2,0.2,2.1,0.5c0.2,0.1,0.5,0.2,0.8,0.3c0,0,0,0,0,0c0,0,1.2,0.4,2.7,0.7
	c1.4,0.3,3.4,0.7,5.3,0.9c0,0,0,0,0,0c0,0,0,0,0,0c-0.1,0.3-0.2,0.6-0.3,0.9c-0.4,1.2-0.9,2.4-1.5,3.5c0,0,0,0,0,0c0,0,0,0,0,0
	c-0.9,0-3.2-1.4-4.7-2.5c-0.3-0.2-0.5-0.4-0.6-0.5c0,0,0,0,0,0c0,0,0,0,0,0l0,0c0,0-0.1-0.1-0.1-0.1
	C-341.4,291.5-342.1,290.8-342.9,290.2z M-341.7,288.3c-0.3-0.1-0.6-0.2-0.8-0.3c-0.9-0.3-1.5-0.5-2.3-0.5c0,0-0.1,0-0.1,0
	c0,0,0,0,0,0c-0.4-0.2-0.6-0.4-1.2-0.5c0,0,0.2,0,0.2,0V284h13c0,0,0,0.4,0,0.4c0,1.9-0.3,3.7-0.7,5.5c0,0,0,0,0,0h0
	C-337.3,289.7-341.5,288.4-341.7,288.3z M-332.1,275.6C-332.1,275.6-332.1,275.6-332.1,275.6C-332,275.6-332,275.6-332.1,275.6
	c0.2,0.5,0.3,0.9,0.3,1.3c0,0.4,0,0.8-0.2,1.2c-0.1,0.4-0.4,0.7-0.4,0.8c0,0,0,0,0,0c0,0,0,0,0,0c-0.5-0.3-1-0.9-1.2-1.6
	c-0.1-0.2-0.2-0.5-0.2-0.7c0,0,0,0,0,0c0,0,0,0,0,0c0.5,0.3,0.9,0.7,0.9,0.7c0.1,0.1,0.1,0.1,0.2,0.1c0.1,0,0.1-0.1,0.1-0.2
	C-332.6,276.5-332.3,276-332.1,275.6z M-333.6,275.1c0.1,0,0.1-0.1,0.1-0.2c0-0.8,0.2-1.3,0.4-1.7c0,0,0,0,0,0c0,0,0,0,0,0
	c0.2,0.5,0.3,0.9,0.4,1.3c0.1,0.4,0,0.8,0,1.2c-0.1,0.4-0.3,0.7-0.4,0.9c0,0,0,0,0,0c0,0,0,0,0,0c-0.6-0.3-1-0.8-1.4-1.5
	c-0.1-0.2-0.2-0.4-0.3-0.7c0,0,0,0,0,0c0,0,0,0,0,0c0.5,0.2,0.9,0.6,0.9,0.6C-333.7,275.1-333.6,275.1-333.6,275.1L-333.6,275.1z
	 M-334.6,272.9c0.1,0,0.1-0.1,0.1-0.2c-0.1-0.7,0-1.3,0.2-1.7c0,0,0,0,0,0h0c0,0,0,0,0,0c0.2,0.4,0.4,0.8,0.5,1.3
	c0.1,0.4,0.1,0.8,0.1,1.2c0,0.4-0.2,0.6-0.2,0.7c0,0,0-0.2,0-0.2c0,0,0,0,0,0c-0.6,0-1.2-0.5-1.6-1.1c-0.1-0.2-0.3-0.3-0.3-0.6
	c0,0,0,0,0,0c0,0,0,0,0,0c0.5,0.2,1,0.5,1,0.5C-334.8,272.9-334.7,272.9-334.6,272.9z M-336.2,270.9c0.1,0,0.2,0,0.2,0
	c0.1-0.1,0.1-0.1,0.1-0.2c-0.2-0.7-0.2-1.3-0.1-1.7c0,0,0,0,0,0c0,0,0,0,0,0c0.3,0.4,0.5,0.8,0.7,1.1c0.2,0.4,0.3,0.8,0.3,1.2
	c0,0.4-0.1,0.7-0.1,0.8c0,0,0-0.1,0-0.1h0c-0.6,0-1.2-0.4-1.7-0.9c-0.2-0.2-0.3-0.3-0.5-0.6c0,0,0,0,0,0c0,0,0,0,0,0
	C-336.7,270.5-336.2,270.9-336.2,270.9z M-337.8,269.1c0.1,0,0.2,0,0.2-0.1c0.1-0.1,0.1-0.2,0-0.2c-0.3-0.7-0.4-1.3-0.4-1.7
	c0,0,0,0,0,0c0,0,0,0,0,0c0.4,0.3,0.7,0.7,0.9,1c0.2,0.4,0.4,0.7,0.5,1.1c0.1,0.4,0.1,0.7,0.1,0.9c0,0,0-0.1,0-0.1c0,0,0,0,0,0
	c-0.7,0-1.4-0.3-1.8-0.6c-0.2-0.2-0.4-0.3-0.6-0.5c0,0,0,0,0,0c0,0,0,0,0,0C-338.3,268.8-337.8,269-337.8,269.1z M-338.4,267.4
	c0.2,0.4,0.2,0.8,0.2,1c0,0,0,0,0,0c0,0-0.1,0-0.1,0c-0.9,0-1.9-0.6-2.4-0.9c0,0,0,0,0,0c0,0,0,0,0,0c0.5-0.1,1.1,0,1.1,0
	c0.1,0,0.2,0,0.2-0.1c0-0.1,0-0.2,0-0.2c-0.3-0.4-0.6-0.9-0.7-1.3c0,0,0,0,0,0s0,0,0,0C-339.3,266.2-338.7,266.7-338.4,267.4z
	 M-354.6,265C-354.6,265-354.6,265-354.6,265C-354.6,265-354.6,265-354.6,265c0.2-0.1,0.4-0.2,0.5-0.3c0.5-0.2,1-0.3,1.3-0.4
	c0.5-0.1,0.9-0.4,1-0.4c0,0,0,0,0-0.1c0,0,0-0.1-0.1-0.1l-2.9-0.4c0,0,0,0,0,0c0,0,0,0,0,0l2.9-0.4c0,0,0.1,0,0.1-0.1
	c0,0,0-0.1-0.1-0.1c0,0-0.6-0.1-1.1-0.3c-0.2-0.1-0.3-0.2-0.4-0.2c-0.3-0.2-0.6-0.3-1.1-0.4c0,0,0,0,0,0c0,0,0,0,0,0
	c0.2,0,0.4,0,0.6,0c0.5,0,1,0.1,1.3,0.2c0.6,0.1,1,0,1,0c0,0,0.1,0,0.1-0.1c0,0,0-0.1,0-0.1l-2.5-1.5c0,0,0,0,0,0c0,0,0,0,0,0
	l2.9,0.7c0,0,0.1,0,0.1,0c0,0,0-0.1,0-0.1c0,0-0.5-0.3-0.9-0.8c-0.1-0.1-0.2-0.3-0.3-0.4c-0.2-0.3-0.4-0.6-0.9-0.8c0,0,0,0,0,0
	c0,0,0,0,0,0c0.2,0.1,0.4,0.1,0.6,0.2c0.5,0.2,0.9,0.5,1.1,0.6c0.5,0.3,0.9,0.4,0.9,0.4c0,0,0.1,0,0.1,0c0,0,0-0.1,0-0.1l-1.8-2.4
	c0,0,0,0,0,0c0,0,0,0,0,0l2.4,1.8c0,0,0.1,0,0.1,0c0,0,0-0.1,0-0.1c0,0-0.3-0.4-0.6-1c-0.1-0.2-0.1-0.3-0.2-0.5
	c-0.1-0.4-0.2-0.7-0.5-1.1c0,0,0,0,0,0c0,0,0,0,0,0c0.2,0.1,0.3,0.3,0.4,0.4c0.4,0.4,0.7,0.8,0.8,1c0.3,0.5,0.7,0.7,0.7,0.7
	c0,0,0.1,0,0.1,0c0,0,0,0,0-0.1l-0.7-2.9c0,0,0,0,0,0c0,0,0,0,0,0l1.5,2.5c0,0,0.1,0,0.1,0c0,0,0.1-0.1,0-0.1c0,0-0.1-0.6-0.1-1.2
	c0-0.2,0-0.3,0-0.5c0-0.4,0.1-0.7,0-1.2c0,0,0,0,0,0c0,0,0,0,0,0c0.1,0.2,0.2,0.4,0.2,0.6c0.2,0.5,0.3,1,0.4,1.3
	c0.1,0.5,0.3,0.9,0.4,1c0,0,0,0,0.1,0c0,0,0.1,0,0.1-0.1l0.4-2.9c0,0,0,0,0,0c0,0,0,0,0,0l0.4,2.9c0,0,0,0.1,0.1,0.1
	c0,0,0.1,0,0.1-0.1c0,0,0.1-0.6,0.3-1.1c0.1-0.2,0.2-0.3,0.2-0.4c0.2-0.3,0.3-0.6,0.4-1.2c0,0,0,0,0,0c0,0,0,0,0,0
	c0,0.2,0,0.4,0,0.6c0,0.5-0.1,1-0.2,1.3c-0.1,0.6,0,1,0,1c0,0,0,0.1,0.1,0.1c0,0,0.1,0,0.1,0l1.5-2.5c0,0,0,0,0,0c0,0,0,0,0,0
	l-0.7,2.9c0,0,0,0.1,0,0.1c0,0,0.1,0,0.1,0c0,0,0.3-0.5,0.7-0.9c0.1-0.1,0.3-0.2,0.4-0.3c0.3-0.2,0.5-0.4,0.8-0.9c0,0,0,0,0,0
	c0,0,0,0,0,0c-0.1,0.2-0.1,0.4-0.2,0.6c-0.2,0.5-0.5,0.9-0.6,1.1c-0.3,0.5-0.4,0.9-0.4,0.9c0,0,0,0.1,0,0.1c0,0,0.1,0,0.1,0l2.4-1.8
	c0,0,0,0,0,0c0,0,0,0,0,0l-1.8,2.4c0,0,0,0.1,0,0.1c0,0,0.1,0,0.1,0c0,0,0.4-0.3,1-0.6c0.2-0.1,0.3-0.1,0.5-0.2
	c0.4-0.1,0.7-0.2,1.1-0.5c0,0,0,0,0,0c0,0,0,0,0,0c-0.1,0.2-0.3,0.3-0.4,0.4c-0.4,0.4-0.8,0.7-1,0.8c-0.5,0.3-0.7,0.7-0.7,0.7
	c0,0,0,0.1,0,0.1c0,0,0,0,0.1,0l2.8-0.7c0,0,0,0,0,0c0,0,0,0,0,0l-2.5,1.5c0,0,0,0.1,0,0.1c0,0,0.1,0.1,0.1,0c0,0,0.6-0.1,1.2-0.1
	c0.2,0,0.3,0,0.5,0c0.4,0,0.7,0.1,1.2,0c0,0,0,0,0,0c0,0,0,0,0,0c-0.2,0.1-0.4,0.2-0.5,0.2c-0.5,0.2-1,0.3-1.3,0.4
	c-0.6,0.1-0.9,0.4-1,0.4c0,0,0,0,0,0.1c0,0,0,0.1,0.1,0.1l2.9,0.4c0,0,0,0,0,0c0,0,0,0,0,0l-2.9,0.4c0,0-0.1,0-0.1,0.1
	c0,0,0,0.1,0.1,0.1c0,0,0.6,0.1,1.1,0.3c0.2,0.1,0.3,0.2,0.4,0.2c0.3,0.2,0.6,0.3,1.1,0.4c0,0,0,0,0,0c0,0,0,0,0,0
	c-0.1,0-0.2,0-0.3,0c-0.1,0-0.2,0-0.3,0c-0.5,0-1-0.1-1.3-0.2c0,0,0,0-0.1,0c0,0,0-0.3,0-0.3c-0.5-0.2-0.9-0.6-1.4-0.6h0
	c0,0,0,0.3,0,0.3c0,0,0,0.1,0,0.1c0,0,0,0,0,0c0-0.1-0.1-0.1-0.1-0.1c-0.5-0.2-1.1-0.3-1.5-0.3c0,0,0,0-0.1,0h0c0,0,0,0,0,0
	c0,0-0.1,0-0.1,0h0c0,0,0,0,0,0c0,0-0.1,0-0.1,0h0c-0.2,0-0.4,0-0.6,0c0,0,0,0,0,0c0,0,0,0,0,0c0,0,0,0,0,0c0,0,0-0.1,0-0.1
	c0,0,0,0,0,0c0-0.1-0.1-0.1-0.2-0.1c0,0-0.1,0-0.1,0c0,0,0,0,0,0l0,0c0,0-0.1,0-0.1,0c0,0,0,0-0.1,0c0,0-0.1,0-0.1,0
	c-0.5,0-1.1,0-1.5,0.1c-0.1,0-0.2,0.1-0.4,0.1c0,0,0,0,0,0c0,0,0,0-0.1,0l0,0c0,0-0.1,0-0.1,0l0,0c-0.1,0-0.1,0-0.2,0.1
	c0,0-0.1,0-0.1,0c0,0-0.1,0-0.1,0v0c0,0,0,0,0,0c0,0,0,0,0,0v0c0-0.1,0.1-0.1,0-0.2l0,0c0,0,0,0,0,0l0,0c0,0-0.1-0.1-0.1-0.1
	c-0.7,0.1-1.3,0.2-1.9,0.4c-0.2,0.1-0.3,0.2-0.5,0.3c0,0,0,0,0,0c0,0,0,0,0,0c0,0,0-0.1,0-0.1l0,0c0,0,0-0.1,0-0.1
	c0-0.1,0-0.3-0.1-0.3h0c0,0,0,0.1,0,0.1l0,0c0,0,0,0,0,0l0,0c0,0-0.1,0-0.1,0c-0.7,0.2-1.3,0.5-1.8,0.8c0,0,0,0,0,0l0,0c0,0,0,0,0,0
	c-0.1,0-0.3,0-0.4,0c-0.1,0-0.5,0-0.5,0C-353.8,264.9-354.1,264.9-354.6,265z M-353.6,265.6L-353.6,265.6
	C-353.6,265.5-353.5,265.5-353.6,265.6C-353.5,265.6-353.5,265.6-353.6,265.6c0.1,0.4,0,1-0.5,1.6c0,0.1,0,0.2,0,0.2
	c0,0.1,0.1,0.1,0.2,0.1c0,0,0.5-0.1,1.1-0.1c0,0,0,0,0,0c0,0,0,0,0,0c-0.5,0.4-1.4,1-2.4,1c0,0-0.1,0-0.1,0c0,0-0.1,0-0.1,0
	C-355.3,268-355.1,266.7-353.6,265.6z M-357,269.2c0.1-0.4,0.2-0.7,0.5-1.1c0.2-0.4,0.5-0.7,0.9-1c0,0,0,0,0,0c0,0,0,0,0,0
	c0,0.4,0,1-0.4,1.7c0,0.1,0,0.2,0,0.2c0.1,0.1,0.1,0.1,0.2,0.1c0,0,0.5-0.2,1.1-0.2c0,0,0,0,0,0c0,0,0,0,0,0
	c-0.2,0.2-0.4,0.4-0.6,0.6c-0.4,0.3-1.1,0.7-1.7,0.7c0,0,0,0-0.1,0c0,0,0,0,0,0C-357,270-357.1,269.7-357,269.2z M-357.5,269
	L-357.5,269C-357.5,269-357.5,268.9-357.5,269C-357.5,268.9-357.5,268.9-357.5,269c0.1,0.3,0.2,0.9-0.1,1.7c0,0.1,0,0.2,0.1,0.2
	c0.1,0.1,0.2,0.1,0.2,0c0,0,0.5-0.3,1.1-0.4c0,0,0,0,0,0c0,0,0-0.1,0-0.1c-0.4,0.5-1.2,1.6-2.2,1.6h0c0,0,0,0.1,0,0.1
	C-358.6,271.6-358.8,270.4-357.5,269z M-359.7,272.2c0.1-0.4,0.3-0.8,0.6-1.2c0,0,0,0,0,0c0,0,0,0,0,0c0.1,0.4,0.2,1,0.1,1.7
	c0,0.1,0,0.2,0.1,0.2c0.1,0,0.2,0,0.2,0c0,0,0.4-0.4,1-0.5c0,0,0,0,0,0c0,0,0,0,0,0c-0.1,0.2-0.2,0.3-0.4,0.5c-0.5,0.6-1,1-1.6,1
	c0,0,0,0,0,0c0,0,0,0.2,0,0.2c-0.1-0.1-0.2-0.4-0.2-0.8C-359.9,273-359.8,272.7-359.7,272.2z M-360.9,274.5c0.1-0.4,0.2-0.9,0.4-1.3
	c0,0,0,0,0,0c0,0,0,0,0,0c0.2,0.3,0.4,0.9,0.3,1.7c0,0.1,0,0.2,0.1,0.2c0.1,0,0.2,0,0.2,0c0,0,0.5-0.4,1-0.6c0,0,0,0,0,0
	c0,0,0,0,0,0c-0.1,0.2-0.1,0.4-0.2,0.6c-0.3,0.7-0.8,1.2-1.5,1.5c0,0,0,0,0,0c0,0,0,0,0,0c-0.1-0.1-0.3-0.4-0.3-0.9
	C-361,275.4-361,275-360.9,274.5z M-361.6,275.6C-361.6,275.6-361.5,275.6-361.6,275.6C-361.5,275.6-361.5,275.6-361.6,275.6
	c0.3,0.3,0.5,0.9,0.6,1.6c0,0.1,0.1,0.2,0.1,0.2c0.1,0,0.2,0,0.2-0.1c0,0,0.4-0.5,0.9-0.8c0,0,0,0,0,0c0,0,0,0,0,0
	c0,0.2-0.1,0.5-0.1,0.7c-0.2,0.7-0.7,1.3-1.3,1.7c0,0,0,0,0,0c0,0,0,0,0,0c-0.1-0.1-0.3-0.4-0.5-0.8c-0.1-0.4-0.2-0.8-0.2-1.2
	C-361.8,276.5-361.7,276.1-361.6,275.6z M-362.3,278.1C-362.3,278.1-362.3,278.1-362.3,278.1C-362.3,278.1-362.2,278.1-362.3,278.1
	c0.3,0.3,0.6,0.8,0.8,1.5c0,0.1,0.1,0.1,0.2,0.2c0.1,0,0.2,0,0.2-0.1c0-0.1,0.4-0.5,0.8-0.8c0,0,0,0,0,0c0,0,0,0,0,0
	c0,0.2,0,0.4-0.1,0.7c-0.2,0.7-0.5,1.3-1,1.8c0,0,0,0,0,0c0,0,0,0,0,0c-0.1-0.1-0.3-0.4-0.5-0.7c-0.2-0.3-0.3-0.7-0.3-1.2
	C-362.4,279-362.4,278.6-362.3,278.1z M-362.7,280.6C-362.7,280.6-362.7,280.6-362.7,280.6C-362.6,280.6-362.6,280.6-362.7,280.6
	c0.3,0.3,0.7,0.8,0.9,1.5c0,0.1,0.1,0.1,0.2,0.2c0.1,0,0.2,0,0.2-0.1c0,0,0.2-0.5,0.7-0.9c0,0,0,0,0,0c0,0,0,0,0,0
	c0,0.3,0,0.5-0.1,0.8c-0.1,0.8-0.4,1.4-0.9,1.8c0,0,0,0,0,0c0,0,0,0,0,0c-0.1-0.1-0.4-0.3-0.6-0.7c-0.2-0.3-0.3-0.7-0.4-1.1
	C-362.7,281.6-362.7,281.1-362.7,280.6z M-362.9,283.2C-362.9,283.2-362.9,283.2-362.9,283.2C-362.8,283.2-362.8,283.2-362.9,283.2
	c0.1,0,0.2,0.1,0.2,0.1c0.2,0.2,0.5,0.8,0.7,1.4c0,0.1,0.1,0.2,0.2,0.2c0,0,0,0,0,0c0.1,0,0.2-0.2,0.2-0.3c0,0,0.1-0.6,0.5-1
	c0,0,0,0,0,0c0,0,0,0,0,0c0,0.3,0.1,0.7,0,1.2c-0.1,0.6-0.3,1.1-0.7,1.4c0,0,0,0,0,0c0,0,0,0,0,0
	C-362.1,286.1-363,285.2-362.9,283.2z M-363,285.8C-363,285.8-362.9,285.8-363,285.8c0.1,0,0.1,0.1,0.2,0.1c0.3,0.2,0.6,0.6,0.9,1.2
	c0,0.1-0.1,0.1,0,0.1l-0.2,0v0c0,0,0.3-0.1,0.3-0.1c0,0,0.3-0.6,0.7-1c0,0,0.1,0,0.1,0c0,0,0,0,0,0c0.1,0.5,0.2,1.6-0.6,2.7
	c0,0,0,0,0,0c0,0,0,0,0,0C-361.9,288.6-362.9,287.8-363,285.8C-363,285.8-363,285.8-363,285.8z M-362.8,288.4
	C-362.8,288.4-362.8,288.4-362.8,288.4C-362.8,288.4-362.8,288.4-362.8,288.4c0.4,0.1,0.9,0.5,1.3,1.1c0,0.1,0.2,0.1,0.3,0.1
	c0.1,0,0.2-0.1,0.2-0.2c0,0,0,0,0,0c0,0,0.1-0.7,0.4-1.1c0,0,0,0,0,0h0c0,0,0,0,0,0c0.1,0.2,0.2,0.5,0.2,0.7c0.2,0.7,0,1.4-0.4,2.1
	c0,0,0,0,0,0c0,0,0,0,0,0c-0.1,0-0.5-0.2-0.8-0.5c-0.3-0.3-0.5-0.6-0.7-1C-362.6,289.3-362.7,288.9-362.8,288.4z M-362.2,290.7v0.1
	c0,0,0,0,0,0c0,0,0,0,0,0c0.1,0,0.1,0.1,0.2,0.1c0.3,0.2,0.8,0.5,1.2,1c0.1,0.1,0.1,0.1,0.2,0.1c0.1,0,0.1-0.1,0.1-0.2
	c0,0,0.1-0.6,0.3-1.1c0,0,0,0,0,0c0,0,0,0,0,0c0.2,0.5,0.6,1.4,0.1,2.5c0,0,0-0.2,0-0.2c0,0,0,0,0,0
	C-360.5,293-361.6,292.6-362.2,290.7z M-360.8,294.5c-0.3-0.3-0.5-0.7-0.7-1.2c0,0,0,0,0,0c0,0,0,0,0,0c0.1,0,0.1,0,0.2,0.1
	c0.3,0.1,0.8,0.4,1.3,0.8c0.1,0.1,0.1,0.1,0.2,0c0.1,0,0.1-0.1,0.1-0.2c0,0,0-0.6,0.2-1.1c0,0,0,0,0,0c0,0,0,0,0,0
	c0.1,0.2,0.2,0.4,0.3,0.7c0.3,0.7,0.3,1.6,0.1,2.2c0,0,0,0.2,0,0.2h0c-0.1,0-0.5-0.3-0.9-0.5C-360.2,295.3-360.5,294.9-360.8,294.5z
	 M-360.4,295.7C-360.4,295.7-360.4,295.7-360.4,295.7C-360.4,295.7-360.4,295.7-360.4,295.7c0.4,0,1,0.2,1.6,0.7
	c0.1,0.1,0.2,0.1,0.2,0c0.1,0,0.1-0.1,0.1-0.2c0,0-0.1-0.5,0.1-1.1c0,0,0,0,0,0c0,0,0,0,0,0c0.1,0.2,0.3,0.4,0.4,0.6
	c0.2,0.5,0.5,1.2,0.4,2c0,0,0,0,0,0c-0.2,0-0.5,0-0.9-0.2c-0.4-0.2-0.7-0.4-1-0.7C-359.9,296.5-360.2,296.1-360.4,295.7z
	 M-358.2,298.9c-0.3-0.3-0.6-0.6-0.9-1c0,0,0,0,0,0c0,0,0,0,0,0c0.4,0,1,0.1,1.6,0.6c0.1,0,0.2,0,0.2,0c0.1,0,0.1-0.1,0.1-0.2
	c0,0-0.1-0.5-0.1-1.1c0,0,0,0,0,0s0,0,0,0c0.4,0.5,1.1,1.5,1,2.5c0,0,0,0,0,0c0,0-0.1,0-0.1,0c-0.2,0-0.5,0-0.8-0.1
	C-357.5,299.4-357.8,299.2-358.2,298.9z M-354.5,301.3c-0.1,0-0.2,0-0.3,0c-0.2,0-0.3,0-0.5-0.1c-0.7-0.1-1.4-0.6-2.2-1.2
	c0,0,0,0,0,0c0,0,0,0,0,0c0.4-0.1,1-0.1,1.7,0.2c0.1,0,0.2,0,0.2,0c0.1-0.1,0.1-0.1,0-0.2c0,0-0.2-0.5-0.3-1.1c0,0,0,0,0,0
	c0,0,0,0,0,0C-355.3,299.3-354.4,300.1-354.5,301.3C-354.5,301.3-354.5,301.3-354.5,301.3z M-349.7,303.4c-0.6-0.2-1.1-0.4-1.7-0.6
	c-0.9-0.4-1.9-0.9-2.7-1.5c0,0,0,0,0,0c0-0.3,0-0.7-0.1-1c0,0,0,0,0,0s0,0,0,0c0.7,0.5,1.2,1,1.9,1.3c0.7,0.4,1.3,0.7,2.3,1v0
	l0.2,0.1C-349.8,302.9-349.8,303.2-349.7,303.4L-349.7,303.4z M-348.4,302.8c-0.1,0.3-0.1,0.6,0.1,0.9c0,0,0,0,0,0c0,0,0,0,0,0
	c0,0,0,0,0,0c-0.4-0.1-0.6-0.3-0.8-0.5c-0.1-0.2-0.2-0.4-0.2-0.6c0-0.2,0.1-0.3,0.2-0.4c0.2-0.1,0.6-0.2,1.1-0.1c0,0,0,0,0,0
	c0,0,0,0,0,0C-348.1,302.3-348.3,302.5-348.4,302.8z M-346.8,305.3c-0.4,0-0.7-0.3-0.7-0.7c0-0.4,0.3-0.7,0.7-0.7
	c0.4,0,0.7,0.3,0.7,0.7C-346.1,305-346.4,305.3-346.8,305.3z M-345.9,303.7C-345.9,303.7-345.9,303.7-345.9,303.7
	c-0.3-0.2-0.6-0.3-0.8-0.3c-0.3,0-0.6,0.1-0.8,0.3c0,0,0,0,0,0c0,0,0,0,0,0c-0.2-0.2-0.4-0.5-0.3-0.8c0.2-0.6,1.1-0.7,1.1-0.7h0
	c0.1,0,0.3,0.1,0.5,0.1c0.3,0.1,0.5,0.3,0.6,0.6C-345.5,303.2-345.7,303.5-345.9,303.7z M-344.4,303.2c-0.2,0.2-0.4,0.4-0.8,0.5
	c0,0,0,0,0,0c0,0,0,0,0,0c0,0,0,0,0,0c0.1-0.3,0.2-0.6,0.1-0.9c-0.1-0.2-0.2-0.5-0.5-0.6c0,0,0,0,0,0c0,0,0,0,0,0
	c0.4,0,0.9,0,1.1,0.1c0.1,0.1,0.2,0.2,0.2,0.4C-344.2,302.9-344.3,303.1-344.4,303.2z M-339.4,301.3
	C-339.4,301.3-339.4,301.3-339.4,301.3c-0.2,0.2-0.9,0.7-2,1.2c-0.8,0.4-1.5,0.7-2.3,0.9l-0.2,0c0.2-0.2,0.2-0.5,0.2-0.8l0.2-0.1v0
	c0.8-0.2,1.6-0.6,2.3-1c0.7-0.4,1.3-0.9,1.9-1.4c0,0,0,0,0,0c0,0,0,0,0,0C-339.4,300.6-339.4,301-339.4,301.3z M-341.5,301.2
	c-0.7,0.4-1.5,0.7-2.3,1l-0.1,0c-0.1-0.1-0.2-0.3-0.3-0.4c-0.7-0.5-2.2-0.1-2.6,0c0,0,0,0,0,0c-0.4-0.1-1.8-0.5-2.6,0
	c-0.1,0.1-0.3,0.2-0.3,0.4l-0.1,0c-0.8-0.2-1.5-0.6-2.2-1c-1.6-0.9-3.1-2.2-4.3-3.9c-0.4-0.6-0.8-1.2-1.2-1.8c0,0,0,0,0,0
	c0,0,0,0,0,0c0.9-0.4,3.1-1.4,5-2.4c0,0,0,0,0,0c0,0,0,0,0,0c0,0.1,0,0.2,0.1,0.2c0.2,0.4,0.6,0.5,0.9,0.6c0.1,0,0.2,0,0.3,0
	c0,0,0,0,0,0c0.1,0.3,0.4,0.5,0.8,0.6c0.1,0,0.3,0.1,0.4,0.1c0,0,0,0,0,0c0.1,0.2,0.2,0.3,0.3,0.4c0.4,0.3,0.9,0.2,1.2,0.2
	c0,0,0,0,0,0c0.2,0.2,0.4,0.3,0.6,0.4c0.2,0,0.5,0,0.8-0.1c0,0,0.1,0,0.1,0c0,0,0.1,0,0.1,0v3.4c0,0.2,0.3,0.4,0.5,0.4
	c0.2,0,0.5-0.2,0.5-0.4v-3.5c0,0-0.2,0-0.2,0c0,0-0.1,0-0.1,0c0.5,0.1,0.8,0,1-0.1c0.2-0.1,0.3-0.2,0.4-0.3c0,0,0,0,0,0
	c0.4,0.1,0.8,0,1.1-0.3c0.1-0.1,0.2-0.2,0.2-0.3c0,0,0-0.2,0-0.2l0-0.2c0,0,0.1,0,0.1,0c0.5,0,0.9,0,1.1-0.3
	c0.1-0.1,0.2-0.1,0.2-0.2c0,0,0,0,0,0c0.4,0,0.7-0.1,0.9-0.3c0.1-0.1,0.2-0.2,0.2-0.3c0,0,0,0,0,0c0,0,0,0,0,0c1.5,1.2,4,2.3,5,2.7
	c0,0,0,0,0,0c0,0,0,0,0,0c-0.4,0.6-0.7,1.2-1.2,1.7C-338.4,299-339.8,300.3-341.5,301.2z M-336,300c-0.9,0.9-1.7,1.1-2.2,1.2
	c-0.2,0-0.3,0.1-0.5,0.1c-0.1,0-0.3,0-0.3,0c0,0,0,0,0,0c0-0.6,0.2-1.3,0.7-1.9c0.2-0.2,0.3-0.4,0.5-0.5c0,0,0,0,0,0c0,0,0,0,0,0
	c-0.1,0.5-0.3,1.1-0.3,1.1c0,0.1,0,0.2,0,0.2c0.1,0.1,0.1,0.1,0.2,0C-337,299.9-336.4,299.9-336,300C-336,300-336,300-336,300
	C-336,300-336,300-336,300z M-334.4,297.9c-0.3,0.4-0.6,0.7-0.9,1c-0.3,0.3-0.7,0.5-1.1,0.6c-0.3,0.1-0.6,0.1-0.8,0.1
	c0,0-0.1,0-0.1,0c0,0,0,0,0,0c0-0.6,0.1-1.3,0.6-1.9c0.1-0.2,0.3-0.4,0.4-0.6c0,0,0,0,0,0c0,0,0,0,0,0c0,0.5,0,1.1-0.1,1.1
	c0,0.1,0,0.2,0.1,0.2c0.1,0,0.2,0,0.2,0C-335.4,298-334.8,297.9-334.4,297.9C-334.4,297.9-334.4,297.9-334.4,297.9
	C-334.4,297.9-334.4,297.9-334.4,297.9z M-333.9,296.8c-0.3,0.3-0.6,0.5-1,0.7c-0.4,0.2-0.8,0.2-0.9,0.2c0,0,0,0,0,0
	c-0.1-0.6,0-1.3,0.4-2c0.1-0.2,0.2-0.4,0.4-0.6c0,0,0,0,0,0c0,0,0,0,0,0c0.1,0.5,0.1,1.1,0.1,1.1c0,0.1,0,0.2,0.1,0.2
	c0.1,0,0.2,0,0.2,0c0.6-0.5,1.2-0.7,1.6-0.7c0,0,0,0,0,0c0,0,0,0,0,0C-333.3,296.1-333.6,296.5-333.9,296.8z M-332.7,294.5
	c-0.3,0.3-0.6,0.8-0.9,1c-0.4,0.2-0.7,0.5-0.9,0.5h0c0,0,0-0.2,0-0.2c-0.2-0.6-0.1-1.4,0.1-2.1c0.1-0.2,0.2-0.5,0.3-0.7c0,0,0,0,0,0
	c0,0,0,0,0,0c0.2,0.5,0.2,1.1,0.2,1.1c0,0.1,0.1,0.1,0.1,0.2c0.1,0,0.2,0,0.2-0.1c0,0,0,0,0,0c0.5-0.5,0.9-0.7,1.3-0.9
	c0.1,0,0.2,0,0.2-0.1c0,0,0,0,0,0c0,0,0,0,0,0C-332.2,293.8-332.5,294.2-332.7,294.5z M-331.3,290.9c-0.2,0.5-0.3,0.9-0.6,1.2
	c-0.2,0.4-0.5,0.5-0.8,0.7c-0.4,0.3-0.7,0.2-0.8,0.2c0,0,0,0,0,0c0,0,0,0.2,0,0.2c-0.3-0.7-0.2-1.4-0.1-1.9c0.1-0.2,0.1-0.4,0.2-0.7
	c0,0,0,0,0,0s0,0,0,0c0.2,0.5,0.3,1.1,0.3,1.1c0,0.1,0.1,0.1,0.1,0.2c0.1,0,0.2,0,0.2-0.1C-332.2,291.3-331.7,291-331.3,290.9
	C-331.3,290.8-331.3,290.8-331.3,290.9C-331.3,290.9-331.3,290.9-331.3,290.9L-331.3,290.9z M-331.2,289.6c-0.2,0.4-0.4,0.7-0.7,1
	c-0.3,0.3-0.6,0.4-0.8,0.5c0,0,0,0,0,0c0,0,0,0,0,0c-0.3-0.6-0.4-1.3-0.3-2.1c0-0.2,0.1-0.5,0.1-0.7c0,0,0,0,0,0c0,0,0,0,0,0
	c0.3,0.5,0.4,1.1,0.4,1.1c0,0.1,0.1,0.1,0.2,0.2c0.1,0,0.2,0,0.2-0.1c0.4-0.6,0.9-1,1.2-1.2c0,0,0,0,0,0c0,0,0,0,0,0
	C-330.9,288.8-331,289.2-331.2,289.6z M-330.8,287.1c-0.1,0.4-0.3,0.8-0.6,1c-0.3,0.3-0.6,0.5-0.7,0.6c0,0,0,0,0,0c0,0,0,0,0,0
	c-0.4-0.5-0.6-1.2-0.6-2c0-0.2,0-0.5,0.1-0.7c0,0,0,0,0,0c0,0,0,0,0,0c0.3,0.4,0.5,0.9,0.5,0.9c0,0.1,0.1,0.1,0.2,0.1c0,0,0,0,0,0
	c0.1,0,0.1,0,0.2,0c0.3-0.7,0.8-1.1,1.1-1.3c0,0,0,0,0,0l0,0c0,0,0,0,0,0C-330.6,286.2-330.7,286.7-330.8,287.1z"/>
</svg>
