<?xml version="1.0" encoding="utf-8"?>
<!-- Generator: Adobe Illustrator 16.0.0, SVG Export Plug-In . SVG Version: 6.00 Build 0)  -->
<!DOCTYPE svg PUBLIC "-//W3C//DTD SVG 1.1//EN" "http://www.w3.org/Graphics/SVG/1.1/DTD/svg11.dtd">
<svg version="1.1" id="_x36_4_px" xmlns="http://www.w3.org/2000/svg" xmlns:xlink="http://www.w3.org/1999/xlink" x="0px" y="0px"
	 width="64px" height="64px" viewBox="0 0 64 64" enable-background="new 0 0 64 64" xml:space="preserve">
<g id="Servicios">
	<g id="default">
		<circle fill="#075AB8" cx="32" cy="32" r="32"/>
		<g id="_x5F__general_4_">
			<defs>
				<circle id="SVGID_1_" cx="32" cy="32" r="29"/>
			</defs>
			<clipPath id="SVGID_2_">
				<use xlink:href="#SVGID_1_"  overflow="visible"/>
			</clipPath>
			<g id="logo_base_1_" clip-path="url(#SVGID_2_)">
				<path fill="#F9C213" d="M27.043,18.955c-0.691,0.693-1.206,1.453-1.542,2.278C25.168,22.048,25,22.955,25,23.946
					c0,1.409,0.344,2.663,1.033,3.751c0.144,0.225,0.295,0.438,0.451,0.631c0.164,0.207,0.345,0.411,0.546,0.611h0.009l0.012,0.013
					l0.009,0.008c0.578,0.593,1.195,1.054,1.842,1.383c0.123,0.062,0.256,0.125,0.392,0.18c0.816,0.346,1.709,0.52,2.666,0.521
					v-0.008h0.021c1.386,0,2.624-0.351,3.694-1.052c0.222-0.144,0.432-0.297,0.621-0.456c0.202-0.166,0.404-0.351,0.602-0.554
					v-0.008l0.015-0.015h0.008c0.571-0.577,1.025-1.21,1.36-1.89l0.003,0.003c0.061-0.121,0.121-0.255,0.175-0.39
					c0.338-0.831,0.509-1.739,0.512-2.71h-0.009v-0.02c0-0.992-0.167-1.898-0.499-2.714c-0.339-0.821-0.852-1.585-1.542-2.278
					c-0.572-0.573-1.194-1.03-1.862-1.364c-0.116-0.059-0.25-0.121-0.39-0.179V17.41c-0.813-0.341-1.707-0.513-2.668-0.514v0.008
					h-0.02c-1.388,0-2.627,0.35-3.705,1.047l-0.003-0.007c-0.192,0.125-0.4,0.277-0.615,0.455c-0.213,0.172-0.413,0.354-0.595,0.539
					l0.001,0.003l-0.014,0.014H27.043z"/>
				<path fill="#77C4EA" d="M27.067,34.122c-1.079-0.547-2.067-1.274-2.953-2.185l-0.007-0.008l-0.007-0.006l0.003-0.005
					c-0.295-0.296-0.574-0.609-0.833-0.935c-0.27-0.335-0.512-0.673-0.724-1.009c-1.135-1.79-1.701-3.807-1.701-6.028
					c0-0.598,0.043-1.185,0.127-1.752H10.25v70.827h17.336V34.363C27.415,34.287,27.239,34.207,27.067,34.122z"/>
				<path fill="#77C4EA" d="M42.992,22.194c0.083,0.567,0.125,1.154,0.125,1.752v0.02h-0.009c-0.001,1.547-0.276,2.994-0.819,4.325
					c-0.087,0.21-0.187,0.431-0.292,0.647v0.007c-0.527,1.073-1.244,2.075-2.153,2.989l0.004,0.003l-0.013,0.017l-0.004-0.005
					c-0.294,0.298-0.603,0.582-0.923,0.846c-0.331,0.273-0.664,0.52-0.993,0.734c-0.496,0.325-1.01,0.6-1.539,0.831v58.662h17.336
					V22.194H42.992z"/>
			</g>
		</g>
	</g>
</g>
</svg>
